score_qstamp,qstamp,tstamp,measure,beat,instrument,duration_quarter,duration,pitch,velocity
0.0,0.0,0.0,1,3.875,Flute 1,0.125,0.1786,86,1.0
0.0,0.0,0.0,1,3.875,Bassoon 2,0.125,0.1786,50,1.0
0.0,0.0,0.0,1,3.875,D Trumpet 1,0.125,0.1786,74,1.0
0.0,0.0,0.0,1,3.875,A Clarinet 1,0.125,0.1786,74,1.0
0.0,0.0,0.0,1,3.875,D Horn 2,0.125,0.1786,50,1.0
0.0,0.0,0.0,1,3.875,D Trumpet 2,0.125,0.1786,62,1.0
0.0,0.0,0.0,1,3.875,Viola,0.125,0.1786,62,1.0
0.0,0.0,0.0,1,3.875,A Clarinet 2,0.125,0.1786,62,1.0
0.0,0.0,0.0,1,3.875,Violin 2,0.125,0.1786,62,1.0
0.0,0.0,0.0,1,3.875,Oboe 2,0.125,0.1786,74,1.0
0.0,0.0,0.0,1,3.875,Contrabass,0.125,0.1786,38,1.0
0.0,0.0,0.0,1,3.875,Oboe 1,0.125,0.1786,74,1.0
0.0,0.0,0.0,1,3.875,Violoncello,0.125,0.1786,50,1.0
0.0,0.0,0.0,1,3.875,Timpani,0.125,0.1786,50,1.0
0.0,0.0,0.0,1,3.875,D Horn 1,0.125,0.1786,62,1.0
0.0,0.0,0.0,1,3.875,Violin 1,0.125,0.1786,62,1.0
0.0,0.0,0.0,1,3.875,Bassoon 1,0.125,0.1786,62,1.0
0.0,0.0,0.0,1,3.875,Flute 2,0.125,0.1786,86,1.0
0.125,0.125,0.1786,2,1.0,D Horn 2,1.5,2.1429,50,1.0
0.125,0.125,0.1786,2,1.0,D Trumpet 1,1.5,2.1429,74,1.0
0.125,0.125,0.1786,2,1.0,Violin 1,1.5,2.1429,62,1.0
0.125,0.125,0.1786,2,1.0,A Clarinet 1,1.5,2.1429,74,1.0
0.125,0.125,0.1786,2,1.0,Oboe 1,1.5,2.1429,74,1.0
0.125,0.125,0.1786,2,1.0,Oboe 2,1.5,2.1429,74,1.0
0.125,0.125,0.1786,2,1.0,Violoncello,1.5,2.1429,50,1.0
0.125,0.125,0.1786,2,1.0,Timpani,1.5,2.1429,50,1.0
0.125,0.125,0.1786,2,1.0,Flute 1,1.5,2.1429,86,1.0
0.125,0.125,0.1786,2,1.0,D Horn 1,1.5,2.1429,62,1.0
0.125,0.125,0.1786,2,1.0,Violin 2,1.5,2.1429,62,1.0
0.125,0.125,0.1786,2,1.0,Contrabass,1.5,2.1429,38,1.0
0.125,0.125,0.1786,2,1.0,A Clarinet 2,1.5,2.1429,62,1.0
0.125,0.125,0.1786,2,1.0,Bassoon 1,1.5,2.1429,62,1.0
0.125,0.125,0.1786,2,1.0,Viola,1.5,2.1429,62,1.0
0.125,0.125,0.1786,2,1.0,D Trumpet 2,1.5,2.1429,62,1.0
0.125,0.125,0.1786,2,1.0,Flute 2,1.5,2.1429,86,1.0
0.125,0.125,0.1786,2,1.0,Bassoon 2,1.5,2.1429,50,1.0
1.625,1.625,2.3214,2,2.5,Oboe 2,0.5,0.7143,69,0.4961
1.625,1.625,2.3214,2,2.5,Bassoon 1,0.5,0.7143,57,0.4961
1.625,1.625,2.3214,2,2.5,Bassoon 2,0.5,0.7143,50,0.4961
1.625,1.625,2.3214,2,2.5,Oboe 1,0.5,0.7143,78,0.4961
2.125,2.125,3.0357,2,3.0,Oboe 2,0.5,0.7143,67,0.4961
2.125,2.125,3.0357,2,3.0,Bassoon 1,0.5,0.7143,57,0.4961
2.125,2.125,3.0357,2,3.0,Bassoon 2,0.5,0.7143,52,0.4961
2.125,2.125,3.0357,2,3.0,Oboe 1,0.5,0.7143,76,0.4961
2.625,2.625,3.75,2,3.5,Oboe 1,0.5,0.7143,74,0.4961
2.625,2.625,3.75,2,3.5,Bassoon 2,0.5,0.7143,54,0.4961
2.625,2.625,3.75,2,3.5,Oboe 2,0.5,0.7143,66,0.4961
2.625,2.625,3.75,2,3.5,Bassoon 1,0.5,0.7143,57,0.4961
3.125,3.125,4.4643,3,1.0,Oboe 1,1.0,1.4286,74,0.4961
3.125,3.125,4.4643,3,1.0,Bassoon 2,2.0,2.8571,55,0.4961
3.125,3.125,4.4643,3,1.0,Oboe 2,2.0,2.8571,64,0.4961
3.125,3.125,4.4643,3,1.0,Bassoon 1,2.0,2.8571,57,0.4961
4.125,4.125,5.8929,3,2.0,Oboe 1,1.0,1.4286,73,0.4961
5.125,5.125,7.3214,3,3.0,Bassoon 2,1.0,1.4286,54,0.4961
5.125,5.125,7.3214,3,3.0,Bassoon 1,1.0,1.4286,57,0.4961
5.125,5.125,7.3214,3,3.0,Oboe 2,1.0,1.4286,71,0.4961
5.125,5.125,7.3214,3,3.0,Oboe 1,1.0,1.4286,75,0.4961
6.125,6.125,8.75,4,1.0,Bassoon 2,1.5,2.1429,55,0.4961
6.125,6.125,8.75,4,1.0,Oboe 1,1.5,2.1429,76,0.4961
6.125,6.125,8.75,4,1.0,Oboe 2,1.5,2.1429,71,0.4961
6.125,6.125,8.75,4,1.0,Bassoon 1,1.5,2.1429,59,0.4961
7.625,7.625,10.8929,4,2.5,Oboe 1,0.5,0.7143,78,0.4961
7.625,7.625,10.8929,4,2.5,Bassoon 2,0.5,0.7143,57,0.4961
7.625,7.625,10.8929,4,2.5,Oboe 2,0.5,0.7143,71,0.4961
7.625,7.625,10.8929,4,2.5,Bassoon 1,0.5,0.7143,63,0.4961
8.125,8.125,11.6071,4,3.0,Bassoon 1,0.5,0.7143,64,0.4961
8.125,8.125,11.6071,4,3.0,Oboe 2,0.5,0.7143,71,0.4961
8.125,8.125,11.6071,4,3.0,Oboe 1,0.5,0.7143,79,0.4961
8.125,8.125,11.6071,4,3.0,Bassoon 2,0.5,0.7143,55,0.4961
8.625,8.625,12.3214,4,3.5,Oboe 2,0.5,0.7143,71,0.4961
8.625,8.625,12.3214,4,3.5,Bassoon 1,0.5,0.7143,67,0.4961
8.625,8.625,12.3214,4,3.5,Oboe 1,0.5,0.7143,83,0.4961
8.625,8.625,12.3214,4,3.5,Bassoon 2,0.5,0.7143,52,0.4961
9.125,9.125,13.0357,5,1.0,Oboe 1,1.0,1.4286,74,0.4961
9.125,9.125,13.0357,5,1.0,Oboe 2,1.0,1.4286,69,0.4961
9.125,9.125,13.0357,5,1.0,Bassoon 2,1.0,1.4286,57,0.4961
9.125,9.125,13.0357,5,1.0,Bassoon 1,1.0,1.4286,66,0.4961
10.125,10.125,14.4643,5,2.0,Bassoon 2,0.5,0.7143,45,0.4961
10.125,10.125,14.4643,5,2.0,Oboe 2,0.5,0.7143,69,0.4961
10.125,10.125,14.4643,5,2.0,Oboe 1,0.5,0.7143,73,0.4961
10.125,10.125,14.4643,5,2.0,Bassoon 1,0.5,0.7143,64,0.4961
10.625,10.625,15.1786,5,2.5,Flute 1,0.375,0.5357,88,0.5461
10.625,10.625,15.1786,5,2.5,Bassoon 2,0.375,0.5357,61,0.5461
10.625,10.625,15.1786,5,2.5,A Clarinet 1,0.375,0.5357,76,0.5461
10.625,10.625,15.1786,5,2.5,Flute 2,0.375,0.5357,85,0.5461
10.625,10.625,15.1786,5,2.5,A Clarinet 2,0.375,0.5357,73,0.5461
10.625,10.625,15.1786,5,2.5,Bassoon 1,0.375,0.5357,64,0.5461
11.0,11.0,15.7143,5,2.875,Flute 2,0.125,0.1786,83,0.5461
11.0,11.0,15.7143,5,2.875,A Clarinet 2,0.125,0.1786,71,0.5461
11.0,11.0,15.7143,5,2.875,Flute 1,0.125,0.1786,86,0.5461
11.0,11.0,15.7143,5,2.875,Bassoon 2,0.125,0.1786,59,0.5461
11.0,11.0,15.7143,5,2.875,A Clarinet 1,0.125,0.1786,74,0.5461
11.0,11.0,15.7143,5,2.875,Bassoon 1,0.125,0.1786,62,0.5461
11.125,11.125,15.8929,5,3.0,Bassoon 1,0.375,0.5357,61,0.5461
11.125,11.125,15.8929,5,3.0,A Clarinet 2,0.375,0.5357,69,0.5461
11.125,11.125,15.8929,5,3.0,Flute 2,0.375,0.5357,81,0.5461
11.125,11.125,15.8929,5,3.0,A Clarinet 1,0.375,0.5357,73,0.5461
11.125,11.125,15.8929,5,3.0,Bassoon 2,0.375,0.5357,57,0.5461
11.125,11.125,15.8929,5,3.0,Flute 1,0.375,0.5357,85,0.5461
11.5,11.5,16.4286,5,3.375,Bassoon 2,0.125,0.1786,55,0.5461
11.5,11.5,16.4286,5,3.375,A Clarinet 1,0.125,0.1786,71,0.5461
11.5,11.5,16.4286,5,3.375,Flute 2,0.125,0.1786,79,0.5461
11.5,11.5,16.4286,5,3.375,Bassoon 1,0.125,0.1786,59,0.5461
11.5,11.5,16.4286,5,3.375,Flute 1,0.125,0.1786,83,0.5461
11.5,11.5,16.4286,5,3.375,A Clarinet 2,0.125,0.1786,67,0.5461
11.625,11.625,16.6071,5,3.5,A Clarinet 1,0.375,0.5357,69,0.5461
11.625,11.625,16.6071,5,3.5,Flute 2,0.375,0.5357,78,0.5461
11.625,11.625,16.6071,5,3.5,Bassoon 1,0.375,0.5357,57,0.5461
11.625,11.625,16.6071,5,3.5,Flute 1,0.375,0.5357,81,0.5461
11.625,11.625,16.6071,5,3.5,A Clarinet 2,0.375,0.5357,66,0.5461
11.625,11.625,16.6071,5,3.5,Bassoon 2,0.375,0.5357,54,0.5461
12.0,12.0,17.1429,5,3.875,D Horn 2,0.125,0.1786,50,1.0
12.0,12.0,17.1429,5,3.875,Violin 1,0.125,0.1786,74,0.7087
12.0,12.0,17.1429,5,3.875,D Trumpet 2,0.125,0.1786,62,1.0
12.0,12.0,17.1429,5,3.875,Flute 2,0.125,0.1786,76,0.5461
12.0,12.0,17.1429,5,3.875,D Horn 1,0.125,0.1786,62,1.0
12.0,12.0,17.1429,5,3.875,Timpani,0.125,0.1786,50,1.0
12.0,12.0,17.1429,5,3.875,Violoncello,0.125,0.1786,50,1.0
12.0,12.0,17.1429,5,3.875,Oboe 1,0.125,0.1786,74,1.0
12.0,12.0,17.1429,5,3.875,D Trumpet 1,0.125,0.1786,74,1.0
12.0,12.0,17.1429,5,3.875,Contrabass,0.125,0.1786,38,1.0
12.0,12.0,17.1429,5,3.875,Oboe 2,0.125,0.1786,62,1.0
12.0,12.0,17.1429,5,3.875,Flute 1,0.125,0.1786,79,0.5461
12.0,12.0,17.1429,5,3.875,Violin 1,0.125,0.1786,62,0.7087
12.0,12.0,17.1429,5,3.875,Bassoon 2,0.125,0.1786,52,0.5461
12.0,12.0,17.1429,5,3.875,Violin 2,0.125,0.1786,74,0.7087
12.0,12.0,17.1429,5,3.875,Violin 2,0.125,0.1786,62,0.7087
12.0,12.0,17.1429,5,3.875,A Clarinet 1,0.125,0.1786,67,0.5461
12.0,12.0,17.1429,5,3.875,Bassoon 1,0.125,0.1786,55,0.5461
12.0,12.0,17.1429,5,3.875,Viola,0.125,0.1786,50,0.7087
12.0,12.0,17.1429,5,3.875,Viola,0.125,0.1786,62,0.7087
12.0,12.0,17.1429,5,3.875,A Clarinet 2,0.125,0.1786,64,0.5461
12.125,12.125,17.3214,6,1.0,Violin 1,1.5,2.1429,74,0.7087
12.125,12.125,17.3214,6,1.0,D Horn 2,1.5,2.1429,50,1.0
12.125,12.125,17.3214,6,1.0,Violin 2,1.5,2.1429,62,0.7087
12.125,12.125,17.3214,6,1.0,Flute 1,1.5,2.1429,78,1.0
12.125,12.125,17.3214,6,1.0,D Trumpet 2,1.5,2.1429,62,1.0
12.125,12.125,17.3214,6,1.0,Violin 2,1.5,2.1429,74,0.7087
12.125,12.125,17.3214,6,1.0,Violin 1,1.5,2.1429,62,0.7087
12.125,12.125,17.3214,6,1.0,Oboe 2,1.5,2.1429,62,1.0
12.125,12.125,17.3214,6,1.0,Contrabass,1.5,2.1429,38,1.0
12.125,12.125,17.3214,6,1.0,Oboe 1,1.5,2.1429,74,1.0
12.125,12.125,17.3214,6,1.0,Violoncello,1.5,2.1429,50,1.0
12.125,12.125,17.3214,6,1.0,Timpani,1.5,2.1429,50,1.0
12.125,12.125,17.3214,6,1.0,D Horn 1,1.5,2.1429,62,1.0
12.125,12.125,17.3214,6,1.0,Flute 2,1.5,2.1429,74,1.0
12.125,12.125,17.3214,6,1.0,Viola,1.5,2.1429,62,0.7087
12.125,12.125,17.3214,6,1.0,A Clarinet 1,1.5,2.1429,66,1.0
12.125,12.125,17.3214,6,1.0,Viola,1.5,2.1429,50,0.7087
12.125,12.125,17.3214,6,1.0,Bassoon 1,1.5,2.1429,54,1.0
12.125,12.125,17.3214,6,1.0,Bassoon 2,1.5,2.1429,50,1.0
12.125,12.125,17.3214,6,1.0,A Clarinet 2,1.5,2.1429,62,1.0
12.125,12.125,17.3214,6,1.0,D Trumpet 1,1.5,2.1429,74,1.0
13.625,13.625,19.4643,6,2.5,Violoncello,0.5,0.7143,62,0.4961
13.625,13.625,19.4643,6,2.5,Violin 2,0.5,0.7143,69,0.4961
13.625,13.625,19.4643,6,2.5,Contrabass,0.5,0.7143,50,0.4961
13.625,13.625,19.4643,6,2.5,Violin 1,0.5,0.7143,78,0.4961
13.625,13.625,19.4643,6,2.5,Viola,0.5,0.7143,62,0.4961
14.125,14.125,20.1786,6,3.0,Violin 2,0.5,0.7143,67,0.4961
14.125,14.125,20.1786,6,3.0,Contrabass,0.5,0.7143,46,0.4961
14.125,14.125,20.1786,6,3.0,Violin 1,0.5,0.7143,76,0.4961
14.125,14.125,20.1786,6,3.0,Violoncello,0.5,0.7143,58,0.4961
14.125,14.125,20.1786,6,3.0,Viola,0.5,0.7143,61,0.4961
14.625,14.625,20.8929,6,3.5,Viola,0.5,0.7143,62,0.4961
14.625,14.625,20.8929,6,3.5,Contrabass,0.5,0.7143,47,0.4961
14.625,14.625,20.8929,6,3.5,Violoncello,0.5,0.7143,59,0.4961
14.625,14.625,20.8929,6,3.5,Violin 1,0.5,0.7143,74,0.4961
14.625,14.625,20.8929,6,3.5,Violin 2,0.5,0.7143,66,0.4961
15.125,15.125,21.6071,7,1.0,Violoncello,1.0,1.4286,56,0.4961
15.125,15.125,21.6071,7,1.0,Violin 1,1.0,1.4286,74,0.4961
15.125,15.125,21.6071,7,1.0,Violin 2,1.0,1.4286,65,0.4961
15.125,15.125,21.6071,7,1.0,Viola,1.0,1.4286,59,0.4961
15.125,15.125,21.6071,7,1.0,Contrabass,1.0,1.4286,44,0.4961
16.125,16.125,23.0357,7,2.0,Violin 2,1.0,1.4286,64,0.4961
16.125,16.125,23.0357,7,2.0,Violoncello,1.0,1.4286,55,0.4961
16.125,16.125,23.0357,7,2.0,Viola,1.0,1.4286,58,0.4961
16.125,16.125,23.0357,7,2.0,Violin 1,1.0,1.4286,73,0.4961
16.125,16.125,23.0357,7,2.0,Contrabass,1.0,1.4286,43,0.4961
17.125,17.125,24.4643,7,3.0,Bassoon 1,1.0,1.4286,60,1.0
17.125,17.125,24.4643,7,3.0,D Horn 2,1.0,1.4286,57,1.0
17.125,17.125,24.4643,7,3.0,Violoncello,1.0,1.4286,54,1.0
17.125,17.125,24.4643,7,3.0,Contrabass,1.0,1.4286,42,1.0
17.125,17.125,24.4643,7,3.0,Oboe 1,1.0,1.4286,75,1.0
17.125,17.125,24.4643,7,3.0,Oboe 2,1.0,1.4286,72,1.0
17.125,17.125,24.4643,7,3.0,D Horn 1,1.0,1.4286,69,1.0
17.125,17.125,24.4643,7,3.0,Flute 1,1.0,1.4286,84,1.0
17.125,17.125,24.4643,7,3.0,Flute 2,1.0,1.4286,75,1.0
17.125,17.125,24.4643,7,3.0,A Clarinet 1,1.0,1.4286,69,1.0
17.125,17.125,24.4643,7,3.0,A Clarinet 2,1.0,1.4286,69,1.0
17.125,17.125,24.4643,7,3.0,Viola,1.0,1.4286,54,0.7087
17.125,17.125,24.4643,7,3.0,Bassoon 2,1.0,1.4286,54,1.0
17.125,17.125,24.4643,7,3.0,Viola,1.0,1.4286,57,0.7087
17.125,17.125,24.4643,7,3.0,Violin 2,1.0,1.4286,63,1.0
17.125,17.125,24.4643,7,3.0,Violin 1,1.0,1.4286,75,1.0
18.125,18.125,25.8929,8,1.0,Viola,0.5,0.7143,55,0.7087
18.125,18.125,25.8929,8,1.0,Violin 2,0.875,1.25,64,0.9921
18.125,18.125,25.8929,8,1.0,Contrabass,0.5,0.7143,43,1.0
18.125,18.125,25.8929,8,1.0,Flute 1,0.5,0.7143,83,1.0
18.125,18.125,25.8929,8,1.0,D Horn 2,0.5,0.7143,64,1.0
18.125,18.125,25.8929,8,1.0,Oboe 2,0.5,0.7143,71,1.0
18.125,18.125,25.8929,8,1.0,A Clarinet 2,0.5,0.7143,67,1.0
18.125,18.125,25.8929,8,1.0,Bassoon 2,0.5,0.7143,55,1.0
18.125,18.125,25.8929,8,1.0,Viola,0.5,0.7143,59,0.7087
18.125,18.125,25.8929,8,1.0,Violin 1,0.875,1.25,76,0.9921
18.125,18.125,25.8929,8,1.0,Bassoon 1,0.5,0.7143,59,1.0
18.125,18.125,25.8929,8,1.0,Flute 2,0.5,0.7143,76,1.0
18.125,18.125,25.8929,8,1.0,D Horn 1,0.5,0.7143,64,1.0
18.125,18.125,25.8929,8,1.0,Violoncello,0.5,0.7143,55,1.0
18.125,18.125,25.8929,8,1.0,A Clarinet 1,0.5,0.7143,67,1.0
18.125,18.125,25.8929,8,1.0,Oboe 1,0.5,0.7143,76,1.0
19.0,19.0,27.1429,8,1.875,Violin 1,0.125,0.1786,78,0.9921
19.0,19.0,27.1429,8,1.875,Violin 2,0.125,0.1786,66,0.9921
19.125,19.125,27.3214,8,2.0,Violin 1,0.375,0.5357,79,0.9921
19.125,19.125,27.3214,8,2.0,Violin 2,0.375,0.5357,67,0.9921
19.5,19.5,27.8571,8,2.375,Violin 1,0.125,0.1786,81,0.9921
19.5,19.5,27.8571,8,2.375,Violin 2,0.125,0.1786,69,0.9921
19.625,19.625,28.0357,8,2.5,Violin 1,0.5,0.7143,83,0.9921
19.625,19.625,28.0357,8,2.5,Violin 2,0.5,0.7143,71,0.9921
20.125,20.125,28.75,8,3.0,Violin 1,0.1667,0.2381,83,0.9921
20.125,20.125,28.75,8,3.0,Violoncello,1.0,1.4286,45,1.0
20.125,20.125,28.75,8,3.0,Viola,1.0,1.4286,52,0.7087
20.125,20.125,28.75,8,3.0,Viola,1.0,1.4286,55,0.7087
20.125,20.125,28.75,8,3.0,Contrabass,1.0,1.4286,33,1.0
20.125,20.125,28.75,8,3.0,Violin 2,0.1667,0.2381,71,1.0
20.2917,20.2917,28.9881,8,3.1667,Violin 2,0.1667,0.2381,67,1.0
20.2917,20.2917,28.9881,8,3.1667,Violin 1,0.1667,0.2381,79,0.9921
20.4583,20.4583,29.2261,8,3.3333,Violin 1,0.1667,0.2381,76,1.0
20.4583,20.4583,29.2261,8,3.3333,Violin 2,0.1667,0.2381,64,1.0
20.625,20.625,29.4643,8,3.5,Violin 1,0.1667,0.2381,79,0.9921
20.625,20.625,29.4643,8,3.5,Violin 2,0.1667,0.2381,67,1.0
20.7917,20.7917,29.7024,8,3.6667,Violin 1,0.1667,0.2381,76,0.9921
20.7917,20.7917,29.7024,8,3.6667,Violin 2,0.1667,0.2381,64,1.0
20.9583,20.9583,29.9404,8,3.8333,Violin 2,0.1667,0.2381,61,1.0
20.9583,20.9583,29.9404,8,3.8333,Violin 1,0.1667,0.2381,73,1.0
21.125,21.125,30.1786,9,1.0,Contrabass,1.0,1.4286,38,1.0
21.125,21.125,30.1786,9,1.0,Violin 2,1.0,1.4286,62,1.0
21.125,21.125,30.1786,9,1.0,Viola,1.0,1.4286,54,1.0
21.125,21.125,30.1786,9,1.0,Violin 1,1.0,1.4286,74,1.0
21.125,21.125,30.1786,9,1.0,Violoncello,1.0,1.4286,50,1.0
21.625,21.625,30.8929,9,1.5,D Horn 1,0.5,0.7143,66,0.5461
21.625,21.625,30.8929,9,1.5,D Horn 2,0.5,0.7143,54,0.5461
22.125,22.125,31.6071,9,2.0,D Horn 2,0.5,0.7143,54,0.5461
22.125,22.125,31.6071,9,2.0,D Horn 1,0.5,0.7143,66,0.5461
22.625,22.625,32.3214,9,2.5,Contrabass,0.5,0.7143,38,0.4961
22.625,22.625,32.3214,9,2.5,Violin 2,0.5,0.7143,59,0.4961
22.625,22.625,32.3214,9,2.5,Viola,0.5,0.7143,54,0.4961
22.625,22.625,32.3214,9,2.5,Violin 1,0.5,0.7143,59,0.4961
22.625,22.625,32.3214,9,2.5,D Horn 2,0.5,0.7143,54,0.5461
22.625,22.625,32.3214,9,2.5,D Horn 1,0.5,0.7143,66,0.5461
22.625,22.625,32.3214,9,2.5,Violoncello,0.5,0.7143,50,0.4961
23.125,23.125,33.0357,9,3.0,Violin 1,0.5,0.7143,61,0.4961
23.125,23.125,33.0357,9,3.0,D Horn 1,0.5,0.7143,66,0.5461
23.125,23.125,33.0357,9,3.0,Violoncello,0.5,0.7143,49,0.4961
23.125,23.125,33.0357,9,3.0,Violin 2,0.5,0.7143,61,0.4961
23.125,23.125,33.0357,9,3.0,D Horn 2,0.5,0.7143,54,0.5461
23.125,23.125,33.0357,9,3.0,Contrabass,0.5,0.7143,37,0.4961
23.125,23.125,33.0357,9,3.0,Viola,0.5,0.7143,58,0.4961
23.625,23.625,33.75,9,3.5,Contrabass,0.5,0.7143,35,0.4961
23.625,23.625,33.75,9,3.5,Violin 1,0.5,0.7143,62,0.4961
23.625,23.625,33.75,9,3.5,Viola,0.5,0.7143,59,0.4961
23.625,23.625,33.75,9,3.5,Violin 2,0.5,0.7143,62,0.4961
23.625,23.625,33.75,9,3.5,D Horn 2,0.5,0.7143,54,0.5461
23.625,23.625,33.75,9,3.5,D Horn 1,0.5,0.7143,66,0.5461
23.625,23.625,33.75,9,3.5,Violoncello,0.5,0.7143,47,0.4961
24.125,24.125,34.4643,10,1.0,D Horn 1,1.0,1.4286,66,1.0
24.125,24.125,34.4643,10,1.0,Violin 1,1.0,1.4286,61,0.7087
24.125,24.125,34.4643,10,1.0,D Horn 2,1.0,1.4286,54,1.0
24.125,24.125,34.4643,10,1.0,Violin 1,1.0,1.4286,64,0.7087
24.125,24.125,34.4643,10,1.0,Contrabass,1.0,1.4286,34,1.0
24.125,24.125,34.4643,10,1.0,Violin 2,1.0,1.4286,64,0.7087
24.125,24.125,34.4643,10,1.0,Viola,1.0,1.4286,58,1.0
24.125,24.125,34.4643,10,1.0,Violin 2,1.0,1.4286,61,0.7087
24.125,24.125,34.4643,10,1.0,Violoncello,1.0,1.4286,46,1.0
25.0,25.0,35.7143,10,1.875,Bassoon 1,0.125,0.1786,61,0.4961
25.0,25.0,35.7143,10,1.875,Bassoon 2,0.125,0.1786,58,0.4961
25.0,25.0,35.7143,10,1.875,Oboe 2,0.125,0.1786,76,0.4961
25.0,25.0,35.7143,10,1.875,Oboe 1,0.125,0.1786,78,0.4961
25.125,25.125,35.8929,10,2.0,Oboe 1,1.0,1.4286,78,0.4961
25.125,25.125,35.8929,10,2.0,Oboe 2,1.0,1.4286,76,0.4961
25.125,25.125,35.8929,10,2.0,Bassoon 2,1.0,1.4286,58,0.4961
25.125,25.125,35.8929,10,2.0,Bassoon 1,1.0,1.4286,61,0.4961
26.125,26.125,37.3214,10,3.0,Bassoon 1,0.5,0.7143,62,0.5461
26.125,26.125,37.3214,10,3.0,Oboe 2,0.5,0.7143,74,0.5461
26.125,26.125,37.3214,10,3.0,Oboe 1,0.5,0.7143,78,0.5461
26.125,26.125,37.3214,10,3.0,Bassoon 2,0.5,0.7143,59,0.5461
26.625,26.625,38.0357,10,3.5,Violin 1,0.5,0.7143,62,0.4961
26.625,26.625,38.0357,10,3.5,Flute 1,0.5,0.7143,78,0.4961
26.625,26.625,38.0357,10,3.5,Flute 2,0.5,0.7143,78,0.4961
26.625,26.625,38.0357,10,3.5,Violin 2,0.5,0.7143,62,0.4961
27.125,27.125,38.75,11,1.0,Violin 2,1.0,1.4286,65,0.7087
27.125,27.125,38.75,11,1.0,D Horn 2,1.0,1.4286,67,1.0
27.125,27.125,38.75,11,1.0,Violin 1,1.0,1.4286,67,0.7087
27.125,27.125,38.75,11,1.0,Violin 1,1.0,1.4286,55,0.7087
27.125,27.125,38.75,11,1.0,Flute 2,1.0,1.4286,79,1.0
27.125,27.125,38.75,11,1.0,Contrabass,1.0,1.4286,35,1.0
27.125,27.125,38.75,11,1.0,Violoncello,1.0,1.4286,47,1.0
27.125,27.125,38.75,11,1.0,Flute 1,1.0,1.4286,79,1.0
27.125,27.125,38.75,11,1.0,Viola,1.0,1.4286,62,0.7087
27.125,27.125,38.75,11,1.0,D Horn 1,1.0,1.4286,67,1.0
27.125,27.125,38.75,11,1.0,Violin 2,1.0,1.4286,55,0.7087
27.125,27.125,38.75,11,1.0,Viola,1.0,1.4286,59,0.7087
28.0,28.0,40.0,11,1.875,Bassoon 1,0.125,0.1786,62,0.4961
28.0,28.0,40.0,11,1.875,Oboe 1,0.125,0.1786,79,0.4961
28.0,28.0,40.0,11,1.875,Oboe 2,0.125,0.1786,77,0.4961
28.0,28.0,40.0,11,1.875,Bassoon 2,0.125,0.1786,59,0.4961
28.125,28.125,40.1786,11,2.0,Bassoon 1,1.0,1.4286,62,0.4961
28.125,28.125,40.1786,11,2.0,Oboe 1,1.0,1.4286,79,0.4961
28.125,28.125,40.1786,11,2.0,Bassoon 2,1.0,1.4286,59,0.4961
28.125,28.125,40.1786,11,2.0,Oboe 2,1.0,1.4286,77,0.4961
29.125,29.125,41.6071,11,3.0,Bassoon 1,0.5,0.7143,64,0.5461
29.125,29.125,41.6071,11,3.0,Oboe 1,0.5,0.7143,79,0.5461
29.125,29.125,41.6071,11,3.0,Bassoon 2,0.5,0.7143,60,0.5461
29.125,29.125,41.6071,11,3.0,Oboe 2,0.5,0.7143,76,0.5461
29.625,29.625,42.3214,11,3.5,Violin 2,0.5,0.7143,64,0.4961
29.625,29.625,42.3214,11,3.5,Flute 1,0.5,0.7143,80,0.4961
29.625,29.625,42.3214,11,3.5,Flute 2,0.5,0.7143,80,0.4961
29.625,29.625,42.3214,11,3.5,Violin 1,0.5,0.7143,68,0.4961
30.125,30.125,43.0357,12,1.0,Flute 1,1.0,1.4286,81,0.9921
30.125,30.125,43.0357,12,1.0,D Horn 1,1.0,1.4286,67,1.0
30.125,30.125,43.0357,12,1.0,Flute 2,1.0,1.4286,81,1.0
30.125,30.125,43.0357,12,1.0,Violin 1,1.0,1.4286,69,0.7087
30.125,30.125,43.0357,12,1.0,Viola,1.0,1.4286,64,0.7087
30.125,30.125,43.0357,12,1.0,Violin 1,1.0,1.4286,57,0.7087
30.125,30.125,43.0357,12,1.0,Contrabass,1.0,1.4286,37,1.0
30.125,30.125,43.0357,12,1.0,Violoncello,1.0,1.4286,49,1.0
30.125,30.125,43.0357,12,1.0,Viola,1.0,1.4286,61,0.7087
30.125,30.125,43.0357,12,1.0,Violin 2,1.0,1.4286,67,0.7087
30.125,30.125,43.0357,12,1.0,Violin 2,1.0,1.4286,57,0.7087
30.125,30.125,43.0357,12,1.0,D Horn 2,1.0,1.4286,67,1.0
31.0,31.0,44.2857,12,1.875,Oboe 1,0.125,0.1786,81,0.4961
31.0,31.0,44.2857,12,1.875,Bassoon 2,0.125,0.1786,61,0.4961
31.0,31.0,44.2857,12,1.875,Oboe 2,0.125,0.1786,79,0.4961
31.0,31.0,44.2857,12,1.875,Bassoon 1,0.125,0.1786,64,0.4961
31.125,31.125,44.4643,12,2.0,Bassoon 2,1.0,1.4286,61,0.4961
31.125,31.125,44.4643,12,2.0,Bassoon 1,1.0,1.4286,64,0.4961
31.125,31.125,44.4643,12,2.0,Oboe 2,1.0,1.4286,79,0.4961
31.125,31.125,44.4643,12,2.0,Oboe 1,1.0,1.4286,81,0.4961
32.125,32.125,45.8929,12,3.0,Bassoon 1,0.5,0.7143,65,0.5461
32.125,32.125,45.8929,12,3.0,Bassoon 2,0.5,0.7143,62,0.5461
32.125,32.125,45.8929,12,3.0,Viola,0.5,0.7143,62,1.0
32.125,32.125,45.8929,12,3.0,Oboe 1,0.5,0.7143,81,0.4961
32.125,32.125,45.8929,12,3.0,Contrabass,0.5,0.7143,38,1.0
32.125,32.125,45.8929,12,3.0,Violoncello,0.5,0.7143,50,1.0
32.125,32.125,45.8929,12,3.0,Oboe 2,0.5,0.7143,77,0.4961
32.125,32.125,45.8929,12,3.0,Violin 2,0.5,0.7143,65,0.8295
32.625,32.625,46.6071,12,3.5,Timpani,0.5,0.7143,45,1.0
32.625,32.625,46.6071,12,3.5,Contrabass,0.5,0.7143,36,1.0
32.625,32.625,46.6071,12,3.5,Oboe 1,0.5,0.7143,81,1.0
32.625,32.625,46.6071,12,3.5,Violin 2,0.5,0.7143,75,0.7087
32.625,32.625,46.6071,12,3.5,Violoncello,0.5,0.7143,48,1.0
32.625,32.625,46.6071,12,3.5,Flute 2,0.5,0.7143,81,1.0
32.625,32.625,46.6071,12,3.5,D Horn 1,0.5,0.7143,69,1.0
32.625,32.625,46.6071,12,3.5,Bassoon 1,0.5,0.7143,63,1.0
32.625,32.625,46.6071,12,3.5,Oboe 2,0.5,0.7143,75,1.0
32.625,32.625,46.6071,12,3.5,Violin 2,0.5,0.7143,65,0.7087
32.625,32.625,46.6071,12,3.5,D Horn 2,0.5,0.7143,57,1.0
32.625,32.625,46.6071,12,3.5,Bassoon 2,0.5,0.7143,60,1.0
32.625,32.625,46.6071,12,3.5,Violin 1,0.5,0.7143,69,0.7087
32.625,32.625,46.6071,12,3.5,D Trumpet 1,0.5,0.7143,69,1.0
32.625,32.625,46.6071,12,3.5,Viola,0.5,0.7143,60,1.0
32.625,32.625,46.6071,12,3.5,A Clarinet 1,0.5,0.7143,69,1.0
32.625,32.625,46.6071,12,3.5,D Trumpet 2,0.5,0.7143,57,1.0
32.625,32.625,46.6071,12,3.5,A Clarinet 2,0.5,0.7143,69,1.0
32.625,32.625,46.6071,12,3.5,Flute 1,0.5,0.7143,87,1.0
32.625,32.625,46.6071,12,3.5,Violin 1,0.5,0.7143,81,0.7087
33.125,33.125,47.3214,13,1.0,Flute 2,0.5,0.7143,82,1.0
33.125,33.125,47.3214,13,1.0,D Trumpet 1,0.5,0.7143,74,1.0
33.125,33.125,47.3214,13,1.0,A Clarinet 1,0.5,0.7143,74,1.0
33.125,33.125,47.3214,13,1.0,Oboe 2,0.5,0.7143,74,1.0
33.125,33.125,47.3214,13,1.0,Bassoon 2,0.5,0.7143,58,1.0
33.125,33.125,47.3214,13,1.0,D Horn 1,0.5,0.7143,62,1.0
33.125,33.125,47.3214,13,1.0,Bassoon 1,0.5,0.7143,62,1.0
33.125,33.125,47.3214,13,1.0,Flute 1,0.5,0.7143,86,1.0
33.125,33.125,47.3214,13,1.0,Oboe 1,0.5,0.7143,82,1.0
33.125,33.125,47.3214,13,1.0,Timpani,0.5,0.7143,50,1.0
33.125,33.125,47.3214,13,1.0,Contrabass,0.25,0.3571,34,1.0
33.125,33.125,47.3214,13,1.0,Violoncello,0.25,0.3571,46,1.0
33.125,33.125,47.3214,13,1.0,D Horn 2,0.5,0.7143,50,1.0
33.125,33.125,47.3214,13,1.0,Violin 2,0.25,0.3571,74,0.7087
33.125,33.125,47.3214,13,1.0,Violin 2,0.25,0.3571,65,0.7087
33.125,33.125,47.3214,13,1.0,Violin 2,0.25,0.3571,58,0.7087
33.125,33.125,47.3214,13,1.0,Viola,0.25,0.3571,58,1.0
33.125,33.125,47.3214,13,1.0,D Trumpet 2,0.5,0.7143,62,1.0
33.125,33.125,47.3214,13,1.0,A Clarinet 2,0.5,0.7143,62,1.0
33.125,33.125,47.3214,13,1.0,Violin 1,1.0,1.4286,70,0.7087
33.125,33.125,47.3214,13,1.0,Violin 1,1.0,1.4286,82,0.7087
33.375,33.375,47.6786,13,1.25,Violin 2,0.25,0.3571,62,0.7087
33.375,33.375,47.6786,13,1.25,Violoncello,0.25,0.3571,46,1.0
33.375,33.375,47.6786,13,1.25,Violin 2,0.25,0.3571,58,0.7087
33.375,33.375,47.6786,13,1.25,Contrabass,0.25,0.3571,34,1.0
33.375,33.375,47.6786,13,1.25,Viola,0.25,0.3571,53,1.0
33.625,33.625,48.0357,13,1.5,Viola,0.25,0.3571,53,1.0
33.625,33.625,48.0357,13,1.5,Contrabass,0.25,0.3571,34,1.0
33.625,33.625,48.0357,13,1.5,Violoncello,0.25,0.3571,46,1.0
33.625,33.625,48.0357,13,1.5,Violin 2,0.25,0.3571,62,0.7087
33.625,33.625,48.0357,13,1.5,Violin 2,0.25,0.3571,58,0.7087
33.875,33.875,48.3929,13,1.75,Contrabass,0.25,0.3571,34,1.0
33.875,33.875,48.3929,13,1.75,Viola,0.25,0.3571,53,1.0
33.875,33.875,48.3929,13,1.75,Violoncello,0.25,0.3571,46,1.0
33.875,33.875,48.3929,13,1.75,Violin 2,0.25,0.3571,62,0.7087
33.875,33.875,48.3929,13,1.75,Violin 2,0.25,0.3571,58,0.7087
34.125,34.125,48.75,13,2.0,Contrabass,0.25,0.3571,34,1.0
34.125,34.125,48.75,13,2.0,Viola,0.25,0.3571,53,1.0
34.125,34.125,48.75,13,2.0,Violoncello,0.25,0.3571,46,1.0
34.125,34.125,48.75,13,2.0,Violin 1,0.25,0.3571,82,1.0
34.125,34.125,48.75,13,2.0,Violin 2,0.25,0.3571,58,0.7087
34.125,34.125,48.75,13,2.0,Violin 2,0.25,0.3571,62,0.7087
34.375,34.375,49.1071,13,2.25,Viola,0.25,0.3571,53,1.0
34.375,34.375,49.1071,13,2.25,Violoncello,0.25,0.3571,46,1.0
34.375,34.375,49.1071,13,2.25,Violin 2,0.25,0.3571,58,0.7087
34.375,34.375,49.1071,13,2.25,Violin 2,0.25,0.3571,62,0.7087
34.375,34.375,49.1071,13,2.25,Contrabass,0.25,0.3571,34,1.0
34.375,34.375,49.1071,13,2.25,Violin 1,0.125,0.1786,81,1.0
34.5,34.5,49.2857,13,2.375,Violin 1,0.125,0.1786,79,1.0
34.625,34.625,49.4643,13,2.5,Violin 1,0.125,0.1786,77,1.0
34.625,34.625,49.4643,13,2.5,Viola,0.25,0.3571,53,1.0
34.625,34.625,49.4643,13,2.5,Violin 2,0.25,0.3571,62,0.7087
34.625,34.625,49.4643,13,2.5,Violoncello,0.25,0.3571,46,1.0
34.625,34.625,49.4643,13,2.5,Contrabass,0.25,0.3571,34,1.0
34.625,34.625,49.4643,13,2.5,Violin 2,0.25,0.3571,58,0.7087
34.75,34.75,49.6429,13,2.625,Violin 1,0.125,0.1786,75,1.0
34.875,34.875,49.8214,13,2.75,Violin 2,0.25,0.3571,62,0.7087
34.875,34.875,49.8214,13,2.75,Violoncello,0.25,0.3571,46,1.0
34.875,34.875,49.8214,13,2.75,Violin 1,0.125,0.1786,74,1.0
34.875,34.875,49.8214,13,2.75,Violin 2,0.25,0.3571,58,0.7087
34.875,34.875,49.8214,13,2.75,Contrabass,0.25,0.3571,34,1.0
34.875,34.875,49.8214,13,2.75,Viola,0.25,0.3571,53,1.0
35.0,35.0,50.0,13,2.875,Violin 1,0.125,0.1786,72,1.0
35.125,35.125,50.1786,13,3.0,Contrabass,0.25,0.3571,34,1.0
35.125,35.125,50.1786,13,3.0,Violin 2,0.25,0.3571,62,0.7087
35.125,35.125,50.1786,13,3.0,Violin 2,0.25,0.3571,58,0.7087
35.125,35.125,50.1786,13,3.0,Viola,0.25,0.3571,53,1.0
35.125,35.125,50.1786,13,3.0,Violin 1,0.125,0.1786,70,1.0
35.125,35.125,50.1786,13,3.0,Violoncello,0.25,0.3571,46,1.0
35.25,35.25,50.3571,13,3.125,Violin 1,0.125,0.1786,69,1.0
35.375,35.375,50.5357,13,3.25,Violoncello,0.25,0.3571,46,1.0
35.375,35.375,50.5357,13,3.25,Violin 1,0.125,0.1786,67,1.0
35.375,35.375,50.5357,13,3.25,Contrabass,0.25,0.3571,34,1.0
35.375,35.375,50.5357,13,3.25,Viola,0.25,0.3571,53,1.0
35.375,35.375,50.5357,13,3.25,Violin 2,0.25,0.3571,58,0.7087
35.375,35.375,50.5357,13,3.25,Violin 2,0.25,0.3571,62,0.7087
35.5,35.5,50.7143,13,3.375,Violin 1,0.125,0.1786,65,1.0
35.625,35.625,50.8929,13,3.5,Violoncello,0.25,0.3571,46,1.0
35.625,35.625,50.8929,13,3.5,Viola,0.25,0.3571,53,1.0
35.625,35.625,50.8929,13,3.5,Violin 1,0.125,0.1786,63,1.0
35.625,35.625,50.8929,13,3.5,Violin 2,0.25,0.3571,58,0.7087
35.625,35.625,50.8929,13,3.5,Violin 2,0.25,0.3571,62,0.7087
35.625,35.625,50.8929,13,3.5,Contrabass,0.25,0.3571,34,1.0
35.75,35.75,51.0714,13,3.625,Violin 1,0.125,0.1786,62,1.0
35.875,35.875,51.25,13,3.75,Viola,0.25,0.3571,53,1.0
35.875,35.875,51.25,13,3.75,Violoncello,0.25,0.3571,46,1.0
35.875,35.875,51.25,13,3.75,Violin 2,0.25,0.3571,58,0.7087
35.875,35.875,51.25,13,3.75,Contrabass,0.25,0.3571,34,1.0
35.875,35.875,51.25,13,3.75,Violin 1,0.125,0.1786,60,1.0
35.875,35.875,51.25,13,3.75,Violin 2,0.25,0.3571,62,0.7087
36.0,36.0,51.4286,13,3.875,Violin 1,0.125,0.1786,58,1.0
36.125,36.125,51.6071,14,1.0,Flute 1,1.0,1.4286,87,1.0
36.125,36.125,51.6071,14,1.0,Contrabass,0.25,0.3571,34,1.0
36.125,36.125,51.6071,14,1.0,Viola,0.25,0.3571,53,1.0
36.125,36.125,51.6071,14,1.0,Violin 2,0.25,0.3571,63,0.7087
36.125,36.125,51.6071,14,1.0,Violin 2,0.25,0.3571,60,0.7087
36.125,36.125,51.6071,14,1.0,Violin 1,0.5,0.7143,57,1.0
36.125,36.125,51.6071,14,1.0,Bassoon 1,1.0,1.4286,63,1.0
36.125,36.125,51.6071,14,1.0,Violoncello,0.25,0.3571,46,1.0
36.375,36.375,51.9643,14,1.25,Violoncello,0.25,0.3571,46,1.0
36.375,36.375,51.9643,14,1.25,Violin 2,0.25,0.3571,63,0.7087
36.375,36.375,51.9643,14,1.25,Violin 2,0.25,0.3571,60,0.7087
36.375,36.375,51.9643,14,1.25,Viola,0.25,0.3571,53,1.0
36.375,36.375,51.9643,14,1.25,Contrabass,0.25,0.3571,34,1.0
36.625,36.625,52.3214,14,1.5,Viola,0.25,0.3571,53,1.0
36.625,36.625,52.3214,14,1.5,Violin 1,0.375,0.5357,60,1.0
36.625,36.625,52.3214,14,1.5,Violoncello,0.25,0.3571,46,1.0
36.625,36.625,52.3214,14,1.5,Contrabass,0.25,0.3571,34,1.0
36.625,36.625,52.3214,14,1.5,Violin 2,0.25,0.3571,63,0.7087
36.625,36.625,52.3214,14,1.5,Violin 2,0.25,0.3571,60,0.7087
36.875,36.875,52.6786,14,1.75,Contrabass,0.25,0.3571,34,1.0
36.875,36.875,52.6786,14,1.75,Violin 2,0.25,0.3571,60,0.7087
36.875,36.875,52.6786,14,1.75,Violin 2,0.25,0.3571,63,0.7087
36.875,36.875,52.6786,14,1.75,Viola,0.25,0.3571,53,1.0
36.875,36.875,52.6786,14,1.75,Violoncello,0.25,0.3571,46,1.0
37.0,37.0,52.8571,14,1.875,Violin 1,0.125,0.1786,63,1.0
37.125,37.125,53.0357,14,2.0,Contrabass,0.25,0.3571,34,1.0
37.125,37.125,53.0357,14,2.0,Violin 1,0.5,0.7143,69,1.0
37.125,37.125,53.0357,14,2.0,Violin 2,0.25,0.3571,60,0.7087
37.125,37.125,53.0357,14,2.0,Violin 2,0.25,0.3571,63,0.7087
37.125,37.125,53.0357,14,2.0,Violoncello,0.25,0.3571,46,1.0
37.125,37.125,53.0357,14,2.0,Flute 1,0.25,0.3571,87,1.0
37.125,37.125,53.0357,14,2.0,Viola,0.25,0.3571,53,1.0
37.125,37.125,53.0357,14,2.0,Bassoon 1,0.25,0.3571,63,1.0
37.375,37.375,53.3929,14,2.25,Violin 2,0.25,0.3571,60,0.7087
37.375,37.375,53.3929,14,2.25,Flute 1,0.125,0.1786,86,1.0
37.375,37.375,53.3929,14,2.25,Contrabass,0.25,0.3571,34,1.0
37.375,37.375,53.3929,14,2.25,Viola,0.25,0.3571,53,1.0
37.375,37.375,53.3929,14,2.25,Violoncello,0.25,0.3571,46,1.0
37.375,37.375,53.3929,14,2.25,Violin 2,0.25,0.3571,63,0.7087
37.375,37.375,53.3929,14,2.25,Bassoon 1,0.125,0.1786,62,1.0
37.5,37.5,53.5714,14,2.375,Flute 1,0.125,0.1786,84,1.0
37.5,37.5,53.5714,14,2.375,Bassoon 1,0.125,0.1786,60,1.0
37.625,37.625,53.75,14,2.5,Bassoon 1,0.125,0.1786,58,1.0
37.625,37.625,53.75,14,2.5,Viola,0.25,0.3571,53,1.0
37.625,37.625,53.75,14,2.5,Violoncello,0.25,0.3571,46,1.0
37.625,37.625,53.75,14,2.5,Violin 2,0.25,0.3571,60,0.7087
37.625,37.625,53.75,14,2.5,Violin 2,0.25,0.3571,63,0.7087
37.625,37.625,53.75,14,2.5,Contrabass,0.25,0.3571,34,1.0
37.625,37.625,53.75,14,2.5,Flute 1,0.125,0.1786,82,1.0
37.625,37.625,53.75,14,2.5,Violin 1,0.5,0.7143,72,1.0
37.75,37.75,53.9286,14,2.625,Bassoon 1,0.125,0.1786,57,1.0
37.75,37.75,53.9286,14,2.625,Flute 1,0.125,0.1786,81,1.0
37.875,37.875,54.1071,14,2.75,Flute 1,0.125,0.1786,79,1.0
37.875,37.875,54.1071,14,2.75,Violin 2,0.25,0.3571,60,0.7087
37.875,37.875,54.1071,14,2.75,Violin 2,0.25,0.3571,63,0.7087
37.875,37.875,54.1071,14,2.75,Viola,0.25,0.3571,53,1.0
37.875,37.875,54.1071,14,2.75,Bassoon 1,0.125,0.1786,55,1.0
37.875,37.875,54.1071,14,2.75,Violoncello,0.25,0.3571,46,1.0
37.875,37.875,54.1071,14,2.75,Contrabass,0.25,0.3571,34,1.0
38.0,38.0,54.2857,14,2.875,Flute 1,0.125,0.1786,77,1.0
38.0,38.0,54.2857,14,2.875,Bassoon 1,0.125,0.1786,53,1.0
38.125,38.125,54.4643,14,3.0,Flute 1,0.125,0.1786,75,1.0
38.125,38.125,54.4643,14,3.0,Viola,0.25,0.3571,53,1.0
38.125,38.125,54.4643,14,3.0,Bassoon 1,0.125,0.1786,51,1.0
38.125,38.125,54.4643,14,3.0,Violoncello,0.25,0.3571,46,1.0
38.125,38.125,54.4643,14,3.0,Contrabass,0.25,0.3571,34,1.0
38.125,38.125,54.4643,14,3.0,Violin 2,0.25,0.3571,63,0.7087
38.125,38.125,54.4643,14,3.0,Violin 1,0.5,0.7143,75,1.0
38.125,38.125,54.4643,14,3.0,Violin 2,0.25,0.3571,60,0.7087
38.25,38.25,54.6429,14,3.125,Flute 1,0.125,0.1786,86,1.0
38.25,38.25,54.6429,14,3.125,Bassoon 1,0.125,0.1786,62,1.0
38.375,38.375,54.8214,14,3.25,Violin 2,0.25,0.3571,60,0.7087
38.375,38.375,54.8214,14,3.25,Bassoon 1,0.125,0.1786,60,1.0
38.375,38.375,54.8214,14,3.25,Flute 1,0.125,0.1786,84,1.0
38.375,38.375,54.8214,14,3.25,Violoncello,0.25,0.3571,46,1.0
38.375,38.375,54.8214,14,3.25,Contrabass,0.25,0.3571,34,1.0
38.375,38.375,54.8214,14,3.25,Viola,0.25,0.3571,53,1.0
38.375,38.375,54.8214,14,3.25,Violin 2,0.25,0.3571,63,0.7087
38.5,38.5,55.0,14,3.375,Bassoon 1,0.125,0.1786,58,1.0
38.5,38.5,55.0,14,3.375,Flute 1,0.125,0.1786,82,1.0
38.625,38.625,55.1786,14,3.5,Contrabass,0.25,0.3571,34,1.0
38.625,38.625,55.1786,14,3.5,Violin 2,0.25,0.3571,63,0.7087
38.625,38.625,55.1786,14,3.5,Violoncello,0.25,0.3571,46,1.0
38.625,38.625,55.1786,14,3.5,Viola,0.25,0.3571,53,1.0
38.625,38.625,55.1786,14,3.5,Violin 1,0.5,0.7143,81,1.0
38.625,38.625,55.1786,14,3.5,Bassoon 1,0.125,0.1786,57,1.0
38.625,38.625,55.1786,14,3.5,Flute 1,0.125,0.1786,81,1.0
38.625,38.625,55.1786,14,3.5,Violin 2,0.25,0.3571,60,0.7087
38.75,38.75,55.3571,14,3.625,Bassoon 1,0.125,0.1786,67,1.0
38.75,38.75,55.3571,14,3.625,Flute 1,0.125,0.1786,91,1.0
38.875,38.875,55.5357,14,3.75,Bassoon 1,0.125,0.1786,65,1.0
38.875,38.875,55.5357,14,3.75,Contrabass,0.25,0.3571,34,1.0
38.875,38.875,55.5357,14,3.75,Flute 1,0.125,0.1786,89,1.0
38.875,38.875,55.5357,14,3.75,Violoncello,0.25,0.3571,46,1.0
38.875,38.875,55.5357,14,3.75,Viola,0.25,0.3571,53,1.0
38.875,38.875,55.5357,14,3.75,Violin 2,0.25,0.3571,60,0.7087
38.875,38.875,55.5357,14,3.75,Violin 2,0.25,0.3571,63,0.7087
39.0,39.0,55.7143,14,3.875,Bassoon 1,0.125,0.1786,63,1.0
39.0,39.0,55.7143,14,3.875,Flute 1,0.125,0.1786,87,1.0
39.125,39.125,55.8929,15,1.0,Violin 1,1.0,1.4286,82,0.7087
39.125,39.125,55.8929,15,1.0,Violin 1,1.0,1.4286,70,0.7087
39.125,39.125,55.8929,15,1.0,Contrabass,0.25,0.3571,34,1.0
39.125,39.125,55.8929,15,1.0,Violoncello,0.25,0.3571,46,1.0
39.125,39.125,55.8929,15,1.0,Bassoon 1,0.5,0.7143,62,1.0
39.125,39.125,55.8929,15,1.0,Violin 2,0.5,0.7143,62,1.0
39.125,39.125,55.8929,15,1.0,Flute 1,0.5,0.7143,86,1.0
39.125,39.125,55.8929,15,1.0,Viola,0.25,0.3571,53,1.0
39.375,39.375,56.25,15,1.25,Viola,0.25,0.3571,58,0.7087
39.375,39.375,56.25,15,1.25,Violoncello,0.25,0.3571,46,0.4961
39.375,39.375,56.25,15,1.25,Viola,0.25,0.3571,53,0.7087
39.375,39.375,56.25,15,1.25,Viola,0.25,0.3571,62,0.7087
39.375,39.375,56.25,15,1.25,Contrabass,0.25,0.3571,34,0.4961
39.625,39.625,56.6071,15,1.5,Contrabass,0.25,0.3571,34,0.4961
39.625,39.625,56.6071,15,1.5,Violoncello,0.25,0.3571,46,0.4961
39.625,39.625,56.6071,15,1.5,Viola,0.25,0.3571,62,0.7087
39.625,39.625,56.6071,15,1.5,Violin 2,0.5,0.7143,70,1.0
39.625,39.625,56.6071,15,1.5,Viola,0.25,0.3571,53,0.7087
39.625,39.625,56.6071,15,1.5,Viola,0.25,0.3571,58,0.7087
39.875,39.875,56.9643,15,1.75,Contrabass,0.25,0.3571,34,0.4961
39.875,39.875,56.9643,15,1.75,Viola,0.25,0.3571,58,0.7087
39.875,39.875,56.9643,15,1.75,Viola,0.25,0.3571,62,0.7087
39.875,39.875,56.9643,15,1.75,Violoncello,0.25,0.3571,46,0.4961
39.875,39.875,56.9643,15,1.75,Viola,0.25,0.3571,53,0.7087
40.125,40.125,57.3214,15,2.0,Violoncello,0.25,0.3571,46,0.4961
40.125,40.125,57.3214,15,2.0,Viola,0.25,0.3571,53,0.7087
40.125,40.125,57.3214,15,2.0,Viola,0.25,0.3571,58,0.7087
40.125,40.125,57.3214,15,2.0,Contrabass,0.25,0.3571,34,0.4961
40.125,40.125,57.3214,15,2.0,Violin 1,0.125,0.1786,82,0.6378
40.125,40.125,57.3214,15,2.0,Viola,0.25,0.3571,62,0.7087
40.125,40.125,57.3214,15,2.0,Violin 2,0.125,0.1786,70,1.0
40.25,40.25,57.5,15,2.125,Violin 2,0.125,0.1786,65,0.6378
40.25,40.25,57.5,15,2.125,Violin 1,0.125,0.1786,77,0.6378
40.375,40.375,57.6786,15,2.25,Violin 1,0.125,0.1786,79,0.6378
40.375,40.375,57.6786,15,2.25,Violin 2,0.125,0.1786,67,0.6378
40.375,40.375,57.6786,15,2.25,Contrabass,0.25,0.3571,34,0.4961
40.375,40.375,57.6786,15,2.25,Viola,0.25,0.3571,53,0.7087
40.375,40.375,57.6786,15,2.25,Viola,0.25,0.3571,58,0.7087
40.375,40.375,57.6786,15,2.25,Viola,0.25,0.3571,62,0.7087
40.375,40.375,57.6786,15,2.25,Violoncello,0.25,0.3571,46,0.4961
40.5,40.5,57.8571,15,2.375,Violin 1,0.125,0.1786,81,0.6378
40.5,40.5,57.8571,15,2.375,Violin 2,0.125,0.1786,69,0.6378
40.625,40.625,58.0357,15,2.5,Contrabass,0.25,0.3571,34,0.4961
40.625,40.625,58.0357,15,2.5,Violoncello,0.25,0.3571,46,0.4961
40.625,40.625,58.0357,15,2.5,Viola,0.25,0.3571,53,0.7087
40.625,40.625,58.0357,15,2.5,Violin 2,0.125,0.1786,70,0.6378
40.625,40.625,58.0357,15,2.5,Viola,0.25,0.3571,58,0.7087
40.625,40.625,58.0357,15,2.5,Violin 1,0.125,0.1786,82,0.6378
40.625,40.625,58.0357,15,2.5,Viola,0.25,0.3571,62,0.7087
40.75,40.75,58.2143,15,2.625,Violin 2,0.125,0.1786,72,0.6378
40.75,40.75,58.2143,15,2.625,Violin 1,0.125,0.1786,84,0.6378
40.875,40.875,58.3929,15,2.75,Violoncello,0.25,0.3571,46,0.4961
40.875,40.875,58.3929,15,2.75,Viola,0.25,0.3571,62,0.7087
40.875,40.875,58.3929,15,2.75,Violin 1,0.125,0.1786,86,0.6378
40.875,40.875,58.3929,15,2.75,Contrabass,0.25,0.3571,34,0.4961
40.875,40.875,58.3929,15,2.75,Violin 2,0.125,0.1786,74,0.6378
40.875,40.875,58.3929,15,2.75,Viola,0.25,0.3571,58,0.7087
40.875,40.875,58.3929,15,2.75,Viola,0.25,0.3571,53,0.7087
41.0,41.0,58.5714,15,2.875,Violin 1,0.125,0.1786,84,0.6378
41.0,41.0,58.5714,15,2.875,Violin 2,0.125,0.1786,72,0.6378
41.125,41.125,58.75,15,3.0,Viola,0.25,0.3571,58,0.7087
41.125,41.125,58.75,15,3.0,Violin 2,0.125,0.1786,70,0.6378
41.125,41.125,58.75,15,3.0,Contrabass,0.25,0.3571,34,0.4961
41.125,41.125,58.75,15,3.0,Viola,0.25,0.3571,53,0.7087
41.125,41.125,58.75,15,3.0,Viola,0.25,0.3571,62,0.7087
41.125,41.125,58.75,15,3.0,Violoncello,0.25,0.3571,46,0.4961
41.125,41.125,58.75,15,3.0,Violin 1,0.125,0.1786,82,0.6378
41.25,41.25,58.9286,15,3.125,Violin 2,0.125,0.1786,69,0.6378
41.25,41.25,58.9286,15,3.125,Violin 1,0.125,0.1786,81,0.6378
41.375,41.375,59.1071,15,3.25,Violin 1,0.125,0.1786,79,0.6378
41.375,41.375,59.1071,15,3.25,Contrabass,0.25,0.3571,34,0.4961
41.375,41.375,59.1071,15,3.25,Viola,0.25,0.3571,58,0.7087
41.375,41.375,59.1071,15,3.25,Viola,0.25,0.3571,62,0.7087
41.375,41.375,59.1071,15,3.25,Viola,0.25,0.3571,53,0.7087
41.375,41.375,59.1071,15,3.25,Violin 2,0.125,0.1786,67,0.6378
41.375,41.375,59.1071,15,3.25,Violoncello,0.25,0.3571,46,0.4961
41.5,41.5,59.2857,15,3.375,Violin 2,0.125,0.1786,65,0.6378
41.5,41.5,59.2857,15,3.375,Violin 1,0.125,0.1786,77,0.6378
41.625,41.625,59.4643,15,3.5,Violoncello,0.25,0.3571,46,0.4961
41.625,41.625,59.4643,15,3.5,Viola,0.25,0.3571,53,0.7087
41.625,41.625,59.4643,15,3.5,Violin 1,0.125,0.1786,75,0.6378
41.625,41.625,59.4643,15,3.5,Contrabass,0.25,0.3571,34,0.4961
41.625,41.625,59.4643,15,3.5,Violin 2,0.125,0.1786,63,0.6378
41.625,41.625,59.4643,15,3.5,Viola,0.25,0.3571,58,0.7087
41.625,41.625,59.4643,15,3.5,Viola,0.25,0.3571,62,0.7087
41.75,41.75,59.6429,15,3.625,Violin 1,0.125,0.1786,74,0.6378
41.75,41.75,59.6429,15,3.625,Violin 2,0.125,0.1786,62,0.6378
41.875,41.875,59.8214,15,3.75,Contrabass,0.25,0.3571,34,0.4961
41.875,41.875,59.8214,15,3.75,Viola,0.25,0.3571,62,0.7087
41.875,41.875,59.8214,15,3.75,Viola,0.25,0.3571,58,0.7087
41.875,41.875,59.8214,15,3.75,Violin 1,0.125,0.1786,72,0.6378
41.875,41.875,59.8214,15,3.75,Violin 2,0.125,0.1786,60,0.6378
41.875,41.875,59.8214,15,3.75,Violoncello,0.25,0.3571,46,0.4961
41.875,41.875,59.8214,15,3.75,Viola,0.25,0.3571,53,0.7087
42.0,42.0,60.0,15,3.875,Violin 1,0.125,0.1786,70,0.6378
42.0,42.0,60.0,15,3.875,Violin 2,0.125,0.1786,58,0.6378
42.125,42.125,60.1786,16,1.0,Flute 1,1.0,1.4286,87,1.0
42.125,42.125,60.1786,16,1.0,Viola,0.25,0.3571,63,0.7087
42.125,42.125,60.1786,16,1.0,Viola,0.25,0.3571,60,0.7087
42.125,42.125,60.1786,16,1.0,Violoncello,0.25,0.3571,46,1.0
42.125,42.125,60.1786,16,1.0,Viola,0.25,0.3571,53,0.7087
42.125,42.125,60.1786,16,1.0,Bassoon 1,1.0,1.4286,63,1.0
42.125,42.125,60.1786,16,1.0,Violin 1,0.375,0.5357,69,1.0
42.125,42.125,60.1786,16,1.0,Contrabass,0.25,0.3571,34,1.0
42.125,42.125,60.1786,16,1.0,Violin 2,0.25,0.3571,57,1.0
42.375,42.375,60.5357,16,1.25,Viola,0.25,0.3571,53,0.9921
42.375,42.375,60.5357,16,1.25,Violin 2,0.25,0.3571,60,0.7087
42.375,42.375,60.5357,16,1.25,Violin 2,0.25,0.3571,63,0.7087
42.375,42.375,60.5357,16,1.25,Violoncello,0.25,0.3571,46,1.0
42.375,42.375,60.5357,16,1.25,Contrabass,0.25,0.3571,34,1.0
42.5,42.5,60.7143,16,1.375,Violin 1,0.125,0.1786,57,1.0
42.625,42.625,60.8929,16,1.5,Violin 1,0.375,0.5357,60,1.0
42.625,42.625,60.8929,16,1.5,Violin 2,0.25,0.3571,60,0.7087
42.625,42.625,60.8929,16,1.5,Violin 2,0.25,0.3571,63,0.7087
42.625,42.625,60.8929,16,1.5,Viola,0.25,0.3571,53,0.9921
42.625,42.625,60.8929,16,1.5,Violoncello,0.25,0.3571,46,1.0
42.625,42.625,60.8929,16,1.5,Contrabass,0.25,0.3571,34,1.0
42.875,42.875,61.25,16,1.75,Contrabass,0.25,0.3571,34,1.0
42.875,42.875,61.25,16,1.75,Violin 2,0.25,0.3571,60,0.7087
42.875,42.875,61.25,16,1.75,Violin 2,0.25,0.3571,63,0.7087
42.875,42.875,61.25,16,1.75,Violoncello,0.25,0.3571,46,1.0
42.875,42.875,61.25,16,1.75,Viola,0.25,0.3571,53,0.9921
43.0,43.0,61.4286,16,1.875,Violin 1,0.125,0.1786,63,1.0
43.125,43.125,61.6071,16,2.0,Violin 2,0.25,0.3571,60,0.7087
43.125,43.125,61.6071,16,2.0,Flute 1,0.125,0.1786,87,0.6378
43.125,43.125,61.6071,16,2.0,Violoncello,0.25,0.3571,46,1.0
43.125,43.125,61.6071,16,2.0,Viola,0.25,0.3571,53,0.9921
43.125,43.125,61.6071,16,2.0,Bassoon 1,0.125,0.1786,63,0.6378
43.125,43.125,61.6071,16,2.0,Contrabass,0.25,0.3571,34,1.0
43.125,43.125,61.6071,16,2.0,Violin 1,0.5,0.7143,69,1.0
43.125,43.125,61.6071,16,2.0,Violin 2,0.25,0.3571,63,0.7087
43.25,43.25,61.7857,16,2.125,Bassoon 1,0.125,0.1786,62,0.6378
43.25,43.25,61.7857,16,2.125,Flute 1,0.125,0.1786,86,0.6378
43.375,43.375,61.9643,16,2.25,Violoncello,0.25,0.3571,46,1.0
43.375,43.375,61.9643,16,2.25,Violin 2,0.25,0.3571,63,0.7087
43.375,43.375,61.9643,16,2.25,Viola,0.25,0.3571,53,0.9921
43.375,43.375,61.9643,16,2.25,Violin 2,0.25,0.3571,60,0.7087
43.375,43.375,61.9643,16,2.25,Bassoon 1,0.125,0.1786,60,0.6378
43.375,43.375,61.9643,16,2.25,Contrabass,0.25,0.3571,34,1.0
43.375,43.375,61.9643,16,2.25,Flute 1,0.125,0.1786,84,0.6378
43.5,43.5,62.1429,16,2.375,Bassoon 1,0.125,0.1786,62,0.6378
43.5,43.5,62.1429,16,2.375,Flute 1,0.125,0.1786,86,0.6378
43.625,43.625,62.3214,16,2.5,Violoncello,0.25,0.3571,46,1.0
43.625,43.625,62.3214,16,2.5,Contrabass,0.25,0.3571,34,1.0
43.625,43.625,62.3214,16,2.5,Bassoon 1,0.125,0.1786,63,0.6378
43.625,43.625,62.3214,16,2.5,Violin 2,0.25,0.3571,60,0.7087
43.625,43.625,62.3214,16,2.5,Violin 2,0.25,0.3571,63,0.7087
43.625,43.625,62.3214,16,2.5,Flute 1,0.125,0.1786,87,0.6378
43.625,43.625,62.3214,16,2.5,Viola,0.25,0.3571,53,0.9921
43.625,43.625,62.3214,16,2.5,Violin 1,0.5,0.7143,72,1.0
43.75,43.75,62.5,16,2.625,Flute 1,0.125,0.1786,89,0.6378
43.75,43.75,62.5,16,2.625,Bassoon 1,0.125,0.1786,65,0.6378
43.875,43.875,62.6786,16,2.75,Viola,0.25,0.3571,53,0.9921
43.875,43.875,62.6786,16,2.75,Contrabass,0.25,0.3571,34,1.0
43.875,43.875,62.6786,16,2.75,Flute 1,0.125,0.1786,91,0.6378
43.875,43.875,62.6786,16,2.75,Bassoon 1,0.125,0.1786,67,0.6378
43.875,43.875,62.6786,16,2.75,Violin 2,0.25,0.3571,63,0.7087
43.875,43.875,62.6786,16,2.75,Violoncello,0.25,0.3571,46,1.0
43.875,43.875,62.6786,16,2.75,Violin 2,0.25,0.3571,60,0.7087
44.0,44.0,62.8571,16,2.875,Flute 1,0.125,0.1786,89,0.6378
44.0,44.0,62.8571,16,2.875,Bassoon 1,0.125,0.1786,65,0.6378
44.125,44.125,63.0357,16,3.0,Contrabass,0.25,0.3571,34,1.0
44.125,44.125,63.0357,16,3.0,Viola,0.25,0.3571,53,0.9921
44.125,44.125,63.0357,16,3.0,Bassoon 1,0.125,0.1786,63,0.6378
44.125,44.125,63.0357,16,3.0,Violin 1,0.5,0.7143,75,1.0
44.125,44.125,63.0357,16,3.0,Violoncello,0.25,0.3571,46,1.0
44.125,44.125,63.0357,16,3.0,Violin 2,0.25,0.3571,63,0.7087
44.125,44.125,63.0357,16,3.0,Violin 2,0.25,0.3571,60,0.7087
44.125,44.125,63.0357,16,3.0,Flute 1,0.125,0.1786,87,0.6378
44.25,44.25,63.2143,16,3.125,Bassoon 1,0.125,0.1786,62,0.6378
44.25,44.25,63.2143,16,3.125,Flute 1,0.125,0.1786,86,0.6378
44.375,44.375,63.3929,16,3.25,Flute 1,0.125,0.1786,84,0.6378
44.375,44.375,63.3929,16,3.25,Violoncello,0.25,0.3571,46,1.0
44.375,44.375,63.3929,16,3.25,Viola,0.25,0.3571,53,0.9921
44.375,44.375,63.3929,16,3.25,Violin 2,0.25,0.3571,60,0.7087
44.375,44.375,63.3929,16,3.25,Contrabass,0.25,0.3571,34,1.0
44.375,44.375,63.3929,16,3.25,Bassoon 1,0.125,0.1786,60,0.6378
44.375,44.375,63.3929,16,3.25,Violin 2,0.25,0.3571,63,0.7087
44.5,44.5,63.5714,16,3.375,Bassoon 1,0.125,0.1786,58,0.6378
44.5,44.5,63.5714,16,3.375,Flute 1,0.125,0.1786,82,0.6378
44.625,44.625,63.75,16,3.5,Viola,0.25,0.3571,53,0.9921
44.625,44.625,63.75,16,3.5,Violin 2,0.25,0.3571,63,0.7087
44.625,44.625,63.75,16,3.5,Violin 2,0.25,0.3571,60,0.7087
44.625,44.625,63.75,16,3.5,Contrabass,0.25,0.3571,34,1.0
44.625,44.625,63.75,16,3.5,Bassoon 1,0.125,0.1786,57,0.6378
44.625,44.625,63.75,16,3.5,Violin 1,0.5,0.7143,81,1.0
44.625,44.625,63.75,16,3.5,Flute 1,0.125,0.1786,81,0.6378
44.625,44.625,63.75,16,3.5,Violoncello,0.25,0.3571,46,1.0
44.75,44.75,63.9286,16,3.625,Bassoon 1,0.125,0.1786,55,0.6378
44.75,44.75,63.9286,16,3.625,Flute 1,0.125,0.1786,79,0.6378
44.875,44.875,64.1071,16,3.75,Viola,0.25,0.3571,53,0.9921
44.875,44.875,64.1071,16,3.75,Violin 2,0.25,0.3571,63,0.7087
44.875,44.875,64.1071,16,3.75,Violin 2,0.25,0.3571,60,0.7087
44.875,44.875,64.1071,16,3.75,Violoncello,0.25,0.3571,46,1.0
44.875,44.875,64.1071,16,3.75,Bassoon 1,0.125,0.1786,53,0.6378
44.875,44.875,64.1071,16,3.75,Flute 1,0.125,0.1786,77,0.6378
44.875,44.875,64.1071,16,3.75,Contrabass,0.25,0.3571,34,1.0
45.0,45.0,64.2857,16,3.875,Bassoon 1,0.125,0.1786,51,0.6378
45.0,45.0,64.2857,16,3.875,Flute 1,0.125,0.1786,75,0.6378
45.125,45.125,64.4643,17,1.0,Flute 1,0.5,0.7143,74,0.6378
45.125,45.125,64.4643,17,1.0,Violin 2,0.25,0.3571,62,0.7087
45.125,45.125,64.4643,17,1.0,Violin 2,0.25,0.3571,58,0.7087
45.125,45.125,64.4643,17,1.0,Violin 1,0.5,0.7143,82,1.0
45.125,45.125,64.4643,17,1.0,Bassoon 1,0.5,0.7143,50,0.6378
45.125,45.125,64.4643,17,1.0,Violoncello,1.0,1.4286,46,1.0
45.125,45.125,64.4643,17,1.0,Contrabass,1.0,1.4286,34,1.0
45.125,45.125,64.4643,17,1.0,Viola,0.5,0.7143,53,0.9921
45.375,45.375,64.8214,17,1.25,Violin 2,0.25,0.3571,58,0.7087
45.375,45.375,64.8214,17,1.25,Violin 2,0.25,0.3571,62,0.7087
45.625,45.625,65.1786,17,1.5,Violin 2,0.25,0.3571,62,0.7087
45.625,45.625,65.1786,17,1.5,Violin 2,0.25,0.3571,58,0.7087
45.875,45.875,65.5357,17,1.75,Violin 2,0.25,0.3571,58,0.7087
45.875,45.875,65.5357,17,1.75,Violin 2,0.25,0.3571,62,0.7087
46.125,46.125,65.8929,17,2.0,Bassoon 2,0.125,0.1786,46,1.0
46.125,46.125,65.8929,17,2.0,Contrabass,0.125,0.1786,34,1.0
46.125,46.125,65.8929,17,2.0,Viola,0.125,0.1786,58,0.9921
46.125,46.125,65.8929,17,2.0,Bassoon 1,1.5,2.1429,65,0.6378
46.125,46.125,65.8929,17,2.0,Violin 2,0.25,0.3571,62,0.7087
46.125,46.125,65.8929,17,2.0,Violin 2,0.25,0.3571,58,0.7087
46.125,46.125,65.8929,17,2.0,Violoncello,0.125,0.1786,46,1.0
46.125,46.125,65.8929,17,2.0,Violin 1,1.5,2.1429,77,1.0
46.125,46.125,65.8929,17,2.0,Oboe 1,1.5,2.1429,77,1.0
46.25,46.25,66.0714,17,2.125,Contrabass,0.125,0.1786,33,1.0
46.25,46.25,66.0714,17,2.125,Viola,0.125,0.1786,57,0.9921
46.25,46.25,66.0714,17,2.125,Violoncello,0.125,0.1786,45,1.0
46.25,46.25,66.0714,17,2.125,Bassoon 2,0.125,0.1786,45,1.0
46.375,46.375,66.25,17,2.25,Violin 2,0.25,0.3571,58,0.7087
46.375,46.375,66.25,17,2.25,Violin 2,0.25,0.3571,62,0.7087
46.375,46.375,66.25,17,2.25,Violoncello,0.125,0.1786,46,1.0
46.375,46.375,66.25,17,2.25,Viola,0.125,0.1786,58,0.9921
46.375,46.375,66.25,17,2.25,Contrabass,0.125,0.1786,34,1.0
46.375,46.375,66.25,17,2.25,Bassoon 2,0.125,0.1786,46,1.0
46.5,46.5,66.4286,17,2.375,Violoncello,0.125,0.1786,48,1.0
46.5,46.5,66.4286,17,2.375,Contrabass,0.125,0.1786,36,1.0
46.5,46.5,66.4286,17,2.375,Bassoon 2,0.125,0.1786,48,1.0
46.5,46.5,66.4286,17,2.375,Viola,0.125,0.1786,60,0.9921
46.625,46.625,66.6071,17,2.5,Contrabass,0.125,0.1786,38,1.0
46.625,46.625,66.6071,17,2.5,Violin 2,0.25,0.3571,58,0.7087
46.625,46.625,66.6071,17,2.5,Violin 2,0.25,0.3571,62,0.7087
46.625,46.625,66.6071,17,2.5,Bassoon 2,0.125,0.1786,50,1.0
46.625,46.625,66.6071,17,2.5,Violoncello,0.125,0.1786,50,1.0
46.625,46.625,66.6071,17,2.5,Viola,0.125,0.1786,62,0.9921
46.75,46.75,66.7857,17,2.625,Contrabass,0.125,0.1786,39,1.0
46.75,46.75,66.7857,17,2.625,Violoncello,0.125,0.1786,51,1.0
46.75,46.75,66.7857,17,2.625,Bassoon 2,0.125,0.1786,51,1.0
46.75,46.75,66.7857,17,2.625,Viola,0.125,0.1786,63,0.9921
46.875,46.875,66.9643,17,2.75,Violoncello,0.125,0.1786,53,1.0
46.875,46.875,66.9643,17,2.75,Contrabass,0.125,0.1786,41,1.0
46.875,46.875,66.9643,17,2.75,Viola,0.125,0.1786,65,0.9921
46.875,46.875,66.9643,17,2.75,Bassoon 2,0.125,0.1786,53,1.0
46.875,46.875,66.9643,17,2.75,Violin 2,0.25,0.3571,58,0.7087
46.875,46.875,66.9643,17,2.75,Violin 2,0.25,0.3571,62,0.7087
47.0,47.0,67.1429,17,2.875,Bassoon 2,0.125,0.1786,55,1.0
47.0,47.0,67.1429,17,2.875,Viola,0.125,0.1786,67,0.9921
47.0,47.0,67.1429,17,2.875,Contrabass,0.125,0.1786,43,1.0
47.0,47.0,67.1429,17,2.875,Violoncello,0.125,0.1786,55,1.0
47.125,47.125,67.3214,17,3.0,Bassoon 2,0.125,0.1786,56,1.0
47.125,47.125,67.3214,17,3.0,Contrabass,0.125,0.1786,44,1.0
47.125,47.125,67.3214,17,3.0,Violin 2,0.25,0.3571,60,0.7087
47.125,47.125,67.3214,17,3.0,Violin 2,0.25,0.3571,62,0.7087
47.125,47.125,67.3214,17,3.0,Flute 1,0.5,0.7143,86,0.6378
47.125,47.125,67.3214,17,3.0,Viola,0.125,0.1786,68,0.9921
47.125,47.125,67.3214,17,3.0,Violoncello,0.125,0.1786,56,1.0
47.25,47.25,67.5,17,3.125,Violoncello,0.125,0.1786,55,1.0
47.25,47.25,67.5,17,3.125,Bassoon 2,0.125,0.1786,55,1.0
47.25,47.25,67.5,17,3.125,Contrabass,0.125,0.1786,43,1.0
47.25,47.25,67.5,17,3.125,Viola,0.125,0.1786,67,0.9921
47.375,47.375,67.6786,17,3.25,Bassoon 2,0.125,0.1786,53,1.0
47.375,47.375,67.6786,17,3.25,Viola,0.125,0.1786,65,0.9921
47.375,47.375,67.6786,17,3.25,Violin 2,0.25,0.3571,60,0.7087
47.375,47.375,67.6786,17,3.25,Contrabass,0.125,0.1786,41,1.0
47.375,47.375,67.6786,17,3.25,Violoncello,0.125,0.1786,53,1.0
47.375,47.375,67.6786,17,3.25,Violin 2,0.25,0.3571,62,0.7087
47.5,47.5,67.8571,17,3.375,Viola,0.125,0.1786,63,0.9921
47.5,47.5,67.8571,17,3.375,Contrabass,0.125,0.1786,39,1.0
47.5,47.5,67.8571,17,3.375,Violoncello,0.125,0.1786,51,1.0
47.5,47.5,67.8571,17,3.375,Bassoon 2,0.125,0.1786,51,1.0
47.625,47.625,68.0357,17,3.5,Violin 2,0.25,0.3571,62,0.7087
47.625,47.625,68.0357,17,3.5,Violin 2,0.25,0.3571,60,0.7087
47.625,47.625,68.0357,17,3.5,Viola,0.125,0.1786,62,0.9921
47.625,47.625,68.0357,17,3.5,Oboe 1,0.5,0.7143,78,1.0
47.625,47.625,68.0357,17,3.5,Bassoon 1,0.5,0.7143,65,0.6378
47.625,47.625,68.0357,17,3.5,Contrabass,0.125,0.1786,38,1.0
47.625,47.625,68.0357,17,3.5,Bassoon 2,0.125,0.1786,50,1.0
47.625,47.625,68.0357,17,3.5,Flute 1,0.5,0.7143,84,0.6378
47.625,47.625,68.0357,17,3.5,Violin 1,0.5,0.7143,78,1.0
47.625,47.625,68.0357,17,3.5,Violoncello,0.125,0.1786,50,1.0
47.75,47.75,68.2143,17,3.625,Bassoon 2,0.125,0.1786,48,1.0
47.75,47.75,68.2143,17,3.625,Violoncello,0.125,0.1786,48,1.0
47.75,47.75,68.2143,17,3.625,Contrabass,0.125,0.1786,36,1.0
47.75,47.75,68.2143,17,3.625,Viola,0.125,0.1786,60,0.9921
47.875,47.875,68.3929,17,3.75,Violin 2,0.25,0.3571,62,0.7087
47.875,47.875,68.3929,17,3.75,Contrabass,0.125,0.1786,34,1.0
47.875,47.875,68.3929,17,3.75,Viola,0.125,0.1786,58,0.9921
47.875,47.875,68.3929,17,3.75,Bassoon 2,0.125,0.1786,46,1.0
47.875,47.875,68.3929,17,3.75,Violin 2,0.25,0.3571,60,0.7087
47.875,47.875,68.3929,17,3.75,Violoncello,0.125,0.1786,46,1.0
48.0,48.0,68.5714,17,3.875,Violoncello,0.125,0.1786,44,1.0
48.0,48.0,68.5714,17,3.875,Contrabass,0.125,0.1786,32,1.0
48.0,48.0,68.5714,17,3.875,Bassoon 2,0.125,0.1786,44,1.0
48.0,48.0,68.5714,17,3.875,Viola,0.125,0.1786,56,0.9921
48.125,48.125,68.75,18,1.0,Contrabass,0.5,0.7143,31,1.0
48.125,48.125,68.75,18,1.0,Violin 1,0.5,0.7143,79,1.0
48.125,48.125,68.75,18,1.0,Viola,0.1667,0.2381,55,1.0
48.125,48.125,68.75,18,1.0,Violin 2,0.1667,0.2381,62,0.7087
48.125,48.125,68.75,18,1.0,Oboe 1,1.0,1.4286,79,1.0
48.125,48.125,68.75,18,1.0,Bassoon 2,0.5,0.7143,43,0.9921
48.125,48.125,68.75,18,1.0,Flute 1,1.0,1.4286,83,1.0
48.125,48.125,68.75,18,1.0,Violoncello,0.5,0.7143,43,1.0
48.125,48.125,68.75,18,1.0,Violin 2,0.1667,0.2381,59,0.7087
48.125,48.125,68.75,18,1.0,Bassoon 1,0.5,0.7143,67,0.9921
48.2917,48.2917,68.9881,18,1.1667,Violin 2,0.1667,0.2381,59,0.7087
48.2917,48.2917,68.9881,18,1.1667,Violin 2,0.1667,0.2381,67,0.7087
48.2917,48.2917,68.9881,18,1.1667,Viola,0.1667,0.2381,62,0.7087
48.2917,48.2917,68.9881,18,1.1667,Viola,0.1667,0.2381,65,0.7087
48.4583,48.4583,69.2261,18,1.3333,Violin 2,0.1667,0.2381,59,0.7087
48.4583,48.4583,69.2261,18,1.3333,Violin 2,0.1667,0.2381,67,0.7087
48.4583,48.4583,69.2261,18,1.3333,Viola,0.1667,0.2381,62,0.7087
48.4583,48.4583,69.2261,18,1.3333,Viola,0.1667,0.2381,65,0.7087
48.625,48.625,69.4643,18,1.5,Violoncello,0.125,0.1786,43,1.0
48.625,48.625,69.4643,18,1.5,D Horn 2,1.0,1.4286,67,1.0
48.625,48.625,69.4643,18,1.5,Contrabass,0.125,0.1786,31,1.0
48.625,48.625,69.4643,18,1.5,Viola,0.1667,0.2381,65,0.7087
48.625,48.625,69.4643,18,1.5,Violin 2,0.1667,0.2381,59,0.7087
48.625,48.625,69.4643,18,1.5,D Horn 1,1.0,1.4286,67,1.0
48.625,48.625,69.4643,18,1.5,Viola,0.1667,0.2381,62,0.7087
48.625,48.625,69.4643,18,1.5,Violin 2,0.1667,0.2381,67,0.7087
48.75,48.75,69.6429,18,1.625,Contrabass,0.0625,0.0893,33,1.0
48.75,48.75,69.6429,18,1.625,Violoncello,0.0625,0.0893,45,1.0
48.7917,48.7917,69.7024,18,1.6667,Violin 2,0.1667,0.2381,67,0.7087
48.7917,48.7917,69.7024,18,1.6667,Violin 2,0.1667,0.2381,59,0.7087
48.7917,48.7917,69.7024,18,1.6667,Viola,0.1667,0.2381,62,0.7087
48.7917,48.7917,69.7024,18,1.6667,Viola,0.1667,0.2381,65,0.7087
48.8125,48.8125,69.7321,18,1.6875,Contrabass,0.0625,0.0893,35,1.0
48.8125,48.8125,69.7321,18,1.6875,Violoncello,0.0625,0.0893,47,1.0
48.875,48.875,69.8214,18,1.75,Contrabass,0.0625,0.0893,36,1.0
48.875,48.875,69.8214,18,1.75,Violoncello,0.0625,0.0893,48,1.0
48.9375,48.9375,69.9107,18,1.8125,Violoncello,0.0625,0.0893,50,1.0
48.9375,48.9375,69.9107,18,1.8125,Contrabass,0.0625,0.0893,38,1.0
48.9583,48.9583,69.9404,18,1.8333,Violin 2,0.1667,0.2381,67,0.7087
48.9583,48.9583,69.9404,18,1.8333,Violin 2,0.1667,0.2381,59,0.7087
48.9583,48.9583,69.9404,18,1.8333,Viola,0.1667,0.2381,62,0.7087
48.9583,48.9583,69.9404,18,1.8333,Viola,0.1667,0.2381,65,0.7087
49.0,49.0,70.0,18,1.875,Contrabass,0.0625,0.0893,40,1.0
49.0,49.0,70.0,18,1.875,Violoncello,0.0625,0.0893,52,1.0
49.0625,49.0625,70.0893,18,1.9375,Violoncello,0.0625,0.0893,54,1.0
49.0625,49.0625,70.0893,18,1.9375,Contrabass,0.0625,0.0893,42,1.0
49.125,49.125,70.1786,18,2.0,Violin 1,0.5,0.7143,67,1.0
49.125,49.125,70.1786,18,2.0,Viola,0.1667,0.2381,62,0.7087
49.125,49.125,70.1786,18,2.0,Violoncello,0.5,0.7143,55,1.0
49.125,49.125,70.1786,18,2.0,Viola,0.1667,0.2381,65,0.7087
49.125,49.125,70.1786,18,2.0,Contrabass,0.5,0.7143,43,1.0
49.125,49.125,70.1786,18,2.0,Violin 2,0.1667,0.2381,67,0.7087
49.125,49.125,70.1786,18,2.0,Violin 2,0.1667,0.2381,59,0.7087
49.2917,49.2917,70.4167,18,2.1667,Violin 2,0.1667,0.2381,67,0.7087
49.2917,49.2917,70.4167,18,2.1667,Violin 2,0.1667,0.2381,59,0.7087
49.2917,49.2917,70.4167,18,2.1667,Viola,0.1667,0.2381,65,0.7087
49.2917,49.2917,70.4167,18,2.1667,Viola,0.1667,0.2381,62,0.7087
49.4583,49.4583,70.6547,18,2.3333,Viola,0.1667,0.2381,65,0.7087
49.4583,49.4583,70.6547,18,2.3333,Violin 2,0.1667,0.2381,67,0.7087
49.4583,49.4583,70.6547,18,2.3333,Violin 2,0.1667,0.2381,59,0.7087
49.4583,49.4583,70.6547,18,2.3333,Viola,0.1667,0.2381,62,0.7087
49.625,49.625,70.8929,18,2.5,Viola,0.1667,0.2381,65,0.7087
49.625,49.625,70.8929,18,2.5,Violin 1,0.125,0.1786,67,1.0
49.625,49.625,70.8929,18,2.5,Violin 2,0.1667,0.2381,67,0.7087
49.625,49.625,70.8929,18,2.5,Viola,0.1667,0.2381,62,0.7087
49.625,49.625,70.8929,18,2.5,Flute 1,0.5,0.7143,86,0.4961
49.625,49.625,70.8929,18,2.5,Violin 2,0.1667,0.2381,59,0.7087
49.75,49.75,71.0714,18,2.625,Violin 1,0.0625,0.0893,69,1.0
49.7917,49.7917,71.131,18,2.6667,Viola,0.1667,0.2381,62,0.7087
49.7917,49.7917,71.131,18,2.6667,Violin 2,0.1667,0.2381,67,0.7087
49.7917,49.7917,71.131,18,2.6667,Violin 2,0.1667,0.2381,59,0.7087
49.7917,49.7917,71.131,18,2.6667,Viola,0.1667,0.2381,65,0.7087
49.8125,49.8125,71.1607,18,2.6875,Violin 1,0.0625,0.0893,71,1.0
49.875,49.875,71.25,18,2.75,Violin 1,0.0625,0.0893,72,1.0
49.9375,49.9375,71.3393,18,2.8125,Violin 1,0.0625,0.0893,74,1.0
49.9583,49.9583,71.369,18,2.8333,Violin 2,0.1667,0.2381,59,0.7087
49.9583,49.9583,71.369,18,2.8333,Violin 2,0.1667,0.2381,67,0.7087
49.9583,49.9583,71.369,18,2.8333,Viola,0.1667,0.2381,62,0.7087
49.9583,49.9583,71.369,18,2.8333,Viola,0.1667,0.2381,65,0.7087
50.0,50.0,71.4286,18,2.875,Violin 1,0.0625,0.0893,76,1.0
50.0625,50.0625,71.5179,18,2.9375,Violin 1,0.0625,0.0893,78,1.0
50.125,50.125,71.6071,18,3.0,Flute 1,0.5,0.7143,83,0.4961
50.125,50.125,71.6071,18,3.0,Violin 2,0.1667,0.2381,59,0.7087
50.125,50.125,71.6071,18,3.0,Violin 1,0.5,0.7143,79,1.0
50.125,50.125,71.6071,18,3.0,Violin 2,0.1667,0.2381,67,0.7087
50.125,50.125,71.6071,18,3.0,Viola,0.1667,0.2381,65,0.7087
50.125,50.125,71.6071,18,3.0,Viola,0.1667,0.2381,62,0.7087
50.2917,50.2917,71.8453,18,3.1667,Viola,0.1667,0.2381,65,0.7087
50.2917,50.2917,71.8453,18,3.1667,Viola,0.1667,0.2381,62,0.7087
50.2917,50.2917,71.8453,18,3.1667,Violin 2,0.1667,0.2381,59,0.7087
50.2917,50.2917,71.8453,18,3.1667,Violin 2,0.1667,0.2381,67,0.7087
50.4583,50.4583,72.0833,18,3.3333,Viola,0.1667,0.2381,65,0.7087
50.4583,50.4583,72.0833,18,3.3333,Violin 2,0.1667,0.2381,59,0.7087
50.4583,50.4583,72.0833,18,3.3333,Viola,0.1667,0.2381,62,0.7087
50.4583,50.4583,72.0833,18,3.3333,Violin 2,0.1667,0.2381,67,0.7087
50.625,50.625,72.3214,18,3.5,Violin 2,0.1667,0.2381,67,0.7087
50.625,50.625,72.3214,18,3.5,Flute 1,0.5,0.7143,77,0.4961
50.625,50.625,72.3214,18,3.5,Violin 2,0.1667,0.2381,59,0.7087
50.625,50.625,72.3214,18,3.5,Viola,0.1667,0.2381,62,0.7087
50.625,50.625,72.3214,18,3.5,Viola,0.1667,0.2381,65,0.7087
50.7917,50.7917,72.5596,18,3.6667,Viola,0.1667,0.2381,62,0.7087
50.7917,50.7917,72.5596,18,3.6667,Viola,0.1667,0.2381,65,0.7087
50.7917,50.7917,72.5596,18,3.6667,Violin 2,0.1667,0.2381,59,0.7087
50.7917,50.7917,72.5596,18,3.6667,Violin 2,0.1667,0.2381,67,0.7087
50.9583,50.9583,72.7976,18,3.8333,Viola,0.1667,0.2381,62,0.7087
50.9583,50.9583,72.7976,18,3.8333,Viola,0.1667,0.2381,65,0.7087
50.9583,50.9583,72.7976,18,3.8333,Violin 2,0.1667,0.2381,59,0.7087
50.9583,50.9583,72.7976,18,3.8333,Violin 2,0.1667,0.2381,67,0.7087
51.125,51.125,73.0357,19,1.0,Flute 1,0.5,0.7143,76,0.4961
51.125,51.125,73.0357,19,1.0,Contrabass,0.5,0.7143,36,1.0
51.125,51.125,73.0357,19,1.0,Violoncello,0.5,0.7143,48,1.0
51.125,51.125,73.0357,19,1.0,Violin 2,0.1667,0.2381,67,0.7087
51.125,51.125,73.0357,19,1.0,Viola,0.1667,0.2381,60,0.7087
51.125,51.125,73.0357,19,1.0,Viola,0.1667,0.2381,64,0.7087
51.125,51.125,73.0357,19,1.0,Violin 2,0.1667,0.2381,58,0.7087
51.2917,51.2917,73.2739,19,1.1667,Violin 2,0.1667,0.2381,58,0.7087
51.2917,51.2917,73.2739,19,1.1667,Violin 2,0.1667,0.2381,67,0.7087
51.2917,51.2917,73.2739,19,1.1667,Viola,0.1667,0.2381,60,0.7087
51.2917,51.2917,73.2739,19,1.1667,Viola,0.1667,0.2381,64,0.7087
51.4583,51.4583,73.5119,19,1.3333,Violin 2,0.1667,0.2381,58,0.7087
51.4583,51.4583,73.5119,19,1.3333,Violin 2,0.1667,0.2381,67,0.7087
51.4583,51.4583,73.5119,19,1.3333,Viola,0.1667,0.2381,60,0.7087
51.4583,51.4583,73.5119,19,1.3333,Viola,0.1667,0.2381,64,0.7087
51.625,51.625,73.75,19,1.5,Violin 2,0.1667,0.2381,58,0.7087
51.625,51.625,73.75,19,1.5,Oboe 2,1.0,1.4286,72,1.0
51.625,51.625,73.75,19,1.5,Violin 2,0.1667,0.2381,67,0.7087
51.625,51.625,73.75,19,1.5,Viola,0.1667,0.2381,64,0.7087
51.625,51.625,73.75,19,1.5,Contrabass,0.125,0.1786,36,1.0
51.625,51.625,73.75,19,1.5,Viola,0.1667,0.2381,60,0.7087
51.625,51.625,73.75,19,1.5,Oboe 1,1.0,1.4286,84,1.0
51.625,51.625,73.75,19,1.5,Violoncello,0.125,0.1786,48,1.0
51.75,51.75,73.9286,19,1.625,Contrabass,0.0625,0.0893,38,1.0
51.75,51.75,73.9286,19,1.625,Violoncello,0.0625,0.0893,50,1.0
51.7917,51.7917,73.9881,19,1.6667,Viola,0.1667,0.2381,60,0.7087
51.7917,51.7917,73.9881,19,1.6667,Violin 2,0.1667,0.2381,67,0.7087
51.7917,51.7917,73.9881,19,1.6667,Violin 2,0.1667,0.2381,58,0.7087
51.7917,51.7917,73.9881,19,1.6667,Viola,0.1667,0.2381,64,0.7087
51.8125,51.8125,74.0179,19,1.6875,Violoncello,0.0625,0.0893,52,1.0
51.8125,51.8125,74.0179,19,1.6875,Contrabass,0.0625,0.0893,40,1.0
51.875,51.875,74.1071,19,1.75,Violoncello,0.0625,0.0893,53,1.0
51.875,51.875,74.1071,19,1.75,Contrabass,0.0625,0.0893,41,1.0
51.9375,51.9375,74.1964,19,1.8125,Violoncello,0.0625,0.0893,55,1.0
51.9375,51.9375,74.1964,19,1.8125,Contrabass,0.0625,0.0893,43,1.0
51.9583,51.9583,74.2261,19,1.8333,Violin 2,0.1667,0.2381,67,0.7087
51.9583,51.9583,74.2261,19,1.8333,Viola,0.1667,0.2381,64,0.7087
51.9583,51.9583,74.2261,19,1.8333,Violin 2,0.1667,0.2381,58,0.7087
51.9583,51.9583,74.2261,19,1.8333,Viola,0.1667,0.2381,60,0.7087
52.0,52.0,74.2857,19,1.875,Violoncello,0.0625,0.0893,57,1.0
52.0,52.0,74.2857,19,1.875,Contrabass,0.0625,0.0893,45,1.0
52.0625,52.0625,74.375,19,1.9375,Contrabass,0.0625,0.0893,47,1.0
52.0625,52.0625,74.375,19,1.9375,Violoncello,0.0625,0.0893,59,1.0
52.125,52.125,74.4643,19,2.0,Violin 1,0.5,0.7143,72,1.0
52.125,52.125,74.4643,19,2.0,Viola,0.1667,0.2381,60,0.7087
52.125,52.125,74.4643,19,2.0,Violin 2,0.1667,0.2381,58,0.7087
52.125,52.125,74.4643,19,2.0,Viola,0.1667,0.2381,64,0.7087
52.125,52.125,74.4643,19,2.0,Contrabass,0.5,0.7143,48,1.0
52.125,52.125,74.4643,19,2.0,Violin 2,0.1667,0.2381,67,0.7087
52.125,52.125,74.4643,19,2.0,Violoncello,0.5,0.7143,60,1.0
52.2917,52.2917,74.7024,19,2.1667,Violin 2,0.1667,0.2381,67,0.7087
52.2917,52.2917,74.7024,19,2.1667,Viola,0.1667,0.2381,60,0.7087
52.2917,52.2917,74.7024,19,2.1667,Viola,0.1667,0.2381,64,0.7087
52.2917,52.2917,74.7024,19,2.1667,Violin 2,0.1667,0.2381,58,0.7087
52.4583,52.4583,74.9404,19,2.3333,Viola,0.1667,0.2381,64,0.7087
52.4583,52.4583,74.9404,19,2.3333,Viola,0.1667,0.2381,60,0.7087
52.4583,52.4583,74.9404,19,2.3333,Violin 2,0.1667,0.2381,58,0.7087
52.4583,52.4583,74.9404,19,2.3333,Violin 2,0.1667,0.2381,67,0.7087
52.625,52.625,75.1786,19,2.5,Bassoon 1,0.5,0.7143,67,0.4961
52.625,52.625,75.1786,19,2.5,Viola,0.1667,0.2381,64,0.7087
52.625,52.625,75.1786,19,2.5,Viola,0.1667,0.2381,60,0.7087
52.625,52.625,75.1786,19,2.5,Violin 2,0.1667,0.2381,67,0.7087
52.625,52.625,75.1786,19,2.5,Violin 1,0.125,0.1786,72,1.0
52.625,52.625,75.1786,19,2.5,Violin 2,0.1667,0.2381,58,0.7087
52.75,52.75,75.3571,19,2.625,Violin 1,0.0625,0.0893,74,1.0
52.7917,52.7917,75.4167,19,2.6667,Viola,0.1667,0.2381,64,0.7087
52.7917,52.7917,75.4167,19,2.6667,Viola,0.1667,0.2381,60,0.7087
52.7917,52.7917,75.4167,19,2.6667,Violin 2,0.1667,0.2381,58,0.7087
52.7917,52.7917,75.4167,19,2.6667,Violin 2,0.1667,0.2381,67,0.7087
52.8125,52.8125,75.4464,19,2.6875,Violin 1,0.0625,0.0893,76,1.0
52.875,52.875,75.5357,19,2.75,Violin 1,0.0625,0.0893,77,1.0
52.9375,52.9375,75.625,19,2.8125,Violin 1,0.0625,0.0893,79,1.0
52.9583,52.9583,75.6547,19,2.8333,Violin 2,0.1667,0.2381,58,0.7087
52.9583,52.9583,75.6547,19,2.8333,Viola,0.1667,0.2381,64,0.7087
52.9583,52.9583,75.6547,19,2.8333,Viola,0.1667,0.2381,60,0.7087
52.9583,52.9583,75.6547,19,2.8333,Violin 2,0.1667,0.2381,67,0.7087
53.0,53.0,75.7143,19,2.875,Violin 1,0.0625,0.0893,81,1.0
53.0625,53.0625,75.8036,19,2.9375,Violin 1,0.0625,0.0893,83,1.0
53.125,53.125,75.8929,19,3.0,Bassoon 1,0.5,0.7143,64,0.4961
53.125,53.125,75.8929,19,3.0,Viola,0.1667,0.2381,64,0.7087
53.125,53.125,75.8929,19,3.0,Viola,0.1667,0.2381,60,0.7087
53.125,53.125,75.8929,19,3.0,Violin 2,0.1667,0.2381,58,0.7087
53.125,53.125,75.8929,19,3.0,Violin 2,0.1667,0.2381,67,0.7087
53.125,53.125,75.8929,19,3.0,Violin 1,0.5,0.7143,84,1.0
53.2917,53.2917,76.131,19,3.1667,Viola,0.1667,0.2381,64,0.7087
53.2917,53.2917,76.131,19,3.1667,Viola,0.1667,0.2381,60,0.7087
53.2917,53.2917,76.131,19,3.1667,Violin 2,0.1667,0.2381,67,0.7087
53.2917,53.2917,76.131,19,3.1667,Violin 2,0.1667,0.2381,58,0.7087
53.4583,53.4583,76.369,19,3.3333,Violin 2,0.1667,0.2381,67,0.7087
53.4583,53.4583,76.369,19,3.3333,Violin 2,0.1667,0.2381,58,0.7087
53.4583,53.4583,76.369,19,3.3333,Viola,0.1667,0.2381,60,0.7087
53.4583,53.4583,76.369,19,3.3333,Viola,0.1667,0.2381,64,0.7087
53.625,53.625,76.6071,19,3.5,Violin 2,0.1667,0.2381,58,0.7087
53.625,53.625,76.6071,19,3.5,Violin 2,0.1667,0.2381,67,0.7087
53.625,53.625,76.6071,19,3.5,Viola,0.1667,0.2381,60,0.7087
53.625,53.625,76.6071,19,3.5,Bassoon 1,0.5,0.7143,58,0.4961
53.625,53.625,76.6071,19,3.5,Viola,0.1667,0.2381,64,0.7087
53.7917,53.7917,76.8453,19,3.6667,Viola,0.1667,0.2381,64,0.7087
53.7917,53.7917,76.8453,19,3.6667,Violin 2,0.1667,0.2381,58,0.7087
53.7917,53.7917,76.8453,19,3.6667,Violin 2,0.1667,0.2381,67,0.7087
53.7917,53.7917,76.8453,19,3.6667,Viola,0.1667,0.2381,60,0.7087
53.9583,53.9583,77.0833,19,3.8333,Viola,0.1667,0.2381,64,0.7087
53.9583,53.9583,77.0833,19,3.8333,Viola,0.1667,0.2381,60,0.7087
53.9583,53.9583,77.0833,19,3.8333,Violin 2,0.1667,0.2381,58,0.7087
53.9583,53.9583,77.0833,19,3.8333,Violin 2,0.1667,0.2381,67,0.7087
54.125,54.125,77.3214,20,1.0,Violoncello,0.5,0.7143,41,1.0
54.125,54.125,77.3214,20,1.0,Contrabass,0.5,0.7143,29,1.0
54.125,54.125,77.3214,20,1.0,Bassoon 1,0.5,0.7143,57,0.4961
54.125,54.125,77.3214,20,1.0,Viola,0.1667,0.2381,63,0.7087
54.125,54.125,77.3214,20,1.0,Viola,0.1667,0.2381,60,0.7087
54.125,54.125,77.3214,20,1.0,Violin 2,0.1667,0.2381,65,0.7087
54.125,54.125,77.3214,20,1.0,Violin 2,0.1667,0.2381,57,0.7087
54.2917,54.2917,77.5596,20,1.1667,Violin 2,0.1667,0.2381,69,1.0
54.2917,54.2917,77.5596,20,1.1667,Viola,0.1667,0.2381,60,0.7087
54.2917,54.2917,77.5596,20,1.1667,Viola,0.1667,0.2381,63,0.7087
54.4583,54.4583,77.7976,20,1.3333,Viola,0.1667,0.2381,60,0.7087
54.4583,54.4583,77.7976,20,1.3333,Viola,0.1667,0.2381,63,0.7087
54.4583,54.4583,77.7976,20,1.3333,Violin 2,0.1667,0.2381,69,1.0
54.625,54.625,78.0357,20,1.5,Contrabass,0.125,0.1786,29,1.0
54.625,54.625,78.0357,20,1.5,Violoncello,0.125,0.1786,41,1.0
54.625,54.625,78.0357,20,1.5,D Horn 2,1.0,1.4286,57,1.0
54.625,54.625,78.0357,20,1.5,D Horn 1,1.0,1.4286,69,1.0
54.625,54.625,78.0357,20,1.5,Violin 2,0.1667,0.2381,69,1.0
54.625,54.625,78.0357,20,1.5,Viola,0.1667,0.2381,60,0.7087
54.625,54.625,78.0357,20,1.5,Viola,0.1667,0.2381,63,0.7087
54.75,54.75,78.2143,20,1.625,Contrabass,0.0625,0.0893,31,1.0
54.75,54.75,78.2143,20,1.625,Violoncello,0.0625,0.0893,43,1.0
54.7917,54.7917,78.2739,20,1.6667,Violin 2,0.1667,0.2381,69,1.0
54.7917,54.7917,78.2739,20,1.6667,Viola,0.1667,0.2381,63,0.7087
54.7917,54.7917,78.2739,20,1.6667,Viola,0.1667,0.2381,60,0.7087
54.8125,54.8125,78.3036,20,1.6875,Contrabass,0.0625,0.0893,33,1.0
54.8125,54.8125,78.3036,20,1.6875,Violoncello,0.0625,0.0893,45,1.0
54.875,54.875,78.3929,20,1.75,Violoncello,0.0625,0.0893,46,1.0
54.875,54.875,78.3929,20,1.75,Contrabass,0.0625,0.0893,34,1.0
54.9375,54.9375,78.4821,20,1.8125,Violoncello,0.0625,0.0893,48,1.0
54.9375,54.9375,78.4821,20,1.8125,Contrabass,0.0625,0.0893,36,1.0
54.9583,54.9583,78.5119,20,1.8333,Violin 2,0.1667,0.2381,69,1.0
54.9583,54.9583,78.5119,20,1.8333,Viola,0.1667,0.2381,63,0.7087
54.9583,54.9583,78.5119,20,1.8333,Viola,0.1667,0.2381,60,0.7087
55.0,55.0,78.5714,20,1.875,Contrabass,0.0625,0.0893,38,1.0
55.0,55.0,78.5714,20,1.875,Violoncello,0.0625,0.0893,50,1.0
55.0625,55.0625,78.6607,20,1.9375,Violoncello,0.0625,0.0893,52,1.0
55.0625,55.0625,78.6607,20,1.9375,Contrabass,0.0625,0.0893,40,1.0
55.125,55.125,78.75,20,2.0,Violoncello,0.5,0.7143,53,1.0
55.125,55.125,78.75,20,2.0,Violin 2,0.1667,0.2381,69,1.0
55.125,55.125,78.75,20,2.0,Viola,0.1667,0.2381,60,0.7087
55.125,55.125,78.75,20,2.0,Viola,0.1667,0.2381,63,0.7087
55.125,55.125,78.75,20,2.0,Contrabass,0.5,0.7143,41,1.0
55.125,55.125,78.75,20,2.0,Violin 1,0.5,0.7143,65,1.0
55.2917,55.2917,78.9881,20,2.1667,Viola,0.1667,0.2381,60,0.7087
55.2917,55.2917,78.9881,20,2.1667,Viola,0.1667,0.2381,63,0.7087
55.2917,55.2917,78.9881,20,2.1667,Violin 2,0.1667,0.2381,69,1.0
55.4583,55.4583,79.2261,20,2.3333,Violin 2,0.1667,0.2381,69,1.0
55.4583,55.4583,79.2261,20,2.3333,Viola,0.1667,0.2381,60,0.7087
55.4583,55.4583,79.2261,20,2.3333,Viola,0.1667,0.2381,63,0.7087
55.625,55.625,79.4643,20,2.5,Viola,0.1667,0.2381,63,0.7087
55.625,55.625,79.4643,20,2.5,Violin 2,0.1667,0.2381,69,1.0
55.625,55.625,79.4643,20,2.5,Oboe 1,0.5,0.7143,84,0.4961
55.625,55.625,79.4643,20,2.5,Violin 1,0.125,0.1786,65,1.0
55.625,55.625,79.4643,20,2.5,Viola,0.1667,0.2381,60,0.7087
55.75,55.75,79.6429,20,2.625,Violin 1,0.0625,0.0893,67,1.0
55.7917,55.7917,79.7024,20,2.6667,Viola,0.1667,0.2381,60,0.7087
55.7917,55.7917,79.7024,20,2.6667,Viola,0.1667,0.2381,63,0.7087
55.7917,55.7917,79.7024,20,2.6667,Violin 2,0.1667,0.2381,69,1.0
55.8125,55.8125,79.7321,20,2.6875,Violin 1,0.0625,0.0893,69,1.0
55.875,55.875,79.8214,20,2.75,Violin 1,0.0625,0.0893,70,1.0
55.9375,55.9375,79.9107,20,2.8125,Violin 1,0.0625,0.0893,72,1.0
55.9583,55.9583,79.9404,20,2.8333,Viola,0.1667,0.2381,63,0.7087
55.9583,55.9583,79.9404,20,2.8333,Viola,0.1667,0.2381,60,0.7087
55.9583,55.9583,79.9404,20,2.8333,Violin 2,0.1667,0.2381,69,1.0
56.0,56.0,80.0,20,2.875,Violin 1,0.0625,0.0893,74,1.0
56.0625,56.0625,80.0893,20,2.9375,Violin 1,0.0625,0.0893,76,1.0
56.125,56.125,80.1786,20,3.0,Viola,0.1667,0.2381,60,0.7087
56.125,56.125,80.1786,20,3.0,Violin 2,0.1667,0.2381,69,1.0
56.125,56.125,80.1786,20,3.0,Viola,0.1667,0.2381,63,0.7087
56.125,56.125,80.1786,20,3.0,Violin 1,0.5,0.7143,77,1.0
56.125,56.125,80.1786,20,3.0,Oboe 1,0.5,0.7143,81,0.4961
56.2917,56.2917,80.4167,20,3.1667,Viola,0.1667,0.2381,60,0.7087
56.2917,56.2917,80.4167,20,3.1667,Viola,0.1667,0.2381,63,0.7087
56.2917,56.2917,80.4167,20,3.1667,Violin 2,0.1667,0.2381,69,1.0
56.4583,56.4583,80.6547,20,3.3333,Viola,0.1667,0.2381,60,0.7087
56.4583,56.4583,80.6547,20,3.3333,Viola,0.1667,0.2381,63,0.7087
56.4583,56.4583,80.6547,20,3.3333,Violin 2,0.1667,0.2381,69,1.0
56.625,56.625,80.8929,20,3.5,Oboe 1,0.5,0.7143,75,0.4961
56.625,56.625,80.8929,20,3.5,Violin 2,0.1667,0.2381,69,1.0
56.625,56.625,80.8929,20,3.5,Viola,0.1667,0.2381,63,0.7087
56.625,56.625,80.8929,20,3.5,Viola,0.1667,0.2381,60,0.7087
56.7917,56.7917,81.131,20,3.6667,Viola,0.1667,0.2381,60,0.7087
56.7917,56.7917,81.131,20,3.6667,Viola,0.1667,0.2381,63,0.7087
56.7917,56.7917,81.131,20,3.6667,Violin 2,0.1667,0.2381,69,1.0
56.9583,56.9583,81.369,20,3.8333,Viola,0.1667,0.2381,60,0.7087
56.9583,56.9583,81.369,20,3.8333,Viola,0.1667,0.2381,63,0.7087
56.9583,56.9583,81.369,20,3.8333,Violin 2,0.1667,0.2381,69,1.0
57.125,57.125,81.6071,21,1.0,Violin 2,0.1667,0.2381,69,0.7795
57.125,57.125,81.6071,21,1.0,Viola,0.1667,0.2381,62,0.7087
57.125,57.125,81.6071,21,1.0,Viola,0.1667,0.2381,60,0.7087
57.125,57.125,81.6071,21,1.0,Violoncello,0.5,0.7143,42,1.0
57.125,57.125,81.6071,21,1.0,Oboe 1,1.0,1.4286,74,0.4961
57.125,57.125,81.6071,21,1.0,Contrabass,0.5,0.7143,30,1.0
57.2917,57.2917,81.8453,21,1.1667,Viola,0.1667,0.2381,69,0.4961
57.2917,57.2917,81.8453,21,1.1667,Violin 2,0.1667,0.2381,62,0.7087
57.2917,57.2917,81.8453,21,1.1667,Violin 2,0.1667,0.2381,72,0.7087
57.4583,57.4583,82.0833,21,1.3333,Violin 2,0.1667,0.2381,62,0.7087
57.4583,57.4583,82.0833,21,1.3333,Violin 2,0.1667,0.2381,72,0.7087
57.4583,57.4583,82.0833,21,1.3333,Viola,0.1667,0.2381,69,0.4961
57.625,57.625,82.3214,21,1.5,Viola,0.1667,0.2381,69,0.4961
57.625,57.625,82.3214,21,1.5,Contrabass,0.125,0.1786,30,1.0
57.625,57.625,82.3214,21,1.5,Violoncello,0.125,0.1786,42,1.0
57.625,57.625,82.3214,21,1.5,Violin 2,0.1667,0.2381,62,0.7087
57.625,57.625,82.3214,21,1.5,D Horn 2,1.0,1.4286,50,1.0
57.625,57.625,82.3214,21,1.5,Violin 2,0.1667,0.2381,72,0.7087
57.625,57.625,82.3214,21,1.5,D Horn 1,1.0,1.4286,62,1.0
57.75,57.75,82.5,21,1.625,Contrabass,0.0625,0.0893,31,1.0
57.75,57.75,82.5,21,1.625,Violoncello,0.0625,0.0893,43,1.0
57.7917,57.7917,82.5596,21,1.6667,Violin 2,0.1667,0.2381,72,0.7087
57.7917,57.7917,82.5596,21,1.6667,Violin 2,0.1667,0.2381,62,0.7087
57.7917,57.7917,82.5596,21,1.6667,Viola,0.1667,0.2381,69,0.4961
57.8125,57.8125,82.5893,21,1.6875,Violoncello,0.0625,0.0893,45,1.0
57.8125,57.8125,82.5893,21,1.6875,Contrabass,0.0625,0.0893,33,1.0
57.875,57.875,82.6786,21,1.75,Contrabass,0.0625,0.0893,34,1.0
57.875,57.875,82.6786,21,1.75,Violoncello,0.0625,0.0893,46,1.0
57.9375,57.9375,82.7679,21,1.8125,Violoncello,0.0625,0.0893,48,1.0
57.9375,57.9375,82.7679,21,1.8125,Contrabass,0.0625,0.0893,36,1.0
57.9583,57.9583,82.7976,21,1.8333,Viola,0.1667,0.2381,69,0.4961
57.9583,57.9583,82.7976,21,1.8333,Violin 2,0.1667,0.2381,62,0.7087
57.9583,57.9583,82.7976,21,1.8333,Violin 2,0.1667,0.2381,72,0.7087
58.0,58.0,82.8571,21,1.875,Violoncello,0.0625,0.0893,50,1.0
58.0,58.0,82.8571,21,1.875,Contrabass,0.0625,0.0893,38,1.0
58.0625,58.0625,82.9464,21,1.9375,Violoncello,0.0625,0.0893,52,1.0
58.0625,58.0625,82.9464,21,1.9375,Contrabass,0.0625,0.0893,40,1.0
58.125,58.125,83.0357,21,2.0,Violin 2,0.1667,0.2381,62,0.7087
58.125,58.125,83.0357,21,2.0,Violin 2,0.1667,0.2381,72,0.7087
58.125,58.125,83.0357,21,2.0,Violoncello,0.5,0.7143,54,1.0
58.125,58.125,83.0357,21,2.0,Contrabass,0.5,0.7143,42,1.0
58.125,58.125,83.0357,21,2.0,Violin 1,0.5,0.7143,74,1.0
58.125,58.125,83.0357,21,2.0,Viola,0.1667,0.2381,69,0.4961
58.2917,58.2917,83.2739,21,2.1667,Violin 2,0.1667,0.2381,62,0.7087
58.2917,58.2917,83.2739,21,2.1667,Viola,0.1667,0.2381,69,0.4961
58.2917,58.2917,83.2739,21,2.1667,Violin 2,0.1667,0.2381,72,0.7087
58.4583,58.4583,83.5119,21,2.3333,Violin 2,0.1667,0.2381,72,0.7087
58.4583,58.4583,83.5119,21,2.3333,Viola,0.1667,0.2381,69,0.4961
58.4583,58.4583,83.5119,21,2.3333,Violin 2,0.1667,0.2381,62,0.7087
58.625,58.625,83.75,21,2.5,Oboe 1,0.5,0.7143,81,0.4961
58.625,58.625,83.75,21,2.5,Violin 2,0.1667,0.2381,72,0.7087
58.625,58.625,83.75,21,2.5,Viola,0.1667,0.2381,69,0.4961
58.625,58.625,83.75,21,2.5,Violin 2,0.1667,0.2381,62,0.7087
58.625,58.625,83.75,21,2.5,Violin 1,0.125,0.1786,74,1.0
58.75,58.75,83.9286,21,2.625,Violin 1,0.0625,0.0893,76,1.0
58.7917,58.7917,83.9881,21,2.6667,Violin 2,0.1667,0.2381,62,0.7087
58.7917,58.7917,83.9881,21,2.6667,Violin 2,0.1667,0.2381,72,0.7087
58.7917,58.7917,83.9881,21,2.6667,Viola,0.1667,0.2381,69,0.4961
58.8125,58.8125,84.0179,21,2.6875,Violin 1,0.0625,0.0893,78,1.0
58.875,58.875,84.1071,21,2.75,Violin 1,0.0625,0.0893,79,1.0
58.9375,58.9375,84.1964,21,2.8125,Violin 1,0.0625,0.0893,81,1.0
58.9583,58.9583,84.2261,21,2.8333,Violin 2,0.1667,0.2381,62,0.7087
58.9583,58.9583,84.2261,21,2.8333,Viola,0.1667,0.2381,69,0.4961
58.9583,58.9583,84.2261,21,2.8333,Violin 2,0.1667,0.2381,72,0.7087
59.0,59.0,84.2857,21,2.875,Violin 1,0.0625,0.0893,83,1.0
59.0625,59.0625,84.375,21,2.9375,Violin 1,0.0625,0.0893,85,1.0
59.125,59.125,84.4643,21,3.0,Viola,0.1667,0.2381,69,0.4961
59.125,59.125,84.4643,21,3.0,Oboe 1,0.5,0.7143,78,0.4961
59.125,59.125,84.4643,21,3.0,Violin 1,0.5,0.7143,86,1.0
59.125,59.125,84.4643,21,3.0,Violin 2,0.1667,0.2381,72,0.7087
59.125,59.125,84.4643,21,3.0,Violin 2,0.1667,0.2381,62,0.7087
59.2917,59.2917,84.7024,21,3.1667,Viola,0.1667,0.2381,69,0.4961
59.2917,59.2917,84.7024,21,3.1667,Violin 2,0.1667,0.2381,62,0.7087
59.2917,59.2917,84.7024,21,3.1667,Violin 2,0.1667,0.2381,72,0.7087
59.4583,59.4583,84.9404,21,3.3333,Violin 2,0.1667,0.2381,72,0.7087
59.4583,59.4583,84.9404,21,3.3333,Violin 2,0.1667,0.2381,62,0.7087
59.4583,59.4583,84.9404,21,3.3333,Viola,0.1667,0.2381,69,0.4961
59.625,59.625,85.1786,21,3.5,Violin 2,0.1667,0.2381,62,0.7087
59.625,59.625,85.1786,21,3.5,Violin 2,0.1667,0.2381,72,0.7087
59.625,59.625,85.1786,21,3.5,Bassoon 1,0.5,0.7143,60,0.4961
59.625,59.625,85.1786,21,3.5,Viola,0.1667,0.2381,69,0.4961
59.625,59.625,85.1786,21,3.5,Oboe 1,0.5,0.7143,72,0.4961
59.7917,59.7917,85.4167,21,3.6667,Violin 2,0.1667,0.2381,72,0.7087
59.7917,59.7917,85.4167,21,3.6667,Violin 2,0.1667,0.2381,62,0.7087
59.7917,59.7917,85.4167,21,3.6667,Viola,0.1667,0.2381,69,0.4961
59.9583,59.9583,85.6547,21,3.8333,Viola,0.1667,0.2381,69,0.4961
59.9583,59.9583,85.6547,21,3.8333,Violin 2,0.1667,0.2381,72,0.7087
59.9583,59.9583,85.6547,21,3.8333,Violin 2,0.1667,0.2381,62,0.7087
60.125,60.125,85.8929,22,1.0,Violoncello,0.5,0.7143,43,1.0
60.125,60.125,85.8929,22,1.0,Bassoon 1,1.0,1.4286,58,0.4961
60.125,60.125,85.8929,22,1.0,Violin 2,0.1667,0.2381,62,0.7087
60.125,60.125,85.8929,22,1.0,Viola,0.1667,0.2381,67,1.0
60.125,60.125,85.8929,22,1.0,Violin 2,0.1667,0.2381,70,0.7087
60.125,60.125,85.8929,22,1.0,Oboe 1,1.0,1.4286,70,0.4961
60.125,60.125,85.8929,22,1.0,Contrabass,0.5,0.7143,31,1.0
60.2917,60.2917,86.131,22,1.1667,Violin 2,0.1667,0.2381,67,0.7087
60.2917,60.2917,86.131,22,1.1667,Viola,0.1667,0.2381,62,1.0
60.2917,60.2917,86.131,22,1.1667,Violin 2,0.1667,0.2381,58,0.7087
60.4583,60.4583,86.369,22,1.3333,Violin 2,0.1667,0.2381,58,0.7087
60.4583,60.4583,86.369,22,1.3333,Violin 2,0.1667,0.2381,67,0.7087
60.4583,60.4583,86.369,22,1.3333,Viola,0.1667,0.2381,62,1.0
60.625,60.625,86.6071,22,1.5,Violin 2,0.1667,0.2381,58,0.7087
60.625,60.625,86.6071,22,1.5,D Horn 1,1.0,1.4286,67,1.0
60.625,60.625,86.6071,22,1.5,Violoncello,0.125,0.1786,43,1.0
60.625,60.625,86.6071,22,1.5,Contrabass,0.125,0.1786,31,1.0
60.625,60.625,86.6071,22,1.5,D Horn 2,1.0,1.4286,67,1.0
60.625,60.625,86.6071,22,1.5,Viola,0.1667,0.2381,62,1.0
60.625,60.625,86.6071,22,1.5,Violin 2,0.1667,0.2381,67,0.7087
60.75,60.75,86.7857,22,1.625,Violoncello,0.0625,0.0893,45,1.0
60.75,60.75,86.7857,22,1.625,Contrabass,0.0625,0.0893,33,1.0
60.7917,60.7917,86.8453,22,1.6667,Violin 2,0.1667,0.2381,58,0.7087
60.7917,60.7917,86.8453,22,1.6667,Violin 2,0.1667,0.2381,67,0.7087
60.7917,60.7917,86.8453,22,1.6667,Viola,0.1667,0.2381,62,1.0
60.8125,60.8125,86.875,22,1.6875,Contrabass,0.0625,0.0893,34,1.0
60.8125,60.8125,86.875,22,1.6875,Violoncello,0.0625,0.0893,46,1.0
60.875,60.875,86.9643,22,1.75,Violoncello,0.0625,0.0893,48,1.0
60.875,60.875,86.9643,22,1.75,Contrabass,0.0625,0.0893,36,1.0
60.9375,60.9375,87.0536,22,1.8125,Violoncello,0.0625,0.0893,50,1.0
60.9375,60.9375,87.0536,22,1.8125,Contrabass,0.0625,0.0893,38,1.0
60.9583,60.9583,87.0833,22,1.8333,Viola,0.1667,0.2381,62,1.0
60.9583,60.9583,87.0833,22,1.8333,Violin 2,0.1667,0.2381,67,0.7087
60.9583,60.9583,87.0833,22,1.8333,Violin 2,0.1667,0.2381,58,0.7087
61.0,61.0,87.1429,22,1.875,Violoncello,0.0625,0.0893,52,1.0
61.0,61.0,87.1429,22,1.875,Contrabass,0.0625,0.0893,40,1.0
61.0625,61.0625,87.2321,22,1.9375,Violoncello,0.0625,0.0893,54,1.0
61.0625,61.0625,87.2321,22,1.9375,Contrabass,0.0625,0.0893,42,1.0
61.125,61.125,87.3214,22,2.0,Violin 2,0.1667,0.2381,67,0.7087
61.125,61.125,87.3214,22,2.0,Violoncello,0.5,0.7143,55,1.0
61.125,61.125,87.3214,22,2.0,Violin 2,0.1667,0.2381,58,0.7087
61.125,61.125,87.3214,22,2.0,Violin 1,0.5,0.7143,67,1.0
61.125,61.125,87.3214,22,2.0,Contrabass,0.5,0.7143,43,1.0
61.125,61.125,87.3214,22,2.0,Viola,0.1667,0.2381,62,1.0
61.2917,61.2917,87.5596,22,2.1667,Violin 2,0.1667,0.2381,67,0.7087
61.2917,61.2917,87.5596,22,2.1667,Violin 2,0.1667,0.2381,58,0.7087
61.2917,61.2917,87.5596,22,2.1667,Viola,0.1667,0.2381,62,1.0
61.4583,61.4583,87.7976,22,2.3333,Violin 2,0.1667,0.2381,67,0.7087
61.4583,61.4583,87.7976,22,2.3333,Violin 2,0.1667,0.2381,58,0.7087
61.4583,61.4583,87.7976,22,2.3333,Viola,0.1667,0.2381,62,1.0
61.625,61.625,88.0357,22,2.5,Violin 2,0.1667,0.2381,67,0.7087
61.625,61.625,88.0357,22,2.5,Violin 2,0.1667,0.2381,58,0.7087
61.625,61.625,88.0357,22,2.5,Oboe 1,0.5,0.7143,74,0.4961
61.625,61.625,88.0357,22,2.5,Viola,0.1667,0.2381,62,1.0
61.625,61.625,88.0357,22,2.5,Bassoon 1,0.5,0.7143,62,0.4961
61.625,61.625,88.0357,22,2.5,Violin 1,0.125,0.1786,67,1.0
61.75,61.75,88.2143,22,2.625,Violin 1,0.0625,0.0893,69,1.0
61.7917,61.7917,88.2739,22,2.6667,Violin 2,0.1667,0.2381,67,0.7087
61.7917,61.7917,88.2739,22,2.6667,Viola,0.1667,0.2381,62,1.0
61.7917,61.7917,88.2739,22,2.6667,Violin 2,0.1667,0.2381,58,0.7087
61.8125,61.8125,88.3036,22,2.6875,Violin 1,0.0625,0.0893,70,1.0
61.875,61.875,88.3929,22,2.75,Violin 1,0.0625,0.0893,72,1.0
61.9375,61.9375,88.4821,22,2.8125,Violin 1,0.0625,0.0893,74,1.0
61.9583,61.9583,88.5119,22,2.8333,Viola,0.1667,0.2381,62,1.0
61.9583,61.9583,88.5119,22,2.8333,Violin 2,0.1667,0.2381,67,0.7087
61.9583,61.9583,88.5119,22,2.8333,Violin 2,0.1667,0.2381,58,0.7087
62.0,62.0,88.5714,22,2.875,Violin 1,0.0625,0.0893,76,1.0
62.0625,62.0625,88.6607,22,2.9375,Violin 1,0.0625,0.0893,78,1.0
62.125,62.125,88.75,22,3.0,Violin 2,0.1667,0.2381,67,0.7087
62.125,62.125,88.75,22,3.0,Violin 2,0.1667,0.2381,58,0.7087
62.125,62.125,88.75,22,3.0,Viola,0.1667,0.2381,63,1.0
62.125,62.125,88.75,22,3.0,Violin 1,0.5,0.7143,79,1.0
62.125,62.125,88.75,22,3.0,Bassoon 1,0.5,0.7143,63,0.4961
62.125,62.125,88.75,22,3.0,Oboe 1,0.5,0.7143,75,0.4961
62.2917,62.2917,88.9881,22,3.1667,Violin 2,0.1667,0.2381,58,0.7087
62.2917,62.2917,88.9881,22,3.1667,Violin 2,0.1667,0.2381,67,0.7087
62.2917,62.2917,88.9881,22,3.1667,Viola,0.1667,0.2381,63,1.0
62.4583,62.4583,89.2261,22,3.3333,Viola,0.1667,0.2381,63,1.0
62.4583,62.4583,89.2261,22,3.3333,Violin 2,0.1667,0.2381,58,0.7087
62.4583,62.4583,89.2261,22,3.3333,Violin 2,0.1667,0.2381,67,0.7087
62.625,62.625,89.4643,22,3.5,Viola,0.1667,0.2381,62,1.0
62.625,62.625,89.4643,22,3.5,Bassoon 1,0.5,0.7143,62,0.4961
62.625,62.625,89.4643,22,3.5,Oboe 1,0.5,0.7143,74,0.4961
62.625,62.625,89.4643,22,3.5,Violin 2,0.1667,0.2381,58,0.7087
62.625,62.625,89.4643,22,3.5,Violin 2,0.1667,0.2381,67,0.7087
62.7917,62.7917,89.7024,22,3.6667,Violin 2,0.1667,0.2381,58,0.7087
62.7917,62.7917,89.7024,22,3.6667,Violin 2,0.1667,0.2381,67,0.7087
62.7917,62.7917,89.7024,22,3.6667,Viola,0.1667,0.2381,62,1.0
62.9583,62.9583,89.9404,22,3.8333,Violin 2,0.1667,0.2381,58,0.7087
62.9583,62.9583,89.9404,22,3.8333,Violin 2,0.1667,0.2381,67,0.7087
62.9583,62.9583,89.9404,22,3.8333,Viola,0.1667,0.2381,62,1.0
63.125,63.125,90.1786,23,1.0,Viola,0.1667,0.2381,61,1.0
63.125,63.125,90.1786,23,1.0,Oboe 1,1.0,1.4286,73,0.4961
63.125,63.125,90.1786,23,1.0,Violin 2,0.1667,0.2381,58,0.7087
63.125,63.125,90.1786,23,1.0,Bassoon 1,1.0,1.4286,61,0.4961
63.125,63.125,90.1786,23,1.0,Contrabass,0.5,0.7143,33,1.0
63.125,63.125,90.1786,23,1.0,Violoncello,0.5,0.7143,45,1.0
63.125,63.125,90.1786,23,1.0,Violin 2,0.1667,0.2381,67,0.7087
63.2917,63.2917,90.4167,23,1.1667,Viola,0.1667,0.2381,64,0.7087
63.2917,63.2917,90.4167,23,1.1667,Viola,0.1667,0.2381,61,0.7087
63.2917,63.2917,90.4167,23,1.1667,Violin 2,0.1667,0.2381,57,0.7087
63.2917,63.2917,90.4167,23,1.1667,Violin 2,0.1667,0.2381,67,0.7087
63.4583,63.4583,90.6547,23,1.3333,Viola,0.1667,0.2381,64,0.7087
63.4583,63.4583,90.6547,23,1.3333,Violin 2,0.1667,0.2381,57,0.7087
63.4583,63.4583,90.6547,23,1.3333,Violin 2,0.1667,0.2381,67,0.7087
63.4583,63.4583,90.6547,23,1.3333,Viola,0.1667,0.2381,61,0.7087
63.625,63.625,90.8929,23,1.5,Violoncello,0.125,0.1786,45,1.0
63.625,63.625,90.8929,23,1.5,D Horn 1,1.0,1.4286,69,1.0
63.625,63.625,90.8929,23,1.5,Violin 2,0.1667,0.2381,57,0.7087
63.625,63.625,90.8929,23,1.5,Contrabass,0.125,0.1786,33,1.0
63.625,63.625,90.8929,23,1.5,Viola,0.1667,0.2381,61,0.7087
63.625,63.625,90.8929,23,1.5,Viola,0.1667,0.2381,64,0.7087
63.625,63.625,90.8929,23,1.5,D Horn 2,1.0,1.4286,67,1.0
63.625,63.625,90.8929,23,1.5,Violin 2,0.1667,0.2381,67,0.7087
63.75,63.75,91.0714,23,1.625,Violoncello,0.0625,0.0893,47,1.0
63.75,63.75,91.0714,23,1.625,Contrabass,0.0625,0.0893,35,1.0
63.7917,63.7917,91.131,23,1.6667,Viola,0.1667,0.2381,61,0.7087
63.7917,63.7917,91.131,23,1.6667,Viola,0.1667,0.2381,64,0.7087
63.7917,63.7917,91.131,23,1.6667,Violin 2,0.1667,0.2381,67,0.7087
63.7917,63.7917,91.131,23,1.6667,Violin 2,0.1667,0.2381,57,0.7087
63.8125,63.8125,91.1607,23,1.6875,Contrabass,0.0625,0.0893,37,1.0
63.8125,63.8125,91.1607,23,1.6875,Violoncello,0.0625,0.0893,49,1.0
63.875,63.875,91.25,23,1.75,Violoncello,0.0625,0.0893,50,1.0
63.875,63.875,91.25,23,1.75,Contrabass,0.0625,0.0893,38,1.0
63.9375,63.9375,91.3393,23,1.8125,Contrabass,0.0625,0.0893,40,1.0
63.9375,63.9375,91.3393,23,1.8125,Violoncello,0.0625,0.0893,52,1.0
63.9583,63.9583,91.369,23,1.8333,Viola,0.1667,0.2381,61,0.7087
63.9583,63.9583,91.369,23,1.8333,Violin 2,0.1667,0.2381,67,0.7087
63.9583,63.9583,91.369,23,1.8333,Violin 2,0.1667,0.2381,57,0.7087
63.9583,63.9583,91.369,23,1.8333,Viola,0.1667,0.2381,64,0.7087
64.0,64.0,91.4286,23,1.875,Contrabass,0.0625,0.0893,41,1.0
64.0,64.0,91.4286,23,1.875,Violoncello,0.0625,0.0893,53,1.0
64.0625,64.0625,91.5179,23,1.9375,Violoncello,0.0625,0.0893,55,1.0
64.0625,64.0625,91.5179,23,1.9375,Contrabass,0.0625,0.0893,43,1.0
64.125,64.125,91.6071,23,2.0,Violoncello,0.5,0.7143,57,1.0
64.125,64.125,91.6071,23,2.0,Contrabass,0.5,0.7143,45,1.0
64.125,64.125,91.6071,23,2.0,Violin 1,0.5,0.7143,61,1.0
64.125,64.125,91.6071,23,2.0,Violin 2,0.1667,0.2381,67,0.7087
64.125,64.125,91.6071,23,2.0,Violin 2,0.1667,0.2381,57,0.7087
64.125,64.125,91.6071,23,2.0,Viola,0.1667,0.2381,64,0.7087
64.125,64.125,91.6071,23,2.0,Viola,0.1667,0.2381,61,0.7087
64.2917,64.2917,91.8453,23,2.1667,Violin 2,0.1667,0.2381,67,0.7087
64.2917,64.2917,91.8453,23,2.1667,Violin 2,0.1667,0.2381,57,0.7087
64.2917,64.2917,91.8453,23,2.1667,Viola,0.1667,0.2381,64,0.7087
64.2917,64.2917,91.8453,23,2.1667,Viola,0.1667,0.2381,61,0.7087
64.4583,64.4583,92.0833,23,2.3333,Violin 2,0.1667,0.2381,67,0.7087
64.4583,64.4583,92.0833,23,2.3333,Violin 2,0.1667,0.2381,57,0.7087
64.4583,64.4583,92.0833,23,2.3333,Viola,0.1667,0.2381,64,0.7087
64.4583,64.4583,92.0833,23,2.3333,Viola,0.1667,0.2381,61,0.7087
64.625,64.625,92.3214,23,2.5,Oboe 1,0.5,0.7143,76,0.4961
64.625,64.625,92.3214,23,2.5,Violin 1,0.125,0.1786,61,1.0
64.625,64.625,92.3214,23,2.5,Viola,0.1667,0.2381,64,0.7087
64.625,64.625,92.3214,23,2.5,Flute 1,0.5,0.7143,88,0.4961
64.625,64.625,92.3214,23,2.5,Bassoon 1,0.5,0.7143,64,0.4961
64.625,64.625,92.3214,23,2.5,Violin 2,0.1667,0.2381,67,0.7087
64.625,64.625,92.3214,23,2.5,Violin 2,0.1667,0.2381,57,0.7087
64.625,64.625,92.3214,23,2.5,Viola,0.1667,0.2381,61,0.7087
64.75,64.75,92.5,23,2.625,Violin 1,0.0625,0.0893,62,1.0
64.7917,64.7917,92.5596,23,2.6667,Viola,0.1667,0.2381,61,0.7087
64.7917,64.7917,92.5596,23,2.6667,Violin 2,0.1667,0.2381,67,0.7087
64.7917,64.7917,92.5596,23,2.6667,Violin 2,0.1667,0.2381,57,0.7087
64.7917,64.7917,92.5596,23,2.6667,Viola,0.1667,0.2381,64,0.7087
64.8125,64.8125,92.5893,23,2.6875,Violin 1,0.0625,0.0893,64,1.0
64.875,64.875,92.6786,23,2.75,Violin 1,0.0625,0.0893,65,1.0
64.9375,64.9375,92.7679,23,2.8125,Violin 1,0.0625,0.0893,67,1.0
64.9583,64.9583,92.7976,23,2.8333,Viola,0.1667,0.2381,64,0.7087
64.9583,64.9583,92.7976,23,2.8333,Violin 2,0.1667,0.2381,67,0.7087
64.9583,64.9583,92.7976,23,2.8333,Viola,0.1667,0.2381,61,0.7087
64.9583,64.9583,92.7976,23,2.8333,Violin 2,0.1667,0.2381,57,0.7087
65.0,65.0,92.8571,23,2.875,Violin 1,0.0625,0.0893,69,1.0
65.0625,65.0625,92.9464,23,2.9375,Violin 1,0.0625,0.0893,71,1.0
65.125,65.125,93.0357,23,3.0,Violin 1,0.5,0.7143,73,1.0
65.125,65.125,93.0357,23,3.0,Bassoon 1,0.5,0.7143,65,0.4961
65.125,65.125,93.0357,23,3.0,Violin 2,0.1667,0.2381,57,0.7087
65.125,65.125,93.0357,23,3.0,Flute 1,0.5,0.7143,89,0.4961
65.125,65.125,93.0357,23,3.0,Oboe 1,0.5,0.7143,77,0.4961
65.125,65.125,93.0357,23,3.0,Violin 2,0.1667,0.2381,67,0.7087
65.125,65.125,93.0357,23,3.0,Viola,0.1667,0.2381,61,0.7087
65.125,65.125,93.0357,23,3.0,Viola,0.1667,0.2381,64,0.7087
65.2917,65.2917,93.2739,23,3.1667,Viola,0.1667,0.2381,64,0.7087
65.2917,65.2917,93.2739,23,3.1667,Viola,0.1667,0.2381,61,0.7087
65.2917,65.2917,93.2739,23,3.1667,Violin 2,0.1667,0.2381,57,0.7087
65.2917,65.2917,93.2739,23,3.1667,Violin 2,0.1667,0.2381,67,0.7087
65.4583,65.4583,93.5119,23,3.3333,Viola,0.1667,0.2381,61,0.7087
65.4583,65.4583,93.5119,23,3.3333,Viola,0.1667,0.2381,64,0.7087
65.4583,65.4583,93.5119,23,3.3333,Violin 2,0.1667,0.2381,57,0.7087
65.4583,65.4583,93.5119,23,3.3333,Violin 2,0.1667,0.2381,67,0.7087
65.625,65.625,93.75,23,3.5,Bassoon 1,0.5,0.7143,64,0.4961
65.625,65.625,93.75,23,3.5,Oboe 1,0.5,0.7143,76,0.4961
65.625,65.625,93.75,23,3.5,Viola,0.1667,0.2381,61,0.7087
65.625,65.625,93.75,23,3.5,Violin 2,0.1667,0.2381,57,0.7087
65.625,65.625,93.75,23,3.5,Viola,0.1667,0.2381,64,0.7087
65.625,65.625,93.75,23,3.5,Violin 2,0.1667,0.2381,67,0.7087
65.625,65.625,93.75,23,3.5,Flute 1,0.5,0.7143,88,0.4961
65.625,65.625,93.75,23,3.5,Violin 1,0.0625,0.0893,73,1.0
65.6875,65.6875,93.8393,23,3.5625,Violin 1,0.0625,0.0893,74,1.0
65.75,65.75,93.9286,23,3.625,Violin 1,0.0625,0.0893,76,1.0
65.7917,65.7917,93.9881,23,3.6667,Viola,0.1667,0.2381,64,0.7087
65.7917,65.7917,93.9881,23,3.6667,Viola,0.1667,0.2381,61,0.7087
65.7917,65.7917,93.9881,23,3.6667,Violin 2,0.1667,0.2381,67,0.7087
65.7917,65.7917,93.9881,23,3.6667,Violin 2,0.1667,0.2381,57,0.7087
65.8125,65.8125,94.0179,23,3.6875,Violin 1,0.0625,0.0893,77,1.0
65.875,65.875,94.1071,23,3.75,Violin 1,0.0625,0.0893,79,1.0
65.9375,65.9375,94.1964,23,3.8125,Violin 1,0.0625,0.0893,81,1.0
65.9583,65.9583,94.2261,23,3.8333,Viola,0.1667,0.2381,61,0.7087
65.9583,65.9583,94.2261,23,3.8333,Violin 2,0.1667,0.2381,67,0.7087
65.9583,65.9583,94.2261,23,3.8333,Viola,0.1667,0.2381,64,0.7087
65.9583,65.9583,94.2261,23,3.8333,Violin 2,0.1667,0.2381,57,0.7087
66.0,66.0,94.2857,23,3.875,D Horn 1,0.125,0.1786,69,1.0
66.0,66.0,94.2857,23,3.875,Contrabass,0.125,0.1786,45,1.0
66.0,66.0,94.2857,23,3.875,D Trumpet 2,0.125,0.1786,57,1.0
66.0,66.0,94.2857,23,3.875,A Clarinet 2,0.125,0.1786,69,1.0
66.0,66.0,94.2857,23,3.875,Violin 1,0.0625,0.0893,83,1.0
66.0,66.0,94.2857,23,3.875,D Horn 2,0.125,0.1786,57,1.0
66.0,66.0,94.2857,23,3.875,Timpani,0.125,0.1786,45,1.0
66.0,66.0,94.2857,23,3.875,A Clarinet 1,0.125,0.1786,69,1.0
66.0,66.0,94.2857,23,3.875,Bassoon 2,0.125,0.1786,57,1.0
66.0,66.0,94.2857,23,3.875,D Trumpet 1,0.125,0.1786,69,1.0
66.0,66.0,94.2857,23,3.875,Violoncello,0.125,0.1786,57,1.0
66.0625,66.0625,94.375,23,3.9375,Violin 1,0.0625,0.0893,85,1.0
66.125,66.125,94.4643,24,1.0,Viola,0.875,1.25,62,0.7087
66.125,66.125,94.4643,24,1.0,A Clarinet 1,0.875,1.25,74,1.0
66.125,66.125,94.4643,24,1.0,D Trumpet 1,0.875,1.25,74,1.0
66.125,66.125,94.4643,24,1.0,Violin 2,0.875,1.25,57,0.7087
66.125,66.125,94.4643,24,1.0,Violin 2,0.875,1.25,65,0.7087
66.125,66.125,94.4643,24,1.0,Bassoon 2,0.875,1.25,62,1.0
66.125,66.125,94.4643,24,1.0,D Horn 1,0.875,1.25,62,1.0
66.125,66.125,94.4643,24,1.0,Contrabass,0.875,1.25,50,1.0
66.125,66.125,94.4643,24,1.0,A Clarinet 2,0.875,1.25,74,1.0
66.125,66.125,94.4643,24,1.0,Bassoon 1,0.875,1.25,62,1.0
66.125,66.125,94.4643,24,1.0,Violoncello,0.875,1.25,62,1.0
66.125,66.125,94.4643,24,1.0,Oboe 1,0.875,1.25,74,1.0
66.125,66.125,94.4643,24,1.0,Flute 2,0.875,1.25,86,1.0
66.125,66.125,94.4643,24,1.0,Violin 1,0.875,1.25,86,1.0
66.125,66.125,94.4643,24,1.0,Flute 1,0.875,1.25,86,1.0
66.125,66.125,94.4643,24,1.0,Oboe 2,0.875,1.25,74,1.0
66.125,66.125,94.4643,24,1.0,D Horn 2,0.875,1.25,62,1.0
66.125,66.125,94.4643,24,1.0,Timpani,0.875,1.25,50,1.0
66.125,66.125,94.4643,24,1.0,D Trumpet 2,0.875,1.25,62,1.0
66.125,66.125,94.4643,24,1.0,Viola,0.875,1.25,65,0.7087
67.0,67.0,95.7143,24,1.875,Timpani,0.125,0.1786,50,1.0
67.0,67.0,95.7143,24,1.875,A Clarinet 2,0.125,0.1786,74,1.0
67.0,67.0,95.7143,24,1.875,Bassoon 1,0.125,0.1786,62,1.0
67.0,67.0,95.7143,24,1.875,Violoncello,0.125,0.1786,62,1.0
67.0,67.0,95.7143,24,1.875,D Horn 1,0.125,0.1786,62,1.0
67.0,67.0,95.7143,24,1.875,Flute 2,0.125,0.1786,86,1.0
67.0,67.0,95.7143,24,1.875,Violin 1,0.125,0.1786,86,1.0
67.0,67.0,95.7143,24,1.875,Oboe 1,0.125,0.1786,74,1.0
67.0,67.0,95.7143,24,1.875,Contrabass,0.125,0.1786,50,1.0
67.0,67.0,95.7143,24,1.875,Flute 1,0.125,0.1786,86,1.0
67.0,67.0,95.7143,24,1.875,Oboe 2,0.125,0.1786,74,1.0
67.0,67.0,95.7143,24,1.875,Viola,0.125,0.1786,74,1.0
67.0,67.0,95.7143,24,1.875,A Clarinet 1,0.125,0.1786,74,1.0
67.0,67.0,95.7143,24,1.875,Bassoon 2,0.125,0.1786,62,1.0
67.0,67.0,95.7143,24,1.875,D Trumpet 1,0.125,0.1786,74,1.0
67.0,67.0,95.7143,24,1.875,D Horn 2,0.125,0.1786,62,1.0
67.0,67.0,95.7143,24,1.875,D Trumpet 2,0.125,0.1786,62,1.0
67.0,67.0,95.7143,24,1.875,Violin 2,0.125,0.1786,74,1.0
67.125,67.125,95.8929,24,2.0,Bassoon 2,0.875,1.25,57,1.0
67.125,67.125,95.8929,24,2.0,A Clarinet 2,0.875,1.25,69,1.0
67.125,67.125,95.8929,24,2.0,Timpani,0.875,1.25,45,1.0
67.125,67.125,95.8929,24,2.0,D Horn 1,0.875,1.25,69,1.0
67.125,67.125,95.8929,24,2.0,Bassoon 1,0.875,1.25,57,1.0
67.125,67.125,95.8929,24,2.0,D Trumpet 1,0.875,1.25,69,1.0
67.125,67.125,95.8929,24,2.0,Violoncello,0.875,1.25,57,1.0
67.125,67.125,95.8929,24,2.0,Flute 2,0.875,1.25,81,1.0
67.125,67.125,95.8929,24,2.0,A Clarinet 1,0.875,1.25,81,1.0
67.125,67.125,95.8929,24,2.0,Violin 1,0.875,1.25,81,1.0
67.125,67.125,95.8929,24,2.0,D Horn 2,0.875,1.25,57,1.0
67.125,67.125,95.8929,24,2.0,Viola,0.875,1.25,69,1.0
67.125,67.125,95.8929,24,2.0,Oboe 1,0.875,1.25,81,1.0
67.125,67.125,95.8929,24,2.0,Flute 1,0.875,1.25,81,1.0
67.125,67.125,95.8929,24,2.0,Violin 2,0.875,1.25,69,1.0
67.125,67.125,95.8929,24,2.0,Oboe 2,0.875,1.25,69,1.0
67.125,67.125,95.8929,24,2.0,D Trumpet 2,0.875,1.25,57,1.0
67.125,67.125,95.8929,24,2.0,Contrabass,0.875,1.25,45,1.0
68.0,68.0,97.1429,24,2.875,Oboe 1,0.125,0.1786,81,1.0
68.0,68.0,97.1429,24,2.875,Violin 2,0.125,0.1786,69,1.0
68.0,68.0,97.1429,24,2.875,Violin 1,0.125,0.1786,81,1.0
68.0,68.0,97.1429,24,2.875,A Clarinet 2,0.125,0.1786,69,1.0
68.0,68.0,97.1429,24,2.875,Bassoon 1,0.125,0.1786,57,1.0
68.0,68.0,97.1429,24,2.875,Flute 2,0.125,0.1786,81,1.0
68.0,68.0,97.1429,24,2.875,Viola,0.125,0.1786,69,1.0
68.0,68.0,97.1429,24,2.875,Violoncello,0.125,0.1786,57,1.0
68.0,68.0,97.1429,24,2.875,Flute 1,0.125,0.1786,81,1.0
68.0,68.0,97.1429,24,2.875,Oboe 2,0.125,0.1786,69,1.0
68.0,68.0,97.1429,24,2.875,Bassoon 2,0.125,0.1786,57,1.0
68.0,68.0,97.1429,24,2.875,D Trumpet 2,0.125,0.1786,57,1.0
68.0,68.0,97.1429,24,2.875,D Trumpet 1,0.125,0.1786,69,1.0
68.0,68.0,97.1429,24,2.875,Contrabass,0.125,0.1786,45,1.0
68.0,68.0,97.1429,24,2.875,A Clarinet 1,0.125,0.1786,81,1.0
68.0,68.0,97.1429,24,2.875,D Horn 1,0.125,0.1786,69,1.0
68.0,68.0,97.1429,24,2.875,D Horn 2,0.125,0.1786,57,1.0
68.0,68.0,97.1429,24,2.875,Timpani,0.125,0.1786,45,1.0
68.125,68.125,97.3214,24,3.0,Contrabass,0.5,0.7143,41,1.0
68.125,68.125,97.3214,24,3.0,Oboe 1,0.5,0.7143,77,1.0
68.125,68.125,97.3214,24,3.0,Oboe 2,0.5,0.7143,65,1.0
68.125,68.125,97.3214,24,3.0,Bassoon 2,0.5,0.7143,53,1.0
68.125,68.125,97.3214,24,3.0,D Horn 2,0.5,0.7143,57,1.0
68.125,68.125,97.3214,24,3.0,D Trumpet 2,0.5,0.7143,57,1.0
68.125,68.125,97.3214,24,3.0,D Trumpet 1,0.5,0.7143,69,1.0
68.125,68.125,97.3214,24,3.0,A Clarinet 1,0.5,0.7143,77,1.0
68.125,68.125,97.3214,24,3.0,Flute 1,0.5,0.7143,77,1.0
68.125,68.125,97.3214,24,3.0,Violoncello,0.5,0.7143,53,1.0
68.125,68.125,97.3214,24,3.0,Violin 1,0.5,0.7143,77,1.0
68.125,68.125,97.3214,24,3.0,Viola,0.5,0.7143,65,1.0
68.125,68.125,97.3214,24,3.0,Flute 2,0.5,0.7143,77,1.0
68.125,68.125,97.3214,24,3.0,Violin 2,0.5,0.7143,65,1.0
68.125,68.125,97.3214,24,3.0,Timpani,0.5,0.7143,45,1.0
68.125,68.125,97.3214,24,3.0,D Horn 1,0.5,0.7143,69,1.0
68.125,68.125,97.3214,24,3.0,Bassoon 1,0.5,0.7143,53,1.0
68.125,68.125,97.3214,24,3.0,A Clarinet 2,0.5,0.7143,65,1.0
68.625,68.625,98.0357,24,3.5,A Clarinet 1,0.5,0.7143,74,1.0
68.625,68.625,98.0357,24,3.5,D Trumpet 2,0.5,0.7143,57,1.0
68.625,68.625,98.0357,24,3.5,Bassoon 1,0.5,0.7143,50,1.0
68.625,68.625,98.0357,24,3.5,A Clarinet 2,0.5,0.7143,62,1.0
68.625,68.625,98.0357,24,3.5,Bassoon 2,0.5,0.7143,50,1.0
68.625,68.625,98.0357,24,3.5,Oboe 2,0.5,0.7143,62,1.0
68.625,68.625,98.0357,24,3.5,Timpani,0.5,0.7143,45,1.0
68.625,68.625,98.0357,24,3.5,Flute 1,0.5,0.7143,74,1.0
68.625,68.625,98.0357,24,3.5,D Trumpet 1,0.5,0.7143,69,1.0
68.625,68.625,98.0357,24,3.5,Oboe 1,0.5,0.7143,74,1.0
68.625,68.625,98.0357,24,3.5,Viola,0.5,0.7143,62,1.0
68.625,68.625,98.0357,24,3.5,Contrabass,0.5,0.7143,38,1.0
68.625,68.625,98.0357,24,3.5,Violoncello,0.5,0.7143,50,1.0
68.625,68.625,98.0357,24,3.5,D Horn 1,0.5,0.7143,69,1.0
68.625,68.625,98.0357,24,3.5,Violin 1,0.5,0.7143,74,1.0
68.625,68.625,98.0357,24,3.5,Flute 2,0.5,0.7143,74,1.0
68.625,68.625,98.0357,24,3.5,Violin 2,0.5,0.7143,62,1.0
68.625,68.625,98.0357,24,3.5,D Horn 2,0.5,0.7143,57,1.0
69.125,69.125,98.75,25,1.0,Contrabass,3.0,4.2857,33,1.0
69.125,69.125,98.75,25,1.0,Oboe 1,0.5,0.7143,69,1.0
69.125,69.125,98.75,25,1.0,A Clarinet 2,0.5,0.7143,57,1.0
69.125,69.125,98.75,25,1.0,Bassoon 2,0.5,0.7143,45,1.0
69.125,69.125,98.75,25,1.0,D Trumpet 2,0.5,0.7143,57,1.0
69.125,69.125,98.75,25,1.0,Violin 2,0.5,0.7143,57,1.0
69.125,69.125,98.75,25,1.0,D Horn 2,3.0,4.2857,45,1.0
69.125,69.125,98.75,25,1.0,Flute 2,0.5,0.7143,69,1.0
69.125,69.125,98.75,25,1.0,Oboe 2,0.5,0.7143,69,1.0
69.125,69.125,98.75,25,1.0,Timpani,0.5,0.7143,45,1.0
69.125,69.125,98.75,25,1.0,Violin 1,0.5,0.7143,69,1.0
69.125,69.125,98.75,25,1.0,D Trumpet 1,0.5,0.7143,69,1.0
69.125,69.125,98.75,25,1.0,Viola,0.5,0.7143,57,1.0
69.125,69.125,98.75,25,1.0,A Clarinet 1,0.5,0.7143,69,1.0
69.125,69.125,98.75,25,1.0,Violoncello,0.5,0.7143,45,1.0
69.125,69.125,98.75,25,1.0,D Horn 1,3.0,4.2857,57,1.0
69.125,69.125,98.75,25,1.0,Bassoon 1,0.5,0.7143,45,1.0
69.125,69.125,98.75,25,1.0,Flute 1,0.5,0.7143,69,1.0
70.125,70.125,100.1786,25,2.0,Viola,1.0,1.4286,57,0.4961
70.125,70.125,100.1786,25,2.0,Violoncello,1.0,1.4286,57,0.4961
71.125,71.125,101.6071,25,3.0,Violoncello,1.0,1.4286,60,0.4961
71.125,71.125,101.6071,25,3.0,Viola,1.0,1.4286,60,0.4961
72.125,72.125,103.0357,26,1.0,D Horn 1,3.0,4.2857,57,1.0
72.125,72.125,103.0357,26,1.0,D Horn 2,3.0,4.2857,45,1.0
72.125,72.125,103.0357,26,1.0,Viola,1.0,1.4286,51,0.4961
72.125,72.125,103.0357,26,1.0,Violoncello,1.0,1.4286,51,0.4961
72.125,72.125,103.0357,26,1.0,Contrabass,3.0,4.2857,33,1.0
72.2917,72.2917,103.2739,26,1.1667,Violin 2,0.1667,0.2381,69,0.5461
72.2917,72.2917,103.2739,26,1.1667,Violin 1,0.1667,0.2381,81,0.5461
72.4583,72.4583,103.5119,26,1.3333,Violin 2,0.1667,0.2381,71,0.5461
72.4583,72.4583,103.5119,26,1.3333,Violin 1,0.1667,0.2381,83,0.5461
72.625,72.625,103.75,26,1.5,Violin 2,0.1667,0.2381,72,0.5461
72.625,72.625,103.75,26,1.5,Violin 1,0.1667,0.2381,84,0.5461
72.7917,72.7917,103.9881,26,1.6667,Violin 1,0.1667,0.2381,83,0.5461
72.7917,72.7917,103.9881,26,1.6667,Violin 2,0.1667,0.2381,71,0.5461
72.9583,72.9583,104.2261,26,1.8333,Violin 1,0.1667,0.2381,81,0.5461
72.9583,72.9583,104.2261,26,1.8333,Violin 2,0.1667,0.2381,69,0.5461
73.125,73.125,104.4643,26,2.0,Viola,0.75,1.0714,52,0.4961
73.125,73.125,104.4643,26,2.0,Violin 1,0.1667,0.2381,79,0.5461
73.125,73.125,104.4643,26,2.0,Violoncello,0.75,1.0714,52,0.4961
73.125,73.125,104.4643,26,2.0,Violin 2,0.1667,0.2381,67,0.5461
73.2917,73.2917,104.7024,26,2.1667,Violin 2,0.1667,0.2381,71,0.5461
73.2917,73.2917,104.7024,26,2.1667,Violin 1,0.1667,0.2381,83,0.5461
73.4583,73.4583,104.9404,26,2.3333,Violin 1,0.1667,0.2381,81,0.5461
73.4583,73.4583,104.9404,26,2.3333,Violin 2,0.1667,0.2381,69,0.5461
73.625,73.625,105.1786,26,2.5,Violin 2,0.1667,0.2381,67,0.5461
73.625,73.625,105.1786,26,2.5,Violin 1,0.1667,0.2381,79,0.5461
73.7917,73.7917,105.4167,26,2.6667,Violin 1,0.1667,0.2381,81,0.5461
73.7917,73.7917,105.4167,26,2.6667,Violin 2,0.1667,0.2381,69,0.5461
73.875,73.875,105.5357,26,2.75,Viola,0.25,0.3571,54,0.4961
73.875,73.875,105.5357,26,2.75,Violoncello,0.25,0.3571,54,0.4961
73.9583,73.9583,105.6547,26,2.8333,Violin 2,0.1667,0.2381,66,0.5461
73.9583,73.9583,105.6547,26,2.8333,Violin 1,0.1667,0.2381,78,0.5461
74.125,74.125,105.8929,26,3.0,Violin 1,0.1667,0.2381,76,0.5461
74.125,74.125,105.8929,26,3.0,Viola,0.25,0.3571,55,0.5461
74.125,74.125,105.8929,26,3.0,Violoncello,0.25,0.3571,55,0.5461
74.125,74.125,105.8929,26,3.0,Violin 2,0.1667,0.2381,64,0.5461
74.2917,74.2917,106.131,26,3.1667,Violin 2,0.1667,0.2381,66,0.5461
74.2917,74.2917,106.131,26,3.1667,Violin 1,0.1667,0.2381,78,0.5461
74.375,74.375,106.25,26,3.25,Violoncello,0.25,0.3571,55,0.5461
74.375,74.375,106.25,26,3.25,Viola,0.25,0.3571,55,0.5461
74.4583,74.4583,106.369,26,3.3333,Violin 2,0.1667,0.2381,63,0.5461
74.4583,74.4583,106.369,26,3.3333,Violin 1,0.1667,0.2381,75,0.5461
74.625,74.625,106.6071,26,3.5,Violin 1,0.1667,0.2381,76,0.5461
74.625,74.625,106.6071,26,3.5,Violin 2,0.1667,0.2381,64,0.5461
74.625,74.625,106.6071,26,3.5,Violoncello,0.25,0.3571,57,0.5461
74.625,74.625,106.6071,26,3.5,Viola,0.25,0.3571,57,0.5461
74.7917,74.7917,106.8453,26,3.6667,Violin 2,0.1667,0.2381,66,0.5461
74.7917,74.7917,106.8453,26,3.6667,Violin 1,0.1667,0.2381,78,0.5461
74.875,74.875,106.9643,26,3.75,Viola,0.25,0.3571,58,0.5461
74.875,74.875,106.9643,26,3.75,Violoncello,0.25,0.3571,58,0.5461
74.9583,74.9583,107.0833,26,3.8333,Violin 1,0.1667,0.2381,79,0.5461
74.9583,74.9583,107.0833,26,3.8333,Violin 2,0.1667,0.2381,67,0.5461
75.125,75.125,107.3214,27,1.0,Viola,1.0,1.4286,49,0.4961
75.125,75.125,107.3214,27,1.0,Violoncello,1.0,1.4286,49,0.4961
75.125,75.125,107.3214,27,1.0,D Horn 2,1.0,1.4286,45,1.0
75.125,75.125,107.3214,27,1.0,Contrabass,1.0,1.4286,33,1.0
75.125,75.125,107.3214,27,1.0,D Horn 1,1.0,1.4286,57,1.0
75.2917,75.2917,107.5596,27,1.1667,Violin 2,0.1667,0.2381,67,0.5461
75.2917,75.2917,107.5596,27,1.1667,Violin 1,0.1667,0.2381,79,0.5461
75.4583,75.4583,107.7976,27,1.3333,Violin 1,0.1667,0.2381,81,0.5461
75.4583,75.4583,107.7976,27,1.3333,Violin 2,0.1667,0.2381,69,0.5461
75.625,75.625,108.0357,27,1.5,Violin 2,0.1667,0.2381,70,0.5461
75.625,75.625,108.0357,27,1.5,Violin 1,0.1667,0.2381,82,0.5461
75.7917,75.7917,108.2739,27,1.6667,Violin 2,0.1667,0.2381,69,0.5461
75.7917,75.7917,108.2739,27,1.6667,Violin 1,0.1667,0.2381,81,0.5461
75.9583,75.9583,108.5119,27,1.8333,Violin 2,0.1667,0.2381,67,0.5461
75.9583,75.9583,108.5119,27,1.8333,Violin 1,0.1667,0.2381,79,0.5461
76.125,76.125,108.75,27,2.0,D Horn 1,0.5,0.7143,57,1.0
76.125,76.125,108.75,27,2.0,Violin 1,0.5,0.7143,78,0.4961
76.125,76.125,108.75,27,2.0,Contrabass,0.5,0.7143,33,1.0
76.125,76.125,108.75,27,2.0,Violin 2,0.5,0.7143,66,0.4961
76.125,76.125,108.75,27,2.0,D Horn 2,0.5,0.7143,45,1.0
76.125,76.125,108.75,27,2.0,Violoncello,0.1667,0.2381,50,0.5461
76.125,76.125,108.75,27,2.0,Viola,0.1667,0.2381,50,0.5461
76.2917,76.2917,108.9881,27,2.1667,Violoncello,0.1667,0.2381,50,0.5461
76.2917,76.2917,108.9881,27,2.1667,Viola,0.1667,0.2381,50,0.5461
76.4583,76.4583,109.2261,27,2.3333,Violoncello,0.1667,0.2381,52,0.5461
76.4583,76.4583,109.2261,27,2.3333,Viola,0.1667,0.2381,52,0.5461
76.625,76.625,109.4643,27,2.5,Viola,0.1667,0.2381,54,0.5461
76.625,76.625,109.4643,27,2.5,Contrabass,0.5,0.7143,33,1.0
76.625,76.625,109.4643,27,2.5,D Horn 2,0.5,0.7143,45,1.0
76.625,76.625,109.4643,27,2.5,Violin 2,1.0,1.4286,69,0.4961
76.625,76.625,109.4643,27,2.5,Violin 1,1.0,1.4286,81,0.4961
76.625,76.625,109.4643,27,2.5,Violoncello,0.1667,0.2381,54,0.5461
76.625,76.625,109.4643,27,2.5,D Horn 1,0.5,0.7143,57,1.0
76.7917,76.7917,109.7024,27,2.6667,Violoncello,0.1667,0.2381,54,0.5461
76.7917,76.7917,109.7024,27,2.6667,Viola,0.1667,0.2381,54,0.5461
76.9583,76.9583,109.9404,27,2.8333,Violoncello,0.1667,0.2381,55,0.5461
76.9583,76.9583,109.9404,27,2.8333,Viola,0.1667,0.2381,55,0.5461
77.125,77.125,110.1786,27,3.0,Contrabass,0.5,0.7143,33,1.0
77.125,77.125,110.1786,27,3.0,Violoncello,0.1667,0.2381,57,0.5461
77.125,77.125,110.1786,27,3.0,D Horn 1,0.5,0.7143,57,1.0
77.125,77.125,110.1786,27,3.0,Viola,0.1667,0.2381,57,0.5461
77.125,77.125,110.1786,27,3.0,D Horn 2,0.5,0.7143,45,1.0
77.2917,77.2917,110.4167,27,3.1667,Viola,0.1667,0.2381,54,0.5461
77.2917,77.2917,110.4167,27,3.1667,Violoncello,0.1667,0.2381,54,0.5461
77.4583,77.4583,110.6547,27,3.3333,Violoncello,0.1667,0.2381,55,0.5461
77.4583,77.4583,110.6547,27,3.3333,Viola,0.1667,0.2381,55,0.5461
77.625,77.625,110.8929,27,3.5,Violoncello,0.1667,0.2381,57,0.5461
77.625,77.625,110.8929,27,3.5,Contrabass,0.5,0.7143,33,1.0
77.625,77.625,110.8929,27,3.5,D Horn 1,0.5,0.7143,57,1.0
77.625,77.625,110.8929,27,3.5,D Horn 2,0.5,0.7143,45,1.0
77.625,77.625,110.8929,27,3.5,Violin 2,0.5,0.7143,72,0.4961
77.625,77.625,110.8929,27,3.5,Viola,0.1667,0.2381,57,0.5461
77.625,77.625,110.8929,27,3.5,Violin 1,0.5,0.7143,84,0.4961
77.7917,77.7917,111.131,27,3.6667,Violoncello,0.1667,0.2381,59,0.5461
77.7917,77.7917,111.131,27,3.6667,Viola,0.1667,0.2381,59,0.5461
77.9583,77.9583,111.369,27,3.8333,Violoncello,0.1667,0.2381,60,0.5461
77.9583,77.9583,111.369,27,3.8333,Viola,0.1667,0.2381,60,0.5461
78.125,78.125,111.6071,28,1.0,Contrabass,3.0,4.2857,33,1.0
78.125,78.125,111.6071,28,1.0,Violin 1,1.0,1.4286,75,0.4961
78.125,78.125,111.6071,28,1.0,Violin 2,1.0,1.4286,63,0.4961
78.125,78.125,111.6071,28,1.0,D Horn 2,3.0,4.2857,45,1.0
78.125,78.125,111.6071,28,1.0,D Horn 1,3.0,4.2857,57,1.0
78.2917,78.2917,111.8453,28,1.1667,Viola,0.1667,0.2381,57,0.5461
78.2917,78.2917,111.8453,28,1.1667,Violoncello,0.1667,0.2381,57,0.5461
78.4583,78.4583,112.0833,28,1.3333,Viola,0.1667,0.2381,59,0.5461
78.4583,78.4583,112.0833,28,1.3333,Violoncello,0.1667,0.2381,59,0.5461
78.625,78.625,112.3214,28,1.5,Violoncello,0.1667,0.2381,60,0.5461
78.625,78.625,112.3214,28,1.5,Bassoon 1,0.5,0.7143,63,0.4961
78.625,78.625,112.3214,28,1.5,Viola,0.1667,0.2381,60,0.5461
78.625,78.625,112.3214,28,1.5,Oboe 1,0.5,0.7143,78,0.4961
78.7917,78.7917,112.5596,28,1.6667,Viola,0.1667,0.2381,59,0.5461
78.7917,78.7917,112.5596,28,1.6667,Violoncello,0.1667,0.2381,59,0.5461
78.9583,78.9583,112.7976,28,1.8333,Viola,0.1667,0.2381,57,0.5461
78.9583,78.9583,112.7976,28,1.8333,Violoncello,0.1667,0.2381,57,0.5461
79.125,79.125,113.0357,28,2.0,Violin 2,0.75,1.0714,64,0.4961
79.125,79.125,113.0357,28,2.0,Violoncello,0.1667,0.2381,55,0.5461
79.125,79.125,113.0357,28,2.0,Bassoon 1,0.5,0.7143,64,0.4961
79.125,79.125,113.0357,28,2.0,Viola,0.1667,0.2381,55,0.5461
79.125,79.125,113.0357,28,2.0,Oboe 1,0.5,0.7143,79,0.4961
79.125,79.125,113.0357,28,2.0,Violin 1,0.75,1.0714,76,0.4961
79.2917,79.2917,113.2739,28,2.1667,Violoncello,0.1667,0.2381,59,0.5461
79.2917,79.2917,113.2739,28,2.1667,Viola,0.1667,0.2381,59,0.5461
79.4583,79.4583,113.5119,28,2.3333,Violoncello,0.1667,0.2381,57,0.5461
79.4583,79.4583,113.5119,28,2.3333,Viola,0.1667,0.2381,57,0.5461
79.625,79.625,113.75,28,2.5,Violoncello,0.1667,0.2381,55,0.5461
79.625,79.625,113.75,28,2.5,Viola,0.1667,0.2381,55,0.5461
79.7917,79.7917,113.9881,28,2.6667,Viola,0.1667,0.2381,57,0.5461
79.7917,79.7917,113.9881,28,2.6667,Violoncello,0.1667,0.2381,57,0.5461
79.875,79.875,114.1071,28,2.75,Violin 2,0.25,0.3571,66,0.5461
79.875,79.875,114.1071,28,2.75,Violin 1,0.25,0.3571,78,0.5461
79.9583,79.9583,114.2261,28,2.8333,Viola,0.1667,0.2381,54,0.5461
79.9583,79.9583,114.2261,28,2.8333,Violoncello,0.1667,0.2381,54,0.5461
80.125,80.125,114.4643,28,3.0,Violin 2,0.25,0.3571,67,0.5461
80.125,80.125,114.4643,28,3.0,Violoncello,0.1667,0.2381,52,0.5461
80.125,80.125,114.4643,28,3.0,Violin 1,0.25,0.3571,79,0.5461
80.125,80.125,114.4643,28,3.0,Viola,0.1667,0.2381,52,0.5461
80.2917,80.2917,114.7024,28,3.1667,Violoncello,0.1667,0.2381,54,0.5461
80.2917,80.2917,114.7024,28,3.1667,Viola,0.1667,0.2381,54,0.5461
80.375,80.375,114.8214,28,3.25,Violin 2,0.25,0.3571,67,0.5461
80.375,80.375,114.8214,28,3.25,Violin 1,0.25,0.3571,79,0.5461
80.4583,80.4583,114.9404,28,3.3333,Violoncello,0.1667,0.2381,51,0.5461
80.4583,80.4583,114.9404,28,3.3333,Viola,0.1667,0.2381,51,0.5461
80.625,80.625,115.1786,28,3.5,Violoncello,0.1667,0.2381,52,0.5461
80.625,80.625,115.1786,28,3.5,Violin 1,0.25,0.3571,81,0.5461
80.625,80.625,115.1786,28,3.5,Violin 2,0.25,0.3571,69,0.5461
80.625,80.625,115.1786,28,3.5,Viola,0.1667,0.2381,52,0.5461
80.7917,80.7917,115.4167,28,3.6667,Violoncello,0.1667,0.2381,54,0.5461
80.7917,80.7917,115.4167,28,3.6667,Viola,0.1667,0.2381,54,0.5461
80.875,80.875,115.5357,28,3.75,Violin 1,0.25,0.3571,83,0.5461
80.875,80.875,115.5357,28,3.75,Violin 2,0.25,0.3571,71,0.5461
80.9583,80.9583,115.6547,28,3.8333,Viola,0.1667,0.2381,55,0.5461
80.9583,80.9583,115.6547,28,3.8333,Violoncello,0.1667,0.2381,55,0.5461
81.125,81.125,115.8929,29,1.0,D Horn 1,3.0,4.2857,57,1.0
81.125,81.125,115.8929,29,1.0,Contrabass,3.0,4.2857,33,1.0
81.125,81.125,115.8929,29,1.0,Violin 2,1.0,1.4286,61,0.4961
81.125,81.125,115.8929,29,1.0,D Horn 2,3.0,4.2857,45,1.0
81.125,81.125,115.8929,29,1.0,Violin 1,1.0,1.4286,73,0.4961
81.2917,81.2917,116.131,29,1.1667,Violoncello,0.1667,0.2381,55,0.5461
81.2917,81.2917,116.131,29,1.1667,Viola,0.1667,0.2381,55,0.5461
81.4583,81.4583,116.369,29,1.3333,Violoncello,0.1667,0.2381,57,0.5461
81.4583,81.4583,116.369,29,1.3333,Viola,0.1667,0.2381,57,0.5461
81.625,81.625,116.6071,29,1.5,Bassoon 1,0.5,0.7143,61,0.4961
81.625,81.625,116.6071,29,1.5,Violoncello,0.1667,0.2381,58,0.5461
81.625,81.625,116.6071,29,1.5,Oboe 1,0.5,0.7143,76,0.4961
81.625,81.625,116.6071,29,1.5,Viola,0.1667,0.2381,58,0.5461
81.7917,81.7917,116.8453,29,1.6667,Viola,0.1667,0.2381,57,0.5461
81.7917,81.7917,116.8453,29,1.6667,Violoncello,0.1667,0.2381,57,0.5461
81.9583,81.9583,117.0833,29,1.8333,Violoncello,0.1667,0.2381,55,0.5461
81.9583,81.9583,117.0833,29,1.8333,Viola,0.1667,0.2381,55,0.5461
82.125,82.125,117.3214,29,2.0,Viola,0.1667,0.2381,54,0.5461
82.125,82.125,117.3214,29,2.0,Violin 2,0.75,1.0714,62,0.4961
82.125,82.125,117.3214,29,2.0,Oboe 1,0.5,0.7143,78,0.4961
82.125,82.125,117.3214,29,2.0,Violin 1,0.75,1.0714,74,0.4961
82.125,82.125,117.3214,29,2.0,Violoncello,0.1667,0.2381,54,0.5461
82.125,82.125,117.3214,29,2.0,Bassoon 1,0.5,0.7143,62,0.4961
82.2917,82.2917,117.5596,29,2.1667,Violoncello,0.1667,0.2381,57,0.5461
82.2917,82.2917,117.5596,29,2.1667,Viola,0.1667,0.2381,57,0.5461
82.4583,82.4583,117.7976,29,2.3333,Viola,0.1667,0.2381,55,0.5461
82.4583,82.4583,117.7976,29,2.3333,Violoncello,0.1667,0.2381,55,0.5461
82.625,82.625,118.0357,29,2.5,Viola,0.1667,0.2381,54,0.5461
82.625,82.625,118.0357,29,2.5,Violoncello,0.1667,0.2381,54,0.5461
82.7917,82.7917,118.2739,29,2.6667,Viola,0.1667,0.2381,55,0.5461
82.7917,82.7917,118.2739,29,2.6667,Violoncello,0.1667,0.2381,55,0.5461
82.875,82.875,118.3929,29,2.75,Violin 1,0.25,0.3571,76,0.5461
82.875,82.875,118.3929,29,2.75,Violin 2,0.25,0.3571,64,0.5461
82.9583,82.9583,118.5119,29,2.8333,Viola,0.1667,0.2381,52,0.5461
82.9583,82.9583,118.5119,29,2.8333,Violoncello,0.1667,0.2381,52,0.5461
83.125,83.125,118.75,29,3.0,Violin 1,0.25,0.3571,78,0.5461
83.125,83.125,118.75,29,3.0,Violoncello,0.1667,0.2381,50,0.5461
83.125,83.125,118.75,29,3.0,Viola,0.1667,0.2381,50,0.5461
83.125,83.125,118.75,29,3.0,Violin 2,0.25,0.3571,66,0.5461
83.2917,83.2917,118.9881,29,3.1667,Violoncello,0.1667,0.2381,54,0.5461
83.2917,83.2917,118.9881,29,3.1667,Viola,0.1667,0.2381,54,0.5461
83.375,83.375,119.1071,29,3.25,Violin 2,0.25,0.3571,66,0.5461
83.375,83.375,119.1071,29,3.25,Violin 1,0.25,0.3571,78,0.5461
83.4583,83.4583,119.2261,29,3.3333,Violoncello,0.1667,0.2381,57,0.5461
83.4583,83.4583,119.2261,29,3.3333,Viola,0.1667,0.2381,57,0.5461
83.625,83.625,119.4643,29,3.5,Viola,0.1667,0.2381,62,0.5461
83.625,83.625,119.4643,29,3.5,Violin 2,0.25,0.3571,67,0.5461
83.625,83.625,119.4643,29,3.5,Violoncello,0.1667,0.2381,62,0.5461
83.625,83.625,119.4643,29,3.5,Violin 1,0.25,0.3571,79,0.5461
83.7917,83.7917,119.7024,29,3.6667,Viola,0.1667,0.2381,62,0.5461
83.7917,83.7917,119.7024,29,3.6667,Violoncello,0.1667,0.2381,62,0.5461
83.875,83.875,119.8214,29,3.75,Violin 1,0.25,0.3571,81,0.5461
83.875,83.875,119.8214,29,3.75,Violin 2,0.25,0.3571,69,0.5461
83.9583,83.9583,119.9404,29,3.8333,Viola,0.1667,0.2381,62,0.5461
83.9583,83.9583,119.9404,29,3.8333,Violoncello,0.1667,0.2381,62,0.5461
84.125,84.125,120.1786,30,1.0,D Trumpet 1,0.5,0.7143,69,1.0
84.125,84.125,120.1786,30,1.0,Contrabass,0.5,0.7143,33,1.0
84.125,84.125,120.1786,30,1.0,Timpani,0.5,0.7143,45,1.0
84.125,84.125,120.1786,30,1.0,Violin 1,0.5,0.7143,71,0.7087
84.125,84.125,120.1786,30,1.0,Viola,0.5,0.7143,57,1.0
84.125,84.125,120.1786,30,1.0,D Horn 1,0.5,0.7143,57,1.0
84.125,84.125,120.1786,30,1.0,Violoncello,0.5,0.7143,57,1.0
84.125,84.125,120.1786,30,1.0,D Trumpet 2,0.5,0.7143,57,1.0
84.125,84.125,120.1786,30,1.0,Violin 1,0.5,0.7143,80,0.7087
84.125,84.125,120.1786,30,1.0,Violin 1,0.5,0.7143,62,0.7087
84.125,84.125,120.1786,30,1.0,Violin 2,0.5,0.7143,74,0.7087
84.125,84.125,120.1786,30,1.0,D Horn 2,0.5,0.7143,45,1.0
84.125,84.125,120.1786,30,1.0,Violin 2,0.5,0.7143,77,0.7087
84.125,84.125,120.1786,30,1.0,Violin 2,0.5,0.7143,62,0.7087
84.2917,84.2917,120.4167,30,1.1667,A Clarinet 1,0.1667,0.2381,77,1.0
84.2917,84.2917,120.4167,30,1.1667,Bassoon 1,0.1667,0.2381,65,1.0
84.2917,84.2917,120.4167,30,1.1667,Oboe 2,0.1667,0.2381,71,1.0
84.2917,84.2917,120.4167,30,1.1667,Bassoon 2,0.1667,0.2381,62,1.0
84.2917,84.2917,120.4167,30,1.1667,Oboe 1,0.1667,0.2381,80,1.0
84.2917,84.2917,120.4167,30,1.1667,A Clarinet 2,0.1667,0.2381,74,1.0
84.4583,84.4583,120.6547,30,1.3333,Bassoon 1,0.1667,0.2381,65,1.0
84.4583,84.4583,120.6547,30,1.3333,A Clarinet 1,0.1667,0.2381,77,1.0
84.4583,84.4583,120.6547,30,1.3333,Bassoon 2,0.1667,0.2381,62,1.0
84.4583,84.4583,120.6547,30,1.3333,A Clarinet 2,0.1667,0.2381,74,1.0
84.4583,84.4583,120.6547,30,1.3333,Oboe 1,0.1667,0.2381,80,1.0
84.4583,84.4583,120.6547,30,1.3333,Oboe 2,0.1667,0.2381,71,1.0
84.625,84.625,120.8929,30,1.5,Oboe 1,0.1667,0.2381,80,1.0
84.625,84.625,120.8929,30,1.5,Bassoon 2,0.1667,0.2381,62,1.0
84.625,84.625,120.8929,30,1.5,A Clarinet 1,0.1667,0.2381,77,1.0
84.625,84.625,120.8929,30,1.5,A Clarinet 2,0.1667,0.2381,74,1.0
84.625,84.625,120.8929,30,1.5,Bassoon 1,0.1667,0.2381,65,1.0
84.625,84.625,120.8929,30,1.5,Oboe 2,0.1667,0.2381,71,1.0
84.7917,84.7917,121.131,30,1.6667,Oboe 2,0.1667,0.2381,71,1.0
84.7917,84.7917,121.131,30,1.6667,A Clarinet 1,0.1667,0.2381,77,1.0
84.7917,84.7917,121.131,30,1.6667,Bassoon 2,0.1667,0.2381,62,1.0
84.7917,84.7917,121.131,30,1.6667,Oboe 1,0.1667,0.2381,80,1.0
84.7917,84.7917,121.131,30,1.6667,A Clarinet 2,0.1667,0.2381,74,1.0
84.7917,84.7917,121.131,30,1.6667,Bassoon 1,0.1667,0.2381,65,1.0
84.9583,84.9583,121.369,30,1.8333,A Clarinet 2,0.1667,0.2381,74,1.0
84.9583,84.9583,121.369,30,1.8333,Bassoon 1,0.1667,0.2381,65,1.0
84.9583,84.9583,121.369,30,1.8333,Oboe 2,0.1667,0.2381,71,1.0
84.9583,84.9583,121.369,30,1.8333,A Clarinet 1,0.1667,0.2381,77,1.0
84.9583,84.9583,121.369,30,1.8333,Oboe 1,0.1667,0.2381,80,1.0
84.9583,84.9583,121.369,30,1.8333,Bassoon 2,0.1667,0.2381,62,1.0
85.0,85.0,121.4286,30,1.875,Flute 1,0.125,0.1786,86,0.4961
85.125,85.125,121.6071,30,2.0,A Clarinet 2,0.1667,0.2381,74,1.0
85.125,85.125,121.6071,30,2.0,Flute 1,0.75,1.0714,86,0.4961
85.125,85.125,121.6071,30,2.0,A Clarinet 1,0.1667,0.2381,77,1.0
85.125,85.125,121.6071,30,2.0,Bassoon 2,0.1667,0.2381,62,1.0
85.125,85.125,121.6071,30,2.0,Bassoon 1,0.1667,0.2381,65,1.0
85.125,85.125,121.6071,30,2.0,Oboe 1,0.1667,0.2381,80,1.0
85.125,85.125,121.6071,30,2.0,Oboe 2,0.1667,0.2381,71,1.0
85.2917,85.2917,121.8453,30,2.1667,Bassoon 1,0.1667,0.2381,65,1.0
85.2917,85.2917,121.8453,30,2.1667,Oboe 1,0.1667,0.2381,80,1.0
85.2917,85.2917,121.8453,30,2.1667,A Clarinet 1,0.1667,0.2381,77,1.0
85.2917,85.2917,121.8453,30,2.1667,A Clarinet 2,0.1667,0.2381,74,1.0
85.2917,85.2917,121.8453,30,2.1667,Oboe 2,0.1667,0.2381,71,1.0
85.2917,85.2917,121.8453,30,2.1667,Bassoon 2,0.1667,0.2381,62,1.0
85.4583,85.4583,122.0833,30,2.3333,Oboe 1,0.1667,0.2381,80,1.0
85.4583,85.4583,122.0833,30,2.3333,A Clarinet 1,0.1667,0.2381,77,1.0
85.4583,85.4583,122.0833,30,2.3333,A Clarinet 2,0.1667,0.2381,74,1.0
85.4583,85.4583,122.0833,30,2.3333,Bassoon 2,0.1667,0.2381,62,1.0
85.4583,85.4583,122.0833,30,2.3333,Bassoon 1,0.1667,0.2381,65,1.0
85.4583,85.4583,122.0833,30,2.3333,Oboe 2,0.1667,0.2381,71,1.0
85.625,85.625,122.3214,30,2.5,Oboe 2,0.1667,0.2381,71,1.0
85.625,85.625,122.3214,30,2.5,Bassoon 2,0.1667,0.2381,62,1.0
85.625,85.625,122.3214,30,2.5,A Clarinet 2,0.1667,0.2381,74,1.0
85.625,85.625,122.3214,30,2.5,A Clarinet 1,0.1667,0.2381,77,1.0
85.625,85.625,122.3214,30,2.5,Oboe 1,0.1667,0.2381,80,1.0
85.625,85.625,122.3214,30,2.5,Bassoon 1,0.1667,0.2381,65,1.0
85.7917,85.7917,122.5596,30,2.6667,Bassoon 2,0.1667,0.2381,62,1.0
85.7917,85.7917,122.5596,30,2.6667,Bassoon 1,0.1667,0.2381,65,1.0
85.7917,85.7917,122.5596,30,2.6667,A Clarinet 2,0.1667,0.2381,74,1.0
85.7917,85.7917,122.5596,30,2.6667,A Clarinet 1,0.1667,0.2381,77,1.0
85.7917,85.7917,122.5596,30,2.6667,Oboe 2,0.1667,0.2381,71,1.0
85.7917,85.7917,122.5596,30,2.6667,Oboe 1,0.1667,0.2381,80,1.0
85.875,85.875,122.6786,30,2.75,Flute 1,0.125,0.1786,85,0.4961
85.9583,85.9583,122.7976,30,2.8333,Oboe 2,0.1667,0.2381,71,1.0
85.9583,85.9583,122.7976,30,2.8333,A Clarinet 2,0.1667,0.2381,74,1.0
85.9583,85.9583,122.7976,30,2.8333,Oboe 1,0.1667,0.2381,80,1.0
85.9583,85.9583,122.7976,30,2.8333,Bassoon 1,0.1667,0.2381,65,1.0
85.9583,85.9583,122.7976,30,2.8333,A Clarinet 1,0.1667,0.2381,77,1.0
85.9583,85.9583,122.7976,30,2.8333,Bassoon 2,0.1667,0.2381,62,1.0
86.0,86.0,122.8571,30,2.875,Flute 1,0.125,0.1786,86,0.4961
86.125,86.125,123.0357,30,3.0,Contrabass,0.5,0.7143,33,0.4961
86.125,86.125,123.0357,30,3.0,Bassoon 2,0.1667,0.2381,62,1.0
86.125,86.125,123.0357,30,3.0,A Clarinet 1,0.1667,0.2381,77,1.0
86.125,86.125,123.0357,30,3.0,Violin 2,0.5,0.7143,68,0.7087
86.125,86.125,123.0357,30,3.0,Bassoon 1,0.1667,0.2381,65,1.0
86.125,86.125,123.0357,30,3.0,Violoncello,0.5,0.7143,45,0.4961
86.125,86.125,123.0357,30,3.0,Violin 2,0.5,0.7143,59,0.7087
86.125,86.125,123.0357,30,3.0,Viola,0.5,0.7143,57,0.4961
86.125,86.125,123.0357,30,3.0,Oboe 1,0.1667,0.2381,80,1.0
86.125,86.125,123.0357,30,3.0,D Horn 2,0.1667,0.2381,45,0.4961
86.125,86.125,123.0357,30,3.0,Violin 1,0.75,1.0714,74,0.4961
86.125,86.125,123.0357,30,3.0,D Horn 1,0.1667,0.2381,57,0.4961
86.125,86.125,123.0357,30,3.0,A Clarinet 2,0.1667,0.2381,74,1.0
86.125,86.125,123.0357,30,3.0,Flute 1,0.5,0.7143,89,0.4961
86.125,86.125,123.0357,30,3.0,Oboe 2,0.1667,0.2381,71,1.0
86.2917,86.2917,123.2739,30,3.1667,A Clarinet 1,0.1667,0.2381,77,1.0
86.2917,86.2917,123.2739,30,3.1667,D Horn 2,0.1667,0.2381,45,0.4961
86.2917,86.2917,123.2739,30,3.1667,Oboe 1,0.1667,0.2381,80,1.0
86.2917,86.2917,123.2739,30,3.1667,Bassoon 1,0.1667,0.2381,65,1.0
86.2917,86.2917,123.2739,30,3.1667,A Clarinet 2,0.1667,0.2381,74,1.0
86.2917,86.2917,123.2739,30,3.1667,Bassoon 2,0.1667,0.2381,62,1.0
86.2917,86.2917,123.2739,30,3.1667,D Horn 1,0.1667,0.2381,57,0.4961
86.2917,86.2917,123.2739,30,3.1667,Oboe 2,0.1667,0.2381,71,1.0
86.4583,86.4583,123.5119,30,3.3333,D Horn 2,0.1667,0.2381,45,0.4961
86.4583,86.4583,123.5119,30,3.3333,Bassoon 2,0.1667,0.2381,62,1.0
86.4583,86.4583,123.5119,30,3.3333,Oboe 2,0.1667,0.2381,71,1.0
86.4583,86.4583,123.5119,30,3.3333,Oboe 1,0.1667,0.2381,80,1.0
86.4583,86.4583,123.5119,30,3.3333,D Horn 1,0.1667,0.2381,57,0.4961
86.4583,86.4583,123.5119,30,3.3333,A Clarinet 1,0.1667,0.2381,77,1.0
86.4583,86.4583,123.5119,30,3.3333,Bassoon 1,0.1667,0.2381,65,1.0
86.4583,86.4583,123.5119,30,3.3333,A Clarinet 2,0.1667,0.2381,74,1.0
86.625,86.625,123.75,30,3.5,Oboe 2,0.1667,0.2381,71,1.0
86.625,86.625,123.75,30,3.5,Oboe 1,0.1667,0.2381,80,1.0
86.625,86.625,123.75,30,3.5,Bassoon 2,0.1667,0.2381,62,1.0
86.625,86.625,123.75,30,3.5,Bassoon 1,0.1667,0.2381,65,1.0
86.625,86.625,123.75,30,3.5,A Clarinet 1,0.1667,0.2381,77,1.0
86.625,86.625,123.75,30,3.5,D Horn 1,0.1667,0.2381,57,0.4961
86.625,86.625,123.75,30,3.5,A Clarinet 2,0.1667,0.2381,74,1.0
86.625,86.625,123.75,30,3.5,D Horn 2,0.1667,0.2381,45,0.4961
86.7917,86.7917,123.9881,30,3.6667,A Clarinet 1,0.1667,0.2381,77,1.0
86.7917,86.7917,123.9881,30,3.6667,Oboe 1,0.1667,0.2381,80,1.0
86.7917,86.7917,123.9881,30,3.6667,Bassoon 2,0.1667,0.2381,62,1.0
86.7917,86.7917,123.9881,30,3.6667,D Horn 2,0.1667,0.2381,45,0.4961
86.7917,86.7917,123.9881,30,3.6667,A Clarinet 2,0.1667,0.2381,74,1.0
86.7917,86.7917,123.9881,30,3.6667,Bassoon 1,0.1667,0.2381,65,1.0
86.7917,86.7917,123.9881,30,3.6667,D Horn 1,0.1667,0.2381,57,0.4961
86.7917,86.7917,123.9881,30,3.6667,Oboe 2,0.1667,0.2381,71,1.0
86.875,86.875,124.1071,30,3.75,Violin 1,0.125,0.1786,73,0.4961
86.9583,86.9583,124.2261,30,3.8333,D Horn 2,0.1667,0.2381,45,0.4961
86.9583,86.9583,124.2261,30,3.8333,A Clarinet 1,0.1667,0.2381,77,1.0
86.9583,86.9583,124.2261,30,3.8333,Oboe 1,0.1667,0.2381,80,1.0
86.9583,86.9583,124.2261,30,3.8333,A Clarinet 2,0.1667,0.2381,74,1.0
86.9583,86.9583,124.2261,30,3.8333,D Horn 1,0.1667,0.2381,57,0.4961
86.9583,86.9583,124.2261,30,3.8333,Bassoon 1,0.1667,0.2381,65,1.0
86.9583,86.9583,124.2261,30,3.8333,Bassoon 2,0.1667,0.2381,62,1.0
86.9583,86.9583,124.2261,30,3.8333,Oboe 2,0.1667,0.2381,71,1.0
87.0,87.0,124.2857,30,3.875,Violin 1,0.125,0.1786,74,0.4961
87.125,87.125,124.4643,31,1.0,D Trumpet 2,0.5,0.7143,57,1.0
87.125,87.125,124.4643,31,1.0,D Horn 2,0.5,0.7143,45,1.0
87.125,87.125,124.4643,31,1.0,Viola,0.5,0.7143,57,1.0
87.125,87.125,124.4643,31,1.0,Timpani,0.5,0.7143,45,1.0
87.125,87.125,124.4643,31,1.0,Violoncello,0.5,0.7143,45,1.0
87.125,87.125,124.4643,31,1.0,Violin 1,0.5,0.7143,64,0.7087
87.125,87.125,124.4643,31,1.0,Violin 2,0.5,0.7143,64,0.7087
87.125,87.125,124.4643,31,1.0,Violin 2,0.5,0.7143,73,0.7087
87.125,87.125,124.4643,31,1.0,Violin 2,0.5,0.7143,76,0.7087
87.125,87.125,124.4643,31,1.0,Violin 1,0.5,0.7143,79,0.7087
87.125,87.125,124.4643,31,1.0,Violin 1,0.5,0.7143,73,0.7087
87.125,87.125,124.4643,31,1.0,D Trumpet 1,0.5,0.7143,69,1.0
87.125,87.125,124.4643,31,1.0,D Horn 1,0.5,0.7143,57,1.0
87.125,87.125,124.4643,31,1.0,Contrabass,0.5,0.7143,33,1.0
87.2917,87.2917,124.7024,31,1.1667,Bassoon 2,0.1667,0.2381,61,1.0
87.2917,87.2917,124.7024,31,1.1667,Oboe 1,0.1667,0.2381,79,1.0
87.2917,87.2917,124.7024,31,1.1667,A Clarinet 1,0.1667,0.2381,76,1.0
87.2917,87.2917,124.7024,31,1.1667,A Clarinet 2,0.1667,0.2381,73,1.0
87.2917,87.2917,124.7024,31,1.1667,Oboe 2,0.1667,0.2381,70,1.0
87.2917,87.2917,124.7024,31,1.1667,Bassoon 1,0.1667,0.2381,64,1.0
87.4583,87.4583,124.9404,31,1.3333,A Clarinet 2,0.1667,0.2381,73,1.0
87.4583,87.4583,124.9404,31,1.3333,Bassoon 2,0.1667,0.2381,61,1.0
87.4583,87.4583,124.9404,31,1.3333,A Clarinet 1,0.1667,0.2381,76,1.0
87.4583,87.4583,124.9404,31,1.3333,Oboe 2,0.1667,0.2381,70,1.0
87.4583,87.4583,124.9404,31,1.3333,Oboe 1,0.1667,0.2381,79,1.0
87.4583,87.4583,124.9404,31,1.3333,Bassoon 1,0.1667,0.2381,64,1.0
87.625,87.625,125.1786,31,1.5,Bassoon 2,0.1667,0.2381,61,1.0
87.625,87.625,125.1786,31,1.5,A Clarinet 2,0.1667,0.2381,73,1.0
87.625,87.625,125.1786,31,1.5,Oboe 2,0.1667,0.2381,70,1.0
87.625,87.625,125.1786,31,1.5,A Clarinet 1,0.1667,0.2381,76,1.0
87.625,87.625,125.1786,31,1.5,Bassoon 1,0.1667,0.2381,64,1.0
87.625,87.625,125.1786,31,1.5,Oboe 1,0.1667,0.2381,79,1.0
87.7917,87.7917,125.4167,31,1.6667,Bassoon 1,0.1667,0.2381,64,1.0
87.7917,87.7917,125.4167,31,1.6667,A Clarinet 2,0.1667,0.2381,73,1.0
87.7917,87.7917,125.4167,31,1.6667,Oboe 2,0.1667,0.2381,70,1.0
87.7917,87.7917,125.4167,31,1.6667,Bassoon 2,0.1667,0.2381,61,1.0
87.7917,87.7917,125.4167,31,1.6667,Oboe 1,0.1667,0.2381,79,1.0
87.7917,87.7917,125.4167,31,1.6667,A Clarinet 1,0.1667,0.2381,76,1.0
87.9583,87.9583,125.6547,31,1.8333,Oboe 2,0.1667,0.2381,70,1.0
87.9583,87.9583,125.6547,31,1.8333,Bassoon 2,0.1667,0.2381,61,1.0
87.9583,87.9583,125.6547,31,1.8333,A Clarinet 2,0.1667,0.2381,73,1.0
87.9583,87.9583,125.6547,31,1.8333,Oboe 1,0.1667,0.2381,79,1.0
87.9583,87.9583,125.6547,31,1.8333,Bassoon 1,0.1667,0.2381,64,1.0
87.9583,87.9583,125.6547,31,1.8333,A Clarinet 1,0.1667,0.2381,76,1.0
88.0,88.0,125.7143,31,1.875,Flute 1,0.125,0.1786,85,0.4961
88.125,88.125,125.8929,31,2.0,Oboe 1,0.1667,0.2381,79,1.0
88.125,88.125,125.8929,31,2.0,Bassoon 2,0.1667,0.2381,61,1.0
88.125,88.125,125.8929,31,2.0,Oboe 2,0.1667,0.2381,70,1.0
88.125,88.125,125.8929,31,2.0,A Clarinet 1,0.1667,0.2381,76,1.0
88.125,88.125,125.8929,31,2.0,Bassoon 1,0.1667,0.2381,64,1.0
88.125,88.125,125.8929,31,2.0,Flute 1,0.75,1.0714,85,0.4961
88.125,88.125,125.8929,31,2.0,A Clarinet 2,0.1667,0.2381,73,1.0
88.2917,88.2917,126.131,31,2.1667,Oboe 1,0.1667,0.2381,79,1.0
88.2917,88.2917,126.131,31,2.1667,Oboe 2,0.1667,0.2381,70,1.0
88.2917,88.2917,126.131,31,2.1667,Bassoon 2,0.1667,0.2381,61,1.0
88.2917,88.2917,126.131,31,2.1667,A Clarinet 2,0.1667,0.2381,73,1.0
88.2917,88.2917,126.131,31,2.1667,Bassoon 1,0.1667,0.2381,64,1.0
88.2917,88.2917,126.131,31,2.1667,A Clarinet 1,0.1667,0.2381,76,1.0
88.4583,88.4583,126.369,31,2.3333,A Clarinet 1,0.1667,0.2381,76,1.0
88.4583,88.4583,126.369,31,2.3333,Oboe 1,0.1667,0.2381,79,1.0
88.4583,88.4583,126.369,31,2.3333,Bassoon 1,0.1667,0.2381,64,1.0
88.4583,88.4583,126.369,31,2.3333,Bassoon 2,0.1667,0.2381,61,1.0
88.4583,88.4583,126.369,31,2.3333,Oboe 2,0.1667,0.2381,70,1.0
88.4583,88.4583,126.369,31,2.3333,A Clarinet 2,0.1667,0.2381,73,1.0
88.625,88.625,126.6071,31,2.5,Oboe 2,0.1667,0.2381,70,1.0
88.625,88.625,126.6071,31,2.5,Oboe 1,0.1667,0.2381,79,1.0
88.625,88.625,126.6071,31,2.5,Bassoon 1,0.1667,0.2381,64,1.0
88.625,88.625,126.6071,31,2.5,A Clarinet 2,0.1667,0.2381,73,1.0
88.625,88.625,126.6071,31,2.5,A Clarinet 1,0.1667,0.2381,76,1.0
88.625,88.625,126.6071,31,2.5,Bassoon 2,0.1667,0.2381,61,1.0
88.7917,88.7917,126.8453,31,2.6667,Bassoon 1,0.1667,0.2381,64,1.0
88.7917,88.7917,126.8453,31,2.6667,Bassoon 2,0.1667,0.2381,61,1.0
88.7917,88.7917,126.8453,31,2.6667,Oboe 1,0.1667,0.2381,79,1.0
88.7917,88.7917,126.8453,31,2.6667,A Clarinet 2,0.1667,0.2381,73,1.0
88.7917,88.7917,126.8453,31,2.6667,Oboe 2,0.1667,0.2381,70,1.0
88.7917,88.7917,126.8453,31,2.6667,A Clarinet 1,0.1667,0.2381,76,1.0
88.875,88.875,126.9643,31,2.75,Flute 1,0.125,0.1786,83,0.4961
88.9583,88.9583,127.0833,31,2.8333,Bassoon 2,0.1667,0.2381,61,1.0
88.9583,88.9583,127.0833,31,2.8333,Oboe 1,0.1667,0.2381,79,1.0
88.9583,88.9583,127.0833,31,2.8333,A Clarinet 2,0.1667,0.2381,73,1.0
88.9583,88.9583,127.0833,31,2.8333,Bassoon 1,0.1667,0.2381,64,1.0
88.9583,88.9583,127.0833,31,2.8333,A Clarinet 1,0.1667,0.2381,76,1.0
88.9583,88.9583,127.0833,31,2.8333,Oboe 2,0.1667,0.2381,70,1.0
89.0,89.0,127.1429,31,2.875,Flute 1,0.125,0.1786,85,0.4961
89.125,89.125,127.3214,31,3.0,Violoncello,0.5,0.7143,45,0.4961
89.125,89.125,127.3214,31,3.0,Violin 1,0.75,1.0714,73,0.4961
89.125,89.125,127.3214,31,3.0,Bassoon 2,0.1667,0.2381,61,1.0
89.125,89.125,127.3214,31,3.0,D Horn 1,0.1667,0.2381,57,1.0
89.125,89.125,127.3214,31,3.0,Flute 1,0.5,0.7143,88,0.4961
89.125,89.125,127.3214,31,3.0,A Clarinet 1,0.1667,0.2381,76,1.0
89.125,89.125,127.3214,31,3.0,Oboe 2,0.1667,0.2381,70,1.0
89.125,89.125,127.3214,31,3.0,Contrabass,0.5,0.7143,33,0.4961
89.125,89.125,127.3214,31,3.0,Oboe 1,0.1667,0.2381,79,1.0
89.125,89.125,127.3214,31,3.0,D Horn 2,0.1667,0.2381,45,1.0
89.125,89.125,127.3214,31,3.0,Bassoon 1,0.1667,0.2381,64,1.0
89.125,89.125,127.3214,31,3.0,Violin 2,0.5,0.7143,57,0.7087
89.125,89.125,127.3214,31,3.0,Violin 2,0.5,0.7143,67,0.7087
89.125,89.125,127.3214,31,3.0,A Clarinet 2,0.1667,0.2381,73,1.0
89.125,89.125,127.3214,31,3.0,Viola,0.5,0.7143,57,0.4961
89.2917,89.2917,127.5596,31,3.1667,Oboe 2,0.1667,0.2381,70,1.0
89.2917,89.2917,127.5596,31,3.1667,Bassoon 2,0.1667,0.2381,61,1.0
89.2917,89.2917,127.5596,31,3.1667,Bassoon 1,0.1667,0.2381,64,1.0
89.2917,89.2917,127.5596,31,3.1667,Oboe 1,0.1667,0.2381,79,1.0
89.2917,89.2917,127.5596,31,3.1667,A Clarinet 2,0.1667,0.2381,73,1.0
89.2917,89.2917,127.5596,31,3.1667,D Horn 2,0.1667,0.2381,45,1.0
89.2917,89.2917,127.5596,31,3.1667,D Horn 1,0.1667,0.2381,57,1.0
89.2917,89.2917,127.5596,31,3.1667,A Clarinet 1,0.1667,0.2381,76,1.0
89.4583,89.4583,127.7976,31,3.3333,Oboe 2,0.1667,0.2381,70,1.0
89.4583,89.4583,127.7976,31,3.3333,A Clarinet 2,0.1667,0.2381,73,1.0
89.4583,89.4583,127.7976,31,3.3333,Bassoon 2,0.1667,0.2381,61,1.0
89.4583,89.4583,127.7976,31,3.3333,Bassoon 1,0.1667,0.2381,64,1.0
89.4583,89.4583,127.7976,31,3.3333,D Horn 2,0.1667,0.2381,45,1.0
89.4583,89.4583,127.7976,31,3.3333,D Horn 1,0.1667,0.2381,57,1.0
89.4583,89.4583,127.7976,31,3.3333,Oboe 1,0.1667,0.2381,79,1.0
89.4583,89.4583,127.7976,31,3.3333,A Clarinet 1,0.1667,0.2381,76,1.0
89.625,89.625,128.0357,31,3.5,A Clarinet 2,0.1667,0.2381,73,1.0
89.625,89.625,128.0357,31,3.5,D Horn 2,0.1667,0.2381,45,1.0
89.625,89.625,128.0357,31,3.5,Oboe 1,0.1667,0.2381,79,1.0
89.625,89.625,128.0357,31,3.5,D Horn 1,0.1667,0.2381,57,1.0
89.625,89.625,128.0357,31,3.5,A Clarinet 1,0.1667,0.2381,76,1.0
89.625,89.625,128.0357,31,3.5,Bassoon 1,0.1667,0.2381,64,1.0
89.625,89.625,128.0357,31,3.5,Bassoon 2,0.1667,0.2381,61,1.0
89.625,89.625,128.0357,31,3.5,Oboe 2,0.1667,0.2381,70,1.0
89.7917,89.7917,128.2739,31,3.6667,Bassoon 2,0.1667,0.2381,61,1.0
89.7917,89.7917,128.2739,31,3.6667,A Clarinet 1,0.1667,0.2381,76,1.0
89.7917,89.7917,128.2739,31,3.6667,Oboe 2,0.1667,0.2381,70,1.0
89.7917,89.7917,128.2739,31,3.6667,Bassoon 1,0.1667,0.2381,64,1.0
89.7917,89.7917,128.2739,31,3.6667,D Horn 2,0.1667,0.2381,45,1.0
89.7917,89.7917,128.2739,31,3.6667,A Clarinet 2,0.1667,0.2381,73,1.0
89.7917,89.7917,128.2739,31,3.6667,Oboe 1,0.1667,0.2381,79,1.0
89.7917,89.7917,128.2739,31,3.6667,D Horn 1,0.1667,0.2381,57,1.0
89.875,89.875,128.3929,31,3.75,Violin 1,0.125,0.1786,71,0.4961
89.9583,89.9583,128.5119,31,3.8333,D Horn 2,0.1667,0.2381,45,1.0
89.9583,89.9583,128.5119,31,3.8333,D Horn 1,0.1667,0.2381,57,1.0
89.9583,89.9583,128.5119,31,3.8333,A Clarinet 2,0.1667,0.2381,73,1.0
89.9583,89.9583,128.5119,31,3.8333,A Clarinet 1,0.1667,0.2381,76,1.0
89.9583,89.9583,128.5119,31,3.8333,Bassoon 2,0.1667,0.2381,61,1.0
89.9583,89.9583,128.5119,31,3.8333,Oboe 1,0.1667,0.2381,79,1.0
89.9583,89.9583,128.5119,31,3.8333,Oboe 2,0.1667,0.2381,70,1.0
89.9583,89.9583,128.5119,31,3.8333,Bassoon 1,0.1667,0.2381,64,1.0
90.0,90.0,128.5714,31,3.875,Violin 1,0.125,0.1786,73,0.4961
90.125,90.125,128.75,32,1.0,Violin 2,0.5,0.7143,74,0.7087
90.125,90.125,128.75,32,1.0,Violin 2,0.5,0.7143,66,0.7087
90.125,90.125,128.75,32,1.0,Violin 2,0.5,0.7143,57,0.7087
90.125,90.125,128.75,32,1.0,Violin 1,0.5,0.7143,74,0.7087
90.125,90.125,128.75,32,1.0,D Horn 1,0.5,0.7143,57,1.0
90.125,90.125,128.75,32,1.0,Violin 1,0.5,0.7143,78,0.7087
90.125,90.125,128.75,32,1.0,Timpani,0.5,0.7143,45,1.0
90.125,90.125,128.75,32,1.0,Viola,0.5,0.7143,57,1.0
90.125,90.125,128.75,32,1.0,D Horn 2,0.5,0.7143,45,1.0
90.125,90.125,128.75,32,1.0,D Trumpet 2,0.5,0.7143,57,1.0
90.125,90.125,128.75,32,1.0,Violin 1,0.5,0.7143,62,0.7087
90.125,90.125,128.75,32,1.0,D Trumpet 1,0.5,0.7143,69,1.0
90.125,90.125,128.75,32,1.0,Contrabass,0.5,0.7143,33,1.0
90.125,90.125,128.75,32,1.0,Violoncello,0.5,0.7143,45,1.0
90.2917,90.2917,128.9881,32,1.1667,Oboe 2,0.1667,0.2381,69,1.0
90.2917,90.2917,128.9881,32,1.1667,Bassoon 1,0.1667,0.2381,66,1.0
90.2917,90.2917,128.9881,32,1.1667,Bassoon 2,0.1667,0.2381,62,1.0
90.2917,90.2917,128.9881,32,1.1667,A Clarinet 1,0.1667,0.2381,74,1.0
90.2917,90.2917,128.9881,32,1.1667,Oboe 1,0.1667,0.2381,78,1.0
90.2917,90.2917,128.9881,32,1.1667,A Clarinet 2,0.1667,0.2381,66,1.0
90.4583,90.4583,129.2261,32,1.3333,Bassoon 1,0.1667,0.2381,66,1.0
90.4583,90.4583,129.2261,32,1.3333,A Clarinet 1,0.1667,0.2381,74,1.0
90.4583,90.4583,129.2261,32,1.3333,Oboe 1,0.1667,0.2381,78,1.0
90.4583,90.4583,129.2261,32,1.3333,Bassoon 2,0.1667,0.2381,62,1.0
90.4583,90.4583,129.2261,32,1.3333,Oboe 2,0.1667,0.2381,69,1.0
90.4583,90.4583,129.2261,32,1.3333,A Clarinet 2,0.1667,0.2381,66,1.0
90.625,90.625,129.4643,32,1.5,Bassoon 2,0.1667,0.2381,62,1.0
90.625,90.625,129.4643,32,1.5,Oboe 2,0.1667,0.2381,69,1.0
90.625,90.625,129.4643,32,1.5,Bassoon 1,0.1667,0.2381,66,1.0
90.625,90.625,129.4643,32,1.5,Oboe 1,0.1667,0.2381,78,1.0
90.625,90.625,129.4643,32,1.5,A Clarinet 1,0.1667,0.2381,74,1.0
90.625,90.625,129.4643,32,1.5,A Clarinet 2,0.1667,0.2381,66,1.0
90.7917,90.7917,129.7024,32,1.6667,A Clarinet 2,0.1667,0.2381,66,1.0
90.7917,90.7917,129.7024,32,1.6667,Oboe 1,0.1667,0.2381,78,1.0
90.7917,90.7917,129.7024,32,1.6667,Oboe 2,0.1667,0.2381,69,1.0
90.7917,90.7917,129.7024,32,1.6667,Bassoon 2,0.1667,0.2381,62,1.0
90.7917,90.7917,129.7024,32,1.6667,Bassoon 1,0.1667,0.2381,66,1.0
90.7917,90.7917,129.7024,32,1.6667,A Clarinet 1,0.1667,0.2381,74,1.0
90.9583,90.9583,129.9404,32,1.8333,A Clarinet 2,0.1667,0.2381,66,1.0
90.9583,90.9583,129.9404,32,1.8333,Oboe 2,0.1667,0.2381,69,1.0
90.9583,90.9583,129.9404,32,1.8333,A Clarinet 1,0.1667,0.2381,74,1.0
90.9583,90.9583,129.9404,32,1.8333,Oboe 1,0.1667,0.2381,78,1.0
90.9583,90.9583,129.9404,32,1.8333,Bassoon 1,0.1667,0.2381,66,1.0
90.9583,90.9583,129.9404,32,1.8333,Bassoon 2,0.1667,0.2381,62,1.0
91.0,91.0,130.0,32,1.875,Flute 1,0.125,0.1786,81,0.4961
91.125,91.125,130.1786,32,2.0,Oboe 2,0.1667,0.2381,69,1.0
91.125,91.125,130.1786,32,2.0,Bassoon 1,0.1667,0.2381,65,1.0
91.125,91.125,130.1786,32,2.0,Oboe 1,0.1667,0.2381,77,1.0
91.125,91.125,130.1786,32,2.0,A Clarinet 1,0.1667,0.2381,74,1.0
91.125,91.125,130.1786,32,2.0,Flute 1,0.75,1.0714,81,0.4961
91.125,91.125,130.1786,32,2.0,A Clarinet 2,0.1667,0.2381,65,1.0
91.125,91.125,130.1786,32,2.0,Bassoon 2,0.1667,0.2381,62,1.0
91.2917,91.2917,130.4167,32,2.1667,Oboe 2,0.1667,0.2381,69,1.0
91.2917,91.2917,130.4167,32,2.1667,Bassoon 1,0.1667,0.2381,65,1.0
91.2917,91.2917,130.4167,32,2.1667,A Clarinet 2,0.1667,0.2381,65,1.0
91.2917,91.2917,130.4167,32,2.1667,A Clarinet 1,0.1667,0.2381,74,1.0
91.2917,91.2917,130.4167,32,2.1667,Bassoon 2,0.1667,0.2381,62,1.0
91.2917,91.2917,130.4167,32,2.1667,Oboe 1,0.1667,0.2381,77,1.0
91.4583,91.4583,130.6547,32,2.3333,Bassoon 1,0.1667,0.2381,65,1.0
91.4583,91.4583,130.6547,32,2.3333,Oboe 2,0.1667,0.2381,69,1.0
91.4583,91.4583,130.6547,32,2.3333,A Clarinet 2,0.1667,0.2381,65,1.0
91.4583,91.4583,130.6547,32,2.3333,A Clarinet 1,0.1667,0.2381,74,1.0
91.4583,91.4583,130.6547,32,2.3333,Oboe 1,0.1667,0.2381,77,1.0
91.4583,91.4583,130.6547,32,2.3333,Bassoon 2,0.1667,0.2381,62,1.0
91.625,91.625,130.8929,32,2.5,Oboe 1,0.1667,0.2381,77,1.0
91.625,91.625,130.8929,32,2.5,A Clarinet 1,0.1667,0.2381,74,1.0
91.625,91.625,130.8929,32,2.5,Bassoon 1,0.1667,0.2381,65,1.0
91.625,91.625,130.8929,32,2.5,A Clarinet 2,0.1667,0.2381,65,1.0
91.625,91.625,130.8929,32,2.5,Bassoon 2,0.1667,0.2381,62,1.0
91.625,91.625,130.8929,32,2.5,Oboe 2,0.1667,0.2381,69,1.0
91.7917,91.7917,131.131,32,2.6667,Bassoon 1,0.1667,0.2381,65,1.0
91.7917,91.7917,131.131,32,2.6667,Oboe 2,0.1667,0.2381,69,1.0
91.7917,91.7917,131.131,32,2.6667,Bassoon 2,0.1667,0.2381,62,1.0
91.7917,91.7917,131.131,32,2.6667,A Clarinet 2,0.1667,0.2381,65,1.0
91.7917,91.7917,131.131,32,2.6667,A Clarinet 1,0.1667,0.2381,74,1.0
91.7917,91.7917,131.131,32,2.6667,Oboe 1,0.1667,0.2381,77,1.0
91.875,91.875,131.25,32,2.75,Flute 1,0.125,0.1786,80,0.4961
91.9583,91.9583,131.369,32,2.8333,Oboe 2,0.1667,0.2381,69,1.0
91.9583,91.9583,131.369,32,2.8333,Bassoon 1,0.1667,0.2381,65,1.0
91.9583,91.9583,131.369,32,2.8333,A Clarinet 2,0.1667,0.2381,65,1.0
91.9583,91.9583,131.369,32,2.8333,Bassoon 2,0.1667,0.2381,62,1.0
91.9583,91.9583,131.369,32,2.8333,A Clarinet 1,0.1667,0.2381,74,1.0
91.9583,91.9583,131.369,32,2.8333,Oboe 1,0.1667,0.2381,77,1.0
92.0,92.0,131.4286,32,2.875,Flute 1,0.125,0.1786,81,0.4961
92.125,92.125,131.6071,32,3.0,Violin 2,0.5,0.7143,74,0.7087
92.125,92.125,131.6071,32,3.0,Bassoon 1,0.1667,0.2381,65,1.0
92.125,92.125,131.6071,32,3.0,Violoncello,0.5,0.7143,45,0.4961
92.125,92.125,131.6071,32,3.0,Oboe 1,0.1667,0.2381,77,1.0
92.125,92.125,131.6071,32,3.0,Violin 1,0.75,1.0714,81,0.4961
92.125,92.125,131.6071,32,3.0,Oboe 2,0.1667,0.2381,69,1.0
92.125,92.125,131.6071,32,3.0,Violin 2,0.5,0.7143,65,0.7087
92.125,92.125,131.6071,32,3.0,Viola,0.5,0.7143,57,0.4961
92.125,92.125,131.6071,32,3.0,D Horn 2,0.1667,0.2381,45,1.0
92.125,92.125,131.6071,32,3.0,D Horn 1,0.1667,0.2381,57,1.0
92.125,92.125,131.6071,32,3.0,A Clarinet 1,0.1667,0.2381,74,1.0
92.125,92.125,131.6071,32,3.0,Flute 1,0.5,0.7143,86,0.4961
92.125,92.125,131.6071,32,3.0,A Clarinet 2,0.1667,0.2381,65,1.0
92.125,92.125,131.6071,32,3.0,Bassoon 2,0.1667,0.2381,62,1.0
92.125,92.125,131.6071,32,3.0,Contrabass,0.5,0.7143,33,0.4961
92.2917,92.2917,131.8453,32,3.1667,D Horn 2,0.1667,0.2381,45,1.0
92.2917,92.2917,131.8453,32,3.1667,Bassoon 1,0.1667,0.2381,65,1.0
92.2917,92.2917,131.8453,32,3.1667,D Horn 1,0.1667,0.2381,57,1.0
92.2917,92.2917,131.8453,32,3.1667,Oboe 2,0.1667,0.2381,69,1.0
92.2917,92.2917,131.8453,32,3.1667,A Clarinet 1,0.1667,0.2381,74,1.0
92.2917,92.2917,131.8453,32,3.1667,Oboe 1,0.1667,0.2381,77,1.0
92.2917,92.2917,131.8453,32,3.1667,Bassoon 2,0.1667,0.2381,62,1.0
92.2917,92.2917,131.8453,32,3.1667,A Clarinet 2,0.1667,0.2381,65,1.0
92.4583,92.4583,132.0833,32,3.3333,A Clarinet 1,0.1667,0.2381,74,1.0
92.4583,92.4583,132.0833,32,3.3333,Bassoon 2,0.1667,0.2381,62,1.0
92.4583,92.4583,132.0833,32,3.3333,Oboe 2,0.1667,0.2381,69,1.0
92.4583,92.4583,132.0833,32,3.3333,D Horn 1,0.1667,0.2381,57,1.0
92.4583,92.4583,132.0833,32,3.3333,D Horn 2,0.1667,0.2381,45,1.0
92.4583,92.4583,132.0833,32,3.3333,Bassoon 1,0.1667,0.2381,65,1.0
92.4583,92.4583,132.0833,32,3.3333,Oboe 1,0.1667,0.2381,77,1.0
92.4583,92.4583,132.0833,32,3.3333,A Clarinet 2,0.1667,0.2381,65,1.0
92.625,92.625,132.3214,32,3.5,Bassoon 2,0.1667,0.2381,62,1.0
92.625,92.625,132.3214,32,3.5,A Clarinet 2,0.1667,0.2381,65,1.0
92.625,92.625,132.3214,32,3.5,Bassoon 1,0.1667,0.2381,65,1.0
92.625,92.625,132.3214,32,3.5,D Horn 1,0.1667,0.2381,57,1.0
92.625,92.625,132.3214,32,3.5,Oboe 1,0.1667,0.2381,77,1.0
92.625,92.625,132.3214,32,3.5,A Clarinet 1,0.1667,0.2381,74,1.0
92.625,92.625,132.3214,32,3.5,Oboe 2,0.1667,0.2381,69,1.0
92.625,92.625,132.3214,32,3.5,D Horn 2,0.1667,0.2381,45,1.0
92.7917,92.7917,132.5596,32,3.6667,Bassoon 1,0.1667,0.2381,65,1.0
92.7917,92.7917,132.5596,32,3.6667,D Horn 1,0.1667,0.2381,57,1.0
92.7917,92.7917,132.5596,32,3.6667,Bassoon 2,0.1667,0.2381,62,1.0
92.7917,92.7917,132.5596,32,3.6667,A Clarinet 2,0.1667,0.2381,65,1.0
92.7917,92.7917,132.5596,32,3.6667,Oboe 1,0.1667,0.2381,77,1.0
92.7917,92.7917,132.5596,32,3.6667,Oboe 2,0.1667,0.2381,69,1.0
92.7917,92.7917,132.5596,32,3.6667,A Clarinet 1,0.1667,0.2381,74,1.0
92.7917,92.7917,132.5596,32,3.6667,D Horn 2,0.1667,0.2381,45,1.0
92.875,92.875,132.6786,32,3.75,Violin 1,0.125,0.1786,80,0.4961
92.9583,92.9583,132.7976,32,3.8333,Bassoon 2,0.1667,0.2381,62,1.0
92.9583,92.9583,132.7976,32,3.8333,A Clarinet 1,0.1667,0.2381,74,1.0
92.9583,92.9583,132.7976,32,3.8333,D Horn 1,0.1667,0.2381,57,1.0
92.9583,92.9583,132.7976,32,3.8333,Oboe 2,0.1667,0.2381,69,1.0
92.9583,92.9583,132.7976,32,3.8333,A Clarinet 2,0.1667,0.2381,65,1.0
92.9583,92.9583,132.7976,32,3.8333,Bassoon 1,0.1667,0.2381,65,1.0
92.9583,92.9583,132.7976,32,3.8333,D Horn 2,0.1667,0.2381,45,1.0
92.9583,92.9583,132.7976,32,3.8333,Oboe 1,0.1667,0.2381,77,1.0
93.0,93.0,132.8571,32,3.875,Violin 1,0.125,0.1786,81,0.4961
93.125,93.125,133.0357,33,1.0,D Trumpet 1,0.5,0.7143,69,1.0
93.125,93.125,133.0357,33,1.0,Violin 2,0.5,0.7143,64,0.7087
93.125,93.125,133.0357,33,1.0,Violoncello,0.5,0.7143,45,1.0
93.125,93.125,133.0357,33,1.0,D Horn 1,0.5,0.7143,57,1.0
93.125,93.125,133.0357,33,1.0,D Horn 2,0.5,0.7143,45,1.0
93.125,93.125,133.0357,33,1.0,Violin 2,0.5,0.7143,57,0.7087
93.125,93.125,133.0357,33,1.0,Contrabass,0.5,0.7143,33,1.0
93.125,93.125,133.0357,33,1.0,Violin 1,0.5,0.7143,69,0.7087
93.125,93.125,133.0357,33,1.0,Violin 1,0.5,0.7143,74,0.7087
93.125,93.125,133.0357,33,1.0,Timpani,0.5,0.7143,45,1.0
93.125,93.125,133.0357,33,1.0,Violin 1,0.5,0.7143,76,0.7087
93.125,93.125,133.0357,33,1.0,Viola,0.5,0.7143,57,1.0
93.125,93.125,133.0357,33,1.0,D Trumpet 2,0.5,0.7143,57,1.0
93.125,93.125,133.0357,33,1.0,Violin 2,0.5,0.7143,74,0.7087
93.2917,93.2917,133.2739,33,1.1667,Oboe 2,0.1667,0.2381,69,1.0
93.2917,93.2917,133.2739,33,1.1667,Bassoon 1,0.1667,0.2381,64,1.0
93.2917,93.2917,133.2739,33,1.1667,A Clarinet 1,0.1667,0.2381,74,1.0
93.2917,93.2917,133.2739,33,1.1667,Oboe 1,0.1667,0.2381,76,1.0
93.2917,93.2917,133.2739,33,1.1667,Bassoon 2,0.1667,0.2381,62,1.0
93.2917,93.2917,133.2739,33,1.1667,A Clarinet 2,0.1667,0.2381,64,1.0
93.4583,93.4583,133.5119,33,1.3333,A Clarinet 1,0.1667,0.2381,74,1.0
93.4583,93.4583,133.5119,33,1.3333,Bassoon 2,0.1667,0.2381,62,1.0
93.4583,93.4583,133.5119,33,1.3333,Oboe 1,0.1667,0.2381,76,1.0
93.4583,93.4583,133.5119,33,1.3333,A Clarinet 2,0.1667,0.2381,64,1.0
93.4583,93.4583,133.5119,33,1.3333,Bassoon 1,0.1667,0.2381,64,1.0
93.4583,93.4583,133.5119,33,1.3333,Oboe 2,0.1667,0.2381,69,1.0
93.625,93.625,133.75,33,1.5,Oboe 2,0.1667,0.2381,69,1.0
93.625,93.625,133.75,33,1.5,A Clarinet 1,0.1667,0.2381,74,1.0
93.625,93.625,133.75,33,1.5,A Clarinet 2,0.1667,0.2381,64,1.0
93.625,93.625,133.75,33,1.5,Oboe 1,0.1667,0.2381,76,1.0
93.625,93.625,133.75,33,1.5,Bassoon 1,0.1667,0.2381,64,1.0
93.625,93.625,133.75,33,1.5,Bassoon 2,0.1667,0.2381,62,1.0
93.7917,93.7917,133.9881,33,1.6667,Oboe 1,0.1667,0.2381,76,1.0
93.7917,93.7917,133.9881,33,1.6667,Oboe 2,0.1667,0.2381,69,1.0
93.7917,93.7917,133.9881,33,1.6667,Bassoon 1,0.1667,0.2381,64,1.0
93.7917,93.7917,133.9881,33,1.6667,A Clarinet 2,0.1667,0.2381,64,1.0
93.7917,93.7917,133.9881,33,1.6667,Bassoon 2,0.1667,0.2381,62,1.0
93.7917,93.7917,133.9881,33,1.6667,A Clarinet 1,0.1667,0.2381,74,1.0
93.9583,93.9583,134.2261,33,1.8333,Bassoon 1,0.1667,0.2381,64,1.0
93.9583,93.9583,134.2261,33,1.8333,Oboe 2,0.1667,0.2381,69,1.0
93.9583,93.9583,134.2261,33,1.8333,Bassoon 2,0.1667,0.2381,62,1.0
93.9583,93.9583,134.2261,33,1.8333,A Clarinet 1,0.1667,0.2381,74,1.0
93.9583,93.9583,134.2261,33,1.8333,Oboe 1,0.1667,0.2381,76,1.0
93.9583,93.9583,134.2261,33,1.8333,A Clarinet 2,0.1667,0.2381,64,1.0
94.0,94.0,134.2857,33,1.875,Flute 1,0.125,0.1786,81,0.4961
94.125,94.125,134.4643,33,2.0,A Clarinet 1,0.1667,0.2381,74,1.0
94.125,94.125,134.4643,33,2.0,Bassoon 1,0.1667,0.2381,64,1.0
94.125,94.125,134.4643,33,2.0,Bassoon 2,0.1667,0.2381,62,1.0
94.125,94.125,134.4643,33,2.0,Oboe 1,0.1667,0.2381,76,1.0
94.125,94.125,134.4643,33,2.0,Flute 1,0.75,1.0714,81,0.4961
94.125,94.125,134.4643,33,2.0,A Clarinet 2,0.1667,0.2381,64,1.0
94.125,94.125,134.4643,33,2.0,Oboe 2,0.1667,0.2381,69,1.0
94.2917,94.2917,134.7024,33,2.1667,Bassoon 2,0.1667,0.2381,62,1.0
94.2917,94.2917,134.7024,33,2.1667,Oboe 1,0.1667,0.2381,76,1.0
94.2917,94.2917,134.7024,33,2.1667,Oboe 2,0.1667,0.2381,69,1.0
94.2917,94.2917,134.7024,33,2.1667,A Clarinet 2,0.1667,0.2381,64,1.0
94.2917,94.2917,134.7024,33,2.1667,A Clarinet 1,0.1667,0.2381,74,1.0
94.2917,94.2917,134.7024,33,2.1667,Bassoon 1,0.1667,0.2381,64,1.0
94.4583,94.4583,134.9404,33,2.3333,A Clarinet 1,0.1667,0.2381,74,1.0
94.4583,94.4583,134.9404,33,2.3333,Bassoon 2,0.1667,0.2381,62,1.0
94.4583,94.4583,134.9404,33,2.3333,Oboe 2,0.1667,0.2381,69,1.0
94.4583,94.4583,134.9404,33,2.3333,Oboe 1,0.1667,0.2381,76,1.0
94.4583,94.4583,134.9404,33,2.3333,A Clarinet 2,0.1667,0.2381,64,1.0
94.4583,94.4583,134.9404,33,2.3333,Bassoon 1,0.1667,0.2381,64,1.0
94.625,94.625,135.1786,33,2.5,Bassoon 1,0.1667,0.2381,64,1.0
94.625,94.625,135.1786,33,2.5,A Clarinet 1,0.1667,0.2381,74,1.0
94.625,94.625,135.1786,33,2.5,Oboe 2,0.1667,0.2381,69,1.0
94.625,94.625,135.1786,33,2.5,Oboe 1,0.1667,0.2381,76,1.0
94.625,94.625,135.1786,33,2.5,Bassoon 2,0.1667,0.2381,62,1.0
94.625,94.625,135.1786,33,2.5,A Clarinet 2,0.1667,0.2381,64,1.0
94.7917,94.7917,135.4167,33,2.6667,Oboe 2,0.1667,0.2381,69,1.0
94.7917,94.7917,135.4167,33,2.6667,Bassoon 2,0.1667,0.2381,62,1.0
94.7917,94.7917,135.4167,33,2.6667,A Clarinet 1,0.1667,0.2381,74,1.0
94.7917,94.7917,135.4167,33,2.6667,Bassoon 1,0.1667,0.2381,64,1.0
94.7917,94.7917,135.4167,33,2.6667,Oboe 1,0.1667,0.2381,76,1.0
94.7917,94.7917,135.4167,33,2.6667,A Clarinet 2,0.1667,0.2381,64,1.0
94.875,94.875,135.5357,33,2.75,Flute 1,0.125,0.1786,80,0.4961
94.9583,94.9583,135.6547,33,2.8333,A Clarinet 2,0.1667,0.2381,64,1.0
94.9583,94.9583,135.6547,33,2.8333,Bassoon 1,0.1667,0.2381,64,1.0
94.9583,94.9583,135.6547,33,2.8333,Bassoon 2,0.1667,0.2381,62,1.0
94.9583,94.9583,135.6547,33,2.8333,Oboe 1,0.1667,0.2381,76,1.0
94.9583,94.9583,135.6547,33,2.8333,A Clarinet 1,0.1667,0.2381,74,1.0
94.9583,94.9583,135.6547,33,2.8333,Oboe 2,0.1667,0.2381,69,1.0
95.0,95.0,135.7143,33,2.875,Flute 1,0.125,0.1786,81,0.4961
95.125,95.125,135.8929,33,3.0,Bassoon 1,0.1667,0.2381,64,1.0
95.125,95.125,135.8929,33,3.0,Violin 1,0.75,1.0714,81,0.4961
95.125,95.125,135.8929,33,3.0,Bassoon 2,0.1667,0.2381,62,1.0
95.125,95.125,135.8929,33,3.0,Oboe 1,0.1667,0.2381,76,1.0
95.125,95.125,135.8929,33,3.0,Violin 2,0.5,0.7143,64,0.7087
95.125,95.125,135.8929,33,3.0,Oboe 2,0.1667,0.2381,69,1.0
95.125,95.125,135.8929,33,3.0,Viola,0.5,0.7143,57,0.4961
95.125,95.125,135.8929,33,3.0,Violoncello,0.5,0.7143,45,1.0
95.125,95.125,135.8929,33,3.0,A Clarinet 1,0.1667,0.2381,74,1.0
95.125,95.125,135.8929,33,3.0,A Clarinet 2,0.1667,0.2381,64,1.0
95.125,95.125,135.8929,33,3.0,Contrabass,0.5,0.7143,33,0.4961
95.125,95.125,135.8929,33,3.0,Violin 2,0.5,0.7143,74,0.7087
95.125,95.125,135.8929,33,3.0,D Horn 2,0.1667,0.2381,45,0.4961
95.125,95.125,135.8929,33,3.0,D Horn 1,0.1667,0.2381,57,0.4961
95.2917,95.2917,136.131,33,3.1667,D Horn 2,0.1667,0.2381,45,0.4961
95.2917,95.2917,136.131,33,3.1667,Oboe 2,0.1667,0.2381,69,1.0
95.2917,95.2917,136.131,33,3.1667,A Clarinet 2,0.1667,0.2381,64,1.0
95.2917,95.2917,136.131,33,3.1667,A Clarinet 1,0.1667,0.2381,74,1.0
95.2917,95.2917,136.131,33,3.1667,Oboe 1,0.1667,0.2381,76,1.0
95.2917,95.2917,136.131,33,3.1667,Bassoon 2,0.1667,0.2381,62,1.0
95.2917,95.2917,136.131,33,3.1667,Bassoon 1,0.1667,0.2381,64,1.0
95.2917,95.2917,136.131,33,3.1667,D Horn 1,0.1667,0.2381,57,0.4961
95.4583,95.4583,136.369,33,3.3333,D Horn 1,0.1667,0.2381,57,0.4961
95.4583,95.4583,136.369,33,3.3333,A Clarinet 1,0.1667,0.2381,74,1.0
95.4583,95.4583,136.369,33,3.3333,D Horn 2,0.1667,0.2381,45,0.4961
95.4583,95.4583,136.369,33,3.3333,Bassoon 2,0.1667,0.2381,62,1.0
95.4583,95.4583,136.369,33,3.3333,Oboe 1,0.1667,0.2381,76,1.0
95.4583,95.4583,136.369,33,3.3333,A Clarinet 2,0.1667,0.2381,64,1.0
95.4583,95.4583,136.369,33,3.3333,Oboe 2,0.1667,0.2381,69,1.0
95.4583,95.4583,136.369,33,3.3333,Bassoon 1,0.1667,0.2381,64,1.0
95.625,95.625,136.6071,33,3.5,Bassoon 2,0.1667,0.2381,62,1.0
95.625,95.625,136.6071,33,3.5,Oboe 1,0.1667,0.2381,76,1.0
95.625,95.625,136.6071,33,3.5,Oboe 2,0.1667,0.2381,69,1.0
95.625,95.625,136.6071,33,3.5,A Clarinet 2,0.1667,0.2381,64,1.0
95.625,95.625,136.6071,33,3.5,Bassoon 1,0.1667,0.2381,64,1.0
95.625,95.625,136.6071,33,3.5,D Horn 2,0.1667,0.2381,45,0.4961
95.625,95.625,136.6071,33,3.5,A Clarinet 1,0.1667,0.2381,74,1.0
95.625,95.625,136.6071,33,3.5,D Horn 1,0.1667,0.2381,57,0.4961
95.7917,95.7917,136.8453,33,3.6667,Bassoon 2,0.1667,0.2381,62,1.0
95.7917,95.7917,136.8453,33,3.6667,D Horn 2,0.1667,0.2381,45,0.4961
95.7917,95.7917,136.8453,33,3.6667,D Horn 1,0.1667,0.2381,57,0.4961
95.7917,95.7917,136.8453,33,3.6667,Oboe 1,0.1667,0.2381,76,1.0
95.7917,95.7917,136.8453,33,3.6667,A Clarinet 1,0.1667,0.2381,74,1.0
95.7917,95.7917,136.8453,33,3.6667,Oboe 2,0.1667,0.2381,69,1.0
95.7917,95.7917,136.8453,33,3.6667,Bassoon 1,0.1667,0.2381,64,1.0
95.7917,95.7917,136.8453,33,3.6667,A Clarinet 2,0.1667,0.2381,64,1.0
95.875,95.875,136.9643,33,3.75,Violin 1,0.125,0.1786,80,0.4961
95.9583,95.9583,137.0833,33,3.8333,D Horn 1,0.1667,0.2381,57,0.4961
95.9583,95.9583,137.0833,33,3.8333,Oboe 1,0.1667,0.2381,76,1.0
95.9583,95.9583,137.0833,33,3.8333,D Horn 2,0.1667,0.2381,45,0.4961
95.9583,95.9583,137.0833,33,3.8333,Oboe 2,0.1667,0.2381,69,1.0
95.9583,95.9583,137.0833,33,3.8333,A Clarinet 1,0.1667,0.2381,74,1.0
95.9583,95.9583,137.0833,33,3.8333,Bassoon 1,0.1667,0.2381,64,1.0
95.9583,95.9583,137.0833,33,3.8333,A Clarinet 2,0.1667,0.2381,64,1.0
95.9583,95.9583,137.0833,33,3.8333,Bassoon 2,0.1667,0.2381,62,1.0
96.0,96.0,137.1429,33,3.875,Violin 1,0.125,0.1786,81,0.4961
96.125,96.125,137.3214,34,1.0,Oboe 1,2.0,2.8571,76,1.0
96.125,96.125,137.3214,34,1.0,Violin 2,0.1667,0.2381,73,0.4961
96.125,96.125,137.3214,34,1.0,Contrabass,0.1667,0.2381,33,0.4961
96.125,96.125,137.3214,34,1.0,Viola,0.1667,0.2381,57,0.4961
96.125,96.125,137.3214,34,1.0,Violin 1,2.0,2.8571,81,0.4961
96.125,96.125,137.3214,34,1.0,Oboe 2,2.0,2.8571,73,1.0
96.125,96.125,137.3214,34,1.0,D Horn 1,3.0,4.2857,64,0.4961
96.125,96.125,137.3214,34,1.0,Violoncello,0.1667,0.2381,45,1.0
96.125,96.125,137.3214,34,1.0,D Horn 2,3.0,4.2857,57,0.4961
96.2917,96.2917,137.5596,34,1.1667,Viola,0.1667,0.2381,52,0.7087
96.2917,96.2917,137.5596,34,1.1667,Violin 2,0.1667,0.2381,61,0.4961
96.2917,96.2917,137.5596,34,1.1667,Violoncello,0.1667,0.2381,45,1.0
96.2917,96.2917,137.5596,34,1.1667,Viola,0.1667,0.2381,55,0.7087
96.2917,96.2917,137.5596,34,1.1667,Contrabass,0.1667,0.2381,33,0.4961
96.4583,96.4583,137.7976,34,1.3333,Contrabass,0.1667,0.2381,33,0.4961
96.4583,96.4583,137.7976,34,1.3333,Viola,0.1667,0.2381,55,0.7087
96.4583,96.4583,137.7976,34,1.3333,Viola,0.1667,0.2381,52,0.7087
96.4583,96.4583,137.7976,34,1.3333,Violin 2,0.1667,0.2381,61,0.4961
96.4583,96.4583,137.7976,34,1.3333,Violoncello,0.1667,0.2381,45,1.0
96.625,96.625,138.0357,34,1.5,Contrabass,0.1667,0.2381,33,0.4961
96.625,96.625,138.0357,34,1.5,Viola,0.1667,0.2381,52,0.7087
96.625,96.625,138.0357,34,1.5,Violin 2,0.1667,0.2381,61,0.4961
96.625,96.625,138.0357,34,1.5,Viola,0.1667,0.2381,55,0.7087
96.625,96.625,138.0357,34,1.5,Violoncello,0.1667,0.2381,45,1.0
96.7917,96.7917,138.2739,34,1.6667,Violin 2,0.1667,0.2381,61,0.4961
96.7917,96.7917,138.2739,34,1.6667,Violoncello,0.1667,0.2381,45,1.0
96.7917,96.7917,138.2739,34,1.6667,Viola,0.1667,0.2381,55,0.7087
96.7917,96.7917,138.2739,34,1.6667,Viola,0.1667,0.2381,52,0.7087
96.7917,96.7917,138.2739,34,1.6667,Contrabass,0.1667,0.2381,33,0.4961
96.9583,96.9583,138.5119,34,1.8333,Violoncello,0.1667,0.2381,45,1.0
96.9583,96.9583,138.5119,34,1.8333,Violin 2,0.1667,0.2381,61,0.4961
96.9583,96.9583,138.5119,34,1.8333,Viola,0.1667,0.2381,55,0.7087
96.9583,96.9583,138.5119,34,1.8333,Contrabass,0.1667,0.2381,33,0.4961
96.9583,96.9583,138.5119,34,1.8333,Viola,0.1667,0.2381,52,0.7087
97.125,97.125,138.75,34,2.0,Viola,0.1667,0.2381,52,0.7087
97.125,97.125,138.75,34,2.0,Contrabass,0.1667,0.2381,33,0.4961
97.125,97.125,138.75,34,2.0,Violin 2,0.1667,0.2381,61,0.4961
97.125,97.125,138.75,34,2.0,Violoncello,0.1667,0.2381,45,1.0
97.125,97.125,138.75,34,2.0,Viola,0.1667,0.2381,55,0.7087
97.2917,97.2917,138.9881,34,2.1667,Viola,0.1667,0.2381,55,0.7087
97.2917,97.2917,138.9881,34,2.1667,Contrabass,0.1667,0.2381,33,0.4961
97.2917,97.2917,138.9881,34,2.1667,Violin 2,0.1667,0.2381,61,0.4961
97.2917,97.2917,138.9881,34,2.1667,Viola,0.1667,0.2381,52,0.7087
97.2917,97.2917,138.9881,34,2.1667,Violoncello,0.1667,0.2381,45,1.0
97.4583,97.4583,139.2261,34,2.3333,Violin 2,0.1667,0.2381,61,0.4961
97.4583,97.4583,139.2261,34,2.3333,Viola,0.1667,0.2381,55,0.7087
97.4583,97.4583,139.2261,34,2.3333,Viola,0.1667,0.2381,52,0.7087
97.4583,97.4583,139.2261,34,2.3333,Violoncello,0.1667,0.2381,45,1.0
97.4583,97.4583,139.2261,34,2.3333,Contrabass,0.1667,0.2381,33,0.4961
97.625,97.625,139.4643,34,2.5,Viola,0.1667,0.2381,55,0.7087
97.625,97.625,139.4643,34,2.5,Viola,0.1667,0.2381,52,0.7087
97.625,97.625,139.4643,34,2.5,Contrabass,0.1667,0.2381,33,0.4961
97.625,97.625,139.4643,34,2.5,Violoncello,0.1667,0.2381,45,1.0
97.625,97.625,139.4643,34,2.5,Violin 2,0.1667,0.2381,61,0.4961
97.7917,97.7917,139.7024,34,2.6667,Viola,0.1667,0.2381,52,0.7087
97.7917,97.7917,139.7024,34,2.6667,Viola,0.1667,0.2381,55,0.7087
97.7917,97.7917,139.7024,34,2.6667,Violoncello,0.1667,0.2381,45,1.0
97.7917,97.7917,139.7024,34,2.6667,Contrabass,0.1667,0.2381,33,0.4961
97.7917,97.7917,139.7024,34,2.6667,Violin 2,0.1667,0.2381,61,0.4961
97.9583,97.9583,139.9404,34,2.8333,Violin 2,0.1667,0.2381,61,0.4961
97.9583,97.9583,139.9404,34,2.8333,Viola,0.1667,0.2381,55,0.7087
97.9583,97.9583,139.9404,34,2.8333,Violoncello,0.1667,0.2381,45,1.0
97.9583,97.9583,139.9404,34,2.8333,Viola,0.1667,0.2381,52,0.7087
97.9583,97.9583,139.9404,34,2.8333,Contrabass,0.1667,0.2381,33,0.4961
98.125,98.125,140.1786,34,3.0,Oboe 1,1.0,1.4286,73,1.0
98.125,98.125,140.1786,34,3.0,Viola,0.1667,0.2381,55,0.7087
98.125,98.125,140.1786,34,3.0,Oboe 2,1.0,1.4286,67,1.0
98.125,98.125,140.1786,34,3.0,Violin 1,0.375,0.5357,81,0.4961
98.125,98.125,140.1786,34,3.0,Viola,0.1667,0.2381,52,0.7087
98.125,98.125,140.1786,34,3.0,Violoncello,0.1667,0.2381,45,1.0
98.125,98.125,140.1786,34,3.0,Violin 2,0.1667,0.2381,61,0.4961
98.125,98.125,140.1786,34,3.0,Contrabass,0.1667,0.2381,33,0.4961
98.2917,98.2917,140.4167,34,3.1667,Viola,0.1667,0.2381,52,0.7087
98.2917,98.2917,140.4167,34,3.1667,Viola,0.1667,0.2381,55,0.7087
98.2917,98.2917,140.4167,34,3.1667,Contrabass,0.1667,0.2381,33,0.4961
98.2917,98.2917,140.4167,34,3.1667,Violoncello,0.1667,0.2381,45,1.0
98.2917,98.2917,140.4167,34,3.1667,Violin 2,0.1667,0.2381,61,0.4961
98.4583,98.4583,140.6547,34,3.3333,Viola,0.1667,0.2381,55,0.7087
98.4583,98.4583,140.6547,34,3.3333,Violin 2,0.1667,0.2381,61,0.4961
98.4583,98.4583,140.6547,34,3.3333,Violoncello,0.1667,0.2381,45,1.0
98.4583,98.4583,140.6547,34,3.3333,Viola,0.1667,0.2381,52,0.7087
98.4583,98.4583,140.6547,34,3.3333,Contrabass,0.1667,0.2381,33,0.4961
98.5,98.5,140.7143,34,3.375,Violin 1,0.0625,0.0893,79,0.4961
98.5625,98.5625,140.8036,34,3.4375,Violin 1,0.0625,0.0893,78,0.4961
98.625,98.625,140.8929,34,3.5,Viola,0.1667,0.2381,55,0.7087
98.625,98.625,140.8929,34,3.5,Viola,0.1667,0.2381,52,0.7087
98.625,98.625,140.8929,34,3.5,Violoncello,0.1667,0.2381,45,1.0
98.625,98.625,140.8929,34,3.5,Contrabass,0.1667,0.2381,33,0.4961
98.625,98.625,140.8929,34,3.5,Violin 2,0.1667,0.2381,61,0.4961
98.625,98.625,140.8929,34,3.5,Violin 1,0.0625,0.0893,76,0.4961
98.6875,98.6875,140.9821,34,3.5625,Violin 1,0.0625,0.0893,74,0.4961
98.75,98.75,141.0714,34,3.625,Violin 1,0.0625,0.0893,73,0.4961
98.7917,98.7917,141.131,34,3.6667,Viola,0.1667,0.2381,52,0.7087
98.7917,98.7917,141.131,34,3.6667,Viola,0.1667,0.2381,55,0.7087
98.7917,98.7917,141.131,34,3.6667,Contrabass,0.1667,0.2381,33,0.4961
98.7917,98.7917,141.131,34,3.6667,Violoncello,0.1667,0.2381,45,1.0
98.7917,98.7917,141.131,34,3.6667,Violin 2,0.1667,0.2381,61,0.4961
98.8125,98.8125,141.1607,34,3.6875,Violin 1,0.0625,0.0893,71,0.4961
98.875,98.875,141.25,34,3.75,Violin 1,0.0625,0.0893,69,0.4961
98.9375,98.9375,141.3393,34,3.8125,Violin 1,0.0625,0.0893,67,0.4961
98.9583,98.9583,141.369,34,3.8333,Violin 2,0.1667,0.2381,61,0.4961
98.9583,98.9583,141.369,34,3.8333,Viola,0.1667,0.2381,52,0.7087
98.9583,98.9583,141.369,34,3.8333,Viola,0.1667,0.2381,55,0.7087
98.9583,98.9583,141.369,34,3.8333,Contrabass,0.1667,0.2381,33,0.4961
98.9583,98.9583,141.369,34,3.8333,Violoncello,0.1667,0.2381,45,1.0
99.0,99.0,141.4286,34,3.875,Violin 1,0.0625,0.0893,66,0.4961
99.0625,99.0625,141.5179,34,3.9375,Violin 1,0.0625,0.0893,64,0.4961
99.125,99.125,141.6071,35,1.0,D Horn 1,1.0,0.3,62,0.9921
99.125,99.125,141.6071,35,1.0,Oboe 1,1.0,0.3,74,0.9921
99.125,99.125,141.6071,35,1.0,Oboe 2,1.0,0.3,66,0.9921
99.125,99.125,141.6071,35,1.0,Violin 1,0.5,0.15,62,1.0
99.125,99.125,141.6071,35,1.0,D Horn 2,1.0,0.3,54,0.9921
99.125,99.125,141.6071,35,1.0,Viola,3.0,0.9,50,1.0
99.125,99.125,141.6071,35,1.0,Contrabass,1.0,0.3,38,1.0
99.125,99.125,141.6071,35,1.0,Violin 2,0.5,0.15,62,1.0
99.125,99.125,141.6071,35,1.0,Violoncello,3.0,0.9,50,1.0
99.625,99.625,141.7571,35,1.5,Violin 2,0.5,0.15,62,1.0
99.625,99.625,141.7571,35,1.5,Violin 1,0.5,0.15,62,1.0
100.125,100.125,141.9071,35,2.0,Violin 2,0.5,0.15,62,1.0
100.125,100.125,141.9071,35,2.0,Violin 1,0.5,0.15,62,1.0
100.625,100.625,142.0571,35,2.5,Violin 2,0.5,0.15,62,1.0
100.625,100.625,142.0571,35,2.5,Violin 1,0.5,0.15,62,1.0
101.125,101.125,142.2071,35,3.0,Violin 2,0.5,0.15,62,1.0
101.125,101.125,142.2071,35,3.0,Violin 1,0.5,0.15,62,1.0
101.625,101.625,142.3571,35,3.5,Violin 2,0.5,0.15,62,1.0
101.625,101.625,142.3571,35,3.5,Violin 1,0.5,0.15,62,1.0
102.125,102.125,142.5071,35,4.0,Violin 2,0.5,0.15,62,1.0
102.125,102.125,142.5071,35,4.0,Violin 1,0.5,0.15,62,1.0
102.125,102.125,142.5071,35,4.0,Violoncello,0.25,0.075,50,1.0
102.125,102.125,142.5071,35,4.0,Viola,0.25,0.075,50,1.0
102.375,102.375,142.5821,35,4.25,Viola,0.25,0.075,49,1.0
102.375,102.375,142.5821,35,4.25,Violoncello,0.25,0.075,49,1.0
102.625,102.625,142.6571,35,4.5,Violin 1,0.5,0.15,62,1.0
102.625,102.625,142.6571,35,4.5,Violin 2,0.5,0.15,62,1.0
102.625,102.625,142.6571,35,4.5,Viola,0.25,0.075,50,1.0
102.625,102.625,142.6571,35,4.5,Violoncello,0.25,0.075,50,1.0
102.875,102.875,142.7321,35,4.75,Violoncello,0.25,0.075,52,1.0
102.875,102.875,142.7321,35,4.75,Viola,0.25,0.075,52,1.0
103.125,103.125,142.8071,36,1.0,Violin 2,0.5,0.15,62,1.0
103.125,103.125,142.8071,36,1.0,Viola,3.0,0.9,54,1.0
103.125,103.125,142.8071,36,1.0,Violoncello,3.0,0.9,54,1.0
103.125,103.125,142.8071,36,1.0,Violin 1,0.5,0.15,62,1.0
103.625,103.625,142.9571,36,1.5,Violin 2,0.5,0.15,62,1.0
103.625,103.625,142.9571,36,1.5,Violin 1,0.5,0.15,62,1.0
104.125,104.125,143.1071,36,2.0,Violin 2,0.5,0.15,62,1.0
104.125,104.125,143.1071,36,2.0,Violin 1,0.5,0.15,62,1.0
104.625,104.625,143.2571,36,2.5,Violin 2,0.5,0.15,62,1.0
104.625,104.625,143.2571,36,2.5,Violin 1,0.5,0.15,62,1.0
105.125,105.125,143.4071,36,3.0,Violin 1,0.5,0.15,62,1.0
105.125,105.125,143.4071,36,3.0,Violin 2,0.5,0.15,62,1.0
105.625,105.625,143.5571,36,3.5,Violin 1,0.5,0.15,62,1.0
105.625,105.625,143.5571,36,3.5,Violin 2,0.5,0.15,62,1.0
106.125,106.125,143.7071,36,4.0,Viola,0.25,0.075,54,1.0
106.125,106.125,143.7071,36,4.0,Violin 1,0.5,0.15,62,1.0
106.125,106.125,143.7071,36,4.0,Violin 2,0.5,0.15,62,1.0
106.125,106.125,143.7071,36,4.0,Violoncello,0.25,0.075,54,1.0
106.375,106.375,143.7821,36,4.25,Viola,0.25,0.075,52,1.0
106.375,106.375,143.7821,36,4.25,Violoncello,0.25,0.075,52,1.0
106.625,106.625,143.8571,36,4.5,Violin 1,0.5,0.15,62,1.0
106.625,106.625,143.8571,36,4.5,Violin 2,0.5,0.15,62,1.0
106.625,106.625,143.8571,36,4.5,Violoncello,0.25,0.075,54,1.0
106.625,106.625,143.8571,36,4.5,Viola,0.25,0.075,54,1.0
106.875,106.875,143.9321,36,4.75,Violoncello,0.25,0.075,55,1.0
106.875,106.875,143.9321,36,4.75,Viola,0.25,0.075,55,1.0
107.125,107.125,144.0071,37,1.0,Viola,1.0,0.3,57,1.0
107.125,107.125,144.0071,37,1.0,Violin 2,0.5,0.15,62,1.0
107.125,107.125,144.0071,37,1.0,Violin 1,0.5,0.15,62,1.0
107.125,107.125,144.0071,37,1.0,Violoncello,1.0,0.3,57,1.0
107.625,107.625,144.1571,37,1.5,Violin 2,0.5,0.15,62,1.0
107.625,107.625,144.1571,37,1.5,Violin 1,0.5,0.15,62,1.0
108.125,108.125,144.3071,37,2.0,Violin 2,0.5,0.15,62,1.0
108.125,108.125,144.3071,37,2.0,Viola,1.0,0.3,57,1.0
108.125,108.125,144.3071,37,2.0,Violin 1,0.5,0.15,62,1.0
108.125,108.125,144.3071,37,2.0,Violoncello,1.0,0.3,57,1.0
108.625,108.625,144.4571,37,2.5,Violin 2,0.5,0.15,62,1.0
108.625,108.625,144.4571,37,2.5,Violin 1,0.5,0.15,62,1.0
109.125,109.125,144.6071,37,3.0,Violin 1,0.5,0.15,62,1.0
109.125,109.125,144.6071,37,3.0,Violoncello,1.0,0.3,54,1.0
109.125,109.125,144.6071,37,3.0,Viola,1.0,0.3,54,1.0
109.125,109.125,144.6071,37,3.0,Violin 2,0.5,0.15,62,1.0
109.625,109.625,144.7571,37,3.5,Violin 1,0.5,0.15,62,1.0
109.625,109.625,144.7571,37,3.5,Violin 2,0.5,0.15,62,1.0
110.125,110.125,144.9071,37,4.0,Violoncello,1.0,0.3,54,1.0
110.125,110.125,144.9071,37,4.0,Violin 2,0.5,0.15,62,1.0
110.125,110.125,144.9071,37,4.0,Viola,1.0,0.3,54,1.0
110.125,110.125,144.9071,37,4.0,Violin 1,0.5,0.15,62,1.0
110.625,110.625,145.0571,37,4.5,Violin 2,0.5,0.15,62,1.0
110.625,110.625,145.0571,37,4.5,Violin 1,0.5,0.15,62,1.0
111.125,111.125,145.2071,38,1.0,Bassoon 1,4.0,1.2,66,0.4961
111.125,111.125,145.2071,38,1.0,Oboe 2,4.0,1.2,74,0.4961
111.125,111.125,145.2071,38,1.0,Violin 1,0.25,0.075,78,1.0
111.125,111.125,145.2071,38,1.0,Violin 2,0.5,0.15,62,1.0
111.125,111.125,145.2071,38,1.0,Violoncello,1.0,0.3,50,1.0
111.125,111.125,145.2071,38,1.0,Oboe 1,4.0,1.2,78,0.4961
111.125,111.125,145.2071,38,1.0,D Horn 1,4.0,1.2,62,0.4961
111.125,111.125,145.2071,38,1.0,Viola,0.5,0.15,50,1.0
111.125,111.125,145.2071,38,1.0,Bassoon 2,4.0,1.2,62,0.4961
111.125,111.125,145.2071,38,1.0,D Horn 2,4.0,1.2,50,0.4961
111.375,111.375,145.2821,38,1.25,Violin 1,0.25,0.075,76,1.0
111.625,111.625,145.3571,38,1.5,Viola,0.5,0.15,66,1.0
111.625,111.625,145.3571,38,1.5,Violin 2,0.5,0.15,62,1.0
111.625,111.625,145.3571,38,1.5,Violin 1,0.25,0.075,74,1.0
111.875,111.875,145.4321,38,1.75,Violin 1,0.25,0.075,76,1.0
112.125,112.125,145.5071,38,2.0,Violin 1,0.25,0.075,78,1.0
112.125,112.125,145.5071,38,2.0,Viola,0.5,0.15,66,1.0
112.125,112.125,145.5071,38,2.0,Violin 2,0.5,0.15,62,1.0
112.375,112.375,145.5821,38,2.25,Violin 1,0.25,0.075,79,1.0
112.625,112.625,145.6571,38,2.5,Violin 2,0.5,0.15,62,1.0
112.625,112.625,145.6571,38,2.5,Viola,0.5,0.15,66,1.0
112.625,112.625,145.6571,38,2.5,Violin 1,0.25,0.075,81,1.0
112.875,112.875,145.7321,38,2.75,Violin 1,0.25,0.075,79,1.0
113.125,113.125,145.8071,38,3.0,Violin 2,0.5,0.15,62,1.0
113.125,113.125,145.8071,38,3.0,Viola,0.5,0.15,66,1.0
113.125,113.125,145.8071,38,3.0,Violin 1,0.25,0.075,78,1.0
113.375,113.375,145.8821,38,3.25,Violin 1,0.25,0.075,76,1.0
113.625,113.625,145.9571,38,3.5,Violin 1,0.25,0.075,74,1.0
113.625,113.625,145.9571,38,3.5,Violin 2,0.5,0.15,62,1.0
113.625,113.625,145.9571,38,3.5,Viola,0.5,0.15,66,1.0
113.875,113.875,146.0321,38,3.75,Violin 1,0.25,0.075,73,1.0
114.125,114.125,146.1071,38,4.0,Violin 2,0.5,0.15,62,1.0
114.125,114.125,146.1071,38,4.0,Viola,0.5,0.15,66,1.0
114.125,114.125,146.1071,38,4.0,Violin 1,0.25,0.075,71,1.0
114.375,114.375,146.1821,38,4.25,Violin 1,0.25,0.075,69,1.0
114.625,114.625,146.2571,38,4.5,Violin 2,0.5,0.15,62,1.0
114.625,114.625,146.2571,38,4.5,Violin 1,0.25,0.075,67,1.0
114.625,114.625,146.2571,38,4.5,Viola,0.5,0.15,66,1.0
114.875,114.875,146.3321,38,4.75,Violin 1,0.25,0.075,66,1.0
115.125,115.125,146.4071,39,1.0,D Horn 2,1.0,0.3,50,0.4961
115.125,115.125,146.4071,39,1.0,Bassoon 1,1.0,0.3,64,0.4961
115.125,115.125,146.4071,39,1.0,Contrabass,3.0,0.9,43,0.4961
115.125,115.125,146.4071,39,1.0,Viola,3.0,0.9,55,0.4961
115.125,115.125,146.4071,39,1.0,Violoncello,3.0,0.9,55,0.4961
115.125,115.125,146.4071,39,1.0,D Horn 1,1.0,0.3,62,0.4961
115.125,115.125,146.4071,39,1.0,Oboe 1,1.0,0.3,76,0.4961
115.125,115.125,146.4071,39,1.0,Oboe 2,1.0,0.3,74,0.4961
115.125,115.125,146.4071,39,1.0,Violin 2,0.5,0.15,59,0.7087
115.125,115.125,146.4071,39,1.0,Violin 2,0.5,0.15,62,0.7087
115.125,115.125,146.4071,39,1.0,Bassoon 2,1.0,0.3,62,0.4961
115.125,115.125,146.4071,39,1.0,Violin 1,0.5,0.15,64,0.4961
115.625,115.625,146.5571,39,1.5,Violin 1,0.5,0.15,64,0.4961
115.625,115.625,146.5571,39,1.5,Violin 2,0.5,0.15,59,0.7087
115.625,115.625,146.5571,39,1.5,Violin 2,0.5,0.15,62,0.7087
116.125,116.125,146.7071,39,2.0,Violin 2,0.5,0.15,59,0.7087
116.125,116.125,146.7071,39,2.0,Violin 2,0.5,0.15,62,0.7087
116.125,116.125,146.7071,39,2.0,Violin 1,0.5,0.15,64,0.4961
116.625,116.625,146.8571,39,2.5,Violin 1,0.5,0.15,64,0.4961
116.625,116.625,146.8571,39,2.5,Violin 2,0.5,0.15,59,0.7087
116.625,116.625,146.8571,39,2.5,Violin 2,0.5,0.15,62,0.7087
117.125,117.125,147.0071,39,3.0,Violin 2,0.5,0.15,59,0.7087
117.125,117.125,147.0071,39,3.0,Violin 2,0.5,0.15,62,0.7087
117.125,117.125,147.0071,39,3.0,Violin 1,0.5,0.15,64,0.4961
117.625,117.625,147.1571,39,3.5,Violin 2,0.5,0.15,59,0.7087
117.625,117.625,147.1571,39,3.5,Violin 2,0.5,0.15,62,0.7087
117.625,117.625,147.1571,39,3.5,Violin 1,0.5,0.15,64,0.4961
118.125,118.125,147.3071,39,4.0,Contrabass,0.25,0.075,43,0.4961
118.125,118.125,147.3071,39,4.0,Violin 1,0.5,0.15,64,0.4961
118.125,118.125,147.3071,39,4.0,Violoncello,0.25,0.075,55,0.4961
118.125,118.125,147.3071,39,4.0,Viola,0.25,0.075,55,0.4961
118.125,118.125,147.3071,39,4.0,Violin 2,0.5,0.15,59,0.7087
118.125,118.125,147.3071,39,4.0,Violin 2,0.5,0.15,62,0.7087
118.375,118.375,147.3821,39,4.25,Viola,0.25,0.075,54,0.4961
118.375,118.375,147.3821,39,4.25,Contrabass,0.25,0.075,42,0.4961
118.375,118.375,147.3821,39,4.25,Violoncello,0.25,0.075,54,0.4961
118.625,118.625,147.4571,39,4.5,Viola,0.25,0.075,55,0.4961
118.625,118.625,147.4571,39,4.5,Violin 2,0.5,0.15,59,0.7087
118.625,118.625,147.4571,39,4.5,Violin 1,0.5,0.15,64,0.4961
118.625,118.625,147.4571,39,4.5,Violoncello,0.25,0.075,55,0.4961
118.625,118.625,147.4571,39,4.5,Contrabass,0.25,0.075,43,0.4961
118.625,118.625,147.4571,39,4.5,Violin 2,0.5,0.15,62,0.7087
118.875,118.875,147.5321,39,4.75,Violoncello,0.25,0.075,57,0.4961
118.875,118.875,147.5321,39,4.75,Contrabass,0.25,0.075,45,0.4961
118.875,118.875,147.5321,39,4.75,Viola,0.25,0.075,57,0.4961
119.125,119.125,147.6071,40,1.0,Violoncello,3.0,0.9,59,0.4961
119.125,119.125,147.6071,40,1.0,Contrabass,3.0,0.9,47,0.4961
119.125,119.125,147.6071,40,1.0,Violin 2,0.5,0.15,59,0.7087
119.125,119.125,147.6071,40,1.0,Violin 2,0.5,0.15,62,0.7087
119.125,119.125,147.6071,40,1.0,Violin 1,0.5,0.15,64,0.4961
119.125,119.125,147.6071,40,1.0,Viola,3.0,0.9,59,0.4961
119.625,119.625,147.7571,40,1.5,Violin 2,0.5,0.15,59,0.7087
119.625,119.625,147.7571,40,1.5,Violin 1,0.5,0.15,64,0.4961
119.625,119.625,147.7571,40,1.5,Violin 2,0.5,0.15,62,0.7087
120.125,120.125,147.9071,40,2.0,Violin 2,0.5,0.15,59,0.7087
120.125,120.125,147.9071,40,2.0,Violin 2,0.5,0.15,62,0.7087
120.125,120.125,147.9071,40,2.0,Violin 1,0.5,0.15,64,0.4961
120.625,120.625,148.0571,40,2.5,Violin 1,0.5,0.15,64,0.4961
120.625,120.625,148.0571,40,2.5,Violin 2,0.5,0.15,59,0.7087
120.625,120.625,148.0571,40,2.5,Violin 2,0.5,0.15,62,0.7087
121.125,121.125,148.2071,40,3.0,Violin 1,0.5,0.15,64,0.4961
121.125,121.125,148.2071,40,3.0,Violin 2,0.5,0.15,62,0.7087
121.125,121.125,148.2071,40,3.0,Violin 2,0.5,0.15,59,0.7087
121.625,121.625,148.3571,40,3.5,Violin 1,0.5,0.15,64,0.4961
121.625,121.625,148.3571,40,3.5,Violin 2,0.5,0.15,62,0.7087
121.625,121.625,148.3571,40,3.5,Violin 2,0.5,0.15,59,0.7087
122.125,122.125,148.5071,40,4.0,Violin 1,0.5,0.15,64,0.4961
122.125,122.125,148.5071,40,4.0,Contrabass,0.25,0.075,47,0.4961
122.125,122.125,148.5071,40,4.0,Violoncello,0.25,0.075,59,0.4961
122.125,122.125,148.5071,40,4.0,Viola,0.25,0.075,59,0.4961
122.125,122.125,148.5071,40,4.0,Violin 2,0.5,0.15,59,0.7087
122.125,122.125,148.5071,40,4.0,Violin 2,0.5,0.15,62,0.7087
122.375,122.375,148.5821,40,4.25,Contrabass,0.25,0.075,46,0.4961
122.375,122.375,148.5821,40,4.25,Viola,0.25,0.075,58,0.4961
122.375,122.375,148.5821,40,4.25,Violoncello,0.25,0.075,58,0.4961
122.625,122.625,148.6571,40,4.5,Violin 2,0.5,0.15,59,0.7087
122.625,122.625,148.6571,40,4.5,Violin 2,0.5,0.15,62,0.7087
122.625,122.625,148.6571,40,4.5,Contrabass,0.25,0.075,47,0.4961
122.625,122.625,148.6571,40,4.5,Violin 1,0.5,0.15,64,0.4961
122.625,122.625,148.6571,40,4.5,Violoncello,0.25,0.075,59,0.4961
122.625,122.625,148.6571,40,4.5,Viola,0.25,0.075,59,0.4961
122.875,122.875,148.7321,40,4.75,Contrabass,0.25,0.075,49,0.4961
122.875,122.875,148.7321,40,4.75,Viola,0.25,0.075,61,0.4961
122.875,122.875,148.7321,40,4.75,Violoncello,0.25,0.075,61,0.4961
123.125,123.125,148.8071,41,1.0,Violin 2,0.5,0.15,62,0.7087
123.125,123.125,148.8071,41,1.0,Violin 2,0.5,0.15,59,0.7087
123.125,123.125,148.8071,41,1.0,Viola,1.0,0.3,62,0.5461
123.125,123.125,148.8071,41,1.0,Contrabass,1.0,0.3,50,0.5461
123.125,123.125,148.8071,41,1.0,Violoncello,1.0,0.3,62,0.5461
123.125,123.125,148.8071,41,1.0,Violin 1,0.5,0.15,64,0.4961
123.625,123.625,148.9571,41,1.5,Violin 1,0.5,0.15,64,0.4961
123.625,123.625,148.9571,41,1.5,Violin 2,0.5,0.15,59,0.7087
123.625,123.625,148.9571,41,1.5,Violin 2,0.5,0.15,62,0.7087
124.125,124.125,149.1071,41,2.0,Contrabass,1.0,0.3,50,0.5461
124.125,124.125,149.1071,41,2.0,Violin 2,0.5,0.15,59,0.7087
124.125,124.125,149.1071,41,2.0,Violin 2,0.5,0.15,62,0.7087
124.125,124.125,149.1071,41,2.0,Violoncello,1.0,0.3,62,0.5461
124.125,124.125,149.1071,41,2.0,Violin 1,0.5,0.15,64,0.4961
124.125,124.125,149.1071,41,2.0,Viola,1.0,0.3,62,0.5461
124.625,124.625,149.2571,41,2.5,Violin 2,0.5,0.15,59,0.7087
124.625,124.625,149.2571,41,2.5,Violin 2,0.5,0.15,62,0.7087
124.625,124.625,149.2571,41,2.5,Violin 1,0.5,0.15,64,0.4961
125.125,125.125,149.4071,41,3.0,Viola,1.0,0.3,59,0.5461
125.125,125.125,149.4071,41,3.0,Contrabass,1.0,0.3,47,0.5461
125.125,125.125,149.4071,41,3.0,Violoncello,1.0,0.3,59,0.5461
125.125,125.125,149.4071,41,3.0,Violin 2,0.5,0.15,62,0.7087
125.125,125.125,149.4071,41,3.0,Violin 1,0.5,0.15,64,0.4961
125.125,125.125,149.4071,41,3.0,Violin 2,0.5,0.15,59,0.7087
125.625,125.625,149.5571,41,3.5,Violin 1,0.5,0.15,64,0.4961
125.625,125.625,149.5571,41,3.5,Violin 2,0.5,0.15,62,0.7087
125.625,125.625,149.5571,41,3.5,Violin 2,0.5,0.15,59,0.7087
126.125,126.125,149.7071,41,4.0,Violin 2,0.5,0.15,59,0.7087
126.125,126.125,149.7071,41,4.0,Violin 2,0.5,0.15,62,0.7087
126.125,126.125,149.7071,41,4.0,Violoncello,1.0,0.3,59,0.5461
126.125,126.125,149.7071,41,4.0,Viola,1.0,0.3,59,0.5461
126.125,126.125,149.7071,41,4.0,Contrabass,1.0,0.3,47,0.5461
126.125,126.125,149.7071,41,4.0,Violin 1,0.5,0.15,64,0.4961
126.625,126.625,149.8571,41,4.5,Violin 1,0.5,0.15,64,0.4961
126.625,126.625,149.8571,41,4.5,Violin 2,0.5,0.15,59,0.7087
126.625,126.625,149.8571,41,4.5,Violin 2,0.5,0.15,62,0.7087
127.125,127.125,150.0071,42,1.0,Oboe 1,3.0,0.9,76,0.4961
127.125,127.125,150.0071,42,1.0,Violin 2,0.5,0.15,62,0.7087
127.125,127.125,150.0071,42,1.0,Violoncello,1.0,0.3,56,0.4961
127.125,127.125,150.0071,42,1.0,Bassoon 1,3.0,0.9,64,0.4961
127.125,127.125,150.0071,42,1.0,Violin 2,0.5,0.15,59,0.7087
127.125,127.125,150.0071,42,1.0,Viola,1.0,0.3,56,0.4961
127.125,127.125,150.0071,42,1.0,Contrabass,1.0,0.3,44,0.4961
127.125,127.125,150.0071,42,1.0,D Horn 1,4.0,1.2,62,0.4961
127.125,127.125,150.0071,42,1.0,Violin 1,0.5,0.15,64,0.4961
127.125,127.125,150.0071,42,1.0,D Horn 2,4.0,1.2,50,0.4961
127.625,127.625,150.1571,42,1.5,Violin 2,0.5,0.15,62,0.7087
127.625,127.625,150.1571,42,1.5,Violin 2,0.5,0.15,59,0.7087
127.625,127.625,150.1571,42,1.5,Violin 1,0.5,0.15,64,0.4961
128.125,128.125,150.3071,42,2.0,Violin 2,0.5,0.15,62,0.7087
128.125,128.125,150.3071,42,2.0,Violin 2,0.5,0.15,59,0.7087
128.125,128.125,150.3071,42,2.0,Violin 1,0.5,0.15,64,0.4961
128.625,128.625,150.4571,42,2.5,Violin 2,0.5,0.15,62,0.7087
128.625,128.625,150.4571,42,2.5,Violin 2,0.5,0.15,59,0.7087
128.625,128.625,150.4571,42,2.5,Violin 1,0.5,0.15,64,0.4961
129.125,129.125,150.6071,42,3.0,Violin 1,0.5,0.15,64,0.4961
129.125,129.125,150.6071,42,3.0,Violin 2,0.5,0.15,59,0.7087
129.125,129.125,150.6071,42,3.0,Violin 2,0.5,0.15,62,0.7087
129.625,129.625,150.7571,42,3.5,Violin 2,0.5,0.15,62,0.7087
129.625,129.625,150.7571,42,3.5,Violin 1,0.5,0.15,64,0.4961
129.625,129.625,150.7571,42,3.5,Violin 2,0.5,0.15,59,0.7087
130.125,130.125,150.9071,42,4.0,Violin 2,0.5,0.15,62,0.7087
130.125,130.125,150.9071,42,4.0,Oboe 1,1.0,0.3,77,0.4961
130.125,130.125,150.9071,42,4.0,Bassoon 1,1.0,0.3,65,0.4961
130.125,130.125,150.9071,42,4.0,Violin 2,0.5,0.15,59,0.7087
130.125,130.125,150.9071,42,4.0,Violin 1,0.5,0.15,65,0.4961
130.625,130.625,151.0571,42,4.5,Violin 1,0.5,0.15,65,0.4961
130.625,130.625,151.0571,42,4.5,Violin 2,0.5,0.15,59,0.7087
130.625,130.625,151.0571,42,4.5,Violin 2,0.5,0.15,62,0.7087
131.125,131.125,151.2071,43,1.0,Bassoon 1,1.0,0.3,66,0.4961
131.125,131.125,151.2071,43,1.0,Oboe 1,1.0,0.3,78,0.4961
131.125,131.125,151.2071,43,1.0,Violin 2,0.5,0.15,62,0.7087
131.125,131.125,151.2071,43,1.0,Violin 2,0.5,0.15,60,0.7087
131.125,131.125,151.2071,43,1.0,D Horn 2,4.0,1.2,50,0.4961
131.125,131.125,151.2071,43,1.0,Contrabass,1.0,0.3,50,0.5461
131.125,131.125,151.2071,43,1.0,D Horn 1,4.0,1.2,62,0.4961
131.125,131.125,151.2071,43,1.0,Violin 1,2.0,0.6,66,0.4961
131.125,131.125,151.2071,43,1.0,Violoncello,1.0,0.3,62,0.5461
131.125,131.125,151.2071,43,1.0,Viola,1.0,0.3,62,0.5461
131.625,131.625,151.3571,43,1.5,Violin 2,0.5,0.15,60,0.7087
131.625,131.625,151.3571,43,1.5,Violin 2,0.5,0.15,62,0.7087
132.125,132.125,151.5071,43,2.0,Violin 2,0.5,0.15,62,0.7087
132.125,132.125,151.5071,43,2.0,Violoncello,1.0,0.3,62,0.5461
132.125,132.125,151.5071,43,2.0,Viola,1.0,0.3,62,0.5461
132.125,132.125,151.5071,43,2.0,Violin 2,0.5,0.15,60,0.7087
132.125,132.125,151.5071,43,2.0,Contrabass,1.0,0.3,50,0.5461
132.625,132.625,151.6571,43,2.5,Violin 2,0.5,0.15,62,0.7087
132.625,132.625,151.6571,43,2.5,Violin 2,0.5,0.15,60,0.7087
133.125,133.125,151.8071,43,3.0,Violin 1,2.0,0.6,66,0.4961
133.125,133.125,151.8071,43,3.0,Viola,1.0,0.3,60,0.5461
133.125,133.125,151.8071,43,3.0,Violoncello,1.0,0.3,60,0.5461
133.125,133.125,151.8071,43,3.0,Contrabass,1.0,0.3,48,0.5461
133.125,133.125,151.8071,43,3.0,Violin 2,0.5,0.15,62,0.7087
133.125,133.125,151.8071,43,3.0,Violin 2,0.5,0.15,60,0.7087
133.625,133.625,151.9571,43,3.5,Violin 2,0.5,0.15,60,0.7087
133.625,133.625,151.9571,43,3.5,Violin 2,0.5,0.15,62,0.7087
134.125,134.125,152.1071,43,4.0,Violin 2,0.5,0.15,60,0.7087
134.125,134.125,152.1071,43,4.0,Violin 2,0.5,0.15,62,0.7087
134.125,134.125,152.1071,43,4.0,Violoncello,1.0,0.3,60,0.5461
134.125,134.125,152.1071,43,4.0,Viola,1.0,0.3,60,0.5461
134.125,134.125,152.1071,43,4.0,Contrabass,1.0,0.3,48,0.5461
134.625,134.625,152.2571,43,4.5,Violin 2,0.5,0.15,60,0.7087
134.625,134.625,152.2571,43,4.5,Violin 2,0.5,0.15,62,0.7087
135.125,135.125,152.4071,44,1.0,Viola,1.0,0.3,57,0.5461
135.125,135.125,152.4071,44,1.0,Violin 1,2.0,0.6,66,0.4961
135.125,135.125,152.4071,44,1.0,D Horn 2,4.0,1.2,50,0.4961
135.125,135.125,152.4071,44,1.0,Contrabass,1.0,0.3,45,0.5461
135.125,135.125,152.4071,44,1.0,Bassoon 1,3.0,0.9,66,0.4961
135.125,135.125,152.4071,44,1.0,Oboe 1,3.0,0.9,78,0.4961
135.125,135.125,152.4071,44,1.0,Violin 2,0.5,0.15,60,0.7087
135.125,135.125,152.4071,44,1.0,Violin 2,0.5,0.15,62,0.7087
135.125,135.125,152.4071,44,1.0,Violoncello,1.0,0.3,57,0.5461
135.125,135.125,152.4071,44,1.0,D Horn 1,4.0,1.2,62,0.4961
135.625,135.625,152.5571,44,1.5,Violin 2,0.5,0.15,60,0.7087
135.625,135.625,152.5571,44,1.5,Violin 2,0.5,0.15,62,0.7087
136.125,136.125,152.7071,44,2.0,Violin 2,0.5,0.15,60,0.7087
136.125,136.125,152.7071,44,2.0,Violin 2,0.5,0.15,62,0.7087
136.625,136.625,152.8571,44,2.5,Violin 2,0.5,0.15,62,0.7087
136.625,136.625,152.8571,44,2.5,Violin 2,0.5,0.15,60,0.7087
137.125,137.125,153.0071,44,3.0,Violin 2,0.5,0.15,62,0.7087
137.125,137.125,153.0071,44,3.0,Violin 2,0.5,0.15,60,0.7087
137.125,137.125,153.0071,44,3.0,Violin 1,2.0,0.6,66,0.4961
137.625,137.625,153.1571,44,3.5,Violin 2,0.5,0.15,60,0.7087
137.625,137.625,153.1571,44,3.5,Violin 2,0.5,0.15,62,0.7087
138.125,138.125,153.3071,44,4.0,Violin 2,0.5,0.15,60,0.7087
138.125,138.125,153.3071,44,4.0,Violin 2,0.5,0.15,62,0.7087
138.125,138.125,153.3071,44,4.0,Oboe 1,1.0,0.3,78,0.4961
138.125,138.125,153.3071,44,4.0,Bassoon 1,1.0,0.3,66,0.4961
138.625,138.625,153.4571,44,4.5,Violin 2,0.5,0.15,60,0.7087
138.625,138.625,153.4571,44,4.5,Violin 2,0.5,0.15,62,0.7087
139.125,139.125,153.6071,45,1.0,D Horn 2,1.0,0.3,50,0.4961
139.125,139.125,153.6071,45,1.0,Oboe 1,1.0,0.3,81,0.4961
139.125,139.125,153.6071,45,1.0,D Horn 1,1.0,0.3,62,0.4961
139.125,139.125,153.6071,45,1.0,Violoncello,1.0,0.3,59,0.4961
139.125,139.125,153.6071,45,1.0,Contrabass,1.0,0.3,47,0.4961
139.125,139.125,153.6071,45,1.0,Violin 1,0.5,0.15,69,0.4961
139.125,139.125,153.6071,45,1.0,Bassoon 1,1.0,0.3,69,0.4961
139.625,139.625,153.7571,45,1.5,Viola,0.5,0.15,59,0.5461
139.625,139.625,153.7571,45,1.5,Violin 2,0.5,0.15,62,0.5461
139.625,139.625,153.7571,45,1.5,Violin 1,0.5,0.15,67,0.4961
140.125,140.125,153.9071,45,2.0,Violin 2,0.5,0.15,62,0.5461
140.125,140.125,153.9071,45,2.0,Bassoon 1,2.0,0.6,67,0.4961
140.125,140.125,153.9071,45,2.0,Violin 1,0.5,0.15,67,0.5461
140.125,140.125,153.9071,45,2.0,Oboe 1,2.0,0.6,79,0.4961
140.125,140.125,153.9071,45,2.0,Viola,0.5,0.15,59,0.5461
140.625,140.625,154.0571,45,2.5,Viola,0.5,0.15,59,0.5461
140.625,140.625,154.0571,45,2.5,Violin 2,0.5,0.15,62,0.5461
140.625,140.625,154.0571,45,2.5,Violin 1,0.5,0.15,67,0.5461
141.125,141.125,154.2071,45,3.0,Contrabass,1.0,0.3,45,0.4961
141.125,141.125,154.2071,45,3.0,Violoncello,1.0,0.3,57,0.4961
141.625,141.625,154.3571,45,3.5,Viola,0.5,0.15,57,0.7087
141.625,141.625,154.3571,45,3.5,Violin 1,0.5,0.15,66,0.5461
141.625,141.625,154.3571,45,3.5,Viola,0.5,0.15,60,0.7087
141.625,141.625,154.3571,45,3.5,Violin 2,0.5,0.15,63,0.5461
142.125,142.125,154.5071,45,4.0,Violin 1,0.5,0.15,66,0.5461
142.125,142.125,154.5071,45,4.0,Oboe 1,1.0,0.3,78,0.4961
142.125,142.125,154.5071,45,4.0,Viola,0.5,0.15,60,0.7087
142.125,142.125,154.5071,45,4.0,Violin 2,0.5,0.15,63,0.5461
142.125,142.125,154.5071,45,4.0,Viola,0.5,0.15,57,0.7087
142.125,142.125,154.5071,45,4.0,Bassoon 1,1.0,0.3,66,0.4961
142.625,142.625,154.6571,45,4.5,Violin 1,0.5,0.15,66,0.5461
142.625,142.625,154.6571,45,4.5,Viola,0.5,0.15,60,0.7087
142.625,142.625,154.6571,45,4.5,Viola,0.5,0.15,57,0.7087
142.625,142.625,154.6571,45,4.5,Violin 2,0.5,0.15,63,0.5461
143.125,143.125,154.8071,46,1.0,Bassoon 1,1.0,0.3,66,0.4961
143.125,143.125,154.8071,46,1.0,Oboe 1,1.0,0.3,78,0.4961
143.125,143.125,154.8071,46,1.0,Violoncello,1.0,0.3,55,0.4961
143.125,143.125,154.8071,46,1.0,Contrabass,1.0,0.3,43,0.4961
143.625,143.625,154.9571,46,1.5,Violin 1,0.5,0.15,64,0.5461
143.625,143.625,154.9571,46,1.5,Viola,0.5,0.15,55,0.5461
143.625,143.625,154.9571,46,1.5,Violin 2,0.5,0.15,59,0.5461
144.125,144.125,155.1071,46,2.0,Oboe 1,2.0,0.6,76,0.4961
144.125,144.125,155.1071,46,2.0,Bassoon 1,2.0,0.6,64,0.4961
144.125,144.125,155.1071,46,2.0,Viola,0.5,0.15,55,0.5461
144.125,144.125,155.1071,46,2.0,Violin 2,0.5,0.15,59,0.5461
144.125,144.125,155.1071,46,2.0,Violin 1,0.5,0.15,64,0.5461
144.625,144.625,155.2571,46,2.5,Violin 2,0.5,0.15,59,0.5461
144.625,144.625,155.2571,46,2.5,Viola,0.5,0.15,55,0.5461
144.625,144.625,155.2571,46,2.5,Violin 1,0.5,0.15,64,0.5461
145.125,145.125,155.4071,46,3.0,Violoncello,1.0,0.3,54,0.4961
145.125,145.125,155.4071,46,3.0,Contrabass,1.0,0.3,42,0.4961
145.625,145.625,155.5571,46,3.5,Violin 1,0.5,0.15,63,0.5461
145.625,145.625,155.5571,46,3.5,Violin 2,0.5,0.15,60,0.5461
145.625,145.625,155.5571,46,3.5,Viola,0.5,0.15,54,0.7087
145.625,145.625,155.5571,46,3.5,Viola,0.5,0.15,57,0.7087
146.125,146.125,155.7071,46,4.0,Violin 2,0.5,0.15,60,0.5461
146.125,146.125,155.7071,46,4.0,Violin 1,0.5,0.15,63,0.5461
146.125,146.125,155.7071,46,4.0,Oboe 1,1.0,0.3,75,0.4961
146.125,146.125,155.7071,46,4.0,Viola,0.5,0.15,54,0.7087
146.125,146.125,155.7071,46,4.0,Viola,0.5,0.15,57,0.7087
146.125,146.125,155.7071,46,4.0,Bassoon 1,1.0,0.3,63,0.4961
146.625,146.625,155.8571,46,4.5,Viola,0.5,0.15,57,0.7087
146.625,146.625,155.8571,46,4.5,Violin 1,0.5,0.15,63,0.5461
146.625,146.625,155.8571,46,4.5,Viola,0.5,0.15,54,0.7087
146.625,146.625,155.8571,46,4.5,Violin 2,0.5,0.15,60,0.5461
147.125,147.125,156.0071,47,1.0,Violin 2,0.5,0.15,59,0.5461
147.125,147.125,156.0071,47,1.0,Violin 1,1.0,0.3,64,0.5461
147.125,147.125,156.0071,47,1.0,Viola,0.5,0.15,55,0.4961
147.125,147.125,156.0071,47,1.0,Bassoon 1,1.0,0.3,63,0.4961
147.125,147.125,156.0071,47,1.0,Oboe 1,1.0,0.3,75,0.4961
147.125,147.125,156.0071,47,1.0,Violoncello,1.0,0.3,55,0.4961
147.125,147.125,156.0071,47,1.0,Contrabass,1.0,0.3,43,0.4961
147.625,147.625,156.1571,47,1.5,Violin 2,0.5,0.15,71,0.4961
147.625,147.625,156.1571,47,1.5,Viola,0.5,0.15,59,0.4961
148.125,148.125,156.3071,47,2.0,Contrabass,1.0,0.3,40,0.4961
148.125,148.125,156.3071,47,2.0,Violoncello,1.0,0.3,52,0.4961
148.125,148.125,156.3071,47,2.0,Violin 1,1.0,0.3,76,0.4961
148.125,148.125,156.3071,47,2.0,Viola,0.5,0.15,55,0.4961
148.125,148.125,156.3071,47,2.0,Bassoon 1,1.0,0.3,64,0.4961
148.125,148.125,156.3071,47,2.0,Oboe 1,1.0,0.3,76,0.4961
148.125,148.125,156.3071,47,2.0,Violin 2,0.5,0.15,67,0.4961
148.625,148.625,156.4571,47,2.5,Violin 2,0.5,0.15,71,0.4961
148.625,148.625,156.4571,47,2.5,Viola,0.5,0.15,59,0.4961
149.125,149.125,156.6071,47,3.0,Viola,0.5,0.15,52,0.4961
149.125,149.125,156.6071,47,3.0,Contrabass,1.0,0.3,45,0.4961
149.125,149.125,156.6071,47,3.0,Violin 2,0.5,0.15,64,0.4961
149.125,149.125,156.6071,47,3.0,Oboe 1,1.0,0.3,79,0.4961
149.125,149.125,156.6071,47,3.0,Violoncello,1.0,0.3,57,0.4961
149.125,149.125,156.6071,47,3.0,Bassoon 1,1.0,0.3,67,0.4961
149.125,149.125,156.6071,47,3.0,Violin 1,1.0,0.3,79,0.4961
149.625,149.625,156.7571,47,3.5,Viola,0.5,0.15,55,0.4961
149.625,149.625,156.7571,47,3.5,Violin 2,0.5,0.15,67,0.4961
150.125,150.125,156.9071,47,4.0,Violin 1,1.0,0.3,73,0.4961
150.125,150.125,156.9071,47,4.0,Violoncello,1.0,0.3,45,0.4961
150.125,150.125,156.9071,47,4.0,Bassoon 1,1.0,0.3,61,0.4961
150.125,150.125,156.9071,47,4.0,Viola,0.5,0.15,52,0.4961
150.125,150.125,156.9071,47,4.0,Oboe 1,1.0,0.3,73,0.4961
150.125,150.125,156.9071,47,4.0,Contrabass,1.0,0.3,33,0.4961
150.125,150.125,156.9071,47,4.0,Violin 2,0.5,0.15,64,0.4961
150.625,150.625,157.0571,47,4.5,Viola,0.5,0.15,55,0.4961
150.625,150.625,157.0571,47,4.5,Violin 2,0.5,0.15,67,0.4961
151.125,151.125,157.2071,48,1.0,Violin 2,0.25,0.075,66,0.9921
151.125,151.125,157.2071,48,1.0,D Horn 2,4.0,1.2,50,0.9921
151.125,151.125,157.2071,48,1.0,Flute 1,4.0,1.2,86,0.9921
151.125,151.125,157.2071,48,1.0,Oboe 1,4.0,1.2,74,0.9921
151.125,151.125,157.2071,48,1.0,Flute 2,4.0,1.2,86,0.9921
151.125,151.125,157.2071,48,1.0,Violoncello,3.0,0.9,50,0.9921
151.125,151.125,157.2071,48,1.0,D Trumpet 1,4.0,1.2,74,0.9921
151.125,151.125,157.2071,48,1.0,Viola,1.0,0.3,54,0.9921
151.125,151.125,157.2071,48,1.0,A Clarinet 1,4.0,1.2,74,0.9921
151.125,151.125,157.2071,48,1.0,D Horn 1,4.0,1.2,62,0.9921
151.125,151.125,157.2071,48,1.0,Oboe 2,4.0,1.2,74,0.9921
151.125,151.125,157.2071,48,1.0,Bassoon 1,3.0,0.9,62,0.9921
151.125,151.125,157.2071,48,1.0,Contrabass,3.0,0.9,38,0.9921
151.125,151.125,157.2071,48,1.0,Timpani,3.0,0.9,50,0.9921
151.125,151.125,157.2071,48,1.0,Violin 1,3.0,0.9,62,0.7087
151.125,151.125,157.2071,48,1.0,Bassoon 2,3.0,0.9,50,0.9921
151.125,151.125,157.2071,48,1.0,D Trumpet 2,4.0,1.2,62,0.9921
151.125,151.125,157.2071,48,1.0,A Clarinet 2,4.0,1.2,62,0.9921
151.125,151.125,157.2071,48,1.0,Violin 1,3.0,0.9,74,0.7087
151.375,151.375,157.2821,48,1.25,Violin 2,0.25,0.075,74,0.7087
151.375,151.375,157.2821,48,1.25,Violin 2,0.25,0.075,62,0.7087
151.625,151.625,157.3571,48,1.5,Violin 2,0.25,0.075,62,0.7087
151.625,151.625,157.3571,48,1.5,Violin 2,0.25,0.075,74,0.7087
151.875,151.875,157.4321,48,1.75,Violin 2,0.25,0.075,62,0.7087
151.875,151.875,157.4321,48,1.75,Violin 2,0.25,0.075,74,0.7087
152.125,152.125,157.5071,48,2.0,Violin 2,1.0,0.3,62,0.7087
152.125,152.125,157.5071,48,2.0,Violin 2,1.0,0.3,74,0.7087
153.125,153.125,157.8071,48,3.0,Violin 2,2.0,0.6,62,0.7087
153.125,153.125,157.8071,48,3.0,Violin 2,2.0,0.6,74,0.7087
154.125,154.125,158.1071,48,4.0,Contrabass,0.25,0.075,38,0.9921
154.125,154.125,158.1071,48,4.0,Bassoon 2,0.25,0.075,50,0.9921
154.125,154.125,158.1071,48,4.0,Violin 1,0.25,0.075,74,0.9921
154.125,154.125,158.1071,48,4.0,Timpani,0.25,0.075,50,0.9921
154.125,154.125,158.1071,48,4.0,Bassoon 1,0.25,0.075,50,0.9921
154.125,154.125,158.1071,48,4.0,Violoncello,0.25,0.075,50,0.9921
154.125,154.125,158.1071,48,4.0,Viola,0.25,0.075,62,0.9921
154.375,154.375,158.1821,48,4.25,Bassoon 1,0.25,0.075,49,0.9921
154.375,154.375,158.1821,48,4.25,Violoncello,0.25,0.075,49,0.9921
154.375,154.375,158.1821,48,4.25,Timpani,0.25,0.075,50,0.9921
154.375,154.375,158.1821,48,4.25,Violin 1,0.25,0.075,73,0.9921
154.375,154.375,158.1821,48,4.25,Viola,0.25,0.075,61,0.9921
154.375,154.375,158.1821,48,4.25,Contrabass,0.25,0.075,37,0.9921
154.375,154.375,158.1821,48,4.25,Bassoon 2,0.25,0.075,49,0.9921
154.625,154.625,158.2571,48,4.5,Contrabass,0.25,0.075,38,0.9921
154.625,154.625,158.2571,48,4.5,Violoncello,0.25,0.075,50,0.9921
154.625,154.625,158.2571,48,4.5,Bassoon 1,0.25,0.075,50,0.9921
154.625,154.625,158.2571,48,4.5,Viola,0.25,0.075,62,0.9921
154.625,154.625,158.2571,48,4.5,Timpani,0.25,0.075,50,0.9921
154.625,154.625,158.2571,48,4.5,Bassoon 2,0.25,0.075,50,0.9921
154.625,154.625,158.2571,48,4.5,Violin 1,0.25,0.075,74,0.9921
154.875,154.875,158.3321,48,4.75,Timpani,0.25,0.075,50,0.9921
154.875,154.875,158.3321,48,4.75,Viola,0.25,0.075,64,0.9921
154.875,154.875,158.3321,48,4.75,Violoncello,0.25,0.075,52,0.9921
154.875,154.875,158.3321,48,4.75,Violin 1,0.25,0.075,76,0.9921
154.875,154.875,158.3321,48,4.75,Contrabass,0.25,0.075,40,0.9921
154.875,154.875,158.3321,48,4.75,Bassoon 1,0.25,0.075,52,0.9921
154.875,154.875,158.3321,48,4.75,Bassoon 2,0.25,0.075,52,0.9921
155.125,155.125,158.4071,49,1.0,Contrabass,3.0,0.9,42,1.0
155.125,155.125,158.4071,49,1.0,Violoncello,3.0,0.9,54,1.0
155.125,155.125,158.4071,49,1.0,Flute 1,4.0,1.2,86,1.0
155.125,155.125,158.4071,49,1.0,Bassoon 1,3.0,0.9,54,1.0
155.125,155.125,158.4071,49,1.0,D Trumpet 1,4.0,1.2,74,1.0
155.125,155.125,158.4071,49,1.0,D Horn 1,4.0,1.2,62,1.0
155.125,155.125,158.4071,49,1.0,A Clarinet 1,4.0,1.2,74,1.0
155.125,155.125,158.4071,49,1.0,Timpani,3.0,0.9,50,1.0
155.125,155.125,158.4071,49,1.0,Oboe 1,4.0,1.2,74,1.0
155.125,155.125,158.4071,49,1.0,D Trumpet 2,4.0,1.2,62,1.0
155.125,155.125,158.4071,49,1.0,Violin 2,2.0,0.6,62,0.7087
155.125,155.125,158.4071,49,1.0,Violin 2,2.0,0.6,74,0.7087
155.125,155.125,158.4071,49,1.0,A Clarinet 2,4.0,1.2,62,1.0
155.125,155.125,158.4071,49,1.0,Flute 2,4.0,1.2,86,1.0
155.125,155.125,158.4071,49,1.0,D Horn 2,4.0,1.2,50,1.0
155.125,155.125,158.4071,49,1.0,Violin 1,3.0,0.9,78,1.0
155.125,155.125,158.4071,49,1.0,Viola,3.0,0.9,66,1.0
155.125,155.125,158.4071,49,1.0,Bassoon 2,3.0,0.9,54,1.0
155.125,155.125,158.4071,49,1.0,Oboe 2,4.0,1.2,74,1.0
157.125,157.125,159.0071,49,3.0,Violin 2,2.0,0.6,74,0.7087
157.125,157.125,159.0071,49,3.0,Violin 2,2.0,0.6,62,0.7087
158.125,158.125,159.3071,49,4.0,Viola,0.25,0.075,66,1.0
158.125,158.125,159.3071,49,4.0,Violin 1,0.25,0.075,78,1.0
158.125,158.125,159.3071,49,4.0,Violoncello,0.25,0.075,54,1.0
158.125,158.125,159.3071,49,4.0,Bassoon 2,0.25,0.075,54,1.0
158.125,158.125,159.3071,49,4.0,Bassoon 1,0.25,0.075,54,1.0
158.125,158.125,159.3071,49,4.0,Timpani,0.25,0.075,50,1.0
158.125,158.125,159.3071,49,4.0,Contrabass,0.25,0.075,42,1.0
158.375,158.375,159.3821,49,4.25,Violoncello,0.25,0.075,52,1.0
158.375,158.375,159.3821,49,4.25,Timpani,0.25,0.075,50,1.0
158.375,158.375,159.3821,49,4.25,Contrabass,0.25,0.075,40,1.0
158.375,158.375,159.3821,49,4.25,Bassoon 2,0.25,0.075,52,1.0
158.375,158.375,159.3821,49,4.25,Violin 1,0.25,0.075,76,1.0
158.375,158.375,159.3821,49,4.25,Bassoon 1,0.25,0.075,52,1.0
158.375,158.375,159.3821,49,4.25,Viola,0.25,0.075,64,1.0
158.625,158.625,159.4571,49,4.5,Viola,0.25,0.075,66,1.0
158.625,158.625,159.4571,49,4.5,Bassoon 2,0.25,0.075,54,1.0
158.625,158.625,159.4571,49,4.5,Timpani,0.25,0.075,50,1.0
158.625,158.625,159.4571,49,4.5,Contrabass,0.25,0.075,42,1.0
158.625,158.625,159.4571,49,4.5,Violoncello,0.25,0.075,54,1.0
158.625,158.625,159.4571,49,4.5,Violin 1,0.25,0.075,78,1.0
158.625,158.625,159.4571,49,4.5,Bassoon 1,0.25,0.075,54,1.0
158.875,158.875,159.5321,49,4.75,Timpani,0.25,0.075,50,1.0
158.875,158.875,159.5321,49,4.75,Violin 1,0.25,0.075,79,1.0
158.875,158.875,159.5321,49,4.75,Viola,0.25,0.075,67,1.0
158.875,158.875,159.5321,49,4.75,Contrabass,0.25,0.075,43,1.0
158.875,158.875,159.5321,49,4.75,Bassoon 2,0.25,0.075,55,1.0
158.875,158.875,159.5321,49,4.75,Bassoon 1,0.25,0.075,55,1.0
158.875,158.875,159.5321,49,4.75,Violoncello,0.25,0.075,55,1.0
159.125,159.125,159.6071,50,1.0,Contrabass,1.0,0.3,45,1.0
159.125,159.125,159.6071,50,1.0,Viola,1.0,0.3,69,1.0
159.125,159.125,159.6071,50,1.0,A Clarinet 2,1.0,0.3,62,1.0
159.125,159.125,159.6071,50,1.0,Oboe 2,1.0,0.3,74,1.0
159.125,159.125,159.6071,50,1.0,D Trumpet 2,1.0,0.3,62,1.0
159.125,159.125,159.6071,50,1.0,D Horn 1,1.0,0.3,62,1.0
159.125,159.125,159.6071,50,1.0,Oboe 1,1.0,0.3,74,1.0
159.125,159.125,159.6071,50,1.0,A Clarinet 1,1.0,0.3,74,1.0
159.125,159.125,159.6071,50,1.0,Timpani,1.0,0.3,50,1.0
159.125,159.125,159.6071,50,1.0,Bassoon 1,1.0,0.3,57,1.0
159.125,159.125,159.6071,50,1.0,D Trumpet 1,1.0,0.3,74,1.0
159.125,159.125,159.6071,50,1.0,Violin 1,1.0,0.3,81,1.0
159.125,159.125,159.6071,50,1.0,D Horn 2,1.0,0.3,50,1.0
159.125,159.125,159.6071,50,1.0,Violoncello,1.0,0.3,57,1.0
159.125,159.125,159.6071,50,1.0,Violin 2,2.0,0.6,62,0.7087
159.125,159.125,159.6071,50,1.0,Violin 2,2.0,0.6,74,0.7087
159.125,159.125,159.6071,50,1.0,Flute 2,1.0,0.3,86,1.0
159.125,159.125,159.6071,50,1.0,Bassoon 2,1.0,0.3,57,1.0
159.125,159.125,159.6071,50,1.0,Flute 1,1.0,0.3,86,1.0
160.125,160.125,159.9071,50,2.0,Bassoon 1,0.25,0.075,57,1.0
160.125,160.125,159.9071,50,2.0,Contrabass,0.25,0.075,45,1.0
160.125,160.125,159.9071,50,2.0,Violoncello,0.25,0.075,57,1.0
160.125,160.125,159.9071,50,2.0,Violin 1,0.25,0.075,81,1.0
160.125,160.125,159.9071,50,2.0,Viola,0.25,0.075,69,1.0
160.125,160.125,159.9071,50,2.0,Bassoon 2,0.25,0.075,57,1.0
160.375,160.375,159.9821,50,2.25,Bassoon 2,0.25,0.075,56,1.0
160.375,160.375,159.9821,50,2.25,Viola,0.25,0.075,68,1.0
160.375,160.375,159.9821,50,2.25,Contrabass,0.25,0.075,44,1.0
160.375,160.375,159.9821,50,2.25,Violin 1,0.25,0.075,80,1.0
160.375,160.375,159.9821,50,2.25,Bassoon 1,0.25,0.075,56,1.0
160.375,160.375,159.9821,50,2.25,Violoncello,0.25,0.075,56,1.0
160.625,160.625,160.0571,50,2.5,Bassoon 2,0.25,0.075,57,1.0
160.625,160.625,160.0571,50,2.5,Viola,0.25,0.075,69,1.0
160.625,160.625,160.0571,50,2.5,Contrabass,0.25,0.075,45,1.0
160.625,160.625,160.0571,50,2.5,Violin 1,0.25,0.075,81,1.0
160.625,160.625,160.0571,50,2.5,Violoncello,0.25,0.075,57,1.0
160.625,160.625,160.0571,50,2.5,Bassoon 1,0.25,0.075,57,1.0
160.875,160.875,160.1321,50,2.75,Violin 1,0.25,0.075,83,1.0
160.875,160.875,160.1321,50,2.75,Bassoon 1,0.25,0.075,59,1.0
160.875,160.875,160.1321,50,2.75,Contrabass,0.25,0.075,47,1.0
160.875,160.875,160.1321,50,2.75,Bassoon 2,0.25,0.075,59,1.0
160.875,160.875,160.1321,50,2.75,Viola,0.25,0.075,71,1.0
160.875,160.875,160.1321,50,2.75,Violoncello,0.25,0.075,59,1.0
161.125,161.125,160.2071,50,3.0,Timpani,2.0,0.6,50,1.0
161.125,161.125,160.2071,50,3.0,D Trumpet 2,2.0,0.6,62,1.0
161.125,161.125,160.2071,50,3.0,Violin 2,2.0,0.6,62,0.7087
161.125,161.125,160.2071,50,3.0,Violin 2,2.0,0.6,74,0.7087
161.125,161.125,160.2071,50,3.0,Viola,2.0,0.6,72,1.0
161.125,161.125,160.2071,50,3.0,D Trumpet 1,2.0,0.6,74,1.0
161.125,161.125,160.2071,50,3.0,Oboe 2,2.0,0.6,74,1.0
161.125,161.125,160.2071,50,3.0,Flute 2,2.0,0.6,86,1.0
161.125,161.125,160.2071,50,3.0,Bassoon 2,2.0,0.6,60,1.0
161.125,161.125,160.2071,50,3.0,D Horn 2,2.0,0.6,50,1.0
161.125,161.125,160.2071,50,3.0,Flute 1,2.0,0.6,86,1.0
161.125,161.125,160.2071,50,3.0,D Horn 1,2.0,0.6,62,1.0
161.125,161.125,160.2071,50,3.0,Violin 1,2.0,0.6,84,1.0
161.125,161.125,160.2071,50,3.0,Contrabass,2.0,0.6,48,1.0
161.125,161.125,160.2071,50,3.0,Violoncello,2.0,0.6,60,1.0
161.125,161.125,160.2071,50,3.0,Bassoon 1,2.0,0.6,60,1.0
161.125,161.125,160.2071,50,3.0,Oboe 1,2.0,0.6,74,1.0
163.125,163.125,160.8071,51,1.0,D Horn 1,1.0,0.3,62,1.0
163.125,163.125,160.8071,51,1.0,Timpani,1.0,0.3,50,1.0
163.125,163.125,160.8071,51,1.0,Contrabass,1.0,0.3,48,1.0
163.125,163.125,160.8071,51,1.0,Viola,1.0,0.3,72,1.0
163.125,163.125,160.8071,51,1.0,Oboe 1,1.0,0.3,74,1.0
163.125,163.125,160.8071,51,1.0,Violin 2,2.0,0.6,62,0.7087
163.125,163.125,160.8071,51,1.0,Violin 2,2.0,0.6,74,0.7087
163.125,163.125,160.8071,51,1.0,Flute 2,1.0,0.3,86,1.0
163.125,163.125,160.8071,51,1.0,D Trumpet 2,1.0,0.3,62,1.0
163.125,163.125,160.8071,51,1.0,D Trumpet 1,1.0,0.3,74,1.0
163.125,163.125,160.8071,51,1.0,Bassoon 1,1.0,0.3,60,1.0
163.125,163.125,160.8071,51,1.0,D Horn 2,1.0,0.3,50,1.0
163.125,163.125,160.8071,51,1.0,Violoncello,1.0,0.3,60,1.0
163.125,163.125,160.8071,51,1.0,Violin 1,1.0,0.3,84,1.0
163.125,163.125,160.8071,51,1.0,Oboe 2,1.0,0.3,74,1.0
163.125,163.125,160.8071,51,1.0,Bassoon 2,1.0,0.3,60,1.0
163.125,163.125,160.8071,51,1.0,Flute 1,1.0,0.3,86,1.0
164.125,164.125,161.1071,51,2.0,Flute 2,1.0,0.3,86,1.0
164.125,164.125,161.1071,51,2.0,Bassoon 2,1.0,0.3,57,1.0
164.125,164.125,161.1071,51,2.0,D Trumpet 1,1.0,0.3,74,1.0
164.125,164.125,161.1071,51,2.0,Bassoon 1,1.0,0.3,57,1.0
164.125,164.125,161.1071,51,2.0,Contrabass,1.0,0.3,45,1.0
164.125,164.125,161.1071,51,2.0,Flute 1,1.0,0.3,86,1.0
164.125,164.125,161.1071,51,2.0,Timpani,1.0,0.3,50,1.0
164.125,164.125,161.1071,51,2.0,Oboe 1,1.0,0.3,74,1.0
164.125,164.125,161.1071,51,2.0,Viola,1.0,0.3,69,1.0
164.125,164.125,161.1071,51,2.0,D Horn 2,1.0,0.3,50,1.0
164.125,164.125,161.1071,51,2.0,Violoncello,1.0,0.3,57,1.0
164.125,164.125,161.1071,51,2.0,Violin 1,1.0,0.3,81,1.0
164.125,164.125,161.1071,51,2.0,Oboe 2,1.0,0.3,74,1.0
164.125,164.125,161.1071,51,2.0,D Horn 1,1.0,0.3,62,1.0
164.125,164.125,161.1071,51,2.0,D Trumpet 2,1.0,0.3,62,1.0
165.125,165.125,161.4071,51,3.0,D Trumpet 1,1.0,0.3,74,1.0
165.125,165.125,161.4071,51,3.0,Flute 1,1.0,0.3,86,1.0
165.125,165.125,161.4071,51,3.0,Viola,1.0,0.3,66,1.0
165.125,165.125,161.4071,51,3.0,Violoncello,1.0,0.3,54,1.0
165.125,165.125,161.4071,51,3.0,Flute 2,1.0,0.3,86,1.0
165.125,165.125,161.4071,51,3.0,Oboe 1,1.0,0.3,74,1.0
165.125,165.125,161.4071,51,3.0,Bassoon 2,1.0,0.3,54,1.0
165.125,165.125,161.4071,51,3.0,D Horn 1,1.0,0.3,62,1.0
165.125,165.125,161.4071,51,3.0,Bassoon 1,1.0,0.3,54,1.0
165.125,165.125,161.4071,51,3.0,D Trumpet 2,1.0,0.3,62,1.0
165.125,165.125,161.4071,51,3.0,Violin 1,1.0,0.3,78,1.0
165.125,165.125,161.4071,51,3.0,Timpani,1.0,0.3,50,1.0
165.125,165.125,161.4071,51,3.0,Oboe 2,1.0,0.3,74,1.0
165.125,165.125,161.4071,51,3.0,Contrabass,1.0,0.3,42,1.0
165.125,165.125,161.4071,51,3.0,Violin 2,2.0,0.6,62,0.7087
165.125,165.125,161.4071,51,3.0,Violin 2,2.0,0.6,74,0.7087
165.125,165.125,161.4071,51,3.0,D Horn 2,1.0,0.3,50,1.0
166.125,166.125,161.7071,51,4.0,D Horn 1,1.0,0.3,62,1.0
166.125,166.125,161.7071,51,4.0,Violin 1,1.0,0.3,72,1.0
166.125,166.125,161.7071,51,4.0,Contrabass,1.0,0.3,36,1.0
166.125,166.125,161.7071,51,4.0,Timpani,1.0,0.3,50,1.0
166.125,166.125,161.7071,51,4.0,Flute 1,1.0,0.3,86,1.0
166.125,166.125,161.7071,51,4.0,Oboe 1,1.0,0.3,74,1.0
166.125,166.125,161.7071,51,4.0,Bassoon 1,1.0,0.3,48,1.0
166.125,166.125,161.7071,51,4.0,Flute 2,1.0,0.3,86,1.0
166.125,166.125,161.7071,51,4.0,Viola,1.0,0.3,60,1.0
166.125,166.125,161.7071,51,4.0,Oboe 2,1.0,0.3,74,1.0
166.125,166.125,161.7071,51,4.0,Violoncello,1.0,0.3,48,1.0
166.125,166.125,161.7071,51,4.0,D Trumpet 2,1.0,0.3,62,1.0
166.125,166.125,161.7071,51,4.0,D Horn 2,1.0,0.3,50,1.0
166.125,166.125,161.7071,51,4.0,Bassoon 2,1.0,0.3,48,1.0
166.125,166.125,161.7071,51,4.0,D Trumpet 1,1.0,0.3,74,1.0
167.125,167.125,162.0071,52,1.0,D Trumpet 2,1.0,0.3,62,1.0
167.125,167.125,162.0071,52,1.0,Violin 2,0.25,0.075,62,0.7087
167.125,167.125,162.0071,52,1.0,Violin 2,0.25,0.075,74,0.7087
167.125,167.125,162.0071,52,1.0,D Horn 1,1.0,0.3,62,1.0
167.125,167.125,162.0071,52,1.0,Flute 2,1.0,0.3,86,1.0
167.125,167.125,162.0071,52,1.0,Viola,1.0,0.3,59,1.0
167.125,167.125,162.0071,52,1.0,D Horn 2,1.0,0.3,50,1.0
167.125,167.125,162.0071,52,1.0,Violin 1,1.0,0.3,71,1.0
167.125,167.125,162.0071,52,1.0,Oboe 1,1.0,0.3,74,1.0
167.125,167.125,162.0071,52,1.0,Violoncello,1.0,0.3,47,1.0
167.125,167.125,162.0071,52,1.0,Bassoon 2,1.0,0.3,47,1.0
167.125,167.125,162.0071,52,1.0,D Trumpet 1,1.0,0.3,74,1.0
167.125,167.125,162.0071,52,1.0,Timpani,1.0,0.3,50,1.0
167.125,167.125,162.0071,52,1.0,Flute 1,1.0,0.3,86,1.0
167.125,167.125,162.0071,52,1.0,Contrabass,1.0,0.3,35,1.0
167.125,167.125,162.0071,52,1.0,Bassoon 1,1.0,0.3,47,1.0
167.125,167.125,162.0071,52,1.0,Oboe 2,1.0,0.3,74,1.0
167.375,167.375,162.0821,52,1.25,Violin 2,0.25,0.075,67,0.7087
167.375,167.375,162.0821,52,1.25,Violin 2,0.25,0.075,59,0.7087
167.625,167.625,162.1571,52,1.5,Violin 2,0.25,0.075,67,0.7087
167.625,167.625,162.1571,52,1.5,Violin 2,0.25,0.075,59,0.7087
167.875,167.875,162.2321,52,1.75,Violin 2,0.25,0.075,67,0.7087
167.875,167.875,162.2321,52,1.75,Violin 2,0.25,0.075,59,0.7087
168.125,168.125,162.3071,52,2.0,Viola,1.0,0.3,62,1.0
168.125,168.125,162.3071,52,2.0,Violin 2,2.0,0.6,59,0.7087
168.125,168.125,162.3071,52,2.0,Violin 1,0.25,0.075,79,1.0
168.125,168.125,162.3071,52,2.0,Violin 2,2.0,0.6,67,0.7087
168.125,168.125,162.3071,52,2.0,Violoncello,1.0,0.3,50,1.0
168.125,168.125,162.3071,52,2.0,Contrabass,1.0,0.3,38,1.0
168.375,168.375,162.3821,52,2.25,Violin 1,0.25,0.075,78,1.0
168.625,168.625,162.4571,52,2.5,Violin 1,0.25,0.075,79,1.0
168.875,168.875,162.5321,52,2.75,Violin 1,0.25,0.075,78,1.0
169.125,169.125,162.6071,52,3.0,Contrabass,1.0,0.3,43,1.0
169.125,169.125,162.6071,52,3.0,Viola,1.0,0.3,67,1.0
169.125,169.125,162.6071,52,3.0,A Clarinet 2,2.0,0.6,74,1.0
169.125,169.125,162.6071,52,3.0,Bassoon 1,2.0,0.6,67,1.0
169.125,169.125,162.6071,52,3.0,A Clarinet 1,2.0,0.6,79,1.0
169.125,169.125,162.6071,52,3.0,Bassoon 2,2.0,0.6,62,1.0
169.125,169.125,162.6071,52,3.0,Flute 2,2.0,0.6,86,1.0
169.125,169.125,162.6071,52,3.0,Flute 1,2.0,0.6,91,1.0
169.125,169.125,162.6071,52,3.0,Violin 1,0.25,0.075,79,1.0
169.125,169.125,162.6071,52,3.0,Violoncello,1.0,0.3,55,1.0
169.375,169.375,162.6821,52,3.25,Violin 1,0.25,0.075,78,1.0
169.625,169.625,162.7571,52,3.5,Violin 1,0.25,0.075,79,1.0
169.875,169.875,162.8321,52,3.75,Violin 1,0.25,0.075,78,1.0
170.125,170.125,162.9071,52,4.0,Violin 2,1.0,0.3,59,0.7087
170.125,170.125,162.9071,52,4.0,Viola,1.0,0.3,71,1.0
170.125,170.125,162.9071,52,4.0,Contrabass,1.0,0.3,47,1.0
170.125,170.125,162.9071,52,4.0,Violin 1,0.25,0.075,79,1.0
170.125,170.125,162.9071,52,4.0,Violin 2,1.0,0.3,67,0.7087
170.125,170.125,162.9071,52,4.0,Violoncello,1.0,0.3,59,1.0
170.375,170.375,162.9821,52,4.25,Violin 1,0.25,0.075,78,1.0
170.625,170.625,163.0571,52,4.5,Violin 1,0.25,0.075,79,1.0
170.875,170.875,163.1321,52,4.75,Violin 1,0.25,0.075,78,1.0
171.125,171.125,163.2071,53,1.0,Violin 2,2.0,0.6,67,0.7087
171.125,171.125,163.2071,53,1.0,Bassoon 1,1.0,0.3,67,1.0
171.125,171.125,163.2071,53,1.0,D Trumpet 2,4.0,1.2,69,1.0
171.125,171.125,163.2071,53,1.0,Timpani,1.0,0.3,45,1.0
171.125,171.125,163.2071,53,1.0,D Horn 1,4.0,1.2,64,1.0
171.125,171.125,163.2071,53,1.0,D Trumpet 1,4.0,1.2,76,1.0
171.125,171.125,163.2071,53,1.0,Flute 1,1.0,0.3,91,1.0
171.125,171.125,163.2071,53,1.0,Flute 2,1.0,0.3,86,1.0
171.125,171.125,163.2071,53,1.0,Contrabass,1.0,0.3,37,1.0
171.125,171.125,163.2071,53,1.0,Violin 2,2.0,0.6,59,0.7087
171.125,171.125,163.2071,53,1.0,Bassoon 2,1.0,0.3,62,1.0
171.125,171.125,163.2071,53,1.0,A Clarinet 1,1.0,0.3,79,1.0
171.125,171.125,163.2071,53,1.0,Violoncello,1.0,0.3,49,1.0
171.125,171.125,163.2071,53,1.0,Violin 1,0.25,0.075,79,1.0
171.125,171.125,163.2071,53,1.0,Viola,1.0,0.3,61,1.0
171.125,171.125,163.2071,53,1.0,D Horn 2,4.0,1.2,57,1.0
171.125,171.125,163.2071,53,1.0,A Clarinet 2,1.0,0.3,74,1.0
171.375,171.375,163.2821,53,1.25,Violin 1,0.25,0.075,81,1.0
171.625,171.625,163.3571,53,1.5,Violin 1,0.25,0.075,83,1.0
171.875,171.875,163.4321,53,1.75,Violin 1,0.25,0.075,81,1.0
172.125,172.125,163.5071,53,2.0,Flute 1,1.0,0.3,88,1.0
172.125,172.125,163.5071,53,2.0,Timpani,1.0,0.3,45,1.0
172.125,172.125,163.5071,53,2.0,Violin 1,0.25,0.075,79,1.0
172.125,172.125,163.5071,53,2.0,A Clarinet 1,1.0,0.3,76,1.0
172.125,172.125,163.5071,53,2.0,Oboe 1,1.0,0.3,81,1.0
172.125,172.125,163.5071,53,2.0,Violoncello,1.0,0.3,52,1.0
172.125,172.125,163.5071,53,2.0,Bassoon 2,1.0,0.3,61,1.0
172.125,172.125,163.5071,53,2.0,Contrabass,1.0,0.3,40,1.0
172.125,172.125,163.5071,53,2.0,Oboe 2,1.0,0.3,79,1.0
172.125,172.125,163.5071,53,2.0,A Clarinet 2,1.0,0.3,73,1.0
172.125,172.125,163.5071,53,2.0,Viola,1.0,0.3,64,1.0
172.125,172.125,163.5071,53,2.0,Flute 2,1.0,0.3,85,1.0
172.125,172.125,163.5071,53,2.0,Bassoon 1,1.0,0.3,64,1.0
172.375,172.375,163.5821,53,2.25,Violin 1,0.25,0.075,78,1.0
172.625,172.625,163.6571,53,2.5,Violin 1,0.25,0.075,76,1.0
172.875,172.875,163.7321,53,2.75,Violin 1,0.25,0.075,74,1.0
173.125,173.125,163.8071,53,3.0,Bassoon 1,1.0,0.3,61,1.0
173.125,173.125,163.8071,53,3.0,Contrabass,1.0,0.3,45,1.0
173.125,173.125,163.8071,53,3.0,Flute 1,1.0,0.3,85,1.0
173.125,173.125,163.8071,53,3.0,Bassoon 2,1.0,0.3,55,1.0
173.125,173.125,163.8071,53,3.0,Timpani,1.0,0.3,45,1.0
173.125,173.125,163.8071,53,3.0,A Clarinet 2,1.0,0.3,67,1.0
173.125,173.125,163.8071,53,3.0,Violin 1,0.25,0.075,73,1.0
173.125,173.125,163.8071,53,3.0,Oboe 1,1.0,0.3,81,1.0
173.125,173.125,163.8071,53,3.0,Flute 2,1.0,0.3,79,1.0
173.125,173.125,163.8071,53,3.0,Violin 2,2.0,0.6,59,0.7087
173.125,173.125,163.8071,53,3.0,Violin 2,2.0,0.6,67,0.7087
173.125,173.125,163.8071,53,3.0,Oboe 2,1.0,0.3,79,1.0
173.125,173.125,163.8071,53,3.0,Violoncello,1.0,0.3,57,1.0
173.125,173.125,163.8071,53,3.0,Viola,1.0,0.3,69,1.0
173.125,173.125,163.8071,53,3.0,A Clarinet 1,1.0,0.3,73,1.0
173.375,173.375,163.8821,53,3.25,Violin 1,0.25,0.075,74,1.0
173.625,173.625,163.9571,53,3.5,Violin 1,0.25,0.075,76,1.0
173.875,173.875,164.0321,53,3.75,Violin 1,0.25,0.075,74,1.0
174.125,174.125,164.1071,53,4.0,Oboe 1,1.0,0.3,81,1.0
174.125,174.125,164.1071,53,4.0,Violoncello,1.0,0.3,61,1.0
174.125,174.125,164.1071,53,4.0,Timpani,1.0,0.3,45,1.0
174.125,174.125,164.1071,53,4.0,Violin 1,0.25,0.075,73,1.0
174.125,174.125,164.1071,53,4.0,Contrabass,1.0,0.3,49,1.0
174.125,174.125,164.1071,53,4.0,Bassoon 1,1.0,0.3,55,1.0
174.125,174.125,164.1071,53,4.0,Flute 1,1.0,0.3,79,1.0
174.125,174.125,164.1071,53,4.0,A Clarinet 2,1.0,0.3,64,1.0
174.125,174.125,164.1071,53,4.0,Oboe 2,1.0,0.3,79,1.0
174.125,174.125,164.1071,53,4.0,Flute 2,1.0,0.3,76,1.0
174.125,174.125,164.1071,53,4.0,Viola,1.0,0.3,73,1.0
174.125,174.125,164.1071,53,4.0,A Clarinet 1,1.0,0.3,67,1.0
174.125,174.125,164.1071,53,4.0,Bassoon 2,1.0,0.3,52,1.0
174.375,174.375,164.1821,53,4.25,Violin 1,0.25,0.075,71,1.0
174.625,174.625,164.2571,53,4.5,Violin 1,0.25,0.075,69,1.0
174.875,174.875,164.3321,53,4.75,Violin 1,0.25,0.075,67,1.0
175.125,175.125,164.4071,54,1.0,Violin 1,1.0,0.3,66,1.0
175.125,175.125,164.4071,54,1.0,Oboe 1,1.0,0.3,81,1.0
175.125,175.125,164.4071,54,1.0,A Clarinet 2,1.0,0.3,62,1.0
175.125,175.125,164.4071,54,1.0,Violin 2,0.25,0.075,66,0.7087
175.125,175.125,164.4071,54,1.0,Viola,1.0,0.3,62,1.0
175.125,175.125,164.4071,54,1.0,Bassoon 2,1.0,0.3,50,1.0
175.125,175.125,164.4071,54,1.0,A Clarinet 1,1.0,0.3,66,1.0
175.125,175.125,164.4071,54,1.0,Flute 2,1.0,0.3,74,1.0
175.125,175.125,164.4071,54,1.0,D Horn 1,1.0,0.3,62,1.0
175.125,175.125,164.4071,54,1.0,Violin 2,0.25,0.075,57,0.7087
175.125,175.125,164.4071,54,1.0,Violoncello,1.0,0.3,50,1.0
175.125,175.125,164.4071,54,1.0,D Horn 2,1.0,0.3,54,1.0
175.125,175.125,164.4071,54,1.0,Contrabass,1.0,0.3,38,1.0
175.125,175.125,164.4071,54,1.0,Flute 1,1.0,0.3,78,1.0
175.125,175.125,164.4071,54,1.0,D Trumpet 1,1.0,0.3,74,1.0
175.125,175.125,164.4071,54,1.0,Timpani,1.0,0.3,50,1.0
175.125,175.125,164.4071,54,1.0,D Trumpet 2,1.0,0.3,66,1.0
175.125,175.125,164.4071,54,1.0,Oboe 2,1.0,0.3,78,1.0
175.125,175.125,164.4071,54,1.0,Bassoon 1,1.0,0.3,54,1.0
175.375,175.375,164.4821,54,1.25,Violin 2,0.25,0.075,62,0.7087
175.375,175.375,164.4821,54,1.25,Violin 2,0.25,0.075,74,0.7087
175.625,175.625,164.5571,54,1.5,Violin 2,0.25,0.075,62,0.7087
175.625,175.625,164.5571,54,1.5,Violin 2,0.25,0.075,74,0.7087
175.875,175.875,164.6321,54,1.75,Violin 2,0.25,0.075,74,0.7087
175.875,175.875,164.6321,54,1.75,Violin 2,0.25,0.075,62,0.7087
176.125,176.125,164.7071,54,2.0,Contrabass,0.25,0.075,45,1.0
176.125,176.125,164.7071,54,2.0,Viola,0.25,0.075,69,1.0
176.125,176.125,164.7071,54,2.0,Bassoon 2,0.25,0.075,57,1.0
176.125,176.125,164.7071,54,2.0,Violin 2,1.0,0.3,62,0.7087
176.125,176.125,164.7071,54,2.0,Violin 2,1.0,0.3,74,0.7087
176.125,176.125,164.7071,54,2.0,Violoncello,0.25,0.075,57,1.0
176.125,176.125,164.7071,54,2.0,Bassoon 1,0.25,0.075,57,1.0
176.125,176.125,164.7071,54,2.0,Violin 1,0.25,0.075,81,1.0
176.375,176.375,164.7821,54,2.25,Contrabass,0.25,0.075,44,1.0
176.375,176.375,164.7821,54,2.25,Bassoon 1,0.25,0.075,56,1.0
176.375,176.375,164.7821,54,2.25,Violin 1,0.25,0.075,80,1.0
176.375,176.375,164.7821,54,2.25,Violoncello,0.25,0.075,56,1.0
176.375,176.375,164.7821,54,2.25,Viola,0.25,0.075,68,1.0
176.375,176.375,164.7821,54,2.25,Bassoon 2,0.25,0.075,56,1.0
176.625,176.625,164.8571,54,2.5,Bassoon 2,0.25,0.075,57,1.0
176.625,176.625,164.8571,54,2.5,Bassoon 1,0.25,0.075,57,1.0
176.625,176.625,164.8571,54,2.5,Violoncello,0.25,0.075,57,1.0
176.625,176.625,164.8571,54,2.5,Contrabass,0.25,0.075,45,1.0
176.625,176.625,164.8571,54,2.5,Viola,0.25,0.075,69,1.0
176.625,176.625,164.8571,54,2.5,Violin 1,0.25,0.075,81,1.0
176.875,176.875,164.9321,54,2.75,Contrabass,0.25,0.075,47,1.0
176.875,176.875,164.9321,54,2.75,Violoncello,0.25,0.075,59,1.0
176.875,176.875,164.9321,54,2.75,Viola,0.25,0.075,71,1.0
176.875,176.875,164.9321,54,2.75,Bassoon 1,0.25,0.075,59,1.0
176.875,176.875,164.9321,54,2.75,Bassoon 2,0.25,0.075,59,1.0
176.875,176.875,164.9321,54,2.75,Violin 1,0.25,0.075,83,1.0
177.125,177.125,165.0071,54,3.0,Oboe 2,2.0,0.6,74,1.0
177.125,177.125,165.0071,54,3.0,Flute 1,2.0,0.6,86,1.0
177.125,177.125,165.0071,54,3.0,Flute 2,2.0,0.6,86,1.0
177.125,177.125,165.0071,54,3.0,D Horn 1,2.0,0.6,62,1.0
177.125,177.125,165.0071,54,3.0,Bassoon 1,2.0,0.6,60,1.0
177.125,177.125,165.0071,54,3.0,Viola,2.0,0.6,72,1.0
177.125,177.125,165.0071,54,3.0,Violin 2,2.0,0.6,62,0.7087
177.125,177.125,165.0071,54,3.0,D Horn 2,2.0,0.6,50,1.0
177.125,177.125,165.0071,54,3.0,Oboe 1,2.0,0.6,74,1.0
177.125,177.125,165.0071,54,3.0,Bassoon 2,2.0,0.6,60,1.0
177.125,177.125,165.0071,54,3.0,Violoncello,2.0,0.6,60,1.0
177.125,177.125,165.0071,54,3.0,Contrabass,2.0,0.6,48,1.0
177.125,177.125,165.0071,54,3.0,A Clarinet 2,2.0,0.6,62,1.0
177.125,177.125,165.0071,54,3.0,Violin 2,2.0,0.6,74,0.7087
177.125,177.125,165.0071,54,3.0,D Trumpet 2,2.0,0.6,62,1.0
177.125,177.125,165.0071,54,3.0,Violin 1,2.0,0.6,84,1.0
177.125,177.125,165.0071,54,3.0,Timpani,2.0,0.6,50,1.0
177.125,177.125,165.0071,54,3.0,A Clarinet 1,2.0,0.6,74,1.0
177.125,177.125,165.0071,54,3.0,D Trumpet 1,2.0,0.6,74,1.0
179.125,179.125,165.6071,55,1.0,D Trumpet 1,1.0,0.3,74,1.0
179.125,179.125,165.6071,55,1.0,D Horn 2,1.0,0.3,50,1.0
179.125,179.125,165.6071,55,1.0,Oboe 1,1.0,0.3,74,1.0
179.125,179.125,165.6071,55,1.0,Bassoon 2,1.0,0.3,60,1.0
179.125,179.125,165.6071,55,1.0,Violoncello,1.0,0.3,60,1.0
179.125,179.125,165.6071,55,1.0,Viola,1.0,0.3,72,1.0
179.125,179.125,165.6071,55,1.0,Violin 1,1.0,0.3,84,1.0
179.125,179.125,165.6071,55,1.0,A Clarinet 1,1.0,0.3,74,1.0
179.125,179.125,165.6071,55,1.0,Bassoon 1,1.0,0.3,60,1.0
179.125,179.125,165.6071,55,1.0,Violin 2,2.0,0.6,74,0.7087
179.125,179.125,165.6071,55,1.0,Violin 2,2.0,0.6,62,0.7087
179.125,179.125,165.6071,55,1.0,D Horn 1,1.0,0.3,62,1.0
179.125,179.125,165.6071,55,1.0,A Clarinet 2,1.0,0.3,62,1.0
179.125,179.125,165.6071,55,1.0,Oboe 2,1.0,0.3,74,1.0
179.125,179.125,165.6071,55,1.0,Flute 1,1.0,0.3,86,1.0
179.125,179.125,165.6071,55,1.0,D Trumpet 2,1.0,0.3,62,1.0
179.125,179.125,165.6071,55,1.0,Flute 2,1.0,0.3,86,1.0
179.125,179.125,165.6071,55,1.0,Timpani,1.0,0.3,50,1.0
179.125,179.125,165.6071,55,1.0,Contrabass,1.0,0.3,48,1.0
180.125,180.125,165.9071,55,2.0,Bassoon 1,1.0,0.3,57,1.0
180.125,180.125,165.9071,55,2.0,Violoncello,1.0,0.3,57,1.0
180.125,180.125,165.9071,55,2.0,Contrabass,1.0,0.3,45,1.0
180.125,180.125,165.9071,55,2.0,Flute 1,1.0,0.3,86,1.0
180.125,180.125,165.9071,55,2.0,Timpani,1.0,0.3,50,1.0
180.125,180.125,165.9071,55,2.0,D Trumpet 1,1.0,0.3,74,1.0
180.125,180.125,165.9071,55,2.0,Bassoon 2,1.0,0.3,57,1.0
180.125,180.125,165.9071,55,2.0,Oboe 2,1.0,0.3,74,1.0
180.125,180.125,165.9071,55,2.0,D Horn 2,1.0,0.3,50,1.0
180.125,180.125,165.9071,55,2.0,D Trumpet 2,1.0,0.3,62,1.0
180.125,180.125,165.9071,55,2.0,A Clarinet 2,1.0,0.3,62,1.0
180.125,180.125,165.9071,55,2.0,Oboe 1,1.0,0.3,74,1.0
180.125,180.125,165.9071,55,2.0,A Clarinet 1,1.0,0.3,74,1.0
180.125,180.125,165.9071,55,2.0,D Horn 1,1.0,0.3,62,1.0
180.125,180.125,165.9071,55,2.0,Flute 2,1.0,0.3,86,1.0
180.125,180.125,165.9071,55,2.0,Violin 1,1.0,0.3,81,1.0
180.125,180.125,165.9071,55,2.0,Viola,1.0,0.3,69,1.0
181.125,181.125,166.2071,55,3.0,Violoncello,1.0,0.3,54,1.0
181.125,181.125,166.2071,55,3.0,Bassoon 2,1.0,0.3,54,1.0
181.125,181.125,166.2071,55,3.0,Flute 1,1.0,0.3,86,1.0
181.125,181.125,166.2071,55,3.0,Violin 1,1.0,0.3,78,1.0
181.125,181.125,166.2071,55,3.0,A Clarinet 2,1.0,0.3,62,1.0
181.125,181.125,166.2071,55,3.0,Oboe 1,1.0,0.3,74,1.0
181.125,181.125,166.2071,55,3.0,Flute 2,1.0,0.3,86,1.0
181.125,181.125,166.2071,55,3.0,Viola,1.0,0.3,66,1.0
181.125,181.125,166.2071,55,3.0,D Horn 2,1.0,0.3,50,1.0
181.125,181.125,166.2071,55,3.0,Contrabass,1.0,0.3,42,1.0
181.125,181.125,166.2071,55,3.0,Timpani,1.0,0.3,50,1.0
181.125,181.125,166.2071,55,3.0,D Horn 1,1.0,0.3,62,1.0
181.125,181.125,166.2071,55,3.0,D Trumpet 2,1.0,0.3,62,1.0
181.125,181.125,166.2071,55,3.0,A Clarinet 1,1.0,0.3,74,1.0
181.125,181.125,166.2071,55,3.0,Violin 2,2.0,0.6,74,0.7087
181.125,181.125,166.2071,55,3.0,Violin 2,2.0,0.6,62,0.7087
181.125,181.125,166.2071,55,3.0,D Trumpet 1,1.0,0.3,74,1.0
181.125,181.125,166.2071,55,3.0,Oboe 2,1.0,0.3,74,1.0
181.125,181.125,166.2071,55,3.0,Bassoon 1,1.0,0.3,54,1.0
182.125,182.125,166.5071,55,4.0,A Clarinet 1,1.0,0.3,74,1.0
182.125,182.125,166.5071,55,4.0,D Trumpet 2,1.0,0.3,62,1.0
182.125,182.125,166.5071,55,4.0,Violoncello,1.0,0.3,48,1.0
182.125,182.125,166.5071,55,4.0,Oboe 1,1.0,0.3,74,1.0
182.125,182.125,166.5071,55,4.0,Flute 1,1.0,0.3,86,1.0
182.125,182.125,166.5071,55,4.0,Flute 2,1.0,0.3,86,1.0
182.125,182.125,166.5071,55,4.0,Bassoon 1,1.0,0.3,48,1.0
182.125,182.125,166.5071,55,4.0,Timpani,1.0,0.3,50,1.0
182.125,182.125,166.5071,55,4.0,Contrabass,1.0,0.3,36,1.0
182.125,182.125,166.5071,55,4.0,Bassoon 2,1.0,0.3,48,1.0
182.125,182.125,166.5071,55,4.0,D Trumpet 1,1.0,0.3,74,1.0
182.125,182.125,166.5071,55,4.0,D Horn 2,1.0,0.3,50,1.0
182.125,182.125,166.5071,55,4.0,Violin 1,1.0,0.3,72,1.0
182.125,182.125,166.5071,55,4.0,D Horn 1,1.0,0.3,62,1.0
182.125,182.125,166.5071,55,4.0,Viola,1.0,0.3,60,1.0
182.125,182.125,166.5071,55,4.0,Oboe 2,1.0,0.3,74,1.0
182.125,182.125,166.5071,55,4.0,A Clarinet 2,1.0,0.3,62,1.0
183.125,183.125,166.8071,56,1.0,Flute 2,1.0,0.3,86,1.0
183.125,183.125,166.8071,56,1.0,Timpani,1.0,0.3,50,1.0
183.125,183.125,166.8071,56,1.0,Flute 1,1.0,0.3,86,1.0
183.125,183.125,166.8071,56,1.0,Bassoon 1,1.0,0.3,46,1.0
183.125,183.125,166.8071,56,1.0,Violoncello,1.0,0.3,46,1.0
183.125,183.125,166.8071,56,1.0,Oboe 2,1.0,0.3,74,1.0
183.125,183.125,166.8071,56,1.0,Violin 2,0.25,0.075,62,0.7087
183.125,183.125,166.8071,56,1.0,Violin 2,0.25,0.075,74,0.7087
183.125,183.125,166.8071,56,1.0,D Trumpet 1,1.0,0.3,74,1.0
183.125,183.125,166.8071,56,1.0,Oboe 1,1.0,0.3,74,1.0
183.125,183.125,166.8071,56,1.0,D Trumpet 2,1.0,0.3,62,1.0
183.125,183.125,166.8071,56,1.0,A Clarinet 2,1.0,0.3,62,1.0
183.125,183.125,166.8071,56,1.0,Bassoon 2,1.0,0.3,46,1.0
183.125,183.125,166.8071,56,1.0,Contrabass,1.0,0.3,34,1.0
183.125,183.125,166.8071,56,1.0,D Horn 2,1.0,0.3,50,1.0
183.125,183.125,166.8071,56,1.0,Violin 1,1.0,0.3,70,1.0
183.125,183.125,166.8071,56,1.0,A Clarinet 1,1.0,0.3,74,1.0
183.125,183.125,166.8071,56,1.0,Viola,1.0,0.3,58,1.0
183.125,183.125,166.8071,56,1.0,D Horn 1,1.0,0.3,62,1.0
183.375,183.375,166.8821,56,1.25,Violin 2,0.25,0.075,67,0.7087
183.375,183.375,166.8821,56,1.25,Violin 2,0.25,0.075,58,0.7087
183.625,183.625,166.9571,56,1.5,Violin 2,0.25,0.075,67,0.7087
183.625,183.625,166.9571,56,1.5,Violin 2,0.25,0.075,58,0.7087
183.875,183.875,167.0321,56,1.75,Violin 2,0.25,0.075,67,0.7087
183.875,183.875,167.0321,56,1.75,Violin 2,0.25,0.075,58,0.7087
184.125,184.125,167.1071,56,2.0,Violin 2,3.0,0.9,58,0.7087
184.125,184.125,167.1071,56,2.0,Violoncello,1.0,0.3,50,1.0
184.125,184.125,167.1071,56,2.0,Violin 1,0.25,0.075,79,1.0
184.125,184.125,167.1071,56,2.0,Contrabass,1.0,0.3,38,1.0
184.125,184.125,167.1071,56,2.0,Viola,1.0,0.3,62,1.0
184.125,184.125,167.1071,56,2.0,Violin 2,3.0,0.9,67,0.7087
184.375,184.375,167.1821,56,2.25,Violin 1,0.25,0.075,78,1.0
184.625,184.625,167.2571,56,2.5,Violin 1,0.25,0.075,79,1.0
184.875,184.875,167.3321,56,2.75,Violin 1,0.25,0.075,78,1.0
185.125,185.125,167.4071,56,3.0,Bassoon 1,2.0,0.6,67,1.0
185.125,185.125,167.4071,56,3.0,Violin 1,0.25,0.075,79,1.0
185.125,185.125,167.4071,56,3.0,A Clarinet 2,2.0,0.6,74,1.0
185.125,185.125,167.4071,56,3.0,Viola,1.0,0.3,67,1.0
185.125,185.125,167.4071,56,3.0,Contrabass,1.0,0.3,43,1.0
185.125,185.125,167.4071,56,3.0,A Clarinet 1,2.0,0.6,79,1.0
185.125,185.125,167.4071,56,3.0,Violoncello,1.0,0.3,55,1.0
185.125,185.125,167.4071,56,3.0,Flute 1,2.0,0.6,91,1.0
185.125,185.125,167.4071,56,3.0,Bassoon 2,2.0,0.6,62,1.0
185.125,185.125,167.4071,56,3.0,Flute 2,2.0,0.6,86,1.0
185.375,185.375,167.4821,56,3.25,Violin 1,0.25,0.075,78,1.0
185.625,185.625,167.5571,56,3.5,Violin 1,0.25,0.075,79,1.0
185.875,185.875,167.6321,56,3.75,Violin 1,0.25,0.075,78,1.0
186.125,186.125,167.7071,56,4.0,Contrabass,1.0,0.3,46,1.0
186.125,186.125,167.7071,56,4.0,Violin 1,0.25,0.075,79,1.0
186.125,186.125,167.7071,56,4.0,Viola,1.0,0.3,70,1.0
186.125,186.125,167.7071,56,4.0,Violoncello,1.0,0.3,58,1.0
186.375,186.375,167.7821,56,4.25,Violin 1,0.25,0.075,78,1.0
186.625,186.625,167.8571,56,4.5,Violin 1,0.25,0.075,79,1.0
186.875,186.875,167.9321,56,4.75,Violin 1,0.25,0.075,78,1.0
187.125,187.125,168.0071,57,1.0,A Clarinet 1,1.0,0.3,79,1.0
187.125,187.125,168.0071,57,1.0,D Horn 1,4.0,1.2,64,1.0
187.125,187.125,168.0071,57,1.0,D Horn 2,4.0,1.2,57,1.0
187.125,187.125,168.0071,57,1.0,Flute 2,1.0,0.3,86,1.0
187.125,187.125,168.0071,57,1.0,Bassoon 1,1.0,0.3,67,1.0
187.125,187.125,168.0071,57,1.0,A Clarinet 2,1.0,0.3,74,1.0
187.125,187.125,168.0071,57,1.0,Bassoon 2,1.0,0.3,62,1.0
187.125,187.125,168.0071,57,1.0,Violoncello,1.0,0.3,49,1.0
187.125,187.125,168.0071,57,1.0,Flute 1,1.0,0.3,91,1.0
187.125,187.125,168.0071,57,1.0,Timpani,1.0,0.3,45,1.0
187.125,187.125,168.0071,57,1.0,Violin 2,2.0,0.6,57,0.7087
187.125,187.125,168.0071,57,1.0,Contrabass,1.0,0.3,37,1.0
187.125,187.125,168.0071,57,1.0,Violin 2,2.0,0.6,67,0.7087
187.125,187.125,168.0071,57,1.0,Violin 1,0.25,0.075,79,1.0
187.125,187.125,168.0071,57,1.0,Viola,1.0,0.3,61,1.0
187.375,187.375,168.0821,57,1.25,Violin 1,0.25,0.075,81,1.0
187.625,187.625,168.1571,57,1.5,Violin 1,0.25,0.075,82,1.0
187.875,187.875,168.2321,57,1.75,Violin 1,0.25,0.075,81,1.0
188.125,188.125,168.3071,57,2.0,Timpani,1.0,0.3,45,1.0
188.125,188.125,168.3071,57,2.0,Flute 2,1.0,0.3,85,1.0
188.125,188.125,168.3071,57,2.0,Contrabass,1.0,0.3,40,1.0
188.125,188.125,168.3071,57,2.0,A Clarinet 1,1.0,0.3,76,1.0
188.125,188.125,168.3071,57,2.0,Oboe 1,1.0,0.3,81,1.0
188.125,188.125,168.3071,57,2.0,Bassoon 1,1.0,0.3,64,1.0
188.125,188.125,168.3071,57,2.0,Bassoon 2,1.0,0.3,61,1.0
188.125,188.125,168.3071,57,2.0,Oboe 2,1.0,0.3,79,1.0
188.125,188.125,168.3071,57,2.0,Viola,1.0,0.3,64,1.0
188.125,188.125,168.3071,57,2.0,A Clarinet 2,1.0,0.3,73,1.0
188.125,188.125,168.3071,57,2.0,Flute 1,1.0,0.3,88,1.0
188.125,188.125,168.3071,57,2.0,Violoncello,1.0,0.3,52,1.0
188.125,188.125,168.3071,57,2.0,Violin 1,0.25,0.075,79,1.0
188.375,188.375,168.3821,57,2.25,Violin 1,0.25,0.075,77,1.0
188.625,188.625,168.4571,57,2.5,Violin 1,0.25,0.075,76,1.0
188.875,188.875,168.5321,57,2.75,Violin 1,0.25,0.075,74,1.0
189.125,189.125,168.6071,57,3.0,Oboe 2,1.0,0.3,79,1.0
189.125,189.125,168.6071,57,3.0,Violin 1,0.25,0.075,73,1.0
189.125,189.125,168.6071,57,3.0,A Clarinet 2,1.0,0.3,67,1.0
189.125,189.125,168.6071,57,3.0,Flute 1,1.0,0.3,85,1.0
189.125,189.125,168.6071,57,3.0,Violin 2,2.0,0.6,67,0.7087
189.125,189.125,168.6071,57,3.0,Contrabass,1.0,0.3,45,1.0
189.125,189.125,168.6071,57,3.0,Viola,1.0,0.3,69,1.0
189.125,189.125,168.6071,57,3.0,Bassoon 2,1.0,0.3,55,1.0
189.125,189.125,168.6071,57,3.0,Violin 2,2.0,0.6,57,0.7087
189.125,189.125,168.6071,57,3.0,Flute 2,1.0,0.3,79,1.0
189.125,189.125,168.6071,57,3.0,Timpani,1.0,0.3,45,1.0
189.125,189.125,168.6071,57,3.0,Violoncello,1.0,0.3,57,1.0
189.125,189.125,168.6071,57,3.0,Oboe 1,1.0,0.3,81,1.0
189.125,189.125,168.6071,57,3.0,A Clarinet 1,1.0,0.3,73,1.0
189.125,189.125,168.6071,57,3.0,Bassoon 1,1.0,0.3,61,1.0
189.375,189.375,168.6821,57,3.25,Violin 1,0.25,0.075,74,1.0
189.625,189.625,168.7571,57,3.5,Violin 1,0.25,0.075,76,1.0
189.875,189.875,168.8321,57,3.75,Violin 1,0.25,0.075,74,1.0
190.125,190.125,168.9071,57,4.0,Timpani,1.0,0.3,45,1.0
190.125,190.125,168.9071,57,4.0,Flute 2,1.0,0.3,76,1.0
190.125,190.125,168.9071,57,4.0,Violin 1,0.25,0.075,73,1.0
190.125,190.125,168.9071,57,4.0,Violoncello,1.0,0.3,61,1.0
190.125,190.125,168.9071,57,4.0,Contrabass,1.0,0.3,49,1.0
190.125,190.125,168.9071,57,4.0,Bassoon 1,1.0,0.3,55,1.0
190.125,190.125,168.9071,57,4.0,Bassoon 2,1.0,0.3,52,1.0
190.125,190.125,168.9071,57,4.0,Viola,1.0,0.3,73,1.0
190.125,190.125,168.9071,57,4.0,A Clarinet 1,1.0,0.3,67,1.0
190.125,190.125,168.9071,57,4.0,Oboe 1,1.0,0.3,81,1.0
190.125,190.125,168.9071,57,4.0,A Clarinet 2,1.0,0.3,64,1.0
190.125,190.125,168.9071,57,4.0,Flute 1,1.0,0.3,79,1.0
190.125,190.125,168.9071,57,4.0,Oboe 2,1.0,0.3,79,1.0
190.375,190.375,168.9821,57,4.25,Violin 1,0.25,0.075,70,1.0
190.625,190.625,169.0571,57,4.5,Violin 1,0.25,0.075,69,1.0
190.875,190.875,169.1321,57,4.75,Violin 1,0.25,0.075,67,1.0
191.125,191.125,169.2071,58,1.0,Flute 1,1.0,0.3,81,1.0
191.125,191.125,169.2071,58,1.0,Oboe 2,1.0,0.3,77,1.0
191.125,191.125,169.2071,58,1.0,Bassoon 1,1.0,0.3,53,1.0
191.125,191.125,169.2071,58,1.0,Bassoon 2,1.0,0.3,50,1.0
191.125,191.125,169.2071,58,1.0,Violin 2,2.0,0.6,65,0.7087
191.125,191.125,169.2071,58,1.0,Violin 2,2.0,0.6,57,0.7087
191.125,191.125,169.2071,58,1.0,A Clarinet 1,1.0,0.3,65,1.0
191.125,191.125,169.2071,58,1.0,Flute 2,1.0,0.3,77,1.0
191.125,191.125,169.2071,58,1.0,D Horn 2,1.0,0.3,50,1.0
191.125,191.125,169.2071,58,1.0,Contrabass,3.0,0.9,38,1.0
191.125,191.125,169.2071,58,1.0,Violoncello,3.0,0.9,50,1.0
191.125,191.125,169.2071,58,1.0,A Clarinet 2,1.0,0.3,62,1.0
191.125,191.125,169.2071,58,1.0,Oboe 1,1.0,0.3,81,1.0
191.125,191.125,169.2071,58,1.0,Violin 1,1.0,0.3,65,1.0
191.125,191.125,169.2071,58,1.0,Viola,3.0,0.9,62,1.0
191.125,191.125,169.2071,58,1.0,Timpani,1.0,0.3,50,1.0
191.125,191.125,169.2071,58,1.0,D Horn 1,1.0,0.3,62,1.0
192.875,192.875,169.7321,58,2.75,Violin 1,0.25,0.075,86,0.7087
192.875,192.875,169.7321,58,2.75,Violin 1,0.25,0.075,74,0.7087
193.125,193.125,169.8071,58,3.0,Violin 2,2.0,0.6,65,0.7087
193.125,193.125,169.8071,58,3.0,Violin 1,2.0,0.6,74,0.7087
193.125,193.125,169.8071,58,3.0,Violin 2,2.0,0.6,57,0.7087
193.125,193.125,169.8071,58,3.0,Violin 1,2.0,0.6,86,0.7087
194.125,194.125,170.1071,58,4.0,Contrabass,0.25,0.075,38,1.0
194.125,194.125,170.1071,58,4.0,Viola,0.25,0.075,62,1.0
194.125,194.125,170.1071,58,4.0,Bassoon 1,0.25,0.075,62,1.0
194.125,194.125,170.1071,58,4.0,Bassoon 2,0.25,0.075,50,1.0
194.125,194.125,170.1071,58,4.0,Violoncello,0.25,0.075,50,1.0
194.375,194.375,170.1821,58,4.25,Bassoon 1,0.25,0.075,61,1.0
194.375,194.375,170.1821,58,4.25,Bassoon 2,0.25,0.075,49,1.0
194.375,194.375,170.1821,58,4.25,Viola,0.25,0.075,61,1.0
194.375,194.375,170.1821,58,4.25,Contrabass,0.25,0.075,37,1.0
194.375,194.375,170.1821,58,4.25,Violoncello,0.25,0.075,49,1.0
194.625,194.625,170.2571,58,4.5,Viola,0.25,0.075,62,1.0
194.625,194.625,170.2571,58,4.5,Violoncello,0.25,0.075,50,1.0
194.625,194.625,170.2571,58,4.5,Bassoon 1,0.25,0.075,62,1.0
194.625,194.625,170.2571,58,4.5,Bassoon 2,0.25,0.075,50,1.0
194.625,194.625,170.2571,58,4.5,Contrabass,0.25,0.075,38,1.0
194.875,194.875,170.3321,58,4.75,Oboe 1,0.25,0.075,77,1.0
194.875,194.875,170.3321,58,4.75,Viola,0.25,0.075,64,1.0
194.875,194.875,170.3321,58,4.75,A Clarinet 2,0.25,0.075,62,1.0
194.875,194.875,170.3321,58,4.75,Flute 2,0.25,0.075,86,1.0
194.875,194.875,170.3321,58,4.75,D Trumpet 2,0.25,0.075,62,1.0
194.875,194.875,170.3321,58,4.75,Bassoon 2,0.25,0.075,52,1.0
194.875,194.875,170.3321,58,4.75,Timpani,0.25,0.075,50,1.0
194.875,194.875,170.3321,58,4.75,D Horn 1,0.25,0.075,62,1.0
194.875,194.875,170.3321,58,4.75,Flute 1,0.25,0.075,89,1.0
194.875,194.875,170.3321,58,4.75,Contrabass,0.25,0.075,40,1.0
194.875,194.875,170.3321,58,4.75,Bassoon 1,0.25,0.075,64,1.0
194.875,194.875,170.3321,58,4.75,D Trumpet 1,0.25,0.075,74,1.0
194.875,194.875,170.3321,58,4.75,Violoncello,0.25,0.075,52,1.0
194.875,194.875,170.3321,58,4.75,D Horn 2,0.25,0.075,50,1.0
194.875,194.875,170.3321,58,4.75,A Clarinet 1,0.25,0.075,65,1.0
194.875,194.875,170.3321,58,4.75,Oboe 2,0.25,0.075,74,1.0
195.125,195.125,170.4071,59,1.0,Timpani,1.0,0.3,50,1.0
195.125,195.125,170.4071,59,1.0,A Clarinet 1,4.0,1.2,65,1.0
195.125,195.125,170.4071,59,1.0,Viola,1.0,0.3,65,1.0
195.125,195.125,170.4071,59,1.0,Bassoon 1,1.0,0.3,65,1.0
195.125,195.125,170.4071,59,1.0,A Clarinet 2,4.0,1.2,62,1.0
195.125,195.125,170.4071,59,1.0,D Trumpet 2,4.0,1.2,62,1.0
195.125,195.125,170.4071,59,1.0,D Horn 1,4.0,1.2,62,1.0
195.125,195.125,170.4071,59,1.0,D Trumpet 1,4.0,1.2,74,1.0
195.125,195.125,170.4071,59,1.0,Violoncello,1.0,0.3,53,1.0
195.125,195.125,170.4071,59,1.0,Oboe 1,4.0,1.2,77,1.0
195.125,195.125,170.4071,59,1.0,Flute 2,4.0,1.2,86,1.0
195.125,195.125,170.4071,59,1.0,Oboe 2,4.0,1.2,74,1.0
195.125,195.125,170.4071,59,1.0,Violin 1,4.0,1.2,86,0.7087
195.125,195.125,170.4071,59,1.0,Contrabass,1.0,0.3,41,1.0
195.125,195.125,170.4071,59,1.0,Flute 1,4.0,1.2,89,1.0
195.125,195.125,170.4071,59,1.0,D Horn 2,4.0,1.2,50,1.0
195.125,195.125,170.4071,59,1.0,Bassoon 2,1.0,0.3,53,1.0
195.125,195.125,170.4071,59,1.0,Violin 1,4.0,1.2,74,0.7087
195.125,195.125,170.4071,59,1.0,Violin 2,0.25,0.075,57,0.7087
195.125,195.125,170.4071,59,1.0,Violin 2,0.25,0.075,65,0.7087
195.375,195.375,170.4821,59,1.25,Violin 2,0.25,0.075,65,0.7087
195.375,195.375,170.4821,59,1.25,Violin 2,0.25,0.075,74,0.7087
195.625,195.625,170.5571,59,1.5,Violin 2,0.25,0.075,65,0.7087
195.625,195.625,170.5571,59,1.5,Violin 2,0.25,0.075,74,0.7087
195.875,195.875,170.6321,59,1.75,Violin 2,0.25,0.075,74,0.7087
195.875,195.875,170.6321,59,1.75,Violin 2,0.25,0.075,65,0.7087
196.125,196.125,170.7071,59,2.0,Violin 2,1.0,0.3,74,0.7087
196.125,196.125,170.7071,59,2.0,Violin 2,1.0,0.3,65,0.7087
196.125,196.125,170.7071,59,2.0,Viola,1.0,0.3,65,1.0
196.125,196.125,170.7071,59,2.0,Violoncello,1.0,0.3,53,1.0
196.125,196.125,170.7071,59,2.0,Contrabass,1.0,0.3,41,1.0
196.125,196.125,170.7071,59,2.0,Bassoon 1,1.0,0.3,65,1.0
196.125,196.125,170.7071,59,2.0,Bassoon 2,1.0,0.3,53,1.0
197.125,197.125,171.0071,59,3.0,Violin 2,2.0,0.6,65,0.7087
197.125,197.125,171.0071,59,3.0,Violin 2,2.0,0.6,74,0.7087
197.125,197.125,171.0071,59,3.0,Violoncello,1.0,0.3,50,1.0
197.125,197.125,171.0071,59,3.0,Bassoon 1,1.0,0.3,62,1.0
197.125,197.125,171.0071,59,3.0,Bassoon 2,1.0,0.3,50,1.0
197.125,197.125,171.0071,59,3.0,Contrabass,1.0,0.3,38,1.0
197.125,197.125,171.0071,59,3.0,Viola,1.0,0.3,62,1.0
198.125,198.125,171.3071,59,4.0,Bassoon 1,1.0,0.3,62,1.0
198.125,198.125,171.3071,59,4.0,Viola,1.0,0.3,62,1.0
198.125,198.125,171.3071,59,4.0,Violoncello,1.0,0.3,50,1.0
198.125,198.125,171.3071,59,4.0,Bassoon 2,1.0,0.3,50,1.0
198.125,198.125,171.3071,59,4.0,Contrabass,1.0,0.3,38,1.0
199.125,199.125,171.6071,60,1.0,A Clarinet 2,1.0,0.3,62,1.0
199.125,199.125,171.6071,60,1.0,Contrabass,3.0,0.9,34,1.0
199.125,199.125,171.6071,60,1.0,Flute 1,1.0,0.3,89,1.0
199.125,199.125,171.6071,60,1.0,Violoncello,3.0,0.9,46,1.0
199.125,199.125,171.6071,60,1.0,Oboe 1,1.0,0.3,77,1.0
199.125,199.125,171.6071,60,1.0,Violin 1,1.0,0.3,74,0.7087
199.125,199.125,171.6071,60,1.0,Bassoon 2,3.0,0.9,46,1.0
199.125,199.125,171.6071,60,1.0,D Trumpet 2,1.0,0.3,62,1.0
199.125,199.125,171.6071,60,1.0,D Trumpet 1,1.0,0.3,74,1.0
199.125,199.125,171.6071,60,1.0,Viola,3.0,0.9,58,1.0
199.125,199.125,171.6071,60,1.0,Violin 2,2.0,0.6,65,0.7087
199.125,199.125,171.6071,60,1.0,Flute 2,1.0,0.3,86,1.0
199.125,199.125,171.6071,60,1.0,Violin 2,2.0,0.6,74,0.7087
199.125,199.125,171.6071,60,1.0,A Clarinet 1,1.0,0.3,65,1.0
199.125,199.125,171.6071,60,1.0,Bassoon 1,3.0,0.9,58,1.0
199.125,199.125,171.6071,60,1.0,D Horn 2,1.0,0.3,50,1.0
199.125,199.125,171.6071,60,1.0,Oboe 2,1.0,0.3,74,1.0
199.125,199.125,171.6071,60,1.0,D Horn 1,1.0,0.3,62,1.0
199.125,199.125,171.6071,60,1.0,Violin 1,1.0,0.3,86,0.7087
200.875,200.875,172.1321,60,2.75,Violin 1,0.25,0.075,74,0.7087
200.875,200.875,172.1321,60,2.75,Violin 1,0.25,0.075,86,0.7087
201.125,201.125,172.2071,60,3.0,Violin 1,2.0,0.6,74,0.7087
201.125,201.125,172.2071,60,3.0,Violin 1,2.0,0.6,86,0.7087
201.125,201.125,172.2071,60,3.0,Violin 2,2.0,0.6,65,0.7087
201.125,201.125,172.2071,60,3.0,Violin 2,2.0,0.6,74,0.7087
202.125,202.125,172.5071,60,4.0,Violoncello,0.25,0.075,46,1.0
202.125,202.125,172.5071,60,4.0,Viola,0.25,0.075,58,1.0
202.125,202.125,172.5071,60,4.0,Contrabass,0.25,0.075,34,1.0
202.125,202.125,172.5071,60,4.0,Bassoon 1,0.25,0.075,58,1.0
202.125,202.125,172.5071,60,4.0,Bassoon 2,0.25,0.075,46,1.0
202.375,202.375,172.5821,60,4.25,Bassoon 1,0.25,0.075,57,1.0
202.375,202.375,172.5821,60,4.25,Bassoon 2,0.25,0.075,45,1.0
202.375,202.375,172.5821,60,4.25,Violoncello,0.25,0.075,45,1.0
202.375,202.375,172.5821,60,4.25,Contrabass,0.25,0.075,33,1.0
202.375,202.375,172.5821,60,4.25,Viola,0.25,0.075,57,1.0
202.625,202.625,172.6571,60,4.5,Violoncello,0.25,0.075,46,1.0
202.625,202.625,172.6571,60,4.5,Bassoon 2,0.25,0.075,46,1.0
202.625,202.625,172.6571,60,4.5,Bassoon 1,0.25,0.075,58,1.0
202.625,202.625,172.6571,60,4.5,Contrabass,0.25,0.075,34,1.0
202.625,202.625,172.6571,60,4.5,Viola,0.25,0.075,58,1.0
202.875,202.875,172.7321,60,4.75,Oboe 1,0.25,0.075,77,1.0
202.875,202.875,172.7321,60,4.75,D Trumpet 2,0.25,0.075,62,1.0
202.875,202.875,172.7321,60,4.75,Bassoon 1,0.25,0.075,60,1.0
202.875,202.875,172.7321,60,4.75,A Clarinet 2,0.25,0.075,62,1.0
202.875,202.875,172.7321,60,4.75,Flute 2,0.25,0.075,86,1.0
202.875,202.875,172.7321,60,4.75,A Clarinet 1,0.25,0.075,65,1.0
202.875,202.875,172.7321,60,4.75,D Trumpet 1,0.25,0.075,74,1.0
202.875,202.875,172.7321,60,4.75,Violoncello,0.25,0.075,48,1.0
202.875,202.875,172.7321,60,4.75,Oboe 2,0.25,0.075,74,1.0
202.875,202.875,172.7321,60,4.75,D Horn 1,0.25,0.075,62,1.0
202.875,202.875,172.7321,60,4.75,D Horn 2,0.25,0.075,50,1.0
202.875,202.875,172.7321,60,4.75,Viola,0.25,0.075,60,1.0
202.875,202.875,172.7321,60,4.75,Contrabass,0.25,0.075,36,1.0
202.875,202.875,172.7321,60,4.75,Bassoon 2,0.25,0.075,48,1.0
202.875,202.875,172.7321,60,4.75,Timpani,0.25,0.075,50,1.0
202.875,202.875,172.7321,60,4.75,Flute 1,0.25,0.075,89,1.0
203.125,203.125,172.8071,61,1.0,Violin 2,2.0,0.6,65,0.7087
203.125,203.125,172.8071,61,1.0,Violin 1,4.0,1.2,74,0.7087
203.125,203.125,172.8071,61,1.0,Contrabass,1.0,0.3,38,1.0
203.125,203.125,172.8071,61,1.0,Violin 1,4.0,1.2,86,0.7087
203.125,203.125,172.8071,61,1.0,Flute 1,4.0,1.2,89,1.0
203.125,203.125,172.8071,61,1.0,Bassoon 1,1.0,0.3,62,1.0
203.125,203.125,172.8071,61,1.0,Viola,1.0,0.3,62,1.0
203.125,203.125,172.8071,61,1.0,Flute 2,4.0,1.2,86,1.0
203.125,203.125,172.8071,61,1.0,Oboe 2,4.0,1.2,74,1.0
203.125,203.125,172.8071,61,1.0,Bassoon 2,1.0,0.3,50,1.0
203.125,203.125,172.8071,61,1.0,A Clarinet 1,4.0,1.2,65,1.0
203.125,203.125,172.8071,61,1.0,D Horn 2,4.0,1.2,50,1.0
203.125,203.125,172.8071,61,1.0,Violoncello,1.0,0.3,50,1.0
203.125,203.125,172.8071,61,1.0,Oboe 1,4.0,1.2,77,1.0
203.125,203.125,172.8071,61,1.0,Timpani,1.0,0.3,50,1.0
203.125,203.125,172.8071,61,1.0,D Horn 1,4.0,1.2,62,1.0
203.125,203.125,172.8071,61,1.0,D Trumpet 1,4.0,1.2,74,1.0
203.125,203.125,172.8071,61,1.0,A Clarinet 2,4.0,1.2,62,1.0
203.125,203.125,172.8071,61,1.0,D Trumpet 2,4.0,1.2,62,1.0
203.125,203.125,172.8071,61,1.0,Violin 2,2.0,0.6,74,0.7087
204.125,204.125,173.1071,61,2.0,Bassoon 1,1.0,0.3,62,1.0
204.125,204.125,173.1071,61,2.0,Bassoon 2,1.0,0.3,50,1.0
204.125,204.125,173.1071,61,2.0,Contrabass,1.0,0.3,38,1.0
204.125,204.125,173.1071,61,2.0,Violoncello,1.0,0.3,50,1.0
204.125,204.125,173.1071,61,2.0,Viola,1.0,0.3,62,1.0
205.125,205.125,173.4071,61,3.0,Bassoon 2,1.0,0.3,46,1.0
205.125,205.125,173.4071,61,3.0,Viola,1.0,0.3,58,1.0
205.125,205.125,173.4071,61,3.0,Contrabass,1.0,0.3,34,1.0
205.125,205.125,173.4071,61,3.0,Bassoon 1,1.0,0.3,58,1.0
205.125,205.125,173.4071,61,3.0,Violoncello,1.0,0.3,46,1.0
205.125,205.125,173.4071,61,3.0,Violin 2,2.0,0.6,74,0.7087
205.125,205.125,173.4071,61,3.0,Violin 2,2.0,0.6,65,0.7087
206.125,206.125,173.7071,61,4.0,Bassoon 1,1.0,0.3,58,1.0
206.125,206.125,173.7071,61,4.0,Bassoon 2,1.0,0.3,46,1.0
206.125,206.125,173.7071,61,4.0,Contrabass,1.0,0.3,34,1.0
206.125,206.125,173.7071,61,4.0,Violoncello,1.0,0.3,46,1.0
206.125,206.125,173.7071,61,4.0,Viola,1.0,0.3,58,1.0
207.125,207.125,174.0071,62,1.0,Bassoon 1,1.0,0.3,56,1.0
207.125,207.125,174.0071,62,1.0,Flute 2,1.0,0.3,86,1.0
207.125,207.125,174.0071,62,1.0,Contrabass,0.5,0.15,32,1.0
207.125,207.125,174.0071,62,1.0,Oboe 2,1.0,0.3,74,1.0
207.125,207.125,174.0071,62,1.0,A Clarinet 1,1.0,0.3,64,1.0
207.125,207.125,174.0071,62,1.0,Violin 1,2.0,0.6,88,1.0
207.125,207.125,174.0071,62,1.0,D Horn 1,1.0,0.3,62,1.0
207.125,207.125,174.0071,62,1.0,Bassoon 2,1.0,0.3,44,1.0
207.125,207.125,174.0071,62,1.0,Violin 2,2.0,0.6,76,1.0
207.125,207.125,174.0071,62,1.0,Timpani,1.0,0.3,50,1.0
207.125,207.125,174.0071,62,1.0,D Trumpet 2,1.0,0.3,62,1.0
207.125,207.125,174.0071,62,1.0,Flute 1,1.0,0.3,88,1.0
207.125,207.125,174.0071,62,1.0,Viola,0.5,0.15,56,1.0
207.125,207.125,174.0071,62,1.0,D Horn 2,1.0,0.3,50,1.0
207.125,207.125,174.0071,62,1.0,Violoncello,0.5,0.15,44,1.0
207.125,207.125,174.0071,62,1.0,Oboe 1,1.0,0.3,76,1.0
207.125,207.125,174.0071,62,1.0,A Clarinet 2,1.0,0.3,62,1.0
207.125,207.125,174.0071,62,1.0,D Trumpet 1,1.0,0.3,74,1.0
207.625,207.625,174.1571,62,1.5,Viola,0.5,0.15,64,1.0
207.625,207.625,174.1571,62,1.5,Contrabass,0.5,0.15,40,1.0
207.625,207.625,174.1571,62,1.5,Violoncello,0.5,0.15,52,1.0
208.125,208.125,174.3071,62,2.0,Contrabass,0.5,0.15,44,1.0
208.125,208.125,174.3071,62,2.0,Viola,0.5,0.15,68,1.0
208.125,208.125,174.3071,62,2.0,Violoncello,0.5,0.15,56,1.0
208.625,208.625,174.4571,62,2.5,Viola,0.5,0.15,64,1.0
208.625,208.625,174.4571,62,2.5,Contrabass,0.5,0.15,40,1.0
208.625,208.625,174.4571,62,2.5,Violoncello,0.5,0.15,52,1.0
209.125,209.125,174.6071,62,3.0,Violin 1,0.5,0.15,88,1.0
209.125,209.125,174.6071,62,3.0,Contrabass,0.5,0.15,44,1.0
209.125,209.125,174.6071,62,3.0,Violin 2,0.5,0.15,76,1.0
209.125,209.125,174.6071,62,3.0,Viola,0.5,0.15,68,1.0
209.125,209.125,174.6071,62,3.0,Violoncello,0.5,0.15,56,1.0
209.625,209.625,174.7571,62,3.5,Violoncello,0.5,0.15,52,1.0
209.625,209.625,174.7571,62,3.5,Violin 1,0.5,0.15,89,1.0
209.625,209.625,174.7571,62,3.5,Viola,0.5,0.15,64,1.0
209.625,209.625,174.7571,62,3.5,Violin 2,0.5,0.15,77,1.0
209.625,209.625,174.7571,62,3.5,Contrabass,0.5,0.15,40,1.0
210.125,210.125,174.9071,62,4.0,Violoncello,0.5,0.15,56,1.0
210.125,210.125,174.9071,62,4.0,Contrabass,0.5,0.15,44,1.0
210.125,210.125,174.9071,62,4.0,Violin 2,0.5,0.15,76,1.0
210.125,210.125,174.9071,62,4.0,Violin 1,0.5,0.15,88,1.0
210.125,210.125,174.9071,62,4.0,Viola,0.5,0.15,68,1.0
210.625,210.625,175.0571,62,4.5,Violoncello,0.5,0.15,52,1.0
210.625,210.625,175.0571,62,4.5,Violin 2,0.5,0.15,74,1.0
210.625,210.625,175.0571,62,4.5,Viola,0.5,0.15,64,1.0
210.625,210.625,175.0571,62,4.5,Violin 1,0.5,0.15,86,1.0
210.625,210.625,175.0571,62,4.5,Contrabass,0.5,0.15,40,1.0
211.125,211.125,175.2071,63,1.0,Contrabass,0.5,0.15,45,1.0
211.125,211.125,175.2071,63,1.0,Violoncello,0.5,0.15,57,1.0
211.125,211.125,175.2071,63,1.0,Viola,0.5,0.15,69,1.0
211.125,211.125,175.2071,63,1.0,Violin 1,0.5,0.15,84,1.0
211.125,211.125,175.2071,63,1.0,Violin 2,0.5,0.15,72,1.0
211.625,211.625,175.3571,63,1.5,Violoncello,0.5,0.15,52,1.0
211.625,211.625,175.3571,63,1.5,Viola,0.5,0.15,64,1.0
211.625,211.625,175.3571,63,1.5,Violin 1,0.5,0.15,83,1.0
211.625,211.625,175.3571,63,1.5,Violin 2,0.5,0.15,71,1.0
211.625,211.625,175.3571,63,1.5,Contrabass,0.5,0.15,40,1.0
212.125,212.125,175.5071,63,2.0,Violoncello,0.5,0.15,57,1.0
212.125,212.125,175.5071,63,2.0,Contrabass,0.5,0.15,45,1.0
212.125,212.125,175.5071,63,2.0,Violin 1,0.5,0.15,81,1.0
212.125,212.125,175.5071,63,2.0,Violin 2,0.5,0.15,69,1.0
212.125,212.125,175.5071,63,2.0,Viola,0.5,0.15,69,1.0
212.625,212.625,175.6571,63,2.5,Violoncello,0.5,0.15,52,1.0
212.625,212.625,175.6571,63,2.5,Violin 1,0.5,0.15,80,1.0
212.625,212.625,175.6571,63,2.5,Viola,0.5,0.15,64,1.0
212.625,212.625,175.6571,63,2.5,Contrabass,0.5,0.15,40,1.0
212.625,212.625,175.6571,63,2.5,Violin 2,0.5,0.15,68,1.0
213.125,213.125,175.8071,63,3.0,Contrabass,0.5,0.15,48,1.0
213.125,213.125,175.8071,63,3.0,Violin 1,0.5,0.15,81,1.0
213.125,213.125,175.8071,63,3.0,Violin 2,0.5,0.15,69,1.0
213.125,213.125,175.8071,63,3.0,Violoncello,0.5,0.15,60,1.0
213.125,213.125,175.8071,63,3.0,Viola,0.5,0.15,72,1.0
213.625,213.625,175.9571,63,3.5,Violin 1,0.5,0.15,84,1.0
213.625,213.625,175.9571,63,3.5,Violin 2,0.5,0.15,72,1.0
213.625,213.625,175.9571,63,3.5,Violoncello,0.5,0.15,52,1.0
213.625,213.625,175.9571,63,3.5,Contrabass,0.5,0.15,40,1.0
213.625,213.625,175.9571,63,3.5,Viola,0.5,0.15,64,1.0
214.125,214.125,176.1071,63,4.0,Viola,0.5,0.15,72,1.0
214.125,214.125,176.1071,63,4.0,Violoncello,0.5,0.15,60,1.0
214.125,214.125,176.1071,63,4.0,Contrabass,0.5,0.15,48,1.0
214.125,214.125,176.1071,63,4.0,Violin 2,0.5,0.15,71,1.0
214.125,214.125,176.1071,63,4.0,Violin 1,0.5,0.15,83,1.0
214.625,214.625,176.2571,63,4.5,Violin 2,0.5,0.15,69,1.0
214.625,214.625,176.2571,63,4.5,Violoncello,0.5,0.15,52,1.0
214.625,214.625,176.2571,63,4.5,Violin 1,0.5,0.15,81,1.0
214.625,214.625,176.2571,63,4.5,Contrabass,0.5,0.15,40,1.0
214.625,214.625,176.2571,63,4.5,Viola,0.5,0.15,64,1.0
215.125,215.125,176.4071,64,1.0,Violoncello,0.5,0.15,59,1.0
215.125,215.125,176.4071,64,1.0,Violin 2,0.5,0.15,68,1.0
215.125,215.125,176.4071,64,1.0,Contrabass,0.5,0.15,47,1.0
215.125,215.125,176.4071,64,1.0,Viola,0.5,0.15,71,1.0
215.125,215.125,176.4071,64,1.0,Violin 1,0.5,0.15,80,1.0
215.625,215.625,176.5571,64,1.5,Violin 1,0.5,0.15,63,1.0
215.625,215.625,176.5571,64,1.5,Contrabass,0.5,0.15,40,1.0
215.625,215.625,176.5571,64,1.5,Violin 2,0.5,0.15,63,1.0
215.625,215.625,176.5571,64,1.5,Violoncello,0.5,0.15,52,1.0
215.625,215.625,176.5571,64,1.5,Flute 1,0.5,0.15,75,1.0
215.625,215.625,176.5571,64,1.5,Viola,0.5,0.15,64,1.0
216.125,216.125,176.7071,64,2.0,Violoncello,0.5,0.15,59,1.0
216.125,216.125,176.7071,64,2.0,Contrabass,0.5,0.15,47,1.0
216.125,216.125,176.7071,64,2.0,Flute 1,0.5,0.15,76,1.0
216.125,216.125,176.7071,64,2.0,Viola,0.5,0.15,71,1.0
216.125,216.125,176.7071,64,2.0,Violin 2,0.5,0.15,64,1.0
216.125,216.125,176.7071,64,2.0,Violin 1,0.5,0.15,64,1.0
216.625,216.625,176.8571,64,2.5,Contrabass,0.5,0.15,40,1.0
216.625,216.625,176.8571,64,2.5,Violoncello,0.5,0.15,52,1.0
216.625,216.625,176.8571,64,2.5,Flute 1,0.5,0.15,75,1.0
216.625,216.625,176.8571,64,2.5,Violin 2,0.5,0.15,63,1.0
216.625,216.625,176.8571,64,2.5,Viola,0.5,0.15,64,1.0
216.625,216.625,176.8571,64,2.5,Violin 1,0.5,0.15,63,1.0
217.125,217.125,177.0071,64,3.0,Viola,0.5,0.15,74,1.0
217.125,217.125,177.0071,64,3.0,Contrabass,0.5,0.15,50,1.0
217.125,217.125,177.0071,64,3.0,Violin 1,0.5,0.15,64,1.0
217.125,217.125,177.0071,64,3.0,Violoncello,0.5,0.15,62,1.0
217.125,217.125,177.0071,64,3.0,Flute 1,0.5,0.15,76,1.0
217.125,217.125,177.0071,64,3.0,Violin 2,0.5,0.15,64,1.0
217.625,217.625,177.1571,64,3.5,Viola,0.5,0.15,64,1.0
217.625,217.625,177.1571,64,3.5,Violin 2,0.5,0.15,66,1.0
217.625,217.625,177.1571,64,3.5,Violoncello,0.5,0.15,52,1.0
217.625,217.625,177.1571,64,3.5,Contrabass,0.5,0.15,40,1.0
217.625,217.625,177.1571,64,3.5,Flute 1,0.5,0.15,78,1.0
217.625,217.625,177.1571,64,3.5,Violin 1,0.5,0.15,66,1.0
218.125,218.125,177.3071,64,4.0,Violoncello,0.5,0.15,62,1.0
218.125,218.125,177.3071,64,4.0,Contrabass,0.5,0.15,50,1.0
218.125,218.125,177.3071,64,4.0,Flute 1,0.5,0.15,79,1.0
218.125,218.125,177.3071,64,4.0,Violin 1,0.5,0.15,67,1.0
218.125,218.125,177.3071,64,4.0,Violin 2,0.5,0.15,67,1.0
218.125,218.125,177.3071,64,4.0,Viola,0.5,0.15,74,1.0
218.625,218.625,177.4571,64,4.5,Violin 2,0.5,0.15,68,1.0
218.625,218.625,177.4571,64,4.5,Violoncello,0.5,0.15,52,1.0
218.625,218.625,177.4571,64,4.5,Violin 1,0.5,0.15,68,1.0
218.625,218.625,177.4571,64,4.5,Viola,0.5,0.15,64,1.0
218.625,218.625,177.4571,64,4.5,Flute 1,0.5,0.15,80,1.0
218.625,218.625,177.4571,64,4.5,Contrabass,0.5,0.15,40,1.0
219.125,219.125,177.6071,65,1.0,Violin 2,0.5,0.15,69,1.0
219.125,219.125,177.6071,65,1.0,Contrabass,0.5,0.15,48,1.0
219.125,219.125,177.6071,65,1.0,Violin 1,0.5,0.15,69,1.0
219.125,219.125,177.6071,65,1.0,Flute 1,0.5,0.15,81,1.0
219.125,219.125,177.6071,65,1.0,Violoncello,0.5,0.15,60,1.0
219.125,219.125,177.6071,65,1.0,Viola,0.5,0.15,72,1.0
219.625,219.625,177.7571,65,1.5,Viola,0.5,0.15,64,1.0
219.625,219.625,177.7571,65,1.5,Flute 1,0.5,0.15,80,1.0
219.625,219.625,177.7571,65,1.5,Violin 1,0.5,0.15,68,1.0
219.625,219.625,177.7571,65,1.5,Contrabass,0.5,0.15,40,1.0
219.625,219.625,177.7571,65,1.5,Violoncello,0.5,0.15,52,1.0
219.625,219.625,177.7571,65,1.5,Violin 2,0.5,0.15,68,1.0
220.125,220.125,177.9071,65,2.0,Contrabass,0.5,0.15,48,1.0
220.125,220.125,177.9071,65,2.0,Viola,0.5,0.15,72,1.0
220.125,220.125,177.9071,65,2.0,Violin 2,0.5,0.15,69,1.0
220.125,220.125,177.9071,65,2.0,Violin 1,0.5,0.15,69,1.0
220.125,220.125,177.9071,65,2.0,Violoncello,0.5,0.15,60,1.0
220.125,220.125,177.9071,65,2.0,Flute 1,0.5,0.15,81,1.0
220.625,220.625,178.0571,65,2.5,Violoncello,0.5,0.15,52,1.0
220.625,220.625,178.0571,65,2.5,Viola,0.5,0.15,64,1.0
220.625,220.625,178.0571,65,2.5,Violin 1,0.5,0.15,71,1.0
220.625,220.625,178.0571,65,2.5,Violin 2,0.5,0.15,71,1.0
220.625,220.625,178.0571,65,2.5,Flute 1,0.5,0.15,83,1.0
220.625,220.625,178.0571,65,2.5,Contrabass,0.5,0.15,40,1.0
221.125,221.125,178.2071,65,3.0,Violin 1,0.5,0.15,72,1.0
221.125,221.125,178.2071,65,3.0,Violin 2,0.5,0.15,72,1.0
221.125,221.125,178.2071,65,3.0,Flute 1,0.5,0.15,84,1.0
221.125,221.125,178.2071,65,3.0,Viola,0.5,0.15,69,1.0
221.125,221.125,178.2071,65,3.0,Violoncello,0.5,0.15,57,1.0
221.125,221.125,178.2071,65,3.0,Contrabass,0.5,0.15,45,1.0
221.625,221.625,178.3571,65,3.5,Viola,0.5,0.15,64,1.0
221.625,221.625,178.3571,65,3.5,Violin 2,0.5,0.15,73,1.0
221.625,221.625,178.3571,65,3.5,Violin 1,0.5,0.15,73,1.0
221.625,221.625,178.3571,65,3.5,Contrabass,0.5,0.15,40,1.0
221.625,221.625,178.3571,65,3.5,Violoncello,0.5,0.15,52,1.0
221.625,221.625,178.3571,65,3.5,Flute 1,0.5,0.15,85,1.0
222.125,222.125,178.5071,65,4.0,Violoncello,0.5,0.15,57,1.0
222.125,222.125,178.5071,65,4.0,Flute 1,0.5,0.15,86,1.0
222.125,222.125,178.5071,65,4.0,Contrabass,0.5,0.15,45,1.0
222.125,222.125,178.5071,65,4.0,Viola,0.5,0.15,69,1.0
222.125,222.125,178.5071,65,4.0,Violin 2,0.5,0.15,74,1.0
222.125,222.125,178.5071,65,4.0,Violin 1,0.5,0.15,74,1.0
222.625,222.625,178.6571,65,4.5,Flute 1,0.5,0.15,87,1.0
222.625,222.625,178.6571,65,4.5,Violin 2,0.5,0.15,75,1.0
222.625,222.625,178.6571,65,4.5,Violoncello,0.5,0.15,52,1.0
222.625,222.625,178.6571,65,4.5,Contrabass,0.5,0.15,40,1.0
222.625,222.625,178.6571,65,4.5,Viola,0.5,0.15,64,1.0
222.625,222.625,178.6571,65,4.5,Violin 1,0.5,0.15,75,1.0
223.125,223.125,178.8071,66,1.0,Violin 1,1.0,0.3,76,1.0
223.125,223.125,178.8071,66,1.0,D Trumpet 2,1.0,0.3,76,1.0
223.125,223.125,178.8071,66,1.0,D Horn 2,1.0,0.3,64,1.0
223.125,223.125,178.8071,66,1.0,Violoncello,0.5,0.15,56,1.0
223.125,223.125,178.8071,66,1.0,D Horn 1,1.0,0.3,64,1.0
223.125,223.125,178.8071,66,1.0,D Trumpet 1,1.0,0.3,76,1.0
223.125,223.125,178.8071,66,1.0,Flute 1,1.0,0.3,88,1.0
223.125,223.125,178.8071,66,1.0,Viola,0.5,0.15,68,1.0
223.125,223.125,178.8071,66,1.0,Contrabass,0.5,0.15,44,1.0
223.125,223.125,178.8071,66,1.0,Violin 2,1.0,0.3,76,1.0
223.625,223.625,178.9571,66,1.5,Contrabass,0.5,0.15,40,1.0
223.625,223.625,178.9571,66,1.5,Viola,0.5,0.15,64,1.0
223.625,223.625,178.9571,66,1.5,Violoncello,0.5,0.15,52,1.0
224.125,224.125,179.1071,66,2.0,D Trumpet 2,3.0,0.9,76,1.0
224.125,224.125,179.1071,66,2.0,Violoncello,0.5,0.15,56,1.0
224.125,224.125,179.1071,66,2.0,Viola,0.5,0.15,68,1.0
224.125,224.125,179.1071,66,2.0,Contrabass,0.5,0.15,44,1.0
224.125,224.125,179.1071,66,2.0,Violin 1,1.5,0.45,88,1.0
224.125,224.125,179.1071,66,2.0,Violin 2,1.5,0.45,76,1.0
224.125,224.125,179.1071,66,2.0,D Horn 2,3.0,0.9,64,1.0
224.125,224.125,179.1071,66,2.0,D Horn 1,3.0,0.9,64,1.0
224.125,224.125,179.1071,66,2.0,D Trumpet 1,3.0,0.9,76,1.0
224.625,224.625,179.2571,66,2.5,Viola,0.5,0.15,64,1.0
224.625,224.625,179.2571,66,2.5,Contrabass,0.5,0.15,40,1.0
224.625,224.625,179.2571,66,2.5,Violoncello,0.5,0.15,52,1.0
225.125,225.125,179.4071,66,3.0,Viola,0.5,0.15,68,1.0
225.125,225.125,179.4071,66,3.0,Violoncello,0.5,0.15,56,1.0
225.125,225.125,179.4071,66,3.0,Contrabass,0.5,0.15,44,1.0
225.625,225.625,179.5571,66,3.5,Violoncello,0.5,0.15,52,1.0
225.625,225.625,179.5571,66,3.5,Violin 2,0.5,0.15,77,1.0
225.625,225.625,179.5571,66,3.5,Violin 1,0.5,0.15,89,1.0
225.625,225.625,179.5571,66,3.5,Contrabass,0.5,0.15,40,1.0
225.625,225.625,179.5571,66,3.5,Viola,0.5,0.15,64,1.0
226.125,226.125,179.7071,66,4.0,Violin 2,0.5,0.15,76,1.0
226.125,226.125,179.7071,66,4.0,Violin 1,0.5,0.15,88,1.0
226.125,226.125,179.7071,66,4.0,Contrabass,0.5,0.15,44,1.0
226.125,226.125,179.7071,66,4.0,Viola,0.5,0.15,68,1.0
226.125,226.125,179.7071,66,4.0,Violoncello,0.5,0.15,56,1.0
226.625,226.625,179.8571,66,4.5,Violoncello,0.5,0.15,52,1.0
226.625,226.625,179.8571,66,4.5,Violin 1,0.5,0.15,86,1.0
226.625,226.625,179.8571,66,4.5,Violin 2,0.5,0.15,74,1.0
226.625,226.625,179.8571,66,4.5,Viola,0.5,0.15,64,1.0
226.625,226.625,179.8571,66,4.5,Contrabass,0.5,0.15,40,1.0
227.125,227.125,180.0071,67,1.0,D Horn 1,4.0,1.2,64,1.0
227.125,227.125,180.0071,67,1.0,D Trumpet 1,4.0,1.2,76,1.0
227.125,227.125,180.0071,67,1.0,Violin 2,0.5,0.15,72,1.0
227.125,227.125,180.0071,67,1.0,Violoncello,0.5,0.15,57,1.0
227.125,227.125,180.0071,67,1.0,Violin 1,0.5,0.15,84,1.0
227.125,227.125,180.0071,67,1.0,D Trumpet 2,4.0,1.2,76,1.0
227.125,227.125,180.0071,67,1.0,Viola,0.5,0.15,69,1.0
227.125,227.125,180.0071,67,1.0,Contrabass,0.5,0.15,45,1.0
227.125,227.125,180.0071,67,1.0,D Horn 2,4.0,1.2,64,1.0
227.625,227.625,180.1571,67,1.5,Viola,0.5,0.15,64,1.0
227.625,227.625,180.1571,67,1.5,Contrabass,0.5,0.15,40,1.0
227.625,227.625,180.1571,67,1.5,Violin 1,0.5,0.15,83,1.0
227.625,227.625,180.1571,67,1.5,Violoncello,0.5,0.15,52,1.0
227.625,227.625,180.1571,67,1.5,Violin 2,0.5,0.15,71,1.0
228.125,228.125,180.3071,67,2.0,Contrabass,0.5,0.15,45,1.0
228.125,228.125,180.3071,67,2.0,Violoncello,0.5,0.15,57,1.0
228.125,228.125,180.3071,67,2.0,Violin 2,0.5,0.15,69,1.0
228.125,228.125,180.3071,67,2.0,Viola,0.5,0.15,69,1.0
228.125,228.125,180.3071,67,2.0,Violin 1,0.5,0.15,81,1.0
228.625,228.625,180.4571,67,2.5,Violin 2,0.5,0.15,68,1.0
228.625,228.625,180.4571,67,2.5,Violin 1,0.5,0.15,80,1.0
228.625,228.625,180.4571,67,2.5,Viola,0.5,0.15,64,1.0
228.625,228.625,180.4571,67,2.5,Violoncello,0.5,0.15,52,1.0
228.625,228.625,180.4571,67,2.5,Contrabass,0.5,0.15,40,1.0
229.125,229.125,180.6071,67,3.0,Contrabass,0.5,0.15,48,1.0
229.125,229.125,180.6071,67,3.0,Violin 1,0.5,0.15,81,1.0
229.125,229.125,180.6071,67,3.0,Viola,0.5,0.15,72,1.0
229.125,229.125,180.6071,67,3.0,Violin 2,0.5,0.15,69,1.0
229.125,229.125,180.6071,67,3.0,Violoncello,0.5,0.15,60,1.0
229.625,229.625,180.7571,67,3.5,Violin 2,0.5,0.15,72,1.0
229.625,229.625,180.7571,67,3.5,Violoncello,0.5,0.15,52,1.0
229.625,229.625,180.7571,67,3.5,Contrabass,0.5,0.15,40,1.0
229.625,229.625,180.7571,67,3.5,Violin 1,0.5,0.15,84,1.0
229.625,229.625,180.7571,67,3.5,Viola,0.5,0.15,64,1.0
230.125,230.125,180.9071,67,4.0,Viola,0.5,0.15,72,1.0
230.125,230.125,180.9071,67,4.0,Violin 1,0.5,0.15,83,1.0
230.125,230.125,180.9071,67,4.0,Contrabass,0.5,0.15,48,1.0
230.125,230.125,180.9071,67,4.0,Violin 2,0.5,0.15,71,1.0
230.125,230.125,180.9071,67,4.0,Violoncello,0.5,0.15,60,1.0
230.625,230.625,181.0571,67,4.5,Contrabass,0.5,0.15,40,1.0
230.625,230.625,181.0571,67,4.5,Viola,0.5,0.15,64,1.0
230.625,230.625,181.0571,67,4.5,Violin 1,0.5,0.15,81,1.0
230.625,230.625,181.0571,67,4.5,Violoncello,0.5,0.15,52,1.0
230.625,230.625,181.0571,67,4.5,Violin 2,0.5,0.15,69,1.0
231.125,231.125,181.2071,68,1.0,Contrabass,0.5,0.15,47,1.0
231.125,231.125,181.2071,68,1.0,Flute 1,4.0,1.2,88,1.0
231.125,231.125,181.2071,68,1.0,D Trumpet 2,4.0,1.2,76,1.0
231.125,231.125,181.2071,68,1.0,Violin 1,0.25,0.075,80,1.0
231.125,231.125,181.2071,68,1.0,D Horn 2,4.0,1.2,64,1.0
231.125,231.125,181.2071,68,1.0,D Trumpet 1,4.0,1.2,76,1.0
231.125,231.125,181.2071,68,1.0,Viola,0.5,0.15,71,1.0
231.125,231.125,181.2071,68,1.0,Oboe 2,4.0,1.2,76,1.0
231.125,231.125,181.2071,68,1.0,D Horn 1,4.0,1.2,64,1.0
231.125,231.125,181.2071,68,1.0,Oboe 1,4.0,1.2,76,1.0
231.125,231.125,181.2071,68,1.0,Violoncello,0.5,0.15,59,1.0
231.125,231.125,181.2071,68,1.0,Violin 2,0.25,0.075,68,1.0
231.375,231.375,181.2821,68,1.25,Violin 1,0.25,0.075,80,1.0
231.375,231.375,181.2821,68,1.25,Violin 2,0.25,0.075,68,1.0
231.625,231.625,181.3571,68,1.5,Violin 1,0.25,0.075,75,1.0
231.625,231.625,181.3571,68,1.5,Viola,0.5,0.15,64,1.0
231.625,231.625,181.3571,68,1.5,Violoncello,0.5,0.15,52,1.0
231.625,231.625,181.3571,68,1.5,Violin 2,0.25,0.075,63,1.0
231.625,231.625,181.3571,68,1.5,Contrabass,0.5,0.15,40,1.0
231.875,231.875,181.4321,68,1.75,Violin 1,0.25,0.075,75,1.0
231.875,231.875,181.4321,68,1.75,Violin 2,0.25,0.075,63,1.0
232.125,232.125,181.5071,68,2.0,Contrabass,2.0,0.6,52,1.0
232.125,232.125,181.5071,68,2.0,Viola,2.0,0.6,76,1.0
232.125,232.125,181.5071,68,2.0,Bassoon 2,2.0,0.6,64,1.0
232.125,232.125,181.5071,68,2.0,Bassoon 1,2.0,0.6,64,1.0
232.125,232.125,181.5071,68,2.0,Violin 2,0.25,0.075,64,1.0
232.125,232.125,181.5071,68,2.0,Violin 1,0.25,0.075,76,1.0
232.125,232.125,181.5071,68,2.0,Violoncello,2.0,0.6,64,1.0
232.375,232.375,181.5821,68,2.25,Violin 2,0.25,0.075,64,1.0
232.375,232.375,181.5821,68,2.25,Violin 1,0.25,0.075,76,1.0
232.625,232.625,181.6571,68,2.5,Violin 1,0.25,0.075,75,1.0
232.625,232.625,181.6571,68,2.5,Violin 2,0.25,0.075,63,1.0
232.875,232.875,181.7321,68,2.75,Violin 1,0.25,0.075,75,1.0
232.875,232.875,181.7321,68,2.75,Violin 2,0.25,0.075,63,1.0
233.125,233.125,181.8071,68,3.0,Violin 1,0.25,0.075,76,1.0
233.125,233.125,181.8071,68,3.0,Violin 2,0.25,0.075,64,1.0
233.375,233.375,181.8821,68,3.25,Violin 1,0.25,0.075,76,1.0
233.375,233.375,181.8821,68,3.25,Violin 2,0.25,0.075,64,1.0
233.625,233.625,181.9571,68,3.5,Violin 1,0.25,0.075,78,1.0
233.625,233.625,181.9571,68,3.5,Violin 2,0.25,0.075,66,1.0
233.875,233.875,182.0321,68,3.75,Violin 1,0.25,0.075,78,1.0
233.875,233.875,182.0321,68,3.75,Violin 2,0.25,0.075,66,1.0
234.125,234.125,182.1071,68,4.0,Violin 2,0.25,0.075,67,1.0
234.125,234.125,182.1071,68,4.0,Bassoon 2,0.5,0.15,64,1.0
234.125,234.125,182.1071,68,4.0,Viola,0.5,0.15,76,1.0
234.125,234.125,182.1071,68,4.0,Violoncello,0.5,0.15,64,1.0
234.125,234.125,182.1071,68,4.0,Contrabass,0.5,0.15,52,1.0
234.125,234.125,182.1071,68,4.0,Violin 1,0.25,0.075,79,1.0
234.125,234.125,182.1071,68,4.0,Bassoon 1,0.5,0.15,64,1.0
234.375,234.375,182.1821,68,4.25,Violin 2,0.25,0.075,67,1.0
234.375,234.375,182.1821,68,4.25,Violin 1,0.25,0.075,79,1.0
234.625,234.625,182.2571,68,4.5,Violin 2,0.25,0.075,68,1.0
234.625,234.625,182.2571,68,4.5,Violoncello,0.5,0.15,62,1.0
234.625,234.625,182.2571,68,4.5,Contrabass,0.5,0.15,50,1.0
234.625,234.625,182.2571,68,4.5,Viola,0.5,0.15,74,1.0
234.625,234.625,182.2571,68,4.5,Violin 1,0.25,0.075,80,1.0
234.625,234.625,182.2571,68,4.5,Bassoon 2,0.5,0.15,62,1.0
234.625,234.625,182.2571,68,4.5,Bassoon 1,0.5,0.15,62,1.0
234.875,234.875,182.3321,68,4.75,Violin 2,0.25,0.075,68,1.0
234.875,234.875,182.3321,68,4.75,Violin 1,0.25,0.075,80,1.0
235.125,235.125,182.4071,69,1.0,Bassoon 2,0.5,0.15,60,1.0
235.125,235.125,182.4071,69,1.0,D Horn 1,1.0,0.3,64,1.0
235.125,235.125,182.4071,69,1.0,Violoncello,0.5,0.15,60,1.0
235.125,235.125,182.4071,69,1.0,Bassoon 1,0.5,0.15,60,1.0
235.125,235.125,182.4071,69,1.0,Violin 1,0.25,0.075,81,1.0
235.125,235.125,182.4071,69,1.0,Oboe 1,2.0,0.6,76,1.0
235.125,235.125,182.4071,69,1.0,Contrabass,0.5,0.15,48,1.0
235.125,235.125,182.4071,69,1.0,Oboe 2,2.0,0.6,76,1.0
235.125,235.125,182.4071,69,1.0,Violin 2,0.25,0.075,69,1.0
235.125,235.125,182.4071,69,1.0,Flute 1,2.0,0.6,88,1.0
235.125,235.125,182.4071,69,1.0,D Trumpet 2,1.0,0.3,76,1.0
235.125,235.125,182.4071,69,1.0,Viola,0.5,0.15,72,1.0
235.125,235.125,182.4071,69,1.0,D Trumpet 1,1.0,0.3,76,1.0
235.125,235.125,182.4071,69,1.0,D Horn 2,1.0,0.3,64,1.0
235.375,235.375,182.4821,69,1.25,Violin 2,0.25,0.075,69,1.0
235.375,235.375,182.4821,69,1.25,Violin 1,0.25,0.075,81,1.0
235.625,235.625,182.5571,69,1.5,Bassoon 1,0.5,0.15,62,1.0
235.625,235.625,182.5571,69,1.5,Bassoon 2,0.5,0.15,62,1.0
235.625,235.625,182.5571,69,1.5,Violin 1,0.25,0.075,80,1.0
235.625,235.625,182.5571,69,1.5,Contrabass,0.5,0.15,50,1.0
235.625,235.625,182.5571,69,1.5,Viola,0.5,0.15,74,1.0
235.625,235.625,182.5571,69,1.5,Violin 2,0.25,0.075,68,1.0
235.625,235.625,182.5571,69,1.5,Violoncello,0.5,0.15,62,1.0
235.875,235.875,182.6321,69,1.75,Violin 1,0.25,0.075,80,1.0
235.875,235.875,182.6321,69,1.75,Violin 2,0.25,0.075,68,1.0
236.125,236.125,182.7071,69,2.0,D Trumpet 2,2.0,0.6,69,1.0
236.125,236.125,182.7071,69,2.0,Violin 1,0.25,0.075,81,1.0
236.125,236.125,182.7071,69,2.0,D Horn 1,2.0,0.6,69,1.0
236.125,236.125,182.7071,69,2.0,Violoncello,0.5,0.15,60,1.0
236.125,236.125,182.7071,69,2.0,Bassoon 2,0.5,0.15,60,1.0
236.125,236.125,182.7071,69,2.0,Violin 2,0.25,0.075,69,1.0
236.125,236.125,182.7071,69,2.0,Contrabass,0.5,0.15,48,1.0
236.125,236.125,182.7071,69,2.0,D Trumpet 1,2.0,0.6,69,1.0
236.125,236.125,182.7071,69,2.0,Bassoon 1,0.5,0.15,60,1.0
236.125,236.125,182.7071,69,2.0,D Horn 2,2.0,0.6,57,1.0
236.125,236.125,182.7071,69,2.0,Viola,0.5,0.15,72,1.0
236.375,236.375,182.7821,69,2.25,Violin 2,0.25,0.075,69,1.0
236.375,236.375,182.7821,69,2.25,Violin 1,0.25,0.075,81,1.0
236.625,236.625,182.8571,69,2.5,Viola,0.5,0.15,71,1.0
236.625,236.625,182.8571,69,2.5,Bassoon 1,0.5,0.15,59,1.0
236.625,236.625,182.8571,69,2.5,Bassoon 2,0.5,0.15,59,1.0
236.625,236.625,182.8571,69,2.5,Violoncello,0.5,0.15,59,1.0
236.625,236.625,182.8571,69,2.5,Contrabass,0.5,0.15,47,1.0
236.625,236.625,182.8571,69,2.5,Violin 1,0.25,0.075,83,1.0
236.625,236.625,182.8571,69,2.5,Violin 2,0.25,0.075,71,1.0
236.875,236.875,182.9321,69,2.75,Violin 2,0.25,0.075,71,1.0
236.875,236.875,182.9321,69,2.75,Violin 1,0.25,0.075,83,1.0
237.125,237.125,183.0071,69,3.0,Violoncello,0.5,0.15,57,1.0
237.125,237.125,183.0071,69,3.0,Viola,0.5,0.15,69,1.0
237.125,237.125,183.0071,69,3.0,Oboe 1,0.5,0.15,76,1.0
237.125,237.125,183.0071,69,3.0,Contrabass,0.5,0.15,45,1.0
237.125,237.125,183.0071,69,3.0,Violin 2,0.25,0.075,72,1.0
237.125,237.125,183.0071,69,3.0,Bassoon 2,0.5,0.15,57,1.0
237.125,237.125,183.0071,69,3.0,Violin 1,0.25,0.075,84,1.0
237.125,237.125,183.0071,69,3.0,Oboe 2,0.5,0.15,76,1.0
237.125,237.125,183.0071,69,3.0,Flute 1,0.5,0.15,88,1.0
237.125,237.125,183.0071,69,3.0,Bassoon 1,0.5,0.15,57,1.0
237.375,237.375,183.0821,69,3.25,Violin 2,0.25,0.075,72,1.0
237.375,237.375,183.0821,69,3.25,Violin 1,0.25,0.075,84,1.0
237.625,237.625,183.1571,69,3.5,Viola,0.5,0.15,67,1.0
237.625,237.625,183.1571,69,3.5,Violin 1,0.25,0.075,85,1.0
237.625,237.625,183.1571,69,3.5,Flute 1,0.5,0.15,85,1.0
237.625,237.625,183.1571,69,3.5,Oboe 2,0.5,0.15,73,1.0
237.625,237.625,183.1571,69,3.5,Bassoon 2,0.5,0.15,55,1.0
237.625,237.625,183.1571,69,3.5,Bassoon 1,0.5,0.15,67,1.0
237.625,237.625,183.1571,69,3.5,Oboe 1,1.0,0.3,81,1.0
237.625,237.625,183.1571,69,3.5,Violin 2,0.25,0.075,73,1.0
237.625,237.625,183.1571,69,3.5,Contrabass,0.5,0.15,43,1.0
237.625,237.625,183.1571,69,3.5,Violoncello,0.5,0.15,55,1.0
237.875,237.875,183.2321,69,3.75,Violin 2,0.25,0.075,73,1.0
237.875,237.875,183.2321,69,3.75,Violin 1,0.25,0.075,85,1.0
238.125,238.125,183.3071,69,4.0,D Horn 1,1.0,0.3,69,1.0
238.125,238.125,183.3071,69,4.0,Bassoon 2,0.5,0.15,54,1.0
238.125,238.125,183.3071,69,4.0,Viola,0.5,0.15,66,1.0
238.125,238.125,183.3071,69,4.0,Flute 1,0.5,0.15,86,1.0
238.125,238.125,183.3071,69,4.0,D Horn 2,1.0,0.3,57,1.0
238.125,238.125,183.3071,69,4.0,Contrabass,0.5,0.15,42,1.0
238.125,238.125,183.3071,69,4.0,D Trumpet 2,1.0,0.3,69,1.0
238.125,238.125,183.3071,69,4.0,Violin 2,0.25,0.075,74,1.0
238.125,238.125,183.3071,69,4.0,D Trumpet 1,1.0,0.3,69,1.0
238.125,238.125,183.3071,69,4.0,Violoncello,0.5,0.15,54,1.0
238.125,238.125,183.3071,69,4.0,Bassoon 1,0.5,0.15,66,1.0
238.125,238.125,183.3071,69,4.0,Violin 1,0.25,0.075,86,1.0
238.125,238.125,183.3071,69,4.0,Oboe 2,0.5,0.15,74,1.0
238.375,238.375,183.3821,69,4.25,Violin 1,0.25,0.075,86,1.0
238.375,238.375,183.3821,69,4.25,Violin 2,0.25,0.075,74,1.0
238.625,238.625,183.4571,69,4.5,Violin 1,0.25,0.075,87,1.0
238.625,238.625,183.4571,69,4.5,Bassoon 2,0.5,0.15,53,1.0
238.625,238.625,183.4571,69,4.5,Violin 2,0.25,0.075,75,1.0
238.625,238.625,183.4571,69,4.5,Violoncello,0.5,0.15,53,1.0
238.625,238.625,183.4571,69,4.5,Flute 1,0.5,0.15,87,1.0
238.625,238.625,183.4571,69,4.5,Contrabass,0.5,0.15,41,1.0
238.625,238.625,183.4571,69,4.5,Viola,0.5,0.15,65,1.0
238.625,238.625,183.4571,69,4.5,Bassoon 1,0.5,0.15,65,1.0
238.625,238.625,183.4571,69,4.5,Oboe 1,0.5,0.15,81,1.0
238.625,238.625,183.4571,69,4.5,Oboe 2,0.5,0.15,75,1.0
238.875,238.875,183.5321,69,4.75,Violin 2,0.25,0.075,75,1.0
238.875,238.875,183.5321,69,4.75,Violin 1,0.25,0.075,87,1.0
239.125,239.125,183.6071,70,1.0,Violin 1,1.0,0.3,88,1.0
239.125,239.125,183.6071,70,1.0,D Trumpet 2,1.5,0.45,76,1.0
239.125,239.125,183.6071,70,1.0,D Horn 2,1.5,0.45,64,1.0
239.125,239.125,183.6071,70,1.0,Viola,1.5,0.45,64,1.0
239.125,239.125,183.6071,70,1.0,Flute 1,1.5,0.45,88,1.0
239.125,239.125,183.6071,70,1.0,D Trumpet 1,1.5,0.45,76,1.0
239.125,239.125,183.6071,70,1.0,Oboe 2,1.5,0.45,76,1.0
239.125,239.125,183.6071,70,1.0,Bassoon 2,1.5,0.45,52,1.0
239.125,239.125,183.6071,70,1.0,Contrabass,1.5,0.45,40,1.0
239.125,239.125,183.6071,70,1.0,Violoncello,1.5,0.45,52,1.0
239.125,239.125,183.6071,70,1.0,D Horn 1,1.5,0.45,64,1.0
239.125,239.125,183.6071,70,1.0,Bassoon 1,1.5,0.45,64,1.0
239.125,239.125,183.6071,70,1.0,Violin 2,0.25,0.075,76,1.0
239.125,239.125,183.6071,70,1.0,Oboe 1,1.5,0.45,80,1.0
239.375,239.375,183.6821,70,1.25,Violin 2,0.25,0.075,68,1.0
239.625,239.625,183.7571,70,1.5,Violin 2,0.25,0.075,68,1.0
239.875,239.875,183.8321,70,1.75,Violin 2,0.25,0.075,68,1.0
240.125,240.125,183.9071,70,2.0,Violin 2,0.25,0.075,68,1.0
240.125,240.125,183.9071,70,2.0,Violin 1,0.25,0.075,88,1.0
240.375,240.375,183.9821,70,2.25,Violin 1,0.25,0.075,88,1.0
240.375,240.375,183.9821,70,2.25,Violin 2,0.25,0.075,68,1.0
240.625,240.625,184.0571,70,2.5,Violin 2,0.25,0.075,69,1.0
240.625,240.625,184.0571,70,2.5,D Trumpet 2,0.5,0.15,69,1.0
240.625,240.625,184.0571,70,2.5,D Horn 2,0.5,0.15,57,1.0
240.625,240.625,184.0571,70,2.5,Viola,0.5,0.15,65,1.0
240.625,240.625,184.0571,70,2.5,Flute 1,0.5,0.15,87,1.0
240.625,240.625,184.0571,70,2.5,Violoncello,0.5,0.15,53,1.0
240.625,240.625,184.0571,70,2.5,Contrabass,0.5,0.15,41,1.0
240.625,240.625,184.0571,70,2.5,D Horn 1,0.5,0.15,69,1.0
240.625,240.625,184.0571,70,2.5,D Trumpet 1,0.5,0.15,69,1.0
240.625,240.625,184.0571,70,2.5,Violin 1,0.25,0.075,87,1.0
240.625,240.625,184.0571,70,2.5,Oboe 2,0.5,0.15,75,1.0
240.625,240.625,184.0571,70,2.5,Bassoon 1,0.5,0.15,65,1.0
240.625,240.625,184.0571,70,2.5,Oboe 1,0.5,0.15,81,1.0
240.625,240.625,184.0571,70,2.5,Bassoon 2,0.5,0.15,53,1.0
240.875,240.875,184.1321,70,2.75,Violin 1,0.25,0.075,87,1.0
240.875,240.875,184.1321,70,2.75,Violin 2,0.25,0.075,69,1.0
241.125,241.125,184.2071,70,3.0,Oboe 1,1.5,0.45,80,1.0
241.125,241.125,184.2071,70,3.0,Bassoon 2,1.5,0.45,52,1.0
241.125,241.125,184.2071,70,3.0,Violin 1,0.25,0.075,88,1.0
241.125,241.125,184.2071,70,3.0,D Trumpet 2,1.5,0.45,76,1.0
241.125,241.125,184.2071,70,3.0,Viola,1.5,0.45,64,1.0
241.125,241.125,184.2071,70,3.0,Violoncello,1.5,0.45,52,1.0
241.125,241.125,184.2071,70,3.0,Contrabass,1.5,0.45,40,1.0
241.125,241.125,184.2071,70,3.0,Violin 2,0.25,0.075,68,1.0
241.125,241.125,184.2071,70,3.0,Flute 1,1.5,0.45,88,1.0
241.125,241.125,184.2071,70,3.0,D Trumpet 1,1.5,0.45,76,1.0
241.125,241.125,184.2071,70,3.0,D Horn 1,1.5,0.45,64,1.0
241.125,241.125,184.2071,70,3.0,Bassoon 1,1.5,0.45,64,1.0
241.125,241.125,184.2071,70,3.0,Oboe 2,1.5,0.45,76,1.0
241.125,241.125,184.2071,70,3.0,D Horn 2,1.5,0.45,64,1.0
241.375,241.375,184.2821,70,3.25,Violin 1,0.25,0.075,88,1.0
241.375,241.375,184.2821,70,3.25,Violin 2,0.25,0.075,68,1.0
241.625,241.625,184.3571,70,3.5,Violin 1,0.25,0.075,87,1.0
241.625,241.625,184.3571,70,3.5,Violin 2,0.25,0.075,68,1.0
241.875,241.875,184.4321,70,3.75,Violin 1,0.25,0.075,87,1.0
241.875,241.875,184.4321,70,3.75,Violin 2,0.25,0.075,68,1.0
242.125,242.125,184.5071,70,4.0,Violin 1,0.25,0.075,88,1.0
242.125,242.125,184.5071,70,4.0,Violin 2,0.25,0.075,68,1.0
242.375,242.375,184.5821,70,4.25,Violin 2,0.25,0.075,68,1.0
242.375,242.375,184.5821,70,4.25,Violin 1,0.25,0.075,88,1.0
242.625,242.625,184.6571,70,4.5,Violoncello,0.5,0.15,53,1.0
242.625,242.625,184.6571,70,4.5,D Trumpet 2,0.5,0.15,69,1.0
242.625,242.625,184.6571,70,4.5,D Horn 1,0.5,0.15,69,1.0
242.625,242.625,184.6571,70,4.5,Viola,0.5,0.15,65,1.0
242.625,242.625,184.6571,70,4.5,Bassoon 1,0.5,0.15,65,1.0
242.625,242.625,184.6571,70,4.5,D Trumpet 1,0.5,0.15,69,1.0
242.625,242.625,184.6571,70,4.5,Flute 1,0.5,0.15,87,1.0
242.625,242.625,184.6571,70,4.5,Contrabass,0.5,0.15,41,1.0
242.625,242.625,184.6571,70,4.5,Oboe 1,0.5,0.15,81,1.0
242.625,242.625,184.6571,70,4.5,D Horn 2,0.5,0.15,57,1.0
242.625,242.625,184.6571,70,4.5,Oboe 2,0.5,0.15,75,1.0
242.625,242.625,184.6571,70,4.5,Bassoon 2,0.5,0.15,53,1.0
242.625,242.625,184.6571,70,4.5,Violin 1,0.25,0.075,87,1.0
242.625,242.625,184.6571,70,4.5,Violin 2,0.25,0.075,69,1.0
242.875,242.875,184.7321,70,4.75,Violin 2,0.25,0.075,69,1.0
242.875,242.875,184.7321,70,4.75,Violin 1,0.25,0.075,87,1.0
243.125,243.125,184.8071,71,1.0,Oboe 2,0.5,0.15,76,1.0
243.125,243.125,184.8071,71,1.0,D Trumpet 2,0.5,0.15,76,1.0
243.125,243.125,184.8071,71,1.0,Oboe 1,0.5,0.15,80,1.0
243.125,243.125,184.8071,71,1.0,Violoncello,0.5,0.15,52,1.0
243.125,243.125,184.8071,71,1.0,D Trumpet 1,0.5,0.15,76,1.0
243.125,243.125,184.8071,71,1.0,Contrabass,0.5,0.15,40,1.0
243.125,243.125,184.8071,71,1.0,D Horn 2,0.5,0.15,64,1.0
243.125,243.125,184.8071,71,1.0,Violin 2,0.25,0.075,68,1.0
243.125,243.125,184.8071,71,1.0,Bassoon 2,0.5,0.15,52,1.0
243.125,243.125,184.8071,71,1.0,Flute 1,0.5,0.15,88,1.0
243.125,243.125,184.8071,71,1.0,Viola,0.5,0.15,64,1.0
243.125,243.125,184.8071,71,1.0,D Horn 1,0.5,0.15,64,1.0
243.125,243.125,184.8071,71,1.0,Violin 1,0.25,0.075,88,1.0
243.125,243.125,184.8071,71,1.0,Bassoon 1,0.5,0.15,64,1.0
243.375,243.375,184.8821,71,1.25,Violin 2,0.25,0.075,68,1.0
243.375,243.375,184.8821,71,1.25,Violin 1,0.25,0.075,88,1.0
243.625,243.625,184.9571,71,1.5,Oboe 1,0.5,0.15,81,1.0
243.625,243.625,184.9571,71,1.5,Violin 1,0.25,0.075,87,1.0
243.625,243.625,184.9571,71,1.5,D Trumpet 2,0.5,0.15,69,1.0
243.625,243.625,184.9571,71,1.5,Oboe 2,0.5,0.15,75,1.0
243.625,243.625,184.9571,71,1.5,Violoncello,0.5,0.15,53,1.0
243.625,243.625,184.9571,71,1.5,Bassoon 1,0.5,0.15,65,1.0
243.625,243.625,184.9571,71,1.5,Contrabass,0.5,0.15,41,1.0
243.625,243.625,184.9571,71,1.5,Violin 2,0.25,0.075,69,1.0
243.625,243.625,184.9571,71,1.5,D Horn 2,0.5,0.15,57,1.0
243.625,243.625,184.9571,71,1.5,D Trumpet 1,0.5,0.15,69,1.0
243.625,243.625,184.9571,71,1.5,Flute 1,0.5,0.15,87,1.0
243.625,243.625,184.9571,71,1.5,D Horn 1,0.5,0.15,69,1.0
243.625,243.625,184.9571,71,1.5,Viola,0.5,0.15,65,1.0
243.625,243.625,184.9571,71,1.5,Bassoon 2,0.5,0.15,53,1.0
243.875,243.875,185.0321,71,1.75,Violin 2,0.25,0.075,69,1.0
243.875,243.875,185.0321,71,1.75,Violin 1,0.25,0.075,87,1.0
244.125,244.125,185.1071,71,2.0,Viola,0.5,0.15,64,1.0
244.125,244.125,185.1071,71,2.0,D Trumpet 2,0.5,0.15,76,1.0
244.125,244.125,185.1071,71,2.0,Contrabass,0.5,0.15,40,1.0
244.125,244.125,185.1071,71,2.0,Bassoon 1,0.5,0.15,64,1.0
244.125,244.125,185.1071,71,2.0,Oboe 1,0.5,0.15,80,1.0
244.125,244.125,185.1071,71,2.0,Violin 2,0.25,0.075,68,1.0
244.125,244.125,185.1071,71,2.0,Oboe 2,0.5,0.15,76,1.0
244.125,244.125,185.1071,71,2.0,Bassoon 2,0.5,0.15,52,1.0
244.125,244.125,185.1071,71,2.0,Violin 1,0.25,0.075,88,1.0
244.125,244.125,185.1071,71,2.0,D Horn 1,0.5,0.15,64,1.0
244.125,244.125,185.1071,71,2.0,D Horn 2,0.5,0.15,64,1.0
244.125,244.125,185.1071,71,2.0,D Trumpet 1,0.5,0.15,76,1.0
244.125,244.125,185.1071,71,2.0,Flute 1,0.5,0.15,88,1.0
244.125,244.125,185.1071,71,2.0,Violoncello,0.5,0.15,52,1.0
244.375,244.375,185.1821,71,2.25,Violin 1,0.25,0.075,88,1.0
244.375,244.375,185.1821,71,2.25,Violin 2,0.25,0.075,68,1.0
244.625,244.625,185.2571,71,2.5,Violoncello,0.5,0.15,53,1.0
244.625,244.625,185.2571,71,2.5,Oboe 2,0.5,0.15,75,1.0
244.625,244.625,185.2571,71,2.5,D Trumpet 1,0.5,0.15,69,1.0
244.625,244.625,185.2571,71,2.5,Bassoon 1,0.5,0.15,65,1.0
244.625,244.625,185.2571,71,2.5,Violin 1,0.25,0.075,87,1.0
244.625,244.625,185.2571,71,2.5,Violin 2,0.25,0.075,69,1.0
244.625,244.625,185.2571,71,2.5,Contrabass,0.5,0.15,41,1.0
244.625,244.625,185.2571,71,2.5,Oboe 1,0.5,0.15,81,1.0
244.625,244.625,185.2571,71,2.5,D Trumpet 2,0.5,0.15,69,1.0
244.625,244.625,185.2571,71,2.5,Viola,0.5,0.15,65,1.0
244.625,244.625,185.2571,71,2.5,Bassoon 2,0.5,0.15,53,1.0
244.625,244.625,185.2571,71,2.5,D Horn 1,0.5,0.15,69,1.0
244.625,244.625,185.2571,71,2.5,D Horn 2,0.5,0.15,57,1.0
244.625,244.625,185.2571,71,2.5,Flute 1,0.5,0.15,87,1.0
244.875,244.875,185.3321,71,2.75,Violin 2,0.25,0.075,69,1.0
244.875,244.875,185.3321,71,2.75,Violin 1,0.25,0.075,87,1.0
245.125,245.125,185.4071,71,3.0,D Trumpet 2,0.5,0.15,76,1.0
245.125,245.125,185.4071,71,3.0,Violin 1,0.25,0.075,88,1.0
245.125,245.125,185.4071,71,3.0,Violin 2,0.25,0.075,68,1.0
245.125,245.125,185.4071,71,3.0,Viola,0.5,0.15,64,1.0
245.125,245.125,185.4071,71,3.0,Flute 1,0.5,0.15,88,1.0
245.125,245.125,185.4071,71,3.0,Contrabass,0.5,0.15,40,1.0
245.125,245.125,185.4071,71,3.0,Violoncello,0.5,0.15,52,1.0
245.125,245.125,185.4071,71,3.0,Bassoon 1,0.5,0.15,64,1.0
245.125,245.125,185.4071,71,3.0,Oboe 1,0.5,0.15,80,1.0
245.125,245.125,185.4071,71,3.0,Oboe 2,0.5,0.15,76,1.0
245.125,245.125,185.4071,71,3.0,D Horn 2,0.5,0.15,64,1.0
245.125,245.125,185.4071,71,3.0,D Horn 1,0.5,0.15,64,1.0
245.125,245.125,185.4071,71,3.0,D Trumpet 1,0.5,0.15,76,1.0
245.125,245.125,185.4071,71,3.0,Bassoon 2,0.5,0.15,52,1.0
245.375,245.375,185.4821,71,3.25,Violin 1,0.25,0.075,88,1.0
245.375,245.375,185.4821,71,3.25,Violin 2,0.25,0.075,68,1.0
245.625,245.625,185.5571,71,3.5,D Horn 2,0.5,0.15,57,1.0
245.625,245.625,185.5571,71,3.5,Violin 1,0.25,0.075,87,1.0
245.625,245.625,185.5571,71,3.5,D Trumpet 2,0.5,0.15,69,1.0
245.625,245.625,185.5571,71,3.5,Oboe 1,0.5,0.15,81,1.0
245.625,245.625,185.5571,71,3.5,Viola,0.5,0.15,65,1.0
245.625,245.625,185.5571,71,3.5,Flute 1,0.5,0.15,87,1.0
245.625,245.625,185.5571,71,3.5,D Horn 1,0.5,0.15,69,1.0
245.625,245.625,185.5571,71,3.5,Bassoon 2,0.5,0.15,53,1.0
245.625,245.625,185.5571,71,3.5,Violin 2,0.25,0.075,69,1.0
245.625,245.625,185.5571,71,3.5,D Trumpet 1,0.5,0.15,69,1.0
245.625,245.625,185.5571,71,3.5,Oboe 2,0.5,0.15,75,1.0
245.625,245.625,185.5571,71,3.5,Contrabass,0.5,0.15,41,1.0
245.625,245.625,185.5571,71,3.5,Violoncello,0.5,0.15,53,1.0
245.625,245.625,185.5571,71,3.5,Bassoon 1,0.5,0.15,65,1.0
245.875,245.875,185.6321,71,3.75,Violin 1,0.25,0.075,87,1.0
245.875,245.875,185.6321,71,3.75,Violin 2,0.25,0.075,69,1.0
246.125,246.125,185.7071,71,4.0,Bassoon 1,0.5,0.15,64,1.0
246.125,246.125,185.7071,71,4.0,Violoncello,0.5,0.15,52,1.0
246.125,246.125,185.7071,71,4.0,Violin 1,0.25,0.075,88,1.0
246.125,246.125,185.7071,71,4.0,D Horn 1,0.5,0.15,64,1.0
246.125,246.125,185.7071,71,4.0,Oboe 2,0.5,0.15,76,1.0
246.125,246.125,185.7071,71,4.0,D Trumpet 1,0.5,0.15,76,1.0
246.125,246.125,185.7071,71,4.0,D Trumpet 2,0.5,0.15,76,1.0
246.125,246.125,185.7071,71,4.0,Bassoon 2,0.5,0.15,52,1.0
246.125,246.125,185.7071,71,4.0,Oboe 1,0.5,0.15,80,1.0
246.125,246.125,185.7071,71,4.0,Violin 2,0.25,0.075,68,1.0
246.125,246.125,185.7071,71,4.0,Viola,0.5,0.15,64,1.0
246.125,246.125,185.7071,71,4.0,Contrabass,0.5,0.15,40,1.0
246.125,246.125,185.7071,71,4.0,Flute 1,0.5,0.15,88,1.0
246.125,246.125,185.7071,71,4.0,D Horn 2,0.5,0.15,64,1.0
246.375,246.375,185.7821,71,4.25,Violin 2,0.25,0.075,68,1.0
246.375,246.375,185.7821,71,4.25,Violin 1,0.25,0.075,88,1.0
246.625,246.625,185.8571,71,4.5,Bassoon 2,0.5,0.15,53,1.0
246.625,246.625,185.8571,71,4.5,Viola,0.5,0.15,65,1.0
246.625,246.625,185.8571,71,4.5,D Trumpet 1,0.5,0.15,69,1.0
246.625,246.625,185.8571,71,4.5,Oboe 2,0.5,0.15,75,1.0
246.625,246.625,185.8571,71,4.5,D Horn 1,0.5,0.15,69,1.0
246.625,246.625,185.8571,71,4.5,Bassoon 1,0.5,0.15,65,1.0
246.625,246.625,185.8571,71,4.5,Contrabass,0.5,0.15,41,1.0
246.625,246.625,185.8571,71,4.5,Violoncello,0.5,0.15,53,1.0
246.625,246.625,185.8571,71,4.5,Violin 2,0.25,0.075,69,1.0
246.625,246.625,185.8571,71,4.5,Flute 1,0.5,0.15,87,1.0
246.625,246.625,185.8571,71,4.5,Oboe 1,0.5,0.15,81,1.0
246.625,246.625,185.8571,71,4.5,D Trumpet 2,0.5,0.15,69,1.0
246.625,246.625,185.8571,71,4.5,D Horn 2,0.5,0.15,57,1.0
246.625,246.625,185.8571,71,4.5,Violin 1,0.25,0.075,87,1.0
246.875,246.875,185.9321,71,4.75,Violin 1,0.25,0.075,87,1.0
246.875,246.875,185.9321,71,4.75,Violin 2,0.25,0.075,69,1.0
247.125,247.125,186.0071,72,1.0,D Trumpet 2,3.0,0.9,76,1.0
247.125,247.125,186.0071,72,1.0,Violin 1,3.0,0.9,88,1.0
247.125,247.125,186.0071,72,1.0,Contrabass,3.0,0.9,40,0.9921
247.125,247.125,186.0071,72,1.0,Violin 2,1.0,0.3,68,1.0
247.125,247.125,186.0071,72,1.0,D Trumpet 1,3.0,0.9,76,1.0
247.125,247.125,186.0071,72,1.0,D Horn 1,3.0,0.9,64,1.0
247.125,247.125,186.0071,72,1.0,D Horn 2,3.0,0.9,64,1.0
247.125,247.125,186.0071,72,1.0,Bassoon 1,3.0,0.9,64,1.0
247.125,247.125,186.0071,72,1.0,Oboe 1,1.0,0.3,80,1.0
247.125,247.125,186.0071,72,1.0,Flute 1,3.0,0.9,88,1.0
247.125,247.125,186.0071,72,1.0,Oboe 2,1.0,0.3,76,1.0
247.125,247.125,186.0071,72,1.0,Viola,3.0,0.9,64,1.0
247.125,247.125,186.0071,72,1.0,Bassoon 2,3.0,0.9,52,1.0
247.125,247.125,186.0071,72,1.0,Violoncello,3.0,0.9,52,1.0
248.125,248.125,186.3071,72,2.0,Oboe 1,2.0,0.6,76,1.0
248.125,248.125,186.3071,72,2.0,Violin 2,2.0,0.6,76,1.0
248.125,248.125,186.3071,72,2.0,Oboe 2,2.0,0.6,76,1.0
250.125,250.125,186.9071,72,4.0,Bassoon 1,1.0,0.3,63,1.0
250.125,250.125,186.9071,72,4.0,Oboe 2,1.0,0.3,75,1.0
250.125,250.125,186.9071,72,4.0,Contrabass,1.0,0.3,39,1.0
250.125,250.125,186.9071,72,4.0,D Horn 2,1.0,0.3,64,1.0
250.125,250.125,186.9071,72,4.0,Violin 1,1.0,0.3,87,1.0
250.125,250.125,186.9071,72,4.0,D Horn 1,1.0,0.3,64,1.0
250.125,250.125,186.9071,72,4.0,D Trumpet 2,1.0,0.3,76,1.0
250.125,250.125,186.9071,72,4.0,Violin 2,1.0,0.3,75,1.0
250.125,250.125,186.9071,72,4.0,D Trumpet 1,1.0,0.3,76,1.0
250.125,250.125,186.9071,72,4.0,Bassoon 2,1.0,0.3,51,1.0
250.125,250.125,186.9071,72,4.0,Oboe 1,1.0,0.3,75,1.0
250.125,250.125,186.9071,72,4.0,Viola,1.0,0.3,63,1.0
250.125,250.125,186.9071,72,4.0,Flute 1,1.0,0.3,87,1.0
250.125,250.125,186.9071,72,4.0,Violoncello,1.0,0.3,51,1.0
251.125,251.125,187.2071,73,1.0,Bassoon 2,1.0,0.3,50,1.0
251.125,251.125,187.2071,73,1.0,D Trumpet 1,1.0,0.3,76,1.0
251.125,251.125,187.2071,73,1.0,Oboe 2,1.0,0.3,74,1.0
251.125,251.125,187.2071,73,1.0,Viola,1.0,0.3,62,1.0
251.125,251.125,187.2071,73,1.0,D Horn 1,1.0,0.3,64,1.0
251.125,251.125,187.2071,73,1.0,Violoncello,1.0,0.3,50,1.0
251.125,251.125,187.2071,73,1.0,D Horn 2,1.0,0.3,64,1.0
251.125,251.125,187.2071,73,1.0,Flute 1,1.0,0.3,86,1.0
251.125,251.125,187.2071,73,1.0,Bassoon 1,1.0,0.3,62,1.0
251.125,251.125,187.2071,73,1.0,Oboe 1,1.0,0.3,74,1.0
251.125,251.125,187.2071,73,1.0,Contrabass,1.0,0.3,38,1.0
251.125,251.125,187.2071,73,1.0,Violin 2,1.0,0.3,74,1.0
251.125,251.125,187.2071,73,1.0,D Trumpet 2,1.0,0.3,76,1.0
251.125,251.125,187.2071,73,1.0,Violin 1,1.0,0.3,86,1.0
252.125,252.125,187.5071,73,2.0,Flute 1,1.0,0.3,85,1.0
252.125,252.125,187.5071,73,2.0,Bassoon 2,1.0,0.3,49,1.0
252.125,252.125,187.5071,73,2.0,Oboe 1,1.0,0.3,73,1.0
252.125,252.125,187.5071,73,2.0,Violin 2,1.0,0.3,73,1.0
252.125,252.125,187.5071,73,2.0,D Trumpet 2,1.0,0.3,76,1.0
252.125,252.125,187.5071,73,2.0,D Horn 1,1.0,0.3,64,1.0
252.125,252.125,187.5071,73,2.0,Violoncello,1.0,0.3,49,1.0
252.125,252.125,187.5071,73,2.0,D Horn 2,1.0,0.3,64,1.0
252.125,252.125,187.5071,73,2.0,Oboe 2,1.0,0.3,73,1.0
252.125,252.125,187.5071,73,2.0,Bassoon 1,1.0,0.3,61,1.0
252.125,252.125,187.5071,73,2.0,Violin 1,1.0,0.3,85,1.0
252.125,252.125,187.5071,73,2.0,Viola,1.0,0.3,61,1.0
252.125,252.125,187.5071,73,2.0,D Trumpet 1,1.0,0.3,76,1.0
252.125,252.125,187.5071,73,2.0,Contrabass,1.0,0.3,37,1.0
253.125,253.125,187.8071,73,3.0,D Horn 1,1.0,0.3,64,1.0
253.125,253.125,187.8071,73,3.0,Violin 1,1.0,0.3,83,1.0
253.125,253.125,187.8071,73,3.0,Contrabass,1.0,0.3,35,1.0
253.125,253.125,187.8071,73,3.0,Bassoon 1,1.0,0.3,59,1.0
253.125,253.125,187.8071,73,3.0,Bassoon 2,1.0,0.3,47,1.0
253.125,253.125,187.8071,73,3.0,D Horn 2,1.0,0.3,64,1.0
253.125,253.125,187.8071,73,3.0,Flute 1,1.0,0.3,83,1.0
253.125,253.125,187.8071,73,3.0,Violoncello,1.0,0.3,47,1.0
253.125,253.125,187.8071,73,3.0,Violin 2,1.0,0.3,71,1.0
253.125,253.125,187.8071,73,3.0,Oboe 1,1.0,0.3,71,1.0
253.125,253.125,187.8071,73,3.0,Viola,1.0,0.3,59,1.0
253.125,253.125,187.8071,73,3.0,D Trumpet 2,1.0,0.3,76,1.0
253.125,253.125,187.8071,73,3.0,D Trumpet 1,1.0,0.3,76,1.0
253.125,253.125,187.8071,73,3.0,Oboe 2,1.0,0.3,71,1.0
254.125,254.125,188.1071,73,4.0,Bassoon 1,1.0,0.3,64,1.0
254.125,254.125,188.1071,73,4.0,Oboe 2,1.0,0.3,76,1.0
254.125,254.125,188.1071,73,4.0,D Trumpet 1,1.0,0.3,76,1.0
254.125,254.125,188.1071,73,4.0,Violoncello,1.0,0.3,52,1.0
254.125,254.125,188.1071,73,4.0,Oboe 1,1.0,0.3,76,1.0
254.125,254.125,188.1071,73,4.0,Violin 2,1.0,0.3,76,1.0
254.125,254.125,188.1071,73,4.0,Bassoon 2,1.0,0.3,52,1.0
254.125,254.125,188.1071,73,4.0,D Horn 2,1.0,0.3,64,1.0
254.125,254.125,188.1071,73,4.0,Flute 1,1.0,0.3,88,1.0
254.125,254.125,188.1071,73,4.0,D Horn 1,1.0,0.3,64,1.0
254.125,254.125,188.1071,73,4.0,Violin 1,1.0,0.3,88,1.0
254.125,254.125,188.1071,73,4.0,Contrabass,1.0,0.3,40,1.0
254.125,254.125,188.1071,73,4.0,Viola,1.0,0.3,64,1.0
254.125,254.125,188.1071,73,4.0,D Trumpet 2,1.0,0.3,76,1.0
255.125,255.125,188.4071,74,1.0,Oboe 1,1.0,0.3,69,0.5461
255.125,255.125,188.4071,74,1.0,Contrabass,1.0,0.3,33,0.4961
255.125,255.125,188.4071,74,1.0,Oboe 2,1.0,0.3,69,0.5461
255.125,255.125,188.4071,74,1.0,A Clarinet 1,2.0,0.6,61,0.4961
255.125,255.125,188.4071,74,1.0,Bassoon 2,2.0,0.6,45,0.4961
255.125,255.125,188.4071,74,1.0,D Horn 1,2.0,0.6,57,0.4961
255.125,255.125,188.4071,74,1.0,Violin 2,1.0,0.3,69,0.5461
255.125,255.125,188.4071,74,1.0,Flute 1,1.0,0.3,81,0.5461
255.125,255.125,188.4071,74,1.0,D Horn 2,2.0,0.6,45,0.4961
255.125,255.125,188.4071,74,1.0,Bassoon 1,2.0,0.6,49,0.4961
255.125,255.125,188.4071,74,1.0,D Trumpet 1,1.0,0.3,69,0.4961
255.125,255.125,188.4071,74,1.0,Violoncello,0.5,0.15,45,0.4961
255.125,255.125,188.4071,74,1.0,A Clarinet 2,2.0,0.6,57,0.4961
255.125,255.125,188.4071,74,1.0,Violin 1,1.0,0.3,81,0.5461
255.125,255.125,188.4071,74,1.0,Viola,0.5,0.15,57,0.4961
255.125,255.125,188.4071,74,1.0,D Trumpet 2,1.0,0.3,69,0.4961
255.625,255.625,188.5571,74,1.5,Violoncello,0.5,0.15,57,0.4961
255.625,255.625,188.5571,74,1.5,Viola,0.5,0.15,69,0.4961
256.125,256.125,188.7071,74,2.0,Viola,0.5,0.15,69,0.4961
256.125,256.125,188.7071,74,2.0,Violoncello,0.5,0.15,57,0.4961
256.625,256.625,188.8571,74,2.5,Violoncello,0.5,0.15,57,0.4961
256.625,256.625,188.8571,74,2.5,Viola,0.5,0.15,69,0.4961
257.125,257.125,189.0071,74,3.0,Viola,0.5,0.15,57,0.4961
257.125,257.125,189.0071,74,3.0,A Clarinet 1,1.75,0.525,64,0.4961
257.125,257.125,189.0071,74,3.0,D Horn 2,1.75,0.525,45,0.4961
257.125,257.125,189.0071,74,3.0,A Clarinet 2,1.75,0.525,61,0.4961
257.125,257.125,189.0071,74,3.0,Bassoon 1,1.75,0.525,52,0.4961
257.125,257.125,189.0071,74,3.0,Bassoon 2,1.75,0.525,49,0.4961
257.125,257.125,189.0071,74,3.0,Violoncello,0.5,0.15,45,0.4961
257.125,257.125,189.0071,74,3.0,Contrabass,1.0,0.3,33,0.4961
257.125,257.125,189.0071,74,3.0,D Horn 1,1.75,0.525,57,0.4961
257.625,257.625,189.1571,74,3.5,Violoncello,0.5,0.15,57,0.4961
257.625,257.625,189.1571,74,3.5,Viola,0.5,0.15,69,0.4961
258.125,258.125,189.3071,74,4.0,Viola,0.5,0.15,69,0.4961
258.125,258.125,189.3071,74,4.0,Violoncello,0.5,0.15,57,0.4961
258.625,258.625,189.4571,74,4.5,Viola,0.5,0.15,69,0.4961
258.625,258.625,189.4571,74,4.5,Violoncello,0.5,0.15,57,0.4961
258.875,258.875,189.5321,74,4.75,D Horn 2,0.25,0.075,45,0.4961
258.875,258.875,189.5321,74,4.75,A Clarinet 1,0.25,0.075,69,0.4961
258.875,258.875,189.5321,74,4.75,A Clarinet 2,0.25,0.075,64,0.4961
258.875,258.875,189.5321,74,4.75,Bassoon 1,0.25,0.075,57,0.4961
258.875,258.875,189.5321,74,4.75,D Horn 1,0.25,0.075,57,0.4961
258.875,258.875,189.5321,74,4.75,Bassoon 2,0.25,0.075,52,0.4961
259.125,259.125,189.6071,75,1.0,A Clarinet 2,3.0,0.9,69,0.4961
259.125,259.125,189.6071,75,1.0,Contrabass,1.0,0.3,33,0.4961
259.125,259.125,189.6071,75,1.0,Violoncello,0.5,0.15,45,0.4961
259.125,259.125,189.6071,75,1.0,Bassoon 2,3.0,0.9,57,0.4961
259.125,259.125,189.6071,75,1.0,Viola,0.5,0.15,57,0.4961
259.125,259.125,189.6071,75,1.0,D Horn 2,3.0,0.9,45,0.4961
259.125,259.125,189.6071,75,1.0,Bassoon 1,3.0,0.9,61,0.4961
259.125,259.125,189.6071,75,1.0,A Clarinet 1,3.0,0.9,73,0.4961
259.125,259.125,189.6071,75,1.0,D Horn 1,3.0,0.9,57,0.4961
259.625,259.625,189.7571,75,1.5,Viola,0.5,0.15,69,0.4961
259.625,259.625,189.7571,75,1.5,Violoncello,0.5,0.15,57,0.4961
260.125,260.125,189.9071,75,2.0,Viola,0.5,0.15,69,0.4961
260.125,260.125,189.9071,75,2.0,Violoncello,0.5,0.15,57,0.4961
260.625,260.625,190.0571,75,2.5,Viola,0.5,0.15,69,0.4961
260.625,260.625,190.0571,75,2.5,Violoncello,0.5,0.15,57,0.4961
261.125,261.125,190.2071,75,3.0,Violoncello,0.5,0.15,57,0.4961
261.125,261.125,190.2071,75,3.0,Viola,0.5,0.15,69,0.4961
261.625,261.625,190.3571,75,3.5,Viola,0.5,0.15,69,0.4961
261.625,261.625,190.3571,75,3.5,Violoncello,0.5,0.15,57,0.4961
262.125,262.125,190.5071,75,4.0,Violoncello,0.5,0.15,57,0.4961
262.125,262.125,190.5071,75,4.0,Viola,0.5,0.15,69,0.4961
262.125,262.125,190.5071,75,4.0,A Clarinet 2,0.75,0.225,69,0.4961
262.125,262.125,190.5071,75,4.0,D Horn 1,0.75,0.225,57,0.4961
262.125,262.125,190.5071,75,4.0,Bassoon 1,0.75,0.225,61,0.4961
262.125,262.125,190.5071,75,4.0,Bassoon 2,0.75,0.225,57,0.4961
262.125,262.125,190.5071,75,4.0,D Horn 2,0.75,0.225,45,0.4961
262.125,262.125,190.5071,75,4.0,A Clarinet 1,0.75,0.225,73,0.4961
262.625,262.625,190.6571,75,4.5,Violoncello,0.5,0.15,57,0.4961
262.625,262.625,190.6571,75,4.5,Viola,0.5,0.15,69,0.4961
262.875,262.875,190.7321,75,4.75,D Horn 1,0.25,0.075,57,0.4961
262.875,262.875,190.7321,75,4.75,Bassoon 2,0.25,0.075,59,0.4961
262.875,262.875,190.7321,75,4.75,A Clarinet 2,0.25,0.075,71,0.4961
262.875,262.875,190.7321,75,4.75,D Horn 2,0.25,0.075,45,0.4961
262.875,262.875,190.7321,75,4.75,A Clarinet 1,0.25,0.075,74,0.4961
262.875,262.875,190.7321,75,4.75,Bassoon 1,0.25,0.075,62,0.4961
263.125,263.125,190.8071,76,1.0,D Horn 2,1.0,0.3,45,0.4961
263.125,263.125,190.8071,76,1.0,Viola,0.5,0.15,69,0.4961
263.125,263.125,190.8071,76,1.0,Bassoon 2,1.0,0.3,61,0.5461
263.125,263.125,190.8071,76,1.0,D Horn 1,1.0,0.3,57,0.4961
263.125,263.125,190.8071,76,1.0,A Clarinet 1,1.0,0.3,76,0.5461
263.125,263.125,190.8071,76,1.0,A Clarinet 2,1.0,0.3,73,0.5461
263.125,263.125,190.8071,76,1.0,Violoncello,0.5,0.15,57,0.4961
263.125,263.125,190.8071,76,1.0,Bassoon 1,1.0,0.3,64,0.5461
263.625,263.625,190.9571,76,1.5,Violoncello,0.5,0.15,57,0.4961
263.625,263.625,190.9571,76,1.5,Viola,0.5,0.15,69,0.4961
264.125,264.125,191.1071,76,2.0,Violoncello,0.5,0.15,57,0.4961
264.125,264.125,191.1071,76,2.0,Bassoon 2,1.0,0.3,61,0.5461
264.125,264.125,191.1071,76,2.0,D Horn 2,1.0,0.3,45,0.4961
264.125,264.125,191.1071,76,2.0,Viola,0.5,0.15,69,0.4961
264.125,264.125,191.1071,76,2.0,A Clarinet 2,1.0,0.3,73,0.5461
264.125,264.125,191.1071,76,2.0,A Clarinet 1,1.0,0.3,76,0.5461
264.125,264.125,191.1071,76,2.0,Bassoon 1,1.0,0.3,64,0.5461
264.125,264.125,191.1071,76,2.0,D Horn 1,1.0,0.3,57,0.4961
264.625,264.625,191.2571,76,2.5,Viola,0.5,0.15,69,0.4961
264.625,264.625,191.2571,76,2.5,Violoncello,0.5,0.15,57,0.4961
265.125,265.125,191.4071,76,3.0,Violoncello,0.5,0.15,57,0.4961
265.125,265.125,191.4071,76,3.0,D Horn 1,1.0,0.3,57,0.4961
265.125,265.125,191.4071,76,3.0,D Horn 2,1.0,0.3,45,0.4961
265.125,265.125,191.4071,76,3.0,A Clarinet 1,1.0,0.3,76,0.5461
265.125,265.125,191.4071,76,3.0,Bassoon 2,1.0,0.3,61,0.5461
265.125,265.125,191.4071,76,3.0,A Clarinet 2,1.0,0.3,73,0.5461
265.125,265.125,191.4071,76,3.0,Viola,0.5,0.15,69,0.4961
265.125,265.125,191.4071,76,3.0,Bassoon 1,1.0,0.3,64,0.5461
265.625,265.625,191.5571,76,3.5,Violoncello,0.5,0.15,57,0.4961
265.625,265.625,191.5571,76,3.5,Viola,0.5,0.15,69,0.4961
266.125,266.125,191.7071,76,4.0,D Horn 1,1.0,0.3,57,0.4961
266.125,266.125,191.7071,76,4.0,D Horn 2,1.0,0.3,45,0.4961
266.125,266.125,191.7071,76,4.0,A Clarinet 2,1.0,0.3,74,0.5461
266.125,266.125,191.7071,76,4.0,A Clarinet 1,1.0,0.3,78,0.5461
266.125,266.125,191.7071,76,4.0,Viola,0.5,0.15,69,0.4961
266.125,266.125,191.7071,76,4.0,Violoncello,0.5,0.15,57,0.4961
266.125,266.125,191.7071,76,4.0,Bassoon 2,1.0,0.3,62,0.5461
266.125,266.125,191.7071,76,4.0,Bassoon 1,1.0,0.3,66,0.5461
266.625,266.625,191.8571,76,4.5,Viola,0.5,0.15,69,0.4961
266.625,266.625,191.8571,76,4.5,Violoncello,0.5,0.15,57,0.4961
267.125,267.125,192.0071,77,1.0,A Clarinet 2,2.0,0.6,73,0.4961
267.125,267.125,192.0071,77,1.0,Bassoon 1,2.0,0.6,64,0.4961
267.125,267.125,192.0071,77,1.0,Bassoon 2,2.0,0.6,61,0.4961
267.125,267.125,192.0071,77,1.0,A Clarinet 1,2.0,0.6,76,0.4961
267.125,267.125,192.0071,77,1.0,Viola,0.5,0.15,69,0.4961
267.125,267.125,192.0071,77,1.0,D Horn 2,2.0,0.6,45,0.4961
267.125,267.125,192.0071,77,1.0,D Horn 1,2.0,0.6,57,0.4961
267.125,267.125,192.0071,77,1.0,Violoncello,0.5,0.15,57,0.4961
267.625,267.625,192.1571,77,1.5,Viola,0.5,0.15,69,0.4961
267.625,267.625,192.1571,77,1.5,Violoncello,0.5,0.15,57,0.4961
268.125,268.125,192.3071,77,2.0,Violoncello,0.5,0.15,57,0.4961
268.125,268.125,192.3071,77,2.0,Viola,0.5,0.15,69,0.4961
268.625,268.625,192.4571,77,2.5,Violoncello,0.5,0.15,57,0.4961
268.625,268.625,192.4571,77,2.5,Viola,0.5,0.15,69,0.4961
269.125,269.125,192.6071,77,3.0,A Clarinet 1,1.0,0.3,73,0.4961
269.125,269.125,192.6071,77,3.0,Violoncello,0.5,0.15,57,0.4961
269.125,269.125,192.6071,77,3.0,D Horn 2,1.0,0.3,45,0.4961
269.125,269.125,192.6071,77,3.0,Bassoon 1,1.0,0.3,61,0.4961
269.125,269.125,192.6071,77,3.0,A Clarinet 2,1.0,0.3,69,0.4961
269.125,269.125,192.6071,77,3.0,Viola,0.5,0.15,69,0.4961
269.125,269.125,192.6071,77,3.0,D Horn 1,1.0,0.3,57,0.4961
269.125,269.125,192.6071,77,3.0,Bassoon 2,1.0,0.3,57,0.4961
269.625,269.625,192.7571,77,3.5,Viola,0.5,0.15,69,0.4961
269.625,269.625,192.7571,77,3.5,Violoncello,0.5,0.15,57,0.4961
270.125,270.125,192.9071,77,4.0,Viola,0.5,0.15,69,0.4961
270.125,270.125,192.9071,77,4.0,Violoncello,0.5,0.15,57,0.4961
270.625,270.625,193.0571,77,4.5,Violoncello,0.5,0.15,57,0.4961
270.625,270.625,193.0571,77,4.5,Viola,0.5,0.15,69,0.4961
271.125,271.125,193.2071,78,1.0,Oboe 1,2.0,0.6,78,1.0
271.125,271.125,193.2071,78,1.0,D Trumpet 1,2.0,0.6,69,1.0
271.125,271.125,193.2071,78,1.0,Viola,0.5,0.15,54,1.0
271.125,271.125,193.2071,78,1.0,Violin 1,2.0,0.6,73,1.0
271.125,271.125,193.2071,78,1.0,Violin 2,2.0,0.6,69,1.0
271.125,271.125,193.2071,78,1.0,Contrabass,0.5,0.15,30,1.0
271.125,271.125,193.2071,78,1.0,Flute 1,2.0,0.6,85,1.0
271.125,271.125,193.2071,78,1.0,Violoncello,0.5,0.15,42,1.0
271.125,271.125,193.2071,78,1.0,Oboe 2,2.0,0.6,73,1.0
271.125,271.125,193.2071,78,1.0,Flute 2,2.0,0.6,81,1.0
271.125,271.125,193.2071,78,1.0,Timpani,2.0,0.6,45,1.0
271.125,271.125,193.2071,78,1.0,D Trumpet 2,2.0,0.6,66,1.0
271.625,271.625,193.3571,78,1.5,Violoncello,0.5,0.15,54,1.0
271.625,271.625,193.3571,78,1.5,Viola,0.5,0.15,66,1.0
271.625,271.625,193.3571,78,1.5,Contrabass,0.5,0.15,42,1.0
272.125,272.125,193.5071,78,2.0,Viola,0.5,0.15,61,1.0
272.125,272.125,193.5071,78,2.0,Violoncello,0.5,0.15,49,1.0
272.125,272.125,193.5071,78,2.0,Contrabass,0.5,0.15,37,1.0
272.625,272.625,193.6571,78,2.5,Viola,0.5,0.15,57,1.0
272.625,272.625,193.6571,78,2.5,Contrabass,0.5,0.15,33,1.0
272.625,272.625,193.6571,78,2.5,Violoncello,0.5,0.15,45,1.0
273.125,273.125,193.8071,78,3.0,D Trumpet 1,1.75,0.525,69,1.0
273.125,273.125,193.8071,78,3.0,Flute 1,1.75,0.525,85,1.0
273.125,273.125,193.8071,78,3.0,Oboe 1,1.75,0.525,78,1.0
273.125,273.125,193.8071,78,3.0,Oboe 2,1.75,0.525,73,1.0
273.125,273.125,193.8071,78,3.0,Viola,0.5,0.15,54,1.0
273.125,273.125,193.8071,78,3.0,Contrabass,0.5,0.15,30,1.0
273.125,273.125,193.8071,78,3.0,Violin 1,1.75,0.525,78,1.0
273.125,273.125,193.8071,78,3.0,Violin 2,1.75,0.525,73,1.0
273.125,273.125,193.8071,78,3.0,D Trumpet 2,1.75,0.525,66,1.0
273.125,273.125,193.8071,78,3.0,Flute 2,1.75,0.525,81,1.0
273.125,273.125,193.8071,78,3.0,Violoncello,0.5,0.15,42,1.0
273.125,273.125,193.8071,78,3.0,Timpani,1.75,0.525,45,1.0
273.625,273.625,193.9571,78,3.5,Violoncello,0.5,0.15,54,1.0
273.625,273.625,193.9571,78,3.5,Viola,0.5,0.15,66,1.0
273.625,273.625,193.9571,78,3.5,Contrabass,0.5,0.15,42,1.0
274.125,274.125,194.1071,78,4.0,Violoncello,0.5,0.15,49,1.0
274.125,274.125,194.1071,78,4.0,Contrabass,0.5,0.15,37,1.0
274.125,274.125,194.1071,78,4.0,Viola,0.5,0.15,61,1.0
274.625,274.625,194.2571,78,4.5,Contrabass,0.5,0.15,33,1.0
274.625,274.625,194.2571,78,4.5,Viola,0.5,0.15,57,1.0
274.625,274.625,194.2571,78,4.5,Violoncello,0.5,0.15,45,1.0
274.875,274.875,194.3321,78,4.75,Oboe 1,0.25,0.075,78,1.0
274.875,274.875,194.3321,78,4.75,D Trumpet 2,0.25,0.075,66,1.0
274.875,274.875,194.3321,78,4.75,Violin 1,0.25,0.075,81,1.0
274.875,274.875,194.3321,78,4.75,Violin 2,0.25,0.075,78,1.0
274.875,274.875,194.3321,78,4.75,Flute 1,0.25,0.075,85,1.0
274.875,274.875,194.3321,78,4.75,Timpani,0.25,0.075,45,1.0
274.875,274.875,194.3321,78,4.75,Flute 2,0.25,0.075,81,1.0
274.875,274.875,194.3321,78,4.75,D Trumpet 1,0.25,0.075,69,1.0
274.875,274.875,194.3321,78,4.75,Oboe 2,0.25,0.075,73,1.0
275.125,275.125,194.4071,79,1.0,Oboe 1,3.0,0.9,78,1.0
275.125,275.125,194.4071,79,1.0,Flute 1,3.0,0.9,85,1.0
275.125,275.125,194.4071,79,1.0,Violoncello,0.5,0.15,42,1.0
275.125,275.125,194.4071,79,1.0,Violin 2,3.0,0.9,81,1.0
275.125,275.125,194.4071,79,1.0,D Trumpet 2,3.0,0.9,66,1.0
275.125,275.125,194.4071,79,1.0,Flute 2,3.0,0.9,81,1.0
275.125,275.125,194.4071,79,1.0,Contrabass,0.5,0.15,30,1.0
275.125,275.125,194.4071,79,1.0,Violin 1,3.0,0.9,85,1.0
275.125,275.125,194.4071,79,1.0,Viola,0.5,0.15,54,1.0
275.125,275.125,194.4071,79,1.0,Oboe 2,3.0,0.9,73,1.0
275.125,275.125,194.4071,79,1.0,D Trumpet 1,3.0,0.9,69,1.0
275.125,275.125,194.4071,79,1.0,Timpani,1.0,0.3,45,1.0
275.625,275.625,194.5571,79,1.5,Violoncello,0.5,0.15,54,1.0
275.625,275.625,194.5571,79,1.5,Viola,0.5,0.15,66,1.0
275.625,275.625,194.5571,79,1.5,Contrabass,0.5,0.15,42,1.0
276.125,276.125,194.7071,79,2.0,Viola,0.5,0.15,61,1.0
276.125,276.125,194.7071,79,2.0,Violoncello,0.5,0.15,49,1.0
276.125,276.125,194.7071,79,2.0,Contrabass,0.5,0.15,37,1.0
276.625,276.625,194.8571,79,2.5,Viola,0.5,0.15,57,1.0
276.625,276.625,194.8571,79,2.5,Violoncello,0.5,0.15,45,1.0
276.625,276.625,194.8571,79,2.5,Contrabass,0.5,0.15,33,1.0
277.125,277.125,195.0071,79,3.0,Contrabass,0.5,0.15,30,1.0
277.125,277.125,195.0071,79,3.0,Viola,0.5,0.15,54,1.0
277.125,277.125,195.0071,79,3.0,Violoncello,0.5,0.15,42,1.0
277.625,277.625,195.1571,79,3.5,Viola,0.5,0.15,66,1.0
277.625,277.625,195.1571,79,3.5,Violoncello,0.5,0.15,54,1.0
277.625,277.625,195.1571,79,3.5,Contrabass,0.5,0.15,42,1.0
278.125,278.125,195.3071,79,4.0,Violin 1,0.75,0.225,81,1.0
278.125,278.125,195.3071,79,4.0,Flute 1,1.0,0.3,90,1.0
278.125,278.125,195.3071,79,4.0,Contrabass,0.5,0.15,44,1.0
278.125,278.125,195.3071,79,4.0,Violoncello,0.5,0.15,56,1.0
278.125,278.125,195.3071,79,4.0,Oboe 2,1.0,0.3,69,1.0
278.125,278.125,195.3071,79,4.0,Viola,0.5,0.15,68,1.0
278.125,278.125,195.3071,79,4.0,Oboe 1,1.0,0.3,78,1.0
278.125,278.125,195.3071,79,4.0,Bassoon 1,1.0,0.3,61,1.0
278.125,278.125,195.3071,79,4.0,Violin 2,0.75,0.225,73,1.0
278.125,278.125,195.3071,79,4.0,Flute 2,1.0,0.3,81,1.0
278.625,278.625,195.4571,79,4.5,Viola,0.5,0.15,69,1.0
278.625,278.625,195.4571,79,4.5,Contrabass,0.5,0.15,45,1.0
278.625,278.625,195.4571,79,4.5,Violoncello,0.5,0.15,57,1.0
278.875,278.875,195.5321,79,4.75,Violin 1,0.25,0.075,78,1.0
278.875,278.875,195.5321,79,4.75,Violin 2,0.25,0.075,69,1.0
279.125,279.125,195.6071,80,1.0,Violin 2,1.0,0.3,80,1.0
279.125,279.125,195.6071,80,1.0,Violin 1,1.0,0.3,83,1.0
279.125,279.125,195.6071,80,1.0,Viola,0.5,0.15,59,1.0
279.125,279.125,195.6071,80,1.0,Violoncello,0.5,0.15,47,1.0
279.125,279.125,195.6071,80,1.0,Contrabass,0.5,0.15,35,1.0
279.625,279.625,195.7571,80,1.5,Contrabass,0.5,0.15,47,1.0
279.625,279.625,195.7571,80,1.5,Viola,0.5,0.15,71,1.0
279.625,279.625,195.7571,80,1.5,Violoncello,0.5,0.15,59,1.0
280.125,280.125,195.9071,80,2.0,Oboe 1,1.0,0.3,76,1.0
280.125,280.125,195.9071,80,2.0,Flute 2,1.0,0.3,80,1.0
280.125,280.125,195.9071,80,2.0,Contrabass,0.5,0.15,47,1.0
280.125,280.125,195.9071,80,2.0,Viola,0.5,0.15,71,1.0
280.125,280.125,195.9071,80,2.0,Violin 2,0.75,0.225,71,1.0
280.125,280.125,195.9071,80,2.0,Oboe 2,1.0,0.3,68,1.0
280.125,280.125,195.9071,80,2.0,Flute 1,1.0,0.3,88,1.0
280.125,280.125,195.9071,80,2.0,Violin 1,0.75,0.225,80,1.0
280.125,280.125,195.9071,80,2.0,Bassoon 1,1.0,0.3,59,1.0
280.125,280.125,195.9071,80,2.0,Violoncello,0.5,0.15,59,1.0
280.125,280.125,195.9071,80,2.0,Bassoon 2,1.0,0.3,47,1.0
280.625,280.625,196.0571,80,2.5,Contrabass,0.5,0.15,47,1.0
280.625,280.625,196.0571,80,2.5,Viola,0.5,0.15,71,1.0
280.625,280.625,196.0571,80,2.5,Violoncello,0.5,0.15,59,1.0
280.875,280.875,196.1321,80,2.75,Violin 2,0.25,0.075,68,1.0
280.875,280.875,196.1321,80,2.75,Violin 1,0.25,0.075,76,1.0
281.125,281.125,196.2071,80,3.0,Violoncello,0.5,0.15,47,1.0
281.125,281.125,196.2071,80,3.0,Contrabass,0.5,0.15,35,1.0
281.125,281.125,196.2071,80,3.0,Viola,0.5,0.15,59,1.0
281.125,281.125,196.2071,80,3.0,Violin 1,1.0,0.3,81,1.0
281.125,281.125,196.2071,80,3.0,Violin 2,1.0,0.3,78,1.0
281.625,281.625,196.3571,80,3.5,Viola,0.5,0.15,71,1.0
281.625,281.625,196.3571,80,3.5,Violoncello,0.5,0.15,59,1.0
281.625,281.625,196.3571,80,3.5,Contrabass,0.5,0.15,47,1.0
282.125,282.125,196.5071,80,4.0,Oboe 1,1.0,0.3,78,1.0
282.125,282.125,196.5071,80,4.0,Flute 1,1.0,0.3,87,1.0
282.125,282.125,196.5071,80,4.0,Bassoon 2,1.0,0.3,47,1.0
282.125,282.125,196.5071,80,4.0,Violin 1,0.75,0.225,78,1.0
282.125,282.125,196.5071,80,4.0,Bassoon 1,1.0,0.3,59,1.0
282.125,282.125,196.5071,80,4.0,Flute 2,1.0,0.3,78,1.0
282.125,282.125,196.5071,80,4.0,Violoncello,0.5,0.15,59,1.0
282.125,282.125,196.5071,80,4.0,Contrabass,0.5,0.15,47,1.0
282.125,282.125,196.5071,80,4.0,Oboe 2,1.0,0.3,68,1.0
282.125,282.125,196.5071,80,4.0,Viola,0.5,0.15,71,1.0
282.125,282.125,196.5071,80,4.0,Violin 2,0.75,0.225,69,1.0
282.625,282.625,196.6571,80,4.5,Violoncello,0.5,0.15,59,1.0
282.625,282.625,196.6571,80,4.5,Viola,0.5,0.15,71,1.0
282.625,282.625,196.6571,80,4.5,Contrabass,0.5,0.15,47,1.0
282.875,282.875,196.7321,80,4.75,Violin 1,0.25,0.075,75,1.0
282.875,282.875,196.7321,80,4.75,Violin 2,0.25,0.075,66,1.0
283.125,283.125,196.8071,81,1.0,Bassoon 1,1.0,0.3,59,1.0
283.125,283.125,196.8071,81,1.0,Violin 1,1.0,0.3,76,1.0
283.125,283.125,196.8071,81,1.0,Viola,1.0,0.3,64,1.0
283.125,283.125,196.8071,81,1.0,Oboe 1,1.0,0.3,76,1.0
283.125,283.125,196.8071,81,1.0,Violin 2,1.0,0.3,68,1.0
283.125,283.125,196.8071,81,1.0,Violoncello,1.0,0.3,52,1.0
283.125,283.125,196.8071,81,1.0,Bassoon 2,1.0,0.3,52,1.0
283.125,283.125,196.8071,81,1.0,Flute 2,1.0,0.3,80,1.0
283.125,283.125,196.8071,81,1.0,Flute 1,1.0,0.3,88,1.0
283.125,283.125,196.8071,81,1.0,Oboe 2,1.0,0.3,68,1.0
283.125,283.125,196.8071,81,1.0,Contrabass,1.0,0.3,40,1.0
284.125,284.125,197.1071,81,2.0,Violin 1,0.25,0.075,64,0.4961
284.125,284.125,197.1071,81,2.0,Oboe 2,1.0,0.3,64,0.4961
284.125,284.125,197.1071,81,2.0,Bassoon 1,1.0,0.3,56,0.4961
284.125,284.125,197.1071,81,2.0,Bassoon 2,1.0,0.3,52,0.4961
284.125,284.125,197.1071,81,2.0,Oboe 1,1.0,0.3,68,0.4961
284.375,284.375,197.1821,81,2.25,Violin 1,0.25,0.075,66,0.4961
284.625,284.625,197.2571,81,2.5,Violin 1,0.25,0.075,68,0.4961
284.875,284.875,197.3321,81,2.75,Violin 1,0.25,0.075,69,0.4961
285.125,285.125,197.4071,81,3.0,Violin 1,0.25,0.075,71,0.4961
285.125,285.125,197.4071,81,3.0,Oboe 2,1.0,0.3,68,0.4961
285.125,285.125,197.4071,81,3.0,Oboe 1,1.0,0.3,71,0.4961
285.125,285.125,197.4071,81,3.0,Bassoon 2,1.0,0.3,56,0.4961
285.125,285.125,197.4071,81,3.0,Bassoon 1,1.0,0.3,59,0.4961
285.375,285.375,197.4821,81,3.25,Violin 1,0.25,0.075,73,0.4961
285.625,285.625,197.5571,81,3.5,Violin 1,0.25,0.075,74,0.4961
285.875,285.875,197.6321,81,3.75,Violin 1,0.25,0.075,73,0.4961
286.125,286.125,197.7071,81,4.0,Oboe 2,1.0,0.3,71,0.4961
286.125,286.125,197.7071,81,4.0,Bassoon 2,1.0,0.3,59,0.4961
286.125,286.125,197.7071,81,4.0,Bassoon 1,1.0,0.3,62,0.4961
286.125,286.125,197.7071,81,4.0,Violin 1,0.25,0.075,76,0.4961
286.125,286.125,197.7071,81,4.0,Oboe 1,1.0,0.3,74,0.4961
286.375,286.375,197.7821,81,4.25,Violin 1,0.25,0.075,74,0.4961
286.625,286.625,197.8571,81,4.5,Violin 1,0.25,0.075,73,0.4961
286.875,286.875,197.9321,81,4.75,Violin 1,0.25,0.075,71,0.4961
287.125,287.125,198.0071,82,1.0,Violoncello,0.5,0.15,45,0.4961
287.125,287.125,198.0071,82,1.0,Violin 1,1.0,0.3,69,0.4961
287.125,287.125,198.0071,82,1.0,A Clarinet 1,2.0,0.6,61,0.4961
287.125,287.125,198.0071,82,1.0,Bassoon 1,1.0,0.3,61,0.4961
287.125,287.125,198.0071,82,1.0,Contrabass,1.0,0.3,33,0.4961
287.125,287.125,198.0071,82,1.0,A Clarinet 2,2.0,0.6,57,0.4961
287.125,287.125,198.0071,82,1.0,Oboe 1,1.0,0.3,73,0.4961
287.125,287.125,198.0071,82,1.0,Bassoon 2,1.0,0.3,57,0.4961
287.125,287.125,198.0071,82,1.0,Flute 1,2.0,0.6,73,0.4961
287.125,287.125,198.0071,82,1.0,Viola,0.5,0.15,57,0.4961
287.125,287.125,198.0071,82,1.0,D Horn 2,2.0,0.6,45,0.4961
287.125,287.125,198.0071,82,1.0,Flute 2,2.0,0.6,69,0.4961
287.125,287.125,198.0071,82,1.0,D Horn 1,2.0,0.6,57,0.4961
287.125,287.125,198.0071,82,1.0,Oboe 2,1.0,0.3,69,0.4961
287.625,287.625,198.1571,82,1.5,Viola,0.5,0.15,69,0.4961
287.625,287.625,198.1571,82,1.5,Violoncello,0.5,0.15,57,0.4961
288.125,288.125,198.3071,82,2.0,Viola,0.5,0.15,69,0.4961
288.125,288.125,198.3071,82,2.0,Violin 1,0.25,0.075,81,0.4961
288.125,288.125,198.3071,82,2.0,Violoncello,0.5,0.15,57,0.4961
288.125,288.125,198.3071,82,2.0,Violin 2,0.25,0.075,69,0.4961
288.375,288.375,198.3821,82,2.25,Violin 2,0.25,0.075,68,0.4961
288.375,288.375,198.3821,82,2.25,Violin 1,0.25,0.075,80,0.4961
288.625,288.625,198.4571,82,2.5,Viola,0.5,0.15,69,0.4961
288.625,288.625,198.4571,82,2.5,Violoncello,0.5,0.15,57,0.4961
288.625,288.625,198.4571,82,2.5,Violin 1,0.25,0.075,81,0.4961
288.625,288.625,198.4571,82,2.5,Violin 2,0.25,0.075,69,0.4961
288.875,288.875,198.5321,82,2.75,Violin 1,0.25,0.075,80,0.4961
288.875,288.875,198.5321,82,2.75,Violin 2,0.25,0.075,68,0.4961
289.125,289.125,198.6071,82,3.0,Violin 1,0.25,0.075,81,0.4961
289.125,289.125,198.6071,82,3.0,A Clarinet 2,1.75,0.525,61,0.4961
289.125,289.125,198.6071,82,3.0,Viola,0.5,0.15,57,0.4961
289.125,289.125,198.6071,82,3.0,Violin 2,0.25,0.075,69,0.4961
289.125,289.125,198.6071,82,3.0,Bassoon 1,1.75,0.525,52,0.4961
289.125,289.125,198.6071,82,3.0,D Horn 2,1.75,0.525,45,0.4961
289.125,289.125,198.6071,82,3.0,Bassoon 2,1.75,0.525,49,0.4961
289.125,289.125,198.6071,82,3.0,Flute 2,1.75,0.525,73,0.4961
289.125,289.125,198.6071,82,3.0,Contrabass,1.0,0.3,33,0.4961
289.125,289.125,198.6071,82,3.0,Flute 1,1.75,0.525,76,0.4961
289.125,289.125,198.6071,82,3.0,Violoncello,0.5,0.15,45,0.4961
289.125,289.125,198.6071,82,3.0,D Horn 1,1.75,0.525,57,0.4961
289.125,289.125,198.6071,82,3.0,A Clarinet 1,1.75,0.525,64,0.4961
289.375,289.375,198.6821,82,3.25,Violin 1,0.25,0.075,80,0.4961
289.375,289.375,198.6821,82,3.25,Violin 2,0.25,0.075,68,0.4961
289.625,289.625,198.7571,82,3.5,Viola,0.5,0.15,69,0.4961
289.625,289.625,198.7571,82,3.5,Violin 1,0.25,0.075,81,0.4961
289.625,289.625,198.7571,82,3.5,Violin 2,0.25,0.075,69,0.4961
289.625,289.625,198.7571,82,3.5,Violoncello,0.5,0.15,57,0.4961
289.875,289.875,198.8321,82,3.75,Violin 1,0.25,0.075,80,0.4961
289.875,289.875,198.8321,82,3.75,Violin 2,0.25,0.075,68,0.4961
290.125,290.125,198.9071,82,4.0,Viola,0.5,0.15,69,0.4961
290.125,290.125,198.9071,82,4.0,Violin 2,0.25,0.075,69,0.4961
290.125,290.125,198.9071,82,4.0,Violin 1,0.25,0.075,81,0.4961
290.125,290.125,198.9071,82,4.0,Violoncello,0.5,0.15,57,0.4961
290.375,290.375,198.9821,82,4.25,Violin 2,0.25,0.075,68,0.4961
290.375,290.375,198.9821,82,4.25,Violin 1,0.25,0.075,80,0.4961
290.625,290.625,199.0571,82,4.5,Violin 2,0.25,0.075,69,0.4961
290.625,290.625,199.0571,82,4.5,Violin 1,0.25,0.075,81,0.4961
290.625,290.625,199.0571,82,4.5,Viola,0.5,0.15,69,0.4961
290.625,290.625,199.0571,82,4.5,Violoncello,0.5,0.15,57,0.4961
290.875,290.875,199.1321,82,4.75,Flute 2,0.25,0.075,76,0.4961
290.875,290.875,199.1321,82,4.75,D Horn 1,0.25,0.075,57,0.4961
290.875,290.875,199.1321,82,4.75,Violin 2,0.25,0.075,68,0.4961
290.875,290.875,199.1321,82,4.75,Bassoon 1,0.25,0.075,57,0.4961
290.875,290.875,199.1321,82,4.75,Bassoon 2,0.25,0.075,52,0.4961
290.875,290.875,199.1321,82,4.75,A Clarinet 2,0.25,0.075,64,0.4961
290.875,290.875,199.1321,82,4.75,Flute 1,0.25,0.075,81,0.4961
290.875,290.875,199.1321,82,4.75,D Horn 2,0.25,0.075,45,0.4961
290.875,290.875,199.1321,82,4.75,Violin 1,0.25,0.075,80,0.4961
290.875,290.875,199.1321,82,4.75,A Clarinet 1,0.25,0.075,69,0.4961
291.125,291.125,199.2071,83,1.0,A Clarinet 2,3.0,0.9,69,0.4961
291.125,291.125,199.2071,83,1.0,Violin 2,0.25,0.075,69,0.4961
291.125,291.125,199.2071,83,1.0,Viola,0.5,0.15,57,0.4961
291.125,291.125,199.2071,83,1.0,A Clarinet 1,3.0,0.9,73,0.4961
291.125,291.125,199.2071,83,1.0,Violoncello,0.5,0.15,45,0.4961
291.125,291.125,199.2071,83,1.0,Bassoon 1,3.0,0.9,61,0.4961
291.125,291.125,199.2071,83,1.0,D Horn 2,3.0,0.9,45,0.4961
291.125,291.125,199.2071,83,1.0,Violin 1,0.25,0.075,81,0.4961
291.125,291.125,199.2071,83,1.0,Contrabass,1.0,0.3,33,0.4961
291.125,291.125,199.2071,83,1.0,D Horn 1,3.0,0.9,57,0.4961
291.125,291.125,199.2071,83,1.0,Bassoon 2,3.0,0.9,57,0.4961
291.125,291.125,199.2071,83,1.0,Flute 1,3.0,0.9,85,0.4961
291.125,291.125,199.2071,83,1.0,Flute 2,3.0,0.9,81,0.4961
291.375,291.375,199.2821,83,1.25,Violin 2,0.25,0.075,68,0.4961
291.375,291.375,199.2821,83,1.25,Violin 1,0.25,0.075,80,0.4961
291.625,291.625,199.3571,83,1.5,Viola,0.5,0.15,69,0.4961
291.625,291.625,199.3571,83,1.5,Violin 1,0.25,0.075,81,0.4961
291.625,291.625,199.3571,83,1.5,Violin 2,0.25,0.075,69,0.4961
291.625,291.625,199.3571,83,1.5,Violoncello,0.5,0.15,57,0.4961
291.875,291.875,199.4321,83,1.75,Violin 2,0.25,0.075,68,0.4961
291.875,291.875,199.4321,83,1.75,Violin 1,0.25,0.075,80,0.4961
292.125,292.125,199.5071,83,2.0,Violin 2,0.25,0.075,69,0.4961
292.125,292.125,199.5071,83,2.0,Violin 1,0.25,0.075,81,0.4961
292.125,292.125,199.5071,83,2.0,Violoncello,0.5,0.15,57,0.4961
292.125,292.125,199.5071,83,2.0,Viola,0.5,0.15,69,0.4961
292.375,292.375,199.5821,83,2.25,Violin 1,0.25,0.075,80,0.4961
292.375,292.375,199.5821,83,2.25,Violin 2,0.25,0.075,68,0.4961
292.625,292.625,199.6571,83,2.5,Violin 2,0.25,0.075,69,0.4961
292.625,292.625,199.6571,83,2.5,Violoncello,0.5,0.15,57,0.4961
292.625,292.625,199.6571,83,2.5,Violin 1,0.25,0.075,81,0.4961
292.625,292.625,199.6571,83,2.5,Viola,0.5,0.15,69,0.4961
292.875,292.875,199.7321,83,2.75,Violin 1,0.25,0.075,80,0.4961
292.875,292.875,199.7321,83,2.75,Violin 2,0.25,0.075,68,0.4961
293.125,293.125,199.8071,83,3.0,Violin 2,0.25,0.075,69,0.4961
293.125,293.125,199.8071,83,3.0,Violin 1,0.25,0.075,81,0.4961
293.125,293.125,199.8071,83,3.0,Violoncello,0.5,0.15,57,0.4961
293.125,293.125,199.8071,83,3.0,Viola,0.5,0.15,69,0.4961
293.375,293.375,199.8821,83,3.25,Violin 2,0.25,0.075,68,0.4961
293.375,293.375,199.8821,83,3.25,Violin 1,0.25,0.075,80,0.4961
293.625,293.625,199.9571,83,3.5,Violin 2,0.25,0.075,69,0.4961
293.625,293.625,199.9571,83,3.5,Violin 1,0.25,0.075,81,0.4961
293.625,293.625,199.9571,83,3.5,Violoncello,0.5,0.15,57,0.4961
293.625,293.625,199.9571,83,3.5,Viola,0.5,0.15,69,0.4961
293.875,293.875,200.0321,83,3.75,Violin 2,0.25,0.075,68,0.4961
293.875,293.875,200.0321,83,3.75,Violin 1,0.25,0.075,80,0.4961
294.125,294.125,200.1071,83,4.0,Violin 2,0.25,0.075,69,0.4961
294.125,294.125,200.1071,83,4.0,Flute 2,0.75,0.225,81,0.4961
294.125,294.125,200.1071,83,4.0,D Horn 1,0.75,0.225,57,0.4961
294.125,294.125,200.1071,83,4.0,Flute 1,0.75,0.225,85,0.4961
294.125,294.125,200.1071,83,4.0,A Clarinet 1,0.75,0.225,73,0.4961
294.125,294.125,200.1071,83,4.0,Viola,0.5,0.15,69,0.4961
294.125,294.125,200.1071,83,4.0,Violoncello,0.5,0.15,57,0.4961
294.125,294.125,200.1071,83,4.0,Bassoon 2,0.75,0.225,57,0.4961
294.125,294.125,200.1071,83,4.0,D Horn 2,0.75,0.225,45,0.4961
294.125,294.125,200.1071,83,4.0,Bassoon 1,0.75,0.225,61,0.4961
294.125,294.125,200.1071,83,4.0,Violin 1,0.25,0.075,81,0.4961
294.125,294.125,200.1071,83,4.0,A Clarinet 2,0.75,0.225,69,0.4961
294.375,294.375,200.1821,83,4.25,Violin 2,0.25,0.075,68,0.4961
294.375,294.375,200.1821,83,4.25,Violin 1,0.25,0.075,80,0.4961
294.625,294.625,200.2571,83,4.5,Violin 1,0.25,0.075,81,0.4961
294.625,294.625,200.2571,83,4.5,Violin 2,0.25,0.075,69,0.4961
294.625,294.625,200.2571,83,4.5,Violoncello,0.5,0.15,57,0.4961
294.625,294.625,200.2571,83,4.5,Viola,0.5,0.15,69,0.4961
294.875,294.875,200.3321,83,4.75,Flute 1,0.25,0.075,86,0.4961
294.875,294.875,200.3321,83,4.75,D Horn 2,0.25,0.075,45,0.4961
294.875,294.875,200.3321,83,4.75,D Horn 1,0.25,0.075,57,0.4961
294.875,294.875,200.3321,83,4.75,Flute 2,0.25,0.075,83,0.4961
294.875,294.875,200.3321,83,4.75,Bassoon 2,0.25,0.075,59,0.4961
294.875,294.875,200.3321,83,4.75,A Clarinet 2,0.25,0.075,71,0.4961
294.875,294.875,200.3321,83,4.75,Violin 1,0.25,0.075,80,0.4961
294.875,294.875,200.3321,83,4.75,Bassoon 1,0.25,0.075,62,0.4961
294.875,294.875,200.3321,83,4.75,Violin 2,0.25,0.075,68,0.4961
294.875,294.875,200.3321,83,4.75,A Clarinet 1,0.25,0.075,74,0.4961
295.125,295.125,200.4071,84,1.0,D Horn 2,1.0,0.3,45,0.4961
295.125,295.125,200.4071,84,1.0,Viola,0.5,0.15,69,0.4961
295.125,295.125,200.4071,84,1.0,Violin 1,0.25,0.075,81,0.4961
295.125,295.125,200.4071,84,1.0,D Horn 1,1.0,0.3,57,0.4961
295.125,295.125,200.4071,84,1.0,Bassoon 1,1.0,0.3,64,0.5461
295.125,295.125,200.4071,84,1.0,Flute 2,1.0,0.3,85,0.5461
295.125,295.125,200.4071,84,1.0,Violoncello,0.5,0.15,57,0.4961
295.125,295.125,200.4071,84,1.0,A Clarinet 1,1.0,0.3,76,0.5461
295.125,295.125,200.4071,84,1.0,A Clarinet 2,1.0,0.3,73,0.5461
295.125,295.125,200.4071,84,1.0,Violin 2,0.25,0.075,69,0.4961
295.125,295.125,200.4071,84,1.0,Bassoon 2,1.0,0.3,61,0.5461
295.125,295.125,200.4071,84,1.0,Flute 1,1.0,0.3,88,0.5461
295.375,295.375,200.4821,84,1.25,Violin 1,0.25,0.075,80,0.4961
295.375,295.375,200.4821,84,1.25,Violin 2,0.25,0.075,68,0.4961
295.625,295.625,200.5571,84,1.5,Violoncello,0.5,0.15,57,0.4961
295.625,295.625,200.5571,84,1.5,Viola,0.5,0.15,69,0.4961
295.625,295.625,200.5571,84,1.5,Violin 2,0.25,0.075,69,0.4961
295.625,295.625,200.5571,84,1.5,Violin 1,0.25,0.075,81,0.4961
295.875,295.875,200.6321,84,1.75,Violin 2,0.25,0.075,68,0.4961
295.875,295.875,200.6321,84,1.75,Violin 1,0.25,0.075,80,0.4961
296.125,296.125,200.7071,84,2.0,A Clarinet 1,1.0,0.3,76,0.5461
296.125,296.125,200.7071,84,2.0,Violin 2,0.25,0.075,69,0.4961
296.125,296.125,200.7071,84,2.0,Flute 2,1.0,0.3,85,0.5461
296.125,296.125,200.7071,84,2.0,Viola,0.5,0.15,69,0.4961
296.125,296.125,200.7071,84,2.0,Violin 1,0.25,0.075,81,0.4961
296.125,296.125,200.7071,84,2.0,D Horn 1,1.0,0.3,57,0.4961
296.125,296.125,200.7071,84,2.0,Violoncello,0.5,0.15,57,0.4961
296.125,296.125,200.7071,84,2.0,Bassoon 1,1.0,0.3,64,0.5461
296.125,296.125,200.7071,84,2.0,A Clarinet 2,1.0,0.3,73,0.5461
296.125,296.125,200.7071,84,2.0,Flute 1,1.0,0.3,88,0.5461
296.125,296.125,200.7071,84,2.0,D Horn 2,1.0,0.3,45,0.4961
296.125,296.125,200.7071,84,2.0,Bassoon 2,1.0,0.3,61,0.5461
296.375,296.375,200.7821,84,2.25,Violin 1,0.25,0.075,80,0.4961
296.375,296.375,200.7821,84,2.25,Violin 2,0.25,0.075,68,0.4961
296.625,296.625,200.8571,84,2.5,Violin 2,0.25,0.075,69,0.4961
296.625,296.625,200.8571,84,2.5,Violin 1,0.25,0.075,81,0.4961
296.625,296.625,200.8571,84,2.5,Violoncello,0.5,0.15,57,0.4961
296.625,296.625,200.8571,84,2.5,Viola,0.5,0.15,69,0.4961
296.875,296.875,200.9321,84,2.75,Violin 2,0.25,0.075,68,0.4961
296.875,296.875,200.9321,84,2.75,Violin 1,0.25,0.075,80,0.4961
297.125,297.125,201.0071,84,3.0,Viola,0.5,0.15,69,0.4961
297.125,297.125,201.0071,84,3.0,A Clarinet 2,1.0,0.3,73,0.5461
297.125,297.125,201.0071,84,3.0,Flute 2,1.0,0.3,85,0.5461
297.125,297.125,201.0071,84,3.0,A Clarinet 1,1.0,0.3,76,0.5461
297.125,297.125,201.0071,84,3.0,D Horn 2,1.0,0.3,45,0.4961
297.125,297.125,201.0071,84,3.0,Flute 1,1.0,0.3,88,0.5461
297.125,297.125,201.0071,84,3.0,D Horn 1,1.0,0.3,57,0.4961
297.125,297.125,201.0071,84,3.0,Violin 1,0.25,0.075,81,0.4961
297.125,297.125,201.0071,84,3.0,Violoncello,0.5,0.15,57,0.4961
297.125,297.125,201.0071,84,3.0,Bassoon 2,1.0,0.3,61,0.5461
297.125,297.125,201.0071,84,3.0,Violin 2,0.25,0.075,69,0.4961
297.125,297.125,201.0071,84,3.0,Bassoon 1,1.0,0.3,64,0.5461
297.375,297.375,201.0821,84,3.25,Violin 1,0.25,0.075,80,0.4961
297.375,297.375,201.0821,84,3.25,Violin 2,0.25,0.075,68,0.4961
297.625,297.625,201.1571,84,3.5,Violin 2,0.25,0.075,69,0.4961
297.625,297.625,201.1571,84,3.5,Violoncello,0.5,0.15,57,0.4961
297.625,297.625,201.1571,84,3.5,Viola,0.5,0.15,69,0.4961
297.625,297.625,201.1571,84,3.5,Violin 1,0.25,0.075,81,0.4961
297.875,297.875,201.2321,84,3.75,Violin 2,0.25,0.075,68,0.4961
297.875,297.875,201.2321,84,3.75,Violin 1,0.25,0.075,80,0.4961
298.125,298.125,201.3071,84,4.0,D Horn 2,1.0,0.3,45,0.4961
298.125,298.125,201.3071,84,4.0,Flute 1,1.0,0.3,90,0.5461
298.125,298.125,201.3071,84,4.0,D Horn 1,1.0,0.3,57,0.4961
298.125,298.125,201.3071,84,4.0,Bassoon 2,1.0,0.3,62,0.5461
298.125,298.125,201.3071,84,4.0,Violoncello,0.5,0.15,57,0.4961
298.125,298.125,201.3071,84,4.0,A Clarinet 1,1.0,0.3,78,0.5461
298.125,298.125,201.3071,84,4.0,Violin 2,0.25,0.075,69,0.4961
298.125,298.125,201.3071,84,4.0,Viola,0.5,0.15,69,0.4961
298.125,298.125,201.3071,84,4.0,Bassoon 1,1.0,0.3,66,0.5461
298.125,298.125,201.3071,84,4.0,Violin 1,0.25,0.075,81,0.4961
298.125,298.125,201.3071,84,4.0,A Clarinet 2,1.0,0.3,74,0.5461
298.125,298.125,201.3071,84,4.0,Flute 2,1.0,0.3,86,0.5461
298.375,298.375,201.3821,84,4.25,Violin 1,0.25,0.075,80,0.4961
298.375,298.375,201.3821,84,4.25,Violin 2,0.25,0.075,68,0.4961
298.625,298.625,201.4571,84,4.5,Violin 1,0.25,0.075,81,0.4961
298.625,298.625,201.4571,84,4.5,Viola,0.5,0.15,69,0.4961
298.625,298.625,201.4571,84,4.5,Violin 2,0.25,0.075,69,0.4961
298.625,298.625,201.4571,84,4.5,Violoncello,0.5,0.15,57,0.4961
298.875,298.875,201.5321,84,4.75,Violin 2,0.25,0.075,68,0.4961
298.875,298.875,201.5321,84,4.75,Violin 1,0.25,0.075,80,0.4961
299.125,299.125,201.6071,85,1.0,Violin 1,0.25,0.075,81,0.4961
299.125,299.125,201.6071,85,1.0,Flute 1,2.0,0.6,88,0.4961
299.125,299.125,201.6071,85,1.0,D Horn 1,2.0,0.6,57,0.4961
299.125,299.125,201.6071,85,1.0,Bassoon 2,2.0,0.6,61,0.4961
299.125,299.125,201.6071,85,1.0,Bassoon 1,2.0,0.6,64,0.4961
299.125,299.125,201.6071,85,1.0,Viola,0.5,0.15,69,0.4961
299.125,299.125,201.6071,85,1.0,Flute 2,2.0,0.6,85,0.4961
299.125,299.125,201.6071,85,1.0,D Horn 2,2.0,0.6,45,0.4961
299.125,299.125,201.6071,85,1.0,Violoncello,0.5,0.15,57,0.4961
299.125,299.125,201.6071,85,1.0,A Clarinet 1,2.0,0.6,76,0.4961
299.125,299.125,201.6071,85,1.0,Violin 2,0.25,0.075,69,0.4961
299.125,299.125,201.6071,85,1.0,A Clarinet 2,2.0,0.6,73,0.4961
299.375,299.375,201.6821,85,1.25,Violin 1,0.25,0.075,80,0.4961
299.375,299.375,201.6821,85,1.25,Violin 2,0.25,0.075,68,0.4961
299.625,299.625,201.7571,85,1.5,Violoncello,0.5,0.15,57,0.4961
299.625,299.625,201.7571,85,1.5,Violin 2,0.25,0.075,69,0.4961
299.625,299.625,201.7571,85,1.5,Violin 1,0.25,0.075,81,0.4961
299.625,299.625,201.7571,85,1.5,Viola,0.5,0.15,69,0.4961
299.875,299.875,201.8321,85,1.75,Violin 2,0.25,0.075,68,0.4961
299.875,299.875,201.8321,85,1.75,Violin 1,0.25,0.075,80,0.4961
300.125,300.125,201.9071,85,2.0,Violoncello,0.5,0.15,57,0.4961
300.125,300.125,201.9071,85,2.0,Violin 2,0.25,0.075,69,0.4961
300.125,300.125,201.9071,85,2.0,Viola,0.5,0.15,69,0.4961
300.125,300.125,201.9071,85,2.0,Violin 1,0.25,0.075,81,0.4961
300.375,300.375,201.9821,85,2.25,Violin 2,0.25,0.075,68,0.4961
300.375,300.375,201.9821,85,2.25,Violin 1,0.25,0.075,80,0.4961
300.625,300.625,202.0571,85,2.5,Violin 2,0.25,0.075,69,0.4961
300.625,300.625,202.0571,85,2.5,Violoncello,0.5,0.15,57,0.4961
300.625,300.625,202.0571,85,2.5,Viola,0.5,0.15,69,0.4961
300.625,300.625,202.0571,85,2.5,Violin 1,0.25,0.075,81,0.4961
300.875,300.875,202.1321,85,2.75,Violin 2,0.25,0.075,68,0.4961
300.875,300.875,202.1321,85,2.75,Violin 1,0.25,0.075,80,0.4961
301.125,301.125,202.2071,85,3.0,Violin 1,0.5,0.15,81,0.5461
301.125,301.125,202.2071,85,3.0,Viola,0.5,0.15,69,0.4961
301.125,301.125,202.2071,85,3.0,A Clarinet 1,0.5,0.15,73,0.5461
301.125,301.125,202.2071,85,3.0,D Horn 1,0.5,0.15,57,0.4961
301.125,301.125,202.2071,85,3.0,D Horn 2,0.5,0.15,45,0.4961
301.125,301.125,202.2071,85,3.0,A Clarinet 2,0.5,0.15,69,0.5461
301.125,301.125,202.2071,85,3.0,Flute 2,0.5,0.15,81,0.5461
301.125,301.125,202.2071,85,3.0,Bassoon 1,0.5,0.15,61,0.5461
301.125,301.125,202.2071,85,3.0,Violoncello,0.5,0.15,57,0.4961
301.125,301.125,202.2071,85,3.0,Bassoon 2,0.5,0.15,57,0.5461
301.125,301.125,202.2071,85,3.0,Violin 2,0.5,0.15,69,0.5461
301.125,301.125,202.2071,85,3.0,Flute 1,0.5,0.15,85,0.5461
301.625,301.625,202.3571,85,3.5,Violin 1,0.5,0.15,61,1.0
301.625,301.625,202.3571,85,3.5,Violin 2,0.5,0.15,61,1.0
302.125,302.125,202.5071,85,4.0,Violin 1,0.5,0.15,66,1.0
302.125,302.125,202.5071,85,4.0,Violin 2,0.5,0.15,66,1.0
302.625,302.625,202.6571,85,4.5,Violin 1,0.5,0.15,69,1.0
302.625,302.625,202.6571,85,4.5,Violin 2,0.5,0.15,69,1.0
303.125,303.125,202.8071,86,1.0,Oboe 2,2.0,0.6,73,1.0
303.125,303.125,202.8071,86,1.0,D Trumpet 2,2.0,0.6,66,1.0
303.125,303.125,202.8071,86,1.0,D Trumpet 1,2.0,0.6,69,1.0
303.125,303.125,202.8071,86,1.0,Violoncello,0.5,0.15,42,1.0
303.125,303.125,202.8071,86,1.0,Timpani,2.0,0.6,45,1.0
303.125,303.125,202.8071,86,1.0,Flute 2,2.0,0.6,81,1.0
303.125,303.125,202.8071,86,1.0,Violin 2,0.5,0.15,73,1.0
303.125,303.125,202.8071,86,1.0,Flute 1,2.0,0.6,85,1.0
303.125,303.125,202.8071,86,1.0,Contrabass,0.5,0.15,30,1.0
303.125,303.125,202.8071,86,1.0,Oboe 1,2.0,0.6,78,1.0
303.125,303.125,202.8071,86,1.0,Viola,0.5,0.15,54,1.0
303.125,303.125,202.8071,86,1.0,Violin 1,0.5,0.15,73,1.0
303.625,303.625,202.9571,86,1.5,Violin 2,0.5,0.15,57,1.0
303.625,303.625,202.9571,86,1.5,Violoncello,0.5,0.15,54,1.0
303.625,303.625,202.9571,86,1.5,Viola,0.5,0.15,66,1.0
303.625,303.625,202.9571,86,1.5,Violin 1,0.5,0.15,61,1.0
303.625,303.625,202.9571,86,1.5,Contrabass,0.5,0.15,42,1.0
304.125,304.125,203.1071,86,2.0,Viola,0.5,0.15,61,1.0
304.125,304.125,203.1071,86,2.0,Violoncello,0.5,0.15,49,1.0
304.125,304.125,203.1071,86,2.0,Violin 1,0.5,0.15,66,1.0
304.125,304.125,203.1071,86,2.0,Violin 2,0.5,0.15,61,1.0
304.125,304.125,203.1071,86,2.0,Contrabass,0.5,0.15,37,1.0
304.625,304.625,203.2571,86,2.5,Contrabass,0.5,0.15,33,1.0
304.625,304.625,203.2571,86,2.5,Viola,0.5,0.15,57,1.0
304.625,304.625,203.2571,86,2.5,Violin 2,0.5,0.15,66,1.0
304.625,304.625,203.2571,86,2.5,Violin 1,0.5,0.15,69,1.0
304.625,304.625,203.2571,86,2.5,Violoncello,0.5,0.15,45,1.0
305.125,305.125,203.4071,86,3.0,Violin 1,0.5,0.15,73,1.0
305.125,305.125,203.4071,86,3.0,Violoncello,0.5,0.15,42,1.0
305.125,305.125,203.4071,86,3.0,Flute 2,1.75,0.525,81,1.0
305.125,305.125,203.4071,86,3.0,Flute 1,1.75,0.525,85,1.0
305.125,305.125,203.4071,86,3.0,Viola,0.5,0.15,54,1.0
305.125,305.125,203.4071,86,3.0,Violin 2,0.5,0.15,69,1.0
305.125,305.125,203.4071,86,3.0,Contrabass,0.5,0.15,30,1.0
305.125,305.125,203.4071,86,3.0,Timpani,1.75,0.525,45,1.0
305.125,305.125,203.4071,86,3.0,D Trumpet 1,1.75,0.525,69,1.0
305.125,305.125,203.4071,86,3.0,D Trumpet 2,1.75,0.525,66,1.0
305.125,305.125,203.4071,86,3.0,Oboe 2,1.75,0.525,73,1.0
305.125,305.125,203.4071,86,3.0,Oboe 1,1.75,0.525,78,1.0
305.625,305.625,203.5571,86,3.5,Viola,0.5,0.15,66,1.0
305.625,305.625,203.5571,86,3.5,Contrabass,0.5,0.15,42,1.0
305.625,305.625,203.5571,86,3.5,Violin 2,0.5,0.15,69,1.0
305.625,305.625,203.5571,86,3.5,Violoncello,0.5,0.15,54,1.0
305.625,305.625,203.5571,86,3.5,Violin 1,0.5,0.15,73,1.0
306.125,306.125,203.7071,86,4.0,Violin 2,0.5,0.15,73,1.0
306.125,306.125,203.7071,86,4.0,Viola,0.5,0.15,61,1.0
306.125,306.125,203.7071,86,4.0,Violoncello,0.5,0.15,49,1.0
306.125,306.125,203.7071,86,4.0,Violin 1,0.5,0.15,78,1.0
306.125,306.125,203.7071,86,4.0,Contrabass,0.5,0.15,37,1.0
306.625,306.625,203.8571,86,4.5,Violoncello,0.5,0.15,45,1.0
306.625,306.625,203.8571,86,4.5,Violin 2,0.5,0.15,78,1.0
306.625,306.625,203.8571,86,4.5,Contrabass,0.5,0.15,33,1.0
306.625,306.625,203.8571,86,4.5,Viola,0.5,0.15,57,1.0
306.625,306.625,203.8571,86,4.5,Violin 1,0.5,0.15,81,1.0
306.875,306.875,203.9321,86,4.75,Oboe 1,0.25,0.075,78,1.0
306.875,306.875,203.9321,86,4.75,Flute 1,0.25,0.075,85,1.0
306.875,306.875,203.9321,86,4.75,Timpani,0.25,0.075,45,1.0
306.875,306.875,203.9321,86,4.75,Flute 2,0.25,0.075,81,1.0
306.875,306.875,203.9321,86,4.75,D Trumpet 2,0.25,0.075,66,1.0
306.875,306.875,203.9321,86,4.75,D Trumpet 1,0.25,0.075,69,1.0
306.875,306.875,203.9321,86,4.75,Oboe 2,0.25,0.075,73,1.0
307.125,307.125,204.0071,87,1.0,Oboe 2,3.0,0.9,73,1.0
307.125,307.125,204.0071,87,1.0,Flute 1,3.0,0.9,85,1.0
307.125,307.125,204.0071,87,1.0,Violin 2,3.0,0.9,81,1.0
307.125,307.125,204.0071,87,1.0,Contrabass,0.5,0.15,30,1.0
307.125,307.125,204.0071,87,1.0,Violin 1,3.0,0.9,85,1.0
307.125,307.125,204.0071,87,1.0,Viola,0.5,0.15,54,1.0
307.125,307.125,204.0071,87,1.0,Oboe 1,3.0,0.9,78,1.0
307.125,307.125,204.0071,87,1.0,Violoncello,0.5,0.15,42,1.0
307.125,307.125,204.0071,87,1.0,Timpani,1.0,0.3,45,1.0
307.125,307.125,204.0071,87,1.0,Flute 2,3.0,0.9,81,1.0
307.125,307.125,204.0071,87,1.0,D Trumpet 2,3.0,0.9,66,1.0
307.125,307.125,204.0071,87,1.0,D Trumpet 1,3.0,0.9,69,1.0
307.625,307.625,204.1571,87,1.5,Contrabass,0.5,0.15,42,1.0
307.625,307.625,204.1571,87,1.5,Viola,0.5,0.15,66,1.0
307.625,307.625,204.1571,87,1.5,Violoncello,0.5,0.15,54,1.0
308.125,308.125,204.3071,87,2.0,Contrabass,0.5,0.15,37,1.0
308.125,308.125,204.3071,87,2.0,Violoncello,0.5,0.15,49,1.0
308.125,308.125,204.3071,87,2.0,Viola,0.5,0.15,61,1.0
308.625,308.625,204.4571,87,2.5,Viola,0.5,0.15,57,1.0
308.625,308.625,204.4571,87,2.5,Violoncello,0.5,0.15,45,1.0
308.625,308.625,204.4571,87,2.5,Contrabass,0.5,0.15,33,1.0
309.125,309.125,204.6071,87,3.0,Violoncello,0.5,0.15,42,1.0
309.125,309.125,204.6071,87,3.0,Viola,0.5,0.15,54,1.0
309.125,309.125,204.6071,87,3.0,Contrabass,0.5,0.15,30,1.0
309.625,309.625,204.7571,87,3.5,Viola,0.5,0.15,66,1.0
309.625,309.625,204.7571,87,3.5,Contrabass,0.5,0.15,42,1.0
309.625,309.625,204.7571,87,3.5,Violoncello,0.5,0.15,54,1.0
310.125,310.125,204.9071,87,4.0,Violin 1,0.75,0.225,81,1.0
310.125,310.125,204.9071,87,4.0,Bassoon 1,1.0,0.3,61,1.0
310.125,310.125,204.9071,87,4.0,Violin 2,0.75,0.225,73,1.0
310.125,310.125,204.9071,87,4.0,Flute 1,1.0,0.3,90,1.0
310.125,310.125,204.9071,87,4.0,Oboe 1,1.0,0.3,78,1.0
310.125,310.125,204.9071,87,4.0,Flute 2,1.0,0.3,81,1.0
310.125,310.125,204.9071,87,4.0,Violoncello,0.5,0.15,56,1.0
310.125,310.125,204.9071,87,4.0,Viola,0.5,0.15,68,1.0
310.125,310.125,204.9071,87,4.0,Oboe 2,1.0,0.3,69,1.0
310.125,310.125,204.9071,87,4.0,Contrabass,0.5,0.15,44,1.0
310.625,310.625,205.0571,87,4.5,Violoncello,0.5,0.15,57,1.0
310.625,310.625,205.0571,87,4.5,Contrabass,0.5,0.15,45,1.0
310.625,310.625,205.0571,87,4.5,Viola,0.5,0.15,69,1.0
310.875,310.875,205.1321,87,4.75,Violin 2,0.25,0.075,69,1.0
310.875,310.875,205.1321,87,4.75,Violin 1,0.25,0.075,78,1.0
311.125,311.125,205.2071,88,1.0,Violoncello,0.5,0.15,47,1.0
311.125,311.125,205.2071,88,1.0,Violin 2,0.5,0.15,80,1.0
311.125,311.125,205.2071,88,1.0,Viola,0.5,0.15,59,1.0
311.125,311.125,205.2071,88,1.0,Contrabass,0.5,0.15,35,1.0
311.125,311.125,205.2071,88,1.0,Violin 1,0.5,0.15,83,1.0
311.625,311.625,205.3571,88,1.5,Violin 2,0.5,0.15,80,1.0
311.625,311.625,205.3571,88,1.5,Contrabass,0.5,0.15,47,1.0
311.625,311.625,205.3571,88,1.5,Viola,0.5,0.15,71,1.0
311.625,311.625,205.3571,88,1.5,Violin 1,0.5,0.15,83,1.0
311.625,311.625,205.3571,88,1.5,Violoncello,0.5,0.15,59,1.0
312.125,312.125,205.5071,88,2.0,Violin 1,0.5,0.15,80,1.0
312.125,312.125,205.5071,88,2.0,Flute 2,1.0,0.3,80,1.0
312.125,312.125,205.5071,88,2.0,Contrabass,0.5,0.15,47,1.0
312.125,312.125,205.5071,88,2.0,Bassoon 1,1.0,0.3,59,1.0
312.125,312.125,205.5071,88,2.0,Flute 1,1.0,0.3,88,1.0
312.125,312.125,205.5071,88,2.0,Oboe 1,1.0,0.3,76,1.0
312.125,312.125,205.5071,88,2.0,Violin 2,0.5,0.15,71,1.0
312.125,312.125,205.5071,88,2.0,Violoncello,0.5,0.15,59,1.0
312.125,312.125,205.5071,88,2.0,Viola,0.5,0.15,71,1.0
312.125,312.125,205.5071,88,2.0,Oboe 2,1.0,0.3,68,1.0
312.625,312.625,205.6571,88,2.5,Violin 2,0.5,0.15,68,1.0
312.625,312.625,205.6571,88,2.5,Violin 1,0.5,0.15,76,1.0
312.625,312.625,205.6571,88,2.5,Contrabass,0.5,0.15,47,1.0
312.625,312.625,205.6571,88,2.5,Viola,0.5,0.15,71,1.0
312.625,312.625,205.6571,88,2.5,Violoncello,0.5,0.15,59,1.0
313.125,313.125,205.8071,88,3.0,Violin 2,0.5,0.15,78,1.0
313.125,313.125,205.8071,88,3.0,Viola,0.5,0.15,59,1.0
313.125,313.125,205.8071,88,3.0,Contrabass,0.5,0.15,35,1.0
313.125,313.125,205.8071,88,3.0,Violoncello,0.5,0.15,47,1.0
313.125,313.125,205.8071,88,3.0,Violin 1,0.5,0.15,81,1.0
313.625,313.625,205.9571,88,3.5,Contrabass,0.5,0.15,47,1.0
313.625,313.625,205.9571,88,3.5,Violoncello,0.5,0.15,59,1.0
313.625,313.625,205.9571,88,3.5,Viola,0.5,0.15,71,1.0
313.625,313.625,205.9571,88,3.5,Violin 1,0.5,0.15,81,1.0
313.625,313.625,205.9571,88,3.5,Violin 2,0.5,0.15,78,1.0
314.125,314.125,206.1071,88,4.0,Violin 1,0.5,0.15,78,1.0
314.125,314.125,206.1071,88,4.0,Contrabass,0.5,0.15,47,1.0
314.125,314.125,206.1071,88,4.0,Flute 1,1.0,0.3,87,1.0
314.125,314.125,206.1071,88,4.0,Oboe 1,1.0,0.3,78,1.0
314.125,314.125,206.1071,88,4.0,Bassoon 1,1.0,0.3,59,1.0
314.125,314.125,206.1071,88,4.0,Violin 2,0.5,0.15,69,1.0
314.125,314.125,206.1071,88,4.0,Flute 2,1.0,0.3,78,1.0
314.125,314.125,206.1071,88,4.0,Viola,0.5,0.15,71,1.0
314.125,314.125,206.1071,88,4.0,Oboe 2,1.0,0.3,69,1.0
314.125,314.125,206.1071,88,4.0,Violoncello,0.5,0.15,59,1.0
314.625,314.625,206.2571,88,4.5,Violin 1,0.5,0.15,75,1.0
314.625,314.625,206.2571,88,4.5,Viola,0.5,0.15,71,1.0
314.625,314.625,206.2571,88,4.5,Contrabass,0.5,0.15,47,1.0
314.625,314.625,206.2571,88,4.5,Violoncello,0.5,0.15,59,1.0
314.625,314.625,206.2571,88,4.5,Violin 2,0.5,0.15,66,1.0
315.125,315.125,206.4071,89,1.0,D Trumpet 2,4.0,1.2,76,1.0
315.125,315.125,206.4071,89,1.0,D Horn 2,4.0,1.2,64,1.0
315.125,315.125,206.4071,89,1.0,D Horn 1,4.0,1.2,64,1.0
315.125,315.125,206.4071,89,1.0,Violoncello,2.0,0.6,64,1.0
315.125,315.125,206.4071,89,1.0,Violin 2,0.5,0.15,68,1.0
315.125,315.125,206.4071,89,1.0,Flute 1,1.0,0.3,88,1.0
315.125,315.125,206.4071,89,1.0,Bassoon 1,1.0,0.3,59,1.0
315.125,315.125,206.4071,89,1.0,D Trumpet 1,4.0,1.2,76,1.0
315.125,315.125,206.4071,89,1.0,Contrabass,2.0,0.6,52,1.0
315.125,315.125,206.4071,89,1.0,Violin 1,1.0,0.3,76,1.0
315.125,315.125,206.4071,89,1.0,Oboe 2,1.0,0.3,68,1.0
315.125,315.125,206.4071,89,1.0,Viola,2.0,0.6,64,1.0
315.125,315.125,206.4071,89,1.0,Oboe 1,1.0,0.3,76,1.0
315.125,315.125,206.4071,89,1.0,Flute 2,1.0,0.3,80,1.0
315.625,315.625,206.5571,89,1.5,Violin 2,1.0,0.3,76,0.7087
315.625,315.625,206.5571,89,1.5,Violin 2,1.0,0.3,64,0.7087
316.625,316.625,206.8571,89,2.5,Violin 2,1.0,0.3,76,0.7087
316.625,316.625,206.8571,89,2.5,Violin 2,1.0,0.3,64,0.7087
317.125,317.125,207.0071,89,3.0,Contrabass,0.5,0.15,52,1.0
317.125,317.125,207.0071,89,3.0,Viola,0.5,0.15,64,1.0
317.125,317.125,207.0071,89,3.0,Violoncello,0.5,0.15,64,1.0
317.625,317.625,207.1571,89,3.5,Violin 2,1.0,0.3,64,0.7087
317.625,317.625,207.1571,89,3.5,Violin 2,1.0,0.3,76,0.7087
317.625,317.625,207.1571,89,3.5,Contrabass,0.5,0.15,52,1.0
317.625,317.625,207.1571,89,3.5,Violoncello,0.5,0.15,64,1.0
317.625,317.625,207.1571,89,3.5,Viola,0.5,0.15,64,1.0
318.125,318.125,207.3071,89,4.0,Violoncello,0.5,0.15,62,1.0
318.125,318.125,207.3071,89,4.0,Contrabass,0.5,0.15,50,1.0
318.125,318.125,207.3071,89,4.0,Viola,0.5,0.15,62,1.0
318.625,318.625,207.4571,89,4.5,Viola,0.5,0.15,61,1.0
318.625,318.625,207.4571,89,4.5,Violin 2,0.5,0.15,76,0.7087
318.625,318.625,207.4571,89,4.5,Violoncello,0.5,0.15,61,1.0
318.625,318.625,207.4571,89,4.5,Contrabass,0.5,0.15,49,1.0
318.625,318.625,207.4571,89,4.5,Violin 2,0.5,0.15,64,0.7087
319.125,319.125,207.6071,90,1.0,D Trumpet 2,4.0,1.2,76,1.0
319.125,319.125,207.6071,90,1.0,Violoncello,2.0,0.6,62,1.0
319.125,319.125,207.6071,90,1.0,D Horn 2,4.0,1.2,64,1.0
319.125,319.125,207.6071,90,1.0,Contrabass,2.0,0.6,50,1.0
319.125,319.125,207.6071,90,1.0,Viola,2.0,0.6,62,1.0
319.125,319.125,207.6071,90,1.0,D Trumpet 1,4.0,1.2,76,1.0
319.125,319.125,207.6071,90,1.0,Violin 2,0.5,0.15,76,0.7087
319.125,319.125,207.6071,90,1.0,D Horn 1,4.0,1.2,64,1.0
319.125,319.125,207.6071,90,1.0,Violin 2,0.5,0.15,64,0.7087
319.625,319.625,207.7571,90,1.5,Violin 2,1.0,0.3,64,0.7087
319.625,319.625,207.7571,90,1.5,Violin 2,1.0,0.3,76,0.7087
320.625,320.625,208.0571,90,2.5,Violin 2,1.0,0.3,64,0.7087
320.625,320.625,208.0571,90,2.5,Violin 2,1.0,0.3,76,0.7087
321.125,321.125,208.2071,90,3.0,Violoncello,0.5,0.15,62,1.0
321.125,321.125,208.2071,90,3.0,Viola,0.5,0.15,62,1.0
321.125,321.125,208.2071,90,3.0,Contrabass,0.5,0.15,50,1.0
321.625,321.625,208.3571,90,3.5,Viola,0.5,0.15,62,1.0
321.625,321.625,208.3571,90,3.5,Violin 2,1.0,0.3,64,0.7087
321.625,321.625,208.3571,90,3.5,Violoncello,0.5,0.15,62,1.0
321.625,321.625,208.3571,90,3.5,Contrabass,0.5,0.15,50,1.0
321.625,321.625,208.3571,90,3.5,Violin 2,1.0,0.3,76,0.7087
322.125,322.125,208.5071,90,4.0,Contrabass,0.5,0.15,49,1.0
322.125,322.125,208.5071,90,4.0,Viola,0.5,0.15,61,1.0
322.125,322.125,208.5071,90,4.0,Violoncello,0.5,0.15,61,1.0
322.625,322.625,208.6571,90,4.5,Contrabass,0.5,0.15,48,1.0
322.625,322.625,208.6571,90,4.5,Violin 2,0.5,0.15,64,0.7087
322.625,322.625,208.6571,90,4.5,Viola,0.5,0.15,60,1.0
322.625,322.625,208.6571,90,4.5,Violoncello,0.5,0.15,60,1.0
322.625,322.625,208.6571,90,4.5,Violin 2,0.5,0.15,76,0.7087
323.125,323.125,208.8071,91,1.0,D Horn 1,4.0,1.2,64,1.0
323.125,323.125,208.8071,91,1.0,D Horn 2,4.0,1.2,64,1.0
323.125,323.125,208.8071,91,1.0,Contrabass,2.0,0.6,49,1.0
323.125,323.125,208.8071,91,1.0,Flute 1,2.0,0.6,88,1.0
323.125,323.125,208.8071,91,1.0,Violin 1,2.0,0.6,88,1.0
323.125,323.125,208.8071,91,1.0,Oboe 2,2.0,0.6,76,1.0
323.125,323.125,208.8071,91,1.0,D Trumpet 2,4.0,1.2,76,1.0
323.125,323.125,208.8071,91,1.0,Oboe 1,2.0,0.6,76,1.0
323.125,323.125,208.8071,91,1.0,Violin 2,0.5,0.15,64,0.7087
323.125,323.125,208.8071,91,1.0,Violin 2,0.5,0.15,76,0.7087
323.125,323.125,208.8071,91,1.0,A Clarinet 2,4.0,1.2,76,1.0
323.125,323.125,208.8071,91,1.0,Violoncello,2.0,0.6,61,1.0
323.125,323.125,208.8071,91,1.0,D Trumpet 1,4.0,1.2,76,1.0
323.125,323.125,208.8071,91,1.0,Viola,2.0,0.6,61,1.0
323.125,323.125,208.8071,91,1.0,Flute 2,2.0,0.6,88,1.0
323.125,323.125,208.8071,91,1.0,A Clarinet 1,4.0,1.2,76,1.0
323.625,323.625,208.9571,91,1.5,Violin 2,1.0,0.3,64,0.7087
323.625,323.625,208.9571,91,1.5,Violin 2,1.0,0.3,76,0.7087
324.625,324.625,209.2571,91,2.5,Violin 2,1.0,0.3,76,0.7087
324.625,324.625,209.2571,91,2.5,Violin 2,1.0,0.3,64,0.7087
325.125,325.125,209.4071,91,3.0,Viola,0.5,0.15,61,1.0
325.125,325.125,209.4071,91,3.0,Oboe 1,0.5,0.15,76,1.0
325.125,325.125,209.4071,91,3.0,Contrabass,0.5,0.15,49,1.0
325.125,325.125,209.4071,91,3.0,Flute 1,0.5,0.15,88,1.0
325.125,325.125,209.4071,91,3.0,Flute 2,0.5,0.15,88,1.0
325.125,325.125,209.4071,91,3.0,Oboe 2,0.5,0.15,76,1.0
325.125,325.125,209.4071,91,3.0,Violoncello,0.5,0.15,61,1.0
325.125,325.125,209.4071,91,3.0,Violin 1,0.5,0.15,88,1.0
325.625,325.625,209.5571,91,3.5,Violin 2,1.0,0.3,76,0.7087
325.625,325.625,209.5571,91,3.5,Oboe 1,0.5,0.15,76,1.0
325.625,325.625,209.5571,91,3.5,Violin 2,1.0,0.3,64,0.7087
325.625,325.625,209.5571,91,3.5,Contrabass,0.5,0.15,49,1.0
325.625,325.625,209.5571,91,3.5,Violoncello,0.5,0.15,61,1.0
325.625,325.625,209.5571,91,3.5,Violin 1,0.5,0.15,88,1.0
325.625,325.625,209.5571,91,3.5,Flute 1,0.5,0.15,88,1.0
325.625,325.625,209.5571,91,3.5,Viola,0.5,0.15,61,1.0
325.625,325.625,209.5571,91,3.5,Oboe 2,0.5,0.15,76,1.0
325.625,325.625,209.5571,91,3.5,Flute 2,0.5,0.15,88,1.0
326.125,326.125,209.7071,91,4.0,Contrabass,0.5,0.15,47,1.0
326.125,326.125,209.7071,91,4.0,Viola,0.5,0.15,59,1.0
326.125,326.125,209.7071,91,4.0,Flute 2,0.5,0.15,86,1.0
326.125,326.125,209.7071,91,4.0,Violoncello,0.5,0.15,59,1.0
326.125,326.125,209.7071,91,4.0,Oboe 1,0.5,0.15,74,1.0
326.125,326.125,209.7071,91,4.0,Violin 1,0.5,0.15,86,1.0
326.125,326.125,209.7071,91,4.0,Oboe 2,0.5,0.15,74,1.0
326.125,326.125,209.7071,91,4.0,Flute 1,0.5,0.15,86,1.0
326.625,326.625,209.8571,91,4.5,Contrabass,0.5,0.15,46,1.0
326.625,326.625,209.8571,91,4.5,Oboe 1,0.5,0.15,73,1.0
326.625,326.625,209.8571,91,4.5,Violin 2,0.5,0.15,64,0.7087
326.625,326.625,209.8571,91,4.5,Oboe 2,0.5,0.15,73,1.0
326.625,326.625,209.8571,91,4.5,Viola,0.5,0.15,58,1.0
326.625,326.625,209.8571,91,4.5,Violin 1,0.5,0.15,85,1.0
326.625,326.625,209.8571,91,4.5,Violoncello,0.5,0.15,58,1.0
326.625,326.625,209.8571,91,4.5,Flute 2,0.5,0.15,85,1.0
326.625,326.625,209.8571,91,4.5,Flute 1,0.5,0.15,85,1.0
326.625,326.625,209.8571,91,4.5,Violin 2,0.5,0.15,76,0.7087
327.125,327.125,210.0071,92,1.0,D Trumpet 2,4.0,1.2,76,1.0
327.125,327.125,210.0071,92,1.0,A Clarinet 1,4.0,1.2,76,1.0
327.125,327.125,210.0071,92,1.0,Violin 1,2.0,0.6,86,1.0
327.125,327.125,210.0071,92,1.0,D Horn 2,4.0,1.2,64,1.0
327.125,327.125,210.0071,92,1.0,Oboe 1,2.0,0.6,74,1.0
327.125,327.125,210.0071,92,1.0,Violin 2,0.5,0.15,76,0.7087
327.125,327.125,210.0071,92,1.0,Contrabass,2.0,0.6,47,1.0
327.125,327.125,210.0071,92,1.0,D Trumpet 1,4.0,1.2,76,1.0
327.125,327.125,210.0071,92,1.0,Violoncello,2.0,0.6,59,1.0
327.125,327.125,210.0071,92,1.0,Flute 2,2.0,0.6,86,1.0
327.125,327.125,210.0071,92,1.0,D Horn 1,4.0,1.2,64,1.0
327.125,327.125,210.0071,92,1.0,Oboe 2,2.0,0.6,74,1.0
327.125,327.125,210.0071,92,1.0,Flute 1,2.0,0.6,86,1.0
327.125,327.125,210.0071,92,1.0,Viola,2.0,0.6,59,1.0
327.125,327.125,210.0071,92,1.0,Violin 2,0.5,0.15,64,0.7087
327.125,327.125,210.0071,92,1.0,A Clarinet 2,4.0,1.2,76,1.0
327.625,327.625,210.1571,92,1.5,Violin 2,1.0,0.3,64,0.7087
327.625,327.625,210.1571,92,1.5,Violin 2,1.0,0.3,76,0.7087
328.625,328.625,210.4571,92,2.5,Violin 2,1.0,0.3,64,0.7087
328.625,328.625,210.4571,92,2.5,Violin 2,1.0,0.3,76,0.7087
329.125,329.125,210.6071,92,3.0,Viola,0.5,0.15,59,1.0
329.125,329.125,210.6071,92,3.0,Oboe 1,0.5,0.15,74,1.0
329.125,329.125,210.6071,92,3.0,Violoncello,0.5,0.15,59,1.0
329.125,329.125,210.6071,92,3.0,Flute 2,0.5,0.15,86,1.0
329.125,329.125,210.6071,92,3.0,Oboe 2,0.5,0.15,74,1.0
329.125,329.125,210.6071,92,3.0,Violin 1,0.5,0.15,86,1.0
329.125,329.125,210.6071,92,3.0,Contrabass,0.5,0.15,47,1.0
329.125,329.125,210.6071,92,3.0,Flute 1,0.5,0.15,86,1.0
329.625,329.625,210.7571,92,3.5,Violoncello,0.5,0.15,59,1.0
329.625,329.625,210.7571,92,3.5,Violin 2,1.0,0.3,64,0.7087
329.625,329.625,210.7571,92,3.5,Violin 2,1.0,0.3,76,0.7087
329.625,329.625,210.7571,92,3.5,Viola,0.5,0.15,59,1.0
329.625,329.625,210.7571,92,3.5,Oboe 1,0.5,0.15,74,1.0
329.625,329.625,210.7571,92,3.5,Violin 1,0.5,0.15,86,1.0
329.625,329.625,210.7571,92,3.5,Flute 2,0.5,0.15,86,1.0
329.625,329.625,210.7571,92,3.5,Oboe 2,0.5,0.15,74,1.0
329.625,329.625,210.7571,92,3.5,Contrabass,0.5,0.15,47,1.0
329.625,329.625,210.7571,92,3.5,Flute 1,0.5,0.15,86,1.0
330.125,330.125,210.9071,92,4.0,Flute 1,0.5,0.15,85,1.0
330.125,330.125,210.9071,92,4.0,Oboe 1,0.5,0.15,73,1.0
330.125,330.125,210.9071,92,4.0,Contrabass,0.5,0.15,45,1.0
330.125,330.125,210.9071,92,4.0,Violoncello,0.5,0.15,57,1.0
330.125,330.125,210.9071,92,4.0,Violin 1,0.5,0.15,85,1.0
330.125,330.125,210.9071,92,4.0,Flute 2,0.5,0.15,85,1.0
330.125,330.125,210.9071,92,4.0,Oboe 2,0.5,0.15,73,1.0
330.125,330.125,210.9071,92,4.0,Viola,0.5,0.15,57,1.0
330.625,330.625,211.0571,92,4.5,Contrabass,0.5,0.15,44,1.0
330.625,330.625,211.0571,92,4.5,Violin 2,0.5,0.15,76,0.7087
330.625,330.625,211.0571,92,4.5,Oboe 1,0.5,0.15,72,1.0
330.625,330.625,211.0571,92,4.5,Violoncello,0.5,0.15,56,1.0
330.625,330.625,211.0571,92,4.5,Violin 1,0.5,0.15,84,1.0
330.625,330.625,211.0571,92,4.5,Flute 2,0.5,0.15,84,1.0
330.625,330.625,211.0571,92,4.5,Oboe 2,0.5,0.15,72,1.0
330.625,330.625,211.0571,92,4.5,Viola,0.5,0.15,56,1.0
330.625,330.625,211.0571,92,4.5,Violin 2,0.5,0.15,64,0.7087
330.625,330.625,211.0571,92,4.5,Flute 1,0.5,0.15,84,1.0
331.125,331.125,211.2071,93,1.0,Violoncello,0.5,0.15,57,1.0
331.125,331.125,211.2071,93,1.0,Oboe 1,0.5,0.15,73,1.0
331.125,331.125,211.2071,93,1.0,Flute 1,0.5,0.15,85,1.0
331.125,331.125,211.2071,93,1.0,A Clarinet 2,4.0,1.2,76,1.0
331.125,331.125,211.2071,93,1.0,D Trumpet 1,4.0,1.2,76,1.0
331.125,331.125,211.2071,93,1.0,A Clarinet 1,4.0,1.2,76,1.0
331.125,331.125,211.2071,93,1.0,D Trumpet 2,4.0,1.2,76,1.0
331.125,331.125,211.2071,93,1.0,Violin 2,0.5,0.15,76,0.7087
331.125,331.125,211.2071,93,1.0,Violin 1,0.5,0.15,85,1.0
331.125,331.125,211.2071,93,1.0,Violin 2,0.5,0.15,64,0.7087
331.125,331.125,211.2071,93,1.0,Flute 2,0.5,0.15,85,1.0
331.125,331.125,211.2071,93,1.0,D Horn 2,4.0,1.2,64,1.0
331.125,331.125,211.2071,93,1.0,Viola,0.5,0.15,57,1.0
331.125,331.125,211.2071,93,1.0,Oboe 2,0.5,0.15,73,1.0
331.125,331.125,211.2071,93,1.0,Contrabass,0.5,0.15,45,1.0
331.125,331.125,211.2071,93,1.0,D Horn 1,4.0,1.2,64,1.0
331.625,331.625,211.3571,93,1.5,Contrabass,0.5,0.15,52,1.0
331.625,331.625,211.3571,93,1.5,Violin 2,1.0,0.3,64,0.7087
331.625,331.625,211.3571,93,1.5,Violin 2,1.0,0.3,76,0.7087
331.625,331.625,211.3571,93,1.5,Flute 1,0.5,0.15,85,1.0
331.625,331.625,211.3571,93,1.5,Violin 1,0.5,0.15,85,1.0
331.625,331.625,211.3571,93,1.5,Viola,0.5,0.15,64,1.0
331.625,331.625,211.3571,93,1.5,Oboe 1,0.5,0.15,73,1.0
331.625,331.625,211.3571,93,1.5,Flute 2,0.5,0.15,85,1.0
331.625,331.625,211.3571,93,1.5,Oboe 2,0.5,0.15,73,1.0
331.625,331.625,211.3571,93,1.5,Violoncello,0.5,0.15,64,1.0
332.125,332.125,211.5071,93,2.0,Oboe 2,0.5,0.15,71,1.0
332.125,332.125,211.5071,93,2.0,Oboe 1,0.5,0.15,71,1.0
332.125,332.125,211.5071,93,2.0,Flute 1,0.5,0.15,83,1.0
332.125,332.125,211.5071,93,2.0,Violoncello,0.5,0.15,62,1.0
332.125,332.125,211.5071,93,2.0,Flute 2,0.5,0.15,83,1.0
332.125,332.125,211.5071,93,2.0,Contrabass,0.5,0.15,50,1.0
332.125,332.125,211.5071,93,2.0,Violin 1,0.5,0.15,83,1.0
332.125,332.125,211.5071,93,2.0,Viola,0.5,0.15,62,1.0
332.625,332.625,211.6571,93,2.5,Violoncello,0.5,0.15,61,1.0
332.625,332.625,211.6571,93,2.5,Flute 2,0.5,0.15,82,1.0
332.625,332.625,211.6571,93,2.5,Viola,0.5,0.15,61,1.0
332.625,332.625,211.6571,93,2.5,Violin 2,1.0,0.3,64,0.7087
332.625,332.625,211.6571,93,2.5,Oboe 1,0.5,0.15,70,1.0
332.625,332.625,211.6571,93,2.5,Violin 2,1.0,0.3,76,0.7087
332.625,332.625,211.6571,93,2.5,Violin 1,0.5,0.15,82,1.0
332.625,332.625,211.6571,93,2.5,Oboe 2,0.5,0.15,70,1.0
332.625,332.625,211.6571,93,2.5,Flute 1,0.5,0.15,82,1.0
332.625,332.625,211.6571,93,2.5,Contrabass,0.5,0.15,49,1.0
333.125,333.125,211.8071,93,3.0,Oboe 1,0.5,0.15,71,1.0
333.125,333.125,211.8071,93,3.0,Contrabass,0.5,0.15,50,1.0
333.125,333.125,211.8071,93,3.0,Viola,0.5,0.15,62,1.0
333.125,333.125,211.8071,93,3.0,Oboe 2,0.5,0.15,71,1.0
333.125,333.125,211.8071,93,3.0,Violin 1,0.5,0.15,83,1.0
333.125,333.125,211.8071,93,3.0,Flute 1,0.5,0.15,83,1.0
333.125,333.125,211.8071,93,3.0,Violoncello,0.5,0.15,62,1.0
333.125,333.125,211.8071,93,3.0,Flute 2,0.5,0.15,83,1.0
333.625,333.625,211.9571,93,3.5,Flute 2,0.5,0.15,83,1.0
333.625,333.625,211.9571,93,3.5,Violin 2,1.0,0.3,64,0.7087
333.625,333.625,211.9571,93,3.5,Contrabass,0.5,0.15,50,1.0
333.625,333.625,211.9571,93,3.5,Violin 2,1.0,0.3,76,0.7087
333.625,333.625,211.9571,93,3.5,Violin 1,0.5,0.15,83,1.0
333.625,333.625,211.9571,93,3.5,Viola,0.5,0.15,62,1.0
333.625,333.625,211.9571,93,3.5,Oboe 2,0.5,0.15,71,1.0
333.625,333.625,211.9571,93,3.5,Flute 1,0.5,0.15,83,1.0
333.625,333.625,211.9571,93,3.5,Violoncello,0.5,0.15,62,1.0
333.625,333.625,211.9571,93,3.5,Oboe 1,0.5,0.15,71,1.0
334.125,334.125,212.1071,93,4.0,Oboe 1,0.5,0.15,69,1.0
334.125,334.125,212.1071,93,4.0,Flute 2,0.5,0.15,81,1.0
334.125,334.125,212.1071,93,4.0,Contrabass,0.5,0.15,49,1.0
334.125,334.125,212.1071,93,4.0,Flute 1,0.5,0.15,81,1.0
334.125,334.125,212.1071,93,4.0,Violoncello,0.5,0.15,61,1.0
334.125,334.125,212.1071,93,4.0,Violin 1,0.5,0.15,81,1.0
334.125,334.125,212.1071,93,4.0,Oboe 2,0.5,0.15,69,1.0
334.125,334.125,212.1071,93,4.0,Viola,0.5,0.15,61,1.0
334.625,334.625,212.2571,93,4.5,Flute 1,0.5,0.15,80,1.0
334.625,334.625,212.2571,93,4.5,Flute 2,0.5,0.15,80,1.0
334.625,334.625,212.2571,93,4.5,Violin 2,0.5,0.15,64,0.7087
334.625,334.625,212.2571,93,4.5,Oboe 1,0.5,0.15,68,1.0
334.625,334.625,212.2571,93,4.5,Violin 2,0.5,0.15,76,0.7087
334.625,334.625,212.2571,93,4.5,Oboe 2,0.5,0.15,68,1.0
334.625,334.625,212.2571,93,4.5,Violoncello,0.5,0.15,60,1.0
334.625,334.625,212.2571,93,4.5,Contrabass,0.5,0.15,48,1.0
334.625,334.625,212.2571,93,4.5,Viola,0.5,0.15,60,1.0
334.625,334.625,212.2571,93,4.5,Violin 1,0.5,0.15,80,1.0
335.125,335.125,212.4071,94,1.0,Flute 1,0.5,0.15,81,1.0
335.125,335.125,212.4071,94,1.0,Flute 2,0.5,0.15,81,1.0
335.125,335.125,212.4071,94,1.0,Oboe 2,0.5,0.15,69,1.0
335.125,335.125,212.4071,94,1.0,Violin 2,0.5,0.15,64,0.7087
335.125,335.125,212.4071,94,1.0,Oboe 1,0.5,0.15,69,1.0
335.125,335.125,212.4071,94,1.0,Violoncello,0.5,0.15,61,1.0
335.125,335.125,212.4071,94,1.0,A Clarinet 2,4.0,1.2,76,1.0
335.125,335.125,212.4071,94,1.0,Violin 2,0.5,0.15,76,0.7087
335.125,335.125,212.4071,94,1.0,D Horn 1,4.0,1.2,64,1.0
335.125,335.125,212.4071,94,1.0,Contrabass,0.5,0.15,49,1.0
335.125,335.125,212.4071,94,1.0,A Clarinet 1,4.0,1.2,76,1.0
335.125,335.125,212.4071,94,1.0,Viola,0.5,0.15,61,1.0
335.125,335.125,212.4071,94,1.0,D Horn 2,4.0,1.2,64,1.0
335.125,335.125,212.4071,94,1.0,Violin 1,0.5,0.15,81,1.0
335.125,335.125,212.4071,94,1.0,D Trumpet 1,4.0,1.2,76,1.0
335.125,335.125,212.4071,94,1.0,D Trumpet 2,4.0,1.2,76,1.0
335.625,335.625,212.5571,94,1.5,Violin 1,0.5,0.15,88,1.0
335.625,335.625,212.5571,94,1.5,Oboe 1,0.5,0.15,76,1.0
335.625,335.625,212.5571,94,1.5,Flute 2,0.5,0.15,88,1.0
335.625,335.625,212.5571,94,1.5,Violin 2,1.0,0.3,64,0.7087
335.625,335.625,212.5571,94,1.5,Flute 1,0.5,0.15,88,1.0
335.625,335.625,212.5571,94,1.5,Viola,0.5,0.15,61,1.0
335.625,335.625,212.5571,94,1.5,Violin 2,1.0,0.3,76,0.7087
335.625,335.625,212.5571,94,1.5,Violoncello,0.5,0.15,61,1.0
335.625,335.625,212.5571,94,1.5,Oboe 2,0.5,0.15,76,1.0
335.625,335.625,212.5571,94,1.5,Contrabass,0.5,0.15,49,1.0
336.125,336.125,212.7071,94,2.0,Viola,0.5,0.15,59,1.0
336.125,336.125,212.7071,94,2.0,Oboe 1,0.5,0.15,74,1.0
336.125,336.125,212.7071,94,2.0,Oboe 2,0.5,0.15,74,1.0
336.125,336.125,212.7071,94,2.0,Flute 1,0.5,0.15,86,1.0
336.125,336.125,212.7071,94,2.0,Violin 1,0.5,0.15,86,1.0
336.125,336.125,212.7071,94,2.0,Violoncello,0.5,0.15,59,1.0
336.125,336.125,212.7071,94,2.0,Contrabass,0.5,0.15,47,1.0
336.125,336.125,212.7071,94,2.0,Flute 2,0.5,0.15,86,1.0
336.625,336.625,212.8571,94,2.5,Violoncello,0.5,0.15,58,1.0
336.625,336.625,212.8571,94,2.5,Oboe 2,0.5,0.15,73,1.0
336.625,336.625,212.8571,94,2.5,Violin 2,1.0,0.3,64,0.7087
336.625,336.625,212.8571,94,2.5,Violin 2,1.0,0.3,76,0.7087
336.625,336.625,212.8571,94,2.5,Contrabass,0.5,0.15,46,1.0
336.625,336.625,212.8571,94,2.5,Violin 1,0.5,0.15,85,1.0
336.625,336.625,212.8571,94,2.5,Flute 1,0.5,0.15,85,1.0
336.625,336.625,212.8571,94,2.5,Oboe 1,0.5,0.15,73,1.0
336.625,336.625,212.8571,94,2.5,Viola,0.5,0.15,58,1.0
336.625,336.625,212.8571,94,2.5,Flute 2,0.5,0.15,85,1.0
337.125,337.125,213.0071,94,3.0,Flute 2,0.5,0.15,86,1.0
337.125,337.125,213.0071,94,3.0,Violin 1,0.5,0.15,86,1.0
337.125,337.125,213.0071,94,3.0,Oboe 1,0.5,0.15,74,1.0
337.125,337.125,213.0071,94,3.0,Flute 1,0.5,0.15,86,1.0
337.125,337.125,213.0071,94,3.0,Oboe 2,0.5,0.15,74,1.0
337.125,337.125,213.0071,94,3.0,Contrabass,0.5,0.15,47,1.0
337.125,337.125,213.0071,94,3.0,Viola,0.5,0.15,59,1.0
337.125,337.125,213.0071,94,3.0,Violoncello,0.5,0.15,59,1.0
337.625,337.625,213.1571,94,3.5,Violin 1,0.5,0.15,86,1.0
337.625,337.625,213.1571,94,3.5,Oboe 1,0.5,0.15,74,1.0
337.625,337.625,213.1571,94,3.5,Violin 2,1.0,0.3,76,0.7087
337.625,337.625,213.1571,94,3.5,Violin 2,1.0,0.3,64,0.7087
337.625,337.625,213.1571,94,3.5,Oboe 2,0.5,0.15,74,1.0
337.625,337.625,213.1571,94,3.5,Viola,0.5,0.15,71,1.0
337.625,337.625,213.1571,94,3.5,Contrabass,0.5,0.15,47,1.0
337.625,337.625,213.1571,94,3.5,Flute 2,0.5,0.15,86,1.0
337.625,337.625,213.1571,94,3.5,Violoncello,0.5,0.15,59,1.0
337.625,337.625,213.1571,94,3.5,Flute 1,0.5,0.15,86,1.0
338.125,338.125,213.3071,94,4.0,Viola,0.5,0.15,69,1.0
338.125,338.125,213.3071,94,4.0,Contrabass,0.5,0.15,45,1.0
338.125,338.125,213.3071,94,4.0,Violin 1,0.5,0.15,85,1.0
338.125,338.125,213.3071,94,4.0,Flute 2,0.5,0.15,85,1.0
338.125,338.125,213.3071,94,4.0,Oboe 1,0.5,0.15,73,1.0
338.125,338.125,213.3071,94,4.0,Oboe 2,0.5,0.15,73,1.0
338.125,338.125,213.3071,94,4.0,Violoncello,0.5,0.15,57,1.0
338.125,338.125,213.3071,94,4.0,Flute 1,0.5,0.15,85,1.0
338.625,338.625,213.4571,94,4.5,Oboe 1,0.5,0.15,72,1.0
338.625,338.625,213.4571,94,4.5,Viola,0.5,0.15,68,1.0
338.625,338.625,213.4571,94,4.5,Violoncello,0.5,0.15,56,1.0
338.625,338.625,213.4571,94,4.5,Violin 2,0.5,0.15,76,0.7087
338.625,338.625,213.4571,94,4.5,Flute 2,0.5,0.15,84,1.0
338.625,338.625,213.4571,94,4.5,Violin 1,0.5,0.15,84,1.0
338.625,338.625,213.4571,94,4.5,Flute 1,0.5,0.15,84,1.0
338.625,338.625,213.4571,94,4.5,Contrabass,0.5,0.15,44,1.0
338.625,338.625,213.4571,94,4.5,Violin 2,0.5,0.15,64,0.7087
338.625,338.625,213.4571,94,4.5,Oboe 2,0.5,0.15,72,1.0
339.125,339.125,213.6071,95,1.0,Violin 1,0.5,0.15,85,1.0
339.125,339.125,213.6071,95,1.0,Contrabass,0.5,0.15,45,1.0
339.125,339.125,213.6071,95,1.0,Violoncello,0.5,0.15,57,1.0
339.125,339.125,213.6071,95,1.0,A Clarinet 2,4.0,1.2,73,1.0
339.125,339.125,213.6071,95,1.0,Oboe 1,4.0,1.2,73,1.0
339.125,339.125,213.6071,95,1.0,A Clarinet 1,4.0,1.2,73,1.0
339.125,339.125,213.6071,95,1.0,Violin 2,0.5,0.15,64,0.7087
339.125,339.125,213.6071,95,1.0,Oboe 2,4.0,1.2,73,1.0
339.125,339.125,213.6071,95,1.0,Flute 1,0.5,0.15,85,1.0
339.125,339.125,213.6071,95,1.0,Viola,0.5,0.15,69,1.0
339.125,339.125,213.6071,95,1.0,Flute 2,0.5,0.15,85,1.0
339.125,339.125,213.6071,95,1.0,Violin 2,0.5,0.15,76,0.7087
339.625,339.625,213.7571,95,1.5,Violin 2,1.0,0.3,73,1.0
339.625,339.625,213.7571,95,1.5,Flute 1,0.5,0.15,85,1.0
339.625,339.625,213.7571,95,1.5,Viola,0.5,0.15,69,1.0
339.625,339.625,213.7571,95,1.5,Flute 2,0.5,0.15,85,1.0
339.625,339.625,213.7571,95,1.5,Violin 1,0.5,0.15,85,1.0
339.625,339.625,213.7571,95,1.5,Contrabass,0.5,0.15,45,1.0
339.625,339.625,213.7571,95,1.5,Violoncello,0.5,0.15,57,1.0
340.125,340.125,213.9071,95,2.0,Flute 2,0.5,0.15,83,1.0
340.125,340.125,213.9071,95,2.0,Violin 1,0.5,0.15,83,1.0
340.125,340.125,213.9071,95,2.0,Violoncello,0.5,0.15,56,1.0
340.125,340.125,213.9071,95,2.0,Viola,0.5,0.15,68,1.0
340.125,340.125,213.9071,95,2.0,Contrabass,0.5,0.15,44,1.0
340.125,340.125,213.9071,95,2.0,Flute 1,0.5,0.15,83,1.0
340.625,340.625,214.0571,95,2.5,Violin 2,1.0,0.3,73,1.0
340.625,340.625,214.0571,95,2.5,Flute 1,0.5,0.15,81,1.0
340.625,340.625,214.0571,95,2.5,Violin 1,0.5,0.15,81,1.0
340.625,340.625,214.0571,95,2.5,Viola,0.5,0.15,66,1.0
340.625,340.625,214.0571,95,2.5,Flute 2,0.5,0.15,81,1.0
340.625,340.625,214.0571,95,2.5,Contrabass,0.5,0.15,42,1.0
340.625,340.625,214.0571,95,2.5,Violoncello,0.5,0.15,54,1.0
341.125,341.125,214.2071,95,3.0,Flute 2,0.5,0.15,83,1.0
341.125,341.125,214.2071,95,3.0,Viola,0.5,0.15,68,1.0
341.125,341.125,214.2071,95,3.0,Contrabass,0.5,0.15,44,1.0
341.125,341.125,214.2071,95,3.0,Violin 1,0.5,0.15,83,1.0
341.125,341.125,214.2071,95,3.0,Flute 1,0.5,0.15,83,1.0
341.125,341.125,214.2071,95,3.0,Violoncello,0.5,0.15,56,1.0
341.625,341.625,214.3571,95,3.5,Violin 2,1.0,0.3,73,1.0
341.625,341.625,214.3571,95,3.5,Violoncello,0.5,0.15,56,1.0
341.625,341.625,214.3571,95,3.5,Contrabass,0.5,0.15,44,1.0
341.625,341.625,214.3571,95,3.5,Flute 2,0.5,0.15,83,1.0
341.625,341.625,214.3571,95,3.5,Viola,0.5,0.15,68,1.0
341.625,341.625,214.3571,95,3.5,Flute 1,0.5,0.15,83,1.0
341.625,341.625,214.3571,95,3.5,Violin 1,0.5,0.15,83,1.0
342.125,342.125,214.5071,95,4.0,Flute 1,0.5,0.15,81,1.0
342.125,342.125,214.5071,95,4.0,Viola,0.5,0.15,66,1.0
342.125,342.125,214.5071,95,4.0,Flute 2,0.5,0.15,81,1.0
342.125,342.125,214.5071,95,4.0,Violin 1,0.5,0.15,81,1.0
342.125,342.125,214.5071,95,4.0,Contrabass,0.5,0.15,42,1.0
342.125,342.125,214.5071,95,4.0,Violoncello,0.5,0.15,54,1.0
342.625,342.625,214.6571,95,4.5,Violoncello,0.5,0.15,53,1.0
342.625,342.625,214.6571,95,4.5,Flute 2,0.5,0.15,80,1.0
342.625,342.625,214.6571,95,4.5,Violin 2,0.5,0.15,73,1.0
342.625,342.625,214.6571,95,4.5,Flute 1,0.5,0.15,80,1.0
342.625,342.625,214.6571,95,4.5,Contrabass,0.5,0.15,41,1.0
342.625,342.625,214.6571,95,4.5,Violin 1,0.5,0.15,80,1.0
342.625,342.625,214.6571,95,4.5,Viola,0.5,0.15,65,1.0
343.125,343.125,214.8071,96,1.0,Violin 1,0.5,0.15,81,1.0
343.125,343.125,214.8071,96,1.0,Timpani,2.0,0.6,45,1.0
343.125,343.125,214.8071,96,1.0,Flute 1,0.5,0.15,81,1.0
343.125,343.125,214.8071,96,1.0,D Horn 1,4.0,1.2,69,1.0
343.125,343.125,214.8071,96,1.0,D Trumpet 1,4.0,1.2,69,1.0
343.125,343.125,214.8071,96,1.0,Oboe 1,0.5,0.15,73,1.0
343.125,343.125,214.8071,96,1.0,Oboe 2,0.5,0.15,73,1.0
343.125,343.125,214.8071,96,1.0,D Horn 2,4.0,1.2,57,1.0
343.125,343.125,214.8071,96,1.0,A Clarinet 2,4.0,1.2,69,1.0
343.125,343.125,214.8071,96,1.0,Violoncello,0.5,0.15,54,1.0
343.125,343.125,214.8071,96,1.0,Violin 2,0.5,0.15,73,1.0
343.125,343.125,214.8071,96,1.0,Contrabass,0.5,0.15,42,1.0
343.125,343.125,214.8071,96,1.0,Flute 2,0.5,0.15,81,1.0
343.125,343.125,214.8071,96,1.0,D Trumpet 2,4.0,1.2,57,1.0
343.125,343.125,214.8071,96,1.0,Viola,0.5,0.15,66,1.0
343.125,343.125,214.8071,96,1.0,A Clarinet 1,4.0,1.2,81,1.0
343.625,343.625,214.9571,96,1.5,Oboe 1,0.5,0.15,81,1.0
343.625,343.625,214.9571,96,1.5,Violin 2,1.0,0.3,69,0.7087
343.625,343.625,214.9571,96,1.5,Violoncello,0.5,0.15,54,1.0
343.625,343.625,214.9571,96,1.5,Violin 2,1.0,0.3,81,0.7087
343.625,343.625,214.9571,96,1.5,Flute 2,0.5,0.15,81,1.0
343.625,343.625,214.9571,96,1.5,Oboe 2,0.5,0.15,69,1.0
343.625,343.625,214.9571,96,1.5,Viola,0.5,0.15,66,1.0
343.625,343.625,214.9571,96,1.5,Flute 1,0.5,0.15,93,1.0
343.625,343.625,214.9571,96,1.5,Contrabass,0.5,0.15,42,1.0
343.625,343.625,214.9571,96,1.5,Violin 1,0.5,0.15,81,1.0
344.125,344.125,215.1071,96,2.0,Flute 1,0.5,0.15,91,1.0
344.125,344.125,215.1071,96,2.0,Contrabass,0.5,0.15,40,1.0
344.125,344.125,215.1071,96,2.0,Flute 2,0.5,0.15,79,1.0
344.125,344.125,215.1071,96,2.0,Violoncello,0.5,0.15,52,1.0
344.125,344.125,215.1071,96,2.0,Oboe 2,0.5,0.15,67,1.0
344.125,344.125,215.1071,96,2.0,Oboe 1,0.5,0.15,79,1.0
344.125,344.125,215.1071,96,2.0,Violin 1,0.5,0.15,79,1.0
344.125,344.125,215.1071,96,2.0,Viola,0.5,0.15,64,1.0
344.625,344.625,215.2571,96,2.5,Violin 2,1.0,0.3,69,0.7087
344.625,344.625,215.2571,96,2.5,Contrabass,0.5,0.15,38,1.0
344.625,344.625,215.2571,96,2.5,Flute 1,0.5,0.15,90,1.0
344.625,344.625,215.2571,96,2.5,Violin 2,1.0,0.3,81,0.7087
344.625,344.625,215.2571,96,2.5,Violin 1,0.5,0.15,78,1.0
344.625,344.625,215.2571,96,2.5,Violoncello,0.5,0.15,50,1.0
344.625,344.625,215.2571,96,2.5,Viola,0.5,0.15,62,1.0
344.625,344.625,215.2571,96,2.5,Oboe 2,0.5,0.15,66,1.0
344.625,344.625,215.2571,96,2.5,Oboe 1,0.5,0.15,78,1.0
344.625,344.625,215.2571,96,2.5,Flute 2,0.5,0.15,78,1.0
345.125,345.125,215.4071,96,3.0,Oboe 1,0.5,0.15,79,1.0
345.125,345.125,215.4071,96,3.0,Flute 2,0.5,0.15,79,1.0
345.125,345.125,215.4071,96,3.0,Timpani,2.0,0.6,45,1.0
345.125,345.125,215.4071,96,3.0,Flute 1,0.5,0.15,91,1.0
345.125,345.125,215.4071,96,3.0,Oboe 2,0.5,0.15,67,1.0
345.125,345.125,215.4071,96,3.0,Viola,0.5,0.15,64,1.0
345.125,345.125,215.4071,96,3.0,Violin 1,0.5,0.15,79,1.0
345.125,345.125,215.4071,96,3.0,Contrabass,0.5,0.15,40,1.0
345.125,345.125,215.4071,96,3.0,Violoncello,0.5,0.15,52,1.0
345.625,345.625,215.5571,96,3.5,Viola,0.5,0.15,64,1.0
345.625,345.625,215.5571,96,3.5,Oboe 2,0.5,0.15,67,1.0
345.625,345.625,215.5571,96,3.5,Violin 2,1.0,0.3,81,0.7087
345.625,345.625,215.5571,96,3.5,Oboe 1,0.5,0.15,79,1.0
345.625,345.625,215.5571,96,3.5,Violin 2,1.0,0.3,69,0.7087
345.625,345.625,215.5571,96,3.5,Flute 1,0.5,0.15,91,1.0
345.625,345.625,215.5571,96,3.5,Flute 2,0.5,0.15,79,1.0
345.625,345.625,215.5571,96,3.5,Violin 1,0.5,0.15,79,1.0
345.625,345.625,215.5571,96,3.5,Contrabass,0.5,0.15,40,1.0
345.625,345.625,215.5571,96,3.5,Violoncello,0.5,0.15,52,1.0
346.125,346.125,215.7071,96,4.0,Contrabass,0.5,0.15,38,1.0
346.125,346.125,215.7071,96,4.0,Violin 1,0.5,0.15,78,1.0
346.125,346.125,215.7071,96,4.0,Violoncello,0.5,0.15,50,1.0
346.125,346.125,215.7071,96,4.0,Flute 1,0.5,0.15,90,1.0
346.125,346.125,215.7071,96,4.0,Oboe 2,0.5,0.15,66,1.0
346.125,346.125,215.7071,96,4.0,Viola,0.5,0.15,62,1.0
346.125,346.125,215.7071,96,4.0,Flute 2,0.5,0.15,78,1.0
346.125,346.125,215.7071,96,4.0,Oboe 1,0.5,0.15,78,1.0
346.625,346.625,215.8571,96,4.5,Violoncello,0.5,0.15,49,1.0
346.625,346.625,215.8571,96,4.5,Flute 1,0.5,0.15,89,1.0
346.625,346.625,215.8571,96,4.5,Violin 2,0.5,0.15,81,0.7087
346.625,346.625,215.8571,96,4.5,Violin 2,0.5,0.15,69,0.7087
346.625,346.625,215.8571,96,4.5,Contrabass,0.5,0.15,37,1.0
346.625,346.625,215.8571,96,4.5,Oboe 1,0.5,0.15,77,1.0
346.625,346.625,215.8571,96,4.5,Flute 2,0.5,0.15,77,1.0
346.625,346.625,215.8571,96,4.5,Oboe 2,0.5,0.15,65,1.0
346.625,346.625,215.8571,96,4.5,Violin 1,0.5,0.15,77,1.0
346.625,346.625,215.8571,96,4.5,Viola,0.5,0.15,61,1.0
347.125,347.125,216.0071,97,1.0,Flute 2,1.0,0.3,78,1.0
347.125,347.125,216.0071,97,1.0,A Clarinet 2,1.0,0.3,69,1.0
347.125,347.125,216.0071,97,1.0,Oboe 1,1.0,0.3,78,1.0
347.125,347.125,216.0071,97,1.0,D Horn 1,1.0,0.3,69,1.0
347.125,347.125,216.0071,97,1.0,A Clarinet 1,1.0,0.3,81,1.0
347.125,347.125,216.0071,97,1.0,Flute 1,1.0,0.3,90,1.0
347.125,347.125,216.0071,97,1.0,Viola,1.0,0.3,62,1.0
347.125,347.125,216.0071,97,1.0,D Trumpet 2,1.0,0.3,57,1.0
347.125,347.125,216.0071,97,1.0,D Trumpet 1,1.0,0.3,69,1.0
347.125,347.125,216.0071,97,1.0,D Horn 2,1.0,0.3,57,1.0
347.125,347.125,216.0071,97,1.0,Timpani,1.0,0.3,50,1.0
347.125,347.125,216.0071,97,1.0,Contrabass,1.0,0.3,38,1.0
347.125,347.125,216.0071,97,1.0,Violin 1,1.0,0.3,62,0.7087
347.125,347.125,216.0071,97,1.0,Oboe 2,1.0,0.3,66,1.0
347.125,347.125,216.0071,97,1.0,Violin 2,1.0,0.3,69,0.7087
347.125,347.125,216.0071,97,1.0,Violin 2,1.0,0.3,81,0.7087
347.125,347.125,216.0071,97,1.0,Violoncello,1.0,0.3,50,1.0
347.125,347.125,216.0071,97,1.0,Violin 1,1.0,0.3,78,0.7087
347.125,347.125,216.0071,97,1.0,Violin 1,1.0,0.3,69,0.7087
348.875,348.875,216.5321,97,2.75,D Trumpet 1,0.25,0.075,74,1.0
348.875,348.875,216.5321,97,2.75,D Horn 2,0.25,0.075,62,1.0
348.875,348.875,216.5321,97,2.75,Bassoon 2,0.25,0.075,50,1.0
348.875,348.875,216.5321,97,2.75,A Clarinet 1,0.25,0.075,74,1.0
348.875,348.875,216.5321,97,2.75,D Trumpet 2,0.25,0.075,62,1.0
348.875,348.875,216.5321,97,2.75,D Horn 1,0.25,0.075,66,1.0
348.875,348.875,216.5321,97,2.75,A Clarinet 2,0.25,0.075,66,1.0
348.875,348.875,216.5321,97,2.75,Bassoon 1,0.25,0.075,62,1.0
348.875,348.875,216.5321,97,2.75,Flute 2,0.25,0.075,86,1.0
348.875,348.875,216.5321,97,2.75,Timpani,0.25,0.075,50,1.0
348.875,348.875,216.5321,97,2.75,Oboe 1,0.25,0.075,86,1.0
348.875,348.875,216.5321,97,2.75,Oboe 2,0.25,0.075,78,1.0
348.875,348.875,216.5321,97,2.75,Flute 1,0.25,0.075,90,1.0
349.125,349.125,216.6071,97,3.0,Timpani,1.0,0.3,50,1.0
349.125,349.125,216.6071,97,3.0,D Horn 2,2.0,0.6,62,1.0
349.125,349.125,216.6071,97,3.0,D Horn 1,2.0,0.6,66,1.0
349.125,349.125,216.6071,97,3.0,Flute 2,2.0,0.6,86,1.0
349.125,349.125,216.6071,97,3.0,Oboe 2,2.0,0.6,78,1.0
349.125,349.125,216.6071,97,3.0,D Trumpet 2,2.0,0.6,62,1.0
349.125,349.125,216.6071,97,3.0,A Clarinet 1,2.0,0.6,74,1.0
349.125,349.125,216.6071,97,3.0,Bassoon 1,2.0,0.6,62,1.0
349.125,349.125,216.6071,97,3.0,Oboe 1,2.0,0.6,86,1.0
349.125,349.125,216.6071,97,3.0,A Clarinet 2,2.0,0.6,66,1.0
349.125,349.125,216.6071,97,3.0,Bassoon 2,2.0,0.6,50,1.0
349.125,349.125,216.6071,97,3.0,Flute 1,2.0,0.6,90,1.0
349.125,349.125,216.6071,97,3.0,D Trumpet 1,2.0,0.6,74,1.0
351.125,351.125,217.2071,98,1.0,Violin 1,1.0,0.3,62,0.7087
351.125,351.125,217.2071,98,1.0,Violin 1,1.0,0.3,74,0.7087
351.125,351.125,217.2071,98,1.0,Violin 1,1.0,0.3,86,0.7087
351.125,351.125,217.2071,98,1.0,Violin 2,1.0,0.3,83,0.7087
351.125,351.125,217.2071,98,1.0,Violin 2,1.0,0.3,74,0.7087
351.125,351.125,217.2071,98,1.0,Violin 2,1.0,0.3,66,0.7087
351.125,351.125,217.2071,98,1.0,Violoncello,1.0,0.3,59,1.0
351.125,351.125,217.2071,98,1.0,Contrabass,1.0,0.3,47,1.0
351.125,351.125,217.2071,98,1.0,Viola,1.0,0.3,71,1.0
352.875,352.875,217.7321,98,2.75,D Horn 2,0.25,0.075,62,1.0
352.875,352.875,217.7321,98,2.75,Timpani,0.25,0.075,50,1.0
352.875,352.875,217.7321,98,2.75,D Trumpet 1,0.25,0.075,74,1.0
352.875,352.875,217.7321,98,2.75,Flute 2,0.25,0.075,86,1.0
352.875,352.875,217.7321,98,2.75,A Clarinet 1,0.25,0.075,74,1.0
352.875,352.875,217.7321,98,2.75,A Clarinet 2,0.25,0.075,66,1.0
352.875,352.875,217.7321,98,2.75,D Horn 1,0.25,0.075,66,1.0
352.875,352.875,217.7321,98,2.75,Oboe 1,0.25,0.075,86,1.0
352.875,352.875,217.7321,98,2.75,Bassoon 1,0.25,0.075,59,1.0
352.875,352.875,217.7321,98,2.75,Oboe 2,0.25,0.075,78,1.0
352.875,352.875,217.7321,98,2.75,D Trumpet 2,0.25,0.075,62,1.0
352.875,352.875,217.7321,98,2.75,Bassoon 2,0.25,0.075,47,1.0
352.875,352.875,217.7321,98,2.75,Flute 1,0.25,0.075,90,1.0
353.125,353.125,217.8071,98,3.0,Oboe 2,2.0,0.6,78,1.0
353.125,353.125,217.8071,98,3.0,A Clarinet 2,2.0,0.6,66,1.0
353.125,353.125,217.8071,98,3.0,D Trumpet 2,2.0,0.6,62,1.0
353.125,353.125,217.8071,98,3.0,D Trumpet 1,2.0,0.6,74,1.0
353.125,353.125,217.8071,98,3.0,Timpani,1.0,0.3,50,1.0
353.125,353.125,217.8071,98,3.0,Bassoon 2,2.0,0.6,47,1.0
353.125,353.125,217.8071,98,3.0,D Horn 1,2.0,0.6,66,1.0
353.125,353.125,217.8071,98,3.0,Flute 1,2.0,0.6,90,1.0
353.125,353.125,217.8071,98,3.0,D Horn 2,2.0,0.6,62,1.0
353.125,353.125,217.8071,98,3.0,Oboe 1,2.0,0.6,86,1.0
353.125,353.125,217.8071,98,3.0,Flute 2,2.0,0.6,86,1.0
353.125,353.125,217.8071,98,3.0,Bassoon 1,2.0,0.6,59,1.0
353.125,353.125,217.8071,98,3.0,A Clarinet 1,2.0,0.6,74,1.0
355.125,355.125,218.4071,99,1.0,Violin 2,1.0,0.3,64,0.7087
355.125,355.125,218.4071,99,1.0,Contrabass,1.0,0.3,44,1.0
355.125,355.125,218.4071,99,1.0,Violin 2,1.0,0.3,74,0.7087
355.125,355.125,218.4071,99,1.0,Violin 1,1.0,0.3,76,0.7087
355.125,355.125,218.4071,99,1.0,Violin 1,1.0,0.3,86,0.7087
355.125,355.125,218.4071,99,1.0,Violoncello,1.0,0.3,56,1.0
355.125,355.125,218.4071,99,1.0,Viola,1.0,0.3,68,1.0
355.125,355.125,218.4071,99,1.0,Violin 2,1.0,0.3,83,0.7087
356.125,356.125,218.7071,99,2.0,A Clarinet 1,1.0,0.3,74,1.0
356.125,356.125,218.7071,99,2.0,Flute 2,1.0,0.3,86,1.0
356.125,356.125,218.7071,99,2.0,Bassoon 2,1.0,0.3,44,1.0
356.125,356.125,218.7071,99,2.0,Bassoon 1,1.0,0.3,56,1.0
356.125,356.125,218.7071,99,2.0,A Clarinet 2,1.0,0.3,71,1.0
356.125,356.125,218.7071,99,2.0,D Horn 1,1.0,0.3,64,1.0
356.125,356.125,218.7071,99,2.0,Flute 1,1.0,0.3,88,1.0
356.125,356.125,218.7071,99,2.0,D Horn 2,1.0,0.3,64,1.0
356.125,356.125,218.7071,99,2.0,Oboe 1,1.0,0.3,86,1.0
356.125,356.125,218.7071,99,2.0,Oboe 2,1.0,0.3,76,1.0
357.125,357.125,219.0071,99,3.0,Violoncello,1.0,0.3,57,1.0
357.125,357.125,219.0071,99,3.0,Viola,1.0,0.3,69,1.0
357.125,357.125,219.0071,99,3.0,Violin 2,1.0,0.3,64,0.7087
357.125,357.125,219.0071,99,3.0,Violin 2,1.0,0.3,73,0.7087
357.125,357.125,219.0071,99,3.0,Contrabass,1.0,0.3,45,1.0
357.125,357.125,219.0071,99,3.0,Violin 2,1.0,0.3,81,0.7087
357.125,357.125,219.0071,99,3.0,Violin 1,1.0,0.3,76,0.7087
357.125,357.125,219.0071,99,3.0,Violin 1,1.0,0.3,85,0.7087
358.125,358.125,219.3071,99,4.0,D Horn 2,1.0,0.3,64,1.0
358.125,358.125,219.3071,99,4.0,D Horn 1,1.0,0.3,64,1.0
358.125,358.125,219.3071,99,4.0,Flute 1,1.0,0.3,88,1.0
358.125,358.125,219.3071,99,4.0,A Clarinet 2,1.0,0.3,69,1.0
358.125,358.125,219.3071,99,4.0,Flute 2,1.0,0.3,85,1.0
358.125,358.125,219.3071,99,4.0,A Clarinet 1,1.0,0.3,73,1.0
358.125,358.125,219.3071,99,4.0,Oboe 2,1.0,0.3,76,1.0
358.125,358.125,219.3071,99,4.0,Bassoon 2,1.0,0.3,45,1.0
358.125,358.125,219.3071,99,4.0,Bassoon 1,1.0,0.3,57,1.0
358.125,358.125,219.3071,99,4.0,Oboe 1,1.0,0.3,85,1.0
359.125,359.125,219.6071,100,1.0,Contrabass,1.0,0.3,38,1.0
359.125,359.125,219.6071,100,1.0,Violin 1,1.0,0.3,78,0.7087
359.125,359.125,219.6071,100,1.0,Violin 1,1.0,0.3,86,0.7087
359.125,359.125,219.6071,100,1.0,Viola,1.0,0.3,62,1.0
359.125,359.125,219.6071,100,1.0,Violin 2,1.0,0.3,83,0.7087
359.125,359.125,219.6071,100,1.0,Violin 2,1.0,0.3,74,0.7087
359.125,359.125,219.6071,100,1.0,Violin 2,1.0,0.3,66,0.7087
359.125,359.125,219.6071,100,1.0,Violin 1,1.0,0.3,62,0.7087
359.125,359.125,219.6071,100,1.0,Violoncello,1.0,0.3,50,1.0
360.125,360.125,219.9071,100,2.0,D Horn 1,1.0,0.3,62,1.0
360.125,360.125,219.9071,100,2.0,Flute 2,1.0,0.3,83,1.0
360.125,360.125,219.9071,100,2.0,Oboe 1,1.0,0.3,83,1.0
360.125,360.125,219.9071,100,2.0,Bassoon 1,1.0,0.3,62,1.0
360.125,360.125,219.9071,100,2.0,Flute 1,1.0,0.3,86,1.0
360.125,360.125,219.9071,100,2.0,Oboe 2,1.0,0.3,74,1.0
360.125,360.125,219.9071,100,2.0,A Clarinet 1,1.0,0.3,78,1.0
360.125,360.125,219.9071,100,2.0,D Horn 2,1.0,0.3,62,1.0
360.125,360.125,219.9071,100,2.0,A Clarinet 2,1.0,0.3,74,1.0
360.125,360.125,219.9071,100,2.0,Bassoon 2,1.0,0.3,50,1.0
361.125,361.125,220.2071,100,3.0,Violin 1,1.0,0.3,83,0.7087
361.125,361.125,220.2071,100,3.0,Violin 2,1.0,0.3,80,0.7087
361.125,361.125,220.2071,100,3.0,Violin 2,1.0,0.3,71,0.7087
361.125,361.125,220.2071,100,3.0,Violin 2,1.0,0.3,64,0.7087
361.125,361.125,220.2071,100,3.0,Violin 1,1.0,0.3,64,0.7087
361.125,361.125,220.2071,100,3.0,Violin 1,1.0,0.3,74,0.7087
361.125,361.125,220.2071,100,3.0,Contrabass,1.0,0.3,40,1.0
361.125,361.125,220.2071,100,3.0,Violoncello,1.0,0.3,52,1.0
361.125,361.125,220.2071,100,3.0,Viola,1.0,0.3,64,1.0
362.125,362.125,220.5071,100,4.0,Oboe 1,1.0,0.3,80,1.0
362.125,362.125,220.5071,100,4.0,Bassoon 2,1.0,0.3,52,1.0
362.125,362.125,220.5071,100,4.0,Flute 2,1.0,0.3,80,1.0
362.125,362.125,220.5071,100,4.0,Bassoon 1,1.0,0.3,64,1.0
362.125,362.125,220.5071,100,4.0,D Horn 1,1.0,0.3,64,1.0
362.125,362.125,220.5071,100,4.0,Flute 1,1.0,0.3,83,1.0
362.125,362.125,220.5071,100,4.0,D Horn 2,1.0,0.3,64,1.0
362.125,362.125,220.5071,100,4.0,A Clarinet 2,1.0,0.3,71,1.0
362.125,362.125,220.5071,100,4.0,Oboe 2,1.0,0.3,71,1.0
362.125,362.125,220.5071,100,4.0,A Clarinet 1,1.0,0.3,74,1.0
363.125,363.125,220.8071,101,1.0,Contrabass,1.0,0.3,42,1.0
363.125,363.125,220.8071,101,1.0,Violin 2,1.0,0.3,81,0.7087
363.125,363.125,220.8071,101,1.0,Violin 1,1.0,0.3,66,0.7087
363.125,363.125,220.8071,101,1.0,Violin 1,1.0,0.3,81,0.7087
363.125,363.125,220.8071,101,1.0,Violin 1,1.0,0.3,74,0.7087
363.125,363.125,220.8071,101,1.0,Violin 2,1.0,0.3,74,0.7087
363.125,363.125,220.8071,101,1.0,Violoncello,1.0,0.3,54,1.0
363.125,363.125,220.8071,101,1.0,Viola,1.0,0.3,66,1.0
363.125,363.125,220.8071,101,1.0,Violin 2,1.0,0.3,66,0.7087
364.875,364.875,221.3321,101,2.75,D Horn 1,0.25,0.075,62,1.0
364.875,364.875,221.3321,101,2.75,D Horn 2,0.25,0.075,50,1.0
364.875,364.875,221.3321,101,2.75,Bassoon 2,0.25,0.075,54,1.0
364.875,364.875,221.3321,101,2.75,Oboe 2,0.25,0.075,74,1.0
364.875,364.875,221.3321,101,2.75,D Trumpet 2,0.25,0.075,62,1.0
364.875,364.875,221.3321,101,2.75,Flute 1,0.25,0.075,86,1.0
364.875,364.875,221.3321,101,2.75,Bassoon 1,0.25,0.075,57,1.0
364.875,364.875,221.3321,101,2.75,D Trumpet 1,0.25,0.075,74,1.0
364.875,364.875,221.3321,101,2.75,Oboe 1,0.25,0.075,81,1.0
364.875,364.875,221.3321,101,2.75,A Clarinet 2,0.25,0.075,69,1.0
364.875,364.875,221.3321,101,2.75,Flute 2,0.25,0.075,86,1.0
364.875,364.875,221.3321,101,2.75,A Clarinet 1,0.25,0.075,74,1.0
364.875,364.875,221.3321,101,2.75,Timpani,0.25,0.075,50,1.0
365.125,365.125,221.4071,101,3.0,Timpani,1.0,0.3,50,1.0
365.125,365.125,221.4071,101,3.0,D Horn 1,2.0,0.6,62,1.0
365.125,365.125,221.4071,101,3.0,Flute 2,2.0,0.6,86,1.0
365.125,365.125,221.4071,101,3.0,Bassoon 2,2.0,0.6,54,1.0
365.125,365.125,221.4071,101,3.0,Oboe 2,2.0,0.6,74,1.0
365.125,365.125,221.4071,101,3.0,Flute 1,2.0,0.6,86,1.0
365.125,365.125,221.4071,101,3.0,D Horn 2,2.0,0.6,50,1.0
365.125,365.125,221.4071,101,3.0,Bassoon 1,2.0,0.6,57,1.0
365.125,365.125,221.4071,101,3.0,Oboe 1,2.0,0.6,81,1.0
365.125,365.125,221.4071,101,3.0,A Clarinet 1,2.0,0.6,74,1.0
365.125,365.125,221.4071,101,3.0,A Clarinet 2,2.0,0.6,69,1.0
365.125,365.125,221.4071,101,3.0,D Trumpet 2,2.0,0.6,62,1.0
365.125,365.125,221.4071,101,3.0,D Trumpet 1,2.0,0.6,74,1.0
367.125,367.125,222.0071,102,1.0,Violin 2,1.0,0.3,65,0.7087
367.125,367.125,222.0071,102,1.0,Violin 2,1.0,0.3,74,0.7087
367.125,367.125,222.0071,102,1.0,Violin 2,1.0,0.3,83,0.7087
367.125,367.125,222.0071,102,1.0,Violin 1,1.0,0.3,86,0.7087
367.125,367.125,222.0071,102,1.0,Violin 1,1.0,0.3,74,0.7087
367.125,367.125,222.0071,102,1.0,Violin 1,1.0,0.3,62,0.7087
367.125,367.125,222.0071,102,1.0,Contrabass,1.0,0.3,44,1.0
367.125,367.125,222.0071,102,1.0,Violoncello,1.0,0.3,56,1.0
367.125,367.125,222.0071,102,1.0,Viola,1.0,0.3,68,1.0
368.875,368.875,222.5321,102,2.75,Bassoon 1,0.25,0.075,59,1.0
368.875,368.875,222.5321,102,2.75,D Trumpet 1,0.25,0.075,74,1.0
368.875,368.875,222.5321,102,2.75,D Horn 1,0.25,0.075,62,1.0
368.875,368.875,222.5321,102,2.75,Flute 2,0.25,0.075,86,1.0
368.875,368.875,222.5321,102,2.75,Timpani,0.25,0.075,50,1.0
368.875,368.875,222.5321,102,2.75,Oboe 1,0.25,0.075,77,1.0
368.875,368.875,222.5321,102,2.75,Oboe 2,0.25,0.075,74,1.0
368.875,368.875,222.5321,102,2.75,Bassoon 2,0.25,0.075,56,1.0
368.875,368.875,222.5321,102,2.75,A Clarinet 1,0.25,0.075,74,1.0
368.875,368.875,222.5321,102,2.75,D Trumpet 2,0.25,0.075,62,1.0
368.875,368.875,222.5321,102,2.75,A Clarinet 2,0.25,0.075,71,1.0
368.875,368.875,222.5321,102,2.75,D Horn 2,0.25,0.075,50,1.0
368.875,368.875,222.5321,102,2.75,Flute 1,0.25,0.075,89,1.0
369.125,369.125,222.6071,102,3.0,Timpani,1.0,0.3,50,1.0
369.125,369.125,222.6071,102,3.0,D Horn 1,2.0,0.6,62,1.0
369.125,369.125,222.6071,102,3.0,D Horn 2,2.0,0.6,50,1.0
369.125,369.125,222.6071,102,3.0,Flute 2,2.0,0.6,86,1.0
369.125,369.125,222.6071,102,3.0,Bassoon 1,2.0,0.6,59,1.0
369.125,369.125,222.6071,102,3.0,A Clarinet 1,2.0,0.6,74,1.0
369.125,369.125,222.6071,102,3.0,D Trumpet 1,2.0,0.6,74,1.0
369.125,369.125,222.6071,102,3.0,Oboe 1,2.0,0.6,77,1.0
369.125,369.125,222.6071,102,3.0,A Clarinet 2,2.0,0.6,71,1.0
369.125,369.125,222.6071,102,3.0,Oboe 2,2.0,0.6,74,1.0
369.125,369.125,222.6071,102,3.0,D Trumpet 2,2.0,0.6,62,1.0
369.125,369.125,222.6071,102,3.0,Bassoon 2,2.0,0.6,56,1.0
369.125,369.125,222.6071,102,3.0,Flute 1,2.0,0.6,89,1.0
374.125,374.125,224.1071,103,4.0,Contrabass,0.25,0.075,35,0.3543
374.125,374.125,224.1071,103,4.0,Violin 1,0.25,0.075,59,0.3543
374.125,374.125,224.1071,103,4.0,Violoncello,0.25,0.075,47,0.3543
374.125,374.125,224.1071,103,4.0,Viola,0.25,0.075,59,0.3543
374.125,374.125,224.1071,103,4.0,Violin 2,0.25,0.075,59,0.3543
374.375,374.375,224.1821,103,4.25,Violin 2,0.25,0.075,58,0.3543
374.375,374.375,224.1821,103,4.25,Violoncello,0.25,0.075,46,0.3543
374.375,374.375,224.1821,103,4.25,Viola,0.25,0.075,58,0.3543
374.375,374.375,224.1821,103,4.25,Violin 1,0.25,0.075,58,0.3543
374.375,374.375,224.1821,103,4.25,Contrabass,0.25,0.075,34,0.3543
374.625,374.625,224.2571,103,4.5,Violin 2,0.25,0.075,59,0.3543
374.625,374.625,224.2571,103,4.5,Viola,0.25,0.075,59,0.3543
374.625,374.625,224.2571,103,4.5,Contrabass,0.25,0.075,35,0.3543
374.625,374.625,224.2571,103,4.5,Violoncello,0.25,0.075,47,0.3543
374.625,374.625,224.2571,103,4.5,Violin 1,0.25,0.075,59,0.3543
374.875,374.875,224.3321,103,4.75,Violin 2,0.25,0.075,60,0.3543
374.875,374.875,224.3321,103,4.75,Viola,0.25,0.075,60,0.3543
374.875,374.875,224.3321,103,4.75,Violoncello,0.25,0.075,48,0.3543
374.875,374.875,224.3321,103,4.75,Contrabass,0.25,0.075,36,0.3543
374.875,374.875,224.3321,103,4.75,Violin 1,0.25,0.075,60,0.3543
375.125,375.125,224.4071,104,1.0,Violoncello,1.0,0.3,50,0.4043
375.125,375.125,224.4071,104,1.0,Viola,1.0,0.3,62,0.4043
375.125,375.125,224.4071,104,1.0,Contrabass,1.0,0.3,38,0.4043
375.125,375.125,224.4071,104,1.0,Violin 1,1.0,0.3,62,0.4043
375.125,375.125,224.4071,104,1.0,Violin 2,1.0,0.3,62,0.4043
378.125,378.125,225.3071,104,4.0,Violin 2,0.25,0.075,60,0.3543
378.125,378.125,225.3071,104,4.0,Contrabass,0.25,0.075,36,0.3543
378.125,378.125,225.3071,104,4.0,Violin 1,0.25,0.075,60,0.3543
378.125,378.125,225.3071,104,4.0,Violoncello,0.25,0.075,48,0.3543
378.125,378.125,225.3071,104,4.0,Viola,0.25,0.075,60,0.3543
378.375,378.375,225.3821,104,4.25,Viola,0.25,0.075,59,0.3543
378.375,378.375,225.3821,104,4.25,Violin 2,0.25,0.075,59,0.3543
378.375,378.375,225.3821,104,4.25,Contrabass,0.25,0.075,35,0.3543
378.375,378.375,225.3821,104,4.25,Violin 1,0.25,0.075,59,0.3543
378.375,378.375,225.3821,104,4.25,Violoncello,0.25,0.075,47,0.3543
378.625,378.625,225.4571,104,4.5,Violin 1,0.25,0.075,60,0.3543
378.625,378.625,225.4571,104,4.5,Viola,0.25,0.075,60,0.3543
378.625,378.625,225.4571,104,4.5,Violin 2,0.25,0.075,60,0.3543
378.625,378.625,225.4571,104,4.5,Violoncello,0.25,0.075,48,0.3543
378.625,378.625,225.4571,104,4.5,Contrabass,0.25,0.075,36,0.3543
378.875,378.875,225.5321,104,4.75,Violin 2,0.25,0.075,62,0.3543
378.875,378.875,225.5321,104,4.75,Violin 1,0.25,0.075,62,0.3543
378.875,378.875,225.5321,104,4.75,Contrabass,0.25,0.075,38,0.3543
378.875,378.875,225.5321,104,4.75,Viola,0.25,0.075,62,0.3543
378.875,378.875,225.5321,104,4.75,Violoncello,0.25,0.075,50,0.3543
379.125,379.125,225.6071,105,1.0,Viola,1.0,0.3,64,0.4043
379.125,379.125,225.6071,105,1.0,Violin 1,1.0,0.3,64,0.4043
379.125,379.125,225.6071,105,1.0,Violoncello,1.0,0.3,52,0.4043
379.125,379.125,225.6071,105,1.0,Violin 2,1.0,0.3,64,0.4043
379.125,379.125,225.6071,105,1.0,Contrabass,1.0,0.3,40,0.4043
382.125,382.125,226.5071,105,4.0,Violoncello,0.25,0.075,50,0.3543
382.125,382.125,226.5071,105,4.0,Violin 1,0.25,0.075,62,0.3543
382.125,382.125,226.5071,105,4.0,Viola,0.25,0.075,50,0.3543
382.125,382.125,226.5071,105,4.0,Contrabass,0.25,0.075,38,0.3543
382.125,382.125,226.5071,105,4.0,Violin 2,0.25,0.075,62,0.3543
382.375,382.375,226.5821,105,4.25,Violin 1,0.25,0.075,61,0.3543
382.375,382.375,226.5821,105,4.25,Contrabass,0.25,0.075,37,0.3543
382.375,382.375,226.5821,105,4.25,Viola,0.25,0.075,49,0.3543
382.375,382.375,226.5821,105,4.25,Violoncello,0.25,0.075,49,0.3543
382.375,382.375,226.5821,105,4.25,Violin 2,0.25,0.075,61,0.3543
382.625,382.625,226.6571,105,4.5,Viola,0.25,0.075,50,0.3543
382.625,382.625,226.6571,105,4.5,Violin 2,0.25,0.075,62,0.3543
382.625,382.625,226.6571,105,4.5,Violoncello,0.25,0.075,50,0.3543
382.625,382.625,226.6571,105,4.5,Contrabass,0.25,0.075,38,0.3543
382.625,382.625,226.6571,105,4.5,Violin 1,0.25,0.075,62,0.3543
382.875,382.875,226.7321,105,4.75,Violoncello,0.25,0.075,52,0.3543
382.875,382.875,226.7321,105,4.75,Contrabass,0.25,0.075,40,0.3543
382.875,382.875,226.7321,105,4.75,Violin 1,0.25,0.075,64,0.3543
382.875,382.875,226.7321,105,4.75,Violin 2,0.25,0.075,64,0.3543
382.875,382.875,226.7321,105,4.75,Viola,0.25,0.075,52,0.3543
383.125,383.125,226.8071,106,1.0,Violoncello,1.0,0.3,53,0.4043
383.125,383.125,226.8071,106,1.0,Contrabass,1.0,0.3,41,0.4043
383.125,383.125,226.8071,106,1.0,Violin 1,1.0,0.3,65,0.4043
383.125,383.125,226.8071,106,1.0,Viola,1.0,0.3,53,0.4043
383.125,383.125,226.8071,106,1.0,Violin 2,1.0,0.3,65,0.4043
384.125,384.125,227.1071,106,2.0,Violin 2,0.25,0.075,64,0.3543
384.125,384.125,227.1071,106,2.0,Violoncello,0.25,0.075,52,0.3543
384.125,384.125,227.1071,106,2.0,Violin 1,0.25,0.075,64,0.3543
384.125,384.125,227.1071,106,2.0,Viola,0.25,0.075,52,0.3543
384.125,384.125,227.1071,106,2.0,Contrabass,0.25,0.075,40,0.3543
384.375,384.375,227.1821,106,2.25,Violin 2,0.25,0.075,62,0.3543
384.375,384.375,227.1821,106,2.25,Violoncello,0.25,0.075,50,0.3543
384.375,384.375,227.1821,106,2.25,Contrabass,0.25,0.075,38,0.3543
384.375,384.375,227.1821,106,2.25,Viola,0.25,0.075,50,0.3543
384.375,384.375,227.1821,106,2.25,Violin 1,0.25,0.075,62,0.3543
384.625,384.625,227.2571,106,2.5,Contrabass,0.25,0.075,40,0.3543
384.625,384.625,227.2571,106,2.5,Viola,0.25,0.075,52,0.3543
384.625,384.625,227.2571,106,2.5,Violin 2,0.25,0.075,64,0.3543
384.625,384.625,227.2571,106,2.5,Violin 1,0.25,0.075,64,0.3543
384.625,384.625,227.2571,106,2.5,Violoncello,0.25,0.075,52,0.3543
384.875,384.875,227.3321,106,2.75,Viola,0.25,0.075,53,0.3543
384.875,384.875,227.3321,106,2.75,Violin 1,0.25,0.075,65,0.3543
384.875,384.875,227.3321,106,2.75,Violoncello,0.25,0.075,53,0.3543
384.875,384.875,227.3321,106,2.75,Violin 2,0.25,0.075,65,0.3543
384.875,384.875,227.3321,106,2.75,Contrabass,0.25,0.075,41,0.3543
385.125,385.125,227.4071,106,3.0,Violoncello,1.0,0.3,55,0.4043
385.125,385.125,227.4071,106,3.0,Viola,1.0,0.3,55,0.4043
385.125,385.125,227.4071,106,3.0,Violin 2,1.0,0.3,67,0.4043
385.125,385.125,227.4071,106,3.0,Violin 1,1.0,0.3,67,0.4043
385.125,385.125,227.4071,106,3.0,Contrabass,1.0,0.3,43,0.4043
386.125,386.125,227.7071,106,4.0,Violin 1,0.25,0.075,65,0.3543
386.125,386.125,227.7071,106,4.0,Violin 2,0.25,0.075,65,0.3543
386.125,386.125,227.7071,106,4.0,Viola,0.25,0.075,53,0.3543
386.125,386.125,227.7071,106,4.0,Violoncello,0.25,0.075,53,0.3543
386.125,386.125,227.7071,106,4.0,Contrabass,0.25,0.075,41,0.3543
386.375,386.375,227.7821,106,4.25,Violin 1,0.25,0.075,64,0.3543
386.375,386.375,227.7821,106,4.25,Viola,0.25,0.075,52,0.3543
386.375,386.375,227.7821,106,4.25,Contrabass,0.25,0.075,40,0.3543
386.375,386.375,227.7821,106,4.25,Violoncello,0.25,0.075,52,0.3543
386.375,386.375,227.7821,106,4.25,Violin 2,0.25,0.075,64,0.3543
386.625,386.625,227.8571,106,4.5,Violin 1,0.25,0.075,65,0.3543
386.625,386.625,227.8571,106,4.5,Violoncello,0.25,0.075,53,0.3543
386.625,386.625,227.8571,106,4.5,Viola,0.25,0.075,53,0.3543
386.625,386.625,227.8571,106,4.5,Violin 2,0.25,0.075,65,0.3543
386.625,386.625,227.8571,106,4.5,Contrabass,0.25,0.075,41,0.3543
386.875,386.875,227.9321,106,4.75,Viola,0.25,0.075,55,0.3543
386.875,386.875,227.9321,106,4.75,Violin 2,0.25,0.075,67,0.3543
386.875,386.875,227.9321,106,4.75,Contrabass,0.25,0.075,43,0.3543
386.875,386.875,227.9321,106,4.75,Violin 1,0.25,0.075,67,0.3543
386.875,386.875,227.9321,106,4.75,Violoncello,0.25,0.075,55,0.3543
387.125,387.125,228.0071,107,1.0,Viola,1.0,0.3,57,0.4043
387.125,387.125,228.0071,107,1.0,Contrabass,1.0,0.3,45,0.4043
387.125,387.125,228.0071,107,1.0,Violin 1,1.0,0.3,69,0.4043
387.125,387.125,228.0071,107,1.0,Violin 2,1.0,0.3,69,0.4043
387.125,387.125,228.0071,107,1.0,Violoncello,1.0,0.3,57,0.4043
388.125,388.125,228.3071,107,2.0,Violin 1,0.25,0.075,68,0.3543
388.125,388.125,228.3071,107,2.0,Violin 2,0.25,0.075,68,0.3543
388.125,388.125,228.3071,107,2.0,Contrabass,0.25,0.075,44,0.3543
388.125,388.125,228.3071,107,2.0,Viola,0.25,0.075,56,0.3543
388.125,388.125,228.3071,107,2.0,Violoncello,0.25,0.075,56,0.3543
388.375,388.375,228.3821,107,2.25,Viola,0.25,0.075,54,0.3543
388.375,388.375,228.3821,107,2.25,Violin 2,0.25,0.075,66,0.3543
388.375,388.375,228.3821,107,2.25,Contrabass,0.25,0.075,42,0.3543
388.375,388.375,228.3821,107,2.25,Violin 1,0.25,0.075,66,0.3543
388.375,388.375,228.3821,107,2.25,Violoncello,0.25,0.075,54,0.3543
388.625,388.625,228.4571,107,2.5,Viola,0.25,0.075,56,0.3543
388.625,388.625,228.4571,107,2.5,Contrabass,0.25,0.075,44,0.3543
388.625,388.625,228.4571,107,2.5,Violin 1,0.25,0.075,68,0.3543
388.625,388.625,228.4571,107,2.5,Violoncello,0.25,0.075,56,0.3543
388.625,388.625,228.4571,107,2.5,Violin 2,0.25,0.075,68,0.3543
388.875,388.875,228.5321,107,2.75,Violin 1,0.25,0.075,69,0.3543
388.875,388.875,228.5321,107,2.75,Contrabass,0.25,0.075,45,0.3543
388.875,388.875,228.5321,107,2.75,Violoncello,0.25,0.075,57,0.3543
388.875,388.875,228.5321,107,2.75,Violin 2,0.25,0.075,69,0.3543
388.875,388.875,228.5321,107,2.75,Viola,0.25,0.075,57,0.3543
389.125,389.125,228.6071,107,3.0,Violin 1,1.0,0.3,71,0.4043
389.125,389.125,228.6071,107,3.0,Viola,1.0,0.3,59,0.4043
389.125,389.125,228.6071,107,3.0,Violoncello,1.0,0.3,59,0.4043
389.125,389.125,228.6071,107,3.0,Contrabass,1.0,0.3,47,0.4043
389.125,389.125,228.6071,107,3.0,Violin 2,1.0,0.3,71,0.4043
390.125,390.125,228.9071,107,4.0,Viola,0.25,0.075,57,0.3543
390.125,390.125,228.9071,107,4.0,Violoncello,0.25,0.075,57,0.3543
390.125,390.125,228.9071,107,4.0,Violin 1,0.25,0.075,69,0.3543
390.125,390.125,228.9071,107,4.0,Contrabass,0.25,0.075,45,0.3543
390.125,390.125,228.9071,107,4.0,Violin 2,0.25,0.075,69,0.3543
390.375,390.375,228.9821,107,4.25,Viola,0.25,0.075,56,0.3543
390.375,390.375,228.9821,107,4.25,Contrabass,0.25,0.075,44,0.3543
390.375,390.375,228.9821,107,4.25,Violin 2,0.25,0.075,68,0.3543
390.375,390.375,228.9821,107,4.25,Violin 1,0.25,0.075,68,0.3543
390.375,390.375,228.9821,107,4.25,Violoncello,0.25,0.075,56,0.3543
390.625,390.625,229.0571,107,4.5,Violoncello,0.25,0.075,57,0.3543
390.625,390.625,229.0571,107,4.5,Viola,0.25,0.075,57,0.3543
390.625,390.625,229.0571,107,4.5,Violin 1,0.25,0.075,69,0.3543
390.625,390.625,229.0571,107,4.5,Contrabass,0.25,0.075,45,0.3543
390.625,390.625,229.0571,107,4.5,Violin 2,0.25,0.075,69,0.3543
390.875,390.875,229.1321,107,4.75,Violin 1,0.25,0.075,71,0.3543
390.875,390.875,229.1321,107,4.75,Viola,0.25,0.075,59,0.3543
390.875,390.875,229.1321,107,4.75,Violoncello,0.25,0.075,59,0.3543
390.875,390.875,229.1321,107,4.75,Violin 2,0.25,0.075,71,0.3543
390.875,390.875,229.1321,107,4.75,Contrabass,0.25,0.075,47,0.3543
391.125,391.125,229.2071,108,1.0,Contrabass,1.0,0.3,48,0.4043
391.125,391.125,229.2071,108,1.0,Viola,1.0,0.3,60,0.4043
391.125,391.125,229.2071,108,1.0,Violin 1,1.0,0.3,72,0.4043
391.125,391.125,229.2071,108,1.0,Violoncello,1.0,0.3,60,0.4043
391.125,391.125,229.2071,108,1.0,Violin 2,1.0,0.3,72,0.4043
392.125,392.125,229.5071,108,2.0,Violin 1,0.25,0.075,69,0.3543
392.125,392.125,229.5071,108,2.0,Violin 2,0.25,0.075,69,0.3543
392.125,392.125,229.5071,108,2.0,Contrabass,0.25,0.075,45,0.3543
392.125,392.125,229.5071,108,2.0,Violoncello,0.25,0.075,57,0.3543
392.125,392.125,229.5071,108,2.0,Viola,0.25,0.075,57,0.3543
392.375,392.375,229.5821,108,2.25,Contrabass,0.25,0.075,44,0.3543
392.375,392.375,229.5821,108,2.25,Violoncello,0.25,0.075,56,0.3543
392.375,392.375,229.5821,108,2.25,Violin 2,0.25,0.075,68,0.3543
392.375,392.375,229.5821,108,2.25,Violin 1,0.25,0.075,68,0.3543
392.375,392.375,229.5821,108,2.25,Viola,0.25,0.075,56,0.3543
392.625,392.625,229.6571,108,2.5,Contrabass,0.25,0.075,45,0.3543
392.625,392.625,229.6571,108,2.5,Violin 1,0.25,0.075,69,0.3543
392.625,392.625,229.6571,108,2.5,Violoncello,0.25,0.075,57,0.3543
392.625,392.625,229.6571,108,2.5,Violin 2,0.25,0.075,69,0.3543
392.625,392.625,229.6571,108,2.5,Viola,0.25,0.075,57,0.3543
392.875,392.875,229.7321,108,2.75,Violoncello,0.25,0.075,59,0.3543
392.875,392.875,229.7321,108,2.75,Violin 1,0.25,0.075,71,0.3543
392.875,392.875,229.7321,108,2.75,Violin 2,0.25,0.075,71,0.3543
392.875,392.875,229.7321,108,2.75,Contrabass,0.25,0.075,47,0.3543
392.875,392.875,229.7321,108,2.75,Viola,0.25,0.075,59,0.3543
393.125,393.125,229.8071,108,3.0,Violoncello,1.0,0.3,60,0.4043
393.125,393.125,229.8071,108,3.0,Violin 1,1.0,0.3,72,0.4043
393.125,393.125,229.8071,108,3.0,Violin 2,1.0,0.3,72,0.4043
393.125,393.125,229.8071,108,3.0,Contrabass,1.0,0.3,48,0.4043
393.125,393.125,229.8071,108,3.0,Viola,1.0,0.3,60,0.4043
394.125,394.125,230.1071,108,4.0,Flute 1,0.25,0.075,81,1.0
394.125,394.125,230.1071,108,4.0,Violin 1,0.25,0.075,69,0.3543
394.125,394.125,230.1071,108,4.0,Contrabass,0.25,0.075,45,0.3543
394.125,394.125,230.1071,108,4.0,Violoncello,0.25,0.075,57,0.3543
394.125,394.125,230.1071,108,4.0,Viola,0.25,0.075,57,0.3543
394.125,394.125,230.1071,108,4.0,Violin 2,0.25,0.075,69,0.3543
394.375,394.375,230.1821,108,4.25,Flute 1,0.25,0.075,80,1.0
394.375,394.375,230.1821,108,4.25,Contrabass,0.25,0.075,44,0.3543
394.375,394.375,230.1821,108,4.25,Viola,0.25,0.075,56,0.3543
394.375,394.375,230.1821,108,4.25,Violin 2,0.25,0.075,68,0.3543
394.375,394.375,230.1821,108,4.25,Violoncello,0.25,0.075,56,0.3543
394.375,394.375,230.1821,108,4.25,Violin 1,0.25,0.075,68,0.3543
394.625,394.625,230.2571,108,4.5,Violin 2,0.25,0.075,69,0.3543
394.625,394.625,230.2571,108,4.5,Viola,0.25,0.075,57,0.3543
394.625,394.625,230.2571,108,4.5,Violoncello,0.25,0.075,57,0.3543
394.625,394.625,230.2571,108,4.5,Flute 1,0.25,0.075,81,1.0
394.625,394.625,230.2571,108,4.5,Violin 1,0.25,0.075,69,0.3543
394.625,394.625,230.2571,108,4.5,Contrabass,0.25,0.075,45,0.3543
394.875,394.875,230.3321,108,4.75,Viola,0.25,0.075,59,0.3543
394.875,394.875,230.3321,108,4.75,Violoncello,0.25,0.075,59,0.3543
394.875,394.875,230.3321,108,4.75,Flute 1,0.25,0.075,83,1.0
394.875,394.875,230.3321,108,4.75,Contrabass,0.25,0.075,47,0.3543
394.875,394.875,230.3321,108,4.75,Violin 1,0.25,0.075,71,0.3543
394.875,394.875,230.3321,108,4.75,Violin 2,0.25,0.075,71,0.3543
395.125,395.125,230.4071,109,1.0,Violin 1,4.0,1.2,72,1.0
395.125,395.125,230.4071,109,1.0,Violoncello,4.0,1.2,60,1.0
395.125,395.125,230.4071,109,1.0,Flute 1,4.0,1.2,84,1.0
395.125,395.125,230.4071,109,1.0,Violin 2,4.0,1.2,72,1.0
395.125,395.125,230.4071,109,1.0,Contrabass,4.0,1.2,48,1.0
395.125,395.125,230.4071,109,1.0,Viola,4.0,1.2,60,1.0
399.125,399.125,231.6071,110,1.0,Violin 1,4.0,1.2,63,1.0
399.125,399.125,231.6071,110,1.0,Violin 2,4.0,1.2,63,1.0
399.125,399.125,231.6071,110,1.0,Violoncello,4.0,1.2,51,1.0
399.125,399.125,231.6071,110,1.0,Viola,4.0,1.2,51,1.0
399.125,399.125,231.6071,110,1.0,Contrabass,4.0,1.2,39,1.0
399.125,399.125,231.6071,110,1.0,Flute 1,4.0,1.2,75,1.0
403.125,403.125,232.8071,111,1.0,D Horn 1,4.0,1.2,64,1.0
403.125,403.125,232.8071,111,1.0,A Clarinet 2,4.0,1.2,69,1.0
403.125,403.125,232.8071,111,1.0,D Horn 2,4.0,1.2,64,1.0
403.125,403.125,232.8071,111,1.0,Oboe 1,4.0,1.2,81,1.0
403.125,403.125,232.8071,111,1.0,Oboe 2,4.0,1.2,73,1.0
403.125,403.125,232.8071,111,1.0,Contrabass,0.5,0.15,40,1.0
403.125,403.125,232.8071,111,1.0,D Trumpet 1,1.0,0.3,76,1.0
403.125,403.125,232.8071,111,1.0,Violin 2,0.25,0.075,64,0.7087
403.125,403.125,232.8071,111,1.0,Violin 2,0.25,0.075,73,0.7087
403.125,403.125,232.8071,111,1.0,Bassoon 2,0.5,0.15,52,1.0
403.125,403.125,232.8071,111,1.0,Bassoon 1,0.5,0.15,52,1.0
403.125,403.125,232.8071,111,1.0,Flute 2,4.0,1.2,81,1.0
403.125,403.125,232.8071,111,1.0,Violoncello,0.5,0.15,52,1.0
403.125,403.125,232.8071,111,1.0,D Trumpet 2,1.0,0.3,76,1.0
403.125,403.125,232.8071,111,1.0,Viola,0.25,0.075,52,1.0
403.125,403.125,232.8071,111,1.0,A Clarinet 1,4.0,1.2,73,1.0
403.125,403.125,232.8071,111,1.0,Flute 1,1.0,0.3,76,1.0
403.125,403.125,232.8071,111,1.0,Violin 1,0.25,0.075,64,1.0
403.375,403.375,232.8821,111,1.25,Violin 2,0.25,0.075,64,0.7087
403.375,403.375,232.8821,111,1.25,Viola,0.25,0.075,52,1.0
403.375,403.375,232.8821,111,1.25,Violin 2,0.25,0.075,73,0.7087
403.375,403.375,232.8821,111,1.25,Violin 1,0.25,0.075,64,1.0
403.625,403.625,232.9571,111,1.5,Bassoon 2,0.5,0.15,57,1.0
403.625,403.625,232.9571,111,1.5,Violoncello,0.5,0.15,52,1.0
403.625,403.625,232.9571,111,1.5,Violin 2,0.25,0.075,64,0.7087
403.625,403.625,232.9571,111,1.5,Bassoon 1,0.5,0.15,57,1.0
403.625,403.625,232.9571,111,1.5,Violin 2,0.25,0.075,73,0.7087
403.625,403.625,232.9571,111,1.5,Viola,0.25,0.075,57,1.0
403.625,403.625,232.9571,111,1.5,Contrabass,0.5,0.15,40,1.0
403.625,403.625,232.9571,111,1.5,Violin 1,0.25,0.075,69,1.0
403.875,403.875,233.0321,111,1.75,Violin 1,0.25,0.075,69,1.0
403.875,403.875,233.0321,111,1.75,Viola,0.25,0.075,57,1.0
403.875,403.875,233.0321,111,1.75,Violin 2,0.25,0.075,64,0.7087
403.875,403.875,233.0321,111,1.75,Violin 2,0.25,0.075,73,0.7087
404.125,404.125,233.1071,111,2.0,Violin 1,0.25,0.075,73,1.0
404.125,404.125,233.1071,111,2.0,Viola,0.25,0.075,61,1.0
404.125,404.125,233.1071,111,2.0,Violin 2,0.25,0.075,64,0.7087
404.125,404.125,233.1071,111,2.0,Violin 2,0.25,0.075,73,0.7087
404.125,404.125,233.1071,111,2.0,D Trumpet 1,0.75,0.225,76,1.0
404.125,404.125,233.1071,111,2.0,Bassoon 2,0.5,0.15,61,1.0
404.125,404.125,233.1071,111,2.0,Contrabass,0.5,0.15,40,1.0
404.125,404.125,233.1071,111,2.0,D Trumpet 2,0.75,0.225,76,1.0
404.125,404.125,233.1071,111,2.0,Violoncello,0.5,0.15,52,1.0
404.125,404.125,233.1071,111,2.0,Flute 1,2.0,0.6,85,1.0
404.125,404.125,233.1071,111,2.0,Bassoon 1,0.5,0.15,61,1.0
404.375,404.375,233.1821,111,2.25,Viola,0.25,0.075,61,1.0
404.375,404.375,233.1821,111,2.25,Violin 1,0.25,0.075,73,1.0
404.375,404.375,233.1821,111,2.25,Violin 2,0.25,0.075,73,0.7087
404.375,404.375,233.1821,111,2.25,Violin 2,0.25,0.075,64,0.7087
404.625,404.625,233.2571,111,2.5,Viola,0.25,0.075,64,1.0
404.625,404.625,233.2571,111,2.5,Violin 1,0.25,0.075,76,1.0
404.625,404.625,233.2571,111,2.5,Contrabass,0.5,0.15,40,1.0
404.625,404.625,233.2571,111,2.5,Bassoon 1,0.5,0.15,64,1.0
404.625,404.625,233.2571,111,2.5,Violin 2,0.25,0.075,64,0.7087
404.625,404.625,233.2571,111,2.5,Violoncello,0.5,0.15,52,1.0
404.625,404.625,233.2571,111,2.5,Violin 2,0.25,0.075,73,0.7087
404.625,404.625,233.2571,111,2.5,Bassoon 2,0.5,0.15,64,1.0
404.875,404.875,233.3321,111,2.75,D Trumpet 2,0.25,0.075,76,1.0
404.875,404.875,233.3321,111,2.75,Violin 2,0.25,0.075,64,0.7087
404.875,404.875,233.3321,111,2.75,Viola,0.25,0.075,64,1.0
404.875,404.875,233.3321,111,2.75,Violin 2,0.25,0.075,73,0.7087
404.875,404.875,233.3321,111,2.75,Violin 1,0.25,0.075,76,1.0
404.875,404.875,233.3321,111,2.75,D Trumpet 1,0.25,0.075,76,1.0
405.125,405.125,233.4071,111,3.0,Violin 1,0.25,0.075,81,1.0
405.125,405.125,233.4071,111,3.0,Bassoon 1,0.5,0.15,52,1.0
405.125,405.125,233.4071,111,3.0,Viola,0.25,0.075,69,1.0
405.125,405.125,233.4071,111,3.0,D Trumpet 1,1.0,0.3,76,1.0
405.125,405.125,233.4071,111,3.0,Bassoon 2,0.5,0.15,52,1.0
405.125,405.125,233.4071,111,3.0,Contrabass,0.5,0.15,40,1.0
405.125,405.125,233.4071,111,3.0,Violoncello,0.5,0.15,52,1.0
405.125,405.125,233.4071,111,3.0,D Trumpet 2,1.0,0.3,76,1.0
405.125,405.125,233.4071,111,3.0,Violin 2,0.25,0.075,73,0.7087
405.125,405.125,233.4071,111,3.0,Violin 2,0.25,0.075,64,0.7087
405.375,405.375,233.4821,111,3.25,Violin 1,0.25,0.075,81,1.0
405.375,405.375,233.4821,111,3.25,Violin 2,0.25,0.075,64,0.7087
405.375,405.375,233.4821,111,3.25,Viola,0.25,0.075,69,1.0
405.375,405.375,233.4821,111,3.25,Violin 2,0.25,0.075,73,0.7087
405.625,405.625,233.5571,111,3.5,Violin 2,0.25,0.075,64,0.7087
405.625,405.625,233.5571,111,3.5,Violin 2,0.25,0.075,73,0.7087
405.625,405.625,233.5571,111,3.5,Violin 1,0.25,0.075,85,1.0
405.625,405.625,233.5571,111,3.5,Viola,0.25,0.075,69,1.0
405.625,405.625,233.5571,111,3.5,Violoncello,0.5,0.15,52,1.0
405.625,405.625,233.5571,111,3.5,Bassoon 2,0.5,0.15,57,1.0
405.625,405.625,233.5571,111,3.5,Contrabass,0.5,0.15,40,1.0
405.625,405.625,233.5571,111,3.5,Bassoon 1,0.5,0.15,57,1.0
405.875,405.875,233.6321,111,3.75,Viola,0.25,0.075,69,1.0
405.875,405.875,233.6321,111,3.75,Violin 2,0.25,0.075,64,0.7087
405.875,405.875,233.6321,111,3.75,Violin 2,0.25,0.075,73,0.7087
405.875,405.875,233.6321,111,3.75,Violin 1,0.25,0.075,85,1.0
406.125,406.125,233.7071,111,4.0,Violin 2,0.25,0.075,73,0.7087
406.125,406.125,233.7071,111,4.0,Violin 2,0.25,0.075,64,0.7087
406.125,406.125,233.7071,111,4.0,Viola,0.25,0.075,69,1.0
406.125,406.125,233.7071,111,4.0,Violoncello,0.5,0.15,52,1.0
406.125,406.125,233.7071,111,4.0,Violin 1,0.5,0.15,88,1.0
406.125,406.125,233.7071,111,4.0,Bassoon 2,0.5,0.15,61,1.0
406.125,406.125,233.7071,111,4.0,Flute 1,1.0,0.3,85,1.0
406.125,406.125,233.7071,111,4.0,D Trumpet 1,1.0,0.3,76,1.0
406.125,406.125,233.7071,111,4.0,D Trumpet 2,1.0,0.3,76,1.0
406.125,406.125,233.7071,111,4.0,Bassoon 1,0.5,0.15,61,1.0
406.125,406.125,233.7071,111,4.0,Contrabass,0.5,0.15,40,1.0
406.375,406.375,233.7821,111,4.25,Violin 2,0.25,0.075,64,0.7087
406.375,406.375,233.7821,111,4.25,Violin 2,0.25,0.075,73,0.7087
406.375,406.375,233.7821,111,4.25,Viola,0.25,0.075,69,1.0
406.625,406.625,233.8571,111,4.5,Contrabass,0.5,0.15,40,1.0
406.625,406.625,233.8571,111,4.5,Violoncello,0.5,0.15,52,1.0
406.625,406.625,233.8571,111,4.5,Viola,0.25,0.075,69,1.0
406.625,406.625,233.8571,111,4.5,Violin 1,0.5,0.15,88,1.0
406.625,406.625,233.8571,111,4.5,Bassoon 2,0.5,0.15,64,1.0
406.625,406.625,233.8571,111,4.5,Bassoon 1,0.5,0.15,64,1.0
406.625,406.625,233.8571,111,4.5,Violin 2,0.25,0.075,73,0.7087
406.625,406.625,233.8571,111,4.5,Violin 2,0.25,0.075,64,0.7087
406.875,406.875,233.9321,111,4.75,Viola,0.25,0.075,69,1.0
406.875,406.875,233.9321,111,4.75,Violin 2,0.25,0.075,64,0.7087
406.875,406.875,233.9321,111,4.75,Violin 2,0.25,0.075,73,0.7087
407.125,407.125,234.0071,112,1.0,D Horn 1,3.0,0.9,64,1.0
407.125,407.125,234.0071,112,1.0,Oboe 2,3.0,0.9,71,1.0
407.125,407.125,234.0071,112,1.0,Violoncello,0.5,0.15,52,1.0
407.125,407.125,234.0071,112,1.0,Oboe 1,3.0,0.9,80,1.0
407.125,407.125,234.0071,112,1.0,Flute 1,3.0,0.9,86,1.0
407.125,407.125,234.0071,112,1.0,D Horn 2,3.0,0.9,64,1.0
407.125,407.125,234.0071,112,1.0,Viola,2.0,0.6,71,1.0
407.125,407.125,234.0071,112,1.0,A Clarinet 1,3.0,0.9,74,1.0
407.125,407.125,234.0071,112,1.0,Flute 2,3.0,0.9,83,1.0
407.125,407.125,234.0071,112,1.0,Violin 1,2.0,0.6,88,1.0
407.125,407.125,234.0071,112,1.0,Violin 2,2.0,0.6,74,0.7087
407.125,407.125,234.0071,112,1.0,D Trumpet 2,3.0,0.9,76,1.0
407.125,407.125,234.0071,112,1.0,A Clarinet 2,3.0,0.9,68,1.0
407.125,407.125,234.0071,112,1.0,Bassoon 1,4.0,1.2,62,1.0
407.125,407.125,234.0071,112,1.0,D Trumpet 1,3.0,0.9,76,1.0
407.125,407.125,234.0071,112,1.0,Contrabass,0.5,0.15,40,1.0
407.125,407.125,234.0071,112,1.0,Violin 2,2.0,0.6,64,0.7087
407.125,407.125,234.0071,112,1.0,Bassoon 2,2.0,0.6,52,1.0
407.625,407.625,234.1571,112,1.5,Contrabass,0.5,0.15,40,1.0
407.625,407.625,234.1571,112,1.5,Violoncello,0.5,0.15,52,1.0
408.125,408.125,234.3071,112,2.0,Violoncello,0.5,0.15,52,1.0
408.125,408.125,234.3071,112,2.0,Contrabass,0.5,0.15,40,1.0
408.625,408.625,234.4571,112,2.5,Violoncello,0.5,0.15,52,1.0
408.625,408.625,234.4571,112,2.5,Contrabass,0.5,0.15,40,1.0
409.125,409.125,234.6071,112,3.0,Contrabass,0.5,0.15,40,1.0
409.125,409.125,234.6071,112,3.0,Viola,2.0,0.6,59,1.0
409.125,409.125,234.6071,112,3.0,Violin 1,2.0,0.6,80,1.0
409.125,409.125,234.6071,112,3.0,Violin 2,2.0,0.6,62,1.0
409.125,409.125,234.6071,112,3.0,Violoncello,0.5,0.15,52,1.0
409.125,409.125,234.6071,112,3.0,Bassoon 2,2.0,0.6,52,1.0
409.625,409.625,234.7571,112,3.5,Violoncello,0.5,0.15,52,1.0
409.625,409.625,234.7571,112,3.5,Contrabass,0.5,0.15,40,1.0
410.125,410.125,234.9071,112,4.0,Contrabass,0.5,0.15,40,1.0
410.125,410.125,234.9071,112,4.0,D Horn 2,1.0,0.3,64,1.0
410.125,410.125,234.9071,112,4.0,A Clarinet 2,1.0,0.3,68,1.0
410.125,410.125,234.9071,112,4.0,A Clarinet 1,1.0,0.3,74,1.0
410.125,410.125,234.9071,112,4.0,Flute 1,1.0,0.3,86,1.0
410.125,410.125,234.9071,112,4.0,D Horn 1,1.0,0.3,64,1.0
410.125,410.125,234.9071,112,4.0,Oboe 2,1.0,0.3,71,1.0
410.125,410.125,234.9071,112,4.0,Oboe 1,1.0,0.3,80,1.0
410.125,410.125,234.9071,112,4.0,D Trumpet 2,1.0,0.3,76,1.0
410.125,410.125,234.9071,112,4.0,D Trumpet 1,1.0,0.3,76,1.0
410.125,410.125,234.9071,112,4.0,Flute 2,1.0,0.3,83,1.0
410.125,410.125,234.9071,112,4.0,Violoncello,0.5,0.15,52,1.0
410.625,410.625,235.0571,112,4.5,Contrabass,0.5,0.15,40,1.0
410.625,410.625,235.0571,112,4.5,Violoncello,0.5,0.15,52,1.0
411.125,411.125,235.2071,113,1.0,Violin 2,1.0,0.3,69,0.7087
411.125,411.125,235.2071,113,1.0,D Trumpet 1,1.0,0.3,69,1.0
411.125,411.125,235.2071,113,1.0,A Clarinet 2,1.0,0.3,69,1.0
411.125,411.125,235.2071,113,1.0,Flute 1,1.0,0.3,85,1.0
411.125,411.125,235.2071,113,1.0,Violin 1,1.0,0.3,69,0.7087
411.125,411.125,235.2071,113,1.0,Violin 1,1.0,0.3,81,0.7087
411.125,411.125,235.2071,113,1.0,Violin 2,1.0,0.3,61,0.7087
411.125,411.125,235.2071,113,1.0,D Trumpet 2,1.0,0.3,69,1.0
411.125,411.125,235.2071,113,1.0,Violoncello,1.0,0.3,45,1.0
411.125,411.125,235.2071,113,1.0,Viola,0.25,0.075,57,1.0
411.125,411.125,235.2071,113,1.0,D Horn 2,4.0,1.2,57,1.0
411.125,411.125,235.2071,113,1.0,Oboe 2,1.0,0.3,73,1.0
411.125,411.125,235.2071,113,1.0,Timpani,1.0,0.3,45,1.0
411.125,411.125,235.2071,113,1.0,Oboe 1,1.0,0.3,81,1.0
411.125,411.125,235.2071,113,1.0,Bassoon 2,1.0,0.3,45,1.0
411.125,411.125,235.2071,113,1.0,Contrabass,1.0,0.3,33,1.0
411.125,411.125,235.2071,113,1.0,Flute 2,1.0,0.3,81,1.0
411.125,411.125,235.2071,113,1.0,Bassoon 1,1.0,0.3,61,1.0
411.125,411.125,235.2071,113,1.0,A Clarinet 1,1.0,0.3,73,1.0
411.125,411.125,235.2071,113,1.0,D Horn 1,4.0,1.2,69,1.0
411.375,411.375,235.2821,113,1.25,Viola,0.25,0.075,69,0.7087
411.375,411.375,235.2821,113,1.25,Viola,0.25,0.075,57,0.7087
411.625,411.625,235.3571,113,1.5,Viola,0.25,0.075,57,0.7087
411.625,411.625,235.3571,113,1.5,Viola,0.25,0.075,69,0.7087
411.875,411.875,235.4321,113,1.75,Viola,0.25,0.075,57,0.7087
411.875,411.875,235.4321,113,1.75,Viola,0.25,0.075,69,0.7087
412.125,412.125,235.5071,113,2.0,Violin 2,2.0,0.6,69,1.0
412.125,412.125,235.5071,113,2.0,Viola,1.0,0.3,57,0.7087
412.125,412.125,235.5071,113,2.0,Viola,1.0,0.3,69,0.7087
413.125,413.125,235.8071,113,3.0,Viola,2.0,0.6,69,0.7087
413.125,413.125,235.8071,113,3.0,Viola,2.0,0.6,57,0.7087
414.125,414.125,236.1071,113,4.0,Violin 2,0.25,0.075,69,1.0
414.375,414.375,236.1821,113,4.25,Violin 2,0.25,0.075,68,1.0
414.625,414.625,236.2571,113,4.5,Violin 2,0.25,0.075,69,1.0
414.875,414.875,236.3321,113,4.75,Violin 2,0.25,0.075,71,1.0
415.125,415.125,236.4071,114,1.0,Viola,2.0,0.6,69,0.7087
415.125,415.125,236.4071,114,1.0,D Horn 1,4.0,1.2,69,1.0
415.125,415.125,236.4071,114,1.0,D Horn 2,4.0,1.2,57,1.0
415.125,415.125,236.4071,114,1.0,Violin 2,1.0,0.3,73,1.0
415.125,415.125,236.4071,114,1.0,Viola,2.0,0.6,57,0.7087
416.125,416.125,236.7071,114,2.0,Violin 2,0.25,0.075,73,1.0
416.375,416.375,236.7821,114,2.25,Violin 2,0.25,0.075,71,1.0
416.625,416.625,236.8571,114,2.5,Violin 2,0.25,0.075,73,1.0
416.875,416.875,236.9321,114,2.75,Violin 2,0.25,0.075,74,1.0
417.125,417.125,237.0071,114,3.0,Viola,2.0,0.6,69,0.7087
417.125,417.125,237.0071,114,3.0,Viola,2.0,0.6,57,0.7087
417.125,417.125,237.0071,114,3.0,Violin 2,1.0,0.3,76,1.0
418.125,418.125,237.3071,114,4.0,Violin 2,0.25,0.075,76,1.0
418.375,418.375,237.3821,114,4.25,Violin 2,0.25,0.075,77,1.0
418.625,418.625,237.4571,114,4.5,Violin 2,0.25,0.075,79,1.0
418.875,418.875,237.5321,114,4.75,Violin 2,0.25,0.075,76,1.0
419.125,419.125,237.6071,115,1.0,Oboe 1,3.0,0.9,74,1.0
419.125,419.125,237.6071,115,1.0,Oboe 2,3.0,0.9,74,1.0
419.125,419.125,237.6071,115,1.0,A Clarinet 1,3.0,0.9,74,1.0
419.125,419.125,237.6071,115,1.0,D Horn 2,3.0,0.9,62,1.0
419.125,419.125,237.6071,115,1.0,A Clarinet 2,3.0,0.9,74,1.0
419.125,419.125,237.6071,115,1.0,Viola,3.0,0.9,74,0.7087
419.125,419.125,237.6071,115,1.0,Viola,3.0,0.9,62,0.7087
419.125,419.125,237.6071,115,1.0,Violin 1,3.0,0.9,86,1.0
419.125,419.125,237.6071,115,1.0,D Trumpet 2,3.0,0.9,62,1.0
419.125,419.125,237.6071,115,1.0,Contrabass,3.0,0.9,50,1.0
419.125,419.125,237.6071,115,1.0,D Trumpet 1,3.0,0.9,74,1.0
419.125,419.125,237.6071,115,1.0,Violoncello,3.0,0.9,62,1.0
419.125,419.125,237.6071,115,1.0,Flute 1,3.0,0.9,86,1.0
419.125,419.125,237.6071,115,1.0,D Horn 1,3.0,0.9,62,1.0
419.125,419.125,237.6071,115,1.0,Bassoon 2,3.0,0.9,62,1.0
419.125,419.125,237.6071,115,1.0,Timpani,1.0,0.3,50,1.0
419.125,419.125,237.6071,115,1.0,Violin 2,0.25,0.075,77,1.0
419.125,419.125,237.6071,115,1.0,Flute 2,3.0,0.9,86,1.0
419.125,419.125,237.6071,115,1.0,Bassoon 1,3.0,0.9,62,1.0
419.375,419.375,237.6821,115,1.25,Violin 2,0.25,0.075,65,0.7087
419.375,419.375,237.6821,115,1.25,Violin 2,0.25,0.075,62,0.7087
419.625,419.625,237.7571,115,1.5,Violin 2,0.25,0.075,65,0.7087
419.625,419.625,237.7571,115,1.5,Violin 2,0.25,0.075,62,0.7087
419.875,419.875,237.8321,115,1.75,Violin 2,0.25,0.075,65,0.7087
419.875,419.875,237.8321,115,1.75,Violin 2,0.25,0.075,62,0.7087
420.125,420.125,237.9071,115,2.0,Violin 2,1.0,0.3,65,0.7087
420.125,420.125,237.9071,115,2.0,Violin 2,1.0,0.3,62,0.7087
421.125,421.125,238.2071,115,3.0,Violin 2,2.0,0.6,65,0.7087
421.125,421.125,238.2071,115,3.0,Violin 2,2.0,0.6,62,0.7087
422.125,422.125,238.5071,115,4.0,Contrabass,1.0,0.3,50,1.0
422.125,422.125,238.5071,115,4.0,Flute 2,1.0,0.3,86,1.0
422.125,422.125,238.5071,115,4.0,Bassoon 1,1.0,0.3,62,1.0
422.125,422.125,238.5071,115,4.0,D Horn 2,1.0,0.3,62,1.0
422.125,422.125,238.5071,115,4.0,D Trumpet 1,1.0,0.3,74,1.0
422.125,422.125,238.5071,115,4.0,Violin 1,1.0,0.3,86,1.0
422.125,422.125,238.5071,115,4.0,D Trumpet 2,1.0,0.3,62,1.0
422.125,422.125,238.5071,115,4.0,Violoncello,1.0,0.3,62,1.0
422.125,422.125,238.5071,115,4.0,Flute 1,1.0,0.3,86,1.0
422.125,422.125,238.5071,115,4.0,A Clarinet 2,1.0,0.3,74,1.0
422.125,422.125,238.5071,115,4.0,Viola,1.0,0.3,62,0.7087
422.125,422.125,238.5071,115,4.0,Viola,1.0,0.3,74,0.7087
422.125,422.125,238.5071,115,4.0,A Clarinet 1,1.0,0.3,74,1.0
422.125,422.125,238.5071,115,4.0,Bassoon 2,1.0,0.3,62,1.0
422.125,422.125,238.5071,115,4.0,Oboe 1,1.0,0.3,74,1.0
422.125,422.125,238.5071,115,4.0,Oboe 2,1.0,0.3,74,1.0
422.125,422.125,238.5071,115,4.0,Timpani,1.0,0.3,50,1.0
422.125,422.125,238.5071,115,4.0,D Horn 1,1.0,0.3,62,1.0
423.125,423.125,238.8071,116,1.0,Flute 2,1.0,0.3,81,1.0
423.125,423.125,238.8071,116,1.0,D Trumpet 2,1.0,0.3,57,1.0
423.125,423.125,238.8071,116,1.0,D Horn 1,1.0,0.3,69,1.0
423.125,423.125,238.8071,116,1.0,D Trumpet 1,1.0,0.3,69,1.0
423.125,423.125,238.8071,116,1.0,Timpani,1.0,0.3,45,1.0
423.125,423.125,238.8071,116,1.0,Bassoon 2,1.0,0.3,57,1.0
423.125,423.125,238.8071,116,1.0,Violoncello,1.0,0.3,57,1.0
423.125,423.125,238.8071,116,1.0,D Horn 2,1.0,0.3,57,1.0
423.125,423.125,238.8071,116,1.0,A Clarinet 2,1.0,0.3,69,1.0
423.125,423.125,238.8071,116,1.0,Bassoon 1,1.0,0.3,57,1.0
423.125,423.125,238.8071,116,1.0,Oboe 2,1.0,0.3,69,1.0
423.125,423.125,238.8071,116,1.0,Violin 1,1.0,0.3,81,1.0
423.125,423.125,238.8071,116,1.0,Violin 2,2.0,0.6,65,0.7087
423.125,423.125,238.8071,116,1.0,Violin 2,2.0,0.6,62,0.7087
423.125,423.125,238.8071,116,1.0,Contrabass,1.0,0.3,45,1.0
423.125,423.125,238.8071,116,1.0,A Clarinet 1,1.0,0.3,69,1.0
423.125,423.125,238.8071,116,1.0,Flute 1,1.0,0.3,81,1.0
423.125,423.125,238.8071,116,1.0,Viola,1.0,0.3,69,1.0
423.125,423.125,238.8071,116,1.0,Oboe 1,1.0,0.3,69,1.0
424.125,424.125,239.1071,116,2.0,Bassoon 2,1.0,0.3,53,1.0
424.125,424.125,239.1071,116,2.0,Contrabass,1.0,0.3,41,1.0
424.125,424.125,239.1071,116,2.0,Flute 2,1.0,0.3,77,1.0
424.125,424.125,239.1071,116,2.0,D Trumpet 2,1.0,0.3,57,1.0
424.125,424.125,239.1071,116,2.0,A Clarinet 1,1.0,0.3,65,1.0
424.125,424.125,239.1071,116,2.0,Violin 1,1.0,0.3,77,1.0
424.125,424.125,239.1071,116,2.0,D Horn 2,1.0,0.3,57,1.0
424.125,424.125,239.1071,116,2.0,Violoncello,1.0,0.3,53,1.0
424.125,424.125,239.1071,116,2.0,D Horn 1,1.0,0.3,69,1.0
424.125,424.125,239.1071,116,2.0,Oboe 1,1.0,0.3,77,1.0
424.125,424.125,239.1071,116,2.0,Viola,1.0,0.3,65,1.0
424.125,424.125,239.1071,116,2.0,Flute 1,1.0,0.3,89,1.0
424.125,424.125,239.1071,116,2.0,D Trumpet 1,1.0,0.3,69,1.0
424.125,424.125,239.1071,116,2.0,Bassoon 1,1.0,0.3,53,1.0
424.125,424.125,239.1071,116,2.0,Timpani,1.0,0.3,45,1.0
424.125,424.125,239.1071,116,2.0,Oboe 2,1.0,0.3,77,1.0
424.125,424.125,239.1071,116,2.0,A Clarinet 2,1.0,0.3,65,1.0
425.125,425.125,239.4071,116,3.0,D Horn 2,1.0,0.3,57,1.0
425.125,425.125,239.4071,116,3.0,Violin 2,2.0,0.6,62,0.7087
425.125,425.125,239.4071,116,3.0,Bassoon 2,1.0,0.3,52,1.0
425.125,425.125,239.4071,116,3.0,Violin 1,1.0,0.3,76,1.0
425.125,425.125,239.4071,116,3.0,Flute 1,1.0,0.3,88,1.0
425.125,425.125,239.4071,116,3.0,Violin 2,2.0,0.6,65,0.7087
425.125,425.125,239.4071,116,3.0,A Clarinet 1,1.0,0.3,64,1.0
425.125,425.125,239.4071,116,3.0,D Horn 1,1.0,0.3,69,1.0
425.125,425.125,239.4071,116,3.0,Contrabass,1.0,0.3,40,1.0
425.125,425.125,239.4071,116,3.0,Bassoon 1,1.0,0.3,52,1.0
425.125,425.125,239.4071,116,3.0,A Clarinet 2,1.0,0.3,64,1.0
425.125,425.125,239.4071,116,3.0,Viola,1.0,0.3,64,1.0
425.125,425.125,239.4071,116,3.0,Oboe 2,1.0,0.3,76,1.0
425.125,425.125,239.4071,116,3.0,D Trumpet 2,1.0,0.3,57,1.0
425.125,425.125,239.4071,116,3.0,Violoncello,1.0,0.3,52,1.0
425.125,425.125,239.4071,116,3.0,Oboe 1,1.0,0.3,76,1.0
425.125,425.125,239.4071,116,3.0,D Trumpet 1,1.0,0.3,69,1.0
425.125,425.125,239.4071,116,3.0,Flute 2,1.0,0.3,76,1.0
425.125,425.125,239.4071,116,3.0,Timpani,1.0,0.3,45,1.0
426.125,426.125,239.7071,116,4.0,D Trumpet 1,1.0,0.3,69,1.0
426.125,426.125,239.7071,116,4.0,A Clarinet 2,1.0,0.3,62,1.0
426.125,426.125,239.7071,116,4.0,A Clarinet 1,1.0,0.3,62,1.0
426.125,426.125,239.7071,116,4.0,Violoncello,1.0,0.3,50,1.0
426.125,426.125,239.7071,116,4.0,Flute 1,1.0,0.3,86,1.0
426.125,426.125,239.7071,116,4.0,Contrabass,1.0,0.3,38,1.0
426.125,426.125,239.7071,116,4.0,Oboe 1,1.0,0.3,74,1.0
426.125,426.125,239.7071,116,4.0,D Horn 1,1.0,0.3,69,1.0
426.125,426.125,239.7071,116,4.0,Oboe 2,1.0,0.3,74,1.0
426.125,426.125,239.7071,116,4.0,Viola,1.0,0.3,62,1.0
426.125,426.125,239.7071,116,4.0,Bassoon 1,1.0,0.3,50,1.0
426.125,426.125,239.7071,116,4.0,Timpani,1.0,0.3,45,1.0
426.125,426.125,239.7071,116,4.0,D Horn 2,1.0,0.3,57,1.0
426.125,426.125,239.7071,116,4.0,Bassoon 2,1.0,0.3,50,1.0
426.125,426.125,239.7071,116,4.0,D Trumpet 2,1.0,0.3,57,1.0
426.125,426.125,239.7071,116,4.0,Flute 2,1.0,0.3,74,1.0
426.125,426.125,239.7071,116,4.0,Violin 1,1.0,0.3,74,1.0
427.125,427.125,240.0071,117,1.0,D Horn 1,4.0,1.2,69,1.0
427.125,427.125,240.0071,117,1.0,Violin 2,1.0,0.3,69,0.7087
427.125,427.125,240.0071,117,1.0,Violin 2,1.0,0.3,61,0.7087
427.125,427.125,240.0071,117,1.0,Violin 2,1.0,0.3,64,0.7087
427.125,427.125,240.0071,117,1.0,Oboe 1,1.0,0.3,69,1.0
427.125,427.125,240.0071,117,1.0,D Trumpet 2,1.0,0.3,57,1.0
427.125,427.125,240.0071,117,1.0,Bassoon 1,1.0,0.3,45,1.0
427.125,427.125,240.0071,117,1.0,Violoncello,1.0,0.3,45,1.0
427.125,427.125,240.0071,117,1.0,D Horn 2,4.0,1.2,57,1.0
427.125,427.125,240.0071,117,1.0,D Trumpet 1,1.0,0.3,69,1.0
427.125,427.125,240.0071,117,1.0,Flute 2,1.0,0.3,69,1.0
427.125,427.125,240.0071,117,1.0,Contrabass,1.0,0.3,33,1.0
427.125,427.125,240.0071,117,1.0,Violin 1,1.0,0.3,57,0.7087
427.125,427.125,240.0071,117,1.0,Timpani,1.0,0.3,45,1.0
427.125,427.125,240.0071,117,1.0,A Clarinet 2,1.0,0.3,57,1.0
427.125,427.125,240.0071,117,1.0,Violin 1,1.0,0.3,69,0.7087
427.125,427.125,240.0071,117,1.0,Flute 1,1.0,0.3,81,1.0
427.125,427.125,240.0071,117,1.0,A Clarinet 1,1.0,0.3,57,1.0
427.125,427.125,240.0071,117,1.0,Viola,0.25,0.075,57,1.0
427.125,427.125,240.0071,117,1.0,Bassoon 2,1.0,0.3,45,1.0
427.125,427.125,240.0071,117,1.0,Oboe 2,1.0,0.3,69,1.0
427.375,427.375,240.0821,117,1.25,Viola,0.25,0.075,57,0.7087
427.375,427.375,240.0821,117,1.25,Viola,0.25,0.075,69,0.7087
427.625,427.625,240.1571,117,1.5,Viola,0.25,0.075,57,0.7087
427.625,427.625,240.1571,117,1.5,Viola,0.25,0.075,69,0.7087
427.875,427.875,240.2321,117,1.75,Viola,0.25,0.075,69,0.7087
427.875,427.875,240.2321,117,1.75,Viola,0.25,0.075,57,0.7087
428.125,428.125,240.3071,117,2.0,Viola,3.0,0.9,69,0.7087
428.125,428.125,240.3071,117,2.0,Violin 2,2.0,0.6,69,1.0
428.125,428.125,240.3071,117,2.0,Viola,3.0,0.9,57,0.7087
430.125,430.125,240.9071,117,4.0,Violin 2,0.25,0.075,69,1.0
430.375,430.375,240.9821,117,4.25,Violin 2,0.25,0.075,68,1.0
430.625,430.625,241.0571,117,4.5,Violin 2,0.25,0.075,69,1.0
430.875,430.875,241.1321,117,4.75,Violin 2,0.25,0.075,71,1.0
431.125,431.125,241.2071,118,1.0,Violin 2,1.0,0.3,73,1.0
431.125,431.125,241.2071,118,1.0,Viola,2.0,0.6,69,0.7087
431.125,431.125,241.2071,118,1.0,Viola,2.0,0.6,57,0.7087
431.125,431.125,241.2071,118,1.0,D Horn 2,4.0,1.2,57,1.0
431.125,431.125,241.2071,118,1.0,D Horn 1,4.0,1.2,69,1.0
432.125,432.125,241.5071,118,2.0,Violin 2,0.25,0.075,73,1.0
432.375,432.375,241.5821,118,2.25,Violin 2,0.25,0.075,71,1.0
432.625,432.625,241.6571,118,2.5,Violin 2,0.25,0.075,73,1.0
432.875,432.875,241.7321,118,2.75,Violin 2,0.25,0.075,74,1.0
433.125,433.125,241.8071,118,3.0,Violin 2,1.0,0.3,76,1.0
433.125,433.125,241.8071,118,3.0,Viola,2.0,0.6,69,0.7087
433.125,433.125,241.8071,118,3.0,Viola,2.0,0.6,57,0.7087
434.125,434.125,242.1071,118,4.0,Violin 2,0.25,0.075,76,1.0
434.375,434.375,242.1821,118,4.25,Violin 2,0.25,0.075,77,1.0
434.625,434.625,242.2571,118,4.5,Violin 2,0.25,0.075,79,1.0
434.875,434.875,242.3321,118,4.75,Violin 2,0.25,0.075,76,1.0
435.125,435.125,242.4071,119,1.0,Bassoon 2,3.0,0.9,62,1.0
435.125,435.125,242.4071,119,1.0,Oboe 1,3.0,0.9,74,1.0
435.125,435.125,242.4071,119,1.0,D Trumpet 2,3.0,0.9,62,1.0
435.125,435.125,242.4071,119,1.0,Flute 2,3.0,0.9,86,1.0
435.125,435.125,242.4071,119,1.0,Violoncello,3.0,0.9,62,1.0
435.125,435.125,242.4071,119,1.0,Violin 2,0.25,0.075,77,1.0
435.125,435.125,242.4071,119,1.0,Timpani,1.0,0.3,50,1.0
435.125,435.125,242.4071,119,1.0,Oboe 2,3.0,0.9,74,1.0
435.125,435.125,242.4071,119,1.0,D Horn 2,3.0,0.9,62,1.0
435.125,435.125,242.4071,119,1.0,A Clarinet 1,3.0,0.9,74,1.0
435.125,435.125,242.4071,119,1.0,Violin 1,3.0,0.9,86,1.0
435.125,435.125,242.4071,119,1.0,Flute 1,3.0,0.9,86,1.0
435.125,435.125,242.4071,119,1.0,D Horn 1,3.0,0.9,62,1.0
435.125,435.125,242.4071,119,1.0,A Clarinet 2,3.0,0.9,74,1.0
435.125,435.125,242.4071,119,1.0,D Trumpet 1,3.0,0.9,74,1.0
435.125,435.125,242.4071,119,1.0,Viola,3.0,0.9,74,0.7087
435.125,435.125,242.4071,119,1.0,Bassoon 1,3.0,0.9,62,1.0
435.125,435.125,242.4071,119,1.0,Viola,3.0,0.9,62,0.7087
435.125,435.125,242.4071,119,1.0,Contrabass,3.0,0.9,50,1.0
435.375,435.375,242.4821,119,1.25,Violin 2,0.25,0.075,65,0.7087
435.375,435.375,242.4821,119,1.25,Violin 2,0.25,0.075,62,0.7087
435.625,435.625,242.5571,119,1.5,Violin 2,0.25,0.075,62,0.7087
435.625,435.625,242.5571,119,1.5,Violin 2,0.25,0.075,65,0.7087
435.875,435.875,242.6321,119,1.75,Violin 2,0.25,0.075,62,0.7087
435.875,435.875,242.6321,119,1.75,Violin 2,0.25,0.075,65,0.7087
436.125,436.125,242.7071,119,2.0,Violin 2,1.0,0.3,62,0.7087
436.125,436.125,242.7071,119,2.0,Violin 2,1.0,0.3,65,0.7087
437.125,437.125,243.0071,119,3.0,Violin 2,2.0,0.6,65,0.7087
437.125,437.125,243.0071,119,3.0,Violin 2,2.0,0.6,62,0.7087
438.125,438.125,243.3071,119,4.0,A Clarinet 2,1.0,0.3,74,1.0
438.125,438.125,243.3071,119,4.0,D Horn 1,1.0,0.3,62,1.0
438.125,438.125,243.3071,119,4.0,Bassoon 2,1.0,0.3,62,1.0
438.125,438.125,243.3071,119,4.0,D Trumpet 2,1.0,0.3,62,1.0
438.125,438.125,243.3071,119,4.0,D Trumpet 1,1.0,0.3,74,1.0
438.125,438.125,243.3071,119,4.0,Oboe 1,1.0,0.3,74,1.0
438.125,438.125,243.3071,119,4.0,A Clarinet 1,1.0,0.3,74,1.0
438.125,438.125,243.3071,119,4.0,Violin 1,1.0,0.3,86,1.0
438.125,438.125,243.3071,119,4.0,Timpani,1.0,0.3,50,1.0
438.125,438.125,243.3071,119,4.0,Flute 1,1.0,0.3,86,1.0
438.125,438.125,243.3071,119,4.0,Oboe 2,1.0,0.3,74,1.0
438.125,438.125,243.3071,119,4.0,Flute 2,1.0,0.3,86,1.0
438.125,438.125,243.3071,119,4.0,Contrabass,1.0,0.3,50,1.0
438.125,438.125,243.3071,119,4.0,D Horn 2,1.0,0.3,62,1.0
438.125,438.125,243.3071,119,4.0,Bassoon 1,1.0,0.3,62,1.0
438.125,438.125,243.3071,119,4.0,Viola,1.0,0.3,62,0.7087
438.125,438.125,243.3071,119,4.0,Violoncello,1.0,0.3,62,1.0
438.125,438.125,243.3071,119,4.0,Viola,1.0,0.3,74,0.7087
439.125,439.125,243.6071,120,1.0,Bassoon 2,1.0,0.3,57,1.0
439.125,439.125,243.6071,120,1.0,D Horn 1,1.0,0.3,69,1.0
439.125,439.125,243.6071,120,1.0,Violin 2,2.0,0.6,62,0.7087
439.125,439.125,243.6071,120,1.0,D Horn 2,1.0,0.3,57,1.0
439.125,439.125,243.6071,120,1.0,Flute 1,1.0,0.3,81,1.0
439.125,439.125,243.6071,120,1.0,Viola,1.0,0.3,69,1.0
439.125,439.125,243.6071,120,1.0,Oboe 1,1.0,0.3,69,1.0
439.125,439.125,243.6071,120,1.0,Violin 2,2.0,0.6,65,0.7087
439.125,439.125,243.6071,120,1.0,A Clarinet 1,1.0,0.3,69,1.0
439.125,439.125,243.6071,120,1.0,Oboe 2,1.0,0.3,69,1.0
439.125,439.125,243.6071,120,1.0,Flute 2,1.0,0.3,81,1.0
439.125,439.125,243.6071,120,1.0,D Trumpet 2,1.0,0.3,57,1.0
439.125,439.125,243.6071,120,1.0,Violin 1,1.0,0.3,81,1.0
439.125,439.125,243.6071,120,1.0,A Clarinet 2,1.0,0.3,69,1.0
439.125,439.125,243.6071,120,1.0,Timpani,1.0,0.3,45,1.0
439.125,439.125,243.6071,120,1.0,Violoncello,1.0,0.3,57,1.0
439.125,439.125,243.6071,120,1.0,Contrabass,1.0,0.3,45,1.0
439.125,439.125,243.6071,120,1.0,Bassoon 1,1.0,0.3,57,1.0
439.125,439.125,243.6071,120,1.0,D Trumpet 1,1.0,0.3,69,1.0
440.125,440.125,243.9071,120,2.0,Timpani,1.0,0.3,45,1.0
440.125,440.125,243.9071,120,2.0,D Horn 2,1.0,0.3,57,1.0
440.125,440.125,243.9071,120,2.0,Violoncello,1.0,0.3,53,1.0
440.125,440.125,243.9071,120,2.0,Violin 1,1.0,0.3,77,1.0
440.125,440.125,243.9071,120,2.0,D Trumpet 1,1.0,0.3,69,1.0
440.125,440.125,243.9071,120,2.0,Bassoon 2,1.0,0.3,53,1.0
440.125,440.125,243.9071,120,2.0,Oboe 1,1.0,0.3,77,1.0
440.125,440.125,243.9071,120,2.0,D Horn 1,1.0,0.3,69,1.0
440.125,440.125,243.9071,120,2.0,Bassoon 1,1.0,0.3,53,1.0
440.125,440.125,243.9071,120,2.0,A Clarinet 2,1.0,0.3,65,1.0
440.125,440.125,243.9071,120,2.0,Oboe 2,1.0,0.3,77,1.0
440.125,440.125,243.9071,120,2.0,Viola,1.0,0.3,65,1.0
440.125,440.125,243.9071,120,2.0,A Clarinet 1,1.0,0.3,65,1.0
440.125,440.125,243.9071,120,2.0,Contrabass,1.0,0.3,41,1.0
440.125,440.125,243.9071,120,2.0,D Trumpet 2,1.0,0.3,57,1.0
440.125,440.125,243.9071,120,2.0,Flute 1,1.0,0.3,89,1.0
440.125,440.125,243.9071,120,2.0,Flute 2,1.0,0.3,77,1.0
441.125,441.125,244.2071,120,3.0,Oboe 2,1.0,0.3,76,1.0
441.125,441.125,244.2071,120,3.0,Oboe 1,1.0,0.3,76,1.0
441.125,441.125,244.2071,120,3.0,Flute 1,1.0,0.3,88,1.0
441.125,441.125,244.2071,120,3.0,Flute 2,1.0,0.3,76,1.0
441.125,441.125,244.2071,120,3.0,Contrabass,1.0,0.3,40,1.0
441.125,441.125,244.2071,120,3.0,Violoncello,1.0,0.3,52,1.0
441.125,441.125,244.2071,120,3.0,D Horn 2,1.0,0.3,57,1.0
441.125,441.125,244.2071,120,3.0,D Horn 1,1.0,0.3,69,1.0
441.125,441.125,244.2071,120,3.0,Timpani,1.0,0.3,45,1.0
441.125,441.125,244.2071,120,3.0,A Clarinet 2,1.0,0.3,64,1.0
441.125,441.125,244.2071,120,3.0,D Trumpet 1,1.0,0.3,69,1.0
441.125,441.125,244.2071,120,3.0,Bassoon 1,1.0,0.3,52,1.0
441.125,441.125,244.2071,120,3.0,Violin 1,1.0,0.3,76,1.0
441.125,441.125,244.2071,120,3.0,Viola,1.0,0.3,64,1.0
441.125,441.125,244.2071,120,3.0,D Trumpet 2,1.0,0.3,57,1.0
441.125,441.125,244.2071,120,3.0,A Clarinet 1,1.0,0.3,64,1.0
441.125,441.125,244.2071,120,3.0,Violin 2,2.0,0.6,62,0.7087
441.125,441.125,244.2071,120,3.0,Violin 2,2.0,0.6,65,0.7087
441.125,441.125,244.2071,120,3.0,Bassoon 2,1.0,0.3,52,1.0
442.125,442.125,244.5071,120,4.0,Timpani,1.0,0.3,45,1.0
442.125,442.125,244.5071,120,4.0,Oboe 2,1.0,0.3,74,1.0
442.125,442.125,244.5071,120,4.0,Bassoon 1,1.0,0.3,50,1.0
442.125,442.125,244.5071,120,4.0,D Trumpet 1,1.0,0.3,69,1.0
442.125,442.125,244.5071,120,4.0,D Horn 1,1.0,0.3,69,1.0
442.125,442.125,244.5071,120,4.0,D Trumpet 2,1.0,0.3,57,1.0
442.125,442.125,244.5071,120,4.0,Flute 2,1.0,0.3,74,1.0
442.125,442.125,244.5071,120,4.0,D Horn 2,1.0,0.3,57,1.0
442.125,442.125,244.5071,120,4.0,Flute 1,1.0,0.3,86,1.0
442.125,442.125,244.5071,120,4.0,A Clarinet 2,1.0,0.3,62,1.0
442.125,442.125,244.5071,120,4.0,Oboe 1,1.0,0.3,74,1.0
442.125,442.125,244.5071,120,4.0,Violoncello,1.0,0.3,50,1.0
442.125,442.125,244.5071,120,4.0,Violin 1,1.0,0.3,74,1.0
442.125,442.125,244.5071,120,4.0,A Clarinet 1,1.0,0.3,62,1.0
442.125,442.125,244.5071,120,4.0,Contrabass,1.0,0.3,38,1.0
442.125,442.125,244.5071,120,4.0,Viola,1.0,0.3,62,1.0
442.125,442.125,244.5071,120,4.0,Bassoon 2,1.0,0.3,50,1.0
443.125,443.125,244.8071,121,1.0,Contrabass,1.0,0.3,33,0.5461
443.125,443.125,244.8071,121,1.0,Viola,1.0,0.3,61,0.4961
443.125,443.125,244.8071,121,1.0,D Horn 2,3.0,0.9,57,0.4961
443.125,443.125,244.8071,121,1.0,D Trumpet 2,3.0,0.9,57,0.4961
443.125,443.125,244.8071,121,1.0,Flute 2,3.0,0.9,81,0.4961
443.125,443.125,244.8071,121,1.0,D Horn 1,3.0,0.9,69,0.4961
443.125,443.125,244.8071,121,1.0,Violin 1,3.0,0.9,69,0.7087
443.125,443.125,244.8071,121,1.0,Violin 1,3.0,0.9,81,0.7087
443.125,443.125,244.8071,121,1.0,Timpani,1.0,0.3,45,0.4961
443.125,443.125,244.8071,121,1.0,Flute 1,3.0,0.9,81,0.4961
443.125,443.125,244.8071,121,1.0,Violin 2,1.0,0.3,64,0.4961
443.125,443.125,244.8071,121,1.0,Violoncello,1.0,0.3,45,0.5461
443.125,443.125,244.8071,121,1.0,D Trumpet 1,3.0,0.9,69,0.4961
444.125,444.125,245.1071,121,2.0,Bassoon 2,1.0,0.3,57,0.4961
444.125,444.125,245.1071,121,2.0,Viola,1.0,0.3,57,0.4961
444.125,444.125,245.1071,121,2.0,Violoncello,1.0,0.3,53,0.4961
444.125,444.125,245.1071,121,2.0,Violin 2,1.0,0.3,62,0.4961
444.125,444.125,245.1071,121,2.0,Bassoon 1,1.0,0.3,62,0.4961
444.125,444.125,245.1071,121,2.0,Contrabass,1.0,0.3,41,0.4961
445.125,445.125,245.4071,121,3.0,Bassoon 2,1.0,0.3,61,0.4961
445.125,445.125,245.4071,121,3.0,Viola,1.0,0.3,61,0.4961
445.125,445.125,245.4071,121,3.0,Contrabass,1.0,0.3,40,0.4961
445.125,445.125,245.4071,121,3.0,Violin 2,1.0,0.3,64,0.4961
445.125,445.125,245.4071,121,3.0,Violoncello,1.0,0.3,52,0.4961
445.125,445.125,245.4071,121,3.0,Bassoon 1,1.0,0.3,64,0.4961
446.125,446.125,245.7071,121,4.0,Flute 2,1.0,0.3,80,1.0
446.125,446.125,245.7071,121,4.0,Violin 1,1.0,0.3,80,0.7087
446.125,446.125,245.7071,121,4.0,Violin 1,1.0,0.3,69,0.7087
446.125,446.125,245.7071,121,4.0,Violoncello,1.0,0.3,50,1.0
446.125,446.125,245.7071,121,4.0,D Horn 2,1.0,0.3,57,1.0
446.125,446.125,245.7071,121,4.0,Viola,1.0,0.3,62,1.0
446.125,446.125,245.7071,121,4.0,Bassoon 2,1.0,0.3,62,1.0
446.125,446.125,245.7071,121,4.0,D Trumpet 1,1.0,0.3,69,1.0
446.125,446.125,245.7071,121,4.0,D Trumpet 2,1.0,0.3,57,1.0
446.125,446.125,245.7071,121,4.0,Flute 1,1.0,0.3,80,1.0
446.125,446.125,245.7071,121,4.0,Contrabass,1.0,0.3,38,1.0
446.125,446.125,245.7071,121,4.0,Timpani,1.0,0.3,45,1.0
446.125,446.125,245.7071,121,4.0,A Clarinet 2,1.0,0.3,68,1.0
446.125,446.125,245.7071,121,4.0,A Clarinet 1,1.0,0.3,71,1.0
446.125,446.125,245.7071,121,4.0,Violin 2,1.0,0.3,65,1.0
446.125,446.125,245.7071,121,4.0,Bassoon 1,1.0,0.3,65,1.0
446.125,446.125,245.7071,121,4.0,D Horn 1,1.0,0.3,69,1.0
447.125,447.125,246.0071,122,1.0,D Trumpet 2,3.0,0.9,57,1.0
447.125,447.125,246.0071,122,1.0,Viola,1.0,0.3,61,0.4961
447.125,447.125,246.0071,122,1.0,Contrabass,1.0,0.3,33,0.5461
447.125,447.125,246.0071,122,1.0,Flute 1,3.0,0.9,81,0.4961
447.125,447.125,246.0071,122,1.0,Violin 2,1.0,0.3,64,0.4961
447.125,447.125,246.0071,122,1.0,Flute 2,3.0,0.9,81,0.4961
447.125,447.125,246.0071,122,1.0,D Trumpet 1,3.0,0.9,69,0.4961
447.125,447.125,246.0071,122,1.0,A Clarinet 2,1.0,0.3,69,0.4961
447.125,447.125,246.0071,122,1.0,Violin 1,3.0,0.9,69,0.7087
447.125,447.125,246.0071,122,1.0,Violin 1,3.0,0.9,81,0.7087
447.125,447.125,246.0071,122,1.0,A Clarinet 1,1.0,0.3,73,0.4961
447.125,447.125,246.0071,122,1.0,Timpani,1.0,0.3,45,0.4961
447.125,447.125,246.0071,122,1.0,Bassoon 2,1.0,0.3,61,0.4961
447.125,447.125,246.0071,122,1.0,D Horn 1,3.0,0.9,69,0.4961
447.125,447.125,246.0071,122,1.0,Bassoon 1,1.0,0.3,64,0.4961
447.125,447.125,246.0071,122,1.0,Violoncello,1.0,0.3,45,0.4961
447.125,447.125,246.0071,122,1.0,D Horn 2,3.0,0.9,57,0.4961
448.125,448.125,246.3071,122,2.0,Violin 2,1.0,0.3,62,0.4961
448.125,448.125,246.3071,122,2.0,Oboe 1,1.0,0.3,74,0.4961
448.125,448.125,246.3071,122,2.0,Contrabass,1.0,0.3,41,0.4961
448.125,448.125,246.3071,122,2.0,Viola,1.0,0.3,57,0.4961
448.125,448.125,246.3071,122,2.0,Oboe 2,1.0,0.3,69,0.4961
448.125,448.125,246.3071,122,2.0,Violoncello,1.0,0.3,53,0.4961
449.125,449.125,246.6071,122,3.0,Viola,1.0,0.3,61,0.4961
449.125,449.125,246.6071,122,3.0,Violin 2,1.0,0.3,64,0.4961
449.125,449.125,246.6071,122,3.0,Contrabass,1.0,0.3,40,0.4961
449.125,449.125,246.6071,122,3.0,Violoncello,1.0,0.3,52,0.4961
449.125,449.125,246.6071,122,3.0,Oboe 1,1.0,0.3,76,0.4961
449.125,449.125,246.6071,122,3.0,Oboe 2,1.0,0.3,73,0.4961
450.125,450.125,246.9071,122,4.0,Flute 2,1.0,0.3,80,1.0
450.125,450.125,246.9071,122,4.0,Violin 2,1.0,0.3,65,1.0
450.125,450.125,246.9071,122,4.0,D Trumpet 1,1.0,0.3,74,1.0
450.125,450.125,246.9071,122,4.0,Violoncello,1.0,0.3,50,1.0
450.125,450.125,246.9071,122,4.0,Oboe 1,1.0,0.3,77,1.0
450.125,450.125,246.9071,122,4.0,Violin 1,1.0,0.3,69,0.7087
450.125,450.125,246.9071,122,4.0,D Horn 1,1.0,0.3,62,1.0
450.125,450.125,246.9071,122,4.0,Contrabass,1.0,0.3,38,1.0
450.125,450.125,246.9071,122,4.0,Violin 1,1.0,0.3,83,0.7087
450.125,450.125,246.9071,122,4.0,Timpani,1.0,0.3,50,1.0
450.125,450.125,246.9071,122,4.0,Viola,1.0,0.3,62,1.0
450.125,450.125,246.9071,122,4.0,Flute 1,1.0,0.3,83,1.0
450.125,450.125,246.9071,122,4.0,D Trumpet 2,1.0,0.3,62,1.0
450.125,450.125,246.9071,122,4.0,D Horn 2,1.0,0.3,50,1.0
450.125,450.125,246.9071,122,4.0,Oboe 2,1.0,0.3,74,1.0
451.125,451.125,247.2071,123,1.0,Contrabass,1.0,0.3,33,0.5461
451.125,451.125,247.2071,123,1.0,Violoncello,1.0,0.3,45,0.5461
451.125,451.125,247.2071,123,1.0,Flute 2,3.0,0.9,81,0.4961
451.125,451.125,247.2071,123,1.0,D Trumpet 2,3.0,0.9,57,1.0
451.125,451.125,247.2071,123,1.0,Viola,1.0,0.3,61,0.4961
451.125,451.125,247.2071,123,1.0,Violin 1,3.0,0.9,69,0.7087
451.125,451.125,247.2071,123,1.0,D Horn 2,3.0,0.9,57,0.4961
451.125,451.125,247.2071,123,1.0,Flute 1,3.0,0.9,81,0.4961
451.125,451.125,247.2071,123,1.0,Violin 1,3.0,0.9,81,0.7087
451.125,451.125,247.2071,123,1.0,Timpani,1.0,0.3,45,0.4961
451.125,451.125,247.2071,123,1.0,D Trumpet 1,3.0,0.9,69,0.4961
451.125,451.125,247.2071,123,1.0,D Horn 1,3.0,0.9,69,0.4961
451.125,451.125,247.2071,123,1.0,Oboe 2,1.0,0.3,73,0.4961
451.125,451.125,247.2071,123,1.0,Oboe 1,1.0,0.3,76,0.4961
451.125,451.125,247.2071,123,1.0,Violin 2,1.0,0.3,64,0.4961
452.125,452.125,247.5071,123,2.0,Contrabass,1.0,0.3,41,0.4961
452.125,452.125,247.5071,123,2.0,Bassoon 1,1.0,0.3,62,0.4961
452.125,452.125,247.5071,123,2.0,Bassoon 2,1.0,0.3,57,0.4961
452.125,452.125,247.5071,123,2.0,Violin 2,1.0,0.3,62,0.4961
452.125,452.125,247.5071,123,2.0,Viola,1.0,0.3,57,0.4961
452.125,452.125,247.5071,123,2.0,Violoncello,1.0,0.3,53,0.4961
453.125,453.125,247.8071,123,3.0,Bassoon 1,1.0,0.3,64,0.4961
453.125,453.125,247.8071,123,3.0,Violin 2,1.0,0.3,64,0.4961
453.125,453.125,247.8071,123,3.0,Violoncello,1.0,0.3,52,0.4961
453.125,453.125,247.8071,123,3.0,Contrabass,1.0,0.3,40,0.4961
453.125,453.125,247.8071,123,3.0,Viola,1.0,0.3,61,0.4961
453.125,453.125,247.8071,123,3.0,Bassoon 2,1.0,0.3,61,0.4961
454.125,454.125,248.1071,123,4.0,Violin 1,1.0,0.3,69,0.7087
454.125,454.125,248.1071,123,4.0,Violin 1,1.0,0.3,80,0.7087
454.125,454.125,248.1071,123,4.0,Timpani,1.0,0.3,45,1.0
454.125,454.125,248.1071,123,4.0,Viola,1.0,0.3,62,1.0
454.125,454.125,248.1071,123,4.0,A Clarinet 2,1.0,0.3,68,1.0
454.125,454.125,248.1071,123,4.0,D Trumpet 1,1.0,0.3,69,1.0
454.125,454.125,248.1071,123,4.0,D Horn 2,1.0,0.3,57,1.0
454.125,454.125,248.1071,123,4.0,A Clarinet 1,1.0,0.3,71,1.0
454.125,454.125,248.1071,123,4.0,Violoncello,1.0,0.3,50,1.0
454.125,454.125,248.1071,123,4.0,D Trumpet 2,1.0,0.3,57,1.0
454.125,454.125,248.1071,123,4.0,Flute 1,1.0,0.3,80,1.0
454.125,454.125,248.1071,123,4.0,Violin 2,1.0,0.3,65,1.0
454.125,454.125,248.1071,123,4.0,Flute 2,1.0,0.3,80,1.0
454.125,454.125,248.1071,123,4.0,D Horn 1,1.0,0.3,69,1.0
454.125,454.125,248.1071,123,4.0,Bassoon 1,1.0,0.3,65,1.0
454.125,454.125,248.1071,123,4.0,Contrabass,1.0,0.3,38,1.0
454.125,454.125,248.1071,123,4.0,Bassoon 2,1.0,0.3,62,1.0
455.125,455.125,248.4071,124,1.0,D Trumpet 2,3.0,0.9,57,0.4961
455.125,455.125,248.4071,124,1.0,Flute 1,3.0,0.9,81,0.4961
455.125,455.125,248.4071,124,1.0,D Horn 2,3.0,0.9,57,0.4961
455.125,455.125,248.4071,124,1.0,Violoncello,1.0,0.3,45,0.5461
455.125,455.125,248.4071,124,1.0,D Horn 1,3.0,0.9,69,0.4961
455.125,455.125,248.4071,124,1.0,Violin 1,3.0,0.9,69,0.7087
455.125,455.125,248.4071,124,1.0,Violin 1,3.0,0.9,81,0.7087
455.125,455.125,248.4071,124,1.0,Viola,1.0,0.3,61,0.4961
455.125,455.125,248.4071,124,1.0,Timpani,1.0,0.3,45,0.4961
455.125,455.125,248.4071,124,1.0,Contrabass,1.0,0.3,33,0.5461
455.125,455.125,248.4071,124,1.0,D Trumpet 1,3.0,0.9,69,0.4961
455.125,455.125,248.4071,124,1.0,Bassoon 1,1.0,0.3,64,0.4961
455.125,455.125,248.4071,124,1.0,Flute 2,3.0,0.9,81,0.4961
455.125,455.125,248.4071,124,1.0,Bassoon 2,1.0,0.3,61,0.4961
455.125,455.125,248.4071,124,1.0,A Clarinet 2,1.0,0.3,69,0.4961
455.125,455.125,248.4071,124,1.0,A Clarinet 1,1.0,0.3,73,0.4961
455.125,455.125,248.4071,124,1.0,Violin 2,1.0,0.3,64,0.4961
456.125,456.125,248.7071,124,2.0,Violin 2,1.0,0.3,62,0.4961
456.125,456.125,248.7071,124,2.0,Viola,1.0,0.3,57,0.4961
456.125,456.125,248.7071,124,2.0,Oboe 1,1.0,0.3,74,0.4961
456.125,456.125,248.7071,124,2.0,Violoncello,1.0,0.3,53,0.4961
456.125,456.125,248.7071,124,2.0,Oboe 2,1.0,0.3,69,0.4961
456.125,456.125,248.7071,124,2.0,Contrabass,1.0,0.3,41,0.4961
457.125,457.125,249.0071,124,3.0,Oboe 2,1.0,0.3,73,0.4961
457.125,457.125,249.0071,124,3.0,Violin 2,1.0,0.3,64,0.4961
457.125,457.125,249.0071,124,3.0,Violoncello,1.0,0.3,52,0.4961
457.125,457.125,249.0071,124,3.0,Viola,1.0,0.3,61,0.4961
457.125,457.125,249.0071,124,3.0,Oboe 1,1.0,0.3,76,0.4961
457.125,457.125,249.0071,124,3.0,Contrabass,1.0,0.3,40,0.4961
458.125,458.125,249.3071,124,4.0,D Horn 1,1.0,0.3,62,1.0
458.125,458.125,249.3071,124,4.0,Bassoon 2,1.0,0.3,62,1.0
458.125,458.125,249.3071,124,4.0,Violoncello,1.0,0.3,50,1.0
458.125,458.125,249.3071,124,4.0,Violin 1,1.0,0.3,69,0.7087
458.125,458.125,249.3071,124,4.0,Violin 1,1.0,0.3,83,0.7087
458.125,458.125,249.3071,124,4.0,Timpani,1.0,0.3,50,1.0
458.125,458.125,249.3071,124,4.0,Contrabass,1.0,0.3,38,1.0
458.125,458.125,249.3071,124,4.0,Bassoon 1,1.0,0.3,65,1.0
458.125,458.125,249.3071,124,4.0,Violin 2,1.0,0.3,65,1.0
458.125,458.125,249.3071,124,4.0,Oboe 2,1.0,0.3,74,1.0
458.125,458.125,249.3071,124,4.0,Oboe 1,1.0,0.3,77,1.0
458.125,458.125,249.3071,124,4.0,D Trumpet 2,1.0,0.3,62,1.0
458.125,458.125,249.3071,124,4.0,D Horn 2,1.0,0.3,62,1.0
458.125,458.125,249.3071,124,4.0,Flute 1,1.0,0.3,83,1.0
458.125,458.125,249.3071,124,4.0,Viola,1.0,0.3,62,1.0
458.125,458.125,249.3071,124,4.0,D Trumpet 1,1.0,0.3,74,1.0
458.125,458.125,249.3071,124,4.0,Flute 2,1.0,0.3,80,1.0
459.125,459.125,249.6071,125,1.0,Flute 1,1.0,0.3,81,1.0
459.125,459.125,249.6071,125,1.0,Oboe 1,1.0,0.3,76,1.0
459.125,459.125,249.6071,125,1.0,Violin 1,1.0,0.3,81,0.7087
459.125,459.125,249.6071,125,1.0,Violin 1,1.0,0.3,69,0.7087
459.125,459.125,249.6071,125,1.0,D Trumpet 2,1.0,0.3,57,1.0
459.125,459.125,249.6071,125,1.0,D Trumpet 1,1.0,0.3,69,1.0
459.125,459.125,249.6071,125,1.0,Bassoon 2,1.0,0.3,61,1.0
459.125,459.125,249.6071,125,1.0,Oboe 2,1.0,0.3,73,1.0
459.125,459.125,249.6071,125,1.0,Bassoon 1,1.0,0.3,64,1.0
459.125,459.125,249.6071,125,1.0,Flute 2,1.0,0.3,81,1.0
459.125,459.125,249.6071,125,1.0,D Horn 1,1.0,0.3,69,1.0
459.125,459.125,249.6071,125,1.0,Violin 2,1.0,0.3,64,1.0
459.125,459.125,249.6071,125,1.0,D Horn 2,1.0,0.3,57,1.0
459.125,459.125,249.6071,125,1.0,Violoncello,1.0,0.3,45,1.0
459.125,459.125,249.6071,125,1.0,Viola,1.0,0.3,61,1.0
459.125,459.125,249.6071,125,1.0,Contrabass,1.0,0.3,33,1.0
459.125,459.125,249.6071,125,1.0,Timpani,1.0,0.3,45,1.0
460.125,460.125,249.9071,125,2.0,Violoncello,1.0,0.3,50,1.0
460.125,460.125,249.9071,125,2.0,Oboe 1,1.0,0.3,77,1.0
460.125,460.125,249.9071,125,2.0,Oboe 2,1.0,0.3,74,1.0
460.125,460.125,249.9071,125,2.0,Flute 1,1.0,0.3,83,1.0
460.125,460.125,249.9071,125,2.0,Violin 1,1.0,0.3,83,0.7087
460.125,460.125,249.9071,125,2.0,Violin 1,1.0,0.3,69,0.7087
460.125,460.125,249.9071,125,2.0,Bassoon 1,1.0,0.3,65,1.0
460.125,460.125,249.9071,125,2.0,D Horn 1,1.0,0.3,62,1.0
460.125,460.125,249.9071,125,2.0,Violin 2,1.0,0.3,65,1.0
460.125,460.125,249.9071,125,2.0,Contrabass,1.0,0.3,38,1.0
460.125,460.125,249.9071,125,2.0,Bassoon 2,1.0,0.3,62,1.0
460.125,460.125,249.9071,125,2.0,Timpani,1.0,0.3,50,1.0
460.125,460.125,249.9071,125,2.0,Flute 2,1.0,0.3,80,1.0
460.125,460.125,249.9071,125,2.0,Viola,1.0,0.3,62,1.0
460.125,460.125,249.9071,125,2.0,D Horn 2,1.0,0.3,62,1.0
460.125,460.125,249.9071,125,2.0,D Trumpet 1,1.0,0.3,74,1.0
460.125,460.125,249.9071,125,2.0,D Trumpet 2,1.0,0.3,62,1.0
461.125,461.125,250.2071,125,3.0,Bassoon 1,1.0,0.3,64,1.0
461.125,461.125,250.2071,125,3.0,Timpani,1.0,0.3,45,1.0
461.125,461.125,250.2071,125,3.0,Violin 2,1.0,0.3,64,1.0
461.125,461.125,250.2071,125,3.0,Oboe 2,1.0,0.3,73,1.0
461.125,461.125,250.2071,125,3.0,D Trumpet 1,1.0,0.3,69,1.0
461.125,461.125,250.2071,125,3.0,Flute 1,1.0,0.3,85,1.0
461.125,461.125,250.2071,125,3.0,Bassoon 2,1.0,0.3,61,1.0
461.125,461.125,250.2071,125,3.0,Violoncello,1.0,0.3,45,1.0
461.125,461.125,250.2071,125,3.0,D Trumpet 2,1.0,0.3,57,1.0
461.125,461.125,250.2071,125,3.0,D Horn 1,1.0,0.3,69,1.0
461.125,461.125,250.2071,125,3.0,Viola,1.0,0.3,61,1.0
461.125,461.125,250.2071,125,3.0,Violin 1,1.0,0.3,69,0.7087
461.125,461.125,250.2071,125,3.0,D Horn 2,1.0,0.3,57,1.0
461.125,461.125,250.2071,125,3.0,Violin 1,1.0,0.3,81,0.7087
461.125,461.125,250.2071,125,3.0,Contrabass,1.0,0.3,33,1.0
461.125,461.125,250.2071,125,3.0,Oboe 1,1.0,0.3,76,1.0
461.125,461.125,250.2071,125,3.0,Flute 2,1.0,0.3,81,1.0
462.125,462.125,250.5071,125,4.0,Oboe 2,1.0,0.3,74,1.0
462.125,462.125,250.5071,125,4.0,Violin 2,1.0,0.3,65,1.0
462.125,462.125,250.5071,125,4.0,D Trumpet 1,1.0,0.3,74,1.0
462.125,462.125,250.5071,125,4.0,D Horn 2,1.0,0.3,62,1.0
462.125,462.125,250.5071,125,4.0,Timpani,1.0,0.3,50,1.0
462.125,462.125,250.5071,125,4.0,Violin 1,1.0,0.3,69,0.7087
462.125,462.125,250.5071,125,4.0,Violin 1,1.0,0.3,83,0.7087
462.125,462.125,250.5071,125,4.0,Flute 1,1.0,0.3,83,1.0
462.125,462.125,250.5071,125,4.0,Flute 2,1.0,0.3,80,1.0
462.125,462.125,250.5071,125,4.0,Viola,1.0,0.3,62,1.0
462.125,462.125,250.5071,125,4.0,Violoncello,1.0,0.3,50,1.0
462.125,462.125,250.5071,125,4.0,Contrabass,1.0,0.3,38,1.0
462.125,462.125,250.5071,125,4.0,D Trumpet 2,1.0,0.3,62,1.0
462.125,462.125,250.5071,125,4.0,Oboe 1,1.0,0.3,77,1.0
462.125,462.125,250.5071,125,4.0,Bassoon 2,1.0,0.3,62,1.0
462.125,462.125,250.5071,125,4.0,Bassoon 1,1.0,0.3,65,1.0
462.125,462.125,250.5071,125,4.0,D Horn 1,1.0,0.3,62,1.0
463.125,463.125,250.8071,126,1.0,Viola,1.0,0.3,61,1.0
463.125,463.125,250.8071,126,1.0,Oboe 1,1.0,0.3,76,1.0
463.125,463.125,250.8071,126,1.0,D Horn 2,1.0,0.3,57,1.0
463.125,463.125,250.8071,126,1.0,Oboe 2,1.0,0.3,73,1.0
463.125,463.125,250.8071,126,1.0,D Horn 1,1.0,0.3,69,1.0
463.125,463.125,250.8071,126,1.0,Flute 1,1.0,0.3,81,1.0
463.125,463.125,250.8071,126,1.0,Violin 2,1.0,0.3,64,1.0
463.125,463.125,250.8071,126,1.0,Bassoon 2,1.0,0.3,61,1.0
463.125,463.125,250.8071,126,1.0,Timpani,1.0,0.3,45,1.0
463.125,463.125,250.8071,126,1.0,D Trumpet 1,1.0,0.3,69,1.0
463.125,463.125,250.8071,126,1.0,Violin 1,1.0,0.3,69,0.7087
463.125,463.125,250.8071,126,1.0,Violin 1,1.0,0.3,81,0.7087
463.125,463.125,250.8071,126,1.0,D Trumpet 2,1.0,0.3,57,1.0
463.125,463.125,250.8071,126,1.0,Contrabass,1.0,0.3,33,1.0
463.125,463.125,250.8071,126,1.0,Flute 2,1.0,0.3,81,1.0
463.125,463.125,250.8071,126,1.0,Bassoon 1,1.0,0.3,64,1.0
463.125,463.125,250.8071,126,1.0,Violoncello,1.0,0.3,45,1.0
464.125,464.125,251.1071,126,2.0,Flute 2,1.0,0.3,80,1.0
464.125,464.125,251.1071,126,2.0,Violin 2,1.0,0.3,65,1.0
464.125,464.125,251.1071,126,2.0,D Trumpet 2,1.0,0.3,62,1.0
464.125,464.125,251.1071,126,2.0,Flute 1,1.0,0.3,83,1.0
464.125,464.125,251.1071,126,2.0,Oboe 2,1.0,0.3,74,1.0
464.125,464.125,251.1071,126,2.0,Bassoon 1,1.0,0.3,65,1.0
464.125,464.125,251.1071,126,2.0,Oboe 1,1.0,0.3,77,1.0
464.125,464.125,251.1071,126,2.0,D Horn 1,1.0,0.3,62,1.0
464.125,464.125,251.1071,126,2.0,Contrabass,1.0,0.3,38,1.0
464.125,464.125,251.1071,126,2.0,D Trumpet 1,1.0,0.3,74,1.0
464.125,464.125,251.1071,126,2.0,Violin 1,1.0,0.3,83,0.7087
464.125,464.125,251.1071,126,2.0,Violin 1,1.0,0.3,69,0.7087
464.125,464.125,251.1071,126,2.0,Viola,1.0,0.3,62,1.0
464.125,464.125,251.1071,126,2.0,Violoncello,1.0,0.3,50,1.0
464.125,464.125,251.1071,126,2.0,Timpani,1.0,0.3,50,1.0
464.125,464.125,251.1071,126,2.0,Bassoon 2,1.0,0.3,62,1.0
464.125,464.125,251.1071,126,2.0,D Horn 2,1.0,0.3,62,1.0
465.125,465.125,251.4071,126,3.0,Violoncello,1.0,0.3,45,1.0
465.125,465.125,251.4071,126,3.0,Bassoon 1,1.0,0.3,64,1.0
465.125,465.125,251.4071,126,3.0,D Trumpet 2,1.0,0.3,57,1.0
465.125,465.125,251.4071,126,3.0,D Horn 2,1.0,0.3,57,1.0
465.125,465.125,251.4071,126,3.0,Flute 1,1.0,0.3,85,1.0
465.125,465.125,251.4071,126,3.0,D Trumpet 1,1.0,0.3,69,1.0
465.125,465.125,251.4071,126,3.0,Oboe 2,1.0,0.3,73,1.0
465.125,465.125,251.4071,126,3.0,Contrabass,1.0,0.3,33,1.0
465.125,465.125,251.4071,126,3.0,Bassoon 2,1.0,0.3,61,1.0
465.125,465.125,251.4071,126,3.0,D Horn 1,1.0,0.3,69,1.0
465.125,465.125,251.4071,126,3.0,Oboe 1,1.0,0.3,76,1.0
465.125,465.125,251.4071,126,3.0,Viola,1.0,0.3,61,1.0
465.125,465.125,251.4071,126,3.0,Violin 2,1.0,0.3,64,1.0
465.125,465.125,251.4071,126,3.0,Flute 2,1.0,0.3,81,1.0
465.125,465.125,251.4071,126,3.0,Timpani,1.0,0.3,45,1.0
465.125,465.125,251.4071,126,3.0,Violin 1,1.0,0.3,69,0.7087
465.125,465.125,251.4071,126,3.0,Violin 1,1.0,0.3,81,0.7087
466.125,466.125,251.7071,126,4.0,D Trumpet 2,1.0,0.3,62,1.0
466.125,466.125,251.7071,126,4.0,Viola,1.0,0.3,62,1.0
466.125,466.125,251.7071,126,4.0,Timpani,1.0,0.3,50,1.0
466.125,466.125,251.7071,126,4.0,Violoncello,1.0,0.3,50,1.0
466.125,466.125,251.7071,126,4.0,Oboe 2,1.0,0.3,74,1.0
466.125,466.125,251.7071,126,4.0,Violin 1,1.0,0.3,69,0.7087
466.125,466.125,251.7071,126,4.0,Contrabass,1.0,0.3,38,1.0
466.125,466.125,251.7071,126,4.0,Bassoon 1,1.0,0.3,62,1.0
466.125,466.125,251.7071,126,4.0,Oboe 1,1.0,0.3,77,1.0
466.125,466.125,251.7071,126,4.0,D Horn 1,1.0,0.3,62,1.0
466.125,466.125,251.7071,126,4.0,Flute 1,1.0,0.3,83,1.0
466.125,466.125,251.7071,126,4.0,Bassoon 2,1.0,0.3,62,1.0
466.125,466.125,251.7071,126,4.0,Flute 2,1.0,0.3,80,1.0
466.125,466.125,251.7071,126,4.0,D Horn 2,1.0,0.3,62,1.0
466.125,466.125,251.7071,126,4.0,Violin 1,1.0,0.3,83,0.7087
466.125,466.125,251.7071,126,4.0,Violin 2,1.0,0.3,65,1.0
466.125,466.125,251.7071,126,4.0,D Trumpet 1,1.0,0.3,74,1.0
467.125,467.125,252.0071,127,1.0,Bassoon 1,4.0,1.2,57,1.0
467.125,467.125,252.0071,127,1.0,Contrabass,4.0,1.2,33,1.0
467.125,467.125,252.0071,127,1.0,A Clarinet 2,4.0,1.2,69,1.0
467.125,467.125,252.0071,127,1.0,Bassoon 2,4.0,1.2,57,1.0
467.125,467.125,252.0071,127,1.0,Violin 1,0.25,0.075,81,0.7087
467.125,467.125,252.0071,127,1.0,Violoncello,4.0,1.2,45,1.0
467.125,467.125,252.0071,127,1.0,Violin 1,0.25,0.075,69,0.7087
467.125,467.125,252.0071,127,1.0,Timpani,1.0,0.3,45,1.0
467.125,467.125,252.0071,127,1.0,D Trumpet 1,1.0,0.3,69,1.0
467.125,467.125,252.0071,127,1.0,Violin 2,1.0,0.3,64,0.7087
467.125,467.125,252.0071,127,1.0,Oboe 1,1.0,0.3,76,1.0
467.125,467.125,252.0071,127,1.0,Oboe 2,1.0,0.3,73,1.0
467.125,467.125,252.0071,127,1.0,A Clarinet 1,4.0,1.2,81,1.0
467.125,467.125,252.0071,127,1.0,Flute 1,1.0,0.3,93,1.0
467.125,467.125,252.0071,127,1.0,Viola,4.0,1.2,57,1.0
467.125,467.125,252.0071,127,1.0,D Horn 2,1.0,0.3,57,1.0
467.125,467.125,252.0071,127,1.0,D Trumpet 2,1.0,0.3,57,1.0
467.125,467.125,252.0071,127,1.0,Violin 2,1.0,0.3,61,0.7087
467.125,467.125,252.0071,127,1.0,Flute 2,1.0,0.3,81,1.0
467.125,467.125,252.0071,127,1.0,D Horn 1,1.0,0.3,69,1.0
467.375,467.375,252.0821,127,1.25,Violin 1,0.25,0.075,81,1.0
467.625,467.625,252.1571,127,1.5,Violin 1,0.25,0.075,88,1.0
467.875,467.875,252.2321,127,1.75,Violin 1,0.25,0.075,88,1.0
468.125,468.125,252.3071,127,2.0,Flute 2,3.0,0.9,93,1.0
468.125,468.125,252.3071,127,2.0,Flute 1,3.0,0.9,93,1.0
468.125,468.125,252.3071,127,2.0,Violin 1,0.25,0.075,85,1.0
468.375,468.375,252.3821,127,2.25,Violin 1,0.25,0.075,85,1.0
468.625,468.625,252.4571,127,2.5,Violin 1,0.25,0.075,81,1.0
468.875,468.875,252.5321,127,2.75,Violin 1,0.25,0.075,81,1.0
469.125,469.125,252.6071,127,3.0,Violin 1,0.25,0.075,76,1.0
469.375,469.375,252.6821,127,3.25,Violin 1,0.25,0.075,76,1.0
469.625,469.625,252.7571,127,3.5,Violin 2,0.25,0.075,57,1.0
469.625,469.625,252.7571,127,3.5,Violin 1,0.25,0.075,85,1.0
469.875,469.875,252.8321,127,3.75,Violin 1,0.25,0.075,85,1.0
469.875,469.875,252.8321,127,3.75,Violin 2,0.25,0.075,57,1.0
470.125,470.125,252.9071,127,4.0,Violin 2,0.25,0.075,61,1.0
470.125,470.125,252.9071,127,4.0,Violin 1,0.25,0.075,81,1.0
470.375,470.375,252.9821,127,4.25,Violin 2,0.25,0.075,61,1.0
470.375,470.375,252.9821,127,4.25,Violin 1,0.25,0.075,81,1.0
470.625,470.625,253.0571,127,4.5,Violin 2,0.25,0.075,64,1.0
470.625,470.625,253.0571,127,4.5,Violin 1,0.25,0.075,76,1.0
470.875,470.875,253.1321,127,4.75,Violin 1,0.25,0.075,76,1.0
470.875,470.875,253.1321,127,4.75,Violin 2,0.25,0.075,64,1.0
471.125,471.125,253.2071,128,1.0,Violin 1,0.25,0.075,73,1.0
471.125,471.125,253.2071,128,1.0,Flute 2,2.0,0.6,88,1.0
471.125,471.125,253.2071,128,1.0,Bassoon 2,2.0,0.6,52,1.0
471.125,471.125,253.2071,128,1.0,A Clarinet 2,2.0,0.6,64,1.0
471.125,471.125,253.2071,128,1.0,Violin 2,0.25,0.075,69,1.0
471.125,471.125,253.2071,128,1.0,Contrabass,4.0,1.2,33,1.0
471.125,471.125,253.2071,128,1.0,Oboe 1,2.0,0.6,76,1.0
471.125,471.125,253.2071,128,1.0,Viola,4.0,1.2,57,1.0
471.125,471.125,253.2071,128,1.0,Flute 1,2.0,0.6,88,1.0
471.125,471.125,253.2071,128,1.0,Violoncello,4.0,1.2,45,1.0
471.125,471.125,253.2071,128,1.0,Oboe 2,2.0,0.6,76,1.0
471.125,471.125,253.2071,128,1.0,Bassoon 1,2.0,0.6,64,1.0
471.125,471.125,253.2071,128,1.0,A Clarinet 1,2.0,0.6,76,1.0
471.375,471.375,253.2821,128,1.25,Violin 2,0.25,0.075,69,1.0
471.375,471.375,253.2821,128,1.25,Violin 1,0.25,0.075,73,1.0
471.625,471.625,253.3571,128,1.5,Violin 2,0.25,0.075,61,1.0
471.625,471.625,253.3571,128,1.5,Violin 1,0.25,0.075,81,1.0
471.875,471.875,253.4321,128,1.75,Violin 2,0.25,0.075,61,1.0
471.875,471.875,253.4321,128,1.75,Violin 1,0.25,0.075,81,1.0
472.125,472.125,253.5071,128,2.0,Violin 2,0.25,0.075,64,1.0
472.125,472.125,253.5071,128,2.0,Violin 1,0.25,0.075,76,1.0
472.375,472.375,253.5821,128,2.25,Violin 2,0.25,0.075,64,1.0
472.375,472.375,253.5821,128,2.25,Violin 1,0.25,0.075,76,1.0
472.625,472.625,253.6571,128,2.5,Violin 2,0.25,0.075,69,1.0
472.625,472.625,253.6571,128,2.5,Violin 1,0.25,0.075,73,1.0
472.875,472.875,253.7321,128,2.75,Violin 1,0.25,0.075,73,1.0
472.875,472.875,253.7321,128,2.75,Violin 2,0.25,0.075,69,1.0
473.125,473.125,253.8071,128,3.0,A Clarinet 2,2.0,0.6,61,1.0
473.125,473.125,253.8071,128,3.0,A Clarinet 1,2.0,0.6,73,1.0
473.125,473.125,253.8071,128,3.0,Bassoon 1,2.0,0.6,61,1.0
473.125,473.125,253.8071,128,3.0,Violin 2,0.25,0.075,73,1.0
473.125,473.125,253.8071,128,3.0,Violin 1,0.25,0.075,69,1.0
473.125,473.125,253.8071,128,3.0,Flute 2,2.0,0.6,85,1.0
473.125,473.125,253.8071,128,3.0,Bassoon 2,2.0,0.6,49,1.0
473.125,473.125,253.8071,128,3.0,Oboe 2,2.0,0.6,73,1.0
473.125,473.125,253.8071,128,3.0,Flute 1,2.0,0.6,85,1.0
473.125,473.125,253.8071,128,3.0,Oboe 1,2.0,0.6,73,1.0
473.375,473.375,253.8821,128,3.25,Violin 2,0.25,0.075,73,1.0
473.375,473.375,253.8821,128,3.25,Violin 1,0.25,0.075,69,1.0
473.625,473.625,253.9571,128,3.5,Violin 1,0.25,0.075,76,1.0
473.625,473.625,253.9571,128,3.5,Violin 2,0.25,0.075,64,1.0
473.875,473.875,254.0321,128,3.75,Violin 1,0.25,0.075,76,1.0
473.875,473.875,254.0321,128,3.75,Violin 2,0.25,0.075,64,1.0
474.125,474.125,254.1071,128,4.0,Violin 1,0.25,0.075,73,1.0
474.125,474.125,254.1071,128,4.0,Violin 2,0.25,0.075,69,1.0
474.375,474.375,254.1821,128,4.25,Violin 2,0.25,0.075,69,1.0
474.375,474.375,254.1821,128,4.25,Violin 1,0.25,0.075,73,1.0
474.625,474.625,254.2571,128,4.5,Violin 1,0.25,0.075,69,1.0
474.625,474.625,254.2571,128,4.5,Violin 2,0.25,0.075,73,1.0
474.875,474.875,254.3321,128,4.75,Violin 1,0.25,0.075,69,1.0
474.875,474.875,254.3321,128,4.75,Violin 2,0.25,0.075,73,1.0
475.125,475.125,254.4071,129,1.0,D Trumpet 2,4.0,1.2,57,1.0
475.125,475.125,254.4071,129,1.0,Oboe 2,4.0,1.2,69,1.0
475.125,475.125,254.4071,129,1.0,Bassoon 1,4.0,1.2,57,1.0
475.125,475.125,254.4071,129,1.0,Bassoon 2,4.0,1.2,45,1.0
475.125,475.125,254.4071,129,1.0,D Horn 1,4.0,1.2,69,1.0
475.125,475.125,254.4071,129,1.0,Violin 1,0.25,0.075,64,1.0
475.125,475.125,254.4071,129,1.0,Violoncello,2.0,0.6,45,1.0
475.125,475.125,254.4071,129,1.0,Contrabass,2.0,0.6,33,1.0
475.125,475.125,254.4071,129,1.0,Flute 1,4.0,1.2,81,1.0
475.125,475.125,254.4071,129,1.0,D Horn 2,4.0,1.2,57,1.0
475.125,475.125,254.4071,129,1.0,Flute 2,4.0,1.2,81,1.0
475.125,475.125,254.4071,129,1.0,A Clarinet 1,4.0,1.2,69,1.0
475.125,475.125,254.4071,129,1.0,D Trumpet 1,4.0,1.2,69,1.0
475.125,475.125,254.4071,129,1.0,Oboe 1,4.0,1.2,69,1.0
475.125,475.125,254.4071,129,1.0,A Clarinet 2,4.0,1.2,57,1.0
475.125,475.125,254.4071,129,1.0,Timpani,2.0,0.6,45,1.0
475.125,475.125,254.4071,129,1.0,Viola,2.0,0.6,57,1.0
475.125,475.125,254.4071,129,1.0,Violin 2,0.25,0.075,76,1.0
475.375,475.375,254.4821,129,1.25,Violin 1,0.25,0.075,64,1.0
475.375,475.375,254.4821,129,1.25,Violin 2,0.25,0.075,76,1.0
475.625,475.625,254.5571,129,1.5,Violin 1,0.25,0.075,73,1.0
475.625,475.625,254.5571,129,1.5,Violin 2,0.25,0.075,85,1.0
475.875,475.875,254.6321,129,1.75,Violin 1,0.25,0.075,73,1.0
475.875,475.875,254.6321,129,1.75,Violin 2,0.25,0.075,85,1.0
476.125,476.125,254.7071,129,2.0,Violin 1,0.25,0.075,69,1.0
476.125,476.125,254.7071,129,2.0,Violin 2,0.25,0.075,81,1.0
476.375,476.375,254.7821,129,2.25,Violin 2,0.25,0.075,81,1.0
476.375,476.375,254.7821,129,2.25,Violin 1,0.25,0.075,69,1.0
476.625,476.625,254.8571,129,2.5,Violin 2,0.25,0.075,76,1.0
476.625,476.625,254.8571,129,2.5,Violin 1,0.25,0.075,64,1.0
476.875,476.875,254.9321,129,2.75,Violin 2,0.25,0.075,76,1.0
476.875,476.875,254.9321,129,2.75,Violin 1,0.25,0.075,64,1.0
477.125,477.125,255.0071,129,3.0,Viola,0.5,0.15,57,1.0
477.125,477.125,255.0071,129,3.0,Violin 2,0.25,0.075,73,1.0
477.125,477.125,255.0071,129,3.0,Violoncello,0.5,0.15,45,1.0
477.125,477.125,255.0071,129,3.0,Contrabass,0.5,0.15,33,1.0
477.125,477.125,255.0071,129,3.0,Violin 1,0.25,0.075,61,1.0
477.125,477.125,255.0071,129,3.0,Timpani,2.0,0.6,45,1.0
477.375,477.375,255.0821,129,3.25,Violin 2,0.25,0.075,73,1.0
477.375,477.375,255.0821,129,3.25,Violin 1,0.25,0.075,61,1.0
477.625,477.625,255.1571,129,3.5,Violin 1,0.25,0.075,69,1.0
477.625,477.625,255.1571,129,3.5,Contrabass,0.5,0.15,45,1.0
477.625,477.625,255.1571,129,3.5,Violoncello,0.5,0.15,57,1.0
477.625,477.625,255.1571,129,3.5,Viola,0.5,0.15,69,1.0
477.625,477.625,255.1571,129,3.5,Violin 2,0.25,0.075,81,1.0
477.875,477.875,255.2321,129,3.75,Violin 2,0.25,0.075,81,1.0
477.875,477.875,255.2321,129,3.75,Violin 1,0.25,0.075,69,1.0
478.125,478.125,255.3071,129,4.0,Contrabass,0.5,0.15,40,1.0
478.125,478.125,255.3071,129,4.0,Viola,0.5,0.15,64,1.0
478.125,478.125,255.3071,129,4.0,Violin 2,0.25,0.075,76,1.0
478.125,478.125,255.3071,129,4.0,Violoncello,0.5,0.15,52,1.0
478.125,478.125,255.3071,129,4.0,Violin 1,0.25,0.075,64,1.0
478.375,478.375,255.3821,129,4.25,Violin 2,0.25,0.075,76,1.0
478.375,478.375,255.3821,129,4.25,Violin 1,0.25,0.075,64,1.0
478.625,478.625,255.4571,129,4.5,Violoncello,0.5,0.15,49,1.0
478.625,478.625,255.4571,129,4.5,Violin 1,0.25,0.075,61,1.0
478.625,478.625,255.4571,129,4.5,Viola,0.5,0.15,61,1.0
478.625,478.625,255.4571,129,4.5,Contrabass,0.5,0.15,37,1.0
478.625,478.625,255.4571,129,4.5,Violin 2,0.25,0.075,73,1.0
478.875,478.875,255.5321,129,4.75,Violin 2,0.25,0.075,73,1.0
478.875,478.875,255.5321,129,4.75,Violin 1,0.25,0.075,61,1.0
479.125,479.125,255.6071,130,1.0,D Horn 2,2.0,0.6,57,1.0
479.125,479.125,255.6071,130,1.0,D Trumpet 2,2.0,0.6,57,1.0
479.125,479.125,255.6071,130,1.0,Oboe 2,2.0,0.6,73,1.0
479.125,479.125,255.6071,130,1.0,A Clarinet 1,2.0,0.6,73,1.0
479.125,479.125,255.6071,130,1.0,Violin 2,0.25,0.075,69,1.0
479.125,479.125,255.6071,130,1.0,A Clarinet 2,2.0,0.6,61,1.0
479.125,479.125,255.6071,130,1.0,Violoncello,0.5,0.15,45,1.0
479.125,479.125,255.6071,130,1.0,Violin 1,0.25,0.075,57,1.0
479.125,479.125,255.6071,130,1.0,D Trumpet 1,2.0,0.6,69,1.0
479.125,479.125,255.6071,130,1.0,Bassoon 1,2.0,0.6,61,1.0
479.125,479.125,255.6071,130,1.0,Flute 2,2.0,0.6,85,1.0
479.125,479.125,255.6071,130,1.0,Flute 1,2.0,0.6,85,1.0
479.125,479.125,255.6071,130,1.0,Timpani,2.0,0.6,45,1.0
479.125,479.125,255.6071,130,1.0,Bassoon 2,2.0,0.6,49,1.0
479.125,479.125,255.6071,130,1.0,Oboe 1,2.0,0.6,73,1.0
479.125,479.125,255.6071,130,1.0,Viola,0.5,0.15,57,1.0
479.125,479.125,255.6071,130,1.0,D Horn 1,2.0,0.6,64,1.0
479.125,479.125,255.6071,130,1.0,Contrabass,0.5,0.15,33,1.0
479.375,479.375,255.6821,130,1.25,Violin 2,0.25,0.075,69,1.0
479.375,479.375,255.6821,130,1.25,Violin 1,0.25,0.075,57,1.0
479.625,479.625,255.7571,130,1.5,Violin 2,0.25,0.075,69,1.0
479.625,479.625,255.7571,130,1.5,Viola,0.5,0.15,69,1.0
479.625,479.625,255.7571,130,1.5,Violin 1,0.25,0.075,69,1.0
479.625,479.625,255.7571,130,1.5,Violoncello,0.5,0.15,57,1.0
479.625,479.625,255.7571,130,1.5,Contrabass,0.5,0.15,45,1.0
479.875,479.875,255.8321,130,1.75,Violin 2,0.25,0.075,69,1.0
479.875,479.875,255.8321,130,1.75,Violin 1,0.25,0.075,69,1.0
480.125,480.125,255.9071,130,2.0,Violin 2,0.25,0.075,64,1.0
480.125,480.125,255.9071,130,2.0,Contrabass,0.5,0.15,40,1.0
480.125,480.125,255.9071,130,2.0,Violin 1,0.25,0.075,64,1.0
480.125,480.125,255.9071,130,2.0,Violoncello,0.5,0.15,52,1.0
480.125,480.125,255.9071,130,2.0,Viola,0.5,0.15,64,1.0
480.375,480.375,255.9821,130,2.25,Violin 1,0.25,0.075,64,1.0
480.375,480.375,255.9821,130,2.25,Violin 2,0.25,0.075,64,1.0
480.625,480.625,256.0571,130,2.5,Contrabass,0.5,0.15,37,1.0
480.625,480.625,256.0571,130,2.5,Viola,0.5,0.15,61,1.0
480.625,480.625,256.0571,130,2.5,Violin 1,0.25,0.075,61,1.0
480.625,480.625,256.0571,130,2.5,Violin 2,0.25,0.075,61,1.0
480.625,480.625,256.0571,130,2.5,Violoncello,0.5,0.15,49,1.0
480.875,480.875,256.1321,130,2.75,Violin 1,0.25,0.075,61,1.0
480.875,480.875,256.1321,130,2.75,Violin 2,0.25,0.075,61,1.0
481.125,481.125,256.2071,130,3.0,Oboe 1,2.0,0.6,76,1.0
481.125,481.125,256.2071,130,3.0,Viola,0.5,0.15,57,1.0
481.125,481.125,256.2071,130,3.0,D Horn 1,2.0,0.6,64,1.0
481.125,481.125,256.2071,130,3.0,Violin 2,0.25,0.075,57,1.0
481.125,481.125,256.2071,130,3.0,Flute 1,2.0,0.6,88,1.0
481.125,481.125,256.2071,130,3.0,A Clarinet 2,2.0,0.6,64,1.0
481.125,481.125,256.2071,130,3.0,Contrabass,0.5,0.15,33,1.0
481.125,481.125,256.2071,130,3.0,Bassoon 1,2.0,0.6,64,1.0
481.125,481.125,256.2071,130,3.0,A Clarinet 1,2.0,0.6,76,1.0
481.125,481.125,256.2071,130,3.0,D Trumpet 1,2.0,0.6,69,1.0
481.125,481.125,256.2071,130,3.0,Flute 2,2.0,0.6,88,1.0
481.125,481.125,256.2071,130,3.0,Timpani,2.0,0.6,45,1.0
481.125,481.125,256.2071,130,3.0,Oboe 2,2.0,0.6,76,1.0
481.125,481.125,256.2071,130,3.0,Violoncello,0.5,0.15,45,1.0
481.125,481.125,256.2071,130,3.0,D Trumpet 2,2.0,0.6,57,1.0
481.125,481.125,256.2071,130,3.0,Bassoon 2,2.0,0.6,52,1.0
481.125,481.125,256.2071,130,3.0,Violin 1,0.25,0.075,57,1.0
481.125,481.125,256.2071,130,3.0,D Horn 2,2.0,0.6,57,1.0
481.375,481.375,256.2821,130,3.25,Violin 2,0.25,0.075,57,1.0
481.375,481.375,256.2821,130,3.25,Violin 1,0.25,0.075,57,1.0
481.625,481.625,256.3571,130,3.5,Viola,0.5,0.15,69,1.0
481.625,481.625,256.3571,130,3.5,Violin 1,0.25,0.075,69,1.0
481.625,481.625,256.3571,130,3.5,Contrabass,0.5,0.15,45,1.0
481.625,481.625,256.3571,130,3.5,Violoncello,0.5,0.15,57,1.0
481.625,481.625,256.3571,130,3.5,Violin 2,0.25,0.075,69,1.0
481.875,481.875,256.4321,130,3.75,Violin 2,0.25,0.075,69,1.0
481.875,481.875,256.4321,130,3.75,Violin 1,0.25,0.075,69,1.0
482.125,482.125,256.5071,130,4.0,Violin 1,0.25,0.075,64,1.0
482.125,482.125,256.5071,130,4.0,Violin 2,0.25,0.075,64,1.0
482.125,482.125,256.5071,130,4.0,Violoncello,0.5,0.15,52,1.0
482.125,482.125,256.5071,130,4.0,Viola,0.5,0.15,64,1.0
482.125,482.125,256.5071,130,4.0,Contrabass,0.5,0.15,40,1.0
482.375,482.375,256.5821,130,4.25,Violin 1,0.25,0.075,64,1.0
482.375,482.375,256.5821,130,4.25,Violin 2,0.25,0.075,64,1.0
482.625,482.625,256.6571,130,4.5,Violoncello,0.5,0.15,49,1.0
482.625,482.625,256.6571,130,4.5,Violin 1,0.25,0.075,61,1.0
482.625,482.625,256.6571,130,4.5,Violin 2,0.25,0.075,61,1.0
482.625,482.625,256.6571,130,4.5,Viola,0.5,0.15,61,1.0
482.625,482.625,256.6571,130,4.5,Contrabass,0.5,0.15,37,1.0
482.875,482.875,256.7321,130,4.75,Violin 1,0.25,0.075,61,1.0
482.875,482.875,256.7321,130,4.75,Violin 2,0.25,0.075,61,1.0
483.125,483.125,256.8071,131,1.0,D Horn 2,1.0,0.3,57,1.0
483.125,483.125,256.8071,131,1.0,Violin 1,1.0,0.3,57,1.0
483.125,483.125,256.8071,131,1.0,D Trumpet 1,1.0,0.3,69,1.0
483.125,483.125,256.8071,131,1.0,Viola,1.0,0.3,57,1.0
483.125,483.125,256.8071,131,1.0,Bassoon 2,1.0,0.3,57,1.0
483.125,483.125,256.8071,131,1.0,Timpani,1.0,0.3,45,1.0
483.125,483.125,256.8071,131,1.0,Oboe 1,1.0,0.3,81,1.0
483.125,483.125,256.8071,131,1.0,A Clarinet 1,1.0,0.3,81,1.0
483.125,483.125,256.8071,131,1.0,Violoncello,1.0,0.3,45,1.0
483.125,483.125,256.8071,131,1.0,Contrabass,1.0,0.3,33,1.0
483.125,483.125,256.8071,131,1.0,Flute 2,1.0,0.3,93,1.0
483.125,483.125,256.8071,131,1.0,Oboe 2,1.0,0.3,69,1.0
483.125,483.125,256.8071,131,1.0,Flute 1,1.0,0.3,93,1.0
483.125,483.125,256.8071,131,1.0,Violin 2,1.0,0.3,57,1.0
483.125,483.125,256.8071,131,1.0,D Trumpet 2,1.0,0.3,57,1.0
483.125,483.125,256.8071,131,1.0,Bassoon 1,1.0,0.3,57,1.0
483.125,483.125,256.8071,131,1.0,D Horn 1,1.0,0.3,64,1.0
483.125,483.125,256.8071,131,1.0,A Clarinet 2,1.0,0.3,69,1.0
485.125,485.125,257.4071,131,3.0,Bassoon 1,1.0,0.3,61,0.9921
485.125,485.125,257.4071,131,3.0,D Horn 1,1.0,0.3,57,0.9921
485.125,485.125,257.4071,131,3.0,Oboe 1,1.0,0.3,73,0.9921
485.125,485.125,257.4071,131,3.0,A Clarinet 2,1.0,0.3,69,0.9921
485.125,485.125,257.4071,131,3.0,A Clarinet 1,1.0,0.3,73,0.9921
485.125,485.125,257.4071,131,3.0,D Horn 2,1.0,0.3,45,0.9921
485.125,485.125,257.4071,131,3.0,Oboe 2,1.0,0.3,69,0.9921
485.125,485.125,257.4071,131,3.0,Flute 1,1.0,0.3,85,0.9921
485.125,485.125,257.4071,131,3.0,Bassoon 2,1.0,0.3,57,0.9921
485.125,485.125,257.4071,131,3.0,D Trumpet 1,1.0,0.3,69,0.9921
485.125,485.125,257.4071,131,3.0,D Trumpet 2,1.0,0.3,57,0.9921
485.125,485.125,257.4071,131,3.0,Flute 2,1.0,0.3,85,0.9921
485.125,485.125,257.4071,131,3.0,Timpani,1.0,0.3,45,0.9921
487.125,487.125,258.0071,132,1.0,Violoncello,1.0,0.3,45,0.9921
487.125,487.125,258.0071,132,1.0,Violin 1,1.0,0.3,64,0.7087
487.125,487.125,258.0071,132,1.0,Violin 1,1.0,0.3,57,0.7087
487.125,487.125,258.0071,132,1.0,Violin 1,1.0,0.3,73,0.7087
487.125,487.125,258.0071,132,1.0,Violin 2,1.0,0.3,57,0.7087
487.125,487.125,258.0071,132,1.0,Violin 2,1.0,0.3,64,0.7087
487.125,487.125,258.0071,132,1.0,Violin 2,1.0,0.3,73,0.7087
487.125,487.125,258.0071,132,1.0,Contrabass,1.0,0.3,33,0.9921
487.125,487.125,258.0071,132,1.0,Viola,1.0,0.3,57,0.9921
489.125,489.125,258.6071,132,3.0,A Clarinet 1,1.0,0.3,76,0.9921
489.125,489.125,258.6071,132,3.0,D Horn 2,1.0,0.3,45,0.9921
489.125,489.125,258.6071,132,3.0,Timpani,1.0,0.3,45,0.9921
489.125,489.125,258.6071,132,3.0,Flute 1,1.0,0.3,88,0.9921
489.125,489.125,258.6071,132,3.0,Oboe 1,1.0,0.3,76,0.9921
489.125,489.125,258.6071,132,3.0,A Clarinet 2,1.0,0.3,73,0.9921
489.125,489.125,258.6071,132,3.0,D Trumpet 1,1.0,0.3,69,0.9921
489.125,489.125,258.6071,132,3.0,Flute 2,1.0,0.3,85,0.9921
489.125,489.125,258.6071,132,3.0,Oboe 2,1.0,0.3,73,0.9921
489.125,489.125,258.6071,132,3.0,D Trumpet 2,1.0,0.3,57,0.9921
489.125,489.125,258.6071,132,3.0,Bassoon 2,1.0,0.3,61,0.9921
489.125,489.125,258.6071,132,3.0,D Horn 1,1.0,0.3,57,0.9921
489.125,489.125,258.6071,132,3.0,Bassoon 1,1.0,0.3,64,0.9921
491.125,491.125,259.2071,133,1.0,Oboe 1,3.0,0.9,76,0.4961
491.125,491.125,259.2071,133,1.0,Bassoon 1,3.0,0.9,67,0.4961
491.125,491.125,259.2071,133,1.0,Oboe 2,3.0,0.9,71,0.4961
491.125,491.125,259.2071,133,1.0,Bassoon 2,3.0,0.9,67,0.4961
491.125,491.125,259.2071,133,1.0,Flute 1,3.0,0.9,88,0.4961
494.125,494.125,260.1071,133,4.0,Flute 1,1.0,0.3,86,0.4961
494.125,494.125,260.1071,133,4.0,Oboe 2,1.0,0.3,69,0.4961
494.125,494.125,260.1071,133,4.0,Oboe 1,1.0,0.3,74,0.4961
494.125,494.125,260.1071,133,4.0,Bassoon 2,1.0,0.3,66,0.4961
494.125,494.125,260.1071,133,4.0,Bassoon 1,1.0,0.3,66,0.4961
495.125,495.125,260.4071,134,1.0,Bassoon 2,1.0,0.3,64,0.4961
495.125,495.125,260.4071,134,1.0,Oboe 1,1.0,0.3,73,0.4961
495.125,495.125,260.4071,134,1.0,Oboe 2,1.0,0.3,67,0.4961
495.125,495.125,260.4071,134,1.0,Flute 1,1.0,0.3,85,0.4961
495.125,495.125,260.4071,134,1.0,Bassoon 1,1.0,0.3,64,0.4961
496.125,496.125,260.7071,134,2.0,Bassoon 1,1.0,0.3,62,0.4961
496.125,496.125,260.7071,134,2.0,Oboe 1,1.0,0.3,71,0.4961
496.125,496.125,260.7071,134,2.0,Oboe 2,1.0,0.3,66,0.4961
496.125,496.125,260.7071,134,2.0,Bassoon 2,1.0,0.3,62,0.4961
496.125,496.125,260.7071,134,2.0,Flute 1,1.0,0.3,83,0.4961
497.125,497.125,261.0071,134,3.0,Flute 1,1.0,0.3,81,0.4961
497.125,497.125,261.0071,134,3.0,Oboe 2,1.0,0.3,64,0.4961
497.125,497.125,261.0071,134,3.0,Bassoon 1,1.0,0.3,61,0.4961
497.125,497.125,261.0071,134,3.0,Bassoon 2,1.0,0.3,61,0.4961
497.125,497.125,261.0071,134,3.0,Oboe 1,1.0,0.3,69,0.4961
498.125,498.125,261.3071,134,4.0,D Horn 2,1.0,0.3,57,0.4961
498.125,498.125,261.3071,134,4.0,Oboe 2,1.0,0.3,76,0.4961
498.125,498.125,261.3071,134,4.0,Bassoon 2,1.0,0.3,57,0.4961
498.125,498.125,261.3071,134,4.0,Oboe 1,1.0,0.3,79,0.4961
498.125,498.125,261.3071,134,4.0,Bassoon 1,1.0,0.3,57,0.4961
498.125,498.125,261.3071,134,4.0,Flute 1,1.0,0.3,79,0.4961
498.125,498.125,261.3071,134,4.0,D Horn 1,1.0,0.3,64,0.4961
498.625,498.625,261.4571,134,4.5,Violin 1,0.1667,0.05,57,0.4961
498.625,498.625,261.4571,134,4.5,Viola,0.1667,0.05,57,0.4961
498.625,498.625,261.4571,134,4.5,Contrabass,0.1667,0.05,33,0.4961
498.625,498.625,261.4571,134,4.5,Violin 2,0.1667,0.05,57,0.4961
498.625,498.625,261.4571,134,4.5,Violoncello,0.1667,0.05,45,0.4961
498.7917,498.7917,261.5072,134,4.6667,Contrabass,0.1667,0.05,35,0.4961
498.7917,498.7917,261.5072,134,4.6667,Viola,0.1667,0.05,59,0.4961
498.7917,498.7917,261.5072,134,4.6667,Violin 1,0.1667,0.05,59,0.4961
498.7917,498.7917,261.5072,134,4.6667,Violin 2,0.1667,0.05,59,0.4961
498.7917,498.7917,261.5072,134,4.6667,Violoncello,0.1667,0.05,47,0.4961
498.9583,498.9583,261.5571,134,4.8333,Violin 2,0.1667,0.05,61,0.4961
498.9583,498.9583,261.5571,134,4.8333,Violoncello,0.1667,0.05,49,0.4961
498.9583,498.9583,261.5571,134,4.8333,Contrabass,0.1667,0.05,37,0.4961
498.9583,498.9583,261.5571,134,4.8333,Viola,0.1667,0.05,61,0.4961
498.9583,498.9583,261.5571,134,4.8333,Violin 1,0.1667,0.05,61,0.4961
499.125,499.125,261.6071,135,1.0,Bassoon 2,1.0,0.3,62,0.4961
499.125,499.125,261.6071,135,1.0,D Horn 1,1.0,0.3,62,0.4961
499.125,499.125,261.6071,135,1.0,Flute 1,1.0,0.3,78,0.4961
499.125,499.125,261.6071,135,1.0,Violin 1,0.5,0.15,62,0.4961
499.125,499.125,261.6071,135,1.0,Oboe 1,1.0,0.3,78,0.4961
499.125,499.125,261.6071,135,1.0,Contrabass,1.0,0.3,38,0.4961
499.125,499.125,261.6071,135,1.0,Bassoon 1,1.0,0.3,62,0.4961
499.125,499.125,261.6071,135,1.0,Violoncello,3.0,0.9,50,0.4961
499.125,499.125,261.6071,135,1.0,D Horn 2,1.0,0.3,54,0.4961
499.125,499.125,261.6071,135,1.0,Violin 2,0.5,0.15,62,0.4961
499.125,499.125,261.6071,135,1.0,Oboe 2,1.0,0.3,74,0.4961
499.125,499.125,261.6071,135,1.0,Viola,3.0,0.9,62,0.4961
499.625,499.625,261.7571,135,1.5,Violin 1,0.5,0.15,62,0.4961
499.625,499.625,261.7571,135,1.5,Violin 2,0.5,0.15,62,0.4961
500.125,500.125,261.9071,135,2.0,Violin 1,0.5,0.15,62,0.4961
500.125,500.125,261.9071,135,2.0,Violin 2,0.5,0.15,62,0.4961
500.625,500.625,262.0571,135,2.5,Violin 1,0.5,0.15,62,0.4961
500.625,500.625,262.0571,135,2.5,Violin 2,0.5,0.15,62,0.4961
501.125,501.125,262.2071,135,3.0,Violin 1,0.5,0.15,62,0.4961
501.125,501.125,262.2071,135,3.0,Violin 2,0.5,0.15,62,0.4961
501.625,501.625,262.3571,135,3.5,Violin 1,0.5,0.15,62,0.4961
501.625,501.625,262.3571,135,3.5,Violin 2,0.5,0.15,62,0.4961
502.125,502.125,262.5071,135,4.0,Violoncello,0.25,0.075,50,0.4961
502.125,502.125,262.5071,135,4.0,Violin 2,0.5,0.15,62,0.4961
502.125,502.125,262.5071,135,4.0,Viola,0.25,0.075,50,0.4961
502.125,502.125,262.5071,135,4.0,Violin 1,0.5,0.15,62,0.4961
502.375,502.375,262.5821,135,4.25,Violoncello,0.25,0.075,49,0.4961
502.375,502.375,262.5821,135,4.25,Viola,0.25,0.075,49,0.4961
502.625,502.625,262.6571,135,4.5,Violin 2,0.5,0.15,62,0.4961
502.625,502.625,262.6571,135,4.5,Violin 1,0.5,0.15,62,0.4961
502.625,502.625,262.6571,135,4.5,Viola,0.25,0.075,50,0.4961
502.625,502.625,262.6571,135,4.5,Violoncello,0.25,0.075,50,0.4961
502.875,502.875,262.7321,135,4.75,Violoncello,0.25,0.075,52,0.4961
502.875,502.875,262.7321,135,4.75,Viola,0.25,0.075,52,0.4961
503.125,503.125,262.8071,136,1.0,Oboe 1,3.0,0.9,76,0.4961
503.125,503.125,262.8071,136,1.0,Flute 1,3.0,0.9,88,0.4961
503.125,503.125,262.8071,136,1.0,Oboe 2,3.0,0.9,71,0.4961
503.125,503.125,262.8071,136,1.0,Bassoon 1,3.0,0.9,67,0.4961
506.125,506.125,263.7071,136,4.0,Oboe 1,1.0,0.3,74,0.4961
506.125,506.125,263.7071,136,4.0,Flute 1,1.0,0.3,86,0.4961
506.125,506.125,263.7071,136,4.0,Bassoon 1,1.0,0.3,66,0.4961
506.125,506.125,263.7071,136,4.0,Oboe 2,1.0,0.3,69,0.4961
507.125,507.125,264.0071,137,1.0,Bassoon 1,1.0,0.3,64,0.4961
507.125,507.125,264.0071,137,1.0,Oboe 1,1.0,0.3,73,0.4961
507.125,507.125,264.0071,137,1.0,Flute 1,1.0,0.3,85,0.4961
507.125,507.125,264.0071,137,1.0,Oboe 2,1.0,0.3,67,0.4961
508.125,508.125,264.3071,137,2.0,Oboe 1,1.0,0.3,71,0.4961
508.125,508.125,264.3071,137,2.0,Oboe 2,1.0,0.3,66,0.4961
508.125,508.125,264.3071,137,2.0,Flute 1,1.0,0.3,83,0.4961
508.125,508.125,264.3071,137,2.0,Bassoon 1,1.0,0.3,62,0.4961
509.125,509.125,264.6071,137,3.0,Oboe 1,1.0,0.3,69,0.4961
509.125,509.125,264.6071,137,3.0,Flute 1,1.0,0.3,81,0.4961
509.125,509.125,264.6071,137,3.0,Oboe 2,1.0,0.3,64,0.4961
509.125,509.125,264.6071,137,3.0,Bassoon 1,1.0,0.3,61,0.4961
510.125,510.125,264.9071,137,4.0,Oboe 1,1.0,0.3,79,0.4961
510.125,510.125,264.9071,137,4.0,Violoncello,0.25,0.075,45,0.4961
510.125,510.125,264.9071,137,4.0,Bassoon 1,1.0,0.3,57,0.4961
510.125,510.125,264.9071,137,4.0,Violin 2,0.25,0.075,57,0.4961
510.125,510.125,264.9071,137,4.0,Contrabass,0.25,0.075,33,0.4961
510.125,510.125,264.9071,137,4.0,Oboe 2,1.0,0.3,76,0.4961
510.125,510.125,264.9071,137,4.0,Violin 1,0.25,0.075,57,0.4961
510.125,510.125,264.9071,137,4.0,Viola,0.25,0.075,57,0.4961
510.125,510.125,264.9071,137,4.0,Flute 1,1.0,0.3,79,0.4961
510.375,510.375,264.9821,137,4.25,Violoncello,0.25,0.075,44,0.4961
510.375,510.375,264.9821,137,4.25,Violin 2,0.25,0.075,56,0.4961
510.375,510.375,264.9821,137,4.25,Violin 1,0.25,0.075,56,0.4961
510.375,510.375,264.9821,137,4.25,Viola,0.25,0.075,56,0.4961
510.375,510.375,264.9821,137,4.25,Contrabass,0.25,0.075,32,0.4961
510.625,510.625,265.0571,137,4.5,Contrabass,0.25,0.075,33,0.4961
510.625,510.625,265.0571,137,4.5,Violin 2,0.25,0.075,57,0.4961
510.625,510.625,265.0571,137,4.5,Violin 1,0.25,0.075,57,0.4961
510.625,510.625,265.0571,137,4.5,Viola,0.25,0.075,57,0.4961
510.625,510.625,265.0571,137,4.5,Violoncello,0.25,0.075,45,0.4961
510.875,510.875,265.1321,137,4.75,Violin 2,0.25,0.075,56,0.4961
510.875,510.875,265.1321,137,4.75,Violoncello,0.25,0.075,44,0.4961
510.875,510.875,265.1321,137,4.75,Viola,0.25,0.075,56,0.4961
510.875,510.875,265.1321,137,4.75,Violin 1,0.25,0.075,56,0.4961
510.875,510.875,265.1321,137,4.75,Contrabass,0.25,0.075,32,0.4961
511.125,511.125,265.2071,138,1.0,Contrabass,1.0,0.3,33,0.9921
511.125,511.125,265.2071,138,1.0,Violin 1,1.0,0.3,57,0.9921
511.125,511.125,265.2071,138,1.0,Violin 2,1.0,0.3,57,0.9921
511.125,511.125,265.2071,138,1.0,Violoncello,1.0,0.3,45,0.9921
511.125,511.125,265.2071,138,1.0,Viola,1.0,0.3,57,0.9921
513.125,513.125,265.8071,138,3.0,Flute 2,1.0,0.3,81,0.9921
513.125,513.125,265.8071,138,3.0,Timpani,1.0,0.3,45,0.9921
513.125,513.125,265.8071,138,3.0,Oboe 1,1.0,0.3,76,0.9921
513.125,513.125,265.8071,138,3.0,D Horn 2,1.0,0.3,45,0.9921
513.125,513.125,265.8071,138,3.0,Bassoon 2,1.0,0.3,57,0.9921
513.125,513.125,265.8071,138,3.0,D Trumpet 1,1.0,0.3,69,0.9921
513.125,513.125,265.8071,138,3.0,D Horn 1,1.0,0.3,57,0.9921
513.125,513.125,265.8071,138,3.0,A Clarinet 2,1.0,0.3,69,0.9921
513.125,513.125,265.8071,138,3.0,Flute 1,1.0,0.3,85,0.9921
513.125,513.125,265.8071,138,3.0,D Trumpet 2,1.0,0.3,57,0.9921
513.125,513.125,265.8071,138,3.0,A Clarinet 1,1.0,0.3,73,0.9921
513.125,513.125,265.8071,138,3.0,Bassoon 1,1.0,0.3,61,0.9921
513.125,513.125,265.8071,138,3.0,Oboe 2,1.0,0.3,73,0.9921
515.125,515.125,266.4071,139,1.0,Violin 1,1.0,0.3,64,0.7087
515.125,515.125,266.4071,139,1.0,Violin 2,1.0,0.3,64,0.7087
515.125,515.125,266.4071,139,1.0,Viola,1.0,0.3,57,0.9921
515.125,515.125,266.4071,139,1.0,Violin 2,1.0,0.3,73,0.7087
515.125,515.125,266.4071,139,1.0,Violin 1,1.0,0.3,57,0.7087
515.125,515.125,266.4071,139,1.0,Violin 1,1.0,0.3,73,0.7087
515.125,515.125,266.4071,139,1.0,Contrabass,1.0,0.3,33,0.9921
515.125,515.125,266.4071,139,1.0,Violoncello,1.0,0.3,45,0.9921
515.125,515.125,266.4071,139,1.0,Violin 2,1.0,0.3,57,0.7087
517.125,517.125,267.0071,139,3.0,Oboe 2,1.0,0.3,73,0.9921
517.125,517.125,267.0071,139,3.0,A Clarinet 2,1.0,0.3,73,0.9921
517.125,517.125,267.0071,139,3.0,Flute 2,1.0,0.3,85,0.9921
517.125,517.125,267.0071,139,3.0,D Trumpet 1,1.0,0.3,69,0.9921
517.125,517.125,267.0071,139,3.0,D Trumpet 2,1.0,0.3,57,0.9921
517.125,517.125,267.0071,139,3.0,Bassoon 1,1.0,0.3,64,0.9921
517.125,517.125,267.0071,139,3.0,Bassoon 2,1.0,0.3,61,0.9921
517.125,517.125,267.0071,139,3.0,D Horn 1,1.0,0.3,57,0.9921
517.125,517.125,267.0071,139,3.0,Timpani,1.0,0.3,45,0.9921
517.125,517.125,267.0071,139,3.0,Flute 1,1.0,0.3,88,0.9921
517.125,517.125,267.0071,139,3.0,A Clarinet 1,1.0,0.3,76,0.9921
517.125,517.125,267.0071,139,3.0,Oboe 1,1.0,0.3,76,0.9921
517.125,517.125,267.0071,139,3.0,D Horn 2,1.0,0.3,45,0.9921
519.125,519.125,267.6071,140,1.0,Oboe 1,3.0,0.9,76,0.4961
519.125,519.125,267.6071,140,1.0,Flute 1,3.0,0.9,88,0.4961
519.125,519.125,267.6071,140,1.0,Bassoon 1,3.0,0.9,67,0.4961
519.125,519.125,267.6071,140,1.0,Oboe 2,3.0,0.9,70,0.4961
522.125,522.125,268.5071,140,4.0,Flute 1,1.0,0.3,86,0.4961
522.125,522.125,268.5071,140,4.0,Oboe 1,1.0,0.3,74,0.4961
522.125,522.125,268.5071,140,4.0,Oboe 2,1.0,0.3,69,0.4961
522.125,522.125,268.5071,140,4.0,Bassoon 1,1.0,0.3,65,0.4961
523.125,523.125,268.8071,141,1.0,Bassoon 1,1.0,0.3,64,0.4961
523.125,523.125,268.8071,141,1.0,Oboe 2,1.0,0.3,67,0.4961
523.125,523.125,268.8071,141,1.0,Oboe 1,1.0,0.3,73,0.4961
523.125,523.125,268.8071,141,1.0,Flute 1,1.0,0.3,85,0.4961
524.125,524.125,269.1071,141,2.0,Oboe 1,1.0,0.3,70,0.4961
524.125,524.125,269.1071,141,2.0,Bassoon 1,1.0,0.3,62,0.4961
524.125,524.125,269.1071,141,2.0,Oboe 2,1.0,0.3,65,0.4961
524.125,524.125,269.1071,141,2.0,Flute 1,1.0,0.3,82,0.4961
525.125,525.125,269.4071,141,3.0,Bassoon 1,1.0,0.3,61,0.4961
525.125,525.125,269.4071,141,3.0,Oboe 1,1.0,0.3,69,0.4961
525.125,525.125,269.4071,141,3.0,Oboe 2,1.0,0.3,64,0.4961
525.125,525.125,269.4071,141,3.0,Flute 1,1.0,0.3,81,0.4961
526.125,526.125,269.7071,141,4.0,Oboe 1,1.0,0.3,79,0.4961
526.125,526.125,269.7071,141,4.0,Oboe 2,1.0,0.3,76,0.4961
526.125,526.125,269.7071,141,4.0,Bassoon 1,1.0,0.3,57,0.4961
526.125,526.125,269.7071,141,4.0,Flute 1,1.0,0.3,79,0.4961
526.125,526.125,269.7071,141,4.0,D Horn 1,1.0,0.3,64,0.4961
526.125,526.125,269.7071,141,4.0,D Horn 2,1.0,0.3,57,0.4961
526.625,526.625,269.8571,141,4.5,Violoncello,0.1667,0.05,45,0.4961
526.625,526.625,269.8571,141,4.5,Violin 1,0.1667,0.05,57,0.4961
526.625,526.625,269.8571,141,4.5,Violin 2,0.1667,0.05,57,0.4961
526.625,526.625,269.8571,141,4.5,Contrabass,0.1667,0.05,33,0.4961
526.625,526.625,269.8571,141,4.5,Viola,0.1667,0.05,57,0.4961
526.7917,526.7917,269.9072,141,4.6667,Violoncello,0.1667,0.05,47,0.4961
526.7917,526.7917,269.9072,141,4.6667,Contrabass,0.1667,0.05,35,0.4961
526.7917,526.7917,269.9072,141,4.6667,Viola,0.1667,0.05,59,0.4961
526.7917,526.7917,269.9072,141,4.6667,Violin 2,0.1667,0.05,59,0.4961
526.7917,526.7917,269.9072,141,4.6667,Violin 1,0.1667,0.05,59,0.4961
526.9583,526.9583,269.9571,141,4.8333,Viola,0.1667,0.05,61,0.4961
526.9583,526.9583,269.9571,141,4.8333,Contrabass,0.1667,0.05,37,0.4961
526.9583,526.9583,269.9571,141,4.8333,Violin 2,0.1667,0.05,61,0.4961
526.9583,526.9583,269.9571,141,4.8333,Violoncello,0.1667,0.05,49,0.4961
526.9583,526.9583,269.9571,141,4.8333,Violin 1,0.1667,0.05,61,0.4961
527.125,527.125,270.0071,142,1.0,Violin 1,0.5,0.15,62,0.4961
527.125,527.125,270.0071,142,1.0,D Horn 1,4.0,1.2,62,0.4961
527.125,527.125,270.0071,142,1.0,Contrabass,3.0,0.9,38,0.4961
527.125,527.125,270.0071,142,1.0,Violoncello,3.0,0.9,50,0.4961
527.125,527.125,270.0071,142,1.0,Bassoon 1,1.0,0.3,62,0.4961
527.125,527.125,270.0071,142,1.0,Flute 1,1.0,0.3,77,0.4961
527.125,527.125,270.0071,142,1.0,Viola,3.0,0.9,62,0.4961
527.125,527.125,270.0071,142,1.0,Oboe 2,1.0,0.3,74,0.4961
527.125,527.125,270.0071,142,1.0,D Horn 2,4.0,1.2,50,0.4961
527.125,527.125,270.0071,142,1.0,Oboe 1,1.0,0.3,77,0.4961
527.125,527.125,270.0071,142,1.0,Violin 2,0.5,0.15,62,0.4961
527.625,527.625,270.1571,142,1.5,Violin 2,0.5,0.15,62,0.4961
527.625,527.625,270.1571,142,1.5,Violin 1,0.5,0.15,62,0.4961
528.125,528.125,270.3071,142,2.0,Violin 2,0.5,0.15,62,0.4961
528.125,528.125,270.3071,142,2.0,Violin 1,0.5,0.15,62,0.4961
528.625,528.625,270.4571,142,2.5,Violin 1,0.5,0.15,62,0.4961
528.625,528.625,270.4571,142,2.5,Violin 2,0.5,0.15,62,0.4961
529.125,529.125,270.6071,142,3.0,Violin 1,0.5,0.15,62,0.4961
529.125,529.125,270.6071,142,3.0,Violin 2,0.5,0.15,62,0.4961
529.625,529.625,270.7571,142,3.5,Violin 1,0.5,0.15,62,0.4961
529.625,529.625,270.7571,142,3.5,Violin 2,0.5,0.15,62,0.4961
530.125,530.125,270.9071,142,4.0,Viola,0.25,0.075,50,0.4961
530.125,530.125,270.9071,142,4.0,Violoncello,0.25,0.075,50,0.4961
530.125,530.125,270.9071,142,4.0,Contrabass,0.25,0.075,38,0.4961
530.125,530.125,270.9071,142,4.0,Violin 2,0.5,0.15,62,0.4961
530.125,530.125,270.9071,142,4.0,Violin 1,0.5,0.15,62,0.4961
530.375,530.375,270.9821,142,4.25,Contrabass,0.25,0.075,37,0.4961
530.375,530.375,270.9821,142,4.25,Violoncello,0.25,0.075,49,0.4961
530.375,530.375,270.9821,142,4.25,Viola,0.25,0.075,49,0.4961
530.625,530.625,271.0571,142,4.5,Contrabass,0.25,0.075,38,0.4961
530.625,530.625,271.0571,142,4.5,Viola,0.25,0.075,50,0.4961
530.625,530.625,271.0571,142,4.5,Violin 1,0.5,0.15,62,0.4961
530.625,530.625,271.0571,142,4.5,Violoncello,0.25,0.075,50,0.4961
530.625,530.625,271.0571,142,4.5,Violin 2,0.5,0.15,62,0.4961
530.875,530.875,271.1321,142,4.75,Contrabass,0.25,0.075,40,0.4961
530.875,530.875,271.1321,142,4.75,Violoncello,0.25,0.075,52,0.4961
530.875,530.875,271.1321,142,4.75,Viola,0.25,0.075,52,0.4961
531.125,531.125,271.2071,143,1.0,Contrabass,3.0,0.9,41,0.4961
531.125,531.125,271.2071,143,1.0,D Horn 1,4.0,1.2,62,0.4961
531.125,531.125,271.2071,143,1.0,Violoncello,3.0,0.9,53,0.4961
531.125,531.125,271.2071,143,1.0,Viola,3.0,0.9,53,0.4961
531.125,531.125,271.2071,143,1.0,D Horn 2,4.0,1.2,50,0.4961
531.125,531.125,271.2071,143,1.0,Violin 2,0.5,0.15,62,0.4961
531.125,531.125,271.2071,143,1.0,Violin 1,0.5,0.15,62,0.4961
531.625,531.625,271.3571,143,1.5,Violin 2,0.5,0.15,62,0.4961
531.625,531.625,271.3571,143,1.5,Violin 1,0.5,0.15,62,0.4961
532.125,532.125,271.5071,143,2.0,Violin 2,0.5,0.15,62,0.4961
532.125,532.125,271.5071,143,2.0,Violin 1,0.5,0.15,62,0.4961
532.625,532.625,271.6571,143,2.5,Violin 2,0.5,0.15,62,0.4961
532.625,532.625,271.6571,143,2.5,Violin 1,0.5,0.15,62,0.4961
533.125,533.125,271.8071,143,3.0,Violin 2,0.5,0.15,62,0.4961
533.125,533.125,271.8071,143,3.0,Violin 1,0.5,0.15,62,0.4961
533.625,533.625,271.9571,143,3.5,Violin 2,0.5,0.15,62,0.4961
533.625,533.625,271.9571,143,3.5,Violin 1,0.5,0.15,62,0.4961
534.125,534.125,272.1071,143,4.0,Violoncello,0.25,0.075,53,0.4961
534.125,534.125,272.1071,143,4.0,Violin 2,0.5,0.15,62,0.4961
534.125,534.125,272.1071,143,4.0,Violin 1,0.5,0.15,62,0.4961
534.125,534.125,272.1071,143,4.0,Viola,0.25,0.075,53,0.4961
534.125,534.125,272.1071,143,4.0,Contrabass,0.25,0.075,41,0.4961
534.375,534.375,272.1821,143,4.25,Viola,0.25,0.075,52,0.4961
534.375,534.375,272.1821,143,4.25,Violoncello,0.25,0.075,52,0.4961
534.375,534.375,272.1821,143,4.25,Contrabass,0.25,0.075,40,0.4961
534.625,534.625,272.2571,143,4.5,Violoncello,0.25,0.075,53,0.4961
534.625,534.625,272.2571,143,4.5,Viola,0.25,0.075,53,0.4961
534.625,534.625,272.2571,143,4.5,Violin 1,0.5,0.15,62,0.4961
534.625,534.625,272.2571,143,4.5,Violin 2,0.5,0.15,62,0.4961
534.625,534.625,272.2571,143,4.5,Contrabass,0.25,0.075,41,0.4961
534.875,534.875,272.3321,143,4.75,Violoncello,0.25,0.075,55,0.4961
534.875,534.875,272.3321,143,4.75,Contrabass,0.25,0.075,43,0.4961
534.875,534.875,272.3321,143,4.75,Viola,0.25,0.075,55,0.4961
535.125,535.125,272.4071,144,1.0,Viola,1.0,0.3,57,0.5461
535.125,535.125,272.4071,144,1.0,Violin 1,0.5,0.15,62,0.4961
535.125,535.125,272.4071,144,1.0,D Horn 1,4.0,1.2,62,0.4961
535.125,535.125,272.4071,144,1.0,D Horn 2,4.0,1.2,50,0.4961
535.125,535.125,272.4071,144,1.0,Contrabass,1.0,0.3,45,0.5461
535.125,535.125,272.4071,144,1.0,Violoncello,1.0,0.3,57,0.5461
535.125,535.125,272.4071,144,1.0,Violin 2,2.0,0.6,62,0.4961
535.625,535.625,272.5571,144,1.5,Violin 1,0.5,0.15,74,0.4961
536.125,536.125,272.7071,144,2.0,Violin 1,0.5,0.15,74,0.4961
536.125,536.125,272.7071,144,2.0,Viola,1.0,0.3,57,0.5461
536.125,536.125,272.7071,144,2.0,Contrabass,1.0,0.3,45,0.5461
536.125,536.125,272.7071,144,2.0,Violoncello,1.0,0.3,57,0.5461
536.625,536.625,272.8571,144,2.5,Violin 1,0.5,0.15,74,0.4961
537.125,537.125,273.0071,144,3.0,Contrabass,1.0,0.3,41,0.5461
537.125,537.125,273.0071,144,3.0,Violin 1,0.5,0.15,74,0.4961
537.125,537.125,273.0071,144,3.0,Viola,1.0,0.3,53,0.5461
537.125,537.125,273.0071,144,3.0,Violin 2,2.0,0.6,62,0.4961
537.125,537.125,273.0071,144,3.0,Violoncello,1.0,0.3,53,0.5461
537.625,537.625,273.1571,144,3.5,Violin 1,0.5,0.15,74,0.4961
538.125,538.125,273.3071,144,4.0,Viola,1.0,0.3,53,0.5461
538.125,538.125,273.3071,144,4.0,Contrabass,1.0,0.3,41,0.5461
538.125,538.125,273.3071,144,4.0,Violoncello,1.0,0.3,53,0.5461
538.125,538.125,273.3071,144,4.0,Violin 1,0.5,0.15,74,0.4961
538.625,538.625,273.4571,144,4.5,Violin 1,0.5,0.15,74,0.4961
539.125,539.125,273.6071,145,1.0,D Horn 2,4.0,1.2,50,0.4961
539.125,539.125,273.6071,145,1.0,Contrabass,1.0,0.3,38,0.4961
539.125,539.125,273.6071,145,1.0,Violoncello,1.0,0.3,50,0.4961
539.125,539.125,273.6071,145,1.0,D Horn 1,4.0,1.2,62,0.4961
539.125,539.125,273.6071,145,1.0,Violin 1,0.25,0.075,86,0.4961
539.125,539.125,273.6071,145,1.0,Bassoon 1,4.0,1.2,62,0.4961
539.125,539.125,273.6071,145,1.0,Viola,0.5,0.15,50,0.4961
539.125,539.125,273.6071,145,1.0,Oboe 1,4.0,1.2,74,0.4961
539.125,539.125,273.6071,145,1.0,Violin 2,2.0,0.6,62,0.4961
539.375,539.375,273.6821,145,1.25,Violin 1,0.25,0.075,85,0.4961
539.625,539.625,273.7571,145,1.5,Violin 1,0.25,0.075,86,0.4961
539.625,539.625,273.7571,145,1.5,Viola,0.5,0.15,62,0.4961
539.875,539.875,273.8321,145,1.75,Violin 1,0.25,0.075,85,0.4961
540.125,540.125,273.9071,145,2.0,Violin 1,0.25,0.075,86,0.4961
540.125,540.125,273.9071,145,2.0,Viola,0.5,0.15,62,0.4961
540.375,540.375,273.9821,145,2.25,Violin 1,0.25,0.075,85,0.4961
540.625,540.625,274.0571,145,2.5,Viola,0.5,0.15,62,0.4961
540.625,540.625,274.0571,145,2.5,Violin 1,0.25,0.075,86,0.4961
540.875,540.875,274.1321,145,2.75,Violin 1,0.25,0.075,85,0.4961
541.125,541.125,274.2071,145,3.0,Violin 1,0.25,0.075,86,0.4961
541.125,541.125,274.2071,145,3.0,Violin 2,2.0,0.6,62,0.4961
541.125,541.125,274.2071,145,3.0,Viola,0.5,0.15,62,0.4961
541.375,541.375,274.2821,145,3.25,Violin 1,0.25,0.075,85,0.4961
541.625,541.625,274.3571,145,3.5,Violin 1,0.25,0.075,86,0.4961
541.625,541.625,274.3571,145,3.5,Viola,0.5,0.15,62,0.4961
541.875,541.875,274.4321,145,3.75,Violin 1,0.25,0.075,85,0.4961
542.125,542.125,274.5071,145,4.0,Violin 1,0.25,0.075,86,0.4961
542.125,542.125,274.5071,145,4.0,Viola,0.5,0.15,62,0.4961
542.375,542.375,274.5821,145,4.25,Violin 1,0.25,0.075,85,0.4961
542.625,542.625,274.6571,145,4.5,Violin 1,0.25,0.075,86,0.4961
542.625,542.625,274.6571,145,4.5,Viola,0.5,0.15,62,0.4961
542.875,542.875,274.7321,145,4.75,Violin 1,0.25,0.075,85,0.4961
543.125,543.125,274.8071,146,1.0,Violin 1,1.0,0.3,86,0.4961
543.125,543.125,274.8071,146,1.0,D Horn 2,4.0,1.2,50,0.4961
543.125,543.125,274.8071,146,1.0,Contrabass,1.0,0.3,46,0.5461
543.125,543.125,274.8071,146,1.0,Viola,0.5,0.15,62,0.4961
543.125,543.125,274.8071,146,1.0,Oboe 1,4.0,1.2,75,0.4961
543.125,543.125,274.8071,146,1.0,D Horn 1,4.0,1.2,62,0.4961
543.125,543.125,274.8071,146,1.0,Bassoon 1,4.0,1.2,63,0.4961
543.125,543.125,274.8071,146,1.0,Violoncello,1.0,0.3,58,0.5461
543.125,543.125,274.8071,146,1.0,Violin 2,2.0,0.6,63,0.7087
543.125,543.125,274.8071,146,1.0,Violin 2,2.0,0.6,58,0.7087
543.625,543.625,274.9571,146,1.5,Viola,0.5,0.15,62,0.4961
544.125,544.125,275.1071,146,2.0,Viola,0.5,0.15,62,0.4961
544.125,544.125,275.1071,146,2.0,Violoncello,1.0,0.3,58,0.5461
544.125,544.125,275.1071,146,2.0,Contrabass,1.0,0.3,46,0.5461
544.625,544.625,275.2571,146,2.5,Viola,0.5,0.15,62,0.4961
545.125,545.125,275.4071,146,3.0,Violin 2,2.0,0.6,63,0.7087
545.125,545.125,275.4071,146,3.0,Violin 2,2.0,0.6,58,0.7087
545.125,545.125,275.4071,146,3.0,Contrabass,1.0,0.3,43,0.5461
545.125,545.125,275.4071,146,3.0,Viola,0.5,0.15,62,0.4961
545.125,545.125,275.4071,146,3.0,Violoncello,1.0,0.3,55,0.5461
545.625,545.625,275.5571,146,3.5,Viola,0.5,0.15,62,0.4961
546.125,546.125,275.7071,146,4.0,Viola,0.5,0.15,62,0.4961
546.125,546.125,275.7071,146,4.0,Violoncello,1.0,0.3,55,0.5461
546.125,546.125,275.7071,146,4.0,Contrabass,1.0,0.3,43,0.5461
546.625,546.625,275.8571,146,4.5,Viola,0.5,0.15,62,0.4961
547.125,547.125,276.0071,147,1.0,Violoncello,1.0,0.3,50,0.4961
547.125,547.125,276.0071,147,1.0,Contrabass,1.0,0.3,38,0.4961
547.125,547.125,276.0071,147,1.0,Violin 1,0.25,0.075,86,0.4961
547.125,547.125,276.0071,147,1.0,Bassoon 1,4.0,1.2,63,0.4961
547.125,547.125,276.0071,147,1.0,D Horn 2,4.0,1.2,50,0.4961
547.125,547.125,276.0071,147,1.0,Oboe 1,4.0,1.2,75,0.4961
547.125,547.125,276.0071,147,1.0,Viola,0.5,0.15,62,0.4961
547.125,547.125,276.0071,147,1.0,Violin 2,2.0,0.6,58,0.7087
547.125,547.125,276.0071,147,1.0,D Horn 1,4.0,1.2,62,0.4961
547.125,547.125,276.0071,147,1.0,Violin 2,2.0,0.6,63,0.7087
547.375,547.375,276.0821,147,1.25,Violin 1,0.25,0.075,85,0.4961
547.625,547.625,276.1571,147,1.5,Violin 1,0.25,0.075,86,0.4961
547.625,547.625,276.1571,147,1.5,Viola,0.5,0.15,62,0.4961
547.875,547.875,276.2321,147,1.75,Violin 1,0.25,0.075,85,0.4961
548.125,548.125,276.3071,147,2.0,Violin 1,0.25,0.075,86,0.4961
548.125,548.125,276.3071,147,2.0,Viola,0.5,0.15,62,0.4961
548.375,548.375,276.3821,147,2.25,Violin 1,0.25,0.075,85,0.4961
548.625,548.625,276.4571,147,2.5,Violin 1,0.25,0.075,86,0.4961
548.625,548.625,276.4571,147,2.5,Viola,0.5,0.15,62,0.4961
548.875,548.875,276.5321,147,2.75,Violin 1,0.25,0.075,85,0.4961
549.125,549.125,276.6071,147,3.0,Viola,0.5,0.15,62,0.4961
549.125,549.125,276.6071,147,3.0,Violin 1,0.25,0.075,86,0.4961
549.125,549.125,276.6071,147,3.0,Violin 2,2.0,0.6,63,0.7087
549.125,549.125,276.6071,147,3.0,Violin 2,2.0,0.6,58,0.7087
549.375,549.375,276.6821,147,3.25,Violin 1,0.25,0.075,85,0.4961
549.625,549.625,276.7571,147,3.5,Viola,0.5,0.15,62,0.4961
549.625,549.625,276.7571,147,3.5,Violin 1,0.25,0.075,86,0.4961
549.875,549.875,276.8321,147,3.75,Violin 1,0.25,0.075,85,0.4961
550.125,550.125,276.9071,147,4.0,Violin 1,0.25,0.075,86,0.4961
550.125,550.125,276.9071,147,4.0,Viola,0.5,0.15,62,0.4961
550.375,550.375,276.9821,147,4.25,Violin 1,0.25,0.075,85,0.4961
550.625,550.625,277.0571,147,4.5,Violin 1,0.25,0.075,86,0.4961
550.625,550.625,277.0571,147,4.5,Viola,0.5,0.15,62,0.4961
550.875,550.875,277.1321,147,4.75,Violin 1,0.25,0.075,85,0.4961
551.125,551.125,277.2071,148,1.0,Bassoon 1,4.0,1.2,66,0.4961
551.125,551.125,277.2071,148,1.0,Oboe 1,4.0,1.2,78,0.4961
551.125,551.125,277.2071,148,1.0,D Horn 1,4.0,1.2,62,0.4961
551.125,551.125,277.2071,148,1.0,Violoncello,1.0,0.3,60,0.5461
551.125,551.125,277.2071,148,1.0,Viola,0.5,0.15,60,0.7087
551.125,551.125,277.2071,148,1.0,Viola,0.5,0.15,62,0.7087
551.125,551.125,277.2071,148,1.0,Violin 2,2.0,0.6,66,0.4961
551.125,551.125,277.2071,148,1.0,Contrabass,1.0,0.3,48,0.5461
551.125,551.125,277.2071,148,1.0,Violin 1,1.0,0.3,86,0.4961
551.125,551.125,277.2071,148,1.0,D Horn 2,4.0,1.2,50,0.4961
551.625,551.625,277.3571,148,1.5,Viola,0.5,0.15,60,0.7087
551.625,551.625,277.3571,148,1.5,Viola,0.5,0.15,62,0.7087
552.125,552.125,277.5071,148,2.0,Contrabass,1.0,0.3,48,0.5461
552.125,552.125,277.5071,148,2.0,Viola,0.5,0.15,60,0.7087
552.125,552.125,277.5071,148,2.0,Viola,0.5,0.15,62,0.7087
552.125,552.125,277.5071,148,2.0,Violoncello,1.0,0.3,60,0.5461
552.625,552.625,277.6571,148,2.5,Viola,0.5,0.15,60,0.7087
552.625,552.625,277.6571,148,2.5,Viola,0.5,0.15,62,0.7087
553.125,553.125,277.8071,148,3.0,Violoncello,1.0,0.3,57,0.5461
553.125,553.125,277.8071,148,3.0,Viola,0.5,0.15,62,0.7087
553.125,553.125,277.8071,148,3.0,Violin 2,2.0,0.6,66,0.4961
553.125,553.125,277.8071,148,3.0,Viola,0.5,0.15,60,0.7087
553.125,553.125,277.8071,148,3.0,Contrabass,1.0,0.3,45,0.5461
553.625,553.625,277.9571,148,3.5,Viola,0.5,0.15,60,0.7087
553.625,553.625,277.9571,148,3.5,Viola,0.5,0.15,62,0.7087
554.125,554.125,278.1071,148,4.0,Viola,0.5,0.15,60,0.7087
554.125,554.125,278.1071,148,4.0,Viola,0.5,0.15,62,0.7087
554.125,554.125,278.1071,148,4.0,Violoncello,1.0,0.3,57,0.5461
554.125,554.125,278.1071,148,4.0,Contrabass,1.0,0.3,45,0.5461
554.625,554.625,278.2571,148,4.5,Viola,0.5,0.15,62,0.7087
554.625,554.625,278.2571,148,4.5,Viola,0.5,0.15,60,0.7087
555.125,555.125,278.4071,149,1.0,Viola,0.5,0.15,62,0.7087
555.125,555.125,278.4071,149,1.0,Violoncello,1.0,0.3,50,0.4961
555.125,555.125,278.4071,149,1.0,D Horn 2,1.0,0.3,50,0.4961
555.125,555.125,278.4071,149,1.0,D Horn 1,1.0,0.3,62,0.4961
555.125,555.125,278.4071,149,1.0,Violin 1,0.25,0.075,86,0.4961
555.125,555.125,278.4071,149,1.0,Bassoon 1,4.0,1.2,66,0.4961
555.125,555.125,278.4071,149,1.0,Contrabass,1.0,0.3,38,0.4961
555.125,555.125,278.4071,149,1.0,Violin 2,2.0,0.6,66,0.4961
555.125,555.125,278.4071,149,1.0,Oboe 1,4.0,1.2,78,0.4961
555.125,555.125,278.4071,149,1.0,Viola,0.5,0.15,60,0.7087
555.375,555.375,278.4821,149,1.25,Violin 1,0.25,0.075,85,0.4961
555.625,555.625,278.5571,149,1.5,Viola,0.5,0.15,62,0.7087
555.625,555.625,278.5571,149,1.5,Violin 1,0.25,0.075,86,0.4961
555.625,555.625,278.5571,149,1.5,Viola,0.5,0.15,60,0.7087
555.875,555.875,278.6321,149,1.75,Violin 1,0.25,0.075,85,0.4961
556.125,556.125,278.7071,149,2.0,Viola,0.5,0.15,60,0.7087
556.125,556.125,278.7071,149,2.0,Violin 1,0.25,0.075,86,0.4961
556.125,556.125,278.7071,149,2.0,D Horn 2,1.0,0.3,50,0.4961
556.125,556.125,278.7071,149,2.0,Viola,0.5,0.15,62,0.7087
556.125,556.125,278.7071,149,2.0,D Horn 1,1.0,0.3,62,0.4961
556.375,556.375,278.7821,149,2.25,Violin 1,0.25,0.075,85,0.4961
556.625,556.625,278.8571,149,2.5,Viola,0.5,0.15,62,0.7087
556.625,556.625,278.8571,149,2.5,Violin 1,0.25,0.075,86,0.4961
556.625,556.625,278.8571,149,2.5,Viola,0.5,0.15,60,0.7087
556.875,556.875,278.9321,149,2.75,Violin 1,0.25,0.075,85,0.4961
557.125,557.125,279.0071,149,3.0,Viola,0.5,0.15,60,0.7087
557.125,557.125,279.0071,149,3.0,Viola,0.5,0.15,62,0.7087
557.125,557.125,279.0071,149,3.0,D Horn 2,1.0,0.3,50,0.4961
557.125,557.125,279.0071,149,3.0,Violin 1,0.25,0.075,86,0.4961
557.125,557.125,279.0071,149,3.0,Violin 2,2.0,0.6,66,0.4961
557.125,557.125,279.0071,149,3.0,D Horn 1,1.0,0.3,62,0.4961
557.375,557.375,279.0821,149,3.25,Violin 1,0.25,0.075,85,0.4961
557.625,557.625,279.1571,149,3.5,Viola,0.5,0.15,60,0.7087
557.625,557.625,279.1571,149,3.5,Viola,0.5,0.15,62,0.7087
557.625,557.625,279.1571,149,3.5,Violin 1,0.25,0.075,86,0.4961
557.875,557.875,279.2321,149,3.75,Violin 1,0.25,0.075,85,0.4961
558.125,558.125,279.3071,149,4.0,D Horn 2,1.0,0.3,50,0.4961
558.125,558.125,279.3071,149,4.0,Viola,0.5,0.15,60,0.7087
558.125,558.125,279.3071,149,4.0,Viola,0.5,0.15,62,0.7087
558.125,558.125,279.3071,149,4.0,D Horn 1,1.0,0.3,62,0.4961
558.125,558.125,279.3071,149,4.0,Violin 1,0.25,0.075,86,0.4961
558.375,558.375,279.3821,149,4.25,Violin 1,0.25,0.075,85,0.4961
558.625,558.625,279.4571,149,4.5,Violin 1,0.25,0.075,86,0.4961
558.625,558.625,279.4571,149,4.5,Viola,0.5,0.15,62,0.7087
558.625,558.625,279.4571,149,4.5,Viola,0.5,0.15,60,0.7087
558.875,558.875,279.5321,149,4.75,Violin 1,0.25,0.075,84,0.4961
559.125,559.125,279.6071,150,1.0,Bassoon 1,1.0,0.3,67,0.9921
559.125,559.125,279.6071,150,1.0,Viola,1.0,0.3,62,0.7087
559.125,559.125,279.6071,150,1.0,Viola,1.0,0.3,58,0.7087
559.125,559.125,279.6071,150,1.0,D Horn 1,1.0,0.3,62,0.9921
559.125,559.125,279.6071,150,1.0,Oboe 1,1.0,0.3,79,0.9921
559.125,559.125,279.6071,150,1.0,Violin 2,1.0,0.3,67,0.9921
559.125,559.125,279.6071,150,1.0,Contrabass,3.0,0.9,43,0.9921
559.125,559.125,279.6071,150,1.0,Violoncello,3.0,0.9,55,0.9921
559.125,559.125,279.6071,150,1.0,Violin 1,0.5,0.15,82,0.9921
559.125,559.125,279.6071,150,1.0,D Horn 2,1.0,0.3,50,0.9921
559.625,559.625,279.7571,150,1.5,Violin 1,0.5,0.15,84,0.9921
560.125,560.125,279.9071,150,2.0,Violin 1,0.5,0.15,86,1.0
560.125,560.125,279.9071,150,2.0,Violin 2,0.5,0.15,74,1.0
560.625,560.625,280.0571,150,2.5,Violin 1,0.5,0.15,84,1.0
560.625,560.625,280.0571,150,2.5,Violin 2,0.5,0.15,72,1.0
561.125,561.125,280.2071,150,3.0,Bassoon 2,2.0,0.6,55,1.0
561.125,561.125,280.2071,150,3.0,Bassoon 1,2.0,0.6,55,1.0
561.125,561.125,280.2071,150,3.0,Violin 2,0.5,0.15,70,1.0
561.125,561.125,280.2071,150,3.0,Violin 1,0.5,0.15,82,1.0
561.625,561.625,280.3571,150,3.5,Violin 1,0.5,0.15,84,1.0
561.625,561.625,280.3571,150,3.5,Violin 2,0.5,0.15,72,1.0
562.125,562.125,280.5071,150,4.0,Viola,0.25,0.075,55,0.9921
562.125,562.125,280.5071,150,4.0,Contrabass,0.25,0.075,43,0.9921
562.125,562.125,280.5071,150,4.0,Violoncello,0.25,0.075,55,0.9921
562.125,562.125,280.5071,150,4.0,Violin 2,0.5,0.15,69,1.0
562.125,562.125,280.5071,150,4.0,Violin 1,0.5,0.15,79,1.0
562.375,562.375,280.5821,150,4.25,Viola,0.25,0.075,54,0.9921
562.375,562.375,280.5821,150,4.25,Violoncello,0.25,0.075,54,0.9921
562.375,562.375,280.5821,150,4.25,Contrabass,0.25,0.075,42,0.9921
562.625,562.625,280.6571,150,4.5,Contrabass,0.25,0.075,43,0.9921
562.625,562.625,280.6571,150,4.5,Violoncello,0.25,0.075,55,0.9921
562.625,562.625,280.6571,150,4.5,Violin 1,0.5,0.15,82,1.0
562.625,562.625,280.6571,150,4.5,Violin 2,0.5,0.15,70,1.0
562.625,562.625,280.6571,150,4.5,Viola,0.25,0.075,55,0.9921
562.875,562.875,280.7321,150,4.75,Violoncello,0.25,0.075,57,0.9921
562.875,562.875,280.7321,150,4.75,Contrabass,0.25,0.075,45,0.9921
562.875,562.875,280.7321,150,4.75,Viola,0.25,0.075,57,0.9921
563.125,563.125,280.8071,151,1.0,Violin 1,0.5,0.15,79,1.0
563.125,563.125,280.8071,151,1.0,Contrabass,1.0,0.3,46,1.0
563.125,563.125,280.8071,151,1.0,Violin 2,0.5,0.15,67,1.0
563.125,563.125,280.8071,151,1.0,Viola,1.0,0.3,58,1.0
563.125,563.125,280.8071,151,1.0,Oboe 2,4.0,1.2,67,1.0
563.125,563.125,280.8071,151,1.0,Bassoon 1,4.0,1.2,55,1.0
563.125,563.125,280.8071,151,1.0,Oboe 1,4.0,1.2,79,1.0
563.125,563.125,280.8071,151,1.0,Bassoon 2,4.0,1.2,55,1.0
563.125,563.125,280.8071,151,1.0,Violoncello,1.0,0.3,58,1.0
563.625,563.625,280.9571,151,1.5,Violin 1,0.5,0.15,81,1.0
563.625,563.625,280.9571,151,1.5,Violin 2,0.5,0.15,69,1.0
564.125,564.125,281.1071,151,2.0,Violin 1,0.5,0.15,77,1.0
564.125,564.125,281.1071,151,2.0,Viola,1.0,0.3,59,1.0
564.125,564.125,281.1071,151,2.0,Violin 2,0.5,0.15,65,1.0
564.125,564.125,281.1071,151,2.0,Contrabass,1.0,0.3,47,1.0
564.125,564.125,281.1071,151,2.0,Violoncello,1.0,0.3,59,1.0
564.625,564.625,281.2571,151,2.5,Violin 1,0.5,0.15,79,1.0
564.625,564.625,281.2571,151,2.5,Violin 2,0.5,0.15,67,1.0
565.125,565.125,281.4071,151,3.0,Viola,1.0,0.3,60,1.0
565.125,565.125,281.4071,151,3.0,Violin 1,0.5,0.15,75,1.0
565.125,565.125,281.4071,151,3.0,Violoncello,1.0,0.3,60,1.0
565.125,565.125,281.4071,151,3.0,Flute 2,2.0,0.6,79,1.0
565.125,565.125,281.4071,151,3.0,Flute 1,2.0,0.6,91,1.0
565.125,565.125,281.4071,151,3.0,Contrabass,1.0,0.3,48,1.0
565.125,565.125,281.4071,151,3.0,Violin 2,0.5,0.15,63,1.0
565.625,565.625,281.5571,151,3.5,Violin 1,0.5,0.15,77,1.0
565.625,565.625,281.5571,151,3.5,Violin 2,0.5,0.15,65,1.0
566.125,566.125,281.7071,151,4.0,Violin 2,0.5,0.15,62,1.0
566.125,566.125,281.7071,151,4.0,Contrabass,1.0,0.3,50,1.0
566.125,566.125,281.7071,151,4.0,Violin 1,0.5,0.15,74,1.0
566.125,566.125,281.7071,151,4.0,Viola,1.0,0.3,62,1.0
566.125,566.125,281.7071,151,4.0,Violoncello,1.0,0.3,62,1.0
566.625,566.625,281.8571,151,4.5,Violin 2,0.5,0.15,63,1.0
566.625,566.625,281.8571,151,4.5,Violin 1,0.5,0.15,75,1.0
567.125,567.125,282.0071,152,1.0,Violin 2,3.0,0.9,60,1.0
567.125,567.125,282.0071,152,1.0,Flute 2,1.0,0.3,72,1.0
567.125,567.125,282.0071,152,1.0,Oboe 2,1.0,0.3,72,1.0
567.125,567.125,282.0071,152,1.0,Flute 1,1.0,0.3,84,1.0
567.125,567.125,282.0071,152,1.0,Bassoon 1,1.0,0.3,60,1.0
567.125,567.125,282.0071,152,1.0,Viola,0.5,0.15,63,1.0
567.125,567.125,282.0071,152,1.0,Violin 1,3.0,0.9,72,1.0
567.125,567.125,282.0071,152,1.0,Contrabass,0.5,0.15,51,1.0
567.125,567.125,282.0071,152,1.0,Violoncello,0.5,0.15,63,1.0
567.125,567.125,282.0071,152,1.0,Bassoon 2,1.0,0.3,48,1.0
567.125,567.125,282.0071,152,1.0,Oboe 1,1.0,0.3,72,1.0
567.625,567.625,282.1571,152,1.5,Contrabass,0.5,0.15,53,1.0
567.625,567.625,282.1571,152,1.5,Violoncello,0.5,0.15,65,1.0
567.625,567.625,282.1571,152,1.5,Viola,0.5,0.15,65,1.0
568.125,568.125,282.3071,152,2.0,Contrabass,0.5,0.15,55,1.0
568.125,568.125,282.3071,152,2.0,Viola,0.5,0.15,67,1.0
568.125,568.125,282.3071,152,2.0,Violoncello,0.5,0.15,67,1.0
568.625,568.625,282.4571,152,2.5,Contrabass,0.5,0.15,53,1.0
568.625,568.625,282.4571,152,2.5,Violoncello,0.5,0.15,65,1.0
568.625,568.625,282.4571,152,2.5,Viola,0.5,0.15,65,1.0
569.125,569.125,282.6071,152,3.0,Violoncello,0.5,0.15,63,1.0
569.125,569.125,282.6071,152,3.0,Viola,0.5,0.15,63,1.0
569.125,569.125,282.6071,152,3.0,Contrabass,0.5,0.15,51,1.0
569.125,569.125,282.6071,152,3.0,Bassoon 2,2.0,0.6,48,1.0
569.125,569.125,282.6071,152,3.0,Bassoon 1,2.0,0.6,60,1.0
569.625,569.625,282.7571,152,3.5,Contrabass,0.5,0.15,53,1.0
569.625,569.625,282.7571,152,3.5,Violoncello,0.5,0.15,65,1.0
569.625,569.625,282.7571,152,3.5,Viola,0.5,0.15,65,1.0
570.125,570.125,282.9071,152,4.0,Violin 1,0.25,0.075,72,1.0
570.125,570.125,282.9071,152,4.0,Viola,0.5,0.15,62,1.0
570.125,570.125,282.9071,152,4.0,Violoncello,0.5,0.15,62,1.0
570.125,570.125,282.9071,152,4.0,Contrabass,0.5,0.15,50,1.0
570.125,570.125,282.9071,152,4.0,Violin 2,0.25,0.075,60,1.0
570.375,570.375,282.9821,152,4.25,Violin 2,0.25,0.075,59,1.0
570.375,570.375,282.9821,152,4.25,Violin 1,0.25,0.075,71,1.0
570.625,570.625,283.0571,152,4.5,Viola,0.5,0.15,63,1.0
570.625,570.625,283.0571,152,4.5,Violoncello,0.5,0.15,63,1.0
570.625,570.625,283.0571,152,4.5,Contrabass,0.5,0.15,51,1.0
570.625,570.625,283.0571,152,4.5,Violin 2,0.25,0.075,60,1.0
570.625,570.625,283.0571,152,4.5,Violin 1,0.25,0.075,72,1.0
570.875,570.875,283.1321,152,4.75,Violin 2,0.25,0.075,62,1.0
570.875,570.875,283.1321,152,4.75,Violin 1,0.25,0.075,74,1.0
571.125,571.125,283.2071,153,1.0,Violoncello,0.5,0.15,60,1.0
571.125,571.125,283.2071,153,1.0,Contrabass,0.5,0.15,48,1.0
571.125,571.125,283.2071,153,1.0,Viola,0.5,0.15,60,1.0
571.125,571.125,283.2071,153,1.0,Oboe 1,4.0,1.2,72,1.0
571.125,571.125,283.2071,153,1.0,Violin 1,1.0,0.3,75,1.0
571.125,571.125,283.2071,153,1.0,Violin 2,1.0,0.3,63,1.0
571.125,571.125,283.2071,153,1.0,Oboe 2,4.0,1.2,72,1.0
571.125,571.125,283.2071,153,1.0,Bassoon 1,4.0,1.2,60,1.0
571.125,571.125,283.2071,153,1.0,Bassoon 2,4.0,1.2,48,1.0
571.625,571.625,283.3571,153,1.5,Violoncello,0.5,0.15,62,1.0
571.625,571.625,283.3571,153,1.5,Contrabass,0.5,0.15,50,1.0
571.625,571.625,283.3571,153,1.5,Viola,0.5,0.15,62,1.0
572.125,572.125,283.5071,153,2.0,Violoncello,0.5,0.15,58,1.0
572.125,572.125,283.5071,153,2.0,Violin 1,1.0,0.3,76,1.0
572.125,572.125,283.5071,153,2.0,Violin 2,1.0,0.3,64,1.0
572.125,572.125,283.5071,153,2.0,Contrabass,0.5,0.15,46,1.0
572.125,572.125,283.5071,153,2.0,Viola,0.5,0.15,58,1.0
572.625,572.625,283.6571,153,2.5,Violoncello,0.5,0.15,60,1.0
572.625,572.625,283.6571,153,2.5,Viola,0.5,0.15,60,1.0
572.625,572.625,283.6571,153,2.5,Contrabass,0.5,0.15,48,1.0
573.125,573.125,283.8071,153,3.0,Violoncello,0.5,0.15,57,1.0
573.125,573.125,283.8071,153,3.0,Viola,0.5,0.15,57,1.0
573.125,573.125,283.8071,153,3.0,Violin 1,1.0,0.3,77,1.0
573.125,573.125,283.8071,153,3.0,Contrabass,0.5,0.15,45,1.0
573.125,573.125,283.8071,153,3.0,Violin 2,1.0,0.3,65,1.0
573.125,573.125,283.8071,153,3.0,Flute 2,2.0,0.6,84,1.0
573.125,573.125,283.8071,153,3.0,Flute 1,2.0,0.6,84,1.0
573.625,573.625,283.9571,153,3.5,Contrabass,0.5,0.15,46,1.0
573.625,573.625,283.9571,153,3.5,Viola,0.5,0.15,58,1.0
573.625,573.625,283.9571,153,3.5,Violoncello,0.5,0.15,58,1.0
574.125,574.125,284.1071,153,4.0,Viola,0.5,0.15,55,1.0
574.125,574.125,284.1071,153,4.0,Violin 1,1.0,0.3,79,1.0
574.125,574.125,284.1071,153,4.0,Contrabass,0.5,0.15,43,1.0
574.125,574.125,284.1071,153,4.0,Violoncello,0.5,0.15,55,1.0
574.125,574.125,284.1071,153,4.0,Violin 2,1.0,0.3,67,1.0
574.625,574.625,284.2571,153,4.5,Violoncello,0.5,0.15,57,1.0
574.625,574.625,284.2571,153,4.5,Viola,0.5,0.15,57,1.0
574.625,574.625,284.2571,153,4.5,Contrabass,0.5,0.15,45,1.0
575.125,575.125,284.4071,154,1.0,Viola,3.0,0.9,53,1.0
575.125,575.125,284.4071,154,1.0,Violin 1,0.5,0.15,81,1.0
575.125,575.125,284.4071,154,1.0,Contrabass,3.0,0.9,41,1.0
575.125,575.125,284.4071,154,1.0,Oboe 1,1.0,0.3,77,1.0
575.125,575.125,284.4071,154,1.0,Bassoon 1,1.0,0.3,53,1.0
575.125,575.125,284.4071,154,1.0,Bassoon 2,1.0,0.3,53,1.0
575.125,575.125,284.4071,154,1.0,Oboe 2,1.0,0.3,77,1.0
575.125,575.125,284.4071,154,1.0,Flute 2,1.0,0.3,77,1.0
575.125,575.125,284.4071,154,1.0,Violoncello,3.0,0.9,53,1.0
575.125,575.125,284.4071,154,1.0,Flute 1,1.0,0.3,89,1.0
575.125,575.125,284.4071,154,1.0,Violin 2,0.5,0.15,69,1.0
575.625,575.625,284.5571,154,1.5,Violin 2,0.5,0.15,70,1.0
575.625,575.625,284.5571,154,1.5,Violin 1,0.5,0.15,82,1.0
576.125,576.125,284.7071,154,2.0,Violin 2,0.5,0.15,72,1.0
576.125,576.125,284.7071,154,2.0,Violin 1,0.5,0.15,84,1.0
576.625,576.625,284.8571,154,2.5,Violin 2,0.5,0.15,70,1.0
576.625,576.625,284.8571,154,2.5,Violin 1,0.5,0.15,82,1.0
577.125,577.125,285.0071,154,3.0,Bassoon 2,2.0,0.6,53,1.0
577.125,577.125,285.0071,154,3.0,Violin 1,0.5,0.15,81,1.0
577.125,577.125,285.0071,154,3.0,Bassoon 1,2.0,0.6,65,1.0
577.125,577.125,285.0071,154,3.0,Violin 2,0.5,0.15,69,1.0
577.625,577.625,285.1571,154,3.5,Violin 1,0.5,0.15,82,1.0
577.625,577.625,285.1571,154,3.5,Violin 2,0.5,0.15,70,1.0
578.125,578.125,285.3071,154,4.0,Violoncello,0.25,0.075,53,1.0
578.125,578.125,285.3071,154,4.0,Viola,0.25,0.075,53,1.0
578.125,578.125,285.3071,154,4.0,Violin 1,0.5,0.15,79,1.0
578.125,578.125,285.3071,154,4.0,Contrabass,0.25,0.075,41,1.0
578.125,578.125,285.3071,154,4.0,Violin 2,0.5,0.15,67,1.0
578.375,578.375,285.3821,154,4.25,Violoncello,0.25,0.075,52,1.0
578.375,578.375,285.3821,154,4.25,Contrabass,0.25,0.075,40,1.0
578.375,578.375,285.3821,154,4.25,Viola,0.25,0.075,52,1.0
578.625,578.625,285.4571,154,4.5,Violin 2,0.5,0.15,69,1.0
578.625,578.625,285.4571,154,4.5,Viola,0.25,0.075,53,1.0
578.625,578.625,285.4571,154,4.5,Violoncello,0.25,0.075,53,1.0
578.625,578.625,285.4571,154,4.5,Violin 1,0.5,0.15,81,1.0
578.625,578.625,285.4571,154,4.5,Contrabass,0.25,0.075,41,1.0
578.875,578.875,285.5321,154,4.75,Viola,0.25,0.075,55,1.0
578.875,578.875,285.5321,154,4.75,Violoncello,0.25,0.075,55,1.0
578.875,578.875,285.5321,154,4.75,Contrabass,0.25,0.075,43,1.0
579.125,579.125,285.6071,155,1.0,Bassoon 2,4.0,1.2,53,1.0
579.125,579.125,285.6071,155,1.0,Oboe 1,4.0,1.2,77,1.0
579.125,579.125,285.6071,155,1.0,Violoncello,1.0,0.3,56,1.0
579.125,579.125,285.6071,155,1.0,Viola,1.0,0.3,56,1.0
579.125,579.125,285.6071,155,1.0,Oboe 2,4.0,1.2,77,1.0
579.125,579.125,285.6071,155,1.0,Bassoon 1,4.0,1.2,65,1.0
579.125,579.125,285.6071,155,1.0,Violin 1,0.5,0.15,77,1.0
579.125,579.125,285.6071,155,1.0,Violin 2,0.5,0.15,65,1.0
579.125,579.125,285.6071,155,1.0,Contrabass,1.0,0.3,44,1.0
579.625,579.625,285.7571,155,1.5,Violin 1,0.5,0.15,79,1.0
579.625,579.625,285.7571,155,1.5,Violin 2,0.5,0.15,67,1.0
580.125,580.125,285.9071,155,2.0,Contrabass,1.0,0.3,45,1.0
580.125,580.125,285.9071,155,2.0,Viola,1.0,0.3,57,1.0
580.125,580.125,285.9071,155,2.0,Violoncello,1.0,0.3,57,1.0
580.125,580.125,285.9071,155,2.0,Violin 1,0.5,0.15,75,1.0
580.125,580.125,285.9071,155,2.0,Violin 2,0.5,0.15,63,1.0
580.625,580.625,286.0571,155,2.5,Violin 1,0.5,0.15,77,1.0
580.625,580.625,286.0571,155,2.5,Violin 2,0.5,0.15,65,1.0
581.125,581.125,286.2071,155,3.0,Flute 1,2.0,0.6,89,1.0
581.125,581.125,286.2071,155,3.0,Viola,1.0,0.3,58,1.0
581.125,581.125,286.2071,155,3.0,Violin 2,0.5,0.15,62,1.0
581.125,581.125,286.2071,155,3.0,Violoncello,1.0,0.3,58,1.0
581.125,581.125,286.2071,155,3.0,Contrabass,1.0,0.3,46,1.0
581.125,581.125,286.2071,155,3.0,Flute 2,2.0,0.6,77,1.0
581.125,581.125,286.2071,155,3.0,Violin 1,0.5,0.15,74,1.0
581.625,581.625,286.3571,155,3.5,Violin 1,0.5,0.15,75,1.0
581.625,581.625,286.3571,155,3.5,Violin 2,0.5,0.15,63,1.0
582.125,582.125,286.5071,155,4.0,Violoncello,1.0,0.3,60,1.0
582.125,582.125,286.5071,155,4.0,Violin 1,0.5,0.15,72,1.0
582.125,582.125,286.5071,155,4.0,Contrabass,1.0,0.3,48,1.0
582.125,582.125,286.5071,155,4.0,Violin 2,0.5,0.15,60,1.0
582.125,582.125,286.5071,155,4.0,Viola,1.0,0.3,60,1.0
582.625,582.625,286.6571,155,4.5,Violin 2,0.5,0.15,62,1.0
582.625,582.625,286.6571,155,4.5,Violin 1,0.5,0.15,74,1.0
583.125,583.125,286.8071,156,1.0,Bassoon 2,1.0,0.3,58,1.0
583.125,583.125,286.8071,156,1.0,Oboe 1,1.0,0.3,70,1.0
583.125,583.125,286.8071,156,1.0,Violin 1,3.0,0.9,70,1.0
583.125,583.125,286.8071,156,1.0,Flute 2,1.0,0.3,70,1.0
583.125,583.125,286.8071,156,1.0,Bassoon 1,1.0,0.3,58,1.0
583.125,583.125,286.8071,156,1.0,Violin 2,3.0,0.9,58,1.0
583.125,583.125,286.8071,156,1.0,Contrabass,0.5,0.15,50,1.0
583.125,583.125,286.8071,156,1.0,Oboe 2,1.0,0.3,70,1.0
583.125,583.125,286.8071,156,1.0,Violoncello,0.5,0.15,62,1.0
583.125,583.125,286.8071,156,1.0,Flute 1,1.0,0.3,82,1.0
583.125,583.125,286.8071,156,1.0,Viola,0.5,0.15,62,1.0
583.625,583.625,286.9571,156,1.5,Violoncello,0.5,0.15,63,1.0
583.625,583.625,286.9571,156,1.5,Viola,0.5,0.15,63,1.0
583.625,583.625,286.9571,156,1.5,Contrabass,0.5,0.15,51,1.0
584.125,584.125,287.1071,156,2.0,Violoncello,0.5,0.15,65,1.0
584.125,584.125,287.1071,156,2.0,Viola,0.5,0.15,65,1.0
584.125,584.125,287.1071,156,2.0,Contrabass,0.5,0.15,53,1.0
584.625,584.625,287.2571,156,2.5,Violoncello,0.5,0.15,63,1.0
584.625,584.625,287.2571,156,2.5,Viola,0.5,0.15,63,1.0
584.625,584.625,287.2571,156,2.5,Contrabass,0.5,0.15,51,1.0
585.125,585.125,287.4071,156,3.0,Contrabass,0.5,0.15,50,1.0
585.125,585.125,287.4071,156,3.0,Viola,0.5,0.15,62,1.0
585.125,585.125,287.4071,156,3.0,Bassoon 1,2.0,0.6,58,1.0
585.125,585.125,287.4071,156,3.0,Violoncello,0.5,0.15,62,1.0
585.625,585.625,287.5571,156,3.5,Viola,0.5,0.15,63,1.0
585.625,585.625,287.5571,156,3.5,Contrabass,0.5,0.15,51,1.0
585.625,585.625,287.5571,156,3.5,Violoncello,0.5,0.15,63,1.0
586.125,586.125,287.7071,156,4.0,Viola,0.5,0.15,60,1.0
586.125,586.125,287.7071,156,4.0,Violin 1,0.25,0.075,70,1.0
586.125,586.125,287.7071,156,4.0,Violin 2,0.25,0.075,58,1.0
586.125,586.125,287.7071,156,4.0,Violoncello,0.5,0.15,60,1.0
586.125,586.125,287.7071,156,4.0,Contrabass,0.5,0.15,48,1.0
586.375,586.375,287.7821,156,4.25,Violin 1,0.25,0.075,69,1.0
586.375,586.375,287.7821,156,4.25,Violin 2,0.25,0.075,57,1.0
586.625,586.625,287.8571,156,4.5,Violin 1,0.25,0.075,70,1.0
586.625,586.625,287.8571,156,4.5,Violin 2,0.25,0.075,58,1.0
586.625,586.625,287.8571,156,4.5,Violoncello,0.5,0.15,62,1.0
586.625,586.625,287.8571,156,4.5,Contrabass,0.5,0.15,50,1.0
586.625,586.625,287.8571,156,4.5,Viola,0.5,0.15,62,1.0
586.875,586.875,287.9321,156,4.75,Violin 1,0.25,0.075,72,1.0
586.875,586.875,287.9321,156,4.75,Violin 2,0.25,0.075,60,1.0
587.125,587.125,288.0071,157,1.0,Contrabass,0.5,0.15,46,1.0
587.125,587.125,288.0071,157,1.0,Violin 1,1.0,0.3,74,1.0
587.125,587.125,288.0071,157,1.0,Oboe 2,2.0,0.6,70,1.0
587.125,587.125,288.0071,157,1.0,Violin 2,1.0,0.3,62,1.0
587.125,587.125,288.0071,157,1.0,Oboe 1,2.0,0.6,70,1.0
587.125,587.125,288.0071,157,1.0,Viola,0.5,0.15,58,1.0
587.125,587.125,288.0071,157,1.0,Violoncello,0.5,0.15,58,1.0
587.125,587.125,288.0071,157,1.0,Bassoon 1,2.0,0.6,58,1.0
587.625,587.625,288.1571,157,1.5,Violoncello,0.5,0.15,60,1.0
587.625,587.625,288.1571,157,1.5,Viola,0.5,0.15,60,1.0
587.625,587.625,288.1571,157,1.5,Contrabass,0.5,0.15,48,1.0
588.125,588.125,288.3071,157,2.0,Violoncello,0.5,0.15,57,1.0
588.125,588.125,288.3071,157,2.0,Violin 1,1.0,0.3,74,1.0
588.125,588.125,288.3071,157,2.0,Viola,0.5,0.15,57,1.0
588.125,588.125,288.3071,157,2.0,Violin 2,1.0,0.3,62,1.0
588.125,588.125,288.3071,157,2.0,Contrabass,0.5,0.15,45,1.0
588.625,588.625,288.4571,157,2.5,Contrabass,0.5,0.15,46,1.0
588.625,588.625,288.4571,157,2.5,Violoncello,0.5,0.15,58,1.0
588.625,588.625,288.4571,157,2.5,Viola,0.5,0.15,58,1.0
589.125,589.125,288.6071,157,3.0,Bassoon 1,0.5,0.15,58,1.0
589.125,589.125,288.6071,157,3.0,Flute 2,0.5,0.15,82,1.0
589.125,589.125,288.6071,157,3.0,Oboe 1,0.5,0.15,70,1.0
589.125,589.125,288.6071,157,3.0,Flute 1,0.5,0.15,82,1.0
589.125,589.125,288.6071,157,3.0,Violin 1,1.0,0.3,76,1.0
589.125,589.125,288.6071,157,3.0,Oboe 2,0.5,0.15,70,1.0
589.125,589.125,288.6071,157,3.0,Viola,0.5,0.15,55,1.0
589.125,589.125,288.6071,157,3.0,Violin 2,1.0,0.3,64,1.0
589.125,589.125,288.6071,157,3.0,Violoncello,0.5,0.15,55,1.0
589.125,589.125,288.6071,157,3.0,Contrabass,0.5,0.15,43,1.0
589.625,589.625,288.7571,157,3.5,Bassoon 1,0.5,0.15,60,1.0
589.625,589.625,288.7571,157,3.5,Oboe 2,0.5,0.15,72,1.0
589.625,589.625,288.7571,157,3.5,Contrabass,0.5,0.15,45,1.0
589.625,589.625,288.7571,157,3.5,Flute 1,0.5,0.15,84,1.0
589.625,589.625,288.7571,157,3.5,Oboe 1,0.5,0.15,72,1.0
589.625,589.625,288.7571,157,3.5,Flute 2,0.5,0.15,84,1.0
589.625,589.625,288.7571,157,3.5,Violoncello,0.5,0.15,57,1.0
589.625,589.625,288.7571,157,3.5,Viola,0.5,0.15,57,1.0
590.125,590.125,288.9071,157,4.0,Bassoon 1,0.5,0.15,57,1.0
590.125,590.125,288.9071,157,4.0,Flute 1,0.5,0.15,81,1.0
590.125,590.125,288.9071,157,4.0,Violin 1,1.0,0.3,77,1.0
590.125,590.125,288.9071,157,4.0,Flute 2,0.5,0.15,81,1.0
590.125,590.125,288.9071,157,4.0,Violoncello,0.5,0.15,53,1.0
590.125,590.125,288.9071,157,4.0,Oboe 2,0.5,0.15,69,1.0
590.125,590.125,288.9071,157,4.0,Violin 2,1.0,0.3,65,1.0
590.125,590.125,288.9071,157,4.0,Contrabass,0.5,0.15,41,1.0
590.125,590.125,288.9071,157,4.0,Oboe 1,0.5,0.15,69,1.0
590.125,590.125,288.9071,157,4.0,Viola,0.5,0.15,53,1.0
590.625,590.625,289.0571,157,4.5,Flute 2,0.5,0.15,82,1.0
590.625,590.625,289.0571,157,4.5,Violoncello,0.5,0.15,55,1.0
590.625,590.625,289.0571,157,4.5,Bassoon 1,0.5,0.15,58,1.0
590.625,590.625,289.0571,157,4.5,Viola,0.5,0.15,55,1.0
590.625,590.625,289.0571,157,4.5,Contrabass,0.5,0.15,43,1.0
590.625,590.625,289.0571,157,4.5,Flute 1,0.5,0.15,82,1.0
590.625,590.625,289.0571,157,4.5,Oboe 1,0.5,0.15,70,1.0
590.625,590.625,289.0571,157,4.5,Oboe 2,0.5,0.15,70,1.0
591.125,591.125,289.2071,158,1.0,Contrabass,1.0,0.3,40,1.0
591.125,591.125,289.2071,158,1.0,D Trumpet 2,4.0,1.2,76,1.0
591.125,591.125,289.2071,158,1.0,Flute 1,1.0,0.3,79,1.0
591.125,591.125,289.2071,158,1.0,Violoncello,1.0,0.3,52,1.0
591.125,591.125,289.2071,158,1.0,Violin 2,0.5,0.15,67,1.0
591.125,591.125,289.2071,158,1.0,Flute 2,1.0,0.3,79,1.0
591.125,591.125,289.2071,158,1.0,Oboe 2,1.0,0.3,67,1.0
591.125,591.125,289.2071,158,1.0,Viola,1.0,0.3,52,1.0
591.125,591.125,289.2071,158,1.0,Oboe 1,1.0,0.3,67,1.0
591.125,591.125,289.2071,158,1.0,D Trumpet 1,4.0,1.2,76,1.0
591.125,591.125,289.2071,158,1.0,Violin 1,0.5,0.15,79,1.0
591.125,591.125,289.2071,158,1.0,Bassoon 1,1.0,0.3,55,1.0
591.625,591.625,289.3571,158,1.5,Violin 1,0.5,0.15,81,1.0
591.625,591.625,289.3571,158,1.5,Violin 2,0.5,0.15,69,1.0
592.125,592.125,289.5071,158,2.0,Contrabass,1.0,0.3,41,1.0
592.125,592.125,289.5071,158,2.0,Violin 2,0.5,0.15,65,1.0
592.125,592.125,289.5071,158,2.0,Violin 1,0.5,0.15,77,1.0
592.125,592.125,289.5071,158,2.0,Violoncello,1.0,0.3,53,1.0
592.125,592.125,289.5071,158,2.0,Viola,1.0,0.3,65,1.0
592.625,592.625,289.6571,158,2.5,Violin 2,0.5,0.15,67,1.0
592.625,592.625,289.6571,158,2.5,Violin 1,0.5,0.15,79,1.0
593.125,593.125,289.8071,158,3.0,Viola,1.0,0.3,67,1.0
593.125,593.125,289.8071,158,3.0,Violin 1,0.5,0.15,76,1.0
593.125,593.125,289.8071,158,3.0,Violoncello,1.0,0.3,55,1.0
593.125,593.125,289.8071,158,3.0,Contrabass,1.0,0.3,43,1.0
593.125,593.125,289.8071,158,3.0,Flute 2,0.5,0.15,79,1.0
593.125,593.125,289.8071,158,3.0,Flute 1,0.5,0.15,79,1.0
593.125,593.125,289.8071,158,3.0,Violin 2,0.5,0.15,64,1.0
593.625,593.625,289.9571,158,3.5,Violin 2,0.5,0.15,65,1.0
593.625,593.625,289.9571,158,3.5,Violin 1,0.5,0.15,77,1.0
593.625,593.625,289.9571,158,3.5,Flute 2,0.5,0.15,81,1.0
593.625,593.625,289.9571,158,3.5,Flute 1,0.5,0.15,81,1.0
594.125,594.125,290.1071,158,4.0,Violoncello,1.0,0.3,56,1.0
594.125,594.125,290.1071,158,4.0,Viola,1.0,0.3,68,1.0
594.125,594.125,290.1071,158,4.0,Contrabass,1.0,0.3,44,1.0
594.125,594.125,290.1071,158,4.0,Violin 1,0.5,0.15,74,1.0
594.125,594.125,290.1071,158,4.0,Flute 2,0.5,0.15,77,1.0
594.125,594.125,290.1071,158,4.0,Flute 1,0.5,0.15,77,1.0
594.125,594.125,290.1071,158,4.0,Violin 2,0.5,0.15,62,1.0
594.625,594.625,290.2571,158,4.5,Violin 1,0.5,0.15,76,1.0
594.625,594.625,290.2571,158,4.5,Flute 2,0.5,0.15,79,1.0
594.625,594.625,290.2571,158,4.5,Flute 1,0.5,0.15,79,1.0
594.625,594.625,290.2571,158,4.5,Violin 2,0.5,0.15,64,1.0
595.125,595.125,290.4071,159,1.0,D Horn 2,4.0,1.2,57,1.0
595.125,595.125,290.4071,159,1.0,Flute 2,1.0,0.3,76,1.0
595.125,595.125,290.4071,159,1.0,Violoncello,4.0,1.2,57,1.0
595.125,595.125,290.4071,159,1.0,Bassoon 1,0.5,0.15,57,1.0
595.125,595.125,290.4071,159,1.0,Viola,4.0,1.2,69,1.0
595.125,595.125,290.4071,159,1.0,Oboe 2,0.5,0.15,69,1.0
595.125,595.125,290.4071,159,1.0,D Horn 1,4.0,1.2,69,1.0
595.125,595.125,290.4071,159,1.0,Contrabass,4.0,1.2,45,1.0
595.125,595.125,290.4071,159,1.0,Violin 2,4.0,1.2,61,1.0
595.125,595.125,290.4071,159,1.0,D Trumpet 2,1.0,0.3,69,1.0
595.125,595.125,290.4071,159,1.0,Flute 1,1.0,0.3,76,1.0
595.125,595.125,290.4071,159,1.0,Violin 1,4.0,1.2,73,1.0
595.125,595.125,290.4071,159,1.0,Oboe 1,0.5,0.15,81,1.0
595.125,595.125,290.4071,159,1.0,D Trumpet 1,1.0,0.3,69,1.0
595.125,595.125,290.4071,159,1.0,Bassoon 2,4.0,1.2,57,1.0
595.625,595.625,290.5571,159,1.5,Oboe 2,0.5,0.15,70,1.0
595.625,595.625,290.5571,159,1.5,Oboe 1,0.5,0.15,82,1.0
595.625,595.625,290.5571,159,1.5,Bassoon 1,0.5,0.15,58,1.0
596.125,596.125,290.7071,159,2.0,Oboe 2,0.5,0.15,67,1.0
596.125,596.125,290.7071,159,2.0,Bassoon 1,0.5,0.15,55,1.0
596.125,596.125,290.7071,159,2.0,Oboe 1,0.5,0.15,79,1.0
596.625,596.625,290.8571,159,2.5,Oboe 2,0.5,0.15,69,1.0
596.625,596.625,290.8571,159,2.5,Bassoon 1,0.5,0.15,57,1.0
596.625,596.625,290.8571,159,2.5,Oboe 1,0.5,0.15,81,1.0
597.125,597.125,291.0071,159,3.0,Oboe 1,0.5,0.15,77,1.0
597.125,597.125,291.0071,159,3.0,Flute 2,0.5,0.15,69,1.0
597.125,597.125,291.0071,159,3.0,Oboe 2,0.5,0.15,65,1.0
597.125,597.125,291.0071,159,3.0,Flute 1,0.5,0.15,81,1.0
597.125,597.125,291.0071,159,3.0,Bassoon 1,0.5,0.15,53,1.0
597.625,597.625,291.1571,159,3.5,Oboe 1,0.5,0.15,79,1.0
597.625,597.625,291.1571,159,3.5,Bassoon 1,0.5,0.15,55,1.0
597.625,597.625,291.1571,159,3.5,Flute 2,0.5,0.15,70,1.0
597.625,597.625,291.1571,159,3.5,Flute 1,0.5,0.15,82,1.0
597.625,597.625,291.1571,159,3.5,Oboe 2,0.5,0.15,67,1.0
598.125,598.125,291.3071,159,4.0,Oboe 1,0.5,0.15,76,1.0
598.125,598.125,291.3071,159,4.0,Bassoon 1,0.5,0.15,52,1.0
598.125,598.125,291.3071,159,4.0,Oboe 2,0.5,0.15,64,1.0
598.125,598.125,291.3071,159,4.0,Flute 1,0.5,0.15,79,1.0
598.125,598.125,291.3071,159,4.0,Flute 2,0.5,0.15,67,1.0
598.625,598.625,291.4571,159,4.5,Flute 2,0.5,0.15,69,1.0
598.625,598.625,291.4571,159,4.5,Flute 1,0.5,0.15,81,1.0
598.625,598.625,291.4571,159,4.5,Bassoon 1,0.5,0.15,53,1.0
598.625,598.625,291.4571,159,4.5,Oboe 1,0.5,0.15,77,1.0
598.625,598.625,291.4571,159,4.5,Oboe 2,0.5,0.15,65,1.0
599.125,599.125,291.6071,160,1.0,D Horn 1,1.0,0.3,62,1.0
599.125,599.125,291.6071,160,1.0,Contrabass,1.0,0.3,38,1.0
599.125,599.125,291.6071,160,1.0,Bassoon 1,1.0,0.3,50,1.0
599.125,599.125,291.6071,160,1.0,Flute 1,1.0,0.3,77,1.0
599.125,599.125,291.6071,160,1.0,Flute 2,1.0,0.3,65,1.0
599.125,599.125,291.6071,160,1.0,D Trumpet 2,4.0,1.2,74,1.0
599.125,599.125,291.6071,160,1.0,D Horn 2,1.0,0.3,50,1.0
599.125,599.125,291.6071,160,1.0,Oboe 2,1.0,0.3,62,1.0
599.125,599.125,291.6071,160,1.0,Violin 1,0.5,0.15,77,1.0
599.125,599.125,291.6071,160,1.0,Oboe 1,1.0,0.3,74,1.0
599.125,599.125,291.6071,160,1.0,Bassoon 2,1.0,0.3,50,1.0
599.125,599.125,291.6071,160,1.0,Violoncello,1.0,0.3,50,1.0
599.125,599.125,291.6071,160,1.0,Violin 2,0.5,0.15,65,1.0
599.125,599.125,291.6071,160,1.0,D Trumpet 1,4.0,1.2,74,1.0
599.125,599.125,291.6071,160,1.0,Viola,1.0,0.3,62,1.0
599.625,599.625,291.7571,160,1.5,Violin 1,0.5,0.15,79,1.0
599.625,599.625,291.7571,160,1.5,Violin 2,0.5,0.15,67,1.0
600.125,600.125,291.9071,160,2.0,Bassoon 2,1.0,0.3,52,1.0
600.125,600.125,291.9071,160,2.0,Violoncello,1.0,0.3,52,1.0
600.125,600.125,291.9071,160,2.0,Violin 1,0.5,0.15,76,1.0
600.125,600.125,291.9071,160,2.0,Violin 2,0.5,0.15,64,1.0
600.125,600.125,291.9071,160,2.0,Contrabass,1.0,0.3,40,1.0
600.125,600.125,291.9071,160,2.0,Viola,1.0,0.3,64,1.0
600.625,600.625,292.0571,160,2.5,Violin 2,0.5,0.15,65,1.0
600.625,600.625,292.0571,160,2.5,Violin 1,0.5,0.15,77,1.0
601.125,601.125,292.2071,160,3.0,Violin 2,0.5,0.15,62,1.0
601.125,601.125,292.2071,160,3.0,Viola,1.0,0.3,65,1.0
601.125,601.125,292.2071,160,3.0,Violoncello,1.0,0.3,53,1.0
601.125,601.125,292.2071,160,3.0,Contrabass,1.0,0.3,41,1.0
601.125,601.125,292.2071,160,3.0,Flute 1,0.5,0.15,77,1.0
601.125,601.125,292.2071,160,3.0,Violin 1,0.5,0.15,74,1.0
601.125,601.125,292.2071,160,3.0,Bassoon 2,1.0,0.3,53,1.0
601.625,601.625,292.3571,160,3.5,Violin 2,0.5,0.15,64,1.0
601.625,601.625,292.3571,160,3.5,Violin 1,0.5,0.15,76,1.0
601.625,601.625,292.3571,160,3.5,Flute 1,0.5,0.15,79,1.0
602.125,602.125,292.5071,160,4.0,Bassoon 2,1.0,0.3,54,1.0
602.125,602.125,292.5071,160,4.0,Violin 1,0.5,0.15,72,1.0
602.125,602.125,292.5071,160,4.0,Violoncello,1.0,0.3,54,1.0
602.125,602.125,292.5071,160,4.0,Violin 2,0.5,0.15,60,1.0
602.125,602.125,292.5071,160,4.0,Viola,1.0,0.3,66,1.0
602.125,602.125,292.5071,160,4.0,Contrabass,1.0,0.3,42,1.0
602.125,602.125,292.5071,160,4.0,Flute 1,0.5,0.15,76,1.0
602.625,602.625,292.6571,160,4.5,Violin 2,0.5,0.15,62,1.0
602.625,602.625,292.6571,160,4.5,Flute 1,0.5,0.15,77,1.0
602.625,602.625,292.6571,160,4.5,Violin 1,0.5,0.15,74,1.0
603.125,603.125,292.8071,161,1.0,D Horn 1,4.0,1.2,67,1.0
603.125,603.125,292.8071,161,1.0,Bassoon 1,0.5,0.15,55,1.0
603.125,603.125,292.8071,161,1.0,Oboe 1,0.5,0.15,79,1.0
603.125,603.125,292.8071,161,1.0,Viola,4.0,1.2,67,1.0
603.125,603.125,292.8071,161,1.0,Violin 1,4.0,1.2,71,1.0
603.125,603.125,292.8071,161,1.0,Violin 2,4.0,1.2,59,1.0
603.125,603.125,292.8071,161,1.0,Contrabass,4.0,1.2,43,1.0
603.125,603.125,292.8071,161,1.0,Bassoon 2,4.0,1.2,55,1.0
603.125,603.125,292.8071,161,1.0,D Trumpet 2,1.0,0.3,74,1.0
603.125,603.125,292.8071,161,1.0,Violoncello,4.0,1.2,55,1.0
603.125,603.125,292.8071,161,1.0,Oboe 2,0.5,0.15,67,1.0
603.125,603.125,292.8071,161,1.0,D Trumpet 1,1.0,0.3,74,1.0
603.125,603.125,292.8071,161,1.0,D Horn 2,4.0,1.2,67,1.0
603.125,603.125,292.8071,161,1.0,Flute 1,1.0,0.3,74,1.0
603.625,603.625,292.9571,161,1.5,Bassoon 1,0.5,0.15,57,1.0
603.625,603.625,292.9571,161,1.5,Oboe 2,0.5,0.15,69,1.0
603.625,603.625,292.9571,161,1.5,Oboe 1,0.5,0.15,81,1.0
604.125,604.125,293.1071,161,2.0,Bassoon 1,0.5,0.15,53,1.0
604.125,604.125,293.1071,161,2.0,Oboe 1,0.5,0.15,77,1.0
604.125,604.125,293.1071,161,2.0,Oboe 2,0.5,0.15,65,1.0
604.625,604.625,293.2571,161,2.5,Oboe 1,0.5,0.15,79,1.0
604.625,604.625,293.2571,161,2.5,Bassoon 1,0.5,0.15,55,1.0
604.625,604.625,293.2571,161,2.5,Oboe 2,0.5,0.15,67,1.0
605.125,605.125,293.4071,161,3.0,Flute 2,0.5,0.15,67,1.0
605.125,605.125,293.4071,161,3.0,Oboe 2,0.5,0.15,64,1.0
605.125,605.125,293.4071,161,3.0,Flute 1,0.5,0.15,79,1.0
605.125,605.125,293.4071,161,3.0,Oboe 1,0.5,0.15,76,1.0
605.125,605.125,293.4071,161,3.0,Bassoon 1,0.5,0.15,52,1.0
605.625,605.625,293.5571,161,3.5,Oboe 1,0.5,0.15,77,1.0
605.625,605.625,293.5571,161,3.5,Bassoon 1,0.5,0.15,53,1.0
605.625,605.625,293.5571,161,3.5,Flute 2,0.5,0.15,69,1.0
605.625,605.625,293.5571,161,3.5,Flute 1,0.5,0.15,81,1.0
605.625,605.625,293.5571,161,3.5,Oboe 2,0.5,0.15,65,1.0
606.125,606.125,293.7071,161,4.0,Flute 2,0.5,0.15,65,1.0
606.125,606.125,293.7071,161,4.0,Oboe 1,0.5,0.15,74,1.0
606.125,606.125,293.7071,161,4.0,Flute 1,0.5,0.15,77,1.0
606.125,606.125,293.7071,161,4.0,Oboe 2,0.5,0.15,62,1.0
606.125,606.125,293.7071,161,4.0,Bassoon 1,0.5,0.15,50,1.0
606.625,606.625,293.8571,161,4.5,Oboe 1,0.5,0.15,76,1.0
606.625,606.625,293.8571,161,4.5,Flute 1,0.5,0.15,79,1.0
606.625,606.625,293.8571,161,4.5,Bassoon 1,0.5,0.15,52,1.0
606.625,606.625,293.8571,161,4.5,Oboe 2,0.5,0.15,64,1.0
606.625,606.625,293.8571,161,4.5,Flute 2,0.5,0.15,67,1.0
607.125,607.125,294.0071,162,1.0,Flute 1,1.0,0.3,76,1.0
607.125,607.125,294.0071,162,1.0,D Trumpet 1,3.0,0.9,76,1.0
607.125,607.125,294.0071,162,1.0,Bassoon 1,1.0,0.3,48,1.0
607.125,607.125,294.0071,162,1.0,Oboe 2,1.0,0.3,60,1.0
607.125,607.125,294.0071,162,1.0,Violin 2,4.0,1.2,64,0.7087
607.125,607.125,294.0071,162,1.0,Violin 2,4.0,1.2,55,0.7087
607.125,607.125,294.0071,162,1.0,Violin 1,3.0,0.9,76,0.7087
607.125,607.125,294.0071,162,1.0,Violin 1,3.0,0.9,64,0.7087
607.125,607.125,294.0071,162,1.0,Violoncello,4.0,1.2,48,0.7087
607.125,607.125,294.0071,162,1.0,Violoncello,4.0,1.2,36,0.7087
607.125,607.125,294.0071,162,1.0,D Horn 2,3.0,0.9,67,1.0
607.125,607.125,294.0071,162,1.0,Viola,4.0,1.2,60,1.0
607.125,607.125,294.0071,162,1.0,D Trumpet 2,3.0,0.9,76,1.0
607.125,607.125,294.0071,162,1.0,Flute 2,1.0,0.3,64,1.0
607.125,607.125,294.0071,162,1.0,D Horn 1,3.0,0.9,67,1.0
607.125,607.125,294.0071,162,1.0,Contrabass,4.0,1.2,36,1.0
607.125,607.125,294.0071,162,1.0,Oboe 1,1.0,0.3,72,1.0
607.125,607.125,294.0071,162,1.0,Bassoon 2,3.0,0.9,48,1.0
608.125,608.125,294.3071,162,2.0,Flute 1,0.25,0.075,88,1.0
608.125,608.125,294.3071,162,2.0,Oboe 1,0.25,0.075,76,1.0
608.125,608.125,294.3071,162,2.0,Bassoon 1,0.25,0.075,64,1.0
608.125,608.125,294.3071,162,2.0,Oboe 2,2.0,0.6,64,1.0
608.375,608.375,294.3821,162,2.25,Flute 1,0.25,0.075,87,1.0
608.375,608.375,294.3821,162,2.25,Bassoon 1,0.25,0.075,63,1.0
608.375,608.375,294.3821,162,2.25,Oboe 1,0.25,0.075,75,1.0
608.625,608.625,294.4571,162,2.5,Flute 1,0.25,0.075,88,1.0
608.625,608.625,294.4571,162,2.5,Bassoon 1,0.25,0.075,64,1.0
608.625,608.625,294.4571,162,2.5,Oboe 1,0.25,0.075,76,1.0
608.875,608.875,294.5321,162,2.75,Oboe 1,0.25,0.075,78,1.0
608.875,608.875,294.5321,162,2.75,Bassoon 1,0.25,0.075,66,1.0
608.875,608.875,294.5321,162,2.75,Flute 1,0.25,0.075,90,1.0
609.125,609.125,294.6071,162,3.0,Bassoon 1,1.0,0.3,67,1.0
609.125,609.125,294.6071,162,3.0,Oboe 1,1.0,0.3,79,1.0
609.125,609.125,294.6071,162,3.0,Flute 1,1.0,0.3,91,1.0
610.125,610.125,294.9071,162,4.0,Violin 1,0.25,0.075,76,1.0
610.375,610.375,294.9821,162,4.25,Violin 1,0.25,0.075,75,1.0
610.625,610.625,295.0571,162,4.5,Violin 1,0.25,0.075,76,1.0
610.875,610.875,295.1321,162,4.75,Violin 1,0.25,0.075,78,1.0
611.125,611.125,295.2071,163,1.0,Violoncello,4.0,1.2,48,0.7087
611.125,611.125,295.2071,163,1.0,Violoncello,4.0,1.2,36,0.7087
611.125,611.125,295.2071,163,1.0,Violin 1,1.0,0.3,79,1.0
611.125,611.125,295.2071,163,1.0,Violin 2,4.0,1.2,55,0.7087
611.125,611.125,295.2071,163,1.0,Violin 2,4.0,1.2,64,0.7087
611.125,611.125,295.2071,163,1.0,Contrabass,4.0,1.2,36,1.0
611.125,611.125,295.2071,163,1.0,Viola,4.0,1.2,60,1.0
612.125,612.125,295.5071,163,2.0,Violin 1,0.25,0.075,76,1.0
612.375,612.375,295.5821,163,2.25,Violin 1,0.25,0.075,75,1.0
612.625,612.625,295.6571,163,2.5,Violin 1,0.25,0.075,76,1.0
612.875,612.875,295.7321,163,2.75,Violin 1,0.25,0.075,78,1.0
613.125,613.125,295.8071,163,3.0,Violin 1,1.0,0.3,79,1.0
614.125,614.125,296.1071,163,4.0,Violin 1,0.25,0.075,76,1.0
614.375,614.375,296.1821,163,4.25,Violin 1,0.25,0.075,75,1.0
614.625,614.625,296.2571,163,4.5,Violin 1,0.25,0.075,76,1.0
614.875,614.875,296.3321,163,4.75,Violin 1,0.25,0.075,78,1.0
615.125,615.125,296.4071,164,1.0,Violin 2,4.0,1.2,64,0.7087
615.125,615.125,296.4071,164,1.0,Violin 2,4.0,1.2,55,0.7087
615.125,615.125,296.4071,164,1.0,Contrabass,4.0,1.2,35,1.0
615.125,615.125,296.4071,164,1.0,D Horn 1,3.0,0.9,64,1.0
615.125,615.125,296.4071,164,1.0,D Trumpet 1,3.0,0.9,76,1.0
615.125,615.125,296.4071,164,1.0,Viola,4.0,1.2,59,1.0
615.125,615.125,296.4071,164,1.0,D Trumpet 2,3.0,0.9,76,1.0
615.125,615.125,296.4071,164,1.0,Violin 1,3.0,0.9,79,1.0
615.125,615.125,296.4071,164,1.0,Violoncello,4.0,1.2,47,1.0
615.125,615.125,296.4071,164,1.0,D Horn 2,3.0,0.9,64,1.0
616.125,616.125,296.7071,164,2.0,Bassoon 1,0.25,0.075,64,1.0
616.125,616.125,296.7071,164,2.0,Flute 1,0.25,0.075,88,1.0
616.125,616.125,296.7071,164,2.0,Oboe 1,0.25,0.075,76,1.0
616.375,616.375,296.7821,164,2.25,Oboe 1,0.25,0.075,75,1.0
616.375,616.375,296.7821,164,2.25,Bassoon 1,0.25,0.075,63,1.0
616.375,616.375,296.7821,164,2.25,Flute 1,0.25,0.075,87,1.0
616.625,616.625,296.8571,164,2.5,Flute 1,0.25,0.075,88,1.0
616.625,616.625,296.8571,164,2.5,Oboe 1,0.25,0.075,76,1.0
616.625,616.625,296.8571,164,2.5,Bassoon 1,0.25,0.075,64,1.0
616.875,616.875,296.9321,164,2.75,Flute 1,0.25,0.075,90,1.0
616.875,616.875,296.9321,164,2.75,Oboe 1,0.25,0.075,78,1.0
616.875,616.875,296.9321,164,2.75,Bassoon 1,0.25,0.075,66,1.0
617.125,617.125,297.0071,164,3.0,Flute 1,1.0,0.3,91,1.0
617.125,617.125,297.0071,164,3.0,Bassoon 1,1.0,0.3,67,1.0
617.125,617.125,297.0071,164,3.0,Oboe 1,1.0,0.3,79,1.0
618.125,618.125,297.3071,164,4.0,Violin 1,0.25,0.075,76,1.0
618.375,618.375,297.3821,164,4.25,Violin 1,0.25,0.075,75,1.0
618.625,618.625,297.4571,164,4.5,Violin 1,0.25,0.075,76,1.0
618.875,618.875,297.5321,164,4.75,Violin 1,0.25,0.075,78,1.0
619.125,619.125,297.6071,165,1.0,Violin 1,1.0,0.3,79,1.0
619.125,619.125,297.6071,165,1.0,Violoncello,4.0,1.2,47,1.0
619.125,619.125,297.6071,165,1.0,Violin 2,4.0,1.2,55,0.7087
619.125,619.125,297.6071,165,1.0,Contrabass,4.0,1.2,35,1.0
619.125,619.125,297.6071,165,1.0,Violin 2,4.0,1.2,64,0.7087
619.125,619.125,297.6071,165,1.0,Viola,4.0,1.2,59,1.0
620.125,620.125,297.9071,165,2.0,Violin 1,0.25,0.075,76,1.0
620.375,620.375,297.9821,165,2.25,Violin 1,0.25,0.075,75,1.0
620.625,620.625,298.0571,165,2.5,Violin 1,0.25,0.075,76,1.0
620.875,620.875,298.1321,165,2.75,Violin 1,0.25,0.075,78,1.0
621.125,621.125,298.2071,165,3.0,Violin 1,1.0,0.3,79,1.0
622.125,622.125,298.5071,165,4.0,Violin 1,0.25,0.075,76,1.0
622.375,622.375,298.5821,165,4.25,Violin 1,0.25,0.075,75,1.0
622.625,622.625,298.6571,165,4.5,Violin 1,0.25,0.075,76,1.0
622.875,622.875,298.7321,165,4.75,Violin 1,0.25,0.075,78,1.0
623.125,623.125,298.8071,166,1.0,D Trumpet 1,4.0,1.2,76,1.0
623.125,623.125,298.8071,166,1.0,D Trumpet 2,4.0,1.2,76,1.0
623.125,623.125,298.8071,166,1.0,Viola,4.0,1.2,61,1.0
623.125,623.125,298.8071,166,1.0,Violin 2,4.0,1.2,55,0.7087
623.125,623.125,298.8071,166,1.0,Violin 2,4.0,1.2,64,0.7087
623.125,623.125,298.8071,166,1.0,D Horn 2,4.0,1.2,64,1.0
623.125,623.125,298.8071,166,1.0,Contrabass,4.0,1.2,34,1.0
623.125,623.125,298.8071,166,1.0,D Horn 1,4.0,1.2,64,1.0
623.125,623.125,298.8071,166,1.0,Violoncello,4.0,1.2,46,1.0
623.125,623.125,298.8071,166,1.0,Violin 1,3.0,0.9,79,1.0
624.125,624.125,299.1071,166,2.0,Flute 1,0.25,0.075,88,1.0
624.125,624.125,299.1071,166,2.0,Bassoon 1,0.25,0.075,64,1.0
624.125,624.125,299.1071,166,2.0,Oboe 1,0.25,0.075,76,1.0
624.375,624.375,299.1821,166,2.25,Oboe 1,0.25,0.075,75,1.0
624.375,624.375,299.1821,166,2.25,Flute 1,0.25,0.075,87,1.0
624.375,624.375,299.1821,166,2.25,Bassoon 1,0.25,0.075,63,1.0
624.625,624.625,299.2571,166,2.5,Flute 1,0.25,0.075,88,1.0
624.625,624.625,299.2571,166,2.5,Bassoon 1,0.25,0.075,64,1.0
624.625,624.625,299.2571,166,2.5,Oboe 1,0.25,0.075,76,1.0
624.875,624.875,299.3321,166,2.75,Oboe 1,0.25,0.075,78,1.0
624.875,624.875,299.3321,166,2.75,Flute 1,0.25,0.075,90,1.0
624.875,624.875,299.3321,166,2.75,Bassoon 1,0.25,0.075,66,1.0
625.125,625.125,299.4071,166,3.0,Flute 1,1.0,0.3,91,1.0
625.125,625.125,299.4071,166,3.0,Oboe 1,1.0,0.3,79,1.0
625.125,625.125,299.4071,166,3.0,Bassoon 1,1.0,0.3,67,1.0
626.125,626.125,299.7071,166,4.0,Violin 1,0.25,0.075,76,1.0
626.375,626.375,299.7821,166,4.25,Violin 1,0.25,0.075,75,1.0
626.625,626.625,299.8571,166,4.5,Violin 1,0.25,0.075,76,1.0
626.875,626.875,299.9321,166,4.75,Violin 1,0.25,0.075,78,1.0
627.125,627.125,300.0071,167,1.0,Viola,3.0,0.9,61,1.0
627.125,627.125,300.0071,167,1.0,Contrabass,4.0,1.2,33,1.0
627.125,627.125,300.0071,167,1.0,Violoncello,4.0,1.2,45,1.0
627.125,627.125,300.0071,167,1.0,D Trumpet 2,4.0,1.2,69,1.0
627.125,627.125,300.0071,167,1.0,Violin 1,3.0,0.9,79,1.0
627.125,627.125,300.0071,167,1.0,D Trumpet 1,4.0,1.2,76,1.0
627.125,627.125,300.0071,167,1.0,D Horn 2,4.0,1.2,57,1.0
627.125,627.125,300.0071,167,1.0,Violin 2,3.0,0.9,55,0.7087
627.125,627.125,300.0071,167,1.0,D Horn 1,4.0,1.2,64,1.0
627.125,627.125,300.0071,167,1.0,Timpani,1.0,0.3,45,1.0
627.125,627.125,300.0071,167,1.0,Violin 2,3.0,0.9,64,0.7087
628.125,628.125,300.3071,167,2.0,Flute 1,0.25,0.075,88,1.0
628.125,628.125,300.3071,167,2.0,Oboe 1,0.25,0.075,76,1.0
628.125,628.125,300.3071,167,2.0,Bassoon 1,0.25,0.075,64,1.0
628.375,628.375,300.3821,167,2.25,Oboe 1,0.25,0.075,75,1.0
628.375,628.375,300.3821,167,2.25,Bassoon 1,0.25,0.075,63,1.0
628.375,628.375,300.3821,167,2.25,Flute 1,0.25,0.075,87,1.0
628.625,628.625,300.4571,167,2.5,Flute 1,0.25,0.075,88,1.0
628.625,628.625,300.4571,167,2.5,Oboe 1,0.25,0.075,76,1.0
628.625,628.625,300.4571,167,2.5,Bassoon 1,0.25,0.075,64,1.0
628.875,628.875,300.5321,167,2.75,Flute 1,0.25,0.075,90,1.0
628.875,628.875,300.5321,167,2.75,Oboe 1,0.25,0.075,78,1.0
628.875,628.875,300.5321,167,2.75,Bassoon 1,0.25,0.075,66,1.0
629.125,629.125,300.6071,167,3.0,Oboe 1,1.0,0.3,79,1.0
629.125,629.125,300.6071,167,3.0,Bassoon 1,1.0,0.3,67,1.0
629.125,629.125,300.6071,167,3.0,Flute 1,1.0,0.3,91,1.0
630.125,630.125,300.9071,167,4.0,Viola,1.0,0.3,57,1.0
630.125,630.125,300.9071,167,4.0,Violin 1,0.25,0.075,74,1.0
630.125,630.125,300.9071,167,4.0,Violin 2,0.25,0.075,62,1.0
630.375,630.375,300.9821,167,4.25,Violin 2,0.25,0.075,61,1.0
630.375,630.375,300.9821,167,4.25,Violin 1,0.25,0.075,73,1.0
630.625,630.625,301.0571,167,4.5,Violin 2,0.25,0.075,62,1.0
630.625,630.625,301.0571,167,4.5,Violin 1,0.25,0.075,74,1.0
630.875,630.875,301.1321,167,4.75,Violin 2,0.25,0.075,64,1.0
630.875,630.875,301.1321,167,4.75,Violin 1,0.25,0.075,76,1.0
631.125,631.125,301.2071,168,1.0,Violin 2,4.0,1.2,57,0.7087
631.125,631.125,301.2071,168,1.0,Violin 1,3.0,0.9,77,1.0
631.125,631.125,301.2071,168,1.0,Viola,4.0,1.2,62,1.0
631.125,631.125,301.2071,168,1.0,Timpani,1.0,0.3,45,1.0
631.125,631.125,301.2071,168,1.0,D Horn 2,4.0,1.2,50,1.0
631.125,631.125,301.2071,168,1.0,Contrabass,4.0,1.2,33,1.0
631.125,631.125,301.2071,168,1.0,Violoncello,4.0,1.2,45,1.0
631.125,631.125,301.2071,168,1.0,D Horn 1,4.0,1.2,62,1.0
631.125,631.125,301.2071,168,1.0,D Trumpet 1,4.0,1.2,74,1.0
631.125,631.125,301.2071,168,1.0,Violin 2,4.0,1.2,65,0.7087
631.125,631.125,301.2071,168,1.0,D Trumpet 2,4.0,1.2,62,1.0
632.125,632.125,301.5071,168,2.0,Bassoon 1,0.25,0.075,62,1.0
632.125,632.125,301.5071,168,2.0,Oboe 1,0.25,0.075,74,1.0
632.125,632.125,301.5071,168,2.0,Flute 1,0.25,0.075,86,1.0
632.375,632.375,301.5821,168,2.25,Bassoon 1,0.25,0.075,61,1.0
632.375,632.375,301.5821,168,2.25,Flute 1,0.25,0.075,85,1.0
632.375,632.375,301.5821,168,2.25,Oboe 1,0.25,0.075,73,1.0
632.625,632.625,301.6571,168,2.5,Flute 1,0.25,0.075,86,1.0
632.625,632.625,301.6571,168,2.5,Bassoon 1,0.25,0.075,62,1.0
632.625,632.625,301.6571,168,2.5,Oboe 1,0.25,0.075,74,1.0
632.875,632.875,301.7321,168,2.75,Bassoon 1,0.25,0.075,64,1.0
632.875,632.875,301.7321,168,2.75,Oboe 1,0.25,0.075,76,1.0
632.875,632.875,301.7321,168,2.75,Flute 1,0.25,0.075,88,1.0
633.125,633.125,301.8071,168,3.0,Flute 1,1.0,0.3,89,1.0
633.125,633.125,301.8071,168,3.0,Bassoon 1,1.0,0.3,65,1.0
633.125,633.125,301.8071,168,3.0,Oboe 1,1.0,0.3,77,1.0
634.125,634.125,302.1071,168,4.0,Violin 1,0.25,0.075,74,1.0
634.375,634.375,302.1821,168,4.25,Violin 1,0.25,0.075,73,1.0
634.625,634.625,302.2571,168,4.5,Violin 1,0.25,0.075,74,1.0
634.875,634.875,302.3321,168,4.75,Violin 1,0.25,0.075,76,1.0
635.125,635.125,302.4071,169,1.0,D Horn 1,4.0,1.2,62,1.0
635.125,635.125,302.4071,169,1.0,Viola,3.0,0.9,62,1.0
635.125,635.125,302.4071,169,1.0,Timpani,1.0,0.3,50,1.0
635.125,635.125,302.4071,169,1.0,D Horn 2,4.0,1.2,50,1.0
635.125,635.125,302.4071,169,1.0,D Trumpet 2,4.0,1.2,62,1.0
635.125,635.125,302.4071,169,1.0,Violoncello,4.0,1.2,44,1.0
635.125,635.125,302.4071,169,1.0,D Trumpet 1,4.0,1.2,74,1.0
635.125,635.125,302.4071,169,1.0,Violin 1,3.0,0.9,77,1.0
635.125,635.125,302.4071,169,1.0,Violin 2,4.0,1.2,65,0.7087
635.125,635.125,302.4071,169,1.0,Violin 2,4.0,1.2,56,0.7087
635.125,635.125,302.4071,169,1.0,Contrabass,4.0,1.2,32,1.0
636.125,636.125,302.7071,169,2.0,Oboe 1,0.25,0.075,74,1.0
636.125,636.125,302.7071,169,2.0,Flute 1,0.25,0.075,86,1.0
636.125,636.125,302.7071,169,2.0,Bassoon 1,0.25,0.075,62,1.0
636.375,636.375,302.7821,169,2.25,Bassoon 1,0.25,0.075,61,1.0
636.375,636.375,302.7821,169,2.25,Flute 1,0.25,0.075,85,1.0
636.375,636.375,302.7821,169,2.25,Oboe 1,0.25,0.075,73,1.0
636.625,636.625,302.8571,169,2.5,Bassoon 1,0.25,0.075,62,1.0
636.625,636.625,302.8571,169,2.5,Flute 1,0.25,0.075,86,1.0
636.625,636.625,302.8571,169,2.5,Oboe 1,0.25,0.075,74,1.0
636.875,636.875,302.9321,169,2.75,Flute 1,0.25,0.075,88,1.0
636.875,636.875,302.9321,169,2.75,Oboe 1,0.25,0.075,76,1.0
636.875,636.875,302.9321,169,2.75,Bassoon 1,0.25,0.075,64,1.0
637.125,637.125,303.0071,169,3.0,Oboe 1,1.0,0.3,77,1.0
637.125,637.125,303.0071,169,3.0,Bassoon 1,1.0,0.3,65,1.0
637.125,637.125,303.0071,169,3.0,Flute 1,1.0,0.3,89,1.0
638.125,638.125,303.3071,169,4.0,Violin 1,0.25,0.075,74,1.0
638.125,638.125,303.3071,169,4.0,Viola,1.0,0.3,60,1.0
638.375,638.375,303.3821,169,4.25,Violin 1,0.25,0.075,73,1.0
638.625,638.625,303.4571,169,4.5,Violin 1,0.25,0.075,74,1.0
638.875,638.875,303.5321,169,4.75,Violin 1,0.25,0.075,76,1.0
639.125,639.125,303.6071,170,1.0,Viola,0.25,0.075,59,1.0
639.125,639.125,303.6071,170,1.0,Flute 2,4.0,1.2,86,1.0
639.125,639.125,303.6071,170,1.0,Bassoon 1,1.0,0.3,43,1.0
639.125,639.125,303.6071,170,1.0,Timpani,1.0,0.3,50,1.0
639.125,639.125,303.6071,170,1.0,Violoncello,1.0,0.3,43,1.0
639.125,639.125,303.6071,170,1.0,Oboe 2,4.0,1.2,74,1.0
639.125,639.125,303.6071,170,1.0,Bassoon 2,1.0,0.3,43,1.0
639.125,639.125,303.6071,170,1.0,Oboe 1,4.0,1.2,77,1.0
639.125,639.125,303.6071,170,1.0,Contrabass,1.0,0.3,31,1.0
639.125,639.125,303.6071,170,1.0,Violin 1,0.25,0.075,77,1.0
639.125,639.125,303.6071,170,1.0,Flute 1,4.0,1.2,89,1.0
639.125,639.125,303.6071,170,1.0,Violin 2,0.25,0.075,65,0.7087
639.125,639.125,303.6071,170,1.0,Violin 2,0.25,0.075,55,0.7087
639.375,639.375,303.6821,170,1.25,Violin 1,0.25,0.075,89,1.0
639.375,639.375,303.6821,170,1.25,Violin 2,0.25,0.075,74,1.0
639.375,639.375,303.6821,170,1.25,Viola,0.25,0.075,67,1.0
639.625,639.625,303.7571,170,1.5,Violin 1,0.25,0.075,89,1.0
639.625,639.625,303.7571,170,1.5,Viola,0.25,0.075,67,1.0
639.625,639.625,303.7571,170,1.5,Violin 2,0.25,0.075,74,1.0
639.875,639.875,303.8321,170,1.75,Violin 1,0.25,0.075,89,1.0
639.875,639.875,303.8321,170,1.75,Violin 2,0.25,0.075,74,1.0
639.875,639.875,303.8321,170,1.75,Viola,0.25,0.075,67,1.0
640.125,640.125,303.9071,170,2.0,Contrabass,0.25,0.075,43,1.0
640.125,640.125,303.9071,170,2.0,Violoncello,0.25,0.075,55,1.0
640.125,640.125,303.9071,170,2.0,Viola,3.0,0.9,67,1.0
640.125,640.125,303.9071,170,2.0,D Horn 1,0.75,0.225,67,1.0
640.125,640.125,303.9071,170,2.0,Violin 2,3.0,0.9,74,1.0
640.125,640.125,303.9071,170,2.0,Bassoon 2,0.25,0.075,55,1.0
640.125,640.125,303.9071,170,2.0,Violin 1,0.25,0.075,89,1.0
640.125,640.125,303.9071,170,2.0,D Horn 2,0.75,0.225,67,1.0
640.125,640.125,303.9071,170,2.0,Bassoon 1,0.25,0.075,55,1.0
640.375,640.375,303.9821,170,2.25,Bassoon 1,0.25,0.075,54,1.0
640.375,640.375,303.9821,170,2.25,Contrabass,0.25,0.075,42,1.0
640.375,640.375,303.9821,170,2.25,Violin 1,0.25,0.075,89,1.0
640.375,640.375,303.9821,170,2.25,Violoncello,0.25,0.075,54,1.0
640.375,640.375,303.9821,170,2.25,Bassoon 2,0.25,0.075,54,1.0
640.625,640.625,304.0571,170,2.5,Violoncello,0.25,0.075,55,1.0
640.625,640.625,304.0571,170,2.5,Bassoon 1,0.25,0.075,55,1.0
640.625,640.625,304.0571,170,2.5,Violin 1,0.25,0.075,89,1.0
640.625,640.625,304.0571,170,2.5,Bassoon 2,0.25,0.075,55,1.0
640.625,640.625,304.0571,170,2.5,Contrabass,0.25,0.075,43,1.0
640.875,640.875,304.1321,170,2.75,Bassoon 1,0.25,0.075,57,1.0
640.875,640.875,304.1321,170,2.75,Violin 1,0.25,0.075,89,1.0
640.875,640.875,304.1321,170,2.75,Violoncello,0.25,0.075,57,1.0
640.875,640.875,304.1321,170,2.75,Contrabass,0.25,0.075,45,1.0
640.875,640.875,304.1321,170,2.75,D Horn 2,0.25,0.075,67,1.0
640.875,640.875,304.1321,170,2.75,D Horn 1,0.25,0.075,67,1.0
640.875,640.875,304.1321,170,2.75,Bassoon 2,0.25,0.075,57,1.0
641.125,641.125,304.2071,170,3.0,Violoncello,1.0,0.3,59,1.0
641.125,641.125,304.2071,170,3.0,Bassoon 1,1.0,0.3,59,1.0
641.125,641.125,304.2071,170,3.0,Bassoon 2,1.0,0.3,59,1.0
641.125,641.125,304.2071,170,3.0,D Horn 2,1.0,0.3,67,1.0
641.125,641.125,304.2071,170,3.0,Contrabass,1.0,0.3,47,1.0
641.125,641.125,304.2071,170,3.0,D Horn 1,1.0,0.3,67,1.0
641.125,641.125,304.2071,170,3.0,Violin 1,0.25,0.075,89,1.0
641.375,641.375,304.2821,170,3.25,Violin 1,0.25,0.075,89,1.0
641.625,641.625,304.3571,170,3.5,Violin 1,0.25,0.075,89,1.0
641.875,641.875,304.4321,170,3.75,Violin 1,0.25,0.075,89,1.0
642.125,642.125,304.5071,170,4.0,D Horn 1,1.0,0.3,67,1.0
642.125,642.125,304.5071,170,4.0,D Horn 2,1.0,0.3,67,1.0
642.125,642.125,304.5071,170,4.0,Violin 1,0.25,0.075,89,1.0
642.375,642.375,304.5821,170,4.25,Violin 1,0.25,0.075,89,1.0
642.625,642.625,304.6571,170,4.5,Violin 1,0.25,0.075,89,1.0
642.875,642.875,304.7321,170,4.75,Violin 1,0.25,0.075,89,1.0
643.125,643.125,304.8071,171,1.0,D Horn 2,4.0,1.2,67,1.0
643.125,643.125,304.8071,171,1.0,Flute 2,2.0,0.6,86,1.0
643.125,643.125,304.8071,171,1.0,Oboe 1,4.0,1.2,76,1.0
643.125,643.125,304.8071,171,1.0,Flute 1,4.0,1.2,88,1.0
643.125,643.125,304.8071,171,1.0,Violin 1,0.25,0.075,88,1.0
643.125,643.125,304.8071,171,1.0,Viola,2.0,0.6,67,1.0
643.125,643.125,304.8071,171,1.0,Violin 2,2.0,0.6,74,1.0
643.125,643.125,304.8071,171,1.0,Oboe 2,2.0,0.6,74,1.0
643.125,643.125,304.8071,171,1.0,D Horn 1,4.0,1.2,67,1.0
643.375,643.375,304.8821,171,1.25,Violin 1,0.25,0.075,88,1.0
643.625,643.625,304.9571,171,1.5,Violin 1,0.25,0.075,88,1.0
643.875,643.875,305.0321,171,1.75,Violin 1,0.25,0.075,88,1.0
644.125,644.125,305.1071,171,2.0,Bassoon 1,0.25,0.075,60,1.0
644.125,644.125,305.1071,171,2.0,Violoncello,0.25,0.075,60,1.0
644.125,644.125,305.1071,171,2.0,Violin 1,0.25,0.075,88,1.0
644.125,644.125,305.1071,171,2.0,Bassoon 2,0.25,0.075,60,1.0
644.125,644.125,305.1071,171,2.0,Contrabass,0.25,0.075,48,1.0
644.375,644.375,305.1821,171,2.25,Bassoon 2,0.25,0.075,59,1.0
644.375,644.375,305.1821,171,2.25,Violin 1,0.25,0.075,88,1.0
644.375,644.375,305.1821,171,2.25,Violoncello,0.25,0.075,59,1.0
644.375,644.375,305.1821,171,2.25,Contrabass,0.25,0.075,47,1.0
644.375,644.375,305.1821,171,2.25,Bassoon 1,0.25,0.075,59,1.0
644.625,644.625,305.2571,171,2.5,Violin 1,0.25,0.075,88,1.0
644.625,644.625,305.2571,171,2.5,Bassoon 2,0.25,0.075,60,1.0
644.625,644.625,305.2571,171,2.5,Bassoon 1,0.25,0.075,60,1.0
644.625,644.625,305.2571,171,2.5,Contrabass,0.25,0.075,48,1.0
644.625,644.625,305.2571,171,2.5,Violoncello,0.25,0.075,60,1.0
644.875,644.875,305.3321,171,2.75,Violoncello,0.25,0.075,62,1.0
644.875,644.875,305.3321,171,2.75,Bassoon 2,0.25,0.075,62,1.0
644.875,644.875,305.3321,171,2.75,Violin 1,0.25,0.075,88,1.0
644.875,644.875,305.3321,171,2.75,Contrabass,0.25,0.075,50,1.0
644.875,644.875,305.3321,171,2.75,Bassoon 1,0.25,0.075,62,1.0
645.125,645.125,305.4071,171,3.0,Flute 2,2.0,0.6,84,1.0
645.125,645.125,305.4071,171,3.0,Violin 2,2.0,0.6,72,1.0
645.125,645.125,305.4071,171,3.0,Contrabass,1.0,0.3,52,1.0
645.125,645.125,305.4071,171,3.0,Oboe 2,2.0,0.6,72,1.0
645.125,645.125,305.4071,171,3.0,Bassoon 2,1.0,0.3,64,1.0
645.125,645.125,305.4071,171,3.0,Violoncello,1.0,0.3,64,1.0
645.125,645.125,305.4071,171,3.0,Violin 1,0.25,0.075,88,1.0
645.125,645.125,305.4071,171,3.0,Viola,2.0,0.6,67,1.0
645.125,645.125,305.4071,171,3.0,Bassoon 1,1.0,0.3,64,1.0
645.375,645.375,305.4821,171,3.25,Violin 1,0.25,0.075,88,1.0
645.625,645.625,305.5571,171,3.5,Violin 1,0.25,0.075,88,1.0
645.875,645.875,305.6321,171,3.75,Violin 1,0.25,0.075,88,1.0
646.125,646.125,305.7071,171,4.0,Violin 1,0.25,0.075,88,1.0
646.375,646.375,305.7821,171,4.25,Violin 1,0.25,0.075,88,1.0
646.625,646.625,305.8571,171,4.5,Violin 1,0.25,0.075,88,1.0
646.875,646.875,305.9321,171,4.75,Violin 1,0.25,0.075,88,1.0
647.125,647.125,306.0071,172,1.0,Violin 2,2.0,0.6,72,1.0
647.125,647.125,306.0071,172,1.0,Flute 1,4.0,1.2,86,1.0
647.125,647.125,306.0071,172,1.0,Viola,2.0,0.6,64,1.0
647.125,647.125,306.0071,172,1.0,Flute 2,2.0,0.6,84,1.0
647.125,647.125,306.0071,172,1.0,Oboe 1,4.0,1.2,74,1.0
647.125,647.125,306.0071,172,1.0,Oboe 2,2.0,0.6,72,1.0
647.125,647.125,306.0071,172,1.0,Violin 1,0.25,0.075,86,1.0
647.375,647.375,306.0821,172,1.25,Violin 1,0.25,0.075,86,1.0
647.625,647.625,306.1571,172,1.5,Violin 1,0.25,0.075,86,1.0
647.875,647.875,306.2321,172,1.75,Violin 1,0.25,0.075,86,1.0
648.125,648.125,306.3071,172,2.0,D Horn 2,0.75,0.225,64,1.0
648.125,648.125,306.3071,172,2.0,D Horn 1,0.75,0.225,64,1.0
648.125,648.125,306.3071,172,2.0,Bassoon 1,0.25,0.075,52,1.0
648.125,648.125,306.3071,172,2.0,Bassoon 2,0.25,0.075,52,1.0
648.125,648.125,306.3071,172,2.0,Contrabass,0.25,0.075,40,1.0
648.125,648.125,306.3071,172,2.0,Violoncello,0.25,0.075,52,1.0
648.125,648.125,306.3071,172,2.0,Violin 1,0.25,0.075,86,1.0
648.375,648.375,306.3821,172,2.25,Bassoon 1,0.25,0.075,51,1.0
648.375,648.375,306.3821,172,2.25,Violoncello,0.25,0.075,51,1.0
648.375,648.375,306.3821,172,2.25,Contrabass,0.25,0.075,39,1.0
648.375,648.375,306.3821,172,2.25,Bassoon 2,0.25,0.075,51,1.0
648.375,648.375,306.3821,172,2.25,Violin 1,0.25,0.075,86,1.0
648.625,648.625,306.4571,172,2.5,Violoncello,0.25,0.075,52,1.0
648.625,648.625,306.4571,172,2.5,Contrabass,0.25,0.075,40,1.0
648.625,648.625,306.4571,172,2.5,Bassoon 1,0.25,0.075,52,1.0
648.625,648.625,306.4571,172,2.5,Bassoon 2,0.25,0.075,52,1.0
648.625,648.625,306.4571,172,2.5,Violin 1,0.25,0.075,86,1.0
648.875,648.875,306.5321,172,2.75,Bassoon 2,0.25,0.075,54,1.0
648.875,648.875,306.5321,172,2.75,D Horn 1,0.25,0.075,64,1.0
648.875,648.875,306.5321,172,2.75,Violoncello,0.25,0.075,54,1.0
648.875,648.875,306.5321,172,2.75,Violin 1,0.25,0.075,86,1.0
648.875,648.875,306.5321,172,2.75,Bassoon 1,0.25,0.075,54,1.0
648.875,648.875,306.5321,172,2.75,Contrabass,0.25,0.075,42,1.0
648.875,648.875,306.5321,172,2.75,D Horn 2,0.25,0.075,64,1.0
649.125,649.125,306.6071,172,3.0,Violin 2,2.0,0.6,71,1.0
649.125,649.125,306.6071,172,3.0,Violoncello,1.0,0.3,56,1.0
649.125,649.125,306.6071,172,3.0,D Horn 1,1.0,0.3,64,1.0
649.125,649.125,306.6071,172,3.0,Violin 1,0.25,0.075,86,1.0
649.125,649.125,306.6071,172,3.0,Contrabass,1.0,0.3,44,1.0
649.125,649.125,306.6071,172,3.0,D Horn 2,1.0,0.3,64,1.0
649.125,649.125,306.6071,172,3.0,Oboe 2,2.0,0.6,71,1.0
649.125,649.125,306.6071,172,3.0,Bassoon 1,1.0,0.3,56,1.0
649.125,649.125,306.6071,172,3.0,Viola,2.0,0.6,64,1.0
649.125,649.125,306.6071,172,3.0,Bassoon 2,1.0,0.3,56,1.0
649.125,649.125,306.6071,172,3.0,Flute 2,2.0,0.6,83,1.0
649.375,649.375,306.6821,172,3.25,Violin 1,0.25,0.075,86,1.0
649.625,649.625,306.7571,172,3.5,Violin 1,0.25,0.075,86,1.0
649.875,649.875,306.8321,172,3.75,Violin 1,0.25,0.075,86,1.0
650.125,650.125,306.9071,172,4.0,Violin 1,0.25,0.075,86,1.0
650.125,650.125,306.9071,172,4.0,D Horn 1,1.0,0.3,64,1.0
650.125,650.125,306.9071,172,4.0,D Horn 2,1.0,0.3,64,1.0
650.375,650.375,306.9821,172,4.25,Violin 1,0.25,0.075,86,1.0
650.625,650.625,307.0571,172,4.5,Violin 1,0.25,0.075,86,1.0
650.875,650.875,307.1321,172,4.75,Violin 1,0.25,0.075,86,1.0
651.125,651.125,307.2071,173,1.0,D Horn 1,4.0,1.2,64,1.0
651.125,651.125,307.2071,173,1.0,Viola,2.0,0.6,64,1.0
651.125,651.125,307.2071,173,1.0,Oboe 2,2.0,0.6,71,1.0
651.125,651.125,307.2071,173,1.0,D Horn 2,4.0,1.2,64,1.0
651.125,651.125,307.2071,173,1.0,Violin 1,0.25,0.075,84,1.0
651.125,651.125,307.2071,173,1.0,Flute 1,4.0,1.2,84,1.0
651.125,651.125,307.2071,173,1.0,Violin 2,2.0,0.6,71,1.0
651.125,651.125,307.2071,173,1.0,Oboe 1,4.0,1.2,72,1.0
651.125,651.125,307.2071,173,1.0,Flute 2,2.0,0.6,83,1.0
651.375,651.375,307.2821,173,1.25,Violin 1,0.25,0.075,84,1.0
651.625,651.625,307.3571,173,1.5,Violin 1,0.25,0.075,84,1.0
651.875,651.875,307.4321,173,1.75,Violin 1,0.25,0.075,84,1.0
652.125,652.125,307.5071,173,2.0,Bassoon 1,0.25,0.075,57,1.0
652.125,652.125,307.5071,173,2.0,Violoncello,0.25,0.075,57,1.0
652.125,652.125,307.5071,173,2.0,Violin 1,0.25,0.075,84,1.0
652.125,652.125,307.5071,173,2.0,Contrabass,0.25,0.075,45,1.0
652.125,652.125,307.5071,173,2.0,Bassoon 2,0.25,0.075,57,1.0
652.375,652.375,307.5821,173,2.25,Violin 1,0.25,0.075,84,1.0
652.375,652.375,307.5821,173,2.25,Bassoon 1,0.25,0.075,56,1.0
652.375,652.375,307.5821,173,2.25,Contrabass,0.25,0.075,44,1.0
652.375,652.375,307.5821,173,2.25,Violoncello,0.25,0.075,56,1.0
652.375,652.375,307.5821,173,2.25,Bassoon 2,0.25,0.075,56,1.0
652.625,652.625,307.6571,173,2.5,Bassoon 1,0.25,0.075,57,1.0
652.625,652.625,307.6571,173,2.5,Violin 1,0.25,0.075,84,1.0
652.625,652.625,307.6571,173,2.5,Contrabass,0.25,0.075,45,1.0
652.625,652.625,307.6571,173,2.5,Violoncello,0.25,0.075,57,1.0
652.625,652.625,307.6571,173,2.5,Bassoon 2,0.25,0.075,57,1.0
652.875,652.875,307.7321,173,2.75,Violoncello,0.25,0.075,59,1.0
652.875,652.875,307.7321,173,2.75,Contrabass,0.25,0.075,47,1.0
652.875,652.875,307.7321,173,2.75,Bassoon 2,0.25,0.075,59,1.0
652.875,652.875,307.7321,173,2.75,Violin 1,0.25,0.075,84,1.0
652.875,652.875,307.7321,173,2.75,Bassoon 1,0.25,0.075,59,1.0
653.125,653.125,307.8071,173,3.0,Flute 2,2.0,0.6,81,1.0
653.125,653.125,307.8071,173,3.0,Bassoon 2,1.0,0.3,60,1.0
653.125,653.125,307.8071,173,3.0,Violoncello,1.0,0.3,60,1.0
653.125,653.125,307.8071,173,3.0,Bassoon 1,1.0,0.3,60,1.0
653.125,653.125,307.8071,173,3.0,Violin 2,2.0,0.6,69,1.0
653.125,653.125,307.8071,173,3.0,Contrabass,1.0,0.3,48,1.0
653.125,653.125,307.8071,173,3.0,Violin 1,0.25,0.075,84,1.0
653.125,653.125,307.8071,173,3.0,Viola,2.0,0.6,64,1.0
653.125,653.125,307.8071,173,3.0,Oboe 2,2.0,0.6,69,1.0
653.375,653.375,307.8821,173,3.25,Violin 1,0.25,0.075,84,1.0
653.625,653.625,307.9571,173,3.5,Violin 1,0.25,0.075,84,1.0
653.875,653.875,308.0321,173,3.75,Violin 1,0.25,0.075,84,1.0
654.125,654.125,308.1071,173,4.0,Violin 1,0.25,0.075,84,1.0
654.375,654.375,308.1821,173,4.25,Violin 1,0.25,0.075,84,1.0
654.625,654.625,308.2571,173,4.5,Violin 1,0.25,0.075,84,1.0
654.875,654.875,308.3321,173,4.75,Violin 1,0.25,0.075,84,1.0
655.125,655.125,308.4071,174,1.0,Bassoon 2,1.0,0.3,50,1.0
655.125,655.125,308.4071,174,1.0,Violin 1,3.0,0.9,74,0.7087
655.125,655.125,308.4071,174,1.0,Bassoon 1,1.0,0.3,50,1.0
655.125,655.125,308.4071,174,1.0,Violoncello,1.0,0.3,50,1.0
655.125,655.125,308.4071,174,1.0,Viola,1.0,0.3,62,1.0
655.125,655.125,308.4071,174,1.0,Violin 2,0.25,0.075,69,1.0
655.125,655.125,308.4071,174,1.0,Contrabass,1.0,0.3,38,1.0
655.125,655.125,308.4071,174,1.0,Violin 1,3.0,0.9,84,0.7087
655.375,655.375,308.4821,174,1.25,Violin 2,0.25,0.075,60,0.7087
655.375,655.375,308.4821,174,1.25,Violin 2,0.25,0.075,62,0.7087
655.625,655.625,308.5571,174,1.5,Violin 2,0.25,0.075,60,0.7087
655.625,655.625,308.5571,174,1.5,Violin 2,0.25,0.075,62,0.7087
655.875,655.875,308.6321,174,1.75,Violin 2,0.25,0.075,60,0.7087
655.875,655.875,308.6321,174,1.75,Violin 2,0.25,0.075,62,0.7087
656.125,656.125,308.7071,174,2.0,Violin 2,3.0,0.9,60,0.7087
656.125,656.125,308.7071,174,2.0,Violin 2,3.0,0.9,62,0.7087
656.125,656.125,308.7071,174,2.0,Bassoon 1,0.25,0.075,50,1.0
656.125,656.125,308.7071,174,2.0,Contrabass,0.25,0.075,38,1.0
656.125,656.125,308.7071,174,2.0,Bassoon 2,0.25,0.075,50,1.0
656.125,656.125,308.7071,174,2.0,Violoncello,0.25,0.075,50,1.0
656.125,656.125,308.7071,174,2.0,Viola,0.25,0.075,62,1.0
656.375,656.375,308.7821,174,2.25,Bassoon 1,0.25,0.075,49,1.0
656.375,656.375,308.7821,174,2.25,Viola,0.25,0.075,61,1.0
656.375,656.375,308.7821,174,2.25,Bassoon 2,0.25,0.075,49,1.0
656.375,656.375,308.7821,174,2.25,Violoncello,0.25,0.075,49,1.0
656.375,656.375,308.7821,174,2.25,Contrabass,0.25,0.075,37,1.0
656.625,656.625,308.8571,174,2.5,Violoncello,0.25,0.075,50,1.0
656.625,656.625,308.8571,174,2.5,Contrabass,0.25,0.075,38,1.0
656.625,656.625,308.8571,174,2.5,Bassoon 2,0.25,0.075,50,1.0
656.625,656.625,308.8571,174,2.5,Viola,0.25,0.075,62,1.0
656.625,656.625,308.8571,174,2.5,Bassoon 1,0.25,0.075,50,1.0
656.875,656.875,308.9321,174,2.75,Bassoon 1,0.25,0.075,52,1.0
656.875,656.875,308.9321,174,2.75,Bassoon 2,0.25,0.075,52,1.0
656.875,656.875,308.9321,174,2.75,Contrabass,0.25,0.075,40,1.0
656.875,656.875,308.9321,174,2.75,Violoncello,0.25,0.075,52,1.0
656.875,656.875,308.9321,174,2.75,Viola,0.25,0.075,64,1.0
657.125,657.125,309.0071,174,3.0,Flute 1,2.0,0.6,86,1.0
657.125,657.125,309.0071,174,3.0,Contrabass,1.0,0.3,42,1.0
657.125,657.125,309.0071,174,3.0,Viola,1.0,0.3,66,1.0
657.125,657.125,309.0071,174,3.0,Bassoon 2,1.0,0.3,54,1.0
657.125,657.125,309.0071,174,3.0,A Clarinet 1,2.0,0.6,69,1.0
657.125,657.125,309.0071,174,3.0,D Horn 2,2.0,0.6,50,1.0
657.125,657.125,309.0071,174,3.0,D Trumpet 1,2.0,0.6,74,1.0
657.125,657.125,309.0071,174,3.0,D Trumpet 2,2.0,0.6,62,1.0
657.125,657.125,309.0071,174,3.0,A Clarinet 2,2.0,0.6,66,1.0
657.125,657.125,309.0071,174,3.0,Oboe 1,2.0,0.6,74,1.0
657.125,657.125,309.0071,174,3.0,Bassoon 1,1.0,0.3,54,1.0
657.125,657.125,309.0071,174,3.0,Oboe 2,2.0,0.6,72,1.0
657.125,657.125,309.0071,174,3.0,Flute 2,2.0,0.6,84,1.0
657.125,657.125,309.0071,174,3.0,Timpani,2.0,0.6,50,1.0
657.125,657.125,309.0071,174,3.0,D Horn 1,2.0,0.6,62,1.0
657.125,657.125,309.0071,174,3.0,Violoncello,1.0,0.3,54,1.0
658.125,658.125,309.3071,174,4.0,Contrabass,0.25,0.075,42,1.0
658.125,658.125,309.3071,174,4.0,Violin 1,0.25,0.075,74,1.0
658.125,658.125,309.3071,174,4.0,Bassoon 1,0.25,0.075,54,1.0
658.125,658.125,309.3071,174,4.0,Bassoon 2,0.25,0.075,54,1.0
658.125,658.125,309.3071,174,4.0,Violoncello,0.25,0.075,54,1.0
658.125,658.125,309.3071,174,4.0,Viola,0.25,0.075,66,1.0
658.375,658.375,309.3821,174,4.25,Viola,0.25,0.075,64,1.0
658.375,658.375,309.3821,174,4.25,Violin 1,0.25,0.075,73,1.0
658.375,658.375,309.3821,174,4.25,Bassoon 2,0.25,0.075,52,1.0
658.375,658.375,309.3821,174,4.25,Bassoon 1,0.25,0.075,52,1.0
658.375,658.375,309.3821,174,4.25,Violoncello,0.25,0.075,52,1.0
658.375,658.375,309.3821,174,4.25,Contrabass,0.25,0.075,40,1.0
658.625,658.625,309.4571,174,4.5,Bassoon 1,0.25,0.075,54,1.0
658.625,658.625,309.4571,174,4.5,Bassoon 2,0.25,0.075,54,1.0
658.625,658.625,309.4571,174,4.5,Contrabass,0.25,0.075,42,1.0
658.625,658.625,309.4571,174,4.5,Viola,0.25,0.075,66,1.0
658.625,658.625,309.4571,174,4.5,Violoncello,0.25,0.075,54,1.0
658.625,658.625,309.4571,174,4.5,Violin 1,0.25,0.075,74,1.0
658.875,658.875,309.5321,174,4.75,Violoncello,0.25,0.075,55,1.0
658.875,658.875,309.5321,174,4.75,Contrabass,0.25,0.075,43,1.0
658.875,658.875,309.5321,174,4.75,Viola,0.25,0.075,67,1.0
658.875,658.875,309.5321,174,4.75,Bassoon 1,0.25,0.075,55,1.0
658.875,658.875,309.5321,174,4.75,Bassoon 2,0.25,0.075,55,1.0
658.875,658.875,309.5321,174,4.75,Violin 1,0.25,0.075,76,1.0
659.125,659.125,309.6071,175,1.0,D Horn 1,1.0,0.3,62,1.0
659.125,659.125,309.6071,175,1.0,A Clarinet 1,1.0,0.3,69,1.0
659.125,659.125,309.6071,175,1.0,Oboe 2,1.0,0.3,72,1.0
659.125,659.125,309.6071,175,1.0,Bassoon 1,1.0,0.3,57,1.0
659.125,659.125,309.6071,175,1.0,D Trumpet 2,1.0,0.3,62,1.0
659.125,659.125,309.6071,175,1.0,A Clarinet 2,1.0,0.3,66,1.0
659.125,659.125,309.6071,175,1.0,Violin 2,2.0,0.6,62,0.7087
659.125,659.125,309.6071,175,1.0,Violin 2,2.0,0.6,60,0.7087
659.125,659.125,309.6071,175,1.0,Viola,1.0,0.3,69,1.0
659.125,659.125,309.6071,175,1.0,Contrabass,1.0,0.3,45,1.0
659.125,659.125,309.6071,175,1.0,D Horn 2,1.0,0.3,50,1.0
659.125,659.125,309.6071,175,1.0,D Trumpet 1,1.0,0.3,74,1.0
659.125,659.125,309.6071,175,1.0,Flute 1,1.0,0.3,86,1.0
659.125,659.125,309.6071,175,1.0,Violin 1,1.0,0.3,78,1.0
659.125,659.125,309.6071,175,1.0,Timpani,1.0,0.3,50,1.0
659.125,659.125,309.6071,175,1.0,Oboe 1,1.0,0.3,74,1.0
659.125,659.125,309.6071,175,1.0,Bassoon 2,1.0,0.3,57,1.0
659.125,659.125,309.6071,175,1.0,Flute 2,1.0,0.3,84,1.0
659.125,659.125,309.6071,175,1.0,Violoncello,1.0,0.3,57,1.0
660.125,660.125,309.9071,175,2.0,Timpani,1.0,0.3,50,1.0
660.125,660.125,309.9071,175,2.0,Viola,0.25,0.075,69,1.0
660.125,660.125,309.9071,175,2.0,Contrabass,0.25,0.075,45,1.0
660.125,660.125,309.9071,175,2.0,A Clarinet 1,1.0,0.3,69,1.0
660.125,660.125,309.9071,175,2.0,Bassoon 1,0.25,0.075,57,1.0
660.125,660.125,309.9071,175,2.0,D Trumpet 2,1.0,0.3,62,1.0
660.125,660.125,309.9071,175,2.0,Violin 1,0.25,0.075,78,1.0
660.125,660.125,309.9071,175,2.0,Violoncello,0.25,0.075,57,1.0
660.125,660.125,309.9071,175,2.0,D Trumpet 1,1.0,0.3,74,1.0
660.125,660.125,309.9071,175,2.0,A Clarinet 2,1.0,0.3,66,1.0
660.125,660.125,309.9071,175,2.0,Bassoon 2,0.25,0.075,57,1.0
660.125,660.125,309.9071,175,2.0,Oboe 1,1.0,0.3,74,1.0
660.125,660.125,309.9071,175,2.0,Flute 1,1.0,0.3,86,1.0
660.125,660.125,309.9071,175,2.0,D Horn 1,1.0,0.3,62,1.0
660.125,660.125,309.9071,175,2.0,Oboe 2,1.0,0.3,72,1.0
660.125,660.125,309.9071,175,2.0,D Horn 2,1.0,0.3,50,1.0
660.125,660.125,309.9071,175,2.0,Flute 2,1.0,0.3,84,1.0
660.375,660.375,309.9821,175,2.25,Bassoon 1,0.25,0.075,56,1.0
660.375,660.375,309.9821,175,2.25,Violoncello,0.25,0.075,56,1.0
660.375,660.375,309.9821,175,2.25,Violin 1,0.25,0.075,76,1.0
660.375,660.375,309.9821,175,2.25,Bassoon 2,0.25,0.075,56,1.0
660.375,660.375,309.9821,175,2.25,Viola,0.25,0.075,68,1.0
660.375,660.375,309.9821,175,2.25,Contrabass,0.25,0.075,44,1.0
660.625,660.625,310.0571,175,2.5,Violoncello,0.25,0.075,57,1.0
660.625,660.625,310.0571,175,2.5,Violin 1,0.25,0.075,78,1.0
660.625,660.625,310.0571,175,2.5,Contrabass,0.25,0.075,45,1.0
660.625,660.625,310.0571,175,2.5,Bassoon 1,0.25,0.075,57,1.0
660.625,660.625,310.0571,175,2.5,Bassoon 2,0.25,0.075,57,1.0
660.625,660.625,310.0571,175,2.5,Viola,0.25,0.075,69,1.0
660.875,660.875,310.1321,175,2.75,Violin 1,0.25,0.075,79,1.0
660.875,660.875,310.1321,175,2.75,Viola,0.25,0.075,71,1.0
660.875,660.875,310.1321,175,2.75,Contrabass,0.25,0.075,47,1.0
660.875,660.875,310.1321,175,2.75,Bassoon 1,0.25,0.075,59,1.0
660.875,660.875,310.1321,175,2.75,Bassoon 2,0.25,0.075,59,1.0
660.875,660.875,310.1321,175,2.75,Violoncello,0.25,0.075,59,1.0
661.125,661.125,310.2071,175,3.0,Oboe 2,1.0,0.3,72,1.0
661.125,661.125,310.2071,175,3.0,Violin 2,2.0,0.6,60,0.7087
661.125,661.125,310.2071,175,3.0,Violin 1,1.0,0.3,81,1.0
661.125,661.125,310.2071,175,3.0,Violin 2,2.0,0.6,62,0.7087
661.125,661.125,310.2071,175,3.0,Violoncello,2.0,0.6,60,1.0
661.125,661.125,310.2071,175,3.0,D Horn 2,1.0,0.3,50,1.0
661.125,661.125,310.2071,175,3.0,Viola,2.0,0.6,72,1.0
661.125,661.125,310.2071,175,3.0,Contrabass,2.0,0.6,48,1.0
661.125,661.125,310.2071,175,3.0,D Trumpet 1,1.0,0.3,74,1.0
661.125,661.125,310.2071,175,3.0,Flute 1,1.0,0.3,86,1.0
661.125,661.125,310.2071,175,3.0,Oboe 1,1.0,0.3,74,1.0
661.125,661.125,310.2071,175,3.0,D Trumpet 2,1.0,0.3,62,1.0
661.125,661.125,310.2071,175,3.0,A Clarinet 1,1.0,0.3,69,1.0
661.125,661.125,310.2071,175,3.0,Flute 2,1.0,0.3,84,1.0
661.125,661.125,310.2071,175,3.0,A Clarinet 2,1.0,0.3,66,1.0
661.125,661.125,310.2071,175,3.0,Bassoon 1,2.0,0.6,60,1.0
661.125,661.125,310.2071,175,3.0,D Horn 1,1.0,0.3,62,1.0
661.125,661.125,310.2071,175,3.0,Timpani,1.0,0.3,50,1.0
661.125,661.125,310.2071,175,3.0,Bassoon 2,2.0,0.6,60,1.0
662.125,662.125,310.5071,175,4.0,D Horn 2,1.0,0.3,50,1.0
662.125,662.125,310.5071,175,4.0,Violin 1,0.25,0.075,81,1.0
662.125,662.125,310.5071,175,4.0,A Clarinet 2,1.0,0.3,66,1.0
662.125,662.125,310.5071,175,4.0,D Trumpet 2,1.0,0.3,62,1.0
662.125,662.125,310.5071,175,4.0,A Clarinet 1,1.0,0.3,69,1.0
662.125,662.125,310.5071,175,4.0,D Horn 1,1.0,0.3,62,1.0
662.125,662.125,310.5071,175,4.0,Timpani,1.0,0.3,50,1.0
662.125,662.125,310.5071,175,4.0,Flute 2,1.0,0.3,84,1.0
662.125,662.125,310.5071,175,4.0,Flute 1,1.0,0.3,86,1.0
662.125,662.125,310.5071,175,4.0,Oboe 1,1.0,0.3,74,1.0
662.125,662.125,310.5071,175,4.0,Oboe 2,1.0,0.3,72,1.0
662.125,662.125,310.5071,175,4.0,D Trumpet 1,1.0,0.3,74,1.0
662.375,662.375,310.5821,175,4.25,Violin 1,0.25,0.075,80,1.0
662.625,662.625,310.6571,175,4.5,Violin 1,0.25,0.075,81,1.0
662.875,662.875,310.7321,175,4.75,Violin 1,0.25,0.075,83,1.0
663.125,663.125,310.8071,176,1.0,Violin 1,3.0,0.9,84,1.0
663.125,663.125,310.8071,176,1.0,Violin 2,2.0,0.6,62,0.7087
663.125,663.125,310.8071,176,1.0,Violin 2,2.0,0.6,60,0.7087
663.125,663.125,310.8071,176,1.0,D Horn 1,1.0,0.3,62,1.0
663.125,663.125,310.8071,176,1.0,Oboe 1,1.0,0.3,74,1.0
663.125,663.125,310.8071,176,1.0,Bassoon 2,1.0,0.3,60,1.0
663.125,663.125,310.8071,176,1.0,Viola,1.0,0.3,72,1.0
663.125,663.125,310.8071,176,1.0,Flute 2,1.0,0.3,84,1.0
663.125,663.125,310.8071,176,1.0,Timpani,1.0,0.3,50,1.0
663.125,663.125,310.8071,176,1.0,D Trumpet 1,1.0,0.3,74,1.0
663.125,663.125,310.8071,176,1.0,A Clarinet 2,1.0,0.3,66,1.0
663.125,663.125,310.8071,176,1.0,Violoncello,1.0,0.3,60,1.0
663.125,663.125,310.8071,176,1.0,Contrabass,1.0,0.3,48,1.0
663.125,663.125,310.8071,176,1.0,Flute 1,1.0,0.3,86,1.0
663.125,663.125,310.8071,176,1.0,D Horn 2,1.0,0.3,50,1.0
663.125,663.125,310.8071,176,1.0,A Clarinet 1,1.0,0.3,69,1.0
663.125,663.125,310.8071,176,1.0,Bassoon 1,1.0,0.3,60,1.0
663.125,663.125,310.8071,176,1.0,Oboe 2,1.0,0.3,72,1.0
663.125,663.125,310.8071,176,1.0,D Trumpet 2,1.0,0.3,62,1.0
664.125,664.125,311.1071,176,2.0,Contrabass,0.25,0.075,48,1.0
664.125,664.125,311.1071,176,2.0,Violoncello,0.25,0.075,60,1.0
664.125,664.125,311.1071,176,2.0,Bassoon 2,0.25,0.075,60,1.0
664.125,664.125,311.1071,176,2.0,Viola,0.25,0.075,72,1.0
664.125,664.125,311.1071,176,2.0,Bassoon 1,0.25,0.075,60,1.0
664.375,664.375,311.1821,176,2.25,Viola,0.25,0.075,74,1.0
664.375,664.375,311.1821,176,2.25,Bassoon 2,0.25,0.075,62,1.0
664.375,664.375,311.1821,176,2.25,Violoncello,0.25,0.075,62,1.0
664.375,664.375,311.1821,176,2.25,Contrabass,0.25,0.075,50,1.0
664.375,664.375,311.1821,176,2.25,Bassoon 1,0.25,0.075,62,1.0
664.625,664.625,311.2571,176,2.5,Bassoon 2,0.25,0.075,60,1.0
664.625,664.625,311.2571,176,2.5,Violoncello,0.25,0.075,60,1.0
664.625,664.625,311.2571,176,2.5,Viola,0.25,0.075,72,1.0
664.625,664.625,311.2571,176,2.5,Contrabass,0.25,0.075,48,1.0
664.625,664.625,311.2571,176,2.5,Bassoon 1,0.25,0.075,60,1.0
664.875,664.875,311.3321,176,2.75,Bassoon 2,0.25,0.075,59,1.0
664.875,664.875,311.3321,176,2.75,Viola,0.25,0.075,71,1.0
664.875,664.875,311.3321,176,2.75,Violoncello,0.25,0.075,59,1.0
664.875,664.875,311.3321,176,2.75,Bassoon 1,0.25,0.075,59,1.0
664.875,664.875,311.3321,176,2.75,Contrabass,0.25,0.075,47,1.0
665.125,665.125,311.4071,176,3.0,Bassoon 2,1.0,0.3,57,1.0
665.125,665.125,311.4071,176,3.0,Contrabass,1.0,0.3,45,1.0
665.125,665.125,311.4071,176,3.0,Violoncello,1.0,0.3,57,1.0
665.125,665.125,311.4071,176,3.0,Oboe 1,2.0,0.6,74,1.0
665.125,665.125,311.4071,176,3.0,Flute 1,2.0,0.6,86,1.0
665.125,665.125,311.4071,176,3.0,D Horn 2,2.0,0.6,50,1.0
665.125,665.125,311.4071,176,3.0,Bassoon 1,1.0,0.3,57,1.0
665.125,665.125,311.4071,176,3.0,Violin 2,2.0,0.6,60,0.7087
665.125,665.125,311.4071,176,3.0,Oboe 2,2.0,0.6,72,1.0
665.125,665.125,311.4071,176,3.0,A Clarinet 1,2.0,0.6,69,1.0
665.125,665.125,311.4071,176,3.0,Viola,1.0,0.3,69,1.0
665.125,665.125,311.4071,176,3.0,Flute 2,2.0,0.6,84,1.0
665.125,665.125,311.4071,176,3.0,D Horn 1,2.0,0.6,62,1.0
665.125,665.125,311.4071,176,3.0,D Trumpet 1,2.0,0.6,74,1.0
665.125,665.125,311.4071,176,3.0,Timpani,2.0,0.6,50,1.0
665.125,665.125,311.4071,176,3.0,D Trumpet 2,2.0,0.6,62,1.0
665.125,665.125,311.4071,176,3.0,A Clarinet 2,2.0,0.6,66,1.0
665.125,665.125,311.4071,176,3.0,Violin 2,2.0,0.6,62,0.7087
666.125,666.125,311.7071,176,4.0,Contrabass,0.25,0.075,45,1.0
666.125,666.125,311.7071,176,4.0,Violoncello,0.25,0.075,57,1.0
666.125,666.125,311.7071,176,4.0,Viola,0.25,0.075,69,1.0
666.125,666.125,311.7071,176,4.0,Violin 1,0.25,0.075,84,1.0
666.125,666.125,311.7071,176,4.0,Bassoon 2,0.25,0.075,57,1.0
666.125,666.125,311.7071,176,4.0,Bassoon 1,0.25,0.075,57,1.0
666.375,666.375,311.7821,176,4.25,Viola,0.25,0.075,71,1.0
666.375,666.375,311.7821,176,4.25,Contrabass,0.25,0.075,47,1.0
666.375,666.375,311.7821,176,4.25,Bassoon 1,0.25,0.075,59,1.0
666.375,666.375,311.7821,176,4.25,Violoncello,0.25,0.075,59,1.0
666.375,666.375,311.7821,176,4.25,Violin 1,0.25,0.075,86,1.0
666.375,666.375,311.7821,176,4.25,Bassoon 2,0.25,0.075,59,1.0
666.625,666.625,311.8571,176,4.5,Contrabass,0.25,0.075,45,1.0
666.625,666.625,311.8571,176,4.5,Bassoon 2,0.25,0.075,57,1.0
666.625,666.625,311.8571,176,4.5,Bassoon 1,0.25,0.075,57,1.0
666.625,666.625,311.8571,176,4.5,Violin 1,0.25,0.075,84,1.0
666.625,666.625,311.8571,176,4.5,Viola,0.25,0.075,69,1.0
666.625,666.625,311.8571,176,4.5,Violoncello,0.25,0.075,57,1.0
666.875,666.875,311.9321,176,4.75,Bassoon 2,0.25,0.075,55,1.0
666.875,666.875,311.9321,176,4.75,Bassoon 1,0.25,0.075,55,1.0
666.875,666.875,311.9321,176,4.75,Violoncello,0.25,0.075,55,1.0
666.875,666.875,311.9321,176,4.75,Contrabass,0.25,0.075,43,1.0
666.875,666.875,311.9321,176,4.75,Viola,0.25,0.075,67,1.0
666.875,666.875,311.9321,176,4.75,Violin 1,0.25,0.075,83,1.0
667.125,667.125,312.0071,177,1.0,Bassoon 1,1.0,0.3,54,1.0
667.125,667.125,312.0071,177,1.0,Oboe 1,1.0,0.3,74,1.0
667.125,667.125,312.0071,177,1.0,D Trumpet 1,1.0,0.3,74,1.0
667.125,667.125,312.0071,177,1.0,Bassoon 2,1.0,0.3,54,1.0
667.125,667.125,312.0071,177,1.0,Violin 1,1.0,0.3,81,1.0
667.125,667.125,312.0071,177,1.0,D Horn 2,1.0,0.3,50,1.0
667.125,667.125,312.0071,177,1.0,Flute 1,1.0,0.3,86,1.0
667.125,667.125,312.0071,177,1.0,D Trumpet 2,1.0,0.3,62,1.0
667.125,667.125,312.0071,177,1.0,Violoncello,1.0,0.3,54,1.0
667.125,667.125,312.0071,177,1.0,A Clarinet 1,1.0,0.3,69,1.0
667.125,667.125,312.0071,177,1.0,Flute 2,1.0,0.3,84,1.0
667.125,667.125,312.0071,177,1.0,Violin 2,2.0,0.6,62,0.7087
667.125,667.125,312.0071,177,1.0,Violin 2,2.0,0.6,60,0.7087
667.125,667.125,312.0071,177,1.0,Oboe 2,1.0,0.3,72,1.0
667.125,667.125,312.0071,177,1.0,D Horn 1,1.0,0.3,62,1.0
667.125,667.125,312.0071,177,1.0,Viola,1.0,0.3,66,1.0
667.125,667.125,312.0071,177,1.0,Contrabass,1.0,0.3,42,1.0
667.125,667.125,312.0071,177,1.0,Timpani,1.0,0.3,50,1.0
667.125,667.125,312.0071,177,1.0,A Clarinet 2,1.0,0.3,66,1.0
668.125,668.125,312.3071,177,2.0,Violin 1,0.25,0.075,81,1.0
668.125,668.125,312.3071,177,2.0,D Horn 2,1.0,0.3,50,1.0
668.125,668.125,312.3071,177,2.0,Flute 2,1.0,0.3,84,1.0
668.125,668.125,312.3071,177,2.0,D Trumpet 1,1.0,0.3,74,1.0
668.125,668.125,312.3071,177,2.0,Timpani,1.0,0.3,50,1.0
668.125,668.125,312.3071,177,2.0,Bassoon 2,0.25,0.075,54,1.0
668.125,668.125,312.3071,177,2.0,Contrabass,0.25,0.075,42,1.0
668.125,668.125,312.3071,177,2.0,D Horn 1,1.0,0.3,62,1.0
668.125,668.125,312.3071,177,2.0,A Clarinet 2,1.0,0.3,66,1.0
668.125,668.125,312.3071,177,2.0,Viola,0.25,0.075,66,1.0
668.125,668.125,312.3071,177,2.0,Oboe 1,1.0,0.3,74,1.0
668.125,668.125,312.3071,177,2.0,Oboe 2,1.0,0.3,72,1.0
668.125,668.125,312.3071,177,2.0,Flute 1,1.0,0.3,86,1.0
668.125,668.125,312.3071,177,2.0,A Clarinet 1,1.0,0.3,69,1.0
668.125,668.125,312.3071,177,2.0,Violoncello,0.25,0.075,54,1.0
668.125,668.125,312.3071,177,2.0,D Trumpet 2,1.0,0.3,62,1.0
668.125,668.125,312.3071,177,2.0,Bassoon 1,0.25,0.075,54,1.0
668.375,668.375,312.3821,177,2.25,Bassoon 2,0.25,0.075,55,1.0
668.375,668.375,312.3821,177,2.25,Viola,0.25,0.075,67,1.0
668.375,668.375,312.3821,177,2.25,Violoncello,0.25,0.075,55,1.0
668.375,668.375,312.3821,177,2.25,Violin 1,0.25,0.075,83,1.0
668.375,668.375,312.3821,177,2.25,Bassoon 1,0.25,0.075,55,1.0
668.375,668.375,312.3821,177,2.25,Contrabass,0.25,0.075,43,1.0
668.625,668.625,312.4571,177,2.5,Bassoon 1,0.25,0.075,54,1.0
668.625,668.625,312.4571,177,2.5,Bassoon 2,0.25,0.075,54,1.0
668.625,668.625,312.4571,177,2.5,Contrabass,0.25,0.075,42,1.0
668.625,668.625,312.4571,177,2.5,Viola,0.25,0.075,66,1.0
668.625,668.625,312.4571,177,2.5,Violoncello,0.25,0.075,54,1.0
668.625,668.625,312.4571,177,2.5,Violin 1,0.25,0.075,81,1.0
668.875,668.875,312.5321,177,2.75,Violin 1,0.25,0.075,79,1.0
668.875,668.875,312.5321,177,2.75,Bassoon 2,0.25,0.075,52,1.0
668.875,668.875,312.5321,177,2.75,Bassoon 1,0.25,0.075,52,1.0
668.875,668.875,312.5321,177,2.75,Violoncello,0.25,0.075,52,1.0
668.875,668.875,312.5321,177,2.75,Viola,0.25,0.075,64,1.0
668.875,668.875,312.5321,177,2.75,Contrabass,0.25,0.075,40,1.0
669.125,669.125,312.6071,177,3.0,Bassoon 2,2.0,0.6,50,1.0
669.125,669.125,312.6071,177,3.0,Contrabass,2.0,0.6,38,1.0
669.125,669.125,312.6071,177,3.0,Flute 2,1.0,0.3,84,1.0
669.125,669.125,312.6071,177,3.0,Violin 1,1.0,0.3,78,1.0
669.125,669.125,312.6071,177,3.0,D Trumpet 1,1.0,0.3,74,1.0
669.125,669.125,312.6071,177,3.0,Oboe 2,1.0,0.3,72,1.0
669.125,669.125,312.6071,177,3.0,Flute 1,1.0,0.3,86,1.0
669.125,669.125,312.6071,177,3.0,D Trumpet 2,1.0,0.3,62,1.0
669.125,669.125,312.6071,177,3.0,A Clarinet 1,1.0,0.3,69,1.0
669.125,669.125,312.6071,177,3.0,Timpani,1.0,0.3,50,1.0
669.125,669.125,312.6071,177,3.0,Violin 2,2.0,0.6,60,0.7087
669.125,669.125,312.6071,177,3.0,Viola,2.0,0.6,62,1.0
669.125,669.125,312.6071,177,3.0,Bassoon 1,2.0,0.6,50,1.0
669.125,669.125,312.6071,177,3.0,D Horn 2,1.0,0.3,50,1.0
669.125,669.125,312.6071,177,3.0,Violoncello,2.0,0.6,50,1.0
669.125,669.125,312.6071,177,3.0,Violin 2,2.0,0.6,62,0.7087
669.125,669.125,312.6071,177,3.0,A Clarinet 2,1.0,0.3,66,1.0
669.125,669.125,312.6071,177,3.0,Oboe 1,1.0,0.3,74,1.0
669.125,669.125,312.6071,177,3.0,D Horn 1,1.0,0.3,62,1.0
670.125,670.125,312.9071,177,4.0,D Trumpet 2,1.0,0.3,62,1.0
670.125,670.125,312.9071,177,4.0,Oboe 2,1.0,0.3,72,1.0
670.125,670.125,312.9071,177,4.0,A Clarinet 2,1.0,0.3,66,1.0
670.125,670.125,312.9071,177,4.0,Flute 1,1.0,0.3,86,1.0
670.125,670.125,312.9071,177,4.0,A Clarinet 1,1.0,0.3,69,1.0
670.125,670.125,312.9071,177,4.0,Oboe 1,1.0,0.3,74,1.0
670.125,670.125,312.9071,177,4.0,D Horn 2,1.0,0.3,50,1.0
670.125,670.125,312.9071,177,4.0,Timpani,1.0,0.3,50,1.0
670.125,670.125,312.9071,177,4.0,Violin 1,0.25,0.075,78,1.0
670.125,670.125,312.9071,177,4.0,D Trumpet 1,1.0,0.3,74,1.0
670.125,670.125,312.9071,177,4.0,D Horn 1,1.0,0.3,62,1.0
670.125,670.125,312.9071,177,4.0,Flute 2,1.0,0.3,84,1.0
670.375,670.375,312.9821,177,4.25,Violin 1,0.25,0.075,79,1.0
670.625,670.625,313.0571,177,4.5,Violin 1,0.25,0.075,78,1.0
670.875,670.875,313.1321,177,4.75,Violin 1,0.25,0.075,76,1.0
671.125,671.125,313.2071,178,1.0,D Trumpet 1,1.0,0.3,74,1.0
671.125,671.125,313.2071,178,1.0,Flute 2,1.0,0.3,84,1.0
671.125,671.125,313.2071,178,1.0,Violoncello,1.0,0.3,50,1.0
671.125,671.125,313.2071,178,1.0,Bassoon 1,1.0,0.3,50,1.0
671.125,671.125,313.2071,178,1.0,Oboe 1,1.0,0.3,74,1.0
671.125,671.125,313.2071,178,1.0,Viola,1.0,0.3,62,1.0
671.125,671.125,313.2071,178,1.0,D Horn 1,1.0,0.3,62,1.0
671.125,671.125,313.2071,178,1.0,Flute 1,1.0,0.3,86,1.0
671.125,671.125,313.2071,178,1.0,Violin 2,2.0,0.6,62,0.7087
671.125,671.125,313.2071,178,1.0,Violin 1,3.0,0.9,74,1.0
671.125,671.125,313.2071,178,1.0,A Clarinet 1,1.0,0.3,69,1.0
671.125,671.125,313.2071,178,1.0,A Clarinet 2,1.0,0.3,66,1.0
671.125,671.125,313.2071,178,1.0,Violin 2,2.0,0.6,60,0.7087
671.125,671.125,313.2071,178,1.0,D Trumpet 2,1.0,0.3,62,1.0
671.125,671.125,313.2071,178,1.0,Contrabass,1.0,0.3,38,1.0
671.125,671.125,313.2071,178,1.0,Bassoon 2,1.0,0.3,50,1.0
671.125,671.125,313.2071,178,1.0,D Horn 2,1.0,0.3,50,1.0
671.125,671.125,313.2071,178,1.0,Timpani,1.0,0.3,50,1.0
671.125,671.125,313.2071,178,1.0,Oboe 2,1.0,0.3,72,1.0
672.125,672.125,313.5071,178,2.0,Viola,0.25,0.075,62,1.0
672.125,672.125,313.5071,178,2.0,Bassoon 2,0.25,0.075,50,1.0
672.125,672.125,313.5071,178,2.0,Contrabass,0.25,0.075,38,1.0
672.125,672.125,313.5071,178,2.0,Violoncello,0.25,0.075,50,1.0
672.125,672.125,313.5071,178,2.0,Bassoon 1,0.25,0.075,50,1.0
672.375,672.375,313.5821,178,2.25,Bassoon 1,0.25,0.075,49,1.0
672.375,672.375,313.5821,178,2.25,Contrabass,0.25,0.075,37,1.0
672.375,672.375,313.5821,178,2.25,Viola,0.25,0.075,61,1.0
672.375,672.375,313.5821,178,2.25,Violoncello,0.25,0.075,49,1.0
672.375,672.375,313.5821,178,2.25,Bassoon 2,0.25,0.075,49,1.0
672.625,672.625,313.6571,178,2.5,Bassoon 2,0.25,0.075,50,1.0
672.625,672.625,313.6571,178,2.5,Contrabass,0.25,0.075,38,1.0
672.625,672.625,313.6571,178,2.5,Violoncello,0.25,0.075,50,1.0
672.625,672.625,313.6571,178,2.5,Bassoon 1,0.25,0.075,50,1.0
672.625,672.625,313.6571,178,2.5,Viola,0.25,0.075,62,1.0
672.875,672.875,313.7321,178,2.75,Viola,0.25,0.075,64,1.0
672.875,672.875,313.7321,178,2.75,Bassoon 2,0.25,0.075,52,1.0
672.875,672.875,313.7321,178,2.75,Violoncello,0.25,0.075,52,1.0
672.875,672.875,313.7321,178,2.75,Bassoon 1,0.25,0.075,52,1.0
672.875,672.875,313.7321,178,2.75,Contrabass,0.25,0.075,40,1.0
673.125,673.125,313.8071,178,3.0,Violoncello,1.0,0.3,54,1.0
673.125,673.125,313.8071,178,3.0,D Trumpet 2,2.0,0.6,62,1.0
673.125,673.125,313.8071,178,3.0,Flute 2,2.0,0.6,84,1.0
673.125,673.125,313.8071,178,3.0,Oboe 2,2.0,0.6,72,1.0
673.125,673.125,313.8071,178,3.0,A Clarinet 1,2.0,0.6,69,1.0
673.125,673.125,313.8071,178,3.0,D Horn 2,2.0,0.6,50,1.0
673.125,673.125,313.8071,178,3.0,D Horn 1,2.0,0.6,62,1.0
673.125,673.125,313.8071,178,3.0,Bassoon 2,1.0,0.3,54,1.0
673.125,673.125,313.8071,178,3.0,D Trumpet 1,2.0,0.6,74,1.0
673.125,673.125,313.8071,178,3.0,Violin 2,2.0,0.6,60,0.7087
673.125,673.125,313.8071,178,3.0,Contrabass,1.0,0.3,42,1.0
673.125,673.125,313.8071,178,3.0,Flute 1,2.0,0.6,86,1.0
673.125,673.125,313.8071,178,3.0,A Clarinet 2,2.0,0.6,66,1.0
673.125,673.125,313.8071,178,3.0,Oboe 1,2.0,0.6,74,1.0
673.125,673.125,313.8071,178,3.0,Viola,1.0,0.3,66,1.0
673.125,673.125,313.8071,178,3.0,Bassoon 1,1.0,0.3,54,1.0
673.125,673.125,313.8071,178,3.0,Timpani,2.0,0.6,50,1.0
673.125,673.125,313.8071,178,3.0,Violin 2,2.0,0.6,62,0.7087
674.125,674.125,314.1071,178,4.0,Violoncello,0.25,0.075,54,1.0
674.125,674.125,314.1071,178,4.0,Bassoon 2,0.25,0.075,54,1.0
674.125,674.125,314.1071,178,4.0,Bassoon 1,0.25,0.075,54,1.0
674.125,674.125,314.1071,178,4.0,Viola,0.25,0.075,66,1.0
674.125,674.125,314.1071,178,4.0,Violin 1,0.25,0.075,74,1.0
674.125,674.125,314.1071,178,4.0,Contrabass,0.25,0.075,42,1.0
674.375,674.375,314.1821,178,4.25,Contrabass,0.25,0.075,40,1.0
674.375,674.375,314.1821,178,4.25,Viola,0.25,0.075,64,1.0
674.375,674.375,314.1821,178,4.25,Violin 1,0.25,0.075,73,1.0
674.375,674.375,314.1821,178,4.25,Violoncello,0.25,0.075,52,1.0
674.375,674.375,314.1821,178,4.25,Bassoon 2,0.25,0.075,52,1.0
674.375,674.375,314.1821,178,4.25,Bassoon 1,0.25,0.075,52,1.0
674.625,674.625,314.2571,178,4.5,Bassoon 1,0.25,0.075,54,1.0
674.625,674.625,314.2571,178,4.5,Bassoon 2,0.25,0.075,54,1.0
674.625,674.625,314.2571,178,4.5,Violin 1,0.25,0.075,74,1.0
674.625,674.625,314.2571,178,4.5,Violoncello,0.25,0.075,54,1.0
674.625,674.625,314.2571,178,4.5,Contrabass,0.25,0.075,42,1.0
674.625,674.625,314.2571,178,4.5,Viola,0.25,0.075,66,1.0
674.875,674.875,314.3321,178,4.75,Bassoon 2,0.25,0.075,55,1.0
674.875,674.875,314.3321,178,4.75,Viola,0.25,0.075,67,1.0
674.875,674.875,314.3321,178,4.75,Violoncello,0.25,0.075,55,1.0
674.875,674.875,314.3321,178,4.75,Violin 1,0.25,0.075,76,1.0
674.875,674.875,314.3321,178,4.75,Bassoon 1,0.25,0.075,55,1.0
674.875,674.875,314.3321,178,4.75,Contrabass,0.25,0.075,43,1.0
675.125,675.125,314.4071,179,1.0,Oboe 1,1.0,0.3,74,1.0
675.125,675.125,314.4071,179,1.0,Violin 2,2.0,0.6,62,0.7087
675.125,675.125,314.4071,179,1.0,Timpani,1.0,0.3,50,1.0
675.125,675.125,314.4071,179,1.0,Contrabass,1.0,0.3,45,1.0
675.125,675.125,314.4071,179,1.0,Viola,1.0,0.3,69,1.0
675.125,675.125,314.4071,179,1.0,A Clarinet 2,1.0,0.3,66,1.0
675.125,675.125,314.4071,179,1.0,Flute 1,1.0,0.3,86,1.0
675.125,675.125,314.4071,179,1.0,Bassoon 2,1.0,0.3,57,1.0
675.125,675.125,314.4071,179,1.0,D Trumpet 2,1.0,0.3,62,1.0
675.125,675.125,314.4071,179,1.0,Violin 2,2.0,0.6,60,0.7087
675.125,675.125,314.4071,179,1.0,D Trumpet 1,1.0,0.3,74,1.0
675.125,675.125,314.4071,179,1.0,D Horn 1,1.0,0.3,62,1.0
675.125,675.125,314.4071,179,1.0,A Clarinet 1,1.0,0.3,69,1.0
675.125,675.125,314.4071,179,1.0,Oboe 2,1.0,0.3,72,1.0
675.125,675.125,314.4071,179,1.0,Flute 2,1.0,0.3,84,1.0
675.125,675.125,314.4071,179,1.0,D Horn 2,1.0,0.3,50,1.0
675.125,675.125,314.4071,179,1.0,Violin 1,1.0,0.3,78,1.0
675.125,675.125,314.4071,179,1.0,Violoncello,1.0,0.3,57,1.0
675.125,675.125,314.4071,179,1.0,Bassoon 1,1.0,0.3,57,1.0
676.125,676.125,314.7071,179,2.0,Violoncello,0.25,0.075,57,1.0
676.125,676.125,314.7071,179,2.0,Flute 1,1.0,0.3,86,1.0
676.125,676.125,314.7071,179,2.0,Contrabass,0.25,0.075,45,1.0
676.125,676.125,314.7071,179,2.0,Oboe 1,1.0,0.3,74,1.0
676.125,676.125,314.7071,179,2.0,Bassoon 1,0.25,0.075,57,1.0
676.125,676.125,314.7071,179,2.0,Violin 1,0.25,0.075,78,1.0
676.125,676.125,314.7071,179,2.0,D Horn 2,1.0,0.3,50,1.0
676.125,676.125,314.7071,179,2.0,D Trumpet 1,1.0,0.3,74,1.0
676.125,676.125,314.7071,179,2.0,Viola,0.25,0.075,69,1.0
676.125,676.125,314.7071,179,2.0,Flute 2,1.0,0.3,84,1.0
676.125,676.125,314.7071,179,2.0,Bassoon 2,0.25,0.075,57,1.0
676.125,676.125,314.7071,179,2.0,A Clarinet 2,1.0,0.3,66,1.0
676.125,676.125,314.7071,179,2.0,D Horn 1,1.0,0.3,62,1.0
676.125,676.125,314.7071,179,2.0,Oboe 2,1.0,0.3,72,1.0
676.125,676.125,314.7071,179,2.0,A Clarinet 1,1.0,0.3,69,1.0
676.125,676.125,314.7071,179,2.0,D Trumpet 2,1.0,0.3,62,1.0
676.125,676.125,314.7071,179,2.0,Timpani,1.0,0.3,50,1.0
676.375,676.375,314.7821,179,2.25,Bassoon 2,0.25,0.075,56,1.0
676.375,676.375,314.7821,179,2.25,Contrabass,0.25,0.075,44,1.0
676.375,676.375,314.7821,179,2.25,Viola,0.25,0.075,68,1.0
676.375,676.375,314.7821,179,2.25,Violoncello,0.25,0.075,56,1.0
676.375,676.375,314.7821,179,2.25,Violin 1,0.25,0.075,76,1.0
676.375,676.375,314.7821,179,2.25,Bassoon 1,0.25,0.075,56,1.0
676.625,676.625,314.8571,179,2.5,Bassoon 1,0.25,0.075,57,1.0
676.625,676.625,314.8571,179,2.5,Violoncello,0.25,0.075,57,1.0
676.625,676.625,314.8571,179,2.5,Violin 1,0.25,0.075,78,1.0
676.625,676.625,314.8571,179,2.5,Contrabass,0.25,0.075,45,1.0
676.625,676.625,314.8571,179,2.5,Viola,0.25,0.075,69,1.0
676.625,676.625,314.8571,179,2.5,Bassoon 2,0.25,0.075,57,1.0
676.875,676.875,314.9321,179,2.75,Violoncello,0.25,0.075,59,1.0
676.875,676.875,314.9321,179,2.75,Violin 1,0.25,0.075,79,1.0
676.875,676.875,314.9321,179,2.75,Bassoon 2,0.25,0.075,59,1.0
676.875,676.875,314.9321,179,2.75,Viola,0.25,0.075,71,1.0
676.875,676.875,314.9321,179,2.75,Bassoon 1,0.25,0.075,59,1.0
676.875,676.875,314.9321,179,2.75,Contrabass,0.25,0.075,47,1.0
677.125,677.125,315.0071,179,3.0,Contrabass,2.0,0.6,48,1.0
677.125,677.125,315.0071,179,3.0,Violoncello,2.0,0.6,60,1.0
677.125,677.125,315.0071,179,3.0,Violin 1,1.0,0.3,81,1.0
677.125,677.125,315.0071,179,3.0,Viola,2.0,0.6,72,1.0
677.125,677.125,315.0071,179,3.0,D Trumpet 1,1.0,0.3,74,1.0
677.125,677.125,315.0071,179,3.0,Bassoon 1,2.0,0.6,60,1.0
677.125,677.125,315.0071,179,3.0,Flute 1,1.0,0.3,86,1.0
677.125,677.125,315.0071,179,3.0,Bassoon 2,2.0,0.6,60,1.0
677.125,677.125,315.0071,179,3.0,D Horn 1,1.0,0.3,62,1.0
677.125,677.125,315.0071,179,3.0,Timpani,1.0,0.3,50,1.0
677.125,677.125,315.0071,179,3.0,Violin 2,2.0,0.6,62,0.7087
677.125,677.125,315.0071,179,3.0,Violin 2,2.0,0.6,60,0.7087
677.125,677.125,315.0071,179,3.0,A Clarinet 2,1.0,0.3,66,1.0
677.125,677.125,315.0071,179,3.0,Oboe 1,1.0,0.3,74,1.0
677.125,677.125,315.0071,179,3.0,D Trumpet 2,1.0,0.3,62,1.0
677.125,677.125,315.0071,179,3.0,D Horn 2,1.0,0.3,50,1.0
677.125,677.125,315.0071,179,3.0,Flute 2,1.0,0.3,84,1.0
677.125,677.125,315.0071,179,3.0,Oboe 2,1.0,0.3,72,1.0
677.125,677.125,315.0071,179,3.0,A Clarinet 1,1.0,0.3,69,1.0
678.125,678.125,315.3071,179,4.0,D Trumpet 2,1.0,0.3,62,1.0
678.125,678.125,315.3071,179,4.0,D Trumpet 1,1.0,0.3,74,1.0
678.125,678.125,315.3071,179,4.0,Oboe 1,1.0,0.3,74,1.0
678.125,678.125,315.3071,179,4.0,Flute 1,1.0,0.3,86,1.0
678.125,678.125,315.3071,179,4.0,D Horn 1,1.0,0.3,62,1.0
678.125,678.125,315.3071,179,4.0,Oboe 2,1.0,0.3,72,1.0
678.125,678.125,315.3071,179,4.0,Violin 1,0.25,0.075,81,1.0
678.125,678.125,315.3071,179,4.0,A Clarinet 2,1.0,0.3,66,1.0
678.125,678.125,315.3071,179,4.0,Flute 2,1.0,0.3,84,1.0
678.125,678.125,315.3071,179,4.0,Timpani,1.0,0.3,50,1.0
678.125,678.125,315.3071,179,4.0,A Clarinet 1,1.0,0.3,69,1.0
678.125,678.125,315.3071,179,4.0,D Horn 2,1.0,0.3,50,1.0
678.375,678.375,315.3821,179,4.25,Violin 1,0.25,0.075,80,1.0
678.625,678.625,315.4571,179,4.5,Violin 1,0.25,0.075,81,1.0
678.875,678.875,315.5321,179,4.75,Violin 1,0.25,0.075,83,1.0
679.125,679.125,315.6071,180,1.0,A Clarinet 1,1.0,0.3,69,1.0
679.125,679.125,315.6071,180,1.0,Contrabass,1.0,0.3,48,1.0
679.125,679.125,315.6071,180,1.0,A Clarinet 2,1.0,0.3,66,1.0
679.125,679.125,315.6071,180,1.0,Violin 2,2.0,0.6,60,0.7087
679.125,679.125,315.6071,180,1.0,Timpani,1.0,0.3,50,1.0
679.125,679.125,315.6071,180,1.0,Bassoon 2,1.0,0.3,60,1.0
679.125,679.125,315.6071,180,1.0,Flute 2,1.0,0.3,84,1.0
679.125,679.125,315.6071,180,1.0,Violoncello,1.0,0.3,60,1.0
679.125,679.125,315.6071,180,1.0,Flute 1,1.0,0.3,86,1.0
679.125,679.125,315.6071,180,1.0,Violin 2,2.0,0.6,62,0.7087
679.125,679.125,315.6071,180,1.0,Oboe 2,1.0,0.3,72,1.0
679.125,679.125,315.6071,180,1.0,Viola,1.0,0.3,72,1.0
679.125,679.125,315.6071,180,1.0,D Trumpet 2,1.0,0.3,62,1.0
679.125,679.125,315.6071,180,1.0,D Horn 1,1.0,0.3,62,1.0
679.125,679.125,315.6071,180,1.0,D Trumpet 1,1.0,0.3,74,1.0
679.125,679.125,315.6071,180,1.0,Oboe 1,1.0,0.3,74,1.0
679.125,679.125,315.6071,180,1.0,Violin 1,3.0,0.9,84,1.0
679.125,679.125,315.6071,180,1.0,Bassoon 1,1.0,0.3,60,1.0
679.125,679.125,315.6071,180,1.0,D Horn 2,1.0,0.3,50,1.0
680.125,680.125,315.9071,180,2.0,Bassoon 1,0.25,0.075,60,1.0
680.125,680.125,315.9071,180,2.0,Bassoon 2,0.25,0.075,60,1.0
680.125,680.125,315.9071,180,2.0,Viola,0.25,0.075,72,1.0
680.125,680.125,315.9071,180,2.0,Violoncello,0.25,0.075,60,1.0
680.125,680.125,315.9071,180,2.0,Contrabass,0.25,0.075,48,1.0
680.375,680.375,315.9821,180,2.25,Bassoon 2,0.25,0.075,62,1.0
680.375,680.375,315.9821,180,2.25,Contrabass,0.25,0.075,50,1.0
680.375,680.375,315.9821,180,2.25,Viola,0.25,0.075,74,1.0
680.375,680.375,315.9821,180,2.25,Bassoon 1,0.25,0.075,62,1.0
680.375,680.375,315.9821,180,2.25,Violoncello,0.25,0.075,62,1.0
680.625,680.625,316.0571,180,2.5,Violoncello,0.25,0.075,60,1.0
680.625,680.625,316.0571,180,2.5,Contrabass,0.25,0.075,48,1.0
680.625,680.625,316.0571,180,2.5,Bassoon 2,0.25,0.075,60,1.0
680.625,680.625,316.0571,180,2.5,Bassoon 1,0.25,0.075,60,1.0
680.625,680.625,316.0571,180,2.5,Viola,0.25,0.075,72,1.0
680.875,680.875,316.1321,180,2.75,Violoncello,0.25,0.075,59,1.0
680.875,680.875,316.1321,180,2.75,Bassoon 2,0.25,0.075,59,1.0
680.875,680.875,316.1321,180,2.75,Viola,0.25,0.075,71,1.0
680.875,680.875,316.1321,180,2.75,Contrabass,0.25,0.075,47,1.0
680.875,680.875,316.1321,180,2.75,Bassoon 1,0.25,0.075,59,1.0
681.125,681.125,316.2071,180,3.0,Flute 2,2.0,0.6,84,1.0
681.125,681.125,316.2071,180,3.0,A Clarinet 1,2.0,0.6,69,1.0
681.125,681.125,316.2071,180,3.0,Oboe 2,2.0,0.6,72,1.0
681.125,681.125,316.2071,180,3.0,D Horn 2,2.0,0.6,50,1.0
681.125,681.125,316.2071,180,3.0,Timpani,2.0,0.6,50,1.0
681.125,681.125,316.2071,180,3.0,A Clarinet 2,2.0,0.6,66,1.0
681.125,681.125,316.2071,180,3.0,Violoncello,1.0,0.3,57,1.0
681.125,681.125,316.2071,180,3.0,D Trumpet 2,2.0,0.6,62,1.0
681.125,681.125,316.2071,180,3.0,Viola,1.0,0.3,69,1.0
681.125,681.125,316.2071,180,3.0,Bassoon 1,1.0,0.3,57,1.0
681.125,681.125,316.2071,180,3.0,Bassoon 2,1.0,0.3,57,1.0
681.125,681.125,316.2071,180,3.0,Flute 1,2.0,0.6,86,1.0
681.125,681.125,316.2071,180,3.0,D Horn 1,2.0,0.6,62,1.0
681.125,681.125,316.2071,180,3.0,D Trumpet 1,2.0,0.6,74,1.0
681.125,681.125,316.2071,180,3.0,Violin 2,2.0,0.6,62,0.7087
681.125,681.125,316.2071,180,3.0,Violin 2,2.0,0.6,60,0.7087
681.125,681.125,316.2071,180,3.0,Contrabass,1.0,0.3,45,1.0
681.125,681.125,316.2071,180,3.0,Oboe 1,2.0,0.6,74,1.0
682.125,682.125,316.5071,180,4.0,Violoncello,0.25,0.075,57,1.0
682.125,682.125,316.5071,180,4.0,Violin 1,0.25,0.075,84,1.0
682.125,682.125,316.5071,180,4.0,Viola,0.25,0.075,69,1.0
682.125,682.125,316.5071,180,4.0,Bassoon 1,0.25,0.075,57,1.0
682.125,682.125,316.5071,180,4.0,Contrabass,0.25,0.075,45,1.0
682.125,682.125,316.5071,180,4.0,Bassoon 2,0.25,0.075,57,1.0
682.375,682.375,316.5821,180,4.25,Contrabass,0.25,0.075,47,1.0
682.375,682.375,316.5821,180,4.25,Violoncello,0.25,0.075,59,1.0
682.375,682.375,316.5821,180,4.25,Viola,0.25,0.075,71,1.0
682.375,682.375,316.5821,180,4.25,Bassoon 2,0.25,0.075,59,1.0
682.375,682.375,316.5821,180,4.25,Bassoon 1,0.25,0.075,59,1.0
682.375,682.375,316.5821,180,4.25,Violin 1,0.25,0.075,86,1.0
682.625,682.625,316.6571,180,4.5,Violin 1,0.25,0.075,84,1.0
682.625,682.625,316.6571,180,4.5,Contrabass,0.25,0.075,45,1.0
682.625,682.625,316.6571,180,4.5,Bassoon 2,0.25,0.075,57,1.0
682.625,682.625,316.6571,180,4.5,Bassoon 1,0.25,0.075,57,1.0
682.625,682.625,316.6571,180,4.5,Violoncello,0.25,0.075,57,1.0
682.625,682.625,316.6571,180,4.5,Viola,0.25,0.075,69,1.0
682.875,682.875,316.7321,180,4.75,Contrabass,0.25,0.075,43,1.0
682.875,682.875,316.7321,180,4.75,Violin 1,0.25,0.075,83,1.0
682.875,682.875,316.7321,180,4.75,Bassoon 2,0.25,0.075,55,1.0
682.875,682.875,316.7321,180,4.75,Bassoon 1,0.25,0.075,55,1.0
682.875,682.875,316.7321,180,4.75,Viola,0.25,0.075,67,1.0
682.875,682.875,316.7321,180,4.75,Violoncello,0.25,0.075,55,1.0
683.125,683.125,316.8071,181,1.0,Flute 2,1.0,0.3,84,1.0
683.125,683.125,316.8071,181,1.0,Violin 1,1.0,0.3,81,1.0
683.125,683.125,316.8071,181,1.0,Bassoon 2,1.0,0.3,54,1.0
683.125,683.125,316.8071,181,1.0,D Trumpet 2,1.0,0.3,62,1.0
683.125,683.125,316.8071,181,1.0,Viola,1.0,0.3,66,1.0
683.125,683.125,316.8071,181,1.0,Timpani,1.0,0.3,50,1.0
683.125,683.125,316.8071,181,1.0,D Horn 2,1.0,0.3,50,1.0
683.125,683.125,316.8071,181,1.0,D Trumpet 1,1.0,0.3,74,1.0
683.125,683.125,316.8071,181,1.0,Violoncello,1.0,0.3,54,1.0
683.125,683.125,316.8071,181,1.0,D Horn 1,1.0,0.3,62,1.0
683.125,683.125,316.8071,181,1.0,A Clarinet 2,1.0,0.3,66,1.0
683.125,683.125,316.8071,181,1.0,Bassoon 1,1.0,0.3,54,1.0
683.125,683.125,316.8071,181,1.0,Flute 1,1.0,0.3,86,1.0
683.125,683.125,316.8071,181,1.0,Violin 2,2.0,0.6,60,0.7087
683.125,683.125,316.8071,181,1.0,Contrabass,1.0,0.3,42,1.0
683.125,683.125,316.8071,181,1.0,A Clarinet 1,1.0,0.3,69,1.0
683.125,683.125,316.8071,181,1.0,Oboe 2,1.0,0.3,72,1.0
683.125,683.125,316.8071,181,1.0,Violin 2,2.0,0.6,62,0.7087
683.125,683.125,316.8071,181,1.0,Oboe 1,1.0,0.3,74,1.0
684.125,684.125,317.1071,181,2.0,Oboe 1,1.0,0.3,74,1.0
684.125,684.125,317.1071,181,2.0,Flute 2,1.0,0.3,84,1.0
684.125,684.125,317.1071,181,2.0,D Trumpet 1,1.0,0.3,74,1.0
684.125,684.125,317.1071,181,2.0,A Clarinet 1,1.0,0.3,69,1.0
684.125,684.125,317.1071,181,2.0,Viola,0.25,0.075,66,1.0
684.125,684.125,317.1071,181,2.0,Contrabass,0.25,0.075,42,1.0
684.125,684.125,317.1071,181,2.0,Bassoon 1,0.25,0.075,54,1.0
684.125,684.125,317.1071,181,2.0,Bassoon 2,0.25,0.075,54,1.0
684.125,684.125,317.1071,181,2.0,Violoncello,0.25,0.075,54,1.0
684.125,684.125,317.1071,181,2.0,D Horn 1,1.0,0.3,62,1.0
684.125,684.125,317.1071,181,2.0,D Horn 2,1.0,0.3,50,1.0
684.125,684.125,317.1071,181,2.0,Oboe 2,1.0,0.3,72,1.0
684.125,684.125,317.1071,181,2.0,D Trumpet 2,1.0,0.3,62,1.0
684.125,684.125,317.1071,181,2.0,Flute 1,1.0,0.3,86,1.0
684.125,684.125,317.1071,181,2.0,Timpani,1.0,0.3,50,1.0
684.125,684.125,317.1071,181,2.0,A Clarinet 2,1.0,0.3,66,1.0
684.125,684.125,317.1071,181,2.0,Violin 1,0.25,0.075,81,1.0
684.375,684.375,317.1821,181,2.25,Violin 1,0.25,0.075,83,1.0
684.375,684.375,317.1821,181,2.25,Violoncello,0.25,0.075,55,1.0
684.375,684.375,317.1821,181,2.25,Bassoon 2,0.25,0.075,55,1.0
684.375,684.375,317.1821,181,2.25,Viola,0.25,0.075,67,1.0
684.375,684.375,317.1821,181,2.25,Bassoon 1,0.25,0.075,55,1.0
684.375,684.375,317.1821,181,2.25,Contrabass,0.25,0.075,43,1.0
684.625,684.625,317.2571,181,2.5,Violin 1,0.25,0.075,81,1.0
684.625,684.625,317.2571,181,2.5,Contrabass,0.25,0.075,42,1.0
684.625,684.625,317.2571,181,2.5,Viola,0.25,0.075,66,1.0
684.625,684.625,317.2571,181,2.5,Bassoon 2,0.25,0.075,54,1.0
684.625,684.625,317.2571,181,2.5,Violoncello,0.25,0.075,54,1.0
684.625,684.625,317.2571,181,2.5,Bassoon 1,0.25,0.075,54,1.0
684.875,684.875,317.3321,181,2.75,Violoncello,0.25,0.075,52,1.0
684.875,684.875,317.3321,181,2.75,Viola,0.25,0.075,64,1.0
684.875,684.875,317.3321,181,2.75,Bassoon 1,0.25,0.075,52,1.0
684.875,684.875,317.3321,181,2.75,Bassoon 2,0.25,0.075,52,1.0
684.875,684.875,317.3321,181,2.75,Contrabass,0.25,0.075,40,1.0
684.875,684.875,317.3321,181,2.75,Violin 1,0.25,0.075,79,1.0
685.125,685.125,317.4071,181,3.0,Violin 2,2.0,0.6,62,0.7087
685.125,685.125,317.4071,181,3.0,Violin 2,2.0,0.6,60,0.7087
685.125,685.125,317.4071,181,3.0,A Clarinet 2,1.0,0.3,66,1.0
685.125,685.125,317.4071,181,3.0,Viola,2.0,0.6,62,1.0
685.125,685.125,317.4071,181,3.0,Timpani,1.0,0.3,50,1.0
685.125,685.125,317.4071,181,3.0,Flute 2,1.0,0.3,84,1.0
685.125,685.125,317.4071,181,3.0,Flute 1,1.0,0.3,86,1.0
685.125,685.125,317.4071,181,3.0,Oboe 1,1.0,0.3,74,1.0
685.125,685.125,317.4071,181,3.0,D Trumpet 1,1.0,0.3,74,1.0
685.125,685.125,317.4071,181,3.0,Oboe 2,1.0,0.3,72,1.0
685.125,685.125,317.4071,181,3.0,Violin 1,1.0,0.3,78,1.0
685.125,685.125,317.4071,181,3.0,D Trumpet 2,1.0,0.3,62,1.0
685.125,685.125,317.4071,181,3.0,Contrabass,2.0,0.6,38,1.0
685.125,685.125,317.4071,181,3.0,Bassoon 1,2.0,0.6,50,1.0
685.125,685.125,317.4071,181,3.0,D Horn 1,1.0,0.3,62,1.0
685.125,685.125,317.4071,181,3.0,A Clarinet 1,1.0,0.3,69,1.0
685.125,685.125,317.4071,181,3.0,Bassoon 2,2.0,0.6,50,1.0
685.125,685.125,317.4071,181,3.0,Violoncello,2.0,0.6,50,1.0
685.125,685.125,317.4071,181,3.0,D Horn 2,1.0,0.3,50,1.0
686.125,686.125,317.7071,181,4.0,D Horn 1,1.0,0.3,62,1.0
686.125,686.125,317.7071,181,4.0,Flute 1,1.0,0.3,86,1.0
686.125,686.125,317.7071,181,4.0,Oboe 1,1.0,0.3,74,1.0
686.125,686.125,317.7071,181,4.0,Flute 2,1.0,0.3,84,1.0
686.125,686.125,317.7071,181,4.0,Oboe 2,1.0,0.3,72,1.0
686.125,686.125,317.7071,181,4.0,D Horn 2,1.0,0.3,50,1.0
686.125,686.125,317.7071,181,4.0,D Trumpet 2,1.0,0.3,62,1.0
686.125,686.125,317.7071,181,4.0,Timpani,1.0,0.3,50,1.0
686.125,686.125,317.7071,181,4.0,Violin 1,0.25,0.075,78,1.0
686.125,686.125,317.7071,181,4.0,A Clarinet 2,1.0,0.3,66,1.0
686.125,686.125,317.7071,181,4.0,A Clarinet 1,1.0,0.3,69,1.0
686.125,686.125,317.7071,181,4.0,D Trumpet 1,1.0,0.3,74,1.0
686.375,686.375,317.7821,181,4.25,Violin 1,0.25,0.075,79,1.0
686.625,686.625,317.8571,181,4.5,Violin 1,0.25,0.075,78,1.0
686.875,686.875,317.9321,181,4.75,Violin 1,0.25,0.075,76,1.0
687.125,687.125,318.0071,182,1.0,Bassoon 1,1.0,0.3,50,1.0
687.125,687.125,318.0071,182,1.0,D Trumpet 1,1.0,0.3,74,1.0
687.125,687.125,318.0071,182,1.0,Timpani,1.0,0.3,50,1.0
687.125,687.125,318.0071,182,1.0,D Horn 2,1.0,0.3,50,1.0
687.125,687.125,318.0071,182,1.0,Violoncello,1.0,0.3,50,1.0
687.125,687.125,318.0071,182,1.0,D Horn 1,1.0,0.3,62,1.0
687.125,687.125,318.0071,182,1.0,D Trumpet 2,1.0,0.3,62,1.0
687.125,687.125,318.0071,182,1.0,Violin 2,1.0,0.3,62,0.7087
687.125,687.125,318.0071,182,1.0,Violin 2,1.0,0.3,60,0.7087
687.125,687.125,318.0071,182,1.0,Bassoon 2,1.0,0.3,50,1.0
687.125,687.125,318.0071,182,1.0,Contrabass,1.0,0.3,38,1.0
687.125,687.125,318.0071,182,1.0,Oboe 2,1.0,0.3,72,0.4961
687.125,687.125,318.0071,182,1.0,Flute 2,1.0,0.3,84,1.0
687.125,687.125,318.0071,182,1.0,A Clarinet 1,1.0,0.3,69,1.0
687.125,687.125,318.0071,182,1.0,Flute 1,1.0,0.3,86,1.0
687.125,687.125,318.0071,182,1.0,Viola,1.0,0.3,62,1.0
687.125,687.125,318.0071,182,1.0,A Clarinet 2,1.0,0.3,66,1.0
687.125,687.125,318.0071,182,1.0,Oboe 1,3.0,0.9,74,0.4961
687.125,687.125,318.0071,182,1.0,Violin 1,1.0,0.3,74,1.0
688.125,688.125,318.3071,182,2.0,Bassoon 1,3.0,0.9,62,0.4961
688.125,688.125,318.3071,182,2.0,Violoncello,3.0,0.9,62,0.4961
688.125,688.125,318.3071,182,2.0,Violin 2,2.0,0.6,69,0.4961
688.125,688.125,318.3071,182,2.0,Bassoon 2,3.0,0.9,62,0.4961
688.125,688.125,318.3071,182,2.0,Violin 1,0.25,0.075,81,0.4961
688.125,688.125,318.3071,182,2.0,Viola,2.0,0.6,66,0.4961
688.375,688.375,318.3821,182,2.25,Violin 1,0.25,0.075,80,0.4961
688.625,688.625,318.4571,182,2.5,Violin 1,0.25,0.075,81,0.4961
688.875,688.875,318.5321,182,2.75,Violin 1,0.25,0.075,83,0.4961
689.125,689.125,318.6071,182,3.0,Violin 1,2.0,0.6,84,0.4961
690.125,690.125,318.9071,182,4.0,Viola,1.0,0.3,67,0.4961
690.125,690.125,318.9071,182,4.0,Oboe 1,1.0,0.3,75,0.4961
690.125,690.125,318.9071,182,4.0,Violin 2,1.0,0.3,70,0.4961
691.125,691.125,319.2071,183,1.0,Viola,3.0,0.9,66,0.4961
691.125,691.125,319.2071,183,1.0,Bassoon 1,4.0,1.2,62,0.4961
691.125,691.125,319.2071,183,1.0,Bassoon 2,4.0,1.2,62,0.4961
691.125,691.125,319.2071,183,1.0,Violin 2,3.0,0.9,69,0.4961
691.125,691.125,319.2071,183,1.0,Violin 1,1.0,0.3,84,0.4961
691.125,691.125,319.2071,183,1.0,Oboe 1,3.0,0.9,74,0.4961
691.125,691.125,319.2071,183,1.0,Violoncello,4.0,1.2,62,0.4961
692.125,692.125,319.5071,183,2.0,Violin 1,0.25,0.075,81,0.4961
692.375,692.375,319.5821,183,2.25,Violin 1,0.25,0.075,80,0.4961
692.625,692.625,319.6571,183,2.5,Violin 1,0.25,0.075,81,0.4961
692.875,692.875,319.7321,183,2.75,Violin 1,0.25,0.075,83,0.4961
693.125,693.125,319.8071,183,3.0,Violin 1,2.0,0.6,84,0.4961
694.125,694.125,320.1071,183,4.0,Viola,1.0,0.3,67,0.4961
694.125,694.125,320.1071,183,4.0,Oboe 1,1.0,0.3,75,0.4961
694.125,694.125,320.1071,183,4.0,Violin 2,1.0,0.3,70,0.4961
695.125,695.125,320.4071,184,1.0,Oboe 1,1.0,0.3,74,0.4961
695.125,695.125,320.4071,184,1.0,Violin 1,1.0,0.3,84,0.4961
695.125,695.125,320.4071,184,1.0,Bassoon 2,1.0,0.3,62,0.4961
695.125,695.125,320.4071,184,1.0,Violin 2,1.0,0.3,69,0.4961
695.125,695.125,320.4071,184,1.0,Bassoon 1,1.0,0.3,62,0.4961
695.125,695.125,320.4071,184,1.0,Viola,1.0,0.3,66,0.4961
695.125,695.125,320.4071,184,1.0,Violoncello,1.0,0.3,62,0.4961
696.125,696.125,320.7071,184,2.0,Violin 1,0.25,0.075,72,0.3543
696.125,696.125,320.7071,184,2.0,Violin 2,0.25,0.075,69,0.3543
696.375,696.375,320.7821,184,2.25,Violin 2,0.25,0.075,68,0.3543
696.375,696.375,320.7821,184,2.25,Violin 1,0.25,0.075,71,0.3543
696.625,696.625,320.8571,184,2.5,Violin 1,0.25,0.075,72,0.3543
696.625,696.625,320.8571,184,2.5,Violin 2,0.25,0.075,69,0.3543
696.875,696.875,320.9321,184,2.75,Violin 1,0.25,0.075,74,0.3543
696.875,696.875,320.9321,184,2.75,Violin 2,0.25,0.075,71,0.3543
697.125,697.125,321.0071,184,3.0,Violoncello,1.0,0.3,50,0.3543
697.125,697.125,321.0071,184,3.0,Contrabass,1.0,0.3,38,0.3543
697.125,697.125,321.0071,184,3.0,Viola,1.0,0.3,62,0.3543
697.125,697.125,321.0071,184,3.0,Violin 1,1.0,0.3,76,0.4043
697.125,697.125,321.0071,184,3.0,Bassoon 1,1.0,0.3,50,0.3543
697.125,697.125,321.0071,184,3.0,Bassoon 2,1.0,0.3,50,0.3543
697.125,697.125,321.0071,184,3.0,Violin 2,1.0,0.3,72,0.4043
698.125,698.125,321.3071,184,4.0,Violin 1,0.25,0.075,69,0.3543
698.125,698.125,321.3071,184,4.0,Violin 2,0.25,0.075,66,0.3543
698.375,698.375,321.3821,184,4.25,Violin 2,0.25,0.075,65,0.3543
698.375,698.375,321.3821,184,4.25,Violin 1,0.25,0.075,68,0.3543
698.625,698.625,321.4571,184,4.5,Violin 1,0.25,0.075,69,0.3543
698.625,698.625,321.4571,184,4.5,Violin 2,0.25,0.075,66,0.3543
698.875,698.875,321.5321,184,4.75,Violin 2,0.25,0.075,67,0.3543
698.875,698.875,321.5321,184,4.75,Violin 1,0.25,0.075,71,0.3543
699.125,699.125,321.6071,185,1.0,Contrabass,1.0,0.3,38,0.3543
699.125,699.125,321.6071,185,1.0,Violin 2,1.0,0.3,69,0.4043
699.125,699.125,321.6071,185,1.0,Viola,1.0,0.3,62,0.3543
699.125,699.125,321.6071,185,1.0,Bassoon 1,1.0,0.3,50,0.3543
699.125,699.125,321.6071,185,1.0,Violin 1,1.0,0.3,72,0.4043
699.125,699.125,321.6071,185,1.0,Bassoon 2,1.0,0.3,50,0.3543
699.125,699.125,321.6071,185,1.0,Violoncello,1.0,0.3,50,0.3543
703.125,703.125,322.8071,186,1.0,Violin 1,2.0,0.6,59,0.4961
703.125,703.125,322.8071,186,1.0,Viola,0.5,0.15,55,0.4961
703.125,703.125,322.8071,186,1.0,Contrabass,1.0,0.3,31,0.4961
703.125,703.125,322.8071,186,1.0,Violin 2,2.0,0.6,55,0.4961
703.125,703.125,322.8071,186,1.0,Violoncello,0.5,0.15,43,0.4961
703.625,703.625,322.9571,186,1.5,Violoncello,0.5,0.15,55,0.4961
703.625,703.625,322.9571,186,1.5,Viola,0.5,0.15,67,0.4961
704.125,704.125,323.1071,186,2.0,Violoncello,0.5,0.15,55,0.4961
704.125,704.125,323.1071,186,2.0,Viola,0.5,0.15,67,0.4961
704.625,704.625,323.2571,186,2.5,Violoncello,0.5,0.15,55,0.4961
704.625,704.625,323.2571,186,2.5,Viola,0.5,0.15,67,0.4961
705.125,705.125,323.4071,186,3.0,Violin 2,1.75,0.525,59,0.4961
705.125,705.125,323.4071,186,3.0,Viola,0.5,0.15,55,0.4961
705.125,705.125,323.4071,186,3.0,Violoncello,0.5,0.15,43,0.4961
705.125,705.125,323.4071,186,3.0,Violin 1,1.75,0.525,62,0.4961
705.625,705.625,323.5571,186,3.5,Viola,0.5,0.15,67,0.4961
705.625,705.625,323.5571,186,3.5,Violoncello,0.5,0.15,55,0.4961
706.125,706.125,323.7071,186,4.0,Viola,0.5,0.15,67,0.4961
706.125,706.125,323.7071,186,4.0,Violoncello,0.5,0.15,55,0.4961
706.625,706.625,323.8571,186,4.5,Violoncello,0.5,0.15,55,0.4961
706.625,706.625,323.8571,186,4.5,Viola,0.5,0.15,67,0.4961
706.875,706.875,323.9321,186,4.75,Violin 1,0.25,0.075,67,0.4961
706.875,706.875,323.9321,186,4.75,Violin 2,0.25,0.075,62,0.4961
707.125,707.125,324.0071,187,1.0,Violin 1,3.0,0.9,71,0.4961
707.125,707.125,324.0071,187,1.0,Violoncello,0.5,0.15,43,0.4961
707.125,707.125,324.0071,187,1.0,Violin 2,3.0,0.9,67,0.4961
707.125,707.125,324.0071,187,1.0,Viola,0.5,0.15,55,0.4961
707.625,707.625,324.1571,187,1.5,Violoncello,0.5,0.15,55,0.4961
707.625,707.625,324.1571,187,1.5,Viola,0.5,0.15,67,0.4961
708.125,708.125,324.3071,187,2.0,Violoncello,0.5,0.15,55,0.4961
708.125,708.125,324.3071,187,2.0,Viola,0.5,0.15,67,0.4961
708.625,708.625,324.4571,187,2.5,Violoncello,0.5,0.15,55,0.4961
708.625,708.625,324.4571,187,2.5,Viola,0.5,0.15,67,0.4961
709.125,709.125,324.6071,187,3.0,Violoncello,0.5,0.15,55,0.4961
709.125,709.125,324.6071,187,3.0,Viola,2.0,0.6,67,0.4961
709.625,709.625,324.7571,187,3.5,Violoncello,0.5,0.15,55,0.4961
710.125,710.125,324.9071,187,4.0,Violin 1,0.75,0.225,71,0.4961
710.125,710.125,324.9071,187,4.0,Bassoon 2,0.75,0.225,55,0.4961
710.125,710.125,324.9071,187,4.0,Bassoon 1,0.75,0.225,59,0.4961
710.125,710.125,324.9071,187,4.0,Violoncello,0.5,0.15,55,0.4961
710.125,710.125,324.9071,187,4.0,Violin 2,0.75,0.225,67,0.4961
710.625,710.625,325.0571,187,4.5,Violoncello,0.5,0.15,55,0.4961
710.875,710.875,325.1321,187,4.75,Violin 1,0.25,0.075,72,0.4961
710.875,710.875,325.1321,187,4.75,Violin 2,0.25,0.075,69,0.4961
710.875,710.875,325.1321,187,4.75,Bassoon 2,0.25,0.075,57,0.4961
710.875,710.875,325.1321,187,4.75,Bassoon 1,0.25,0.075,61,0.4961
711.125,711.125,325.2071,188,1.0,Viola,2.0,0.6,67,0.4961
711.125,711.125,325.2071,188,1.0,Violin 1,1.0,0.3,74,0.5461
711.125,711.125,325.2071,188,1.0,Bassoon 2,1.0,0.3,59,0.5461
711.125,711.125,325.2071,188,1.0,Bassoon 1,1.0,0.3,62,0.5461
711.125,711.125,325.2071,188,1.0,Violoncello,0.5,0.15,55,0.4961
711.125,711.125,325.2071,188,1.0,Violin 2,1.0,0.3,71,0.5461
711.625,711.625,325.3571,188,1.5,Violoncello,0.5,0.15,55,0.4961
712.125,712.125,325.5071,188,2.0,Violoncello,0.5,0.15,55,0.4961
712.125,712.125,325.5071,188,2.0,Bassoon 2,1.0,0.3,59,0.5461
712.125,712.125,325.5071,188,2.0,Violin 2,1.0,0.3,71,0.5461
712.125,712.125,325.5071,188,2.0,Bassoon 1,1.0,0.3,62,0.5461
712.125,712.125,325.5071,188,2.0,Violin 1,1.0,0.3,74,0.5461
712.625,712.625,325.6571,188,2.5,Violoncello,0.5,0.15,55,0.4961
713.125,713.125,325.8071,188,3.0,Violin 1,1.0,0.3,74,0.5461
713.125,713.125,325.8071,188,3.0,Bassoon 1,1.0,0.3,62,0.5461
713.125,713.125,325.8071,188,3.0,Violoncello,0.5,0.15,55,0.4961
713.125,713.125,325.8071,188,3.0,Bassoon 2,1.0,0.3,59,0.5461
713.125,713.125,325.8071,188,3.0,Violin 2,1.0,0.3,71,0.5461
713.125,713.125,325.8071,188,3.0,Viola,2.0,0.6,67,0.4961
713.625,713.625,325.9571,188,3.5,Violoncello,0.5,0.15,55,0.4961
714.125,714.125,326.1071,188,4.0,Bassoon 1,1.0,0.3,64,0.5461
714.125,714.125,326.1071,188,4.0,Violoncello,0.5,0.15,55,0.4961
714.125,714.125,326.1071,188,4.0,Bassoon 2,1.0,0.3,60,0.5461
714.125,714.125,326.1071,188,4.0,Violin 2,1.0,0.3,72,0.5461
714.125,714.125,326.1071,188,4.0,Violin 1,1.0,0.3,76,0.5461
714.625,714.625,326.2571,188,4.5,Violoncello,0.5,0.15,55,0.4961
715.125,715.125,326.4071,189,1.0,Violin 1,2.0,0.6,74,0.4961
715.125,715.125,326.4071,189,1.0,Violin 2,2.0,0.6,71,0.4961
715.125,715.125,326.4071,189,1.0,Violoncello,0.5,0.15,55,0.4961
715.125,715.125,326.4071,189,1.0,Bassoon 2,2.0,0.6,59,0.4961
715.125,715.125,326.4071,189,1.0,Viola,2.0,0.6,67,0.4961
715.125,715.125,326.4071,189,1.0,Bassoon 1,2.0,0.6,62,0.4961
715.625,715.625,326.5571,189,1.5,Violoncello,0.5,0.15,55,0.4961
716.125,716.125,326.7071,189,2.0,Violoncello,0.5,0.15,55,0.4961
716.625,716.625,326.8571,189,2.5,Violoncello,0.5,0.15,55,0.4961
717.125,717.125,327.0071,189,3.0,Viola,0.5,0.15,55,0.4961
717.125,717.125,327.0071,189,3.0,Bassoon 2,0.5,0.15,55,0.4961
717.125,717.125,327.0071,189,3.0,Bassoon 1,0.5,0.15,59,0.4961
717.125,717.125,327.0071,189,3.0,Violin 2,0.5,0.15,67,0.4961
717.125,717.125,327.0071,189,3.0,Violin 1,0.5,0.15,71,0.4961
717.125,717.125,327.0071,189,3.0,Violoncello,0.5,0.15,43,0.4961
717.625,717.625,327.1571,189,3.5,Viola,0.5,0.15,67,0.4961
717.625,717.625,327.1571,189,3.5,Violoncello,0.5,0.15,55,0.4961
718.125,718.125,327.3071,189,4.0,Flute 1,0.75,0.225,83,0.4961
718.125,718.125,327.3071,189,4.0,Viola,0.5,0.15,62,0.4961
718.125,718.125,327.3071,189,4.0,Violoncello,0.5,0.15,50,0.4961
718.125,718.125,327.3071,189,4.0,Flute 2,0.75,0.225,79,0.4961
718.625,718.625,327.4571,189,4.5,Violoncello,0.5,0.15,47,0.4961
718.625,718.625,327.4571,189,4.5,Viola,0.5,0.15,59,0.4961
718.875,718.875,327.5321,189,4.75,Flute 2,0.25,0.075,81,0.4961
718.875,718.875,327.5321,189,4.75,Flute 1,0.25,0.075,84,0.4961
719.125,719.125,327.6071,190,1.0,Flute 2,1.0,0.3,83,0.5461
719.125,719.125,327.6071,190,1.0,Violoncello,1.0,0.3,43,0.4961
719.125,719.125,327.6071,190,1.0,Flute 1,1.0,0.3,86,0.5461
719.125,719.125,327.6071,190,1.0,Oboe 1,1.0,0.3,79,0.5461
719.125,719.125,327.6071,190,1.0,Viola,1.0,0.3,55,0.4961
720.125,720.125,327.9071,190,2.0,Oboe 1,1.0,0.3,79,0.5461
720.125,720.125,327.9071,190,2.0,Flute 2,1.0,0.3,83,0.5461
720.125,720.125,327.9071,190,2.0,Flute 1,1.0,0.3,86,0.5461
721.125,721.125,328.2071,190,3.0,Oboe 1,1.0,0.3,79,0.5461
721.125,721.125,328.2071,190,3.0,Flute 2,1.0,0.3,83,0.5461
721.125,721.125,328.2071,190,3.0,Flute 1,1.0,0.3,86,0.5461
722.125,722.125,328.5071,190,4.0,Oboe 1,1.0,0.3,78,0.5461
722.125,722.125,328.5071,190,4.0,Flute 1,1.0,0.3,87,0.5461
722.125,722.125,328.5071,190,4.0,Flute 2,1.0,0.3,84,0.5461
723.125,723.125,328.8071,191,1.0,Flute 1,1.0,0.3,86,0.4961
723.125,723.125,328.8071,191,1.0,Flute 2,1.0,0.3,83,0.4961
723.125,723.125,328.8071,191,1.0,Violoncello,1.0,0.3,55,0.5461
723.125,723.125,328.8071,191,1.0,Bassoon 1,1.0,0.3,62,0.5461
723.125,723.125,328.8071,191,1.0,Contrabass,1.0,0.3,43,0.5461
723.125,723.125,328.8071,191,1.0,Bassoon 2,1.0,0.3,59,0.5461
723.125,723.125,328.8071,191,1.0,Violin 1,0.3333,0.1,71,0.5461
723.125,723.125,328.8071,191,1.0,Violin 2,0.3333,0.1,62,0.5461
723.125,723.125,328.8071,191,1.0,Oboe 1,1.0,0.3,79,0.5461
723.125,723.125,328.8071,191,1.0,Viola,1.0,0.3,55,0.5461
723.4583,723.4583,328.9071,191,1.3333,Violin 2,0.3333,0.1,59,0.6878
723.4583,723.4583,328.9071,191,1.3333,Violin 1,0.3333,0.1,74,0.6878
723.7917,723.7917,329.0072,191,1.6667,Violin 2,0.3333,0.1,60,0.6878
723.7917,723.7917,329.0072,191,1.6667,Violin 1,0.3333,0.1,72,0.6878
724.125,724.125,329.1071,191,2.0,Viola,1.0,0.3,55,0.5461
724.125,724.125,329.1071,191,2.0,Violoncello,1.0,0.3,55,0.5461
724.125,724.125,329.1071,191,2.0,Violin 1,0.3333,0.1,71,0.6878
724.125,724.125,329.1071,191,2.0,Bassoon 1,1.0,0.3,62,0.5461
724.125,724.125,329.1071,191,2.0,Contrabass,1.0,0.3,43,0.5461
724.125,724.125,329.1071,191,2.0,Bassoon 2,1.0,0.3,59,0.5461
724.125,724.125,329.1071,191,2.0,Violin 2,0.3333,0.1,62,0.6878
724.4583,724.4583,329.2071,191,2.3333,Violin 2,0.3333,0.1,59,0.6878
724.4583,724.4583,329.2071,191,2.3333,Violin 1,0.3333,0.1,74,0.6878
724.7917,724.7917,329.3072,191,2.6667,Violin 2,0.3333,0.1,60,0.6878
724.7917,724.7917,329.3072,191,2.6667,Violin 1,0.3333,0.1,72,0.6878
725.125,725.125,329.4071,191,3.0,Violoncello,1.0,0.3,55,0.5461
725.125,725.125,329.4071,191,3.0,Bassoon 1,1.0,0.3,62,0.5461
725.125,725.125,329.4071,191,3.0,Viola,1.0,0.3,55,0.5461
725.125,725.125,329.4071,191,3.0,Contrabass,1.0,0.3,43,0.5461
725.125,725.125,329.4071,191,3.0,Violin 2,0.3333,0.1,62,0.6878
725.125,725.125,329.4071,191,3.0,Violin 1,0.3333,0.1,71,0.6878
725.125,725.125,329.4071,191,3.0,Bassoon 2,1.0,0.3,59,0.5461
725.4583,725.4583,329.5071,191,3.3333,Violin 2,0.3333,0.1,59,0.6878
725.4583,725.4583,329.5071,191,3.3333,Violin 1,0.3333,0.1,74,0.6878
725.7917,725.7917,329.6072,191,3.6667,Violin 1,0.3333,0.1,71,0.6878
725.7917,725.7917,329.6072,191,3.6667,Violin 2,0.3333,0.1,62,0.6878
726.125,726.125,329.7071,191,4.0,Viola,1.0,0.3,54,0.5461
726.125,726.125,329.7071,191,4.0,Violoncello,1.0,0.3,54,0.5461
726.125,726.125,329.7071,191,4.0,Violin 1,0.3333,0.1,72,0.6878
726.125,726.125,329.7071,191,4.0,Contrabass,1.0,0.3,42,0.5461
726.125,726.125,329.7071,191,4.0,Bassoon 1,1.0,0.3,63,0.5461
726.125,726.125,329.7071,191,4.0,Bassoon 2,1.0,0.3,60,0.5461
726.125,726.125,329.7071,191,4.0,Violin 2,0.3333,0.1,63,0.6878
726.4583,726.4583,329.8071,191,4.3333,Violin 2,0.3333,0.1,60,0.6878
726.4583,726.4583,329.8071,191,4.3333,Violin 1,0.3333,0.1,75,0.6878
726.7917,726.7917,329.9072,191,4.6667,Violin 2,0.3333,0.1,63,0.6878
726.7917,726.7917,329.9072,191,4.6667,Violin 1,0.3333,0.1,72,0.6878
727.125,727.125,330.0071,192,1.0,Bassoon 1,1.0,0.3,62,0.5461
727.125,727.125,330.0071,192,1.0,Contrabass,1.0,0.3,43,0.5461
727.125,727.125,330.0071,192,1.0,Violin 2,1.0,0.3,62,0.6378
727.125,727.125,330.0071,192,1.0,Violoncello,1.0,0.3,55,0.5461
727.125,727.125,330.0071,192,1.0,Bassoon 2,1.0,0.3,59,0.5461
727.125,727.125,330.0071,192,1.0,Oboe 1,1.0,0.3,79,0.5461
727.125,727.125,330.0071,192,1.0,Violin 1,1.0,0.3,71,0.6378
727.125,727.125,330.0071,192,1.0,Viola,1.0,0.3,55,0.5461
727.125,727.125,330.0071,192,1.0,Flute 2,1.0,0.3,83,0.5461
727.125,727.125,330.0071,192,1.0,Flute 1,1.0,0.3,86,0.5461
728.125,728.125,330.3071,192,2.0,Oboe 1,1.0,0.3,79,0.5461
728.125,728.125,330.3071,192,2.0,Flute 2,1.0,0.3,83,0.5461
728.125,728.125,330.3071,192,2.0,Flute 1,1.0,0.3,86,0.5461
729.125,729.125,330.6071,192,3.0,Flute 1,1.0,0.3,86,0.5461
729.125,729.125,330.6071,192,3.0,Oboe 1,1.0,0.3,79,0.5461
729.125,729.125,330.6071,192,3.0,Flute 2,1.0,0.3,83,0.5461
730.125,730.125,330.9071,192,4.0,Oboe 1,1.0,0.3,79,0.5461
730.125,730.125,330.9071,192,4.0,Flute 2,1.0,0.3,85,0.5461
730.125,730.125,330.9071,192,4.0,Flute 1,1.0,0.3,88,0.5461
731.125,731.125,331.2071,193,1.0,Contrabass,1.0,0.3,43,0.5461
731.125,731.125,331.2071,193,1.0,Violoncello,1.0,0.3,55,0.5461
731.125,731.125,331.2071,193,1.0,Bassoon 1,1.0,0.3,62,0.5461
731.125,731.125,331.2071,193,1.0,Viola,1.0,0.3,55,0.5461
731.125,731.125,331.2071,193,1.0,Flute 1,1.0,0.3,89,0.4961
731.125,731.125,331.2071,193,1.0,Flute 2,1.0,0.3,86,0.4961
731.125,731.125,331.2071,193,1.0,Violin 1,0.3333,0.1,77,0.6878
731.125,731.125,331.2071,193,1.0,Violin 2,0.3333,0.1,62,0.6878
731.125,731.125,331.2071,193,1.0,Bassoon 2,1.0,0.3,59,0.5461
731.125,731.125,331.2071,193,1.0,Oboe 1,1.0,0.3,79,0.4961
731.4583,731.4583,331.3071,193,1.3333,Violin 2,0.3333,0.1,65,0.6878
731.4583,731.4583,331.3071,193,1.3333,Violin 1,0.3333,0.1,74,0.6878
731.7917,731.7917,331.4072,193,1.6667,Violin 1,0.3333,0.1,76,0.6878
731.7917,731.7917,331.4072,193,1.6667,Violin 2,0.3333,0.1,64,0.6878
732.125,732.125,331.5071,193,2.0,Viola,1.0,0.3,55,0.5461
732.125,732.125,331.5071,193,2.0,Violoncello,1.0,0.3,55,0.5461
732.125,732.125,331.5071,193,2.0,Bassoon 1,1.0,0.3,62,0.5461
732.125,732.125,331.5071,193,2.0,Bassoon 2,1.0,0.3,59,0.5461
732.125,732.125,331.5071,193,2.0,Violin 2,0.3333,0.1,62,0.6878
732.125,732.125,331.5071,193,2.0,Violin 1,0.3333,0.1,77,0.6878
732.125,732.125,331.5071,193,2.0,Contrabass,1.0,0.3,43,0.5461
732.4583,732.4583,331.6071,193,2.3333,Violin 2,0.3333,0.1,65,0.6878
732.4583,732.4583,331.6071,193,2.3333,Violin 1,0.3333,0.1,74,0.6878
732.7917,732.7917,331.7072,193,2.6667,Violin 2,0.3333,0.1,64,0.6878
732.7917,732.7917,331.7072,193,2.6667,Violin 1,0.3333,0.1,76,0.6878
733.125,733.125,331.8071,193,3.0,Viola,1.0,0.3,55,0.5461
733.125,733.125,331.8071,193,3.0,Violoncello,1.0,0.3,55,0.5461
733.125,733.125,331.8071,193,3.0,Bassoon 1,1.0,0.3,62,0.5461
733.125,733.125,331.8071,193,3.0,Violin 1,0.3333,0.1,77,0.6878
733.125,733.125,331.8071,193,3.0,Bassoon 2,1.0,0.3,59,0.5461
733.125,733.125,331.8071,193,3.0,Contrabass,1.0,0.3,43,0.5461
733.125,733.125,331.8071,193,3.0,Violin 2,0.3333,0.1,62,0.6878
733.4583,733.4583,331.9071,193,3.3333,Violin 1,0.3333,0.1,74,0.6878
733.4583,733.4583,331.9071,193,3.3333,Violin 2,0.3333,0.1,65,0.6878
733.7917,733.7917,332.0072,193,3.6667,Violin 2,0.3333,0.1,64,0.6878
733.7917,733.7917,332.0072,193,3.6667,Violin 1,0.3333,0.1,76,0.6878
734.125,734.125,332.1071,193,4.0,Violin 1,0.3333,0.1,77,0.6878
734.125,734.125,332.1071,193,4.0,Violoncello,1.0,0.3,56,0.5461
734.125,734.125,332.1071,193,4.0,Contrabass,1.0,0.3,44,0.5461
734.125,734.125,332.1071,193,4.0,Bassoon 2,1.0,0.3,62,0.5461
734.125,734.125,332.1071,193,4.0,Bassoon 1,1.0,0.3,65,0.5461
734.125,734.125,332.1071,193,4.0,Violin 2,0.3333,0.1,62,0.6878
734.125,734.125,332.1071,193,4.0,Viola,1.0,0.3,56,0.5461
734.4583,734.4583,332.2071,193,4.3333,Violin 1,0.3333,0.1,76,0.6878
734.4583,734.4583,332.2071,193,4.3333,Violin 2,0.3333,0.1,64,0.6878
734.7917,734.7917,332.3072,193,4.6667,Violin 1,0.3333,0.1,74,0.6878
734.7917,734.7917,332.3072,193,4.6667,Violin 2,0.3333,0.1,65,0.6878
735.125,735.125,332.4071,194,1.0,Flute 1,1.0,0.3,88,0.5461
735.125,735.125,332.4071,194,1.0,Bassoon 1,1.0,0.3,64,0.4961
735.125,735.125,332.4071,194,1.0,Bassoon 2,1.0,0.3,61,0.4961
735.125,735.125,332.4071,194,1.0,Oboe 1,1.0,0.3,81,0.5461
735.125,735.125,332.4071,194,1.0,Violin 2,1.0,0.3,64,0.6378
735.125,735.125,332.4071,194,1.0,Viola,1.0,0.3,57,0.4961
735.125,735.125,332.4071,194,1.0,Contrabass,1.0,0.3,45,0.4961
735.125,735.125,332.4071,194,1.0,Violin 1,1.0,0.3,73,0.6378
735.125,735.125,332.4071,194,1.0,Violoncello,1.0,0.3,57,0.4961
735.125,735.125,332.4071,194,1.0,Flute 2,1.0,0.3,85,0.5461
736.125,736.125,332.7071,194,2.0,Flute 1,1.0,0.3,88,0.5461
736.125,736.125,332.7071,194,2.0,Oboe 1,1.0,0.3,81,0.5461
736.125,736.125,332.7071,194,2.0,Flute 2,1.0,0.3,85,0.5461
737.125,737.125,333.0071,194,3.0,Oboe 1,1.0,0.3,81,0.5461
737.125,737.125,333.0071,194,3.0,Flute 1,1.0,0.3,88,0.5461
737.125,737.125,333.0071,194,3.0,Flute 2,1.0,0.3,85,0.5461
738.125,738.125,333.3071,194,4.0,Flute 2,1.0,0.3,86,0.5461
738.125,738.125,333.3071,194,4.0,Oboe 1,1.0,0.3,80,0.5461
738.125,738.125,333.3071,194,4.0,Flute 1,1.0,0.3,89,0.5461
739.125,739.125,333.6071,195,1.0,Contrabass,1.0,0.3,45,0.5461
739.125,739.125,333.6071,195,1.0,Bassoon 1,1.0,0.3,64,0.5461
739.125,739.125,333.6071,195,1.0,Flute 2,1.0,0.3,85,0.4961
739.125,739.125,333.6071,195,1.0,Bassoon 2,1.0,0.3,61,0.5461
739.125,739.125,333.6071,195,1.0,Viola,1.0,0.3,57,0.5461
739.125,739.125,333.6071,195,1.0,Flute 1,1.0,0.3,88,0.4961
739.125,739.125,333.6071,195,1.0,Violin 1,0.3333,0.1,73,0.6878
739.125,739.125,333.6071,195,1.0,Violoncello,1.0,0.3,57,0.5461
739.125,739.125,333.6071,195,1.0,Oboe 1,1.0,0.3,81,0.4961
739.125,739.125,333.6071,195,1.0,Violin 2,0.3333,0.1,64,0.6878
739.4583,739.4583,333.7071,195,1.3333,Violin 1,0.3333,0.1,76,0.6878
739.4583,739.4583,333.7071,195,1.3333,Violin 2,0.3333,0.1,61,0.6878
739.7917,739.7917,333.8072,195,1.6667,Violin 2,0.3333,0.1,62,0.6878
739.7917,739.7917,333.8072,195,1.6667,Violin 1,0.3333,0.1,74,0.6878
740.125,740.125,333.9071,195,2.0,Contrabass,1.0,0.3,45,0.5461
740.125,740.125,333.9071,195,2.0,Violin 2,0.3333,0.1,64,0.6878
740.125,740.125,333.9071,195,2.0,Violin 1,0.3333,0.1,73,0.6878
740.125,740.125,333.9071,195,2.0,Bassoon 2,1.0,0.3,61,0.5461
740.125,740.125,333.9071,195,2.0,Violoncello,1.0,0.3,57,0.5461
740.125,740.125,333.9071,195,2.0,Viola,1.0,0.3,57,0.5461
740.125,740.125,333.9071,195,2.0,Bassoon 1,1.0,0.3,64,0.5461
740.4583,740.4583,334.0071,195,2.3333,Violin 2,0.3333,0.1,61,0.6878
740.4583,740.4583,334.0071,195,2.3333,Violin 1,0.3333,0.1,76,0.6878
740.7917,740.7917,334.1072,195,2.6667,Violin 2,0.3333,0.1,62,0.6878
740.7917,740.7917,334.1072,195,2.6667,Violin 1,0.3333,0.1,74,0.6878
741.125,741.125,334.2071,195,3.0,Bassoon 1,1.0,0.3,64,0.5461
741.125,741.125,334.2071,195,3.0,Contrabass,1.0,0.3,45,0.5461
741.125,741.125,334.2071,195,3.0,Viola,1.0,0.3,57,0.5461
741.125,741.125,334.2071,195,3.0,Bassoon 2,1.0,0.3,61,0.5461
741.125,741.125,334.2071,195,3.0,Violin 1,0.3333,0.1,73,0.6878
741.125,741.125,334.2071,195,3.0,Violoncello,1.0,0.3,57,0.5461
741.125,741.125,334.2071,195,3.0,Violin 2,0.3333,0.1,64,0.6878
741.4583,741.4583,334.3071,195,3.3333,Violin 2,0.3333,0.1,61,0.6878
741.4583,741.4583,334.3071,195,3.3333,Violin 1,0.3333,0.1,76,0.6878
741.7917,741.7917,334.4072,195,3.6667,Violin 2,0.3333,0.1,64,0.6878
741.7917,741.7917,334.4072,195,3.6667,Violin 1,0.3333,0.1,74,0.6878
742.125,742.125,334.5071,195,4.0,Violin 2,0.3333,0.1,65,0.6878
742.125,742.125,334.5071,195,4.0,Violin 1,0.3333,0.1,74,0.6878
742.125,742.125,334.5071,195,4.0,Viola,1.0,0.3,56,0.5461
742.125,742.125,334.5071,195,4.0,Bassoon 2,1.0,0.3,62,0.5461
742.125,742.125,334.5071,195,4.0,Violoncello,1.0,0.3,56,0.5461
742.125,742.125,334.5071,195,4.0,Bassoon 1,1.0,0.3,65,0.5461
742.125,742.125,334.5071,195,4.0,Contrabass,1.0,0.3,44,0.5461
742.4583,742.4583,334.6071,195,4.3333,Violin 1,0.3333,0.1,77,0.6878
742.4583,742.4583,334.6071,195,4.3333,Violin 2,0.3333,0.1,62,0.6878
742.7917,742.7917,334.7072,195,4.6667,Violin 1,0.3333,0.1,74,0.6878
742.7917,742.7917,334.7072,195,4.6667,Violin 2,0.3333,0.1,65,0.6878
743.125,743.125,334.8071,196,1.0,Contrabass,1.0,0.3,45,0.4961
743.125,743.125,334.8071,196,1.0,Viola,1.0,0.3,57,0.4961
743.125,743.125,334.8071,196,1.0,Flute 1,1.0,0.3,88,0.5461
743.125,743.125,334.8071,196,1.0,Bassoon 1,1.0,0.3,64,0.4961
743.125,743.125,334.8071,196,1.0,Oboe 1,1.0,0.3,81,0.5461
743.125,743.125,334.8071,196,1.0,Violin 1,1.0,0.3,73,0.6378
743.125,743.125,334.8071,196,1.0,Violoncello,1.0,0.3,57,0.4961
743.125,743.125,334.8071,196,1.0,Bassoon 2,1.0,0.3,61,0.4961
743.125,743.125,334.8071,196,1.0,Flute 2,1.0,0.3,85,0.5461
743.125,743.125,334.8071,196,1.0,Violin 2,1.0,0.3,64,0.6378
744.125,744.125,335.1071,196,2.0,Flute 2,1.0,0.3,85,0.5461
744.125,744.125,335.1071,196,2.0,Flute 1,1.0,0.3,88,0.5461
744.125,744.125,335.1071,196,2.0,Oboe 1,1.0,0.3,81,0.5461
745.125,745.125,335.4071,196,3.0,Flute 2,1.0,0.3,85,0.5461
745.125,745.125,335.4071,196,3.0,Flute 1,1.0,0.3,88,0.5461
745.125,745.125,335.4071,196,3.0,Oboe 1,1.0,0.3,81,0.5461
746.125,746.125,335.7071,196,4.0,Flute 1,1.0,0.3,90,0.5461
746.125,746.125,335.7071,196,4.0,Oboe 1,1.0,0.3,81,0.5461
746.125,746.125,335.7071,196,4.0,Flute 2,1.0,0.3,87,0.5461
747.125,747.125,336.0071,197,1.0,Violoncello,1.0,0.3,57,0.5461
747.125,747.125,336.0071,197,1.0,Violin 1,0.3333,0.1,79,0.6878
747.125,747.125,336.0071,197,1.0,Oboe 1,1.0,0.3,81,0.4961
747.125,747.125,336.0071,197,1.0,Bassoon 2,1.0,0.3,64,0.5461
747.125,747.125,336.0071,197,1.0,Bassoon 1,1.0,0.3,67,0.5461
747.125,747.125,336.0071,197,1.0,Contrabass,1.0,0.3,45,0.5461
747.125,747.125,336.0071,197,1.0,Viola,1.0,0.3,57,0.5461
747.125,747.125,336.0071,197,1.0,Flute 2,1.0,0.3,88,0.4961
747.125,747.125,336.0071,197,1.0,Violin 2,0.3333,0.1,64,0.6878
747.125,747.125,336.0071,197,1.0,Flute 1,1.0,0.3,91,0.4961
747.4583,747.4583,336.1071,197,1.3333,Violin 2,0.3333,0.1,67,0.6878
747.4583,747.4583,336.1071,197,1.3333,Violin 1,0.3333,0.1,76,0.6878
747.7917,747.7917,336.2072,197,1.6667,Violin 1,0.3333,0.1,78,0.6878
747.7917,747.7917,336.2072,197,1.6667,Violin 2,0.3333,0.1,66,0.6878
748.125,748.125,336.3071,197,2.0,Viola,1.0,0.3,57,0.5461
748.125,748.125,336.3071,197,2.0,Violin 2,0.3333,0.1,64,0.6878
748.125,748.125,336.3071,197,2.0,Violoncello,1.0,0.3,57,0.5461
748.125,748.125,336.3071,197,2.0,Violin 1,0.3333,0.1,79,0.6878
748.125,748.125,336.3071,197,2.0,Contrabass,1.0,0.3,45,0.5461
748.125,748.125,336.3071,197,2.0,Bassoon 2,1.0,0.3,64,0.5461
748.125,748.125,336.3071,197,2.0,Bassoon 1,1.0,0.3,67,0.5461
748.4583,748.4583,336.4071,197,2.3333,Violin 2,0.3333,0.1,67,0.6878
748.4583,748.4583,336.4071,197,2.3333,Violin 1,0.3333,0.1,76,0.6878
748.7917,748.7917,336.5072,197,2.6667,Violin 2,0.3333,0.1,66,0.6878
748.7917,748.7917,336.5072,197,2.6667,Violin 1,0.3333,0.1,78,0.6878
749.125,749.125,336.6071,197,3.0,Viola,1.0,0.3,57,0.5461
749.125,749.125,336.6071,197,3.0,Violin 1,0.3333,0.1,79,0.6878
749.125,749.125,336.6071,197,3.0,Violoncello,1.0,0.3,57,0.5461
749.125,749.125,336.6071,197,3.0,Violin 2,0.3333,0.1,64,0.6878
749.125,749.125,336.6071,197,3.0,Contrabass,1.0,0.3,45,0.5461
749.125,749.125,336.6071,197,3.0,Bassoon 2,1.0,0.3,64,0.5461
749.125,749.125,336.6071,197,3.0,Bassoon 1,1.0,0.3,67,0.5461
749.4583,749.4583,336.7071,197,3.3333,Violin 1,0.3333,0.1,76,0.6878
749.4583,749.4583,336.7071,197,3.3333,Violin 2,0.3333,0.1,67,0.6878
749.7917,749.7917,336.8072,197,3.6667,Violin 1,0.3333,0.1,78,0.6878
749.7917,749.7917,336.8072,197,3.6667,Violin 2,0.3333,0.1,66,0.6878
750.125,750.125,336.9071,197,4.0,Bassoon 1,1.0,0.3,67,0.5461
750.125,750.125,336.9071,197,4.0,Violoncello,1.0,0.3,58,0.5461
750.125,750.125,336.9071,197,4.0,Violin 1,0.3333,0.1,79,0.6878
750.125,750.125,336.9071,197,4.0,Bassoon 2,1.0,0.3,64,0.5461
750.125,750.125,336.9071,197,4.0,Contrabass,1.0,0.3,46,0.5461
750.125,750.125,336.9071,197,4.0,Violin 2,0.3333,0.1,64,0.6878
750.125,750.125,336.9071,197,4.0,Viola,1.0,0.3,58,0.5461
750.4583,750.4583,337.0071,197,4.3333,Violin 1,0.3333,0.1,78,0.6878
750.4583,750.4583,337.0071,197,4.3333,Violin 2,0.3333,0.1,66,0.6878
750.7917,750.7917,337.1072,197,4.6667,Violin 1,0.3333,0.1,76,0.6878
750.7917,750.7917,337.1072,197,4.6667,Violin 2,0.3333,0.1,67,0.6878
751.125,751.125,337.2071,198,1.0,Bassoon 2,1.0,0.3,63,0.4961
751.125,751.125,337.2071,198,1.0,Flute 1,1.0,0.3,90,0.5461
751.125,751.125,337.2071,198,1.0,Violoncello,1.0,0.3,59,0.4961
751.125,751.125,337.2071,198,1.0,Violin 2,1.0,0.3,66,0.6378
751.125,751.125,337.2071,198,1.0,Flute 2,1.0,0.3,87,0.5461
751.125,751.125,337.2071,198,1.0,Oboe 1,1.0,0.3,83,0.5461
751.125,751.125,337.2071,198,1.0,Viola,1.0,0.3,59,0.4961
751.125,751.125,337.2071,198,1.0,Bassoon 1,1.0,0.3,66,0.4961
751.125,751.125,337.2071,198,1.0,Contrabass,1.0,0.3,47,0.4961
751.125,751.125,337.2071,198,1.0,Violin 1,1.0,0.3,75,0.6378
752.125,752.125,337.5071,198,2.0,Flute 2,1.0,0.3,87,0.5461
752.125,752.125,337.5071,198,2.0,Oboe 1,1.0,0.3,83,0.5461
752.125,752.125,337.5071,198,2.0,Flute 1,1.0,0.3,90,0.5461
753.125,753.125,337.8071,198,3.0,Oboe 1,1.0,0.3,83,0.5461
753.125,753.125,337.8071,198,3.0,Flute 1,1.0,0.3,90,0.5461
753.125,753.125,337.8071,198,3.0,Flute 2,1.0,0.3,87,0.5461
754.125,754.125,338.1071,198,4.0,Oboe 1,1.0,0.3,82,0.5461
754.125,754.125,338.1071,198,4.0,Flute 2,1.0,0.3,88,0.5461
754.125,754.125,338.1071,198,4.0,Flute 1,1.0,0.3,91,0.5461
755.125,755.125,338.4071,199,1.0,Violin 1,0.3333,0.1,75,0.6878
755.125,755.125,338.4071,199,1.0,Viola,1.0,0.3,71,0.4961
755.125,755.125,338.4071,199,1.0,Bassoon 1,1.0,0.3,59,0.4961
755.125,755.125,338.4071,199,1.0,Flute 2,1.0,0.3,87,0.4961
755.125,755.125,338.4071,199,1.0,Violin 2,0.3333,0.1,66,0.6878
755.125,755.125,338.4071,199,1.0,Oboe 1,1.0,0.3,83,0.4961
755.125,755.125,338.4071,199,1.0,Contrabass,1.0,0.3,47,0.4961
755.125,755.125,338.4071,199,1.0,Flute 1,1.0,0.3,90,0.4961
755.125,755.125,338.4071,199,1.0,Bassoon 2,1.0,0.3,47,0.4961
755.125,755.125,338.4071,199,1.0,Violoncello,1.0,0.3,59,0.4961
755.4583,755.4583,338.5071,199,1.3333,Violin 1,0.3333,0.1,78,0.6878
755.4583,755.4583,338.5071,199,1.3333,Violin 2,0.3333,0.1,63,0.6878
755.7917,755.7917,338.6072,199,1.6667,Violin 2,0.3333,0.1,64,0.6878
755.7917,755.7917,338.6072,199,1.6667,Violin 1,0.3333,0.1,76,0.6878
756.125,756.125,338.7071,199,2.0,Violin 1,0.3333,0.1,75,0.6878
756.125,756.125,338.7071,199,2.0,Violoncello,1.0,0.3,59,0.4961
756.125,756.125,338.7071,199,2.0,Bassoon 1,1.0,0.3,59,0.4961
756.125,756.125,338.7071,199,2.0,Viola,1.0,0.3,71,0.4961
756.125,756.125,338.7071,199,2.0,Contrabass,1.0,0.3,47,0.4961
756.125,756.125,338.7071,199,2.0,Violin 2,0.3333,0.1,66,0.6878
756.125,756.125,338.7071,199,2.0,Bassoon 2,1.0,0.3,47,0.4961
756.4583,756.4583,338.8071,199,2.3333,Violin 2,0.3333,0.1,63,0.6878
756.4583,756.4583,338.8071,199,2.3333,Violin 1,0.3333,0.1,78,0.6878
756.7917,756.7917,338.9072,199,2.6667,Violin 2,0.3333,0.1,64,0.6878
756.7917,756.7917,338.9072,199,2.6667,Violin 1,0.3333,0.1,76,0.6878
757.125,757.125,339.0071,199,3.0,Viola,1.0,0.3,71,0.4961
757.125,757.125,339.0071,199,3.0,Contrabass,1.0,0.3,47,0.4961
757.125,757.125,339.0071,199,3.0,Violin 1,0.3333,0.1,75,0.6878
757.125,757.125,339.0071,199,3.0,Violin 2,0.3333,0.1,66,0.6878
757.125,757.125,339.0071,199,3.0,Bassoon 2,1.0,0.3,47,0.4961
757.125,757.125,339.0071,199,3.0,Violoncello,1.0,0.3,59,0.4961
757.125,757.125,339.0071,199,3.0,Bassoon 1,1.0,0.3,59,0.4961
757.4583,757.4583,339.1071,199,3.3333,Violin 2,0.3333,0.1,63,0.6878
757.4583,757.4583,339.1071,199,3.3333,Violin 1,0.3333,0.1,78,0.6878
757.7917,757.7917,339.2072,199,3.6667,Violin 1,0.3333,0.1,76,0.6878
757.7917,757.7917,339.2072,199,3.6667,Violin 2,0.3333,0.1,66,0.6878
758.125,758.125,339.3071,199,4.0,Bassoon 1,1.0,0.3,59,0.4961
758.125,758.125,339.3071,199,4.0,Bassoon 2,1.0,0.3,47,0.4961
758.125,758.125,339.3071,199,4.0,Violin 1,0.3333,0.1,77,0.6878
758.125,758.125,339.3071,199,4.0,Viola,1.0,0.3,71,0.4961
758.125,758.125,339.3071,199,4.0,Violin 2,0.3333,0.1,68,0.6878
758.125,758.125,339.3071,199,4.0,Violoncello,1.0,0.3,59,0.4961
758.125,758.125,339.3071,199,4.0,Contrabass,1.0,0.3,47,0.4961
758.4583,758.4583,339.4071,199,4.3333,Violin 2,0.3333,0.1,65,0.6878
758.4583,758.4583,339.4071,199,4.3333,Violin 1,0.3333,0.1,80,0.6878
758.7917,758.7917,339.5072,199,4.6667,Violin 1,0.3333,0.1,80,0.6878
758.7917,758.7917,339.5072,199,4.6667,Violin 2,0.3333,0.1,65,0.6878
759.125,759.125,339.6071,200,1.0,Bassoon 1,4.0,1.2,59,0.9921
759.125,759.125,339.6071,200,1.0,Violoncello,0.5,0.15,47,0.9921
759.125,759.125,339.6071,200,1.0,Flute 1,4.0,1.2,81,0.9921
759.125,759.125,339.6071,200,1.0,Bassoon 2,4.0,1.2,47,0.9921
759.125,759.125,339.6071,200,1.0,Contrabass,0.5,0.15,35,0.9921
759.125,759.125,339.6071,200,1.0,Flute 2,4.0,1.2,78,0.9921
759.125,759.125,339.6071,200,1.0,Viola,0.5,0.15,59,0.9921
759.125,759.125,339.6071,200,1.0,Violin 1,0.25,0.075,78,0.9921
759.125,759.125,339.6071,200,1.0,Violin 2,0.25,0.075,69,0.9921
759.375,759.375,339.6821,200,1.25,Violin 2,0.25,0.075,78,0.9921
759.375,759.375,339.6821,200,1.25,Violin 1,0.25,0.075,81,0.9921
759.625,759.625,339.7571,200,1.5,Violin 1,0.25,0.075,81,0.9921
759.625,759.625,339.7571,200,1.5,Contrabass,0.5,0.15,47,0.9921
759.625,759.625,339.7571,200,1.5,Violin 2,0.25,0.075,78,0.9921
759.625,759.625,339.7571,200,1.5,Violoncello,0.5,0.15,59,0.9921
759.625,759.625,339.7571,200,1.5,Viola,0.5,0.15,71,0.9921
759.875,759.875,339.8321,200,1.75,Violin 2,0.25,0.075,78,0.9921
759.875,759.875,339.8321,200,1.75,Violin 1,0.25,0.075,81,0.9921
760.125,760.125,339.9071,200,2.0,Violoncello,0.5,0.15,59,0.9921
760.125,760.125,339.9071,200,2.0,Violin 2,3.0,0.9,78,0.9921
760.125,760.125,339.9071,200,2.0,Viola,0.5,0.15,71,0.9921
760.125,760.125,339.9071,200,2.0,Violin 1,3.0,0.9,81,0.9921
760.125,760.125,339.9071,200,2.0,Contrabass,0.5,0.15,47,0.9921
760.625,760.625,340.0571,200,2.5,Viola,0.5,0.15,71,0.9921
760.625,760.625,340.0571,200,2.5,Violoncello,0.5,0.15,59,0.9921
760.625,760.625,340.0571,200,2.5,Contrabass,0.5,0.15,47,0.9921
761.125,761.125,340.2071,200,3.0,Viola,0.5,0.15,71,0.9921
761.125,761.125,340.2071,200,3.0,Contrabass,0.5,0.15,47,0.9921
761.125,761.125,340.2071,200,3.0,Violoncello,0.5,0.15,59,0.9921
761.625,761.625,340.3571,200,3.5,Violoncello,0.5,0.15,59,0.9921
761.625,761.625,340.3571,200,3.5,Contrabass,0.5,0.15,47,0.9921
761.625,761.625,340.3571,200,3.5,Viola,0.5,0.15,71,0.9921
762.125,762.125,340.5071,200,4.0,Violoncello,0.5,0.15,59,0.9921
762.125,762.125,340.5071,200,4.0,Contrabass,0.5,0.15,47,0.9921
762.125,762.125,340.5071,200,4.0,Viola,0.5,0.15,71,0.9921
762.625,762.625,340.6571,200,4.5,Contrabass,0.5,0.15,47,0.9921
762.625,762.625,340.6571,200,4.5,Violoncello,0.5,0.15,59,0.9921
762.625,762.625,340.6571,200,4.5,Viola,0.5,0.15,71,0.9921
763.125,763.125,340.8071,201,1.0,Violin 2,0.25,0.075,78,1.0
763.125,763.125,340.8071,201,1.0,Flute 1,4.0,1.2,90,1.0
763.125,763.125,340.8071,201,1.0,Violin 1,0.25,0.075,81,1.0
763.125,763.125,340.8071,201,1.0,Flute 2,4.0,1.2,81,1.0
763.125,763.125,340.8071,201,1.0,Viola,2.0,0.6,72,1.0
763.125,763.125,340.8071,201,1.0,Oboe 2,4.0,1.2,69,1.0
763.125,763.125,340.8071,201,1.0,Oboe 1,4.0,1.2,78,1.0
763.125,763.125,340.8071,201,1.0,Contrabass,0.5,0.15,48,1.0
763.125,763.125,340.8071,201,1.0,Bassoon 2,4.0,1.2,48,1.0
763.125,763.125,340.8071,201,1.0,Bassoon 1,4.0,1.2,60,1.0
763.125,763.125,340.8071,201,1.0,Violoncello,2.0,0.6,60,1.0
763.375,763.375,340.8821,201,1.25,Violin 1,0.25,0.075,90,1.0
763.375,763.375,340.8821,201,1.25,Violin 2,0.25,0.075,81,1.0
763.625,763.625,340.9571,201,1.5,Violin 1,0.25,0.075,90,1.0
763.625,763.625,340.9571,201,1.5,Contrabass,0.5,0.15,48,1.0
763.625,763.625,340.9571,201,1.5,Violin 2,0.25,0.075,81,1.0
763.875,763.875,341.0321,201,1.75,Violin 1,0.25,0.075,90,1.0
763.875,763.875,341.0321,201,1.75,Violin 2,0.25,0.075,81,1.0
764.125,764.125,341.1071,201,2.0,Violin 2,3.0,0.9,81,1.0
764.125,764.125,341.1071,201,2.0,Violin 1,3.0,0.9,90,1.0
764.125,764.125,341.1071,201,2.0,Contrabass,0.5,0.15,48,1.0
764.625,764.625,341.2571,201,2.5,Contrabass,0.5,0.15,48,1.0
765.125,765.125,341.4071,201,3.0,Contrabass,0.5,0.15,48,1.0
765.125,765.125,341.4071,201,3.0,Violoncello,2.0,0.6,60,1.0
765.125,765.125,341.4071,201,3.0,Viola,2.0,0.6,72,1.0
765.625,765.625,341.5571,201,3.5,Contrabass,0.5,0.15,48,1.0
766.125,766.125,341.7071,201,4.0,Contrabass,0.5,0.15,48,1.0
766.625,766.625,341.8571,201,4.5,Contrabass,0.5,0.15,48,1.0
767.125,767.125,342.0071,202,1.0,Oboe 2,1.0,0.3,68,1.0
767.125,767.125,342.0071,202,1.0,Contrabass,0.5,0.15,49,1.0
767.125,767.125,342.0071,202,1.0,Flute 2,1.0,0.3,80,1.0
767.125,767.125,342.0071,202,1.0,Bassoon 1,1.0,0.3,61,1.0
767.125,767.125,342.0071,202,1.0,Flute 1,1.0,0.3,89,1.0
767.125,767.125,342.0071,202,1.0,Violin 2,1.0,0.3,80,1.0
767.125,767.125,342.0071,202,1.0,Violoncello,0.5,0.15,61,1.0
767.125,767.125,342.0071,202,1.0,Bassoon 2,1.0,0.3,49,1.0
767.125,767.125,342.0071,202,1.0,Oboe 1,1.0,0.3,77,1.0
767.125,767.125,342.0071,202,1.0,Violin 1,1.0,0.3,92,1.0
767.125,767.125,342.0071,202,1.0,Viola,0.5,0.15,73,1.0
767.625,767.625,342.1571,202,1.5,Viola,0.5,0.15,72,1.0
767.625,767.625,342.1571,202,1.5,Violoncello,0.5,0.15,60,1.0
767.625,767.625,342.1571,202,1.5,Contrabass,0.5,0.15,48,1.0
768.125,768.125,342.3071,202,2.0,Viola,0.5,0.15,73,1.0
768.125,768.125,342.3071,202,2.0,Violin 1,2.0,0.6,73,1.0
768.125,768.125,342.3071,202,2.0,Oboe 1,3.0,0.9,73,1.0
768.125,768.125,342.3071,202,2.0,Bassoon 2,3.0,0.9,49,1.0
768.125,768.125,342.3071,202,2.0,Flute 2,3.0,0.9,85,1.0
768.125,768.125,342.3071,202,2.0,Bassoon 1,3.0,0.9,61,1.0
768.125,768.125,342.3071,202,2.0,Flute 1,3.0,0.9,85,1.0
768.125,768.125,342.3071,202,2.0,Contrabass,0.5,0.15,49,1.0
768.125,768.125,342.3071,202,2.0,Violin 2,2.0,0.6,61,1.0
768.125,768.125,342.3071,202,2.0,Violoncello,0.5,0.15,61,1.0
768.125,768.125,342.3071,202,2.0,Oboe 2,3.0,0.9,73,1.0
768.625,768.625,342.4571,202,2.5,Contrabass,0.5,0.15,48,1.0
768.625,768.625,342.4571,202,2.5,Viola,0.5,0.15,72,1.0
768.625,768.625,342.4571,202,2.5,Violoncello,0.5,0.15,60,1.0
769.125,769.125,342.6071,202,3.0,Viola,0.5,0.15,73,1.0
769.125,769.125,342.6071,202,3.0,Violoncello,0.5,0.15,61,1.0
769.125,769.125,342.6071,202,3.0,Contrabass,0.5,0.15,49,1.0
769.625,769.625,342.7571,202,3.5,Violoncello,0.5,0.15,62,1.0
769.625,769.625,342.7571,202,3.5,Viola,0.5,0.15,74,1.0
769.625,769.625,342.7571,202,3.5,Contrabass,0.5,0.15,50,1.0
770.125,770.125,342.9071,202,4.0,Contrabass,0.5,0.15,49,1.0
770.125,770.125,342.9071,202,4.0,Violoncello,0.5,0.15,61,1.0
770.125,770.125,342.9071,202,4.0,Violin 1,0.75,0.225,73,1.0
770.125,770.125,342.9071,202,4.0,Viola,0.5,0.15,73,1.0
770.125,770.125,342.9071,202,4.0,Violin 2,0.75,0.225,61,1.0
770.625,770.625,343.0571,202,4.5,Contrabass,0.5,0.15,47,1.0
770.625,770.625,343.0571,202,4.5,Viola,0.5,0.15,71,1.0
770.625,770.625,343.0571,202,4.5,Violoncello,0.5,0.15,59,1.0
770.875,770.875,343.1321,202,4.75,Violin 1,0.25,0.075,73,1.0
770.875,770.875,343.1321,202,4.75,Violin 2,0.25,0.075,61,1.0
771.125,771.125,343.2071,203,1.0,Contrabass,0.5,0.15,45,1.0
771.125,771.125,343.2071,203,1.0,Violin 1,1.0,0.3,78,1.0
771.125,771.125,343.2071,203,1.0,Flute 1,4.0,1.2,85,1.0
771.125,771.125,343.2071,203,1.0,Flute 2,4.0,1.2,85,1.0
771.125,771.125,343.2071,203,1.0,Viola,0.5,0.15,69,1.0
771.125,771.125,343.2071,203,1.0,Violoncello,0.5,0.15,57,1.0
771.125,771.125,343.2071,203,1.0,Oboe 1,4.0,1.2,73,1.0
771.125,771.125,343.2071,203,1.0,Bassoon 2,4.0,1.2,49,1.0
771.125,771.125,343.2071,203,1.0,Bassoon 1,4.0,1.2,61,1.0
771.125,771.125,343.2071,203,1.0,Oboe 2,4.0,1.2,73,1.0
771.125,771.125,343.2071,203,1.0,Violin 2,1.0,0.3,66,1.0
771.625,771.625,343.3571,203,1.5,Viola,0.5,0.15,73,1.0
771.625,771.625,343.3571,203,1.5,Contrabass,0.5,0.15,49,1.0
771.625,771.625,343.3571,203,1.5,Violoncello,0.5,0.15,61,1.0
772.125,772.125,343.5071,203,2.0,Violin 1,0.75,0.225,78,1.0
772.125,772.125,343.5071,203,2.0,Contrabass,0.5,0.15,48,1.0
772.125,772.125,343.5071,203,2.0,Violoncello,0.5,0.15,60,1.0
772.125,772.125,343.5071,203,2.0,Viola,0.5,0.15,72,1.0
772.125,772.125,343.5071,203,2.0,Violin 2,0.75,0.225,66,1.0
772.625,772.625,343.6571,203,2.5,Violoncello,0.5,0.15,61,1.0
772.625,772.625,343.6571,203,2.5,Contrabass,0.5,0.15,49,1.0
772.625,772.625,343.6571,203,2.5,Viola,0.5,0.15,73,1.0
772.875,772.875,343.7321,203,2.75,Violin 2,0.25,0.075,66,1.0
772.875,772.875,343.7321,203,2.75,Violin 1,0.25,0.075,78,1.0
773.125,773.125,343.8071,203,3.0,Violoncello,0.5,0.15,59,1.0
773.125,773.125,343.8071,203,3.0,Violin 2,1.0,0.3,69,1.0
773.125,773.125,343.8071,203,3.0,Viola,0.5,0.15,71,1.0
773.125,773.125,343.8071,203,3.0,Contrabass,0.5,0.15,47,1.0
773.125,773.125,343.8071,203,3.0,Violin 1,1.0,0.3,81,1.0
773.625,773.625,343.9571,203,3.5,Viola,0.5,0.15,69,1.0
773.625,773.625,343.9571,203,3.5,Violoncello,0.5,0.15,57,1.0
773.625,773.625,343.9571,203,3.5,Contrabass,0.5,0.15,45,1.0
774.125,774.125,344.1071,203,4.0,Viola,0.5,0.15,68,1.0
774.125,774.125,344.1071,203,4.0,Violoncello,0.5,0.15,56,1.0
774.125,774.125,344.1071,203,4.0,Violin 1,0.75,0.225,81,1.0
774.125,774.125,344.1071,203,4.0,Violin 2,0.75,0.225,69,1.0
774.125,774.125,344.1071,203,4.0,Contrabass,0.5,0.15,44,1.0
774.625,774.625,344.2571,203,4.5,Viola,0.5,0.15,66,1.0
774.625,774.625,344.2571,203,4.5,Violoncello,0.5,0.15,54,1.0
774.625,774.625,344.2571,203,4.5,Contrabass,0.5,0.15,42,1.0
774.875,774.875,344.3321,203,4.75,Violin 1,0.25,0.075,81,1.0
774.875,774.875,344.3321,203,4.75,Violin 2,0.25,0.075,69,1.0
775.125,775.125,344.4071,204,1.0,Flute 2,1.0,0.3,85,1.0
775.125,775.125,344.4071,204,1.0,Flute 1,1.0,0.3,85,1.0
775.125,775.125,344.4071,204,1.0,Violoncello,0.5,0.15,53,1.0
775.125,775.125,344.4071,204,1.0,Violin 1,3.0,0.9,85,1.0
775.125,775.125,344.4071,204,1.0,Oboe 1,1.0,0.3,73,1.0
775.125,775.125,344.4071,204,1.0,Violin 2,3.0,0.9,73,1.0
775.125,775.125,344.4071,204,1.0,Bassoon 1,1.0,0.3,61,1.0
775.125,775.125,344.4071,204,1.0,Bassoon 2,1.0,0.3,49,1.0
775.125,775.125,344.4071,204,1.0,Oboe 2,1.0,0.3,73,1.0
775.125,775.125,344.4071,204,1.0,Contrabass,0.5,0.15,41,1.0
775.125,775.125,344.4071,204,1.0,Viola,0.5,0.15,65,1.0
775.625,775.625,344.5571,204,1.5,Violoncello,0.5,0.15,54,1.0
775.625,775.625,344.5571,204,1.5,Contrabass,0.5,0.15,42,1.0
775.625,775.625,344.5571,204,1.5,Viola,0.5,0.15,66,1.0
776.125,776.125,344.7071,204,2.0,Flute 2,3.0,0.9,85,1.0
776.125,776.125,344.7071,204,2.0,Bassoon 1,3.0,0.9,61,1.0
776.125,776.125,344.7071,204,2.0,Oboe 2,3.0,0.9,73,1.0
776.125,776.125,344.7071,204,2.0,Oboe 1,3.0,0.9,73,1.0
776.125,776.125,344.7071,204,2.0,Flute 1,3.0,0.9,85,1.0
776.125,776.125,344.7071,204,2.0,Bassoon 2,3.0,0.9,49,1.0
776.125,776.125,344.7071,204,2.0,Contrabass,0.5,0.15,44,1.0
776.125,776.125,344.7071,204,2.0,Violoncello,0.5,0.15,56,1.0
776.125,776.125,344.7071,204,2.0,Viola,0.5,0.15,68,1.0
776.625,776.625,344.8571,204,2.5,Violoncello,0.5,0.15,54,1.0
776.625,776.625,344.8571,204,2.5,Viola,0.5,0.15,66,1.0
776.625,776.625,344.8571,204,2.5,Contrabass,0.5,0.15,42,1.0
777.125,777.125,345.0071,204,3.0,Contrabass,0.5,0.15,41,1.0
777.125,777.125,345.0071,204,3.0,Viola,0.5,0.15,65,1.0
777.125,777.125,345.0071,204,3.0,Violoncello,0.5,0.15,53,1.0
777.625,777.625,345.1571,204,3.5,Violoncello,0.5,0.15,49,1.0
777.625,777.625,345.1571,204,3.5,Contrabass,0.5,0.15,37,1.0
777.625,777.625,345.1571,204,3.5,Viola,0.5,0.15,61,1.0
778.125,778.125,345.3071,204,4.0,Violin 2,0.75,0.225,73,1.0
778.125,778.125,345.3071,204,4.0,Violin 1,0.75,0.225,85,1.0
778.125,778.125,345.3071,204,4.0,Viola,0.5,0.15,63,1.0
778.125,778.125,345.3071,204,4.0,Contrabass,0.5,0.15,39,1.0
778.125,778.125,345.3071,204,4.0,Violoncello,0.5,0.15,51,1.0
778.625,778.625,345.4571,204,4.5,Contrabass,0.5,0.15,41,1.0
778.625,778.625,345.4571,204,4.5,Viola,0.5,0.15,65,1.0
778.625,778.625,345.4571,204,4.5,Violoncello,0.5,0.15,53,1.0
778.875,778.875,345.5321,204,4.75,Violin 2,0.25,0.075,73,1.0
778.875,778.875,345.5321,204,4.75,Violin 1,0.25,0.075,85,1.0
779.125,779.125,345.6071,205,1.0,Viola,0.5,0.15,66,1.0
779.125,779.125,345.6071,205,1.0,Violin 2,1.0,0.3,69,1.0
779.125,779.125,345.6071,205,1.0,Flute 2,4.0,1.2,85,1.0
779.125,779.125,345.6071,205,1.0,Bassoon 2,4.0,1.2,49,1.0
779.125,779.125,345.6071,205,1.0,Oboe 1,4.0,1.2,73,1.0
779.125,779.125,345.6071,205,1.0,Flute 1,4.0,1.2,85,1.0
779.125,779.125,345.6071,205,1.0,Violoncello,0.5,0.15,54,1.0
779.125,779.125,345.6071,205,1.0,Oboe 2,4.0,1.2,73,1.0
779.125,779.125,345.6071,205,1.0,Violin 1,1.0,0.3,81,1.0
779.125,779.125,345.6071,205,1.0,Contrabass,0.5,0.15,42,1.0
779.125,779.125,345.6071,205,1.0,Bassoon 1,4.0,1.2,61,1.0
779.625,779.625,345.7571,205,1.5,Contrabass,0.5,0.15,41,1.0
779.625,779.625,345.7571,205,1.5,Violoncello,0.5,0.15,53,1.0
779.625,779.625,345.7571,205,1.5,Viola,0.5,0.15,65,1.0
780.125,780.125,345.9071,205,2.0,Viola,0.5,0.15,66,1.0
780.125,780.125,345.9071,205,2.0,Violin 1,0.75,0.225,81,1.0
780.125,780.125,345.9071,205,2.0,Contrabass,0.5,0.15,42,1.0
780.125,780.125,345.9071,205,2.0,Violin 2,0.75,0.225,69,1.0
780.125,780.125,345.9071,205,2.0,Violoncello,0.5,0.15,54,1.0
780.625,780.625,346.0571,205,2.5,Violoncello,0.5,0.15,56,1.0
780.625,780.625,346.0571,205,2.5,Viola,0.5,0.15,68,1.0
780.625,780.625,346.0571,205,2.5,Contrabass,0.5,0.15,44,1.0
780.875,780.875,346.1321,205,2.75,Violin 1,0.25,0.075,81,1.0
780.875,780.875,346.1321,205,2.75,Violin 2,0.25,0.075,69,1.0
781.125,781.125,346.2071,205,3.0,Viola,0.5,0.15,69,1.0
781.125,781.125,346.2071,205,3.0,Violin 1,1.0,0.3,78,1.0
781.125,781.125,346.2071,205,3.0,Contrabass,0.5,0.15,45,1.0
781.125,781.125,346.2071,205,3.0,Violin 2,1.0,0.3,66,1.0
781.125,781.125,346.2071,205,3.0,Violoncello,0.5,0.15,57,1.0
781.625,781.625,346.3571,205,3.5,Contrabass,0.5,0.15,44,1.0
781.625,781.625,346.3571,205,3.5,Viola,0.5,0.15,68,1.0
781.625,781.625,346.3571,205,3.5,Violoncello,0.5,0.15,56,1.0
782.125,782.125,346.5071,205,4.0,Contrabass,0.5,0.15,45,1.0
782.125,782.125,346.5071,205,4.0,Violoncello,0.5,0.15,57,1.0
782.125,782.125,346.5071,205,4.0,Violin 1,0.75,0.225,78,1.0
782.125,782.125,346.5071,205,4.0,Viola,0.5,0.15,69,1.0
782.125,782.125,346.5071,205,4.0,Violin 2,0.75,0.225,66,1.0
782.625,782.625,346.6571,205,4.5,Viola,0.5,0.15,71,1.0
782.625,782.625,346.6571,205,4.5,Contrabass,0.5,0.15,47,1.0
782.625,782.625,346.6571,205,4.5,Violoncello,0.5,0.15,59,1.0
782.875,782.875,346.7321,205,4.75,Violin 1,0.25,0.075,78,1.0
782.875,782.875,346.7321,205,4.75,Violin 2,0.25,0.075,66,1.0
783.125,783.125,346.8071,206,1.0,Bassoon 1,1.0,0.3,61,1.0
783.125,783.125,346.8071,206,1.0,Contrabass,0.5,0.15,49,1.0
783.125,783.125,346.8071,206,1.0,Oboe 1,1.0,0.3,73,1.0
783.125,783.125,346.8071,206,1.0,Violoncello,0.5,0.15,61,1.0
783.125,783.125,346.8071,206,1.0,Oboe 2,1.0,0.3,73,1.0
783.125,783.125,346.8071,206,1.0,Violin 2,3.0,0.9,61,1.0
783.125,783.125,346.8071,206,1.0,Violin 1,3.0,0.9,73,1.0
783.125,783.125,346.8071,206,1.0,Flute 2,1.0,0.3,85,1.0
783.125,783.125,346.8071,206,1.0,Bassoon 2,1.0,0.3,49,1.0
783.125,783.125,346.8071,206,1.0,Flute 1,1.0,0.3,85,1.0
783.125,783.125,346.8071,206,1.0,Viola,0.5,0.15,73,1.0
783.625,783.625,346.9571,206,1.5,Violoncello,0.5,0.15,60,1.0
783.625,783.625,346.9571,206,1.5,Viola,0.5,0.15,72,1.0
783.625,783.625,346.9571,206,1.5,Contrabass,0.5,0.15,48,1.0
784.125,784.125,347.1071,206,2.0,Oboe 1,3.0,0.9,73,1.0
784.125,784.125,347.1071,206,2.0,Bassoon 2,3.0,0.9,49,1.0
784.125,784.125,347.1071,206,2.0,Viola,0.5,0.15,73,1.0
784.125,784.125,347.1071,206,2.0,Oboe 2,3.0,0.9,73,1.0
784.125,784.125,347.1071,206,2.0,Bassoon 1,3.0,0.9,61,1.0
784.125,784.125,347.1071,206,2.0,Flute 1,3.0,0.9,85,1.0
784.125,784.125,347.1071,206,2.0,Violoncello,0.5,0.15,61,1.0
784.125,784.125,347.1071,206,2.0,Contrabass,0.5,0.15,49,1.0
784.125,784.125,347.1071,206,2.0,Flute 2,3.0,0.9,85,1.0
784.625,784.625,347.2571,206,2.5,Viola,0.5,0.15,72,1.0
784.625,784.625,347.2571,206,2.5,Violoncello,0.5,0.15,60,1.0
784.625,784.625,347.2571,206,2.5,Contrabass,0.5,0.15,48,1.0
785.125,785.125,347.4071,206,3.0,Contrabass,0.5,0.15,49,1.0
785.125,785.125,347.4071,206,3.0,Viola,0.5,0.15,73,1.0
785.125,785.125,347.4071,206,3.0,Violoncello,0.5,0.15,61,1.0
785.625,785.625,347.5571,206,3.5,Contrabass,0.5,0.15,50,1.0
785.625,785.625,347.5571,206,3.5,Violoncello,0.5,0.15,62,1.0
785.625,785.625,347.5571,206,3.5,Viola,0.5,0.15,74,1.0
786.125,786.125,347.7071,206,4.0,Violin 1,0.75,0.225,73,1.0
786.125,786.125,347.7071,206,4.0,Violin 2,0.75,0.225,61,1.0
786.125,786.125,347.7071,206,4.0,Violoncello,0.5,0.15,61,1.0
786.125,786.125,347.7071,206,4.0,Viola,0.5,0.15,73,1.0
786.125,786.125,347.7071,206,4.0,Contrabass,0.5,0.15,49,1.0
786.625,786.625,347.8571,206,4.5,Viola,0.5,0.15,71,1.0
786.625,786.625,347.8571,206,4.5,Violoncello,0.5,0.15,59,1.0
786.625,786.625,347.8571,206,4.5,Contrabass,0.5,0.15,47,1.0
786.875,786.875,347.9321,206,4.75,Violin 2,0.25,0.075,61,1.0
786.875,786.875,347.9321,206,4.75,Violin 1,0.25,0.075,73,1.0
787.125,787.125,348.0071,207,1.0,Oboe 1,4.0,1.2,73,1.0
787.125,787.125,348.0071,207,1.0,Violoncello,0.5,0.15,57,1.0
787.125,787.125,348.0071,207,1.0,Bassoon 1,4.0,1.2,61,1.0
787.125,787.125,348.0071,207,1.0,Bassoon 2,4.0,1.2,49,1.0
787.125,787.125,348.0071,207,1.0,Violin 2,1.0,0.3,66,1.0
787.125,787.125,348.0071,207,1.0,Violin 1,1.0,0.3,78,1.0
787.125,787.125,348.0071,207,1.0,Oboe 2,4.0,1.2,73,1.0
787.125,787.125,348.0071,207,1.0,Contrabass,0.5,0.15,45,1.0
787.125,787.125,348.0071,207,1.0,Viola,0.5,0.15,69,1.0
787.125,787.125,348.0071,207,1.0,Flute 2,4.0,1.2,85,1.0
787.125,787.125,348.0071,207,1.0,Flute 1,4.0,1.2,85,1.0
787.625,787.625,348.1571,207,1.5,Contrabass,0.5,0.15,49,1.0
787.625,787.625,348.1571,207,1.5,Viola,0.5,0.15,73,1.0
787.625,787.625,348.1571,207,1.5,Violoncello,0.5,0.15,61,1.0
788.125,788.125,348.3071,207,2.0,Violoncello,0.5,0.15,60,1.0
788.125,788.125,348.3071,207,2.0,Violin 1,0.75,0.225,78,1.0
788.125,788.125,348.3071,207,2.0,Viola,0.5,0.15,72,1.0
788.125,788.125,348.3071,207,2.0,Violin 2,0.75,0.225,66,1.0
788.125,788.125,348.3071,207,2.0,Contrabass,0.5,0.15,48,1.0
788.625,788.625,348.4571,207,2.5,Violoncello,0.5,0.15,61,1.0
788.625,788.625,348.4571,207,2.5,Viola,0.5,0.15,73,1.0
788.625,788.625,348.4571,207,2.5,Contrabass,0.5,0.15,49,1.0
788.875,788.875,348.5321,207,2.75,Violin 2,0.25,0.075,66,1.0
788.875,788.875,348.5321,207,2.75,Violin 1,0.25,0.075,78,1.0
789.125,789.125,348.6071,207,3.0,Violoncello,0.5,0.15,59,1.0
789.125,789.125,348.6071,207,3.0,Viola,0.5,0.15,71,1.0
789.125,789.125,348.6071,207,3.0,Contrabass,0.5,0.15,47,1.0
789.125,789.125,348.6071,207,3.0,Violin 2,1.0,0.3,69,1.0
789.125,789.125,348.6071,207,3.0,Violin 1,1.0,0.3,81,1.0
789.625,789.625,348.7571,207,3.5,Contrabass,0.5,0.15,45,1.0
789.625,789.625,348.7571,207,3.5,Viola,0.5,0.15,69,1.0
789.625,789.625,348.7571,207,3.5,Violoncello,0.5,0.15,57,1.0
790.125,790.125,348.9071,207,4.0,Violoncello,0.5,0.15,56,1.0
790.125,790.125,348.9071,207,4.0,Viola,0.5,0.15,68,1.0
790.125,790.125,348.9071,207,4.0,Violin 2,0.75,0.225,69,1.0
790.125,790.125,348.9071,207,4.0,Contrabass,0.5,0.15,44,1.0
790.125,790.125,348.9071,207,4.0,Violin 1,0.75,0.225,81,1.0
790.625,790.625,349.0571,207,4.5,Contrabass,0.5,0.15,42,1.0
790.625,790.625,349.0571,207,4.5,Violoncello,0.5,0.15,54,1.0
790.625,790.625,349.0571,207,4.5,Viola,0.5,0.15,66,1.0
790.875,790.875,349.1321,207,4.75,Violin 2,0.25,0.075,69,1.0
790.875,790.875,349.1321,207,4.75,Violin 1,0.25,0.075,81,1.0
791.125,791.125,349.2071,208,1.0,Viola,0.5,0.15,65,1.0
791.125,791.125,349.2071,208,1.0,Contrabass,0.5,0.15,41,1.0
791.125,791.125,349.2071,208,1.0,Violoncello,0.5,0.15,53,1.0
791.125,791.125,349.2071,208,1.0,Oboe 2,1.0,0.3,73,1.0
791.125,791.125,349.2071,208,1.0,Violin 1,3.0,0.9,85,1.0
791.125,791.125,349.2071,208,1.0,Violin 2,3.0,0.9,73,1.0
791.125,791.125,349.2071,208,1.0,Oboe 1,1.0,0.3,73,1.0
791.125,791.125,349.2071,208,1.0,Bassoon 1,1.0,0.3,61,1.0
791.125,791.125,349.2071,208,1.0,Bassoon 2,1.0,0.3,49,1.0
791.125,791.125,349.2071,208,1.0,Flute 2,1.0,0.3,85,1.0
791.125,791.125,349.2071,208,1.0,Flute 1,1.0,0.3,85,1.0
791.625,791.625,349.3571,208,1.5,Viola,0.5,0.15,66,1.0
791.625,791.625,349.3571,208,1.5,Violoncello,0.5,0.15,54,1.0
791.625,791.625,349.3571,208,1.5,Contrabass,0.5,0.15,42,1.0
792.125,792.125,349.5071,208,2.0,Viola,0.5,0.15,68,1.0
792.125,792.125,349.5071,208,2.0,Contrabass,0.5,0.15,44,1.0
792.125,792.125,349.5071,208,2.0,Flute 1,3.0,0.9,85,1.0
792.125,792.125,349.5071,208,2.0,Flute 2,3.0,0.9,85,1.0
792.125,792.125,349.5071,208,2.0,Bassoon 1,3.0,0.9,61,1.0
792.125,792.125,349.5071,208,2.0,Oboe 2,3.0,0.9,73,1.0
792.125,792.125,349.5071,208,2.0,Oboe 1,3.0,0.9,73,1.0
792.125,792.125,349.5071,208,2.0,Violoncello,0.5,0.15,56,1.0
792.125,792.125,349.5071,208,2.0,Bassoon 2,3.0,0.9,49,1.0
792.625,792.625,349.6571,208,2.5,Viola,0.5,0.15,66,1.0
792.625,792.625,349.6571,208,2.5,Contrabass,0.5,0.15,42,1.0
792.625,792.625,349.6571,208,2.5,Violoncello,0.5,0.15,54,1.0
793.125,793.125,349.8071,208,3.0,Contrabass,0.5,0.15,41,1.0
793.125,793.125,349.8071,208,3.0,Violoncello,0.5,0.15,53,1.0
793.125,793.125,349.8071,208,3.0,Viola,0.5,0.15,65,1.0
793.625,793.625,349.9571,208,3.5,Viola,0.5,0.15,61,1.0
793.625,793.625,349.9571,208,3.5,Contrabass,0.5,0.15,37,1.0
793.625,793.625,349.9571,208,3.5,Violoncello,0.5,0.15,49,1.0
794.125,794.125,350.1071,208,4.0,Violoncello,0.5,0.15,51,1.0
794.125,794.125,350.1071,208,4.0,Viola,0.5,0.15,63,1.0
794.125,794.125,350.1071,208,4.0,Contrabass,0.5,0.15,39,1.0
794.125,794.125,350.1071,208,4.0,Violin 2,0.75,0.225,73,1.0
794.125,794.125,350.1071,208,4.0,Violin 1,0.75,0.225,85,1.0
794.625,794.625,350.2571,208,4.5,Violoncello,0.5,0.15,53,1.0
794.625,794.625,350.2571,208,4.5,Viola,0.5,0.15,65,1.0
794.625,794.625,350.2571,208,4.5,Contrabass,0.5,0.15,41,1.0
794.875,794.875,350.3321,208,4.75,Violin 1,0.25,0.075,85,1.0
794.875,794.875,350.3321,208,4.75,Violin 2,0.25,0.075,73,1.0
795.125,795.125,350.4071,209,1.0,Oboe 1,4.0,1.2,73,1.0
795.125,795.125,350.4071,209,1.0,Violin 1,1.0,0.3,81,1.0
795.125,795.125,350.4071,209,1.0,Viola,0.5,0.15,66,1.0
795.125,795.125,350.4071,209,1.0,Oboe 2,4.0,1.2,73,1.0
795.125,795.125,350.4071,209,1.0,Bassoon 1,4.0,1.2,61,1.0
795.125,795.125,350.4071,209,1.0,Contrabass,0.5,0.15,42,1.0
795.125,795.125,350.4071,209,1.0,Violin 2,1.0,0.3,69,1.0
795.125,795.125,350.4071,209,1.0,Flute 1,4.0,1.2,85,1.0
795.125,795.125,350.4071,209,1.0,Bassoon 2,4.0,1.2,49,1.0
795.125,795.125,350.4071,209,1.0,Flute 2,4.0,1.2,85,1.0
795.125,795.125,350.4071,209,1.0,Violoncello,0.5,0.15,54,1.0
795.625,795.625,350.5571,209,1.5,Contrabass,0.5,0.15,41,1.0
795.625,795.625,350.5571,209,1.5,Violoncello,0.5,0.15,53,1.0
795.625,795.625,350.5571,209,1.5,Viola,0.5,0.15,65,1.0
796.125,796.125,350.7071,209,2.0,Contrabass,0.5,0.15,42,1.0
796.125,796.125,350.7071,209,2.0,Violoncello,0.5,0.15,54,1.0
796.125,796.125,350.7071,209,2.0,Viola,0.5,0.15,66,1.0
796.125,796.125,350.7071,209,2.0,Violin 2,0.75,0.225,69,1.0
796.125,796.125,350.7071,209,2.0,Violin 1,0.75,0.225,81,1.0
796.625,796.625,350.8571,209,2.5,Viola,0.5,0.15,68,1.0
796.625,796.625,350.8571,209,2.5,Contrabass,0.5,0.15,44,1.0
796.625,796.625,350.8571,209,2.5,Violoncello,0.5,0.15,56,1.0
796.875,796.875,350.9321,209,2.75,Violin 2,0.25,0.075,69,1.0
796.875,796.875,350.9321,209,2.75,Violin 1,0.25,0.075,81,1.0
797.125,797.125,351.0071,209,3.0,Viola,0.5,0.15,69,1.0
797.125,797.125,351.0071,209,3.0,Violin 2,1.0,0.3,66,1.0
797.125,797.125,351.0071,209,3.0,Violin 1,1.0,0.3,78,1.0
797.125,797.125,351.0071,209,3.0,Violoncello,0.5,0.15,57,1.0
797.125,797.125,351.0071,209,3.0,Contrabass,0.5,0.15,45,1.0
797.625,797.625,351.1571,209,3.5,Contrabass,0.5,0.15,44,1.0
797.625,797.625,351.1571,209,3.5,Viola,0.5,0.15,68,1.0
797.625,797.625,351.1571,209,3.5,Violoncello,0.5,0.15,56,1.0
798.125,798.125,351.3071,209,4.0,Violin 1,0.75,0.225,78,1.0
798.125,798.125,351.3071,209,4.0,Violin 2,0.75,0.225,66,1.0
798.125,798.125,351.3071,209,4.0,Viola,0.5,0.15,69,1.0
798.125,798.125,351.3071,209,4.0,Contrabass,0.5,0.15,45,1.0
798.125,798.125,351.3071,209,4.0,Violoncello,0.5,0.15,57,1.0
798.625,798.625,351.4571,209,4.5,Violoncello,0.5,0.15,59,1.0
798.625,798.625,351.4571,209,4.5,Viola,0.5,0.15,71,1.0
798.625,798.625,351.4571,209,4.5,Contrabass,0.5,0.15,47,1.0
798.875,798.875,351.5321,209,4.75,Violin 2,0.25,0.075,66,1.0
798.875,798.875,351.5321,209,4.75,Violin 1,0.25,0.075,78,1.0
799.125,799.125,351.6071,210,1.0,Flute 2,1.0,0.3,85,1.0
799.125,799.125,351.6071,210,1.0,Contrabass,1.0,0.3,49,1.0
799.125,799.125,351.6071,210,1.0,Bassoon 1,1.0,0.3,61,1.0
799.125,799.125,351.6071,210,1.0,Bassoon 2,1.0,0.3,49,1.0
799.125,799.125,351.6071,210,1.0,Violoncello,1.0,0.3,61,1.0
799.125,799.125,351.6071,210,1.0,Oboe 2,1.0,0.3,73,1.0
799.125,799.125,351.6071,210,1.0,Flute 1,1.0,0.3,85,1.0
799.125,799.125,351.6071,210,1.0,Violin 1,1.0,0.3,73,1.0
799.125,799.125,351.6071,210,1.0,Viola,1.0,0.3,73,1.0
799.125,799.125,351.6071,210,1.0,Oboe 1,1.0,0.3,73,1.0
799.125,799.125,351.6071,210,1.0,Violin 2,0.5,0.15,65,1.0
799.625,799.625,351.7571,210,1.5,Violin 2,0.5,0.15,77,1.0
800.125,800.125,351.9071,210,2.0,Violin 2,0.5,0.15,73,1.0
800.625,800.625,352.0571,210,2.5,Violin 2,0.5,0.15,68,1.0
800.875,800.875,352.1321,210,2.75,Violin 1,0.25,0.075,85,0.7087
800.875,800.875,352.1321,210,2.75,Violin 1,0.25,0.075,73,0.7087
801.125,801.125,352.2071,210,3.0,Violin 2,0.5,0.15,65,1.0
801.125,801.125,352.2071,210,3.0,Violin 1,2.0,0.6,85,0.7087
801.125,801.125,352.2071,210,3.0,Violin 1,2.0,0.6,73,0.7087
801.625,801.625,352.3571,210,3.5,Violin 2,0.5,0.15,77,1.0
802.125,802.125,352.5071,210,4.0,Violin 2,0.5,0.15,73,1.0
802.625,802.625,352.6571,210,4.5,Violin 2,0.5,0.15,68,1.0
802.875,802.875,352.7321,210,4.75,Contrabass,0.25,0.075,37,1.0
802.875,802.875,352.7321,210,4.75,Bassoon 1,0.25,0.075,65,1.0
802.875,802.875,352.7321,210,4.75,Flute 1,0.25,0.075,89,1.0
802.875,802.875,352.7321,210,4.75,Oboe 2,0.25,0.075,68,1.0
802.875,802.875,352.7321,210,4.75,Flute 2,0.25,0.075,80,1.0
802.875,802.875,352.7321,210,4.75,Violoncello,0.25,0.075,49,1.0
802.875,802.875,352.7321,210,4.75,Oboe 1,0.25,0.075,77,1.0
802.875,802.875,352.7321,210,4.75,Viola,0.25,0.075,61,1.0
802.875,802.875,352.7321,210,4.75,Bassoon 2,0.25,0.075,56,1.0
803.125,803.125,352.8071,211,1.0,Flute 2,1.0,0.3,81,1.0
803.125,803.125,352.8071,211,1.0,Flute 1,1.0,0.3,90,1.0
803.125,803.125,352.8071,211,1.0,Violoncello,1.0,0.3,54,1.0
803.125,803.125,352.8071,211,1.0,Oboe 1,1.0,0.3,78,1.0
803.125,803.125,352.8071,211,1.0,Viola,1.0,0.3,66,1.0
803.125,803.125,352.8071,211,1.0,Violin 2,0.5,0.15,66,1.0
803.125,803.125,352.8071,211,1.0,Oboe 2,1.0,0.3,69,1.0
803.125,803.125,352.8071,211,1.0,Bassoon 1,1.0,0.3,66,1.0
803.125,803.125,352.8071,211,1.0,Violin 1,1.0,0.3,85,0.7087
803.125,803.125,352.8071,211,1.0,Violin 1,1.0,0.3,73,0.7087
803.125,803.125,352.8071,211,1.0,Contrabass,1.0,0.3,42,1.0
803.125,803.125,352.8071,211,1.0,Bassoon 2,1.0,0.3,57,1.0
803.625,803.625,352.9571,211,1.5,Violin 2,0.5,0.15,78,1.0
804.125,804.125,353.1071,211,2.0,Violin 2,0.5,0.15,73,1.0
804.625,804.625,353.2571,211,2.5,Violin 2,0.5,0.15,69,1.0
804.875,804.875,353.3321,211,2.75,Violin 1,0.25,0.075,85,0.7087
804.875,804.875,353.3321,211,2.75,Violin 1,0.25,0.075,73,0.7087
805.125,805.125,353.4071,211,3.0,Violin 1,2.0,0.6,85,0.7087
805.125,805.125,353.4071,211,3.0,Violin 1,2.0,0.6,73,0.7087
805.125,805.125,353.4071,211,3.0,Violin 2,0.5,0.15,66,1.0
805.625,805.625,353.5571,211,3.5,Violin 2,0.5,0.15,73,1.0
806.125,806.125,353.7071,211,4.0,Violin 2,0.5,0.15,69,1.0
806.625,806.625,353.8571,211,4.5,Violin 2,0.5,0.15,66,1.0
806.875,806.875,353.9321,211,4.75,Oboe 2,0.25,0.075,69,1.0
806.875,806.875,353.9321,211,4.75,Violoncello,0.25,0.075,54,1.0
806.875,806.875,353.9321,211,4.75,Flute 1,0.25,0.075,90,1.0
806.875,806.875,353.9321,211,4.75,Bassoon 2,0.25,0.075,57,1.0
806.875,806.875,353.9321,211,4.75,Bassoon 1,0.25,0.075,66,1.0
806.875,806.875,353.9321,211,4.75,Contrabass,0.25,0.075,42,1.0
806.875,806.875,353.9321,211,4.75,Viola,0.25,0.075,66,1.0
806.875,806.875,353.9321,211,4.75,Flute 2,0.25,0.075,81,1.0
806.875,806.875,353.9321,211,4.75,Oboe 1,0.25,0.075,78,1.0
807.125,807.125,354.0071,212,1.0,Flute 2,1.0,0.3,80,1.0
807.125,807.125,354.0071,212,1.0,Oboe 2,1.0,0.3,68,1.0
807.125,807.125,354.0071,212,1.0,Bassoon 1,1.0,0.3,65,1.0
807.125,807.125,354.0071,212,1.0,Violin 1,1.0,0.3,73,0.7087
807.125,807.125,354.0071,212,1.0,Violin 1,1.0,0.3,85,0.7087
807.125,807.125,354.0071,212,1.0,Oboe 1,1.0,0.3,77,1.0
807.125,807.125,354.0071,212,1.0,Flute 1,1.0,0.3,89,1.0
807.125,807.125,354.0071,212,1.0,Viola,1.0,0.3,61,1.0
807.125,807.125,354.0071,212,1.0,Violin 2,0.5,0.15,65,1.0
807.125,807.125,354.0071,212,1.0,Violoncello,1.0,0.3,49,1.0
807.125,807.125,354.0071,212,1.0,Bassoon 2,1.0,0.3,56,1.0
807.125,807.125,354.0071,212,1.0,Contrabass,1.0,0.3,37,1.0
807.625,807.625,354.1571,212,1.5,Violin 2,0.5,0.15,77,1.0
808.125,808.125,354.3071,212,2.0,Violin 2,0.5,0.15,73,1.0
808.625,808.625,354.4571,212,2.5,Violin 2,0.5,0.15,68,1.0
808.875,808.875,354.5321,212,2.75,Violin 1,0.25,0.075,73,0.7087
808.875,808.875,354.5321,212,2.75,Violin 1,0.25,0.075,85,0.7087
809.125,809.125,354.6071,212,3.0,Violin 2,0.5,0.15,65,1.0
809.125,809.125,354.6071,212,3.0,Violin 1,2.0,0.6,85,0.7087
809.125,809.125,354.6071,212,3.0,Violin 1,2.0,0.6,73,0.7087
809.625,809.625,354.7571,212,3.5,Violin 2,0.5,0.15,77,1.0
810.125,810.125,354.9071,212,4.0,Violin 2,0.5,0.15,73,1.0
810.625,810.625,355.0571,212,4.5,Violin 2,0.5,0.15,68,1.0
810.875,810.875,355.1321,212,4.75,Viola,0.25,0.075,61,1.0
810.875,810.875,355.1321,212,4.75,Bassoon 2,0.25,0.075,56,1.0
810.875,810.875,355.1321,212,4.75,Violoncello,0.25,0.075,49,1.0
810.875,810.875,355.1321,212,4.75,Contrabass,0.25,0.075,37,1.0
810.875,810.875,355.1321,212,4.75,Bassoon 1,0.25,0.075,65,1.0
810.875,810.875,355.1321,212,4.75,Flute 2,0.25,0.075,80,1.0
810.875,810.875,355.1321,212,4.75,Flute 1,0.25,0.075,89,1.0
810.875,810.875,355.1321,212,4.75,Oboe 2,0.25,0.075,68,1.0
810.875,810.875,355.1321,212,4.75,Oboe 1,0.25,0.075,77,1.0
811.125,811.125,355.2071,213,1.0,Violin 2,0.5,0.15,66,1.0
811.125,811.125,355.2071,213,1.0,Bassoon 2,1.0,0.3,57,1.0
811.125,811.125,355.2071,213,1.0,Contrabass,1.0,0.3,42,1.0
811.125,811.125,355.2071,213,1.0,Bassoon 1,1.0,0.3,66,1.0
811.125,811.125,355.2071,213,1.0,Oboe 2,1.0,0.3,69,1.0
811.125,811.125,355.2071,213,1.0,Flute 2,1.0,0.3,81,1.0
811.125,811.125,355.2071,213,1.0,Violin 1,1.0,0.3,73,0.7087
811.125,811.125,355.2071,213,1.0,Flute 1,1.0,0.3,90,1.0
811.125,811.125,355.2071,213,1.0,Violin 1,1.0,0.3,85,0.7087
811.125,811.125,355.2071,213,1.0,Violoncello,1.0,0.3,54,1.0
811.125,811.125,355.2071,213,1.0,Viola,1.0,0.3,66,1.0
811.125,811.125,355.2071,213,1.0,Oboe 1,1.0,0.3,78,1.0
811.625,811.625,355.3571,213,1.5,Violin 2,0.5,0.15,78,1.0
812.125,812.125,355.5071,213,2.0,Violin 2,0.5,0.15,73,1.0
812.625,812.625,355.6571,213,2.5,Violin 2,0.5,0.15,69,1.0
812.875,812.875,355.7321,213,2.75,Violin 1,0.25,0.075,73,0.7087
812.875,812.875,355.7321,213,2.75,Violin 1,0.25,0.075,85,0.7087
813.125,813.125,355.8071,213,3.0,Violin 1,2.0,0.6,73,0.7087
813.125,813.125,355.8071,213,3.0,Violin 2,0.5,0.15,66,1.0
813.125,813.125,355.8071,213,3.0,Violin 1,2.0,0.6,85,0.7087
813.625,813.625,355.9571,213,3.5,Violin 2,0.5,0.15,73,1.0
814.125,814.125,356.1071,213,4.0,Violin 2,0.5,0.15,69,1.0
814.625,814.625,356.2571,213,4.5,Violin 2,0.5,0.15,66,1.0
814.875,814.875,356.3321,213,4.75,Bassoon 2,0.25,0.075,57,1.0
814.875,814.875,356.3321,213,4.75,Contrabass,0.25,0.075,42,1.0
814.875,814.875,356.3321,213,4.75,Bassoon 1,0.25,0.075,66,1.0
814.875,814.875,356.3321,213,4.75,Oboe 2,0.25,0.075,69,1.0
814.875,814.875,356.3321,213,4.75,Flute 1,0.25,0.075,90,1.0
814.875,814.875,356.3321,213,4.75,Violoncello,0.25,0.075,54,1.0
814.875,814.875,356.3321,213,4.75,Oboe 1,0.25,0.075,78,1.0
814.875,814.875,356.3321,213,4.75,Flute 2,0.25,0.075,81,1.0
814.875,814.875,356.3321,213,4.75,Viola,0.25,0.075,66,1.0
815.125,815.125,356.4071,214,1.0,Violin 1,1.0,0.3,85,0.7087
815.125,815.125,356.4071,214,1.0,Violin 1,1.0,0.3,73,0.7087
815.125,815.125,356.4071,214,1.0,Contrabass,1.0,0.3,37,1.0
815.125,815.125,356.4071,214,1.0,Bassoon 2,1.0,0.3,56,1.0
815.125,815.125,356.4071,214,1.0,Flute 1,1.0,0.3,89,1.0
815.125,815.125,356.4071,214,1.0,Violoncello,1.0,0.3,49,1.0
815.125,815.125,356.4071,214,1.0,Oboe 1,1.0,0.3,77,1.0
815.125,815.125,356.4071,214,1.0,Violin 2,0.5,0.15,65,1.0
815.125,815.125,356.4071,214,1.0,Flute 2,1.0,0.3,80,1.0
815.125,815.125,356.4071,214,1.0,Oboe 2,1.0,0.3,68,1.0
815.125,815.125,356.4071,214,1.0,Bassoon 1,1.0,0.3,65,1.0
815.125,815.125,356.4071,214,1.0,Viola,1.0,0.3,61,1.0
815.625,815.625,356.5571,214,1.5,Violin 2,0.5,0.15,77,1.0
816.125,816.125,356.7071,214,2.0,Violin 2,0.5,0.15,73,1.0
816.625,816.625,356.8571,214,2.5,Violin 2,0.5,0.15,68,1.0
817.125,817.125,357.0071,214,3.0,Violin 2,0.5,0.15,65,1.0
817.625,817.625,357.1571,214,3.5,Violin 2,0.5,0.15,77,1.0
818.125,818.125,357.3071,214,4.0,Violin 2,0.5,0.15,73,1.0
818.625,818.625,357.4571,214,4.5,Violin 2,0.5,0.15,68,1.0
818.875,818.875,357.5321,214,4.75,Flute 2,0.25,0.075,85,1.0
818.875,818.875,357.5321,214,4.75,Bassoon 2,0.25,0.075,49,1.0
818.875,818.875,357.5321,214,4.75,Bassoon 1,0.25,0.075,61,1.0
818.875,818.875,357.5321,214,4.75,Oboe 1,0.25,0.075,73,1.0
818.875,818.875,357.5321,214,4.75,Oboe 2,0.25,0.075,73,1.0
818.875,818.875,357.5321,214,4.75,Viola,0.25,0.075,61,1.0
818.875,818.875,357.5321,214,4.75,Violoncello,0.25,0.075,49,1.0
818.875,818.875,357.5321,214,4.75,Violin 1,0.25,0.075,61,1.0
818.875,818.875,357.5321,214,4.75,Contrabass,0.25,0.075,37,1.0
818.875,818.875,357.5321,214,4.75,Flute 1,0.25,0.075,85,1.0
819.125,819.125,357.6071,215,1.0,Bassoon 1,1.0,0.3,61,1.0
819.125,819.125,357.6071,215,1.0,Oboe 2,1.0,0.3,73,1.0
819.125,819.125,357.6071,215,1.0,Flute 2,1.0,0.3,85,1.0
819.125,819.125,357.6071,215,1.0,Flute 1,1.0,0.3,85,1.0
819.125,819.125,357.6071,215,1.0,Bassoon 2,1.0,0.3,49,1.0
819.125,819.125,357.6071,215,1.0,Violoncello,1.0,0.3,49,1.0
819.125,819.125,357.6071,215,1.0,Violin 2,0.5,0.15,65,1.0
819.125,819.125,357.6071,215,1.0,Violin 1,1.0,0.3,61,1.0
819.125,819.125,357.6071,215,1.0,Contrabass,1.0,0.3,37,1.0
819.125,819.125,357.6071,215,1.0,Viola,1.0,0.3,61,1.0
819.125,819.125,357.6071,215,1.0,Oboe 1,1.0,0.3,73,1.0
819.625,819.625,357.7571,215,1.5,Violin 2,0.5,0.15,73,1.0
820.125,820.125,357.9071,215,2.0,Violin 2,0.5,0.15,68,1.0
820.625,820.625,358.0571,215,2.5,Violin 2,0.5,0.15,65,1.0
820.875,820.875,358.1321,215,2.75,Flute 1,0.25,0.075,85,1.0
820.875,820.875,358.1321,215,2.75,Oboe 1,0.25,0.075,73,1.0
820.875,820.875,358.1321,215,2.75,Oboe 2,0.25,0.075,73,1.0
820.875,820.875,358.1321,215,2.75,Violoncello,0.25,0.075,49,1.0
820.875,820.875,358.1321,215,2.75,Bassoon 2,0.25,0.075,49,1.0
820.875,820.875,358.1321,215,2.75,Viola,0.25,0.075,61,1.0
820.875,820.875,358.1321,215,2.75,Bassoon 1,0.25,0.075,61,1.0
820.875,820.875,358.1321,215,2.75,Flute 2,0.25,0.075,85,1.0
820.875,820.875,358.1321,215,2.75,Violin 1,0.25,0.075,61,1.0
820.875,820.875,358.1321,215,2.75,Contrabass,0.25,0.075,37,1.0
821.125,821.125,358.2071,215,3.0,Contrabass,1.0,0.3,37,1.0
821.125,821.125,358.2071,215,3.0,Flute 1,1.0,0.3,85,1.0
821.125,821.125,358.2071,215,3.0,Violoncello,1.0,0.3,49,1.0
821.125,821.125,358.2071,215,3.0,Violin 1,1.0,0.3,61,1.0
821.125,821.125,358.2071,215,3.0,Violin 2,0.5,0.15,61,1.0
821.125,821.125,358.2071,215,3.0,Bassoon 2,1.0,0.3,49,1.0
821.125,821.125,358.2071,215,3.0,Oboe 1,1.0,0.3,73,1.0
821.125,821.125,358.2071,215,3.0,Flute 2,1.0,0.3,85,1.0
821.125,821.125,358.2071,215,3.0,Viola,1.0,0.3,61,1.0
821.125,821.125,358.2071,215,3.0,Oboe 2,1.0,0.3,73,1.0
821.125,821.125,358.2071,215,3.0,Bassoon 1,1.0,0.3,61,1.0
821.625,821.625,358.3571,215,3.5,Violin 2,0.5,0.15,73,1.0
822.125,822.125,358.5071,215,4.0,Violin 2,0.5,0.15,68,1.0
822.625,822.625,358.6571,215,4.5,Violin 2,0.5,0.15,65,1.0
822.875,822.875,358.7321,215,4.75,Violoncello,0.25,0.075,49,1.0
822.875,822.875,358.7321,215,4.75,Flute 2,0.25,0.075,85,1.0
822.875,822.875,358.7321,215,4.75,Oboe 2,0.25,0.075,73,1.0
822.875,822.875,358.7321,215,4.75,Flute 1,0.25,0.075,85,1.0
822.875,822.875,358.7321,215,4.75,Violin 1,0.25,0.075,61,1.0
822.875,822.875,358.7321,215,4.75,Bassoon 1,0.25,0.075,61,1.0
822.875,822.875,358.7321,215,4.75,Bassoon 2,0.25,0.075,49,1.0
822.875,822.875,358.7321,215,4.75,Viola,0.25,0.075,61,1.0
822.875,822.875,358.7321,215,4.75,Contrabass,0.25,0.075,37,1.0
822.875,822.875,358.7321,215,4.75,Oboe 1,0.25,0.075,73,1.0
823.125,823.125,358.8071,216,1.0,Contrabass,4.0,1.2,37,0.4961
823.125,823.125,358.8071,216,1.0,Oboe 1,1.0,0.3,73,0.4961
823.125,823.125,358.8071,216,1.0,Flute 2,1.0,0.3,85,0.4961
823.125,823.125,358.8071,216,1.0,Bassoon 1,1.0,0.3,61,0.4961
823.125,823.125,358.8071,216,1.0,Violin 1,1.0,0.3,61,0.4961
823.125,823.125,358.8071,216,1.0,Violin 2,4.0,1.2,61,0.4961
823.125,823.125,358.8071,216,1.0,Violoncello,4.0,1.2,49,0.4961
823.125,823.125,358.8071,216,1.0,Flute 1,1.0,0.3,85,0.4961
823.125,823.125,358.8071,216,1.0,Bassoon 2,1.0,0.3,49,0.4961
823.125,823.125,358.8071,216,1.0,Viola,4.0,1.2,61,0.4961
823.125,823.125,358.8071,216,1.0,Oboe 2,1.0,0.3,73,0.4961
827.125,827.125,360.0071,217,1.0,Viola,4.0,1.2,61,0.4961
827.125,827.125,360.0071,217,1.0,Contrabass,4.0,1.2,37,0.4961
827.125,827.125,360.0071,217,1.0,Violin 2,4.0,1.2,61,0.4961
827.125,827.125,360.0071,217,1.0,Violoncello,4.0,1.2,49,0.4961
831.125,831.125,361.2071,218,1.0,Violoncello,4.0,1.2,49,0.4961
831.125,831.125,361.2071,218,1.0,Contrabass,4.0,1.2,37,0.4961
831.125,831.125,361.2071,218,1.0,Violin 2,4.0,1.2,61,0.4961
831.125,831.125,361.2071,218,1.0,D Horn 1,4.0,1.2,57,0.7795
831.125,831.125,361.2071,218,1.0,Viola,4.0,1.2,61,0.4961
831.125,831.125,361.2071,218,1.0,D Horn 2,4.0,1.2,45,0.7795
835.125,835.125,362.4071,219,1.0,D Horn 1,4.0,1.2,64,1.0
835.125,835.125,362.4071,219,1.0,Violin 2,0.5,0.15,61,1.0
835.125,835.125,362.4071,219,1.0,Violin 1,2.0,0.6,81,1.0
835.125,835.125,362.4071,219,1.0,Violoncello,4.0,1.2,45,1.0
835.125,835.125,362.4071,219,1.0,D Horn 2,4.0,1.2,57,1.0
835.125,835.125,362.4071,219,1.0,Contrabass,4.0,1.2,33,1.0
835.125,835.125,362.4071,219,1.0,Viola,4.0,1.2,57,1.0
835.625,835.625,362.5571,219,1.5,Violin 2,0.5,0.15,62,1.0
836.125,836.125,362.7071,219,2.0,Violin 2,0.5,0.15,64,1.0
836.625,836.625,362.8571,219,2.5,Violin 2,0.5,0.15,66,1.0
837.125,837.125,363.0071,219,3.0,Violin 2,0.5,0.15,67,1.0
837.125,837.125,363.0071,219,3.0,Violin 1,0.5,0.15,81,1.0
837.625,837.625,363.1571,219,3.5,Violin 1,0.25,0.075,79,1.0
837.625,837.625,363.1571,219,3.5,Violin 2,0.5,0.15,69,1.0
837.875,837.875,363.2321,219,3.75,Violin 1,0.25,0.075,78,1.0
838.125,838.125,363.3071,219,4.0,Flute 1,1.0,0.3,85,1.0
838.125,838.125,363.3071,219,4.0,Violin 1,0.125,0.0375,76,1.0
838.125,838.125,363.3071,219,4.0,Violin 2,0.5,0.15,71,1.0
838.25,838.25,363.3446,219,4.125,Violin 1,0.125,0.0375,74,1.0
838.375,838.375,363.3821,219,4.25,Violin 1,0.125,0.0375,73,1.0
838.5,838.5,363.4196,219,4.375,Violin 1,0.125,0.0375,71,1.0
838.625,838.625,363.4571,219,4.5,Violin 1,0.125,0.0375,69,1.0
838.625,838.625,363.4571,219,4.5,Violin 2,0.5,0.15,73,1.0
838.75,838.75,363.4946,219,4.625,Violin 1,0.125,0.0375,67,1.0
838.875,838.875,363.5321,219,4.75,Violin 1,0.125,0.0375,66,1.0
839.0,839.0,363.5696,219,4.875,Violin 1,0.125,0.0375,64,1.0
839.125,839.125,363.6071,220,1.0,Violin 2,0.5,0.15,74,0.4961
839.125,839.125,363.6071,220,1.0,Contrabass,1.0,0.3,38,0.4961
839.125,839.125,363.6071,220,1.0,Violin 1,2.0,0.6,62,0.4961
839.125,839.125,363.6071,220,1.0,Flute 1,1.0,0.3,86,0.4961
839.125,839.125,363.6071,220,1.0,Violoncello,3.0,0.9,50,0.4961
839.125,839.125,363.6071,220,1.0,D Horn 1,1.0,0.3,62,0.4961
839.125,839.125,363.6071,220,1.0,Viola,3.0,0.9,62,0.4961
839.125,839.125,363.6071,220,1.0,D Horn 2,1.0,0.3,54,0.4961
839.625,839.625,363.7571,220,1.5,Violin 2,0.5,0.15,62,0.4961
840.125,840.125,363.9071,220,2.0,Violin 2,0.5,0.15,62,0.4961
840.625,840.625,364.0571,220,2.5,Violin 2,0.5,0.15,62,0.4961
841.125,841.125,364.2071,220,3.0,Violin 2,0.5,0.15,62,0.4961
841.125,841.125,364.2071,220,3.0,Violin 1,2.0,0.6,62,0.4961
841.625,841.625,364.3571,220,3.5,Violin 2,0.5,0.15,62,0.4961
842.125,842.125,364.5071,220,4.0,Violin 2,0.5,0.15,62,0.4961
842.125,842.125,364.5071,220,4.0,Viola,0.25,0.075,50,0.4961
842.125,842.125,364.5071,220,4.0,Violoncello,0.25,0.075,50,0.4961
842.375,842.375,364.5821,220,4.25,Violoncello,0.25,0.075,49,0.4961
842.375,842.375,364.5821,220,4.25,Viola,0.25,0.075,49,0.4961
842.625,842.625,364.6571,220,4.5,Violin 2,0.5,0.15,62,0.4961
842.625,842.625,364.6571,220,4.5,Viola,0.25,0.075,50,0.4961
842.625,842.625,364.6571,220,4.5,Violoncello,0.25,0.075,50,0.4961
842.875,842.875,364.7321,220,4.75,Viola,0.25,0.075,52,0.4961
842.875,842.875,364.7321,220,4.75,Violoncello,0.25,0.075,52,0.4961
843.125,843.125,364.8071,221,1.0,Violin 2,0.5,0.15,62,0.4961
843.125,843.125,364.8071,221,1.0,Violin 1,2.0,0.6,62,0.4961
843.125,843.125,364.8071,221,1.0,Violoncello,3.0,0.9,54,0.4961
843.125,843.125,364.8071,221,1.0,Viola,3.0,0.9,54,0.4961
843.625,843.625,364.9571,221,1.5,Violin 2,0.5,0.15,62,0.4961
844.125,844.125,365.1071,221,2.0,Violin 2,0.5,0.15,62,0.4961
844.625,844.625,365.2571,221,2.5,Violin 2,0.5,0.15,62,0.4961
845.125,845.125,365.4071,221,3.0,Violin 1,2.0,0.6,62,0.4961
845.125,845.125,365.4071,221,3.0,Violin 2,0.5,0.15,62,0.4961
845.625,845.625,365.5571,221,3.5,Violin 2,0.5,0.15,62,0.4961
846.125,846.125,365.7071,221,4.0,Violoncello,0.25,0.075,54,0.4961
846.125,846.125,365.7071,221,4.0,Viola,0.25,0.075,54,0.4961
846.125,846.125,365.7071,221,4.0,Violin 2,0.5,0.15,62,0.4961
846.375,846.375,365.7821,221,4.25,Viola,0.25,0.075,52,0.4961
846.375,846.375,365.7821,221,4.25,Violoncello,0.25,0.075,52,0.4961
846.625,846.625,365.8571,221,4.5,Violin 2,0.5,0.15,62,0.4961
846.625,846.625,365.8571,221,4.5,Violoncello,0.25,0.075,54,0.4961
846.625,846.625,365.8571,221,4.5,Viola,0.25,0.075,54,0.4961
846.875,846.875,365.9321,221,4.75,Violoncello,0.25,0.075,55,0.4961
846.875,846.875,365.9321,221,4.75,Viola,0.25,0.075,55,0.4961
847.125,847.125,366.0071,222,1.0,Violoncello,1.0,0.3,57,0.5461
847.125,847.125,366.0071,222,1.0,Viola,1.0,0.3,57,0.5461
847.125,847.125,366.0071,222,1.0,Violin 2,0.5,0.15,62,0.4961
847.125,847.125,366.0071,222,1.0,Violin 1,2.0,0.6,62,0.4961
847.625,847.625,366.1571,222,1.5,Violin 2,0.5,0.15,62,0.4961
848.125,848.125,366.3071,222,2.0,Violoncello,1.0,0.3,57,0.5461
848.125,848.125,366.3071,222,2.0,Violin 2,0.5,0.15,62,0.4961
848.125,848.125,366.3071,222,2.0,Viola,1.0,0.3,57,0.5461
848.625,848.625,366.4571,222,2.5,Violin 2,0.5,0.15,62,0.4961
849.125,849.125,366.6071,222,3.0,Violoncello,1.0,0.3,54,0.5461
849.125,849.125,366.6071,222,3.0,Violin 2,0.5,0.15,62,0.4961
849.125,849.125,366.6071,222,3.0,Viola,1.0,0.3,54,0.5461
849.125,849.125,366.6071,222,3.0,Violin 1,2.0,0.6,62,0.4961
849.625,849.625,366.7571,222,3.5,Violin 2,0.5,0.15,62,0.4961
850.125,850.125,366.9071,222,4.0,Viola,1.0,0.3,54,0.5461
850.125,850.125,366.9071,222,4.0,Violoncello,1.0,0.3,54,0.4961
850.125,850.125,366.9071,222,4.0,Violin 2,0.5,0.15,62,0.4961
850.625,850.625,367.0571,222,4.5,Violin 2,0.5,0.15,62,0.4961
851.125,851.125,367.2071,223,1.0,Bassoon 1,4.0,1.2,66,0.4961
851.125,851.125,367.2071,223,1.0,Bassoon 2,4.0,1.2,62,0.4961
851.125,851.125,367.2071,223,1.0,Viola,0.5,0.15,50,0.4961
851.125,851.125,367.2071,223,1.0,Violin 2,0.5,0.15,62,0.4961
851.125,851.125,367.2071,223,1.0,Violoncello,1.0,0.3,50,0.4961
851.125,851.125,367.2071,223,1.0,D Horn 1,4.0,1.2,62,0.4961
851.125,851.125,367.2071,223,1.0,D Horn 2,4.0,1.2,50,0.4961
851.125,851.125,367.2071,223,1.0,Violin 1,0.25,0.075,78,0.4961
851.125,851.125,367.2071,223,1.0,Oboe 1,4.0,1.2,78,0.4961
851.125,851.125,367.2071,223,1.0,Oboe 2,4.0,1.2,74,0.4961
851.375,851.375,367.2821,223,1.25,Violin 1,0.25,0.075,76,0.4961
851.625,851.625,367.3571,223,1.5,Violin 1,0.25,0.075,74,0.4961
851.625,851.625,367.3571,223,1.5,Viola,0.5,0.15,66,0.4961
851.625,851.625,367.3571,223,1.5,Violin 2,0.5,0.15,62,0.4961
851.875,851.875,367.4321,223,1.75,Violin 1,0.25,0.075,76,0.4961
852.125,852.125,367.5071,223,2.0,Violin 2,0.5,0.15,62,0.4961
852.125,852.125,367.5071,223,2.0,Viola,0.5,0.15,66,0.4961
852.125,852.125,367.5071,223,2.0,Violin 1,0.25,0.075,78,0.4961
852.375,852.375,367.5821,223,2.25,Violin 1,0.25,0.075,79,0.4961
852.625,852.625,367.6571,223,2.5,Violin 1,0.25,0.075,81,0.4961
852.625,852.625,367.6571,223,2.5,Violin 2,0.5,0.15,62,0.4961
852.625,852.625,367.6571,223,2.5,Viola,0.5,0.15,66,0.4961
852.875,852.875,367.7321,223,2.75,Violin 1,0.25,0.075,79,0.4961
853.125,853.125,367.8071,223,3.0,Violin 2,0.5,0.15,62,0.4961
853.125,853.125,367.8071,223,3.0,Violin 1,0.25,0.075,78,0.4961
853.125,853.125,367.8071,223,3.0,Viola,0.5,0.15,66,0.4961
853.375,853.375,367.8821,223,3.25,Violin 1,0.25,0.075,76,0.4961
853.625,853.625,367.9571,223,3.5,Viola,0.5,0.15,66,0.4961
853.625,853.625,367.9571,223,3.5,Violin 2,0.5,0.15,62,0.4961
853.625,853.625,367.9571,223,3.5,Violin 1,0.25,0.075,74,0.4961
853.875,853.875,368.0321,223,3.75,Violin 1,0.25,0.075,73,0.4961
854.125,854.125,368.1071,223,4.0,Violin 2,0.5,0.15,62,0.4961
854.125,854.125,368.1071,223,4.0,Violin 1,0.25,0.075,71,0.4961
854.125,854.125,368.1071,223,4.0,Viola,0.5,0.15,66,0.4961
854.375,854.375,368.1821,223,4.25,Violin 1,0.25,0.075,69,0.4961
854.625,854.625,368.2571,223,4.5,Violin 2,0.5,0.15,62,0.4961
854.625,854.625,368.2571,223,4.5,Viola,0.5,0.15,66,0.4961
854.625,854.625,368.2571,223,4.5,Violin 1,0.25,0.075,67,0.4961
854.875,854.875,368.3321,223,4.75,Violin 1,0.25,0.075,66,0.4961
855.125,855.125,368.4071,224,1.0,Bassoon 1,1.0,0.3,64,0.4961
855.125,855.125,368.4071,224,1.0,Viola,3.0,0.9,55,0.4961
855.125,855.125,368.4071,224,1.0,Violin 1,2.0,0.6,64,0.4961
855.125,855.125,368.4071,224,1.0,Violoncello,3.0,0.9,55,0.4961
855.125,855.125,368.4071,224,1.0,Bassoon 2,1.0,0.3,62,0.4961
855.125,855.125,368.4071,224,1.0,Contrabass,3.0,0.9,43,0.4961
855.125,855.125,368.4071,224,1.0,Oboe 1,1.0,0.3,76,0.4961
855.125,855.125,368.4071,224,1.0,Oboe 2,1.0,0.3,74,0.4961
855.125,855.125,368.4071,224,1.0,D Horn 2,1.0,0.3,50,0.4961
855.125,855.125,368.4071,224,1.0,Violin 2,0.5,0.15,59,0.7087
855.125,855.125,368.4071,224,1.0,D Horn 1,1.0,0.3,62,0.4961
855.125,855.125,368.4071,224,1.0,Violin 2,0.5,0.15,62,0.7087
855.625,855.625,368.5571,224,1.5,Violin 2,0.5,0.15,59,0.7087
855.625,855.625,368.5571,224,1.5,Violin 2,0.5,0.15,62,0.7087
856.125,856.125,368.7071,224,2.0,Violin 2,0.5,0.15,59,0.7087
856.125,856.125,368.7071,224,2.0,Violin 2,0.5,0.15,62,0.7087
856.625,856.625,368.8571,224,2.5,Violin 2,0.5,0.15,59,0.7087
856.625,856.625,368.8571,224,2.5,Violin 2,0.5,0.15,62,0.7087
857.125,857.125,369.0071,224,3.0,Violin 2,0.5,0.15,62,0.7087
857.125,857.125,369.0071,224,3.0,Violin 1,2.0,0.6,64,0.4961
857.125,857.125,369.0071,224,3.0,Violin 2,0.5,0.15,59,0.7087
857.625,857.625,369.1571,224,3.5,Violin 2,0.5,0.15,62,0.7087
857.625,857.625,369.1571,224,3.5,Violin 2,0.5,0.15,59,0.7087
858.125,858.125,369.3071,224,4.0,Violin 2,0.5,0.15,59,0.7087
858.125,858.125,369.3071,224,4.0,Violoncello,0.25,0.075,55,0.4961
858.125,858.125,369.3071,224,4.0,Contrabass,0.25,0.075,43,0.4961
858.125,858.125,369.3071,224,4.0,Viola,0.25,0.075,55,0.4961
858.125,858.125,369.3071,224,4.0,Violin 2,0.5,0.15,62,0.7087
858.375,858.375,369.3821,224,4.25,Contrabass,0.25,0.075,42,0.4961
858.375,858.375,369.3821,224,4.25,Viola,0.25,0.075,54,0.4961
858.375,858.375,369.3821,224,4.25,Violoncello,0.25,0.075,54,0.4961
858.625,858.625,369.4571,224,4.5,Contrabass,0.25,0.075,43,0.4961
858.625,858.625,369.4571,224,4.5,Violin 2,0.5,0.15,59,0.7087
858.625,858.625,369.4571,224,4.5,Violin 2,0.5,0.15,62,0.7087
858.625,858.625,369.4571,224,4.5,Viola,0.25,0.075,55,0.4961
858.625,858.625,369.4571,224,4.5,Violoncello,0.25,0.075,55,0.4961
858.875,858.875,369.5321,224,4.75,Viola,0.25,0.075,57,0.4961
858.875,858.875,369.5321,224,4.75,Violoncello,0.25,0.075,57,0.4961
858.875,858.875,369.5321,224,4.75,Contrabass,0.25,0.075,45,0.4961
859.125,859.125,369.6071,225,1.0,Violoncello,3.0,0.9,59,0.4961
859.125,859.125,369.6071,225,1.0,Violin 2,0.5,0.15,59,0.7087
859.125,859.125,369.6071,225,1.0,Violin 2,0.5,0.15,62,0.7087
859.125,859.125,369.6071,225,1.0,Contrabass,3.0,0.9,47,0.4961
859.125,859.125,369.6071,225,1.0,Viola,3.0,0.9,59,0.4961
859.125,859.125,369.6071,225,1.0,Violin 1,2.0,0.6,64,0.4961
859.625,859.625,369.7571,225,1.5,Violin 2,0.5,0.15,59,0.7087
859.625,859.625,369.7571,225,1.5,Violin 2,0.5,0.15,62,0.7087
860.125,860.125,369.9071,225,2.0,Violin 2,0.5,0.15,62,0.7087
860.125,860.125,369.9071,225,2.0,Violin 2,0.5,0.15,59,0.7087
860.625,860.625,370.0571,225,2.5,Violin 2,0.5,0.15,59,0.7087
860.625,860.625,370.0571,225,2.5,Violin 2,0.5,0.15,62,0.7087
861.125,861.125,370.2071,225,3.0,Violin 2,0.5,0.15,59,0.7087
861.125,861.125,370.2071,225,3.0,Violin 2,0.5,0.15,62,0.7087
861.125,861.125,370.2071,225,3.0,Violin 1,2.0,0.6,64,0.4961
861.625,861.625,370.3571,225,3.5,Violin 2,0.5,0.15,59,0.7087
861.625,861.625,370.3571,225,3.5,Violin 2,0.5,0.15,62,0.7087
862.125,862.125,370.5071,225,4.0,Viola,0.25,0.075,59,0.4961
862.125,862.125,370.5071,225,4.0,Contrabass,0.25,0.075,47,0.4961
862.125,862.125,370.5071,225,4.0,Violin 2,0.5,0.15,62,0.7087
862.125,862.125,370.5071,225,4.0,Violoncello,0.25,0.075,59,0.4961
862.125,862.125,370.5071,225,4.0,Violin 2,0.5,0.15,59,0.7087
862.375,862.375,370.5821,225,4.25,Contrabass,0.25,0.075,46,0.4961
862.375,862.375,370.5821,225,4.25,Viola,0.25,0.075,58,0.4961
862.375,862.375,370.5821,225,4.25,Violoncello,0.25,0.075,58,0.4961
862.625,862.625,370.6571,225,4.5,Violin 2,0.5,0.15,59,0.7087
862.625,862.625,370.6571,225,4.5,Contrabass,0.25,0.075,47,0.4961
862.625,862.625,370.6571,225,4.5,Violoncello,0.25,0.075,59,0.4961
862.625,862.625,370.6571,225,4.5,Violin 2,0.5,0.15,62,0.7087
862.625,862.625,370.6571,225,4.5,Viola,0.25,0.075,59,0.4961
862.875,862.875,370.7321,225,4.75,Violoncello,0.25,0.075,61,0.4961
862.875,862.875,370.7321,225,4.75,Contrabass,0.25,0.075,49,0.4961
862.875,862.875,370.7321,225,4.75,Viola,0.25,0.075,61,0.4961
863.125,863.125,370.8071,226,1.0,Viola,1.0,0.3,62,0.5461
863.125,863.125,370.8071,226,1.0,Violin 2,0.5,0.15,62,0.7087
863.125,863.125,370.8071,226,1.0,Violoncello,1.0,0.3,62,0.5461
863.125,863.125,370.8071,226,1.0,Contrabass,1.0,0.3,50,0.5461
863.125,863.125,370.8071,226,1.0,Violin 1,2.0,0.6,64,0.4961
863.125,863.125,370.8071,226,1.0,Violin 2,0.5,0.15,59,0.7087
863.625,863.625,370.9571,226,1.5,Violin 2,0.5,0.15,62,0.7087
863.625,863.625,370.9571,226,1.5,Violin 2,0.5,0.15,59,0.7087
864.125,864.125,371.1071,226,2.0,Viola,1.0,0.3,62,0.5461
864.125,864.125,371.1071,226,2.0,Contrabass,1.0,0.3,50,0.5461
864.125,864.125,371.1071,226,2.0,Violin 2,0.5,0.15,62,0.7087
864.125,864.125,371.1071,226,2.0,Violoncello,1.0,0.3,62,0.5461
864.125,864.125,371.1071,226,2.0,Violin 2,0.5,0.15,59,0.7087
864.625,864.625,371.2571,226,2.5,Violin 2,0.5,0.15,59,0.7087
864.625,864.625,371.2571,226,2.5,Violin 2,0.5,0.15,62,0.7087
865.125,865.125,371.4071,226,3.0,Violin 2,0.5,0.15,62,0.7087
865.125,865.125,371.4071,226,3.0,Violin 1,2.0,0.6,64,0.4961
865.125,865.125,371.4071,226,3.0,Violin 2,0.5,0.15,59,0.7087
865.125,865.125,371.4071,226,3.0,Contrabass,1.0,0.3,47,0.5461
865.125,865.125,371.4071,226,3.0,Violoncello,1.0,0.3,59,0.5461
865.125,865.125,371.4071,226,3.0,Viola,1.0,0.3,59,0.5461
865.625,865.625,371.5571,226,3.5,Violin 2,0.5,0.15,59,0.7087
865.625,865.625,371.5571,226,3.5,Violin 2,0.5,0.15,62,0.7087
866.125,866.125,371.7071,226,4.0,Viola,1.0,0.3,59,0.5461
866.125,866.125,371.7071,226,4.0,Violin 2,0.5,0.15,59,0.7087
866.125,866.125,371.7071,226,4.0,Violin 2,0.5,0.15,62,0.7087
866.125,866.125,371.7071,226,4.0,Violoncello,1.0,0.3,59,0.5461
866.125,866.125,371.7071,226,4.0,Contrabass,1.0,0.3,47,0.5461
866.625,866.625,371.8571,226,4.5,Violin 2,0.5,0.15,59,0.7087
866.625,866.625,371.8571,226,4.5,Violin 2,0.5,0.15,62,0.7087
867.125,867.125,372.0071,227,1.0,Violin 2,0.5,0.15,59,0.7087
867.125,867.125,372.0071,227,1.0,Violin 2,0.5,0.15,62,0.7087
867.125,867.125,372.0071,227,1.0,Bassoon 1,3.0,0.9,64,0.4961
867.125,867.125,372.0071,227,1.0,Flute 1,0.5,0.15,86,0.4961
867.125,867.125,372.0071,227,1.0,Violin 1,2.0,0.6,64,0.4961
867.125,867.125,372.0071,227,1.0,D Horn 2,4.0,1.2,50,0.4961
867.125,867.125,372.0071,227,1.0,Contrabass,1.0,0.3,44,0.4961
867.125,867.125,372.0071,227,1.0,Violoncello,1.0,0.3,56,0.4961
867.125,867.125,372.0071,227,1.0,D Horn 1,4.0,1.2,62,0.4961
867.125,867.125,372.0071,227,1.0,Oboe 1,3.0,0.9,76,0.4961
867.125,867.125,372.0071,227,1.0,Viola,1.0,0.3,56,0.4961
867.625,867.625,372.1571,227,1.5,Violin 2,0.5,0.15,62,0.7087
867.625,867.625,372.1571,227,1.5,Violin 2,0.5,0.15,59,0.7087
867.625,867.625,372.1571,227,1.5,Flute 1,0.5,0.15,85,0.4961
868.125,868.125,372.3071,227,2.0,Violin 2,0.5,0.15,59,0.7087
868.125,868.125,372.3071,227,2.0,Flute 1,0.5,0.15,86,0.4961
868.125,868.125,372.3071,227,2.0,Violin 2,0.5,0.15,62,0.7087
868.625,868.625,372.4571,227,2.5,Violin 2,0.5,0.15,62,0.7087
868.625,868.625,372.4571,227,2.5,Violin 2,0.5,0.15,59,0.7087
868.625,868.625,372.4571,227,2.5,Flute 1,0.5,0.15,85,0.4961
869.125,869.125,372.6071,227,3.0,Violin 2,0.5,0.15,62,0.7087
869.125,869.125,372.6071,227,3.0,Violin 1,1.0,0.3,64,0.4961
869.125,869.125,372.6071,227,3.0,Flute 1,0.5,0.15,86,0.4961
869.125,869.125,372.6071,227,3.0,Violin 2,0.5,0.15,59,0.7087
869.625,869.625,372.7571,227,3.5,Violin 2,0.5,0.15,62,0.7087
869.625,869.625,372.7571,227,3.5,Violin 2,0.5,0.15,59,0.7087
869.625,869.625,372.7571,227,3.5,Flute 1,0.5,0.15,85,0.4961
870.125,870.125,372.9071,227,4.0,Flute 1,0.5,0.15,86,0.4961
870.125,870.125,372.9071,227,4.0,Violin 2,0.5,0.15,59,0.7087
870.125,870.125,372.9071,227,4.0,Violin 1,1.0,0.3,65,0.4961
870.125,870.125,372.9071,227,4.0,Oboe 1,1.0,0.3,77,0.4961
870.125,870.125,372.9071,227,4.0,Bassoon 1,1.0,0.3,65,0.4961
870.125,870.125,372.9071,227,4.0,Violin 2,0.5,0.15,62,0.7087
870.625,870.625,373.0571,227,4.5,Violin 2,0.5,0.15,59,0.7087
870.625,870.625,373.0571,227,4.5,Flute 1,0.5,0.15,85,0.4961
870.625,870.625,373.0571,227,4.5,Violin 2,0.5,0.15,62,0.7087
871.125,871.125,373.2071,228,1.0,Violin 2,0.5,0.15,60,0.7087
871.125,871.125,373.2071,228,1.0,Contrabass,1.0,0.3,50,0.5461
871.125,871.125,373.2071,228,1.0,Violoncello,1.0,0.3,62,0.5461
871.125,871.125,373.2071,228,1.0,Violin 2,0.5,0.15,62,0.7087
871.125,871.125,373.2071,228,1.0,Bassoon 1,1.0,0.3,66,0.5461
871.125,871.125,373.2071,228,1.0,Oboe 1,1.0,0.3,78,0.5461
871.125,871.125,373.2071,228,1.0,Flute 1,1.0,0.3,86,0.5461
871.125,871.125,373.2071,228,1.0,Viola,1.0,0.3,62,0.5461
871.125,871.125,373.2071,228,1.0,Violin 1,2.0,0.6,66,0.4961
871.125,871.125,373.2071,228,1.0,D Horn 2,4.0,1.2,50,0.4961
871.125,871.125,373.2071,228,1.0,D Horn 1,4.0,1.2,62,0.4961
871.625,871.625,373.3571,228,1.5,Violin 2,0.5,0.15,62,0.7087
871.625,871.625,373.3571,228,1.5,Violin 2,0.5,0.15,60,0.7087
872.125,872.125,373.5071,228,2.0,Viola,1.0,0.3,62,0.5461
872.125,872.125,373.5071,228,2.0,Contrabass,1.0,0.3,50,0.5461
872.125,872.125,373.5071,228,2.0,Violoncello,1.0,0.3,62,0.5461
872.125,872.125,373.5071,228,2.0,Violin 2,0.5,0.15,60,0.7087
872.125,872.125,373.5071,228,2.0,Violin 2,0.5,0.15,62,0.7087
872.625,872.625,373.6571,228,2.5,Violin 2,0.5,0.15,62,0.7087
872.625,872.625,373.6571,228,2.5,Violin 2,0.5,0.15,60,0.7087
873.125,873.125,373.8071,228,3.0,Violin 2,0.5,0.15,60,0.7087
873.125,873.125,373.8071,228,3.0,Violin 1,2.0,0.6,66,0.4961
873.125,873.125,373.8071,228,3.0,Violin 2,0.5,0.15,62,0.7087
873.125,873.125,373.8071,228,3.0,Violoncello,1.0,0.3,60,0.5461
873.125,873.125,373.8071,228,3.0,Contrabass,1.0,0.3,48,0.5461
873.125,873.125,373.8071,228,3.0,Viola,1.0,0.3,60,0.5461
873.625,873.625,373.9571,228,3.5,Violin 2,0.5,0.15,62,0.7087
873.625,873.625,373.9571,228,3.5,Violin 2,0.5,0.15,60,0.7087
874.125,874.125,374.1071,228,4.0,Violoncello,1.0,0.3,60,0.5461
874.125,874.125,374.1071,228,4.0,Violin 2,0.5,0.15,62,0.7087
874.125,874.125,374.1071,228,4.0,Violin 2,0.5,0.15,60,0.7087
874.125,874.125,374.1071,228,4.0,Contrabass,1.0,0.3,48,0.5461
874.125,874.125,374.1071,228,4.0,Viola,1.0,0.3,60,0.5461
874.625,874.625,374.2571,228,4.5,Violin 2,0.5,0.15,62,0.7087
874.625,874.625,374.2571,228,4.5,Violin 2,0.5,0.15,60,0.7087
875.125,875.125,374.4071,229,1.0,Violin 1,2.0,0.6,66,0.4961
875.125,875.125,374.4071,229,1.0,Viola,1.0,0.3,57,0.4961
875.125,875.125,374.4071,229,1.0,Violin 2,0.5,0.15,62,0.7087
875.125,875.125,374.4071,229,1.0,D Horn 2,4.0,1.2,50,0.4961
875.125,875.125,374.4071,229,1.0,Bassoon 1,3.0,0.9,66,0.4961
875.125,875.125,374.4071,229,1.0,Flute 1,0.5,0.15,86,0.4961
875.125,875.125,374.4071,229,1.0,D Horn 1,4.0,1.2,62,0.4961
875.125,875.125,374.4071,229,1.0,Oboe 1,3.0,0.9,78,0.4961
875.125,875.125,374.4071,229,1.0,Contrabass,1.0,0.3,45,0.4961
875.125,875.125,374.4071,229,1.0,Violoncello,1.0,0.3,57,0.4961
875.125,875.125,374.4071,229,1.0,Violin 2,0.5,0.15,60,0.7087
875.625,875.625,374.5571,229,1.5,Violin 2,0.5,0.15,62,0.7087
875.625,875.625,374.5571,229,1.5,Flute 1,0.5,0.15,85,0.4961
875.625,875.625,374.5571,229,1.5,Violin 2,0.5,0.15,60,0.7087
876.125,876.125,374.7071,229,2.0,Flute 1,0.5,0.15,86,0.4961
876.125,876.125,374.7071,229,2.0,Violin 2,0.5,0.15,60,0.7087
876.125,876.125,374.7071,229,2.0,Violin 2,0.5,0.15,62,0.7087
876.625,876.625,374.8571,229,2.5,Violin 2,0.5,0.15,62,0.7087
876.625,876.625,374.8571,229,2.5,Flute 1,0.5,0.15,85,0.4961
876.625,876.625,374.8571,229,2.5,Violin 2,0.5,0.15,60,0.7087
877.125,877.125,375.0071,229,3.0,Violin 1,2.0,0.6,66,0.4961
877.125,877.125,375.0071,229,3.0,Violin 2,0.5,0.15,62,0.7087
877.125,877.125,375.0071,229,3.0,Violin 2,0.5,0.15,60,0.7087
877.125,877.125,375.0071,229,3.0,Flute 1,0.5,0.15,86,0.4961
877.625,877.625,375.1571,229,3.5,Flute 1,0.5,0.15,85,0.4961
877.625,877.625,375.1571,229,3.5,Violin 2,0.5,0.15,62,0.7087
877.625,877.625,375.1571,229,3.5,Violin 2,0.5,0.15,60,0.7087
878.125,878.125,375.3071,229,4.0,Bassoon 1,1.0,0.3,66,0.4961
878.125,878.125,375.3071,229,4.0,Oboe 1,1.0,0.3,78,0.4961
878.125,878.125,375.3071,229,4.0,Flute 1,0.5,0.15,86,0.4961
878.125,878.125,375.3071,229,4.0,Violin 2,0.5,0.15,62,0.7087
878.125,878.125,375.3071,229,4.0,Violin 2,0.5,0.15,60,0.7087
878.625,878.625,375.4571,229,4.5,Violin 2,0.5,0.15,62,0.7087
878.625,878.625,375.4571,229,4.5,Violin 2,0.5,0.15,60,0.7087
878.625,878.625,375.4571,229,4.5,Flute 1,0.5,0.15,85,0.4961
879.125,879.125,375.6071,230,1.0,Violoncello,1.0,0.3,59,0.4961
879.125,879.125,375.6071,230,1.0,D Horn 1,1.0,0.3,62,0.4961
879.125,879.125,375.6071,230,1.0,Bassoon 1,1.0,0.3,69,0.4961
879.125,879.125,375.6071,230,1.0,Oboe 1,1.0,0.3,81,0.4961
879.125,879.125,375.6071,230,1.0,Contrabass,1.0,0.3,47,0.4961
879.125,879.125,375.6071,230,1.0,Violin 1,0.5,0.15,69,0.4961
879.125,879.125,375.6071,230,1.0,Flute 1,1.0,0.3,86,0.5461
879.125,879.125,375.6071,230,1.0,D Horn 2,1.0,0.3,50,0.4961
879.625,879.625,375.7571,230,1.5,Violin 1,0.5,0.15,67,0.4961
879.625,879.625,375.7571,230,1.5,Viola,0.5,0.15,59,0.5461
879.625,879.625,375.7571,230,1.5,Violin 2,0.5,0.15,62,0.5461
880.125,880.125,375.9071,230,2.0,Violin 2,0.5,0.15,62,0.5461
880.125,880.125,375.9071,230,2.0,Oboe 1,2.0,0.6,79,0.4961
880.125,880.125,375.9071,230,2.0,Violin 1,0.5,0.15,67,0.5461
880.125,880.125,375.9071,230,2.0,Viola,0.5,0.15,59,0.5461
880.125,880.125,375.9071,230,2.0,Bassoon 1,2.0,0.6,67,0.4961
880.625,880.625,376.0571,230,2.5,Violin 2,0.5,0.15,62,0.5461
880.625,880.625,376.0571,230,2.5,Viola,0.5,0.15,59,0.5461
880.625,880.625,376.0571,230,2.5,Violin 1,0.5,0.15,67,0.5461
881.125,881.125,376.2071,230,3.0,Contrabass,1.0,0.3,45,0.4961
881.125,881.125,376.2071,230,3.0,Violoncello,1.0,0.3,57,0.4961
881.625,881.625,376.3571,230,3.5,Viola,0.5,0.15,60,0.7087
881.625,881.625,376.3571,230,3.5,Violin 1,0.5,0.15,66,0.5461
881.625,881.625,376.3571,230,3.5,Viola,0.5,0.15,57,0.7087
881.625,881.625,376.3571,230,3.5,Violin 2,0.5,0.15,63,0.6878
882.125,882.125,376.5071,230,4.0,Viola,0.5,0.15,57,0.7087
882.125,882.125,376.5071,230,4.0,Violin 1,0.5,0.15,66,0.5461
882.125,882.125,376.5071,230,4.0,Bassoon 1,1.0,0.3,66,0.4961
882.125,882.125,376.5071,230,4.0,Violin 2,0.5,0.15,63,0.6878
882.125,882.125,376.5071,230,4.0,Oboe 1,1.0,0.3,78,0.4961
882.125,882.125,376.5071,230,4.0,Viola,0.5,0.15,60,0.7087
882.625,882.625,376.6571,230,4.5,Viola,0.5,0.15,57,0.7087
882.625,882.625,376.6571,230,4.5,Violin 1,0.5,0.15,66,0.5461
882.625,882.625,376.6571,230,4.5,Violin 2,0.5,0.15,63,0.6878
882.625,882.625,376.6571,230,4.5,Viola,0.5,0.15,60,0.7087
883.125,883.125,376.8071,231,1.0,Contrabass,1.0,0.3,43,0.6378
883.125,883.125,376.8071,231,1.0,Oboe 1,1.0,0.3,78,0.4961
883.125,883.125,376.8071,231,1.0,Violoncello,1.0,0.3,55,0.4961
883.125,883.125,376.8071,231,1.0,Bassoon 1,1.0,0.3,66,0.4961
883.625,883.625,376.9571,231,1.5,Violin 2,0.5,0.15,59,0.6378
883.625,883.625,376.9571,231,1.5,Viola,0.5,0.15,55,0.6378
883.625,883.625,376.9571,231,1.5,Violin 1,0.5,0.15,64,0.6378
884.125,884.125,377.1071,231,2.0,Violin 1,0.5,0.15,64,0.6378
884.125,884.125,377.1071,231,2.0,Bassoon 1,2.0,0.6,64,0.4961
884.125,884.125,377.1071,231,2.0,Oboe 1,2.0,0.6,76,0.4961
884.125,884.125,377.1071,231,2.0,Viola,0.5,0.15,55,0.6378
884.125,884.125,377.1071,231,2.0,Violin 2,0.5,0.15,59,0.6378
884.625,884.625,377.2571,231,2.5,Viola,0.5,0.15,55,0.6378
884.625,884.625,377.2571,231,2.5,Violin 1,0.5,0.15,64,0.6378
884.625,884.625,377.2571,231,2.5,Violin 2,0.5,0.15,59,0.6378
885.125,885.125,377.4071,231,3.0,Contrabass,1.0,0.3,42,0.6378
885.125,885.125,377.4071,231,3.0,Violoncello,1.0,0.3,54,0.6378
885.625,885.625,377.5571,231,3.5,Viola,0.5,0.15,57,0.7087
885.625,885.625,377.5571,231,3.5,Violin 1,0.5,0.15,63,0.6378
885.625,885.625,377.5571,231,3.5,Violin 2,0.5,0.15,60,0.7795
885.625,885.625,377.5571,231,3.5,Viola,0.5,0.15,54,0.7087
886.125,886.125,377.7071,231,4.0,Violin 1,0.5,0.15,63,0.6378
886.125,886.125,377.7071,231,4.0,Viola,0.5,0.15,54,0.7087
886.125,886.125,377.7071,231,4.0,Viola,0.5,0.15,57,0.7087
886.125,886.125,377.7071,231,4.0,Violin 2,0.5,0.15,60,0.7795
886.125,886.125,377.7071,231,4.0,Oboe 1,1.0,0.3,75,0.4961
886.125,886.125,377.7071,231,4.0,Bassoon 1,1.0,0.3,63,0.4961
886.625,886.625,377.8571,231,4.5,Violin 1,0.5,0.15,63,0.6378
886.625,886.625,377.8571,231,4.5,Violin 2,0.5,0.15,60,0.7795
886.625,886.625,377.8571,231,4.5,Viola,0.5,0.15,57,0.7087
886.625,886.625,377.8571,231,4.5,Viola,0.5,0.15,54,0.7087
887.125,887.125,378.0071,232,1.0,Viola,0.5,0.15,55,0.7795
887.125,887.125,378.0071,232,1.0,Bassoon 1,1.0,0.3,63,0.4961
887.125,887.125,378.0071,232,1.0,Violin 2,0.5,0.15,59,0.8295
887.125,887.125,378.0071,232,1.0,Oboe 1,1.0,0.3,75,0.4961
887.125,887.125,378.0071,232,1.0,Violoncello,1.0,0.3,55,0.6378
887.125,887.125,378.0071,232,1.0,Contrabass,1.0,0.3,43,0.6378
887.125,887.125,378.0071,232,1.0,Violin 1,1.0,0.3,64,0.7795
887.625,887.625,378.1571,232,1.5,Viola,0.5,0.15,59,0.7795
887.625,887.625,378.1571,232,1.5,Violin 2,0.5,0.15,71,0.7795
888.125,888.125,378.3071,232,2.0,Viola,0.5,0.15,55,0.7795
888.125,888.125,378.3071,232,2.0,Violin 2,0.5,0.15,67,0.7795
888.125,888.125,378.3071,232,2.0,Oboe 1,1.0,0.3,76,0.4961
888.125,888.125,378.3071,232,2.0,Violoncello,1.0,0.3,52,0.7795
888.125,888.125,378.3071,232,2.0,Contrabass,1.0,0.3,40,0.7795
888.125,888.125,378.3071,232,2.0,Violin 1,1.0,0.3,76,0.7795
888.125,888.125,378.3071,232,2.0,Bassoon 1,1.0,0.3,64,0.4961
888.625,888.625,378.4571,232,2.5,Viola,0.5,0.15,59,0.7795
888.625,888.625,378.4571,232,2.5,Violin 2,0.5,0.15,71,0.7795
889.125,889.125,378.6071,232,3.0,Bassoon 1,1.0,0.3,67,0.4961
889.125,889.125,378.6071,232,3.0,Violin 1,1.0,0.3,79,0.7795
889.125,889.125,378.6071,232,3.0,Violin 2,0.5,0.15,64,0.7795
889.125,889.125,378.6071,232,3.0,Contrabass,1.0,0.3,45,0.7795
889.125,889.125,378.6071,232,3.0,Violoncello,1.0,0.3,57,0.7795
889.125,889.125,378.6071,232,3.0,Oboe 1,1.0,0.3,79,0.4961
889.125,889.125,378.6071,232,3.0,Viola,0.5,0.15,52,0.7795
889.625,889.625,378.7571,232,3.5,Viola,0.5,0.15,55,0.7795
889.625,889.625,378.7571,232,3.5,Violin 2,0.5,0.15,67,0.7795
890.125,890.125,378.9071,232,4.0,Violin 2,0.5,0.15,64,0.7795
890.125,890.125,378.9071,232,4.0,Bassoon 1,1.0,0.3,61,0.4961
890.125,890.125,378.9071,232,4.0,Contrabass,1.0,0.3,33,0.7795
890.125,890.125,378.9071,232,4.0,Violin 1,1.0,0.3,73,0.7795
890.125,890.125,378.9071,232,4.0,Oboe 1,1.0,0.3,73,0.4961
890.125,890.125,378.9071,232,4.0,Viola,0.5,0.15,52,0.7795
890.125,890.125,378.9071,232,4.0,Violoncello,1.0,0.3,45,0.7795
890.625,890.625,379.0571,232,4.5,Viola,0.5,0.15,55,0.7795
890.625,890.625,379.0571,232,4.5,Violin 2,0.5,0.15,67,0.7795
891.125,891.125,379.2071,233,1.0,Violoncello,1.0,0.3,50,0.5461
891.125,891.125,379.2071,233,1.0,Viola,1.0,0.3,54,0.4961
891.125,891.125,379.2071,233,1.0,Contrabass,1.0,0.3,38,0.5461
891.125,891.125,379.2071,233,1.0,Bassoon 1,1.0,0.3,62,0.5461
891.125,891.125,379.2071,233,1.0,Violin 1,0.5,0.15,78,0.4961
891.125,891.125,379.2071,233,1.0,Oboe 1,1.0,0.3,74,0.5461
891.125,891.125,379.2071,233,1.0,Violin 2,0.5,0.15,66,0.4961
891.625,891.625,379.3571,233,1.5,Violin 1,0.5,0.15,74,0.4961
891.625,891.625,379.3571,233,1.5,Violin 2,0.5,0.15,62,0.4961
892.125,892.125,379.5071,233,2.0,D Horn 1,1.0,0.3,62,0.4961
892.125,892.125,379.5071,233,2.0,Violin 2,0.5,0.15,61,0.4961
892.125,892.125,379.5071,233,2.0,Violin 1,0.5,0.15,73,0.4961
892.125,892.125,379.5071,233,2.0,Flute 1,1.0,0.3,86,0.4961
892.125,892.125,379.5071,233,2.0,Contrabass,2.0,0.6,50,0.4961
892.125,892.125,379.5071,233,2.0,Oboe 1,1.0,0.3,74,0.4961
892.125,892.125,379.5071,233,2.0,Violoncello,2.0,0.6,62,0.4961
892.125,892.125,379.5071,233,2.0,D Horn 2,1.0,0.3,50,0.4961
892.625,892.625,379.6571,233,2.5,Violin 2,0.5,0.15,62,0.4961
892.625,892.625,379.6571,233,2.5,Violin 1,0.5,0.15,74,0.4961
893.125,893.125,379.8071,233,3.0,D Horn 1,1.0,0.3,66,0.4961
893.125,893.125,379.8071,233,3.0,D Horn 2,1.0,0.3,54,0.4961
893.125,893.125,379.8071,233,3.0,Violin 1,0.5,0.15,73,0.4961
893.125,893.125,379.8071,233,3.0,Violin 2,0.5,0.15,61,0.6378
893.125,893.125,379.8071,233,3.0,Flute 1,1.0,0.3,90,0.4961
893.125,893.125,379.8071,233,3.0,Oboe 1,1.0,0.3,78,0.4961
893.625,893.625,379.9571,233,3.5,Violin 1,0.5,0.15,74,0.6378
893.625,893.625,379.9571,233,3.5,Violin 2,0.5,0.15,62,0.6378
894.125,894.125,380.1071,233,4.0,Contrabass,1.0,0.3,48,0.4961
894.125,894.125,380.1071,233,4.0,Flute 1,1.0,0.3,93,0.4961
894.125,894.125,380.1071,233,4.0,Oboe 1,1.0,0.3,81,0.4961
894.125,894.125,380.1071,233,4.0,Violin 1,0.5,0.15,78,0.6378
894.125,894.125,380.1071,233,4.0,Violin 2,0.5,0.15,66,0.6378
894.125,894.125,380.1071,233,4.0,Violoncello,1.0,0.3,60,0.4961
894.125,894.125,380.1071,233,4.0,D Horn 1,1.0,0.3,69,0.4961
894.125,894.125,380.1071,233,4.0,D Horn 2,1.0,0.3,57,0.4961
894.625,894.625,380.2571,233,4.5,Violin 2,0.5,0.15,69,0.6378
894.625,894.625,380.2571,233,4.5,Violin 1,0.5,0.15,81,0.6378
895.125,895.125,380.4071,234,1.0,Flute 1,1.0,0.3,93,0.4961
895.125,895.125,380.4071,234,1.0,Violin 2,0.5,0.15,69,0.6378
895.125,895.125,380.4071,234,1.0,Violin 1,0.5,0.15,81,0.6378
895.125,895.125,380.4071,234,1.0,D Horn 2,4.0,1.2,50,0.4961
895.125,895.125,380.4071,234,1.0,Bassoon 2,2.0,0.6,62,0.4961
895.125,895.125,380.4071,234,1.0,Contrabass,2.0,0.6,47,0.4961
895.125,895.125,380.4071,234,1.0,Oboe 1,1.0,0.3,81,0.4961
895.125,895.125,380.4071,234,1.0,Violoncello,2.0,0.6,59,0.4961
895.125,895.125,380.4071,234,1.0,D Horn 1,4.0,1.2,62,0.4961
895.625,895.625,380.5571,234,1.5,Violin 2,0.5,0.15,67,0.6378
895.625,895.625,380.5571,234,1.5,Violin 1,0.5,0.15,79,0.6378
895.625,895.625,380.5571,234,1.5,Viola,0.5,0.15,62,0.7087
895.625,895.625,380.5571,234,1.5,Viola,0.5,0.15,59,0.7087
896.125,896.125,380.7071,234,2.0,Bassoon 1,2.0,0.6,67,0.4961
896.125,896.125,380.7071,234,2.0,Violin 1,0.5,0.15,79,0.8295
896.125,896.125,380.7071,234,2.0,Flute 1,2.0,0.6,91,0.4961
896.125,896.125,380.7071,234,2.0,Oboe 1,2.0,0.6,79,0.4961
896.125,896.125,380.7071,234,2.0,Viola,0.5,0.15,59,0.7087
896.125,896.125,380.7071,234,2.0,Violin 2,0.5,0.15,67,0.6878
896.125,896.125,380.7071,234,2.0,Viola,0.5,0.15,62,0.7087
896.625,896.625,380.8571,234,2.5,Viola,0.5,0.15,62,0.7087
896.625,896.625,380.8571,234,2.5,Viola,0.5,0.15,59,0.7087
896.625,896.625,380.8571,234,2.5,Violin 1,0.5,0.15,79,0.8295
896.625,896.625,380.8571,234,2.5,Violin 2,0.5,0.15,67,0.6878
897.125,897.125,381.0071,234,3.0,Violoncello,2.0,0.6,57,0.4961
897.125,897.125,381.0071,234,3.0,Violin 2,0.5,0.15,67,0.7795
897.125,897.125,381.0071,234,3.0,Contrabass,2.0,0.6,45,0.4961
897.125,897.125,381.0071,234,3.0,Bassoon 2,2.0,0.6,60,0.4961
897.125,897.125,381.0071,234,3.0,Violin 1,0.5,0.15,79,0.7795
897.625,897.625,381.1571,234,3.5,Violin 1,0.5,0.15,78,0.7795
897.625,897.625,381.1571,234,3.5,Violin 2,0.5,0.15,66,0.7795
897.625,897.625,381.1571,234,3.5,Viola,0.5,0.15,60,0.7087
897.625,897.625,381.1571,234,3.5,Viola,0.5,0.15,57,0.7087
898.125,898.125,381.3071,234,4.0,Bassoon 1,1.0,0.3,66,0.4961
898.125,898.125,381.3071,234,4.0,Viola,0.5,0.15,60,0.7087
898.125,898.125,381.3071,234,4.0,Viola,0.5,0.15,57,0.7087
898.125,898.125,381.3071,234,4.0,Violin 1,0.5,0.15,78,0.8295
898.125,898.125,381.3071,234,4.0,Oboe 1,1.0,0.3,78,0.4961
898.125,898.125,381.3071,234,4.0,Violin 2,0.5,0.15,66,0.8295
898.125,898.125,381.3071,234,4.0,Flute 1,1.0,0.3,90,0.4961
898.625,898.625,381.4571,234,4.5,Violin 1,0.5,0.15,78,0.8295
898.625,898.625,381.4571,234,4.5,Viola,0.5,0.15,60,0.7087
898.625,898.625,381.4571,234,4.5,Viola,0.5,0.15,57,0.7087
898.625,898.625,381.4571,234,4.5,Violin 2,0.5,0.15,66,0.8295
899.125,899.125,381.6071,235,1.0,Contrabass,2.0,0.6,43,0.4961
899.125,899.125,381.6071,235,1.0,Flute 1,1.0,0.3,90,0.4961
899.125,899.125,381.6071,235,1.0,Violoncello,2.0,0.6,55,0.4961
899.125,899.125,381.6071,235,1.0,Violin 2,0.5,0.15,66,0.7795
899.125,899.125,381.6071,235,1.0,Bassoon 1,1.0,0.3,66,0.4961
899.125,899.125,381.6071,235,1.0,Bassoon 2,2.0,0.6,59,0.4961
899.125,899.125,381.6071,235,1.0,Violin 1,0.5,0.15,78,0.7795
899.125,899.125,381.6071,235,1.0,Oboe 1,1.0,0.3,78,0.4961
899.625,899.625,381.7571,235,1.5,Violin 1,0.5,0.15,76,0.7795
899.625,899.625,381.7571,235,1.5,Violin 2,0.5,0.15,64,0.7795
899.625,899.625,381.7571,235,1.5,Viola,0.5,0.15,59,0.7087
899.625,899.625,381.7571,235,1.5,Viola,0.5,0.15,55,0.7087
900.125,900.125,381.9071,235,2.0,Bassoon 1,2.0,0.6,64,0.4961
900.125,900.125,381.9071,235,2.0,Viola,0.5,0.15,59,0.7087
900.125,900.125,381.9071,235,2.0,Viola,0.5,0.15,55,0.7087
900.125,900.125,381.9071,235,2.0,Violin 2,0.5,0.15,64,0.8295
900.125,900.125,381.9071,235,2.0,Violin 1,0.5,0.15,76,0.8295
900.125,900.125,381.9071,235,2.0,Oboe 1,2.0,0.6,76,0.4961
900.125,900.125,381.9071,235,2.0,Flute 1,2.0,0.6,88,0.4961
900.625,900.625,382.0571,235,2.5,Viola,0.5,0.15,55,0.7087
900.625,900.625,382.0571,235,2.5,Violin 2,0.5,0.15,64,0.8295
900.625,900.625,382.0571,235,2.5,Violin 1,0.5,0.15,76,1.0
900.625,900.625,382.0571,235,2.5,Viola,0.5,0.15,59,0.7087
901.125,901.125,382.2071,235,3.0,Bassoon 2,2.0,0.6,57,0.4961
901.125,901.125,382.2071,235,3.0,Violoncello,2.0,0.6,54,0.4961
901.125,901.125,382.2071,235,3.0,Violin 2,0.5,0.15,64,0.7795
901.125,901.125,382.2071,235,3.0,Contrabass,2.0,0.6,42,0.4961
901.125,901.125,382.2071,235,3.0,Violin 1,0.5,0.15,76,0.9921
901.625,901.625,382.3571,235,3.5,Viola,0.5,0.15,57,0.7087
901.625,901.625,382.3571,235,3.5,Viola,0.5,0.15,60,0.7087
901.625,901.625,382.3571,235,3.5,Violin 1,0.5,0.15,75,0.9921
901.625,901.625,382.3571,235,3.5,Violin 2,0.5,0.15,63,0.7795
902.125,902.125,382.5071,235,4.0,Oboe 1,1.0,0.3,75,0.4961
902.125,902.125,382.5071,235,4.0,Violin 1,0.5,0.15,75,1.0
902.125,902.125,382.5071,235,4.0,Bassoon 1,1.0,0.3,63,0.4961
902.125,902.125,382.5071,235,4.0,Flute 1,1.0,0.3,87,0.4961
902.125,902.125,382.5071,235,4.0,Viola,0.5,0.15,57,0.7087
902.125,902.125,382.5071,235,4.0,Violin 2,0.5,0.15,63,0.8295
902.125,902.125,382.5071,235,4.0,Viola,0.5,0.15,60,0.7087
902.625,902.625,382.6571,235,4.5,Viola,0.5,0.15,60,0.7087
902.625,902.625,382.6571,235,4.5,Violin 1,0.5,0.15,75,1.0
902.625,902.625,382.6571,235,4.5,Violin 2,0.5,0.15,63,0.8295
902.625,902.625,382.6571,235,4.5,Viola,0.5,0.15,57,0.7087
903.125,903.125,382.8071,236,1.0,Violoncello,2.0,0.6,55,0.4961
903.125,903.125,382.8071,236,1.0,Bassoon 2,2.0,0.6,59,0.4961
903.125,903.125,382.8071,236,1.0,Contrabass,2.0,0.6,43,0.4961
903.125,903.125,382.8071,236,1.0,Oboe 1,1.0,0.3,75,0.4961
903.125,903.125,382.8071,236,1.0,Bassoon 1,1.0,0.3,63,0.4961
903.125,903.125,382.8071,236,1.0,Violin 2,0.5,0.15,63,0.7795
903.125,903.125,382.8071,236,1.0,Flute 1,1.0,0.3,87,0.4961
903.125,903.125,382.8071,236,1.0,Violin 1,0.5,0.15,75,0.9921
903.625,903.625,382.9571,236,1.5,Violin 2,0.5,0.15,64,0.7795
903.625,903.625,382.9571,236,1.5,Viola,0.5,0.15,52,0.7087
903.625,903.625,382.9571,236,1.5,Violin 1,0.5,0.15,76,0.9921
903.625,903.625,382.9571,236,1.5,Viola,0.5,0.15,55,0.7087
904.125,904.125,383.1071,236,2.0,Violin 2,0.5,0.15,64,0.8295
904.125,904.125,383.1071,236,2.0,Violin 1,0.5,0.15,76,1.0
904.125,904.125,383.1071,236,2.0,Viola,0.5,0.15,52,0.7087
904.125,904.125,383.1071,236,2.0,Bassoon 1,2.0,0.6,64,0.4961
904.125,904.125,383.1071,236,2.0,Viola,0.5,0.15,55,0.7087
904.125,904.125,383.1071,236,2.0,Flute 1,2.0,0.6,88,0.4961
904.125,904.125,383.1071,236,2.0,Oboe 1,2.0,0.6,76,0.4961
904.625,904.625,383.2571,236,2.5,Violin 1,0.5,0.15,76,1.0
904.625,904.625,383.2571,236,2.5,Viola,0.5,0.15,52,0.7087
904.625,904.625,383.2571,236,2.5,Viola,0.5,0.15,55,0.7087
904.625,904.625,383.2571,236,2.5,Violin 2,0.5,0.15,64,0.8295
905.125,905.125,383.4071,236,3.0,Violin 1,0.5,0.15,76,0.9921
905.125,905.125,383.4071,236,3.0,Bassoon 2,2.0,0.6,59,0.4961
905.125,905.125,383.4071,236,3.0,Contrabass,2.0,0.6,44,0.4961
905.125,905.125,383.4071,236,3.0,Violoncello,2.0,0.6,56,0.4961
905.125,905.125,383.4071,236,3.0,Violin 2,0.5,0.15,64,0.7795
905.625,905.625,383.5571,236,3.5,Violin 1,0.5,0.15,74,0.9921
905.625,905.625,383.5571,236,3.5,Viola,0.5,0.15,59,0.7087
905.625,905.625,383.5571,236,3.5,Viola,0.5,0.15,64,0.7087
905.625,905.625,383.5571,236,3.5,Violin 2,0.5,0.15,62,0.7795
906.125,906.125,383.7071,236,4.0,Viola,0.5,0.15,64,0.7087
906.125,906.125,383.7071,236,4.0,Flute 1,1.0,0.3,86,0.4961
906.125,906.125,383.7071,236,4.0,Violin 1,0.5,0.15,74,1.0
906.125,906.125,383.7071,236,4.0,Violin 2,0.5,0.15,62,0.8295
906.125,906.125,383.7071,236,4.0,Viola,0.5,0.15,59,0.7087
906.125,906.125,383.7071,236,4.0,Bassoon 1,1.0,0.3,62,0.4961
906.125,906.125,383.7071,236,4.0,Oboe 1,1.0,0.3,74,0.4961
906.625,906.625,383.8571,236,4.5,Violin 1,0.5,0.15,74,1.0
906.625,906.625,383.8571,236,4.5,Viola,0.5,0.15,64,0.7087
906.625,906.625,383.8571,236,4.5,Viola,0.5,0.15,59,0.7087
906.625,906.625,383.8571,236,4.5,Violin 2,0.5,0.15,62,0.8295
907.125,907.125,384.0071,237,1.0,Contrabass,0.5,0.15,45,0.9921
907.125,907.125,384.0071,237,1.0,Bassoon 1,1.0,0.3,61,0.9921
907.125,907.125,384.0071,237,1.0,Oboe 1,1.0,0.3,73,0.9921
907.125,907.125,384.0071,237,1.0,Flute 1,1.0,0.3,85,0.9921
907.125,907.125,384.0071,237,1.0,Bassoon 2,1.0,0.3,57,0.9921
907.125,907.125,384.0071,237,1.0,Timpani,1.0,0.3,45,0.9921
907.125,907.125,384.0071,237,1.0,Violin 1,1.0,0.3,73,0.9921
907.125,907.125,384.0071,237,1.0,Viola,0.5,0.15,57,0.7087
907.125,907.125,384.0071,237,1.0,Violin 2,1.0,0.3,61,0.9921
907.125,907.125,384.0071,237,1.0,Violoncello,0.5,0.15,57,0.9921
907.125,907.125,384.0071,237,1.0,Viola,0.5,0.15,64,0.7087
907.625,907.625,384.1571,237,1.5,Contrabass,0.5,0.15,33,0.9921
907.625,907.625,384.1571,237,1.5,Violoncello,0.5,0.15,45,0.9921
907.625,907.625,384.1571,237,1.5,Viola,0.5,0.15,57,0.9921
908.125,908.125,384.3071,237,2.0,Violin 2,1.5,0.45,69,0.7087
908.125,908.125,384.3071,237,2.0,Violin 2,1.5,0.45,57,0.7087
908.125,908.125,384.3071,237,2.0,Violin 1,1.5,0.45,81,0.7087
908.125,908.125,384.3071,237,2.0,Violin 1,1.5,0.45,69,0.7087
908.125,908.125,384.3071,237,2.0,Violoncello,0.5,0.15,49,0.9921
908.125,908.125,384.3071,237,2.0,Viola,0.5,0.15,61,0.9921
908.125,908.125,384.3071,237,2.0,D Horn 2,3.0,0.9,57,0.9921
908.125,908.125,384.3071,237,2.0,Contrabass,0.5,0.15,37,0.9921
908.125,908.125,384.3071,237,2.0,D Horn 1,3.0,0.9,69,0.9921
908.625,908.625,384.4571,237,2.5,Contrabass,0.5,0.15,33,0.9921
908.625,908.625,384.4571,237,2.5,Violoncello,0.5,0.15,45,0.9921
908.625,908.625,384.4571,237,2.5,Viola,0.5,0.15,57,0.9921
909.125,909.125,384.6071,237,3.0,Viola,0.5,0.15,61,0.9921
909.125,909.125,384.6071,237,3.0,Contrabass,0.5,0.15,37,0.9921
909.125,909.125,384.6071,237,3.0,Violoncello,0.5,0.15,49,0.9921
909.625,909.625,384.7571,237,3.5,Violin 2,0.5,0.15,71,1.0
909.625,909.625,384.7571,237,3.5,Violoncello,0.5,0.15,45,0.9921
909.625,909.625,384.7571,237,3.5,Violin 1,0.5,0.15,83,1.0
909.625,909.625,384.7571,237,3.5,Contrabass,0.5,0.15,33,0.9921
909.625,909.625,384.7571,237,3.5,Viola,0.5,0.15,57,0.9921
910.125,910.125,384.9071,237,4.0,Violin 1,0.5,0.15,81,1.0
910.125,910.125,384.9071,237,4.0,Contrabass,0.5,0.15,37,0.9921
910.125,910.125,384.9071,237,4.0,Violoncello,0.5,0.15,49,0.9921
910.125,910.125,384.9071,237,4.0,Violin 2,0.5,0.15,69,1.0
910.125,910.125,384.9071,237,4.0,Viola,0.5,0.15,61,0.9921
910.625,910.625,385.0571,237,4.5,Viola,0.5,0.15,57,0.9921
910.625,910.625,385.0571,237,4.5,Contrabass,0.5,0.15,33,0.9921
910.625,910.625,385.0571,237,4.5,Violin 2,0.5,0.15,67,1.0
910.625,910.625,385.0571,237,4.5,Violoncello,0.5,0.15,45,0.9921
910.625,910.625,385.0571,237,4.5,Violin 1,0.5,0.15,79,1.0
911.125,911.125,385.2071,238,1.0,D Horn 2,4.0,1.2,57,0.9921
911.125,911.125,385.2071,238,1.0,Timpani,1.0,0.3,45,0.9921
911.125,911.125,385.2071,238,1.0,Viola,0.5,0.15,62,0.9921
911.125,911.125,385.2071,238,1.0,Violoncello,0.5,0.15,50,0.9921
911.125,911.125,385.2071,238,1.0,Contrabass,0.5,0.15,38,0.9921
911.125,911.125,385.2071,238,1.0,D Horn 1,4.0,1.2,69,0.9921
911.125,911.125,385.2071,238,1.0,Violin 1,0.5,0.15,78,1.0
911.125,911.125,385.2071,238,1.0,Violin 2,0.5,0.15,66,1.0
911.625,911.625,385.3571,238,1.5,Violin 1,0.5,0.15,76,1.0
911.625,911.625,385.3571,238,1.5,Violoncello,0.5,0.15,45,0.9921
911.625,911.625,385.3571,238,1.5,Viola,0.5,0.15,57,0.9921
911.625,911.625,385.3571,238,1.5,Contrabass,0.5,0.15,33,0.9921
911.625,911.625,385.3571,238,1.5,Violin 2,0.5,0.15,64,1.0
912.125,912.125,385.5071,238,2.0,Contrabass,0.5,0.15,38,0.9921
912.125,912.125,385.5071,238,2.0,Violoncello,0.5,0.15,50,0.9921
912.125,912.125,385.5071,238,2.0,Viola,0.5,0.15,62,0.9921
912.125,912.125,385.5071,238,2.0,Violin 2,0.5,0.15,62,1.0
912.125,912.125,385.5071,238,2.0,Violin 1,0.5,0.15,74,1.0
912.625,912.625,385.6571,238,2.5,Violin 1,0.5,0.15,73,1.0
912.625,912.625,385.6571,238,2.5,Violin 2,0.5,0.15,61,1.0
912.625,912.625,385.6571,238,2.5,Viola,0.5,0.15,57,0.9921
912.625,912.625,385.6571,238,2.5,Violoncello,0.5,0.15,45,0.9921
912.625,912.625,385.6571,238,2.5,Contrabass,0.5,0.15,33,0.9921
913.125,913.125,385.8071,238,3.0,Violin 1,0.5,0.15,74,1.0
913.125,913.125,385.8071,238,3.0,Contrabass,0.5,0.15,42,0.9921
913.125,913.125,385.8071,238,3.0,Viola,0.5,0.15,66,0.9921
913.125,913.125,385.8071,238,3.0,Violin 2,0.5,0.15,62,1.0
913.125,913.125,385.8071,238,3.0,Violoncello,0.5,0.15,54,0.9921
913.625,913.625,385.9571,238,3.5,Violoncello,0.5,0.15,45,0.9921
913.625,913.625,385.9571,238,3.5,Violin 2,0.5,0.15,66,1.0
913.625,913.625,385.9571,238,3.5,Contrabass,0.5,0.15,33,0.9921
913.625,913.625,385.9571,238,3.5,Viola,0.5,0.15,57,0.9921
913.625,913.625,385.9571,238,3.5,Violin 1,0.5,0.15,78,1.0
914.125,914.125,386.1071,238,4.0,Violin 1,0.5,0.15,76,1.0
914.125,914.125,386.1071,238,4.0,Viola,0.5,0.15,66,0.9921
914.125,914.125,386.1071,238,4.0,Violin 2,0.5,0.15,64,1.0
914.125,914.125,386.1071,238,4.0,Violoncello,0.5,0.15,54,0.9921
914.125,914.125,386.1071,238,4.0,Contrabass,0.5,0.15,42,0.9921
914.625,914.625,386.2571,238,4.5,Contrabass,0.5,0.15,33,0.9921
914.625,914.625,386.2571,238,4.5,Viola,0.5,0.15,57,0.9921
914.625,914.625,386.2571,238,4.5,Violin 1,0.5,0.15,74,1.0
914.625,914.625,386.2571,238,4.5,Violin 2,0.5,0.15,62,1.0
914.625,914.625,386.2571,238,4.5,Violoncello,0.5,0.15,45,0.9921
915.125,915.125,386.4071,239,1.0,D Trumpet 1,4.0,1.2,69,0.9921
915.125,915.125,386.4071,239,1.0,Contrabass,0.5,0.15,40,0.9921
915.125,915.125,386.4071,239,1.0,Violoncello,0.5,0.15,52,0.9921
915.125,915.125,386.4071,239,1.0,Violin 2,0.5,0.15,61,1.0
915.125,915.125,386.4071,239,1.0,D Horn 1,1.0,0.3,69,0.9921
915.125,915.125,386.4071,239,1.0,D Trumpet 2,4.0,1.2,69,0.9921
915.125,915.125,386.4071,239,1.0,Viola,0.5,0.15,64,0.9921
915.125,915.125,386.4071,239,1.0,D Horn 2,1.0,0.3,57,0.9921
915.125,915.125,386.4071,239,1.0,Timpani,1.0,0.3,45,0.9921
915.125,915.125,386.4071,239,1.0,Violin 1,0.5,0.15,73,1.0
915.625,915.625,386.5571,239,1.5,Violin 2,0.5,0.15,57,1.0
915.625,915.625,386.5571,239,1.5,Violoncello,0.5,0.15,45,0.9921
915.625,915.625,386.5571,239,1.5,Violin 1,0.5,0.15,69,1.0
915.625,915.625,386.5571,239,1.5,Contrabass,0.5,0.15,33,0.9921
915.625,915.625,386.5571,239,1.5,Viola,0.5,0.15,57,0.9921
916.125,916.125,386.7071,239,2.0,Violin 2,0.5,0.15,56,1.0
916.125,916.125,386.7071,239,2.0,D Horn 2,2.0,0.6,57,0.9921
916.125,916.125,386.7071,239,2.0,Oboe 1,2.0,0.6,69,0.9921
916.125,916.125,386.7071,239,2.0,Contrabass,0.5,0.15,40,0.9921
916.125,916.125,386.7071,239,2.0,Violin 1,0.5,0.15,68,1.0
916.125,916.125,386.7071,239,2.0,D Horn 1,2.0,0.6,69,0.9921
916.125,916.125,386.7071,239,2.0,Viola,0.5,0.15,64,0.9921
916.125,916.125,386.7071,239,2.0,Flute 1,2.0,0.6,81,0.9921
916.125,916.125,386.7071,239,2.0,Violoncello,0.5,0.15,52,0.9921
916.625,916.625,386.8571,239,2.5,Contrabass,0.5,0.15,33,0.9921
916.625,916.625,386.8571,239,2.5,Violoncello,0.5,0.15,45,0.9921
916.625,916.625,386.8571,239,2.5,Violin 2,0.5,0.15,57,1.0
916.625,916.625,386.8571,239,2.5,Violin 1,0.5,0.15,69,1.0
916.625,916.625,386.8571,239,2.5,Viola,0.5,0.15,57,0.9921
917.125,917.125,387.0071,239,3.0,Violoncello,0.5,0.15,55,0.9921
917.125,917.125,387.0071,239,3.0,Violin 2,0.5,0.15,58,1.0
917.125,917.125,387.0071,239,3.0,Violin 1,0.5,0.15,70,1.0
917.125,917.125,387.0071,239,3.0,Contrabass,0.5,0.15,43,0.9921
917.125,917.125,387.0071,239,3.0,Viola,0.5,0.15,67,0.9921
917.625,917.625,387.1571,239,3.5,Contrabass,0.5,0.15,33,0.9921
917.625,917.625,387.1571,239,3.5,Violoncello,0.5,0.15,45,0.9921
917.625,917.625,387.1571,239,3.5,Viola,0.5,0.15,57,0.9921
917.625,917.625,387.1571,239,3.5,Violin 1,0.5,0.15,71,1.0
917.625,917.625,387.1571,239,3.5,Violin 2,0.5,0.15,59,1.0
918.125,918.125,387.3071,239,4.0,Violoncello,0.5,0.15,55,0.9921
918.125,918.125,387.3071,239,4.0,Violin 1,0.5,0.15,72,1.0
918.125,918.125,387.3071,239,4.0,D Horn 1,1.0,0.3,69,0.9921
918.125,918.125,387.3071,239,4.0,D Horn 2,1.0,0.3,57,0.9921
918.125,918.125,387.3071,239,4.0,Oboe 1,1.0,0.3,69,0.9921
918.125,918.125,387.3071,239,4.0,Flute 1,1.0,0.3,81,0.9921
918.125,918.125,387.3071,239,4.0,Contrabass,0.5,0.15,43,0.9921
918.125,918.125,387.3071,239,4.0,Violin 2,0.5,0.15,60,1.0
918.125,918.125,387.3071,239,4.0,Viola,0.5,0.15,67,0.9921
918.625,918.625,387.4571,239,4.5,Contrabass,0.5,0.15,33,0.9921
918.625,918.625,387.4571,239,4.5,Violin 1,0.5,0.15,73,1.0
918.625,918.625,387.4571,239,4.5,Violoncello,0.5,0.15,45,0.9921
918.625,918.625,387.4571,239,4.5,Viola,0.5,0.15,57,0.9921
918.625,918.625,387.4571,239,4.5,Violin 2,0.5,0.15,61,1.0
919.125,919.125,387.6071,240,1.0,D Horn 2,1.0,0.3,57,0.9921
919.125,919.125,387.6071,240,1.0,Violoncello,0.5,0.15,54,0.9921
919.125,919.125,387.6071,240,1.0,Violin 2,0.5,0.15,62,1.0
919.125,919.125,387.6071,240,1.0,Viola,0.5,0.15,66,0.9921
919.125,919.125,387.6071,240,1.0,D Trumpet 1,3.0,0.9,69,0.9921
919.125,919.125,387.6071,240,1.0,D Trumpet 2,3.0,0.9,69,0.9921
919.125,919.125,387.6071,240,1.0,Oboe 1,1.0,0.3,69,0.9921
919.125,919.125,387.6071,240,1.0,Flute 1,1.0,0.3,81,0.9921
919.125,919.125,387.6071,240,1.0,Violin 1,0.5,0.15,74,1.0
919.125,919.125,387.6071,240,1.0,Contrabass,0.5,0.15,42,0.9921
919.125,919.125,387.6071,240,1.0,D Horn 1,1.0,0.3,69,0.9921
919.625,919.625,387.7571,240,1.5,Violoncello,0.5,0.15,45,0.9921
919.625,919.625,387.7571,240,1.5,Contrabass,0.5,0.15,33,0.9921
919.625,919.625,387.7571,240,1.5,Violin 1,0.5,0.15,73,1.0
919.625,919.625,387.7571,240,1.5,Viola,0.5,0.15,57,0.9921
919.625,919.625,387.7571,240,1.5,Violin 2,0.5,0.15,61,1.0
920.125,920.125,387.9071,240,2.0,Contrabass,0.5,0.15,42,0.9921
920.125,920.125,387.9071,240,2.0,D Horn 1,2.0,0.6,69,0.9921
920.125,920.125,387.9071,240,2.0,Violin 1,0.5,0.15,74,1.0
920.125,920.125,387.9071,240,2.0,Violoncello,0.5,0.15,54,0.9921
920.125,920.125,387.9071,240,2.0,Oboe 1,2.0,0.6,69,0.9921
920.125,920.125,387.9071,240,2.0,Flute 1,2.0,0.6,81,0.9921
920.125,920.125,387.9071,240,2.0,D Horn 2,2.0,0.6,57,0.9921
920.125,920.125,387.9071,240,2.0,Violin 2,0.5,0.15,62,1.0
920.125,920.125,387.9071,240,2.0,Viola,0.5,0.15,66,0.9921
920.625,920.625,388.0571,240,2.5,Violoncello,0.5,0.15,45,0.9921
920.625,920.625,388.0571,240,2.5,Viola,0.5,0.15,57,0.9921
920.625,920.625,388.0571,240,2.5,Violin 2,0.5,0.15,64,1.0
920.625,920.625,388.0571,240,2.5,Contrabass,0.5,0.15,33,0.9921
920.625,920.625,388.0571,240,2.5,Violin 1,0.5,0.15,76,1.0
921.125,921.125,388.2071,240,3.0,Viola,0.5,0.15,62,0.9921
921.125,921.125,388.2071,240,3.0,Contrabass,0.5,0.15,38,0.9921
921.125,921.125,388.2071,240,3.0,Violin 1,0.5,0.15,77,1.0
921.125,921.125,388.2071,240,3.0,Violoncello,0.5,0.15,50,0.9921
921.125,921.125,388.2071,240,3.0,Violin 2,0.5,0.15,65,1.0
921.625,921.625,388.3571,240,3.5,Viola,0.5,0.15,57,0.9921
921.625,921.625,388.3571,240,3.5,Violin 1,0.5,0.15,78,1.0
921.625,921.625,388.3571,240,3.5,Violin 2,0.5,0.15,66,1.0
921.625,921.625,388.3571,240,3.5,Violoncello,0.5,0.15,45,0.9921
921.625,921.625,388.3571,240,3.5,Contrabass,0.5,0.15,33,0.9921
922.125,922.125,388.5071,240,4.0,Flute 1,1.0,0.3,86,0.9921
922.125,922.125,388.5071,240,4.0,Violin 1,0.5,0.15,79,1.0
922.125,922.125,388.5071,240,4.0,Viola,0.5,0.15,62,0.9921
922.125,922.125,388.5071,240,4.0,Contrabass,0.5,0.15,38,0.9921
922.125,922.125,388.5071,240,4.0,D Horn 1,1.0,0.3,66,0.9921
922.125,922.125,388.5071,240,4.0,D Horn 2,1.0,0.3,62,0.9921
922.125,922.125,388.5071,240,4.0,D Trumpet 2,1.0,0.3,62,0.9921
922.125,922.125,388.5071,240,4.0,Violin 2,0.5,0.15,67,1.0
922.125,922.125,388.5071,240,4.0,Oboe 1,1.0,0.3,74,0.9921
922.125,922.125,388.5071,240,4.0,Violoncello,0.5,0.15,50,0.9921
922.125,922.125,388.5071,240,4.0,D Trumpet 1,1.0,0.3,74,0.9921
922.625,922.625,388.6571,240,4.5,Contrabass,0.5,0.15,33,0.9921
922.625,922.625,388.6571,240,4.5,Violoncello,0.5,0.15,45,0.9921
922.625,922.625,388.6571,240,4.5,Viola,0.5,0.15,57,0.9921
922.625,922.625,388.6571,240,4.5,Violin 2,0.5,0.15,68,1.0
922.625,922.625,388.6571,240,4.5,Violin 1,0.5,0.15,80,1.0
923.125,923.125,388.8071,241,1.0,Violin 1,1.0,0.3,81,1.0
923.125,923.125,388.8071,241,1.0,Contrabass,0.5,0.15,45,0.9921
923.125,923.125,388.8071,241,1.0,Oboe 1,1.0,0.3,73,0.9921
923.125,923.125,388.8071,241,1.0,D Horn 1,1.0,0.3,64,0.9921
923.125,923.125,388.8071,241,1.0,Timpani,1.0,0.3,45,0.9921
923.125,923.125,388.8071,241,1.0,D Trumpet 1,1.0,0.3,69,0.9921
923.125,923.125,388.8071,241,1.0,D Trumpet 2,1.0,0.3,57,0.9921
923.125,923.125,388.8071,241,1.0,D Horn 2,1.0,0.3,57,0.9921
923.125,923.125,388.8071,241,1.0,Flute 1,1.0,0.3,85,0.9921
923.125,923.125,388.8071,241,1.0,Violin 2,1.0,0.3,69,1.0
923.125,923.125,388.8071,241,1.0,Viola,0.5,0.15,69,0.9921
923.125,923.125,388.8071,241,1.0,Violoncello,0.5,0.15,57,0.9921
923.625,923.625,388.9571,241,1.5,Violoncello,0.5,0.15,45,0.9921
923.625,923.625,388.9571,241,1.5,Viola,0.5,0.15,57,0.9921
923.625,923.625,388.9571,241,1.5,Contrabass,0.5,0.15,33,0.9921
924.125,924.125,389.1071,241,2.0,Violoncello,0.5,0.15,49,0.9921
924.125,924.125,389.1071,241,2.0,Violin 1,1.5,0.45,69,0.7087
924.125,924.125,389.1071,241,2.0,Violin 2,1.5,0.45,57,0.7087
924.125,924.125,389.1071,241,2.0,Violin 2,1.5,0.45,69,0.7087
924.125,924.125,389.1071,241,2.0,Violin 1,1.5,0.45,81,0.7087
924.125,924.125,389.1071,241,2.0,D Horn 2,3.0,0.9,57,0.9921
924.125,924.125,389.1071,241,2.0,Contrabass,0.5,0.15,37,0.9921
924.125,924.125,389.1071,241,2.0,Viola,0.5,0.15,61,0.9921
924.125,924.125,389.1071,241,2.0,D Horn 1,3.0,0.9,69,0.9921
924.625,924.625,389.2571,241,2.5,Viola,0.5,0.15,57,0.9921
924.625,924.625,389.2571,241,2.5,Contrabass,0.5,0.15,33,0.9921
924.625,924.625,389.2571,241,2.5,Violoncello,0.5,0.15,45,0.9921
925.125,925.125,389.4071,241,3.0,Violoncello,0.5,0.15,49,0.9921
925.125,925.125,389.4071,241,3.0,Viola,0.5,0.15,61,0.9921
925.125,925.125,389.4071,241,3.0,Contrabass,0.5,0.15,37,0.9921
925.625,925.625,389.5571,241,3.5,Violin 1,0.5,0.15,82,1.0
925.625,925.625,389.5571,241,3.5,Contrabass,0.5,0.15,33,0.9921
925.625,925.625,389.5571,241,3.5,Viola,0.5,0.15,57,0.9921
925.625,925.625,389.5571,241,3.5,Violin 2,0.5,0.15,70,1.0
925.625,925.625,389.5571,241,3.5,Violoncello,0.5,0.15,45,0.9921
926.125,926.125,389.7071,241,4.0,Violin 2,0.5,0.15,69,1.0
926.125,926.125,389.7071,241,4.0,Contrabass,0.5,0.15,37,0.9921
926.125,926.125,389.7071,241,4.0,Violoncello,0.5,0.15,49,0.9921
926.125,926.125,389.7071,241,4.0,Violin 1,0.5,0.15,81,1.0
926.125,926.125,389.7071,241,4.0,Viola,0.5,0.15,61,0.9921
926.625,926.625,389.8571,241,4.5,Viola,0.5,0.15,57,0.9921
926.625,926.625,389.8571,241,4.5,Violin 2,0.5,0.15,67,1.0
926.625,926.625,389.8571,241,4.5,Violoncello,0.5,0.15,45,0.9921
926.625,926.625,389.8571,241,4.5,Violin 1,0.5,0.15,79,1.0
926.625,926.625,389.8571,241,4.5,Contrabass,0.5,0.15,33,0.9921
927.125,927.125,390.0071,242,1.0,Viola,0.5,0.15,62,0.9921
927.125,927.125,390.0071,242,1.0,Violin 2,0.5,0.15,65,1.0
927.125,927.125,390.0071,242,1.0,Violoncello,0.5,0.15,50,0.9921
927.125,927.125,390.0071,242,1.0,Contrabass,0.5,0.15,38,0.9921
927.125,927.125,390.0071,242,1.0,D Horn 1,4.0,1.2,69,0.9921
927.125,927.125,390.0071,242,1.0,Violin 1,0.5,0.15,77,1.0
927.125,927.125,390.0071,242,1.0,D Horn 2,4.0,1.2,57,0.9921
927.125,927.125,390.0071,242,1.0,Timpani,1.0,0.3,45,0.9921
927.625,927.625,390.1571,242,1.5,Violin 2,0.5,0.15,64,1.0
927.625,927.625,390.1571,242,1.5,Violin 1,0.5,0.15,76,1.0
927.625,927.625,390.1571,242,1.5,Viola,0.5,0.15,57,0.9921
927.625,927.625,390.1571,242,1.5,Violoncello,0.5,0.15,45,0.9921
927.625,927.625,390.1571,242,1.5,Contrabass,0.5,0.15,33,0.9921
928.125,928.125,390.3071,242,2.0,Violoncello,0.5,0.15,50,0.9921
928.125,928.125,390.3071,242,2.0,Viola,0.5,0.15,62,0.9921
928.125,928.125,390.3071,242,2.0,Violin 1,0.5,0.15,74,1.0
928.125,928.125,390.3071,242,2.0,Violin 2,0.5,0.15,62,1.0
928.125,928.125,390.3071,242,2.0,Contrabass,0.5,0.15,38,0.9921
928.625,928.625,390.4571,242,2.5,Contrabass,0.5,0.15,33,0.9921
928.625,928.625,390.4571,242,2.5,Viola,0.5,0.15,57,0.9921
928.625,928.625,390.4571,242,2.5,Violoncello,0.5,0.15,45,0.9921
928.625,928.625,390.4571,242,2.5,Violin 1,0.5,0.15,73,1.0
928.625,928.625,390.4571,242,2.5,Violin 2,0.5,0.15,61,1.0
929.125,929.125,390.6071,242,3.0,Viola,0.5,0.15,65,0.9921
929.125,929.125,390.6071,242,3.0,Violoncello,0.5,0.15,53,0.9921
929.125,929.125,390.6071,242,3.0,Violin 2,0.5,0.15,62,1.0
929.125,929.125,390.6071,242,3.0,Contrabass,0.5,0.15,41,0.9921
929.125,929.125,390.6071,242,3.0,Violin 1,0.5,0.15,74,1.0
929.625,929.625,390.7571,242,3.5,Violin 1,0.5,0.15,77,1.0
929.625,929.625,390.7571,242,3.5,Violoncello,0.5,0.15,45,0.9921
929.625,929.625,390.7571,242,3.5,Violin 2,0.5,0.15,65,1.0
929.625,929.625,390.7571,242,3.5,Viola,0.5,0.15,57,0.9921
929.625,929.625,390.7571,242,3.5,Contrabass,0.5,0.15,33,0.9921
930.125,930.125,390.9071,242,4.0,Violin 2,0.5,0.15,64,1.0
930.125,930.125,390.9071,242,4.0,Contrabass,0.5,0.15,41,0.9921
930.125,930.125,390.9071,242,4.0,Violin 1,0.5,0.15,76,1.0
930.125,930.125,390.9071,242,4.0,Violoncello,0.5,0.15,53,0.9921
930.125,930.125,390.9071,242,4.0,Viola,0.5,0.15,65,0.9921
930.625,930.625,391.0571,242,4.5,Contrabass,0.5,0.15,33,0.9921
930.625,930.625,391.0571,242,4.5,Violin 2,0.5,0.15,62,1.0
930.625,930.625,391.0571,242,4.5,Viola,0.5,0.15,57,0.9921
930.625,930.625,391.0571,242,4.5,Violin 1,0.5,0.15,74,1.0
930.625,930.625,391.0571,242,4.5,Violoncello,0.5,0.15,45,0.9921
931.125,931.125,391.2071,243,1.0,D Horn 2,1.0,0.3,57,0.9921
931.125,931.125,391.2071,243,1.0,Violin 2,0.5,0.15,61,1.0
931.125,931.125,391.2071,243,1.0,Timpani,1.0,0.3,45,0.9921
931.125,931.125,391.2071,243,1.0,D Horn 1,1.0,0.3,69,0.9921
931.125,931.125,391.2071,243,1.0,Violin 1,0.5,0.15,73,1.0
931.125,931.125,391.2071,243,1.0,D Trumpet 1,4.0,1.2,69,0.9921
931.125,931.125,391.2071,243,1.0,Violoncello,0.5,0.15,52,0.9921
931.125,931.125,391.2071,243,1.0,Viola,0.5,0.15,64,0.9921
931.125,931.125,391.2071,243,1.0,D Trumpet 2,4.0,1.2,69,0.9921
931.125,931.125,391.2071,243,1.0,Contrabass,0.5,0.15,40,0.9921
931.625,931.625,391.3571,243,1.5,Flute 1,0.5,0.15,80,0.9921
931.625,931.625,391.3571,243,1.5,Contrabass,0.5,0.15,33,0.9921
931.625,931.625,391.3571,243,1.5,Violin 2,0.5,0.15,56,1.0
931.625,931.625,391.3571,243,1.5,Violoncello,0.5,0.15,45,0.9921
931.625,931.625,391.3571,243,1.5,Violin 1,0.5,0.15,68,1.0
931.625,931.625,391.3571,243,1.5,Viola,0.5,0.15,57,0.9921
932.125,932.125,391.5071,243,2.0,Bassoon 2,2.0,0.6,57,1.0
932.125,932.125,391.5071,243,2.0,Oboe 2,2.0,0.6,69,0.4961
932.125,932.125,391.5071,243,2.0,Violin 2,0.5,0.15,57,1.0
932.125,932.125,391.5071,243,2.0,Violin 1,0.5,0.15,69,1.0
932.125,932.125,391.5071,243,2.0,Flute 1,0.5,0.15,81,0.9921
932.125,932.125,391.5071,243,2.0,D Horn 1,2.0,0.6,69,0.9921
932.125,932.125,391.5071,243,2.0,Contrabass,2.0,0.6,45,1.0
932.125,932.125,391.5071,243,2.0,Violoncello,2.0,0.6,57,1.0
932.125,932.125,391.5071,243,2.0,D Horn 2,2.0,0.6,57,0.9921
932.125,932.125,391.5071,243,2.0,Bassoon 1,2.0,0.6,57,1.0
932.125,932.125,391.5071,243,2.0,Viola,2.0,0.6,69,1.0
932.125,932.125,391.5071,243,2.0,Oboe 1,2.0,0.6,81,0.9921
932.625,932.625,391.6571,243,2.5,Violin 1,0.5,0.15,68,1.0
932.625,932.625,391.6571,243,2.5,Flute 1,0.5,0.15,80,0.9921
932.625,932.625,391.6571,243,2.5,Violin 2,0.5,0.15,56,1.0
933.125,933.125,391.8071,243,3.0,Violin 1,0.5,0.15,69,1.0
933.125,933.125,391.8071,243,3.0,Flute 1,0.5,0.15,81,0.9921
933.125,933.125,391.8071,243,3.0,Violin 2,0.5,0.15,57,1.0
933.625,933.625,391.9571,243,3.5,Violin 2,0.5,0.15,59,1.0
933.625,933.625,391.9571,243,3.5,Violin 1,0.5,0.15,71,1.0
933.625,933.625,391.9571,243,3.5,Flute 1,0.5,0.15,83,0.9921
934.125,934.125,392.1071,243,4.0,Bassoon 2,0.5,0.15,57,1.0
934.125,934.125,392.1071,243,4.0,D Horn 2,1.0,0.3,57,0.9921
934.125,934.125,392.1071,243,4.0,Oboe 1,1.0,0.3,81,0.9921
934.125,934.125,392.1071,243,4.0,Bassoon 1,0.5,0.15,57,1.0
934.125,934.125,392.1071,243,4.0,Oboe 2,1.0,0.3,69,0.4961
934.125,934.125,392.1071,243,4.0,Violin 2,0.5,0.15,60,1.0
934.125,934.125,392.1071,243,4.0,Violoncello,0.5,0.15,57,1.0
934.125,934.125,392.1071,243,4.0,Violin 1,0.5,0.15,72,1.0
934.125,934.125,392.1071,243,4.0,Viola,0.5,0.15,69,1.0
934.125,934.125,392.1071,243,4.0,D Horn 1,1.0,0.3,69,0.9921
934.125,934.125,392.1071,243,4.0,Flute 1,0.5,0.15,84,0.9921
934.125,934.125,392.1071,243,4.0,Contrabass,0.5,0.15,45,1.0
934.625,934.625,392.2571,243,4.5,Flute 1,0.5,0.15,85,0.9921
934.625,934.625,392.2571,243,4.5,Bassoon 2,0.5,0.15,55,1.0
934.625,934.625,392.2571,243,4.5,Violin 2,0.5,0.15,61,1.0
934.625,934.625,392.2571,243,4.5,Viola,0.5,0.15,67,1.0
934.625,934.625,392.2571,243,4.5,Bassoon 1,0.5,0.15,67,1.0
934.625,934.625,392.2571,243,4.5,Contrabass,0.5,0.15,43,1.0
934.625,934.625,392.2571,243,4.5,Violin 1,0.5,0.15,73,1.0
934.625,934.625,392.2571,243,4.5,Violoncello,0.5,0.15,55,1.0
935.125,935.125,392.4071,244,1.0,Violin 1,0.5,0.15,74,1.0
935.125,935.125,392.4071,244,1.0,Bassoon 2,0.5,0.15,53,1.0
935.125,935.125,392.4071,244,1.0,Oboe 1,1.0,0.3,81,0.9921
935.125,935.125,392.4071,244,1.0,Timpani,1.0,0.3,45,0.9921
935.125,935.125,392.4071,244,1.0,D Trumpet 2,3.0,0.9,69,0.9921
935.125,935.125,392.4071,244,1.0,D Horn 1,1.0,0.3,69,0.9921
935.125,935.125,392.4071,244,1.0,Flute 1,0.5,0.15,86,0.9921
935.125,935.125,392.4071,244,1.0,Viola,0.5,0.15,65,1.0
935.125,935.125,392.4071,244,1.0,Violoncello,0.5,0.15,53,1.0
935.125,935.125,392.4071,244,1.0,Contrabass,0.5,0.15,41,1.0
935.125,935.125,392.4071,244,1.0,D Trumpet 1,3.0,0.9,69,0.9921
935.125,935.125,392.4071,244,1.0,D Horn 2,1.0,0.3,57,0.9921
935.125,935.125,392.4071,244,1.0,Oboe 2,1.0,0.3,69,0.4961
935.125,935.125,392.4071,244,1.0,Violin 2,0.5,0.15,62,1.0
935.125,935.125,392.4071,244,1.0,Bassoon 1,0.5,0.15,65,1.0
935.625,935.625,392.5571,244,1.5,Bassoon 2,0.5,0.15,55,1.0
935.625,935.625,392.5571,244,1.5,Violoncello,0.5,0.15,55,1.0
935.625,935.625,392.5571,244,1.5,Violin 2,0.5,0.15,61,1.0
935.625,935.625,392.5571,244,1.5,Viola,0.5,0.15,67,1.0
935.625,935.625,392.5571,244,1.5,Flute 1,0.5,0.15,85,0.9921
935.625,935.625,392.5571,244,1.5,Violin 1,0.5,0.15,73,1.0
935.625,935.625,392.5571,244,1.5,Bassoon 1,0.5,0.15,67,1.0
935.625,935.625,392.5571,244,1.5,Contrabass,0.5,0.15,43,1.0
936.125,936.125,392.7071,244,2.0,Bassoon 1,0.5,0.15,65,1.0
936.125,936.125,392.7071,244,2.0,Bassoon 2,0.5,0.15,53,1.0
936.125,936.125,392.7071,244,2.0,Violin 1,0.5,0.15,74,1.0
936.125,936.125,392.7071,244,2.0,Violin 2,0.5,0.15,62,1.0
936.125,936.125,392.7071,244,2.0,Oboe 2,2.0,0.6,69,0.4961
936.125,936.125,392.7071,244,2.0,Viola,0.5,0.15,65,1.0
936.125,936.125,392.7071,244,2.0,Oboe 1,2.0,0.6,81,0.9921
936.125,936.125,392.7071,244,2.0,D Horn 2,2.0,0.6,57,0.9921
936.125,936.125,392.7071,244,2.0,Violoncello,0.5,0.15,53,1.0
936.125,936.125,392.7071,244,2.0,Flute 1,0.5,0.15,86,0.9921
936.125,936.125,392.7071,244,2.0,Contrabass,0.5,0.15,41,1.0
936.125,936.125,392.7071,244,2.0,D Horn 1,2.0,0.6,69,0.9921
936.625,936.625,392.8571,244,2.5,Viola,0.5,0.15,64,1.0
936.625,936.625,392.8571,244,2.5,Bassoon 2,0.5,0.15,52,1.0
936.625,936.625,392.8571,244,2.5,Flute 1,0.5,0.15,88,0.9921
936.625,936.625,392.8571,244,2.5,Bassoon 1,0.5,0.15,64,1.0
936.625,936.625,392.8571,244,2.5,Contrabass,0.5,0.15,40,1.0
936.625,936.625,392.8571,244,2.5,Violoncello,0.5,0.15,52,1.0
936.625,936.625,392.8571,244,2.5,Violin 1,0.5,0.15,76,1.0
936.625,936.625,392.8571,244,2.5,Violin 2,0.5,0.15,64,1.0
937.125,937.125,393.0071,244,3.0,Contrabass,0.5,0.15,38,1.0
937.125,937.125,393.0071,244,3.0,Bassoon 2,0.5,0.15,50,1.0
937.125,937.125,393.0071,244,3.0,Violoncello,0.5,0.15,50,1.0
937.125,937.125,393.0071,244,3.0,Viola,0.5,0.15,62,1.0
937.125,937.125,393.0071,244,3.0,Bassoon 1,0.5,0.15,62,1.0
937.125,937.125,393.0071,244,3.0,Timpani,1.0,0.3,50,0.9921
937.125,937.125,393.0071,244,3.0,Violin 2,0.5,0.15,65,1.0
937.125,937.125,393.0071,244,3.0,Violin 1,0.5,0.15,77,1.0
937.125,937.125,393.0071,244,3.0,Flute 1,0.5,0.15,89,0.9921
937.625,937.625,393.1571,244,3.5,Violin 2,0.5,0.15,66,1.0
937.625,937.625,393.1571,244,3.5,Violoncello,0.5,0.15,48,1.0
937.625,937.625,393.1571,244,3.5,Contrabass,0.5,0.15,36,1.0
937.625,937.625,393.1571,244,3.5,Viola,0.5,0.15,60,1.0
937.625,937.625,393.1571,244,3.5,Bassoon 2,0.5,0.15,48,1.0
937.625,937.625,393.1571,244,3.5,Flute 1,1.0,0.3,86,0.9921
937.625,937.625,393.1571,244,3.5,Bassoon 1,0.5,0.15,60,1.0
937.625,937.625,393.1571,244,3.5,Violin 1,0.5,0.15,78,1.0
938.125,938.125,393.3071,244,4.0,D Trumpet 2,1.0,0.3,62,0.9921
938.125,938.125,393.3071,244,4.0,Oboe 1,1.0,0.3,74,0.9921
938.125,938.125,393.3071,244,4.0,Timpani,1.0,0.3,50,0.9921
938.125,938.125,393.3071,244,4.0,Violin 2,0.5,0.15,67,1.0
938.125,938.125,393.3071,244,4.0,Violin 1,0.5,0.15,79,1.0
938.125,938.125,393.3071,244,4.0,Violoncello,0.5,0.15,47,1.0
938.125,938.125,393.3071,244,4.0,Contrabass,0.5,0.15,35,1.0
938.125,938.125,393.3071,244,4.0,D Horn 2,1.0,0.3,50,0.9921
938.125,938.125,393.3071,244,4.0,D Horn 1,1.0,0.3,62,0.9921
938.125,938.125,393.3071,244,4.0,Bassoon 1,0.5,0.15,59,1.0
938.125,938.125,393.3071,244,4.0,Viola,0.5,0.15,59,1.0
938.125,938.125,393.3071,244,4.0,D Trumpet 1,1.0,0.3,74,0.9921
938.125,938.125,393.3071,244,4.0,Bassoon 2,0.5,0.15,47,1.0
938.125,938.125,393.3071,244,4.0,Oboe 2,1.0,0.3,74,0.4961
938.625,938.625,393.4571,244,4.5,Contrabass,0.5,0.15,34,1.0
938.625,938.625,393.4571,244,4.5,Flute 1,0.5,0.15,86,0.9921
938.625,938.625,393.4571,244,4.5,Violin 1,0.5,0.15,80,1.0
938.625,938.625,393.4571,244,4.5,Violoncello,0.5,0.15,46,1.0
938.625,938.625,393.4571,244,4.5,Viola,0.5,0.15,58,1.0
938.625,938.625,393.4571,244,4.5,Bassoon 2,0.5,0.15,46,1.0
938.625,938.625,393.4571,244,4.5,Violin 2,0.5,0.15,68,1.0
938.625,938.625,393.4571,244,4.5,Bassoon 1,0.5,0.15,58,1.0
939.125,939.125,393.6071,245,1.0,Flute 1,1.5,0.45,85,1.0
939.125,939.125,393.6071,245,1.0,Violoncello,1.5,0.45,45,1.0
939.125,939.125,393.6071,245,1.0,Contrabass,1.5,0.45,33,1.0
939.125,939.125,393.6071,245,1.0,D Horn 2,1.0,0.3,57,1.0
939.125,939.125,393.6071,245,1.0,Viola,1.5,0.45,57,1.0
939.125,939.125,393.6071,245,1.0,Violin 2,0.25,0.075,69,1.0
939.125,939.125,393.6071,245,1.0,Timpani,1.0,0.3,45,1.0
939.125,939.125,393.6071,245,1.0,Bassoon 1,1.5,0.45,57,1.0
939.125,939.125,393.6071,245,1.0,D Horn 1,1.0,0.3,69,1.0
939.125,939.125,393.6071,245,1.0,Violin 1,1.0,0.3,81,1.0
939.125,939.125,393.6071,245,1.0,Bassoon 2,1.5,0.45,45,1.0
939.125,939.125,393.6071,245,1.0,D Trumpet 1,1.0,0.3,69,1.0
939.125,939.125,393.6071,245,1.0,D Trumpet 2,1.0,0.3,57,1.0
939.125,939.125,393.6071,245,1.0,Oboe 1,1.5,0.45,81,1.0
939.125,939.125,393.6071,245,1.0,Oboe 2,1.5,0.45,73,1.0
939.375,939.375,393.6821,245,1.25,Violin 2,0.25,0.075,61,1.0
939.625,939.625,393.7571,245,1.5,Violin 2,0.25,0.075,61,1.0
939.875,939.875,393.8321,245,1.75,Violin 2,0.25,0.075,61,1.0
940.125,940.125,393.9071,245,2.0,Violin 1,0.25,0.075,81,1.0
940.125,940.125,393.9071,245,2.0,Violin 2,0.25,0.075,61,1.0
940.375,940.375,393.9821,245,2.25,Violin 1,0.25,0.075,81,1.0
940.375,940.375,393.9821,245,2.25,Violin 2,0.25,0.075,61,1.0
940.625,940.625,394.0571,245,2.5,Bassoon 1,0.5,0.15,58,1.0
940.625,940.625,394.0571,245,2.5,Violoncello,0.5,0.15,46,1.0
940.625,940.625,394.0571,245,2.5,Viola,0.5,0.15,58,1.0
940.625,940.625,394.0571,245,2.5,Bassoon 2,0.5,0.15,46,1.0
940.625,940.625,394.0571,245,2.5,Flute 1,0.5,0.15,86,1.0
940.625,940.625,394.0571,245,2.5,Contrabass,0.5,0.15,34,1.0
940.625,940.625,394.0571,245,2.5,Violin 1,0.25,0.075,80,1.0
940.625,940.625,394.0571,245,2.5,Violin 2,0.25,0.075,62,1.0
940.625,940.625,394.0571,245,2.5,Oboe 1,0.5,0.15,80,1.0
940.625,940.625,394.0571,245,2.5,Oboe 2,0.5,0.15,74,1.0
940.875,940.875,394.1321,245,2.75,Violin 1,0.25,0.075,80,1.0
940.875,940.875,394.1321,245,2.75,Violin 2,0.25,0.075,62,1.0
941.125,941.125,394.2071,245,3.0,Viola,1.5,0.45,57,1.0
941.125,941.125,394.2071,245,3.0,Oboe 1,1.5,0.45,81,1.0
941.125,941.125,394.2071,245,3.0,Bassoon 2,1.5,0.45,45,1.0
941.125,941.125,394.2071,245,3.0,D Horn 2,1.0,0.3,57,1.0
941.125,941.125,394.2071,245,3.0,Violin 2,1.0,0.3,61,1.0
941.125,941.125,394.2071,245,3.0,Oboe 2,1.5,0.45,73,1.0
941.125,941.125,394.2071,245,3.0,Violin 1,1.0,0.3,81,1.0
941.125,941.125,394.2071,245,3.0,Contrabass,1.5,0.45,33,1.0
941.125,941.125,394.2071,245,3.0,D Trumpet 2,1.0,0.3,57,1.0
941.125,941.125,394.2071,245,3.0,Violoncello,1.5,0.45,45,1.0
941.125,941.125,394.2071,245,3.0,D Horn 1,1.0,0.3,69,1.0
941.125,941.125,394.2071,245,3.0,D Trumpet 1,1.0,0.3,69,1.0
941.125,941.125,394.2071,245,3.0,Flute 1,1.5,0.45,85,1.0
941.125,941.125,394.2071,245,3.0,Bassoon 1,1.5,0.45,57,1.0
941.125,941.125,394.2071,245,3.0,Timpani,1.0,0.3,45,1.0
942.125,942.125,394.5071,245,4.0,Violin 2,0.25,0.075,61,1.0
942.125,942.125,394.5071,245,4.0,Violin 1,0.25,0.075,81,1.0
942.375,942.375,394.5821,245,4.25,Violin 2,0.25,0.075,61,1.0
942.375,942.375,394.5821,245,4.25,Violin 1,0.25,0.075,81,1.0
942.625,942.625,394.6571,245,4.5,Violin 1,0.25,0.075,80,1.0
942.625,942.625,394.6571,245,4.5,Contrabass,0.5,0.15,34,1.0
942.625,942.625,394.6571,245,4.5,Violin 2,0.25,0.075,62,1.0
942.625,942.625,394.6571,245,4.5,Oboe 1,0.5,0.15,80,1.0
942.625,942.625,394.6571,245,4.5,Bassoon 2,0.5,0.15,46,1.0
942.625,942.625,394.6571,245,4.5,Flute 1,0.5,0.15,86,1.0
942.625,942.625,394.6571,245,4.5,Oboe 2,0.5,0.15,74,1.0
942.625,942.625,394.6571,245,4.5,Bassoon 1,0.5,0.15,58,1.0
942.625,942.625,394.6571,245,4.5,Viola,0.5,0.15,58,1.0
942.625,942.625,394.6571,245,4.5,Violoncello,0.5,0.15,46,1.0
942.875,942.875,394.7321,245,4.75,Violin 1,0.25,0.075,80,1.0
942.875,942.875,394.7321,245,4.75,Violin 2,0.25,0.075,62,1.0
943.125,943.125,394.8071,246,1.0,Flute 1,0.5,0.15,85,1.0
943.125,943.125,394.8071,246,1.0,Timpani,1.0,0.3,45,1.0
943.125,943.125,394.8071,246,1.0,Contrabass,0.5,0.15,33,1.0
943.125,943.125,394.8071,246,1.0,Bassoon 2,0.5,0.15,45,1.0
943.125,943.125,394.8071,246,1.0,D Horn 1,0.5,0.15,69,1.0
943.125,943.125,394.8071,246,1.0,D Trumpet 2,1.0,0.3,57,1.0
943.125,943.125,394.8071,246,1.0,Violin 1,0.5,0.15,81,1.0
943.125,943.125,394.8071,246,1.0,Viola,0.5,0.15,57,1.0
943.125,943.125,394.8071,246,1.0,Bassoon 1,0.5,0.15,57,1.0
943.125,943.125,394.8071,246,1.0,Oboe 1,0.5,0.15,81,1.0
943.125,943.125,394.8071,246,1.0,D Trumpet 1,1.0,0.3,69,1.0
943.125,943.125,394.8071,246,1.0,D Horn 2,0.5,0.15,57,1.0
943.125,943.125,394.8071,246,1.0,Oboe 2,0.5,0.15,73,1.0
943.125,943.125,394.8071,246,1.0,Violoncello,0.5,0.15,45,1.0
943.125,943.125,394.8071,246,1.0,Violin 2,0.5,0.15,61,1.0
943.625,943.625,394.9571,246,1.5,D Horn 1,0.5,0.15,62,1.0
943.625,943.625,394.9571,246,1.5,Oboe 1,0.5,0.15,80,1.0
943.625,943.625,394.9571,246,1.5,D Horn 2,0.5,0.15,62,1.0
943.625,943.625,394.9571,246,1.5,Violoncello,0.5,0.15,46,1.0
943.625,943.625,394.9571,246,1.5,Violin 1,0.5,0.15,80,1.0
943.625,943.625,394.9571,246,1.5,Bassoon 2,0.5,0.15,46,1.0
943.625,943.625,394.9571,246,1.5,Violin 2,0.5,0.15,62,1.0
943.625,943.625,394.9571,246,1.5,Contrabass,0.5,0.15,34,1.0
943.625,943.625,394.9571,246,1.5,Flute 1,0.5,0.15,86,1.0
943.625,943.625,394.9571,246,1.5,Oboe 2,0.5,0.15,74,1.0
943.625,943.625,394.9571,246,1.5,Bassoon 1,0.5,0.15,58,1.0
943.625,943.625,394.9571,246,1.5,Viola,0.5,0.15,58,1.0
944.125,944.125,395.1071,246,2.0,Bassoon 1,0.5,0.15,57,1.0
944.125,944.125,395.1071,246,2.0,Violoncello,0.5,0.15,45,1.0
944.125,944.125,395.1071,246,2.0,Contrabass,0.5,0.15,33,1.0
944.125,944.125,395.1071,246,2.0,D Horn 1,0.5,0.15,69,1.0
944.125,944.125,395.1071,246,2.0,Violin 2,0.5,0.15,61,1.0
944.125,944.125,395.1071,246,2.0,D Trumpet 1,1.0,0.3,69,1.0
944.125,944.125,395.1071,246,2.0,D Trumpet 2,1.0,0.3,57,1.0
944.125,944.125,395.1071,246,2.0,Violin 1,0.5,0.15,81,1.0
944.125,944.125,395.1071,246,2.0,Timpani,1.0,0.3,45,1.0
944.125,944.125,395.1071,246,2.0,D Horn 2,0.5,0.15,57,1.0
944.125,944.125,395.1071,246,2.0,Flute 1,0.5,0.15,85,1.0
944.125,944.125,395.1071,246,2.0,Bassoon 2,0.5,0.15,45,1.0
944.125,944.125,395.1071,246,2.0,Oboe 1,0.5,0.15,81,1.0
944.125,944.125,395.1071,246,2.0,Oboe 2,0.5,0.15,73,1.0
944.125,944.125,395.1071,246,2.0,Viola,0.5,0.15,57,1.0
944.625,944.625,395.2571,246,2.5,Oboe 2,0.5,0.15,74,1.0
944.625,944.625,395.2571,246,2.5,Bassoon 2,0.5,0.15,46,1.0
944.625,944.625,395.2571,246,2.5,D Horn 1,0.5,0.15,62,1.0
944.625,944.625,395.2571,246,2.5,Contrabass,0.5,0.15,34,1.0
944.625,944.625,395.2571,246,2.5,Flute 1,0.5,0.15,86,1.0
944.625,944.625,395.2571,246,2.5,Violoncello,0.5,0.15,46,1.0
944.625,944.625,395.2571,246,2.5,Oboe 1,0.5,0.15,80,1.0
944.625,944.625,395.2571,246,2.5,Violin 2,0.5,0.15,62,1.0
944.625,944.625,395.2571,246,2.5,Viola,0.5,0.15,58,1.0
944.625,944.625,395.2571,246,2.5,Bassoon 1,0.5,0.15,58,1.0
944.625,944.625,395.2571,246,2.5,D Horn 2,0.5,0.15,62,1.0
944.625,944.625,395.2571,246,2.5,Violin 1,0.5,0.15,80,1.0
945.125,945.125,395.4071,246,3.0,Bassoon 1,0.5,0.15,57,1.0
945.125,945.125,395.4071,246,3.0,D Trumpet 2,1.0,0.3,57,1.0
945.125,945.125,395.4071,246,3.0,Viola,0.5,0.15,57,1.0
945.125,945.125,395.4071,246,3.0,D Trumpet 1,1.0,0.3,69,1.0
945.125,945.125,395.4071,246,3.0,Timpani,1.0,0.3,45,1.0
945.125,945.125,395.4071,246,3.0,D Horn 2,0.5,0.15,57,1.0
945.125,945.125,395.4071,246,3.0,Contrabass,0.5,0.15,33,1.0
945.125,945.125,395.4071,246,3.0,Bassoon 2,0.5,0.15,45,1.0
945.125,945.125,395.4071,246,3.0,D Horn 1,0.5,0.15,69,1.0
945.125,945.125,395.4071,246,3.0,Flute 1,0.5,0.15,85,1.0
945.125,945.125,395.4071,246,3.0,Violin 2,0.5,0.15,61,1.0
945.125,945.125,395.4071,246,3.0,Oboe 1,0.5,0.15,81,1.0
945.125,945.125,395.4071,246,3.0,Violin 1,0.5,0.15,81,1.0
945.125,945.125,395.4071,246,3.0,Violoncello,0.5,0.15,45,1.0
945.125,945.125,395.4071,246,3.0,Oboe 2,0.5,0.15,73,1.0
945.625,945.625,395.5571,246,3.5,D Horn 2,0.5,0.15,62,1.0
945.625,945.625,395.5571,246,3.5,Flute 1,0.5,0.15,86,1.0
945.625,945.625,395.5571,246,3.5,Violin 2,0.5,0.15,62,1.0
945.625,945.625,395.5571,246,3.5,Oboe 1,0.5,0.15,80,1.0
945.625,945.625,395.5571,246,3.5,Violin 1,0.5,0.15,80,1.0
945.625,945.625,395.5571,246,3.5,Oboe 2,0.5,0.15,74,1.0
945.625,945.625,395.5571,246,3.5,Bassoon 2,0.5,0.15,46,1.0
945.625,945.625,395.5571,246,3.5,Contrabass,0.5,0.15,34,1.0
945.625,945.625,395.5571,246,3.5,D Horn 1,0.5,0.15,62,1.0
945.625,945.625,395.5571,246,3.5,Violoncello,0.5,0.15,46,1.0
945.625,945.625,395.5571,246,3.5,Viola,0.5,0.15,58,1.0
945.625,945.625,395.5571,246,3.5,Bassoon 1,0.5,0.15,58,1.0
946.125,946.125,395.7071,246,4.0,Violoncello,0.5,0.15,45,1.0
946.125,946.125,395.7071,246,4.0,Violin 1,0.5,0.15,81,1.0
946.125,946.125,395.7071,246,4.0,Oboe 1,0.5,0.15,81,1.0
946.125,946.125,395.7071,246,4.0,Bassoon 1,0.5,0.15,57,1.0
946.125,946.125,395.7071,246,4.0,Flute 1,0.5,0.15,85,1.0
946.125,946.125,395.7071,246,4.0,D Horn 1,0.5,0.15,69,1.0
946.125,946.125,395.7071,246,4.0,Bassoon 2,0.5,0.15,45,1.0
946.125,946.125,395.7071,246,4.0,D Trumpet 2,1.0,0.3,57,1.0
946.125,946.125,395.7071,246,4.0,Oboe 2,0.5,0.15,73,1.0
946.125,946.125,395.7071,246,4.0,D Trumpet 1,1.0,0.3,69,1.0
946.125,946.125,395.7071,246,4.0,Violin 2,0.5,0.15,61,1.0
946.125,946.125,395.7071,246,4.0,D Horn 2,0.5,0.15,57,1.0
946.125,946.125,395.7071,246,4.0,Viola,0.5,0.15,57,1.0
946.125,946.125,395.7071,246,4.0,Contrabass,0.5,0.15,33,1.0
946.125,946.125,395.7071,246,4.0,Timpani,1.0,0.3,45,1.0
946.625,946.625,395.8571,246,4.5,Oboe 2,0.5,0.15,74,1.0
946.625,946.625,395.8571,246,4.5,Violin 1,0.5,0.15,80,1.0
946.625,946.625,395.8571,246,4.5,Flute 1,0.5,0.15,86,1.0
946.625,946.625,395.8571,246,4.5,Oboe 1,0.5,0.15,80,1.0
946.625,946.625,395.8571,246,4.5,Viola,0.5,0.15,58,1.0
946.625,946.625,395.8571,246,4.5,Contrabass,0.5,0.15,34,1.0
946.625,946.625,395.8571,246,4.5,D Horn 1,0.5,0.15,62,1.0
946.625,946.625,395.8571,246,4.5,Violin 2,0.5,0.15,62,1.0
946.625,946.625,395.8571,246,4.5,D Horn 2,0.5,0.15,62,1.0
946.625,946.625,395.8571,246,4.5,Bassoon 2,0.5,0.15,46,1.0
946.625,946.625,395.8571,246,4.5,Bassoon 1,0.5,0.15,58,1.0
946.625,946.625,395.8571,246,4.5,Violoncello,0.5,0.15,46,1.0
947.125,947.125,396.0071,247,1.0,Flute 1,1.0,0.3,85,1.0
947.125,947.125,396.0071,247,1.0,Bassoon 2,3.0,0.9,45,1.0
947.125,947.125,396.0071,247,1.0,Timpani,2.0,0.6,45,1.0
947.125,947.125,396.0071,247,1.0,Oboe 2,1.0,0.3,73,1.0
947.125,947.125,396.0071,247,1.0,D Trumpet 2,1.0,0.3,57,1.0
947.125,947.125,396.0071,247,1.0,D Trumpet 1,1.0,0.3,69,1.0
947.125,947.125,396.0071,247,1.0,Violin 1,3.0,0.9,81,1.0
947.125,947.125,396.0071,247,1.0,Bassoon 1,3.0,0.9,57,1.0
947.125,947.125,396.0071,247,1.0,Contrabass,3.0,0.9,33,1.0
947.125,947.125,396.0071,247,1.0,Violin 2,1.0,0.3,61,1.0
947.125,947.125,396.0071,247,1.0,D Horn 2,3.0,0.9,57,1.0
947.125,947.125,396.0071,247,1.0,Violoncello,3.0,0.9,45,1.0
947.125,947.125,396.0071,247,1.0,D Horn 1,3.0,0.9,69,1.0
947.125,947.125,396.0071,247,1.0,Viola,3.0,0.9,57,1.0
947.125,947.125,396.0071,247,1.0,Oboe 1,1.0,0.3,81,1.0
948.125,948.125,396.3071,247,2.0,Flute 1,2.0,0.6,93,1.0
948.125,948.125,396.3071,247,2.0,D Trumpet 1,2.0,0.6,69,1.0
948.125,948.125,396.3071,247,2.0,D Trumpet 2,2.0,0.6,57,1.0
948.125,948.125,396.3071,247,2.0,Oboe 1,2.0,0.6,81,1.0
948.125,948.125,396.3071,247,2.0,Violin 2,2.0,0.6,69,1.0
949.125,949.125,396.6071,247,3.0,Timpani,2.0,0.6,45,1.0
950.125,950.125,396.9071,247,4.0,Violin 2,1.0,0.3,68,1.0
950.125,950.125,396.9071,247,4.0,D Trumpet 2,1.0,0.3,57,1.0
950.125,950.125,396.9071,247,4.0,Bassoon 1,1.0,0.3,56,1.0
950.125,950.125,396.9071,247,4.0,D Trumpet 1,1.0,0.3,69,1.0
950.125,950.125,396.9071,247,4.0,Viola,1.0,0.3,68,1.0
950.125,950.125,396.9071,247,4.0,Oboe 1,1.0,0.3,80,1.0
950.125,950.125,396.9071,247,4.0,Flute 1,1.0,0.3,92,1.0
950.125,950.125,396.9071,247,4.0,Bassoon 2,1.0,0.3,56,1.0
950.125,950.125,396.9071,247,4.0,D Horn 2,1.0,0.3,57,1.0
950.125,950.125,396.9071,247,4.0,Violoncello,1.0,0.3,56,1.0
950.125,950.125,396.9071,247,4.0,D Horn 1,1.0,0.3,69,1.0
950.125,950.125,396.9071,247,4.0,Violin 1,1.0,0.3,80,1.0
950.125,950.125,396.9071,247,4.0,Contrabass,1.0,0.3,44,1.0
951.125,951.125,397.2071,248,1.0,Viola,1.0,0.3,67,1.0
951.125,951.125,397.2071,248,1.0,D Horn 1,1.0,0.3,69,1.0
951.125,951.125,397.2071,248,1.0,Violin 1,1.0,0.3,79,1.0
951.125,951.125,397.2071,248,1.0,Violin 2,1.0,0.3,67,1.0
951.125,951.125,397.2071,248,1.0,Timpani,1.0,0.3,45,1.0
951.125,951.125,397.2071,248,1.0,D Trumpet 1,1.0,0.3,69,1.0
951.125,951.125,397.2071,248,1.0,Bassoon 2,1.0,0.3,55,1.0
951.125,951.125,397.2071,248,1.0,D Horn 2,1.0,0.3,57,1.0
951.125,951.125,397.2071,248,1.0,Violoncello,1.0,0.3,55,1.0
951.125,951.125,397.2071,248,1.0,Contrabass,1.0,0.3,43,1.0
951.125,951.125,397.2071,248,1.0,D Trumpet 2,1.0,0.3,57,1.0
951.125,951.125,397.2071,248,1.0,Bassoon 1,1.0,0.3,55,1.0
951.125,951.125,397.2071,248,1.0,Oboe 1,1.0,0.3,79,1.0
951.125,951.125,397.2071,248,1.0,Flute 1,1.0,0.3,91,1.0
952.125,952.125,397.5071,248,2.0,Contrabass,1.0,0.3,42,1.0
952.125,952.125,397.5071,248,2.0,Violin 2,1.0,0.3,66,1.0
952.125,952.125,397.5071,248,2.0,Timpani,1.0,0.3,45,1.0
952.125,952.125,397.5071,248,2.0,Oboe 1,1.0,0.3,78,1.0
952.125,952.125,397.5071,248,2.0,Bassoon 2,1.0,0.3,54,1.0
952.125,952.125,397.5071,248,2.0,D Trumpet 1,1.0,0.3,69,1.0
952.125,952.125,397.5071,248,2.0,Viola,1.0,0.3,66,1.0
952.125,952.125,397.5071,248,2.0,Bassoon 1,1.0,0.3,54,1.0
952.125,952.125,397.5071,248,2.0,D Horn 2,1.0,0.3,57,1.0
952.125,952.125,397.5071,248,2.0,Flute 1,1.0,0.3,90,1.0
952.125,952.125,397.5071,248,2.0,Violoncello,1.0,0.3,54,1.0
952.125,952.125,397.5071,248,2.0,D Horn 1,1.0,0.3,69,1.0
952.125,952.125,397.5071,248,2.0,D Trumpet 2,1.0,0.3,57,1.0
952.125,952.125,397.5071,248,2.0,Violin 1,1.0,0.3,78,1.0
953.125,953.125,397.8071,248,3.0,D Horn 1,1.0,0.3,69,1.0
953.125,953.125,397.8071,248,3.0,Viola,1.0,0.3,64,1.0
953.125,953.125,397.8071,248,3.0,Violin 2,1.0,0.3,64,1.0
953.125,953.125,397.8071,248,3.0,Oboe 1,1.0,0.3,76,1.0
953.125,953.125,397.8071,248,3.0,Violoncello,1.0,0.3,52,1.0
953.125,953.125,397.8071,248,3.0,Timpani,1.0,0.3,45,1.0
953.125,953.125,397.8071,248,3.0,Bassoon 2,1.0,0.3,52,1.0
953.125,953.125,397.8071,248,3.0,Contrabass,1.0,0.3,40,1.0
953.125,953.125,397.8071,248,3.0,D Trumpet 2,1.0,0.3,57,1.0
953.125,953.125,397.8071,248,3.0,D Trumpet 1,1.0,0.3,69,1.0
953.125,953.125,397.8071,248,3.0,Violin 1,1.0,0.3,76,1.0
953.125,953.125,397.8071,248,3.0,Bassoon 1,1.0,0.3,52,1.0
953.125,953.125,397.8071,248,3.0,Flute 1,1.0,0.3,88,1.0
953.125,953.125,397.8071,248,3.0,D Horn 2,1.0,0.3,57,1.0
954.125,954.125,398.1071,248,4.0,D Horn 1,1.0,0.3,69,1.0
954.125,954.125,398.1071,248,4.0,Viola,1.0,0.3,69,1.0
954.125,954.125,398.1071,248,4.0,Violoncello,1.0,0.3,57,1.0
954.125,954.125,398.1071,248,4.0,Contrabass,1.0,0.3,45,1.0
954.125,954.125,398.1071,248,4.0,Oboe 1,1.0,0.3,81,1.0
954.125,954.125,398.1071,248,4.0,Flute 1,1.0,0.3,93,1.0
954.125,954.125,398.1071,248,4.0,D Horn 2,1.0,0.3,57,1.0
954.125,954.125,398.1071,248,4.0,D Trumpet 2,1.0,0.3,57,1.0
954.125,954.125,398.1071,248,4.0,Bassoon 1,1.0,0.3,57,1.0
954.125,954.125,398.1071,248,4.0,Bassoon 2,1.0,0.3,57,1.0
954.125,954.125,398.1071,248,4.0,Violin 1,1.0,0.3,81,1.0
954.125,954.125,398.1071,248,4.0,Timpani,1.0,0.3,45,1.0
954.125,954.125,398.1071,248,4.0,Violin 2,1.0,0.3,69,1.0
954.125,954.125,398.1071,248,4.0,D Trumpet 1,1.0,0.3,69,1.0
955.125,955.125,398.4071,249,1.0,Violin 2,1.0,0.3,62,0.4961
955.125,955.125,398.4071,249,1.0,Oboe 1,2.0,0.6,66,0.4961
955.125,955.125,398.4071,249,1.0,Bassoon 2,1.0,0.3,50,0.4961
955.125,955.125,398.4071,249,1.0,D Trumpet 1,1.0,0.3,62,0.4961
955.125,955.125,398.4071,249,1.0,Timpani,1.0,0.3,50,0.4961
955.125,955.125,398.4071,249,1.0,D Horn 2,2.0,0.6,50,0.4961
955.125,955.125,398.4071,249,1.0,Violin 1,1.0,0.3,62,0.7087
955.125,955.125,398.4071,249,1.0,Contrabass,1.0,0.3,38,0.4961
955.125,955.125,398.4071,249,1.0,Violin 1,1.0,0.3,74,0.7087
955.125,955.125,398.4071,249,1.0,Violoncello,0.5,0.15,50,0.4961
955.125,955.125,398.4071,249,1.0,Oboe 2,2.0,0.6,62,0.4961
955.125,955.125,398.4071,249,1.0,Flute 1,1.0,0.3,86,0.4961
955.125,955.125,398.4071,249,1.0,D Horn 1,2.0,0.6,54,0.4961
955.125,955.125,398.4071,249,1.0,Bassoon 1,1.0,0.3,50,0.4961
955.125,955.125,398.4071,249,1.0,Viola,0.5,0.15,62,0.4961
955.125,955.125,398.4071,249,1.0,D Trumpet 2,1.0,0.3,62,0.4961
955.625,955.625,398.5571,249,1.5,Violoncello,0.5,0.15,62,0.4961
955.625,955.625,398.5571,249,1.5,Viola,0.5,0.15,74,0.4961
956.125,956.125,398.7071,249,2.0,Viola,0.5,0.15,74,0.4961
956.125,956.125,398.7071,249,2.0,Violoncello,0.5,0.15,62,0.4961
956.625,956.625,398.8571,249,2.5,Viola,0.5,0.15,74,0.4961
956.625,956.625,398.8571,249,2.5,Violoncello,0.5,0.15,62,0.4961
957.125,957.125,399.0071,249,3.0,Oboe 1,1.75,0.525,69,0.4961
957.125,957.125,399.0071,249,3.0,Oboe 2,1.75,0.525,66,0.4961
957.125,957.125,399.0071,249,3.0,Contrabass,1.0,0.3,38,0.4961
957.125,957.125,399.0071,249,3.0,D Horn 1,1.75,0.525,57,0.4961
957.125,957.125,399.0071,249,3.0,Viola,0.5,0.15,62,0.4961
957.125,957.125,399.0071,249,3.0,Violoncello,0.5,0.15,50,0.4961
957.125,957.125,399.0071,249,3.0,D Horn 2,1.75,0.525,54,0.4961
957.625,957.625,399.1571,249,3.5,Violoncello,0.5,0.15,62,0.4961
957.625,957.625,399.1571,249,3.5,Viola,0.5,0.15,74,0.4961
958.125,958.125,399.3071,249,4.0,Viola,0.5,0.15,74,0.4961
958.125,958.125,399.3071,249,4.0,Violoncello,0.5,0.15,62,0.4961
958.625,958.625,399.4571,249,4.5,Violoncello,0.5,0.15,62,0.4961
958.625,958.625,399.4571,249,4.5,Viola,0.5,0.15,74,0.4961
958.875,958.875,399.5321,249,4.75,D Horn 2,0.25,0.075,57,0.4961
958.875,958.875,399.5321,249,4.75,Oboe 1,0.25,0.075,74,0.4961
958.875,958.875,399.5321,249,4.75,D Horn 1,0.25,0.075,62,0.4961
958.875,958.875,399.5321,249,4.75,Oboe 2,0.25,0.075,69,0.4961
959.125,959.125,399.6071,250,1.0,D Horn 2,3.0,0.9,62,0.4961
959.125,959.125,399.6071,250,1.0,D Horn 1,3.0,0.9,66,0.4961
959.125,959.125,399.6071,250,1.0,Oboe 1,3.0,0.9,78,0.4961
959.125,959.125,399.6071,250,1.0,Oboe 2,3.0,0.9,74,0.4961
959.125,959.125,399.6071,250,1.0,Viola,0.5,0.15,62,0.4961
959.125,959.125,399.6071,250,1.0,Contrabass,1.0,0.3,38,0.4961
959.125,959.125,399.6071,250,1.0,Violoncello,0.5,0.15,50,0.4961
959.625,959.625,399.7571,250,1.5,Viola,0.5,0.15,74,0.4961
959.625,959.625,399.7571,250,1.5,Violoncello,0.5,0.15,62,0.4961
960.125,960.125,399.9071,250,2.0,Violoncello,0.5,0.15,62,0.4961
960.125,960.125,399.9071,250,2.0,Viola,0.5,0.15,74,0.4961
960.625,960.625,400.0571,250,2.5,Viola,0.5,0.15,74,0.4961
960.625,960.625,400.0571,250,2.5,Violoncello,0.5,0.15,62,0.4961
961.125,961.125,400.2071,250,3.0,Violoncello,0.5,0.15,62,0.4961
961.125,961.125,400.2071,250,3.0,Viola,0.5,0.15,74,0.4961
961.625,961.625,400.3571,250,3.5,Viola,0.5,0.15,74,0.4961
961.625,961.625,400.3571,250,3.5,Violoncello,0.5,0.15,62,0.4961
962.125,962.125,400.5071,250,4.0,Oboe 1,0.75,0.225,78,0.4961
962.125,962.125,400.5071,250,4.0,A Clarinet 2,0.75,0.225,62,0.4961
962.125,962.125,400.5071,250,4.0,Violoncello,0.5,0.15,62,0.4961
962.125,962.125,400.5071,250,4.0,Viola,0.5,0.15,74,0.4961
962.125,962.125,400.5071,250,4.0,D Horn 2,1.0,0.3,50,0.4961
962.125,962.125,400.5071,250,4.0,Oboe 2,0.75,0.225,74,0.4961
962.125,962.125,400.5071,250,4.0,D Horn 1,1.0,0.3,62,0.4961
962.125,962.125,400.5071,250,4.0,A Clarinet 1,0.75,0.225,66,0.4961
962.625,962.625,400.6571,250,4.5,Viola,0.5,0.15,74,0.4961
962.625,962.625,400.6571,250,4.5,Violoncello,0.5,0.15,62,0.4961
962.875,962.875,400.7321,250,4.75,A Clarinet 1,0.25,0.075,67,0.4961
962.875,962.875,400.7321,250,4.75,Oboe 1,0.25,0.075,79,0.4961
962.875,962.875,400.7321,250,4.75,Oboe 2,0.25,0.075,76,0.4961
962.875,962.875,400.7321,250,4.75,A Clarinet 2,0.25,0.075,64,0.4961
963.125,963.125,400.8071,251,1.0,Violoncello,0.5,0.15,62,0.4961
963.125,963.125,400.8071,251,1.0,D Horn 2,1.0,0.3,50,0.4961
963.125,963.125,400.8071,251,1.0,A Clarinet 1,1.0,0.3,69,0.5461
963.125,963.125,400.8071,251,1.0,A Clarinet 2,1.0,0.3,66,0.5461
963.125,963.125,400.8071,251,1.0,Oboe 2,1.0,0.3,78,0.5461
963.125,963.125,400.8071,251,1.0,Viola,0.5,0.15,74,0.4961
963.125,963.125,400.8071,251,1.0,Oboe 1,1.0,0.3,81,0.5461
963.125,963.125,400.8071,251,1.0,D Horn 1,1.0,0.3,62,0.4961
963.625,963.625,400.9571,251,1.5,Viola,0.5,0.15,74,0.4961
963.625,963.625,400.9571,251,1.5,Violoncello,0.5,0.15,62,0.4961
964.125,964.125,401.1071,251,2.0,D Horn 2,1.0,0.3,50,0.4961
964.125,964.125,401.1071,251,2.0,Viola,0.5,0.15,74,0.4961
964.125,964.125,401.1071,251,2.0,A Clarinet 1,1.0,0.3,69,0.5461
964.125,964.125,401.1071,251,2.0,A Clarinet 2,1.0,0.3,66,0.5461
964.125,964.125,401.1071,251,2.0,D Horn 1,1.0,0.3,62,0.4961
964.125,964.125,401.1071,251,2.0,Violoncello,0.5,0.15,62,0.4961
964.125,964.125,401.1071,251,2.0,Oboe 2,1.0,0.3,78,0.5461
964.125,964.125,401.1071,251,2.0,Oboe 1,1.0,0.3,81,0.5461
964.625,964.625,401.2571,251,2.5,Viola,0.5,0.15,74,0.4961
964.625,964.625,401.2571,251,2.5,Violoncello,0.5,0.15,62,0.4961
965.125,965.125,401.4071,251,3.0,D Horn 1,1.0,0.3,62,0.4961
965.125,965.125,401.4071,251,3.0,A Clarinet 1,1.0,0.3,69,0.5461
965.125,965.125,401.4071,251,3.0,Violoncello,0.5,0.15,62,0.4961
965.125,965.125,401.4071,251,3.0,Oboe 1,1.0,0.3,81,0.5461
965.125,965.125,401.4071,251,3.0,Oboe 2,1.0,0.3,78,0.5461
965.125,965.125,401.4071,251,3.0,Viola,0.5,0.15,74,0.4961
965.125,965.125,401.4071,251,3.0,D Horn 2,1.0,0.3,50,0.4961
965.125,965.125,401.4071,251,3.0,A Clarinet 2,1.0,0.3,66,0.5461
965.625,965.625,401.5571,251,3.5,Viola,0.5,0.15,74,0.4961
965.625,965.625,401.5571,251,3.5,Violoncello,0.5,0.15,62,0.4961
966.125,966.125,401.7071,251,4.0,D Horn 2,1.0,0.3,50,0.4961
966.125,966.125,401.7071,251,4.0,A Clarinet 2,1.0,0.3,67,0.5461
966.125,966.125,401.7071,251,4.0,A Clarinet 1,1.0,0.3,71,0.5461
966.125,966.125,401.7071,251,4.0,Oboe 1,1.0,0.3,83,0.5461
966.125,966.125,401.7071,251,4.0,Viola,0.5,0.15,74,0.4961
966.125,966.125,401.7071,251,4.0,Oboe 2,1.0,0.3,79,0.5461
966.125,966.125,401.7071,251,4.0,Violoncello,0.5,0.15,62,0.4961
966.125,966.125,401.7071,251,4.0,D Horn 1,1.0,0.3,62,0.4961
966.625,966.625,401.8571,251,4.5,Violoncello,0.5,0.15,62,0.4961
966.625,966.625,401.8571,251,4.5,Viola,0.5,0.15,74,0.4961
967.125,967.125,402.0071,252,1.0,D Horn 1,3.0,0.9,62,0.4961
967.125,967.125,402.0071,252,1.0,D Horn 2,3.0,0.9,50,0.4961
967.125,967.125,402.0071,252,1.0,Violoncello,0.5,0.15,62,0.4961
967.125,967.125,402.0071,252,1.0,Oboe 2,2.0,0.6,78,0.4961
967.125,967.125,402.0071,252,1.0,A Clarinet 1,2.0,0.6,69,0.4961
967.125,967.125,402.0071,252,1.0,Viola,0.5,0.15,74,0.4961
967.125,967.125,402.0071,252,1.0,Oboe 1,2.0,0.6,81,0.4961
967.125,967.125,402.0071,252,1.0,A Clarinet 2,2.0,0.6,66,0.4961
967.625,967.625,402.1571,252,1.5,Viola,0.5,0.15,74,0.4961
967.625,967.625,402.1571,252,1.5,Violoncello,0.5,0.15,62,0.4961
968.125,968.125,402.3071,252,2.0,Viola,0.5,0.15,74,0.4961
968.125,968.125,402.3071,252,2.0,Violoncello,0.5,0.15,62,0.4961
968.625,968.625,402.4571,252,2.5,Viola,0.5,0.15,74,0.4961
968.625,968.625,402.4571,252,2.5,Violoncello,0.5,0.15,62,0.4961
969.125,969.125,402.6071,252,3.0,Violoncello,0.5,0.15,62,0.4961
969.125,969.125,402.6071,252,3.0,A Clarinet 2,1.0,0.3,62,0.4961
969.125,969.125,402.6071,252,3.0,Oboe 2,1.0,0.3,74,0.4961
969.125,969.125,402.6071,252,3.0,A Clarinet 1,1.0,0.3,66,0.4961
969.125,969.125,402.6071,252,3.0,Viola,0.5,0.15,74,0.4961
969.125,969.125,402.6071,252,3.0,Oboe 1,1.0,0.3,78,0.4961
969.625,969.625,402.7571,252,3.5,Viola,0.5,0.15,74,0.4961
969.625,969.625,402.7571,252,3.5,Violoncello,0.5,0.15,62,0.4961
970.125,970.125,402.9071,252,4.0,Violoncello,0.5,0.15,62,0.4961
970.125,970.125,402.9071,252,4.0,Viola,0.5,0.15,74,0.4961
970.625,970.625,403.0571,252,4.5,Viola,0.5,0.15,74,0.4961
970.625,970.625,403.0571,252,4.5,Violoncello,0.5,0.15,62,0.4961
971.125,971.125,403.2071,253,1.0,Violin 2,2.0,0.6,74,1.0
971.125,971.125,403.2071,253,1.0,Flute 2,2.0,0.6,86,1.0
971.125,971.125,403.2071,253,1.0,Oboe 2,2.0,0.6,74,1.0
971.125,971.125,403.2071,253,1.0,A Clarinet 2,2.0,0.6,62,1.0
971.125,971.125,403.2071,253,1.0,Violin 1,2.0,0.6,78,1.0
971.125,971.125,403.2071,253,1.0,Timpani,2.0,0.6,50,1.0
971.125,971.125,403.2071,253,1.0,Contrabass,0.5,0.15,35,1.0
971.125,971.125,403.2071,253,1.0,D Trumpet 1,2.0,0.6,74,1.0
971.125,971.125,403.2071,253,1.0,A Clarinet 1,2.0,0.6,66,1.0
971.125,971.125,403.2071,253,1.0,D Trumpet 2,2.0,0.6,66,1.0
971.125,971.125,403.2071,253,1.0,Oboe 1,2.0,0.6,78,1.0
971.125,971.125,403.2071,253,1.0,Flute 1,2.0,0.6,90,1.0
971.125,971.125,403.2071,253,1.0,Violoncello,0.5,0.15,47,1.0
971.125,971.125,403.2071,253,1.0,Viola,0.5,0.15,59,1.0
971.625,971.625,403.3571,253,1.5,Violoncello,0.5,0.15,59,1.0
971.625,971.625,403.3571,253,1.5,Contrabass,0.5,0.15,47,1.0
971.625,971.625,403.3571,253,1.5,Viola,0.5,0.15,71,1.0
972.125,972.125,403.5071,253,2.0,Violoncello,0.5,0.15,54,1.0
972.125,972.125,403.5071,253,2.0,Viola,0.5,0.15,66,1.0
972.125,972.125,403.5071,253,2.0,Contrabass,0.5,0.15,42,1.0
972.625,972.625,403.6571,253,2.5,Violoncello,0.5,0.15,50,1.0
972.625,972.625,403.6571,253,2.5,Contrabass,0.5,0.15,38,1.0
972.625,972.625,403.6571,253,2.5,Viola,0.5,0.15,62,1.0
973.125,973.125,403.8071,253,3.0,Oboe 2,1.75,0.525,74,1.0
973.125,973.125,403.8071,253,3.0,Violin 2,1.75,0.525,78,1.0
973.125,973.125,403.8071,253,3.0,Flute 2,1.75,0.525,86,1.0
973.125,973.125,403.8071,253,3.0,Violoncello,0.5,0.15,47,1.0
973.125,973.125,403.8071,253,3.0,A Clarinet 1,1.75,0.525,71,1.0
973.125,973.125,403.8071,253,3.0,Flute 1,1.75,0.525,90,1.0
973.125,973.125,403.8071,253,3.0,D Trumpet 2,1.75,0.525,66,1.0
973.125,973.125,403.8071,253,3.0,A Clarinet 2,1.75,0.525,66,1.0
973.125,973.125,403.8071,253,3.0,Contrabass,0.5,0.15,35,1.0
973.125,973.125,403.8071,253,3.0,Timpani,1.75,0.525,50,1.0
973.125,973.125,403.8071,253,3.0,D Trumpet 1,1.75,0.525,74,1.0
973.125,973.125,403.8071,253,3.0,Oboe 1,1.75,0.525,78,1.0
973.125,973.125,403.8071,253,3.0,Violin 1,1.75,0.525,83,1.0
973.125,973.125,403.8071,253,3.0,Viola,0.5,0.15,59,1.0
973.625,973.625,403.9571,253,3.5,Contrabass,0.5,0.15,47,1.0
973.625,973.625,403.9571,253,3.5,Viola,0.5,0.15,71,1.0
973.625,973.625,403.9571,253,3.5,Violoncello,0.5,0.15,59,1.0
974.125,974.125,404.1071,253,4.0,Contrabass,0.5,0.15,42,1.0
974.125,974.125,404.1071,253,4.0,Violoncello,0.5,0.15,54,1.0
974.125,974.125,404.1071,253,4.0,Viola,0.5,0.15,66,1.0
974.625,974.625,404.2571,253,4.5,Contrabass,0.5,0.15,38,1.0
974.625,974.625,404.2571,253,4.5,Violoncello,0.5,0.15,50,1.0
974.625,974.625,404.2571,253,4.5,Viola,0.5,0.15,62,1.0
974.875,974.875,404.3321,253,4.75,D Trumpet 1,0.25,0.075,74,1.0
974.875,974.875,404.3321,253,4.75,Violin 2,0.25,0.075,83,1.0
974.875,974.875,404.3321,253,4.75,Oboe 2,0.25,0.075,74,1.0
974.875,974.875,404.3321,253,4.75,Timpani,0.25,0.075,50,1.0
974.875,974.875,404.3321,253,4.75,D Trumpet 2,0.25,0.075,66,1.0
974.875,974.875,404.3321,253,4.75,Violin 1,0.25,0.075,86,1.0
974.875,974.875,404.3321,253,4.75,Flute 2,0.25,0.075,86,1.0
974.875,974.875,404.3321,253,4.75,A Clarinet 2,0.25,0.075,71,1.0
974.875,974.875,404.3321,253,4.75,Flute 1,0.25,0.075,90,1.0
974.875,974.875,404.3321,253,4.75,Oboe 1,0.25,0.075,78,1.0
974.875,974.875,404.3321,253,4.75,A Clarinet 1,0.25,0.075,74,1.0
975.125,975.125,404.4071,254,1.0,D Trumpet 1,3.0,0.9,74,0.9921
975.125,975.125,404.4071,254,1.0,Viola,0.5,0.15,59,1.0
975.125,975.125,404.4071,254,1.0,Oboe 2,3.0,0.9,74,0.9921
975.125,975.125,404.4071,254,1.0,Timpani,1.0,0.3,50,1.0
975.125,975.125,404.4071,254,1.0,Contrabass,0.5,0.15,35,1.0
975.125,975.125,404.4071,254,1.0,D Trumpet 2,3.0,0.9,66,0.9921
975.125,975.125,404.4071,254,1.0,A Clarinet 2,3.0,0.9,74,0.9921
975.125,975.125,404.4071,254,1.0,Oboe 1,3.0,0.9,78,0.9921
975.125,975.125,404.4071,254,1.0,A Clarinet 1,3.0,0.9,78,0.9921
975.125,975.125,404.4071,254,1.0,Flute 2,3.0,0.9,83,0.9921
975.125,975.125,404.4071,254,1.0,Violoncello,0.5,0.15,47,1.0
975.125,975.125,404.4071,254,1.0,Flute 1,3.0,0.9,86,0.9921
975.125,975.125,404.4071,254,1.0,Violin 1,3.0,0.9,90,0.9921
975.125,975.125,404.4071,254,1.0,Violin 2,3.0,0.9,86,0.9921
975.625,975.625,404.5571,254,1.5,Viola,0.5,0.15,71,1.0
975.625,975.625,404.5571,254,1.5,Contrabass,0.5,0.15,47,1.0
975.625,975.625,404.5571,254,1.5,Violoncello,0.5,0.15,59,1.0
976.125,976.125,404.7071,254,2.0,Violoncello,0.5,0.15,54,1.0
976.125,976.125,404.7071,254,2.0,Contrabass,0.5,0.15,42,1.0
976.125,976.125,404.7071,254,2.0,Viola,0.5,0.15,66,1.0
976.625,976.625,404.8571,254,2.5,Viola,0.5,0.15,62,1.0
976.625,976.625,404.8571,254,2.5,Violoncello,0.5,0.15,50,1.0
976.625,976.625,404.8571,254,2.5,Contrabass,0.5,0.15,38,1.0
977.125,977.125,405.0071,254,3.0,Violoncello,0.5,0.15,47,1.0
977.125,977.125,405.0071,254,3.0,Contrabass,0.5,0.15,35,1.0
977.125,977.125,405.0071,254,3.0,Viola,0.5,0.15,59,1.0
977.625,977.625,405.1571,254,3.5,Contrabass,0.5,0.15,47,1.0
977.625,977.625,405.1571,254,3.5,Violoncello,0.5,0.15,59,1.0
977.625,977.625,405.1571,254,3.5,Viola,0.5,0.15,71,1.0
978.125,978.125,405.3071,254,4.0,Violoncello,0.5,0.15,61,1.0
978.125,978.125,405.3071,254,4.0,Contrabass,0.5,0.15,49,1.0
978.125,978.125,405.3071,254,4.0,Violin 2,0.75,0.225,78,0.9921
978.125,978.125,405.3071,254,4.0,Violin 1,0.75,0.225,86,0.9921
978.125,978.125,405.3071,254,4.0,Viola,0.5,0.15,73,1.0
978.625,978.625,405.4571,254,4.5,Viola,0.5,0.15,74,1.0
978.625,978.625,405.4571,254,4.5,Contrabass,0.5,0.15,50,1.0
978.625,978.625,405.4571,254,4.5,Violoncello,0.5,0.15,62,1.0
978.875,978.875,405.5321,254,4.75,Violin 2,0.25,0.075,74,0.9921
978.875,978.875,405.5321,254,4.75,Violin 1,0.25,0.075,83,0.9921
979.125,979.125,405.6071,255,1.0,Contrabass,0.5,0.15,40,1.0
979.125,979.125,405.6071,255,1.0,Violin 2,1.0,0.3,73,1.0
979.125,979.125,405.6071,255,1.0,Violin 1,1.0,0.3,88,1.0
979.125,979.125,405.6071,255,1.0,Violoncello,0.5,0.15,52,1.0
979.125,979.125,405.6071,255,1.0,Viola,0.5,0.15,64,1.0
979.625,979.625,405.7571,255,1.5,Violoncello,0.5,0.15,64,1.0
979.625,979.625,405.7571,255,1.5,Viola,0.5,0.15,76,1.0
979.625,979.625,405.7571,255,1.5,Contrabass,0.5,0.15,52,1.0
980.125,980.125,405.9071,255,2.0,Violoncello,0.5,0.15,64,1.0
980.125,980.125,405.9071,255,2.0,Bassoon 1,1.0,0.3,64,1.0
980.125,980.125,405.9071,255,2.0,Contrabass,0.5,0.15,52,1.0
980.125,980.125,405.9071,255,2.0,Oboe 1,1.0,0.3,88,1.0
980.125,980.125,405.9071,255,2.0,Viola,0.5,0.15,76,1.0
980.125,980.125,405.9071,255,2.0,Oboe 2,1.0,0.3,76,1.0
980.125,980.125,405.9071,255,2.0,Flute 1,1.0,0.3,88,1.0
980.125,980.125,405.9071,255,2.0,Violin 1,0.75,0.225,85,1.0
980.125,980.125,405.9071,255,2.0,Violin 2,0.75,0.225,76,1.0
980.125,980.125,405.9071,255,2.0,Bassoon 2,1.0,0.3,52,1.0
980.625,980.625,406.0571,255,2.5,Viola,0.5,0.15,76,1.0
980.625,980.625,406.0571,255,2.5,Violoncello,0.5,0.15,64,1.0
980.625,980.625,406.0571,255,2.5,Contrabass,0.5,0.15,52,1.0
980.875,980.875,406.1321,255,2.75,Violin 2,0.25,0.075,73,1.0
980.875,980.875,406.1321,255,2.75,Violin 1,0.25,0.075,81,1.0
981.125,981.125,406.2071,255,3.0,Violoncello,0.5,0.15,52,1.0
981.125,981.125,406.2071,255,3.0,Viola,0.5,0.15,64,1.0
981.125,981.125,406.2071,255,3.0,Violin 2,1.0,0.3,71,1.0
981.125,981.125,406.2071,255,3.0,Contrabass,0.5,0.15,40,1.0
981.125,981.125,406.2071,255,3.0,Violin 1,1.0,0.3,86,1.0
981.625,981.625,406.3571,255,3.5,Contrabass,0.5,0.15,52,1.0
981.625,981.625,406.3571,255,3.5,Viola,0.5,0.15,76,1.0
981.625,981.625,406.3571,255,3.5,Violoncello,0.5,0.15,64,1.0
982.125,982.125,406.5071,255,4.0,Oboe 1,1.0,0.3,86,1.0
982.125,982.125,406.5071,255,4.0,Contrabass,0.5,0.15,52,1.0
982.125,982.125,406.5071,255,4.0,Oboe 2,1.0,0.3,76,1.0
982.125,982.125,406.5071,255,4.0,Violin 1,0.75,0.225,83,1.0
982.125,982.125,406.5071,255,4.0,Viola,0.5,0.15,76,1.0
982.125,982.125,406.5071,255,4.0,Violin 2,0.75,0.225,74,1.0
982.125,982.125,406.5071,255,4.0,Bassoon 1,1.0,0.3,62,1.0
982.125,982.125,406.5071,255,4.0,Bassoon 2,1.0,0.3,52,1.0
982.125,982.125,406.5071,255,4.0,Violoncello,0.5,0.15,64,1.0
982.125,982.125,406.5071,255,4.0,Flute 1,1.0,0.3,88,1.0
982.625,982.625,406.6571,255,4.5,Contrabass,0.5,0.15,52,1.0
982.625,982.625,406.6571,255,4.5,Viola,0.5,0.15,76,1.0
982.625,982.625,406.6571,255,4.5,Violoncello,0.5,0.15,64,1.0
982.875,982.875,406.7321,255,4.75,Violin 2,0.25,0.075,71,1.0
982.875,982.875,406.7321,255,4.75,Violin 1,0.25,0.075,80,1.0
983.125,983.125,406.8071,256,1.0,Viola,1.0,0.3,69,1.0
983.125,983.125,406.8071,256,1.0,Flute 1,1.0,0.3,81,1.0
983.125,983.125,406.8071,256,1.0,Violin 1,1.0,0.3,81,1.0
983.125,983.125,406.8071,256,1.0,Bassoon 2,1.0,0.3,57,1.0
983.125,983.125,406.8071,256,1.0,Contrabass,1.0,0.3,45,1.0
983.125,983.125,406.8071,256,1.0,Violoncello,1.0,0.3,57,1.0
983.125,983.125,406.8071,256,1.0,Oboe 1,1.0,0.3,81,1.0
983.125,983.125,406.8071,256,1.0,Violin 2,1.0,0.3,73,1.0
983.125,983.125,406.8071,256,1.0,Bassoon 1,1.0,0.3,61,1.0
983.125,983.125,406.8071,256,1.0,Oboe 2,1.0,0.3,73,1.0
984.125,984.125,407.1071,256,2.0,Violin 1,0.25,0.075,69,0.4961
984.125,984.125,407.1071,256,2.0,Oboe 2,1.0,0.3,69,0.4961
984.125,984.125,407.1071,256,2.0,A Clarinet 2,1.0,0.3,57,0.4961
984.125,984.125,407.1071,256,2.0,Oboe 1,1.0,0.3,73,0.4961
984.125,984.125,407.1071,256,2.0,A Clarinet 1,1.0,0.3,61,0.4961
984.375,984.375,407.1821,256,2.25,Violin 1,0.25,0.075,71,0.4961
984.625,984.625,407.2571,256,2.5,Violin 1,0.25,0.075,73,0.4961
984.875,984.875,407.3321,256,2.75,Violin 1,0.25,0.075,74,0.4961
985.125,985.125,407.4071,256,3.0,A Clarinet 1,1.0,0.3,64,0.4961
985.125,985.125,407.4071,256,3.0,A Clarinet 2,1.0,0.3,61,0.4961
985.125,985.125,407.4071,256,3.0,Oboe 2,1.0,0.3,73,0.4961
985.125,985.125,407.4071,256,3.0,Violin 1,0.25,0.075,76,0.4961
985.125,985.125,407.4071,256,3.0,Oboe 1,1.0,0.3,76,0.4961
985.375,985.375,407.4821,256,3.25,Violin 1,0.25,0.075,78,0.4961
985.625,985.625,407.5571,256,3.5,Violin 1,0.25,0.075,79,0.4961
985.875,985.875,407.6321,256,3.75,Violin 1,0.25,0.075,78,0.4961
986.125,986.125,407.7071,256,4.0,A Clarinet 2,1.0,0.3,64,0.4961
986.125,986.125,407.7071,256,4.0,Oboe 1,1.0,0.3,79,0.4961
986.125,986.125,407.7071,256,4.0,A Clarinet 1,1.0,0.3,67,0.4961
986.125,986.125,407.7071,256,4.0,Oboe 2,1.0,0.3,76,0.4961
986.125,986.125,407.7071,256,4.0,Violin 1,0.25,0.075,81,0.4961
986.375,986.375,407.7821,256,4.25,Violin 1,0.25,0.075,79,0.4961
986.625,986.625,407.8571,256,4.5,Violin 1,0.25,0.075,78,0.4961
986.875,986.875,407.9321,256,4.75,Violin 1,0.25,0.075,76,0.4961
987.125,987.125,408.0071,257,1.0,Contrabass,1.0,0.3,38,0.4961
987.125,987.125,408.0071,257,1.0,Oboe 1,1.0,0.3,78,0.4961
987.125,987.125,408.0071,257,1.0,D Horn 1,2.0,0.6,62,0.4961
987.125,987.125,408.0071,257,1.0,D Horn 2,2.0,0.6,50,0.4961
987.125,987.125,408.0071,257,1.0,Violin 1,1.0,0.3,74,0.4961
987.125,987.125,408.0071,257,1.0,Violoncello,0.5,0.15,50,0.4961
987.125,987.125,408.0071,257,1.0,Viola,0.5,0.15,62,0.4961
987.125,987.125,408.0071,257,1.0,Bassoon 1,2.0,0.6,54,0.4961
987.125,987.125,408.0071,257,1.0,Bassoon 2,2.0,0.6,50,0.4961
987.125,987.125,408.0071,257,1.0,Flute 2,2.0,0.6,74,0.4961
987.125,987.125,408.0071,257,1.0,Oboe 2,1.0,0.3,74,0.4961
987.125,987.125,408.0071,257,1.0,A Clarinet 1,1.0,0.3,66,0.4961
987.125,987.125,408.0071,257,1.0,Flute 1,2.0,0.6,78,0.4961
987.125,987.125,408.0071,257,1.0,A Clarinet 2,1.0,0.3,62,0.4961
987.625,987.625,408.1571,257,1.5,Viola,0.5,0.15,74,0.4961
987.625,987.625,408.1571,257,1.5,Violoncello,0.5,0.15,62,0.4961
988.125,988.125,408.3071,257,2.0,Violin 2,0.25,0.075,74,0.4961
988.125,988.125,408.3071,257,2.0,Violin 1,0.25,0.075,86,0.4961
988.125,988.125,408.3071,257,2.0,Viola,0.5,0.15,74,0.4961
988.125,988.125,408.3071,257,2.0,Violoncello,0.5,0.15,62,0.4961
988.375,988.375,408.3821,257,2.25,Violin 2,0.25,0.075,73,0.4961
988.375,988.375,408.3821,257,2.25,Violin 1,0.25,0.075,85,0.4961
988.625,988.625,408.4571,257,2.5,Violoncello,0.5,0.15,62,0.4961
988.625,988.625,408.4571,257,2.5,Violin 1,0.25,0.075,86,0.4961
988.625,988.625,408.4571,257,2.5,Violin 2,0.25,0.075,74,0.4961
988.625,988.625,408.4571,257,2.5,Viola,0.5,0.15,74,0.4961
988.875,988.875,408.5321,257,2.75,Violin 2,0.25,0.075,73,0.4961
988.875,988.875,408.5321,257,2.75,Violin 1,0.25,0.075,85,0.4961
989.125,989.125,408.6071,257,3.0,Violin 2,0.25,0.075,74,0.4961
989.125,989.125,408.6071,257,3.0,Flute 1,1.75,0.525,81,0.4961
989.125,989.125,408.6071,257,3.0,Oboe 2,1.75,0.525,66,0.4961
989.125,989.125,408.6071,257,3.0,Bassoon 2,1.75,0.525,54,0.4961
989.125,989.125,408.6071,257,3.0,Viola,0.5,0.15,62,0.4961
989.125,989.125,408.6071,257,3.0,D Horn 2,1.75,0.525,50,0.4961
989.125,989.125,408.6071,257,3.0,Contrabass,1.0,0.3,38,0.4961
989.125,989.125,408.6071,257,3.0,Violoncello,0.5,0.15,50,0.4961
989.125,989.125,408.6071,257,3.0,Bassoon 1,1.75,0.525,57,0.4961
989.125,989.125,408.6071,257,3.0,Flute 2,1.75,0.525,78,0.4961
989.125,989.125,408.6071,257,3.0,Violin 1,0.25,0.075,86,0.4961
989.125,989.125,408.6071,257,3.0,D Horn 1,1.75,0.525,62,0.4961
989.125,989.125,408.6071,257,3.0,Oboe 1,1.75,0.525,69,0.4961
989.375,989.375,408.6821,257,3.25,Violin 2,0.25,0.075,73,0.4961
989.375,989.375,408.6821,257,3.25,Violin 1,0.25,0.075,85,0.4961
989.625,989.625,408.7571,257,3.5,Viola,0.5,0.15,74,0.4961
989.625,989.625,408.7571,257,3.5,Violoncello,0.5,0.15,62,0.4961
989.625,989.625,408.7571,257,3.5,Violin 1,0.25,0.075,86,0.4961
989.625,989.625,408.7571,257,3.5,Violin 2,0.25,0.075,74,0.4961
989.875,989.875,408.8321,257,3.75,Violin 1,0.25,0.075,85,0.4961
989.875,989.875,408.8321,257,3.75,Violin 2,0.25,0.075,73,0.4961
990.125,990.125,408.9071,257,4.0,Viola,0.5,0.15,74,0.4961
990.125,990.125,408.9071,257,4.0,Violin 2,0.25,0.075,74,0.4961
990.125,990.125,408.9071,257,4.0,Violin 1,0.25,0.075,86,0.4961
990.125,990.125,408.9071,257,4.0,Violoncello,0.5,0.15,62,0.4961
990.375,990.375,408.9821,257,4.25,Violin 2,0.25,0.075,73,0.4961
990.375,990.375,408.9821,257,4.25,Violin 1,0.25,0.075,85,0.4961
990.625,990.625,409.0571,257,4.5,Violin 2,0.25,0.075,74,0.4961
990.625,990.625,409.0571,257,4.5,Violoncello,0.5,0.15,62,0.4961
990.625,990.625,409.0571,257,4.5,Violin 1,0.25,0.075,86,0.4961
990.625,990.625,409.0571,257,4.5,Viola,0.5,0.15,74,0.4961
990.875,990.875,409.1321,257,4.75,Flute 1,0.25,0.075,86,0.4961
990.875,990.875,409.1321,257,4.75,Flute 2,0.25,0.075,78,0.4961
990.875,990.875,409.1321,257,4.75,Oboe 2,0.25,0.075,66,0.4961
990.875,990.875,409.1321,257,4.75,Violin 1,0.25,0.075,85,0.4961
990.875,990.875,409.1321,257,4.75,D Horn 1,0.25,0.075,62,0.4961
990.875,990.875,409.1321,257,4.75,Oboe 1,0.25,0.075,74,0.4961
990.875,990.875,409.1321,257,4.75,D Horn 2,0.25,0.075,50,0.4961
990.875,990.875,409.1321,257,4.75,Violin 2,0.25,0.075,73,0.4961
990.875,990.875,409.1321,257,4.75,Bassoon 2,0.25,0.075,54,0.4961
990.875,990.875,409.1321,257,4.75,Bassoon 1,0.25,0.075,62,0.4961
991.125,991.125,409.2071,258,1.0,Contrabass,1.0,0.3,38,0.4961
991.125,991.125,409.2071,258,1.0,D Horn 1,3.0,0.9,62,0.4961
991.125,991.125,409.2071,258,1.0,Bassoon 2,3.0,0.9,57,0.4961
991.125,991.125,409.2071,258,1.0,Oboe 1,3.0,0.9,78,0.4961
991.125,991.125,409.2071,258,1.0,Violin 2,0.25,0.075,74,0.4961
991.125,991.125,409.2071,258,1.0,Bassoon 1,3.0,0.9,66,0.4961
991.125,991.125,409.2071,258,1.0,Oboe 2,3.0,0.9,69,0.4961
991.125,991.125,409.2071,258,1.0,Flute 2,3.0,0.9,81,0.4961
991.125,991.125,409.2071,258,1.0,D Horn 2,3.0,0.9,50,0.4961
991.125,991.125,409.2071,258,1.0,Violoncello,0.5,0.15,50,0.4961
991.125,991.125,409.2071,258,1.0,Viola,0.5,0.15,62,0.4961
991.125,991.125,409.2071,258,1.0,Flute 1,3.0,0.9,90,0.4961
991.125,991.125,409.2071,258,1.0,Violin 1,0.25,0.075,86,0.4961
991.375,991.375,409.2821,258,1.25,Violin 2,0.25,0.075,73,0.4961
991.375,991.375,409.2821,258,1.25,Violin 1,0.25,0.075,85,0.4961
991.625,991.625,409.3571,258,1.5,Violoncello,0.5,0.15,62,0.4961
991.625,991.625,409.3571,258,1.5,Viola,0.5,0.15,74,0.4961
991.625,991.625,409.3571,258,1.5,Violin 2,0.25,0.075,74,0.4961
991.625,991.625,409.3571,258,1.5,Violin 1,0.25,0.075,86,0.4961
991.875,991.875,409.4321,258,1.75,Violin 2,0.25,0.075,73,0.4961
991.875,991.875,409.4321,258,1.75,Violin 1,0.25,0.075,85,0.4961
992.125,992.125,409.5071,258,2.0,Violoncello,0.5,0.15,62,0.4961
992.125,992.125,409.5071,258,2.0,Viola,0.5,0.15,74,0.4961
992.125,992.125,409.5071,258,2.0,Violin 1,0.25,0.075,86,0.4961
992.125,992.125,409.5071,258,2.0,Violin 2,0.25,0.075,74,0.4961
992.375,992.375,409.5821,258,2.25,Violin 1,0.25,0.075,85,0.4961
992.375,992.375,409.5821,258,2.25,Violin 2,0.25,0.075,73,0.4961
992.625,992.625,409.6571,258,2.5,Violoncello,0.5,0.15,62,0.4961
992.625,992.625,409.6571,258,2.5,Violin 1,0.25,0.075,86,0.4961
992.625,992.625,409.6571,258,2.5,Viola,0.5,0.15,74,0.4961
992.625,992.625,409.6571,258,2.5,Violin 2,0.25,0.075,74,0.4961
992.875,992.875,409.7321,258,2.75,Violin 2,0.25,0.075,73,0.4961
992.875,992.875,409.7321,258,2.75,Violin 1,0.25,0.075,85,0.4961
993.125,993.125,409.8071,258,3.0,Violoncello,0.5,0.15,62,0.4961
993.125,993.125,409.8071,258,3.0,Viola,0.5,0.15,74,0.4961
993.125,993.125,409.8071,258,3.0,Violin 2,0.25,0.075,74,0.4961
993.125,993.125,409.8071,258,3.0,Violin 1,0.25,0.075,86,0.4961
993.375,993.375,409.8821,258,3.25,Violin 1,0.25,0.075,85,0.4961
993.375,993.375,409.8821,258,3.25,Violin 2,0.25,0.075,73,0.4961
993.625,993.625,409.9571,258,3.5,Viola,0.5,0.15,74,0.4961
993.625,993.625,409.9571,258,3.5,Violin 2,0.25,0.075,74,0.4961
993.625,993.625,409.9571,258,3.5,Violoncello,0.5,0.15,62,0.4961
993.625,993.625,409.9571,258,3.5,Violin 1,0.25,0.075,86,0.4961
993.875,993.875,410.0321,258,3.75,Violin 2,0.25,0.075,73,0.4961
993.875,993.875,410.0321,258,3.75,Violin 1,0.25,0.075,85,0.4961
994.125,994.125,410.1071,258,4.0,Violin 1,0.25,0.075,86,0.4961
994.125,994.125,410.1071,258,4.0,Oboe 2,0.75,0.225,66,0.4961
994.125,994.125,410.1071,258,4.0,Violoncello,0.5,0.15,62,0.4961
994.125,994.125,410.1071,258,4.0,Violin 2,0.25,0.075,74,0.4961
994.125,994.125,410.1071,258,4.0,D Horn 1,0.75,0.225,62,0.4961
994.125,994.125,410.1071,258,4.0,Bassoon 2,0.75,0.225,54,0.4961
994.125,994.125,410.1071,258,4.0,Flute 1,0.75,0.225,86,0.4961
994.125,994.125,410.1071,258,4.0,Flute 2,0.75,0.225,78,0.4961
994.125,994.125,410.1071,258,4.0,Bassoon 1,0.75,0.225,62,0.4961
994.125,994.125,410.1071,258,4.0,Viola,0.5,0.15,74,0.4961
994.125,994.125,410.1071,258,4.0,D Horn 2,0.75,0.225,50,0.4961
994.125,994.125,410.1071,258,4.0,Oboe 1,0.75,0.225,74,0.4961
994.375,994.375,410.1821,258,4.25,Violin 2,0.25,0.075,73,0.4961
994.375,994.375,410.1821,258,4.25,Violin 1,0.25,0.075,85,0.4961
994.625,994.625,410.2571,258,4.5,Violin 1,0.25,0.075,86,0.4961
994.625,994.625,410.2571,258,4.5,Viola,0.5,0.15,74,0.4961
994.625,994.625,410.2571,258,4.5,Violoncello,0.5,0.15,62,0.4961
994.625,994.625,410.2571,258,4.5,Violin 2,0.25,0.075,74,0.4961
994.875,994.875,410.3321,258,4.75,Flute 2,0.25,0.075,79,0.4961
994.875,994.875,410.3321,258,4.75,D Horn 2,0.25,0.075,50,0.4961
994.875,994.875,410.3321,258,4.75,D Horn 1,0.25,0.075,62,0.4961
994.875,994.875,410.3321,258,4.75,Bassoon 2,0.25,0.075,55,0.4961
994.875,994.875,410.3321,258,4.75,Violin 2,0.25,0.075,73,0.4961
994.875,994.875,410.3321,258,4.75,Bassoon 1,0.25,0.075,64,0.4961
994.875,994.875,410.3321,258,4.75,Violin 1,0.25,0.075,85,0.4961
994.875,994.875,410.3321,258,4.75,Flute 1,0.25,0.075,88,0.4961
994.875,994.875,410.3321,258,4.75,Oboe 2,0.25,0.075,67,0.4961
994.875,994.875,410.3321,258,4.75,Oboe 1,0.25,0.075,76,0.4961
995.125,995.125,410.4071,259,1.0,Bassoon 1,1.0,0.3,66,0.5461
995.125,995.125,410.4071,259,1.0,Viola,0.5,0.15,74,0.4961
995.125,995.125,410.4071,259,1.0,Bassoon 2,1.0,0.3,57,0.5461
995.125,995.125,410.4071,259,1.0,D Horn 1,1.0,0.3,62,0.5461
995.125,995.125,410.4071,259,1.0,Flute 1,1.0,0.3,90,0.5461
995.125,995.125,410.4071,259,1.0,Violin 2,0.25,0.075,74,0.4961
995.125,995.125,410.4071,259,1.0,Oboe 1,1.0,0.3,78,0.5461
995.125,995.125,410.4071,259,1.0,Oboe 2,1.0,0.3,69,0.5461
995.125,995.125,410.4071,259,1.0,D Horn 2,1.0,0.3,50,0.5461
995.125,995.125,410.4071,259,1.0,Violin 1,0.25,0.075,86,0.4961
995.125,995.125,410.4071,259,1.0,Flute 2,1.0,0.3,81,0.5461
995.125,995.125,410.4071,259,1.0,Violoncello,0.5,0.15,62,0.4961
995.375,995.375,410.4821,259,1.25,Violin 2,0.25,0.075,73,0.4961
995.375,995.375,410.4821,259,1.25,Violin 1,0.25,0.075,85,0.4961
995.625,995.625,410.5571,259,1.5,Violin 2,0.25,0.075,74,0.4961
995.625,995.625,410.5571,259,1.5,Violin 1,0.25,0.075,86,0.4961
995.625,995.625,410.5571,259,1.5,Viola,0.5,0.15,74,0.4961
995.625,995.625,410.5571,259,1.5,Violoncello,0.5,0.15,62,0.4961
995.875,995.875,410.6321,259,1.75,Violin 1,0.25,0.075,85,0.4961
995.875,995.875,410.6321,259,1.75,Violin 2,0.25,0.075,73,0.4961
996.125,996.125,410.7071,259,2.0,Oboe 2,1.0,0.3,69,0.5461
996.125,996.125,410.7071,259,2.0,Violin 2,0.25,0.075,74,0.4961
996.125,996.125,410.7071,259,2.0,D Horn 1,1.0,0.3,62,0.5461
996.125,996.125,410.7071,259,2.0,Violoncello,0.5,0.15,62,0.4961
996.125,996.125,410.7071,259,2.0,Bassoon 1,1.0,0.3,66,0.5461
996.125,996.125,410.7071,259,2.0,Bassoon 2,1.0,0.3,57,0.5461
996.125,996.125,410.7071,259,2.0,Flute 1,1.0,0.3,90,0.5461
996.125,996.125,410.7071,259,2.0,Oboe 1,1.0,0.3,78,0.5461
996.125,996.125,410.7071,259,2.0,D Horn 2,1.0,0.3,50,0.5461
996.125,996.125,410.7071,259,2.0,Violin 1,0.25,0.075,86,0.4961
996.125,996.125,410.7071,259,2.0,Flute 2,1.0,0.3,81,0.5461
996.125,996.125,410.7071,259,2.0,Viola,0.5,0.15,74,0.4961
996.375,996.375,410.7821,259,2.25,Violin 1,0.25,0.075,85,0.4961
996.375,996.375,410.7821,259,2.25,Violin 2,0.25,0.075,73,0.4961
996.625,996.625,410.8571,259,2.5,Violin 1,0.25,0.075,86,0.4961
996.625,996.625,410.8571,259,2.5,Violin 2,0.25,0.075,74,0.4961
996.625,996.625,410.8571,259,2.5,Violoncello,0.5,0.15,62,0.4961
996.625,996.625,410.8571,259,2.5,Viola,0.5,0.15,74,0.4961
996.875,996.875,410.9321,259,2.75,Violin 2,0.25,0.075,73,0.4961
996.875,996.875,410.9321,259,2.75,Violin 1,0.25,0.075,85,0.4961
997.125,997.125,411.0071,259,3.0,Violoncello,0.5,0.15,62,0.4961
997.125,997.125,411.0071,259,3.0,Oboe 1,1.0,0.3,78,0.5461
997.125,997.125,411.0071,259,3.0,Violin 1,0.25,0.075,86,0.4961
997.125,997.125,411.0071,259,3.0,Flute 1,1.0,0.3,90,0.5461
997.125,997.125,411.0071,259,3.0,Oboe 2,1.0,0.3,69,0.5461
997.125,997.125,411.0071,259,3.0,D Horn 1,1.0,0.3,62,0.5461
997.125,997.125,411.0071,259,3.0,Flute 2,1.0,0.3,81,0.5461
997.125,997.125,411.0071,259,3.0,Bassoon 1,1.0,0.3,66,0.5461
997.125,997.125,411.0071,259,3.0,Bassoon 2,1.0,0.3,57,0.5461
997.125,997.125,411.0071,259,3.0,D Horn 2,1.0,0.3,50,0.5461
997.125,997.125,411.0071,259,3.0,Viola,0.5,0.15,74,0.4961
997.125,997.125,411.0071,259,3.0,Violin 2,0.25,0.075,74,0.4961
997.375,997.375,411.0821,259,3.25,Violin 2,0.25,0.075,73,0.4961
997.375,997.375,411.0821,259,3.25,Violin 1,0.25,0.075,85,0.4961
997.625,997.625,411.1571,259,3.5,Violin 2,0.25,0.075,74,0.4961
997.625,997.625,411.1571,259,3.5,Violin 1,0.25,0.075,86,0.4961
997.625,997.625,411.1571,259,3.5,Violoncello,0.5,0.15,62,0.4961
997.625,997.625,411.1571,259,3.5,Viola,0.5,0.15,74,0.4961
997.875,997.875,411.2321,259,3.75,Violin 1,0.25,0.075,85,0.4961
997.875,997.875,411.2321,259,3.75,Violin 2,0.25,0.075,73,0.4961
998.125,998.125,411.3071,259,4.0,Oboe 2,1.0,0.3,71,0.5461
998.125,998.125,411.3071,259,4.0,Violin 1,0.25,0.075,86,0.4961
998.125,998.125,411.3071,259,4.0,D Horn 1,1.0,0.3,62,0.5461
998.125,998.125,411.3071,259,4.0,Viola,0.5,0.15,74,0.4961
998.125,998.125,411.3071,259,4.0,Violin 2,0.25,0.075,74,0.4961
998.125,998.125,411.3071,259,4.0,Flute 1,1.0,0.3,91,0.5461
998.125,998.125,411.3071,259,4.0,D Horn 2,1.0,0.3,50,0.5461
998.125,998.125,411.3071,259,4.0,Bassoon 1,1.0,0.3,67,0.5461
998.125,998.125,411.3071,259,4.0,Bassoon 2,1.0,0.3,59,0.5461
998.125,998.125,411.3071,259,4.0,Oboe 1,1.0,0.3,79,0.5461
998.125,998.125,411.3071,259,4.0,Flute 2,1.0,0.3,83,0.5461
998.125,998.125,411.3071,259,4.0,Violoncello,0.5,0.15,62,0.4961
998.375,998.375,411.3821,259,4.25,Violin 1,0.25,0.075,85,0.4961
998.375,998.375,411.3821,259,4.25,Violin 2,0.25,0.075,73,0.4961
998.625,998.625,411.4571,259,4.5,Violin 1,0.25,0.075,86,0.4961
998.625,998.625,411.4571,259,4.5,Violoncello,0.5,0.15,62,0.4961
998.625,998.625,411.4571,259,4.5,Violin 2,0.25,0.075,74,0.4961
998.625,998.625,411.4571,259,4.5,Viola,0.5,0.15,74,0.4961
998.875,998.875,411.5321,259,4.75,Violin 1,0.25,0.075,85,0.4961
998.875,998.875,411.5321,259,4.75,Violin 2,0.25,0.075,73,0.4961
999.125,999.125,411.6071,260,1.0,Violin 1,0.25,0.075,86,0.4961
999.125,999.125,411.6071,260,1.0,Violoncello,0.5,0.15,62,0.4961
999.125,999.125,411.6071,260,1.0,Flute 1,2.0,0.6,90,0.4961
999.125,999.125,411.6071,260,1.0,Bassoon 1,2.0,0.6,66,0.4961
999.125,999.125,411.6071,260,1.0,Oboe 2,2.0,0.6,69,0.4961
999.125,999.125,411.6071,260,1.0,Oboe 1,2.0,0.6,78,0.4961
999.125,999.125,411.6071,260,1.0,Viola,0.5,0.15,74,0.4961
999.125,999.125,411.6071,260,1.0,Bassoon 2,2.0,0.6,57,0.4961
999.125,999.125,411.6071,260,1.0,D Horn 1,2.0,0.6,62,0.4961
999.125,999.125,411.6071,260,1.0,Violin 2,0.25,0.075,74,0.4961
999.125,999.125,411.6071,260,1.0,D Horn 2,2.0,0.6,50,0.4961
999.125,999.125,411.6071,260,1.0,Flute 2,2.0,0.6,81,0.4961
999.375,999.375,411.6821,260,1.25,Violin 2,0.25,0.075,73,0.4961
999.375,999.375,411.6821,260,1.25,Violin 1,0.25,0.075,85,0.4961
999.625,999.625,411.7571,260,1.5,Violin 1,0.25,0.075,86,0.4961
999.625,999.625,411.7571,260,1.5,Violin 2,0.25,0.075,74,0.4961
999.625,999.625,411.7571,260,1.5,Violoncello,0.5,0.15,62,0.4961
999.625,999.625,411.7571,260,1.5,Viola,0.5,0.15,74,0.4961
999.875,999.875,411.8321,260,1.75,Violin 2,0.25,0.075,73,0.4961
999.875,999.875,411.8321,260,1.75,Violin 1,0.25,0.075,85,0.4961
1000.125,1000.125,411.9071,260,2.0,Violin 2,0.25,0.075,74,0.4961
1000.125,1000.125,411.9071,260,2.0,Violoncello,0.5,0.15,62,0.4961
1000.125,1000.125,411.9071,260,2.0,Violin 1,0.25,0.075,86,0.4961
1000.125,1000.125,411.9071,260,2.0,Viola,0.5,0.15,74,0.4961
1000.375,1000.375,411.9821,260,2.25,Violin 2,0.25,0.075,73,0.4961
1000.375,1000.375,411.9821,260,2.25,Violin 1,0.25,0.075,85,0.4961
1000.625,1000.625,412.0571,260,2.5,Viola,0.5,0.15,74,0.4961
1000.625,1000.625,412.0571,260,2.5,Violoncello,0.5,0.15,62,0.4961
1000.625,1000.625,412.0571,260,2.5,Violin 1,0.25,0.075,86,0.4961
1000.625,1000.625,412.0571,260,2.5,Violin 2,0.25,0.075,74,0.4961
1000.875,1000.875,412.1321,260,2.75,Violin 1,0.25,0.075,85,0.4961
1000.875,1000.875,412.1321,260,2.75,Violin 2,0.25,0.075,73,0.4961
1001.125,1001.125,412.2071,260,3.0,Viola,0.5,0.15,74,0.4961
1001.125,1001.125,412.2071,260,3.0,Flute 2,0.5,0.15,78,0.4961
1001.125,1001.125,412.2071,260,3.0,Violoncello,0.5,0.15,62,0.4961
1001.125,1001.125,412.2071,260,3.0,Violin 1,0.5,0.15,86,0.5461
1001.125,1001.125,412.2071,260,3.0,Flute 1,0.5,0.15,86,0.4961
1001.125,1001.125,412.2071,260,3.0,Violin 2,0.5,0.15,74,0.5461
1001.125,1001.125,412.2071,260,3.0,D Horn 1,0.5,0.15,62,0.4961
1001.125,1001.125,412.2071,260,3.0,Oboe 2,0.5,0.15,66,0.4961
1001.125,1001.125,412.2071,260,3.0,D Horn 2,0.5,0.15,50,0.4961
1001.125,1001.125,412.2071,260,3.0,Oboe 1,0.5,0.15,74,0.4961
1001.125,1001.125,412.2071,260,3.0,Bassoon 2,0.5,0.15,54,0.4961
1001.125,1001.125,412.2071,260,3.0,Bassoon 1,0.5,0.15,62,0.4961
1001.625,1001.625,412.3571,260,3.5,Violin 2,0.5,0.15,66,1.0
1001.625,1001.625,412.3571,260,3.5,Violin 1,0.5,0.15,66,1.0
1002.125,1002.125,412.5071,260,4.0,Violin 1,0.5,0.15,71,1.0
1002.125,1002.125,412.5071,260,4.0,Violin 2,0.5,0.15,71,1.0
1002.625,1002.625,412.6571,260,4.5,Violin 1,0.5,0.15,74,1.0
1002.625,1002.625,412.6571,260,4.5,Violin 2,0.5,0.15,74,1.0
1003.125,1003.125,412.8071,261,1.0,Bassoon 2,2.0,0.6,50,1.0
1003.125,1003.125,412.8071,261,1.0,A Clarinet 1,2.0,0.6,66,1.0
1003.125,1003.125,412.8071,261,1.0,Contrabass,0.5,0.15,35,1.0
1003.125,1003.125,412.8071,261,1.0,Violin 1,0.5,0.15,78,1.0
1003.125,1003.125,412.8071,261,1.0,Oboe 2,2.0,0.6,74,1.0
1003.125,1003.125,412.8071,261,1.0,Flute 2,2.0,0.6,74,1.0
1003.125,1003.125,412.8071,261,1.0,A Clarinet 2,2.0,0.6,62,1.0
1003.125,1003.125,412.8071,261,1.0,Bassoon 1,2.0,0.6,54,1.0
1003.125,1003.125,412.8071,261,1.0,Flute 1,2.0,0.6,78,1.0
1003.125,1003.125,412.8071,261,1.0,Viola,0.5,0.15,59,1.0
1003.125,1003.125,412.8071,261,1.0,Timpani,2.0,0.6,50,1.0
1003.125,1003.125,412.8071,261,1.0,D Trumpet 1,2.0,0.6,74,1.0
1003.125,1003.125,412.8071,261,1.0,Violoncello,0.5,0.15,47,1.0
1003.125,1003.125,412.8071,261,1.0,Oboe 1,2.0,0.6,78,1.0
1003.125,1003.125,412.8071,261,1.0,Violin 2,0.5,0.15,78,1.0
1003.125,1003.125,412.8071,261,1.0,D Trumpet 2,2.0,0.6,62,1.0
1003.625,1003.625,412.9571,261,1.5,Viola,0.5,0.15,71,1.0
1003.625,1003.625,412.9571,261,1.5,Violoncello,0.5,0.15,59,1.0
1003.625,1003.625,412.9571,261,1.5,Violin 2,0.5,0.15,62,1.0
1003.625,1003.625,412.9571,261,1.5,Contrabass,0.5,0.15,47,1.0
1003.625,1003.625,412.9571,261,1.5,Violin 1,0.5,0.15,62,1.0
1004.125,1004.125,413.1071,261,2.0,Violoncello,0.5,0.15,54,1.0
1004.125,1004.125,413.1071,261,2.0,Viola,0.5,0.15,66,1.0
1004.125,1004.125,413.1071,261,2.0,Violin 1,0.5,0.15,66,1.0
1004.125,1004.125,413.1071,261,2.0,Contrabass,0.5,0.15,42,1.0
1004.125,1004.125,413.1071,261,2.0,Violin 2,0.5,0.15,66,1.0
1004.625,1004.625,413.2571,261,2.5,Violin 1,0.5,0.15,71,1.0
1004.625,1004.625,413.2571,261,2.5,Violoncello,0.5,0.15,50,1.0
1004.625,1004.625,413.2571,261,2.5,Viola,0.5,0.15,62,1.0
1004.625,1004.625,413.2571,261,2.5,Violin 2,0.5,0.15,71,1.0
1004.625,1004.625,413.2571,261,2.5,Contrabass,0.5,0.15,38,1.0
1005.125,1005.125,413.4071,261,3.0,Viola,0.5,0.15,59,1.0
1005.125,1005.125,413.4071,261,3.0,Bassoon 2,1.75,0.525,54,1.0
1005.125,1005.125,413.4071,261,3.0,Flute 2,1.75,0.525,78,1.0
1005.125,1005.125,413.4071,261,3.0,Timpani,1.75,0.525,50,1.0
1005.125,1005.125,413.4071,261,3.0,A Clarinet 2,1.75,0.525,66,1.0
1005.125,1005.125,413.4071,261,3.0,Contrabass,0.5,0.15,35,1.0
1005.125,1005.125,413.4071,261,3.0,Oboe 1,1.75,0.525,78,1.0
1005.125,1005.125,413.4071,261,3.0,D Trumpet 2,1.75,0.525,62,1.0
1005.125,1005.125,413.4071,261,3.0,Flute 1,1.75,0.525,83,1.0
1005.125,1005.125,413.4071,261,3.0,Violin 2,0.5,0.15,74,1.0
1005.125,1005.125,413.4071,261,3.0,Violoncello,0.5,0.15,47,1.0
1005.125,1005.125,413.4071,261,3.0,Oboe 2,1.75,0.525,74,1.0
1005.125,1005.125,413.4071,261,3.0,Violin 1,0.5,0.15,74,1.0
1005.125,1005.125,413.4071,261,3.0,A Clarinet 1,1.75,0.525,71,1.0
1005.125,1005.125,413.4071,261,3.0,D Trumpet 1,1.75,0.525,74,1.0
1005.125,1005.125,413.4071,261,3.0,Bassoon 1,1.75,0.525,59,1.0
1005.625,1005.625,413.5571,261,3.5,Viola,0.5,0.15,71,1.0
1005.625,1005.625,413.5571,261,3.5,Violin 1,0.5,0.15,74,1.0
1005.625,1005.625,413.5571,261,3.5,Violin 2,0.5,0.15,74,1.0
1005.625,1005.625,413.5571,261,3.5,Violoncello,0.5,0.15,59,1.0
1005.625,1005.625,413.5571,261,3.5,Contrabass,0.5,0.15,47,1.0
1006.125,1006.125,413.7071,261,4.0,Violin 1,0.5,0.15,83,1.0
1006.125,1006.125,413.7071,261,4.0,Contrabass,0.5,0.15,42,1.0
1006.125,1006.125,413.7071,261,4.0,Violoncello,0.5,0.15,54,1.0
1006.125,1006.125,413.7071,261,4.0,Viola,0.5,0.15,66,1.0
1006.125,1006.125,413.7071,261,4.0,Violin 2,0.5,0.15,78,1.0
1006.625,1006.625,413.8571,261,4.5,Violoncello,0.5,0.15,50,1.0
1006.625,1006.625,413.8571,261,4.5,Contrabass,0.5,0.15,38,1.0
1006.625,1006.625,413.8571,261,4.5,Violin 2,0.5,0.15,83,1.0
1006.625,1006.625,413.8571,261,4.5,Viola,0.5,0.15,62,1.0
1006.625,1006.625,413.8571,261,4.5,Violin 1,0.5,0.15,86,1.0
1006.875,1006.875,413.9321,261,4.75,Oboe 2,0.25,0.075,74,1.0
1006.875,1006.875,413.9321,261,4.75,Flute 1,0.25,0.075,86,1.0
1006.875,1006.875,413.9321,261,4.75,D Trumpet 2,0.25,0.075,62,1.0
1006.875,1006.875,413.9321,261,4.75,A Clarinet 2,0.25,0.075,71,1.0
1006.875,1006.875,413.9321,261,4.75,Oboe 1,0.25,0.075,78,1.0
1006.875,1006.875,413.9321,261,4.75,Flute 2,0.25,0.075,83,1.0
1006.875,1006.875,413.9321,261,4.75,A Clarinet 1,0.25,0.075,74,1.0
1006.875,1006.875,413.9321,261,4.75,Bassoon 2,0.25,0.075,59,1.0
1006.875,1006.875,413.9321,261,4.75,Timpani,0.25,0.075,50,1.0
1006.875,1006.875,413.9321,261,4.75,D Trumpet 1,0.25,0.075,74,1.0
1006.875,1006.875,413.9321,261,4.75,Bassoon 1,0.25,0.075,62,1.0
1007.125,1007.125,414.0071,262,1.0,Viola,0.5,0.15,59,1.0
1007.125,1007.125,414.0071,262,1.0,Contrabass,0.5,0.15,35,1.0
1007.125,1007.125,414.0071,262,1.0,D Trumpet 2,3.0,0.9,62,1.0
1007.125,1007.125,414.0071,262,1.0,A Clarinet 2,3.0,0.9,74,1.0
1007.125,1007.125,414.0071,262,1.0,Bassoon 2,3.0,0.9,62,1.0
1007.125,1007.125,414.0071,262,1.0,Violin 1,3.0,0.9,90,1.0
1007.125,1007.125,414.0071,262,1.0,Violin 2,3.0,0.9,86,1.0
1007.125,1007.125,414.0071,262,1.0,A Clarinet 1,3.0,0.9,78,1.0
1007.125,1007.125,414.0071,262,1.0,Violoncello,0.5,0.15,47,1.0
1007.125,1007.125,414.0071,262,1.0,Oboe 1,3.0,0.9,78,1.0
1007.125,1007.125,414.0071,262,1.0,D Trumpet 1,3.0,0.9,74,1.0
1007.125,1007.125,414.0071,262,1.0,Flute 1,3.0,0.9,90,1.0
1007.125,1007.125,414.0071,262,1.0,Bassoon 1,3.0,0.9,66,1.0
1007.125,1007.125,414.0071,262,1.0,Timpani,1.0,0.3,50,1.0
1007.125,1007.125,414.0071,262,1.0,Flute 2,3.0,0.9,86,1.0
1007.125,1007.125,414.0071,262,1.0,Oboe 2,3.0,0.9,74,1.0
1007.625,1007.625,414.1571,262,1.5,Viola,0.5,0.15,71,1.0
1007.625,1007.625,414.1571,262,1.5,Contrabass,0.5,0.15,47,1.0
1007.625,1007.625,414.1571,262,1.5,Violoncello,0.5,0.15,59,1.0
1008.125,1008.125,414.3071,262,2.0,Viola,0.5,0.15,66,1.0
1008.125,1008.125,414.3071,262,2.0,Contrabass,0.5,0.15,42,1.0
1008.125,1008.125,414.3071,262,2.0,Violoncello,0.5,0.15,54,1.0
1008.625,1008.625,414.4571,262,2.5,Contrabass,0.5,0.15,38,1.0
1008.625,1008.625,414.4571,262,2.5,Violoncello,0.5,0.15,50,1.0
1008.625,1008.625,414.4571,262,2.5,Viola,0.5,0.15,62,1.0
1009.125,1009.125,414.6071,262,3.0,Viola,0.5,0.15,59,1.0
1009.125,1009.125,414.6071,262,3.0,Violoncello,0.5,0.15,47,1.0
1009.125,1009.125,414.6071,262,3.0,Contrabass,0.5,0.15,35,1.0
1009.625,1009.625,414.7571,262,3.5,Violoncello,0.5,0.15,59,1.0
1009.625,1009.625,414.7571,262,3.5,Contrabass,0.5,0.15,47,1.0
1009.625,1009.625,414.7571,262,3.5,Viola,0.5,0.15,74,1.0
1010.125,1010.125,414.9071,262,4.0,A Clarinet 2,0.75,0.225,66,1.0
1010.125,1010.125,414.9071,262,4.0,Contrabass,0.5,0.15,49,1.0
1010.125,1010.125,414.9071,262,4.0,Violin 2,0.75,0.225,78,1.0
1010.125,1010.125,414.9071,262,4.0,A Clarinet 1,0.75,0.225,74,1.0
1010.125,1010.125,414.9071,262,4.0,Viola,0.5,0.15,76,1.0
1010.125,1010.125,414.9071,262,4.0,Violoncello,0.5,0.15,61,1.0
1010.125,1010.125,414.9071,262,4.0,Violin 1,0.75,0.225,86,1.0
1010.625,1010.625,415.0571,262,4.5,Violoncello,0.5,0.15,62,1.0
1010.625,1010.625,415.0571,262,4.5,Contrabass,0.5,0.15,50,1.0
1010.625,1010.625,415.0571,262,4.5,Viola,0.5,0.15,78,1.0
1010.875,1010.875,415.1321,262,4.75,Violin 1,0.25,0.075,83,1.0
1010.875,1010.875,415.1321,262,4.75,Violin 2,0.25,0.075,74,1.0
1010.875,1010.875,415.1321,262,4.75,A Clarinet 1,0.25,0.075,71,1.0
1010.875,1010.875,415.1321,262,4.75,A Clarinet 2,0.25,0.075,62,1.0
1011.125,1011.125,415.2071,263,1.0,A Clarinet 1,1.0,0.3,69,1.0
1011.125,1011.125,415.2071,263,1.0,Violin 1,0.5,0.15,88,1.0
1011.125,1011.125,415.2071,263,1.0,A Clarinet 2,1.0,0.3,61,1.0
1011.125,1011.125,415.2071,263,1.0,Viola,0.5,0.15,64,1.0
1011.125,1011.125,415.2071,263,1.0,Contrabass,0.5,0.15,40,1.0
1011.125,1011.125,415.2071,263,1.0,Violoncello,0.5,0.15,52,1.0
1011.125,1011.125,415.2071,263,1.0,Violin 2,0.5,0.15,73,1.0
1011.625,1011.625,415.3571,263,1.5,Viola,0.5,0.15,76,1.0
1011.625,1011.625,415.3571,263,1.5,Contrabass,0.5,0.15,52,1.0
1011.625,1011.625,415.3571,263,1.5,Violin 2,0.5,0.15,73,1.0
1011.625,1011.625,415.3571,263,1.5,Violoncello,0.5,0.15,64,1.0
1011.625,1011.625,415.3571,263,1.5,Violin 1,0.5,0.15,88,1.0
1012.125,1012.125,415.5071,263,2.0,D Horn 2,1.0,0.3,64,1.0
1012.125,1012.125,415.5071,263,2.0,A Clarinet 2,1.0,0.3,69,1.0
1012.125,1012.125,415.5071,263,2.0,Violin 1,0.5,0.15,85,1.0
1012.125,1012.125,415.5071,263,2.0,D Horn 1,1.0,0.3,64,1.0
1012.125,1012.125,415.5071,263,2.0,Bassoon 2,1.0,0.3,52,1.0
1012.125,1012.125,415.5071,263,2.0,Violoncello,0.5,0.15,64,1.0
1012.125,1012.125,415.5071,263,2.0,Flute 2,1.0,0.3,88,1.0
1012.125,1012.125,415.5071,263,2.0,Oboe 2,1.0,0.3,73,1.0
1012.125,1012.125,415.5071,263,2.0,Bassoon 1,1.0,0.3,61,1.0
1012.125,1012.125,415.5071,263,2.0,Violin 2,0.5,0.15,76,1.0
1012.125,1012.125,415.5071,263,2.0,Flute 1,1.0,0.3,88,1.0
1012.125,1012.125,415.5071,263,2.0,Viola,0.5,0.15,76,1.0
1012.125,1012.125,415.5071,263,2.0,A Clarinet 1,1.0,0.3,73,1.0
1012.125,1012.125,415.5071,263,2.0,Contrabass,0.5,0.15,52,1.0
1012.125,1012.125,415.5071,263,2.0,Oboe 1,1.0,0.3,81,1.0
1012.625,1012.625,415.6571,263,2.5,Violin 2,0.5,0.15,73,1.0
1012.625,1012.625,415.6571,263,2.5,Viola,0.5,0.15,76,1.0
1012.625,1012.625,415.6571,263,2.5,Violin 1,0.5,0.15,81,1.0
1012.625,1012.625,415.6571,263,2.5,Contrabass,0.5,0.15,52,1.0
1012.625,1012.625,415.6571,263,2.5,Violoncello,0.5,0.15,64,1.0
1013.125,1013.125,415.8071,263,3.0,Viola,0.5,0.15,64,1.0
1013.125,1013.125,415.8071,263,3.0,Violoncello,0.5,0.15,52,1.0
1013.125,1013.125,415.8071,263,3.0,Violin 2,0.5,0.15,71,1.0
1013.125,1013.125,415.8071,263,3.0,Contrabass,0.5,0.15,40,1.0
1013.125,1013.125,415.8071,263,3.0,Violin 1,0.5,0.15,86,1.0
1013.625,1013.625,415.9571,263,3.5,Violin 2,0.5,0.15,71,1.0
1013.625,1013.625,415.9571,263,3.5,Contrabass,0.5,0.15,52,1.0
1013.625,1013.625,415.9571,263,3.5,Viola,0.5,0.15,76,1.0
1013.625,1013.625,415.9571,263,3.5,Violoncello,0.5,0.15,64,1.0
1013.625,1013.625,415.9571,263,3.5,Violin 1,0.5,0.15,86,1.0
1014.125,1014.125,416.1071,263,4.0,Contrabass,0.5,0.15,52,1.0
1014.125,1014.125,416.1071,263,4.0,Flute 2,1.0,0.3,88,1.0
1014.125,1014.125,416.1071,263,4.0,Violin 1,0.5,0.15,83,1.0
1014.125,1014.125,416.1071,263,4.0,Violin 2,0.5,0.15,74,1.0
1014.125,1014.125,416.1071,263,4.0,Oboe 2,1.0,0.3,71,1.0
1014.125,1014.125,416.1071,263,4.0,A Clarinet 1,1.0,0.3,74,1.0
1014.125,1014.125,416.1071,263,4.0,Viola,0.5,0.15,76,1.0
1014.125,1014.125,416.1071,263,4.0,Bassoon 2,1.0,0.3,52,1.0
1014.125,1014.125,416.1071,263,4.0,Bassoon 1,1.0,0.3,62,1.0
1014.125,1014.125,416.1071,263,4.0,D Horn 2,1.0,0.3,64,1.0
1014.125,1014.125,416.1071,263,4.0,Flute 1,1.0,0.3,88,1.0
1014.125,1014.125,416.1071,263,4.0,D Horn 1,1.0,0.3,64,1.0
1014.125,1014.125,416.1071,263,4.0,Oboe 1,1.0,0.3,80,1.0
1014.125,1014.125,416.1071,263,4.0,Violoncello,0.5,0.15,64,1.0
1014.125,1014.125,416.1071,263,4.0,A Clarinet 2,1.0,0.3,68,1.0
1014.625,1014.625,416.2571,263,4.5,Contrabass,0.5,0.15,52,1.0
1014.625,1014.625,416.2571,263,4.5,Violin 2,0.5,0.15,71,1.0
1014.625,1014.625,416.2571,263,4.5,Violoncello,0.5,0.15,64,1.0
1014.625,1014.625,416.2571,263,4.5,Violin 1,0.5,0.15,80,1.0
1014.625,1014.625,416.2571,263,4.5,Viola,0.5,0.15,76,1.0
1015.125,1015.125,416.4071,264,1.0,Oboe 2,1.0,0.3,73,1.0
1015.125,1015.125,416.4071,264,1.0,Violin 2,0.5,0.15,73,1.0
1015.125,1015.125,416.4071,264,1.0,D Horn 2,4.0,1.2,57,1.0
1015.125,1015.125,416.4071,264,1.0,Bassoon 2,1.0,0.3,57,1.0
1015.125,1015.125,416.4071,264,1.0,D Trumpet 2,4.0,1.2,69,1.0
1015.125,1015.125,416.4071,264,1.0,A Clarinet 1,1.0,0.3,73,1.0
1015.125,1015.125,416.4071,264,1.0,Viola,2.0,0.6,69,1.0
1015.125,1015.125,416.4071,264,1.0,Contrabass,2.0,0.6,45,1.0
1015.125,1015.125,416.4071,264,1.0,A Clarinet 2,1.0,0.3,69,1.0
1015.125,1015.125,416.4071,264,1.0,Violoncello,2.0,0.6,57,1.0
1015.125,1015.125,416.4071,264,1.0,Bassoon 1,1.0,0.3,61,1.0
1015.125,1015.125,416.4071,264,1.0,Flute 1,1.0,0.3,81,1.0
1015.125,1015.125,416.4071,264,1.0,Flute 2,1.0,0.3,81,1.0
1015.125,1015.125,416.4071,264,1.0,D Horn 1,4.0,1.2,69,1.0
1015.125,1015.125,416.4071,264,1.0,Timpani,1.0,0.3,45,1.0
1015.125,1015.125,416.4071,264,1.0,D Trumpet 1,4.0,1.2,69,1.0
1015.125,1015.125,416.4071,264,1.0,Violin 1,1.0,0.3,81,1.0
1015.125,1015.125,416.4071,264,1.0,Oboe 1,1.0,0.3,81,1.0
1015.625,1015.625,416.5571,264,1.5,Violin 2,1.0,0.3,81,0.7087
1015.625,1015.625,416.5571,264,1.5,Violin 2,1.0,0.3,69,0.7087
1016.625,1016.625,416.8571,264,2.5,Violin 2,1.0,0.3,69,0.7087
1016.625,1016.625,416.8571,264,2.5,Violin 2,1.0,0.3,81,0.7087
1017.125,1017.125,417.0071,264,3.0,Contrabass,0.5,0.15,45,1.0
1017.125,1017.125,417.0071,264,3.0,Violoncello,0.5,0.15,57,1.0
1017.125,1017.125,417.0071,264,3.0,Viola,0.5,0.15,69,1.0
1017.625,1017.625,417.1571,264,3.5,Violin 2,1.0,0.3,81,0.7087
1017.625,1017.625,417.1571,264,3.5,Violin 2,1.0,0.3,69,0.7087
1017.625,1017.625,417.1571,264,3.5,Viola,0.5,0.15,69,1.0
1017.625,1017.625,417.1571,264,3.5,Violoncello,0.5,0.15,57,1.0
1017.625,1017.625,417.1571,264,3.5,Contrabass,0.5,0.15,45,1.0
1018.125,1018.125,417.3071,264,4.0,Violoncello,0.5,0.15,55,1.0
1018.125,1018.125,417.3071,264,4.0,Contrabass,0.5,0.15,43,1.0
1018.125,1018.125,417.3071,264,4.0,Viola,0.5,0.15,67,1.0
1018.625,1018.625,417.4571,264,4.5,Violin 2,0.5,0.15,69,0.7087
1018.625,1018.625,417.4571,264,4.5,Violin 2,0.5,0.15,81,0.7087
1018.625,1018.625,417.4571,264,4.5,Viola,0.5,0.15,66,1.0
1018.625,1018.625,417.4571,264,4.5,Violoncello,0.5,0.15,54,1.0
1018.625,1018.625,417.4571,264,4.5,Contrabass,0.5,0.15,42,1.0
1019.125,1019.125,417.6071,265,1.0,Violin 2,0.5,0.15,69,0.7087
1019.125,1019.125,417.6071,265,1.0,Contrabass,2.0,0.6,43,1.0
1019.125,1019.125,417.6071,265,1.0,D Trumpet 1,4.0,1.2,69,1.0
1019.125,1019.125,417.6071,265,1.0,D Horn 2,4.0,1.2,57,1.0
1019.125,1019.125,417.6071,265,1.0,Viola,2.0,0.6,67,1.0
1019.125,1019.125,417.6071,265,1.0,Violoncello,2.0,0.6,55,1.0
1019.125,1019.125,417.6071,265,1.0,Violin 2,0.5,0.15,81,0.7087
1019.125,1019.125,417.6071,265,1.0,Timpani,1.0,0.3,45,1.0
1019.125,1019.125,417.6071,265,1.0,D Horn 1,4.0,1.2,69,1.0
1019.125,1019.125,417.6071,265,1.0,D Trumpet 2,4.0,1.2,69,1.0
1019.625,1019.625,417.7571,265,1.5,Violin 2,1.0,0.3,81,0.7087
1019.625,1019.625,417.7571,265,1.5,Violin 2,1.0,0.3,69,0.7087
1020.625,1020.625,418.0571,265,2.5,Violin 2,1.0,0.3,69,0.7087
1020.625,1020.625,418.0571,265,2.5,Violin 2,1.0,0.3,81,0.7087
1021.125,1021.125,418.2071,265,3.0,Viola,0.5,0.15,67,1.0
1021.125,1021.125,418.2071,265,3.0,Violoncello,0.5,0.15,55,1.0
1021.125,1021.125,418.2071,265,3.0,Contrabass,0.5,0.15,43,1.0
1021.625,1021.625,418.3571,265,3.5,Violin 2,1.0,0.3,69,0.7087
1021.625,1021.625,418.3571,265,3.5,Viola,0.5,0.15,67,1.0
1021.625,1021.625,418.3571,265,3.5,Contrabass,0.5,0.15,43,1.0
1021.625,1021.625,418.3571,265,3.5,Violin 2,1.0,0.3,81,0.7087
1021.625,1021.625,418.3571,265,3.5,Violoncello,0.5,0.15,55,1.0
1022.125,1022.125,418.5071,265,4.0,Viola,0.5,0.15,66,1.0
1022.125,1022.125,418.5071,265,4.0,Violoncello,0.5,0.15,54,1.0
1022.125,1022.125,418.5071,265,4.0,Contrabass,0.5,0.15,42,1.0
1022.625,1022.625,418.6571,265,4.5,Viola,0.5,0.15,64,1.0
1022.625,1022.625,418.6571,265,4.5,Violin 2,0.5,0.15,81,0.7087
1022.625,1022.625,418.6571,265,4.5,Violin 2,0.5,0.15,69,0.7087
1022.625,1022.625,418.6571,265,4.5,Contrabass,0.5,0.15,40,1.0
1022.625,1022.625,418.6571,265,4.5,Violoncello,0.5,0.15,52,1.0
1023.125,1023.125,418.8071,266,1.0,Contrabass,2.0,0.6,42,1.0
1023.125,1023.125,418.8071,266,1.0,D Horn 1,4.0,1.2,69,1.0
1023.125,1023.125,418.8071,266,1.0,D Trumpet 1,4.0,1.2,81,1.0
1023.125,1023.125,418.8071,266,1.0,Violin 2,0.5,0.15,81,0.7087
1023.125,1023.125,418.8071,266,1.0,Viola,2.0,0.6,66,1.0
1023.125,1023.125,418.8071,266,1.0,Timpani,1.0,0.3,45,1.0
1023.125,1023.125,418.8071,266,1.0,Oboe 2,2.0,0.6,81,1.0
1023.125,1023.125,418.8071,266,1.0,Oboe 1,2.0,0.6,81,1.0
1023.125,1023.125,418.8071,266,1.0,Bassoon 1,2.0,0.6,54,1.0
1023.125,1023.125,418.8071,266,1.0,D Horn 2,4.0,1.2,57,1.0
1023.125,1023.125,418.8071,266,1.0,Violin 1,2.0,0.6,81,1.0
1023.125,1023.125,418.8071,266,1.0,A Clarinet 1,4.0,1.2,81,1.0
1023.125,1023.125,418.8071,266,1.0,Violoncello,2.0,0.6,54,1.0
1023.125,1023.125,418.8071,266,1.0,Flute 2,2.0,0.6,81,1.0
1023.125,1023.125,418.8071,266,1.0,Flute 1,2.0,0.6,81,1.0
1023.125,1023.125,418.8071,266,1.0,D Trumpet 2,4.0,1.2,69,1.0
1023.125,1023.125,418.8071,266,1.0,A Clarinet 2,4.0,1.2,69,1.0
1023.125,1023.125,418.8071,266,1.0,Violin 2,0.5,0.15,69,0.7087
1023.125,1023.125,418.8071,266,1.0,Bassoon 2,2.0,0.6,54,1.0
1023.625,1023.625,418.9571,266,1.5,Violin 2,1.0,0.3,81,0.7087
1023.625,1023.625,418.9571,266,1.5,Violin 2,1.0,0.3,69,0.7087
1024.625,1024.625,419.2571,266,2.5,Violin 2,1.0,0.3,81,0.7087
1024.625,1024.625,419.2571,266,2.5,Violin 2,1.0,0.3,69,0.7087
1025.125,1025.125,419.4071,266,3.0,Bassoon 1,0.5,0.15,54,1.0
1025.125,1025.125,419.4071,266,3.0,Viola,0.5,0.15,66,1.0
1025.125,1025.125,419.4071,266,3.0,Contrabass,0.5,0.15,42,1.0
1025.125,1025.125,419.4071,266,3.0,Bassoon 2,0.5,0.15,54,1.0
1025.125,1025.125,419.4071,266,3.0,Oboe 2,0.5,0.15,81,1.0
1025.125,1025.125,419.4071,266,3.0,Violoncello,0.5,0.15,54,1.0
1025.125,1025.125,419.4071,266,3.0,Violin 1,0.5,0.15,81,1.0
1025.125,1025.125,419.4071,266,3.0,Oboe 1,0.5,0.15,81,1.0
1025.125,1025.125,419.4071,266,3.0,Flute 2,0.5,0.15,81,1.0
1025.125,1025.125,419.4071,266,3.0,Flute 1,0.5,0.15,81,1.0
1025.625,1025.625,419.5571,266,3.5,Bassoon 2,0.5,0.15,54,1.0
1025.625,1025.625,419.5571,266,3.5,Violin 2,1.0,0.3,81,0.7087
1025.625,1025.625,419.5571,266,3.5,Oboe 2,0.5,0.15,81,1.0
1025.625,1025.625,419.5571,266,3.5,Oboe 1,0.5,0.15,81,1.0
1025.625,1025.625,419.5571,266,3.5,Flute 2,0.5,0.15,81,1.0
1025.625,1025.625,419.5571,266,3.5,Violin 2,1.0,0.3,69,0.7087
1025.625,1025.625,419.5571,266,3.5,Violin 1,0.5,0.15,81,1.0
1025.625,1025.625,419.5571,266,3.5,Bassoon 1,0.5,0.15,54,1.0
1025.625,1025.625,419.5571,266,3.5,Violoncello,0.5,0.15,54,1.0
1025.625,1025.625,419.5571,266,3.5,Flute 1,0.5,0.15,81,1.0
1025.625,1025.625,419.5571,266,3.5,Contrabass,0.5,0.15,42,1.0
1025.625,1025.625,419.5571,266,3.5,Viola,0.5,0.15,66,1.0
1026.125,1026.125,419.7071,266,4.0,Oboe 1,0.5,0.15,79,1.0
1026.125,1026.125,419.7071,266,4.0,Bassoon 1,0.5,0.15,52,1.0
1026.125,1026.125,419.7071,266,4.0,Bassoon 2,0.5,0.15,52,1.0
1026.125,1026.125,419.7071,266,4.0,Contrabass,0.5,0.15,40,1.0
1026.125,1026.125,419.7071,266,4.0,Violoncello,0.5,0.15,52,1.0
1026.125,1026.125,419.7071,266,4.0,Viola,0.5,0.15,64,1.0
1026.125,1026.125,419.7071,266,4.0,Flute 1,0.5,0.15,79,1.0
1026.125,1026.125,419.7071,266,4.0,Oboe 2,0.5,0.15,79,1.0
1026.125,1026.125,419.7071,266,4.0,Violin 1,0.5,0.15,79,1.0
1026.125,1026.125,419.7071,266,4.0,Flute 2,0.5,0.15,79,1.0
1026.625,1026.625,419.8571,266,4.5,Oboe 1,0.5,0.15,78,1.0
1026.625,1026.625,419.8571,266,4.5,Viola,0.5,0.15,62,1.0
1026.625,1026.625,419.8571,266,4.5,Contrabass,0.5,0.15,38,1.0
1026.625,1026.625,419.8571,266,4.5,Violoncello,0.5,0.15,50,1.0
1026.625,1026.625,419.8571,266,4.5,Oboe 2,0.5,0.15,78,1.0
1026.625,1026.625,419.8571,266,4.5,Violin 1,0.5,0.15,78,1.0
1026.625,1026.625,419.8571,266,4.5,Bassoon 1,0.5,0.15,50,1.0
1026.625,1026.625,419.8571,266,4.5,Flute 2,0.5,0.15,78,1.0
1026.625,1026.625,419.8571,266,4.5,Flute 1,0.5,0.15,78,1.0
1026.625,1026.625,419.8571,266,4.5,Bassoon 2,0.5,0.15,50,1.0
1026.625,1026.625,419.8571,266,4.5,Violin 2,0.5,0.15,69,0.7087
1026.625,1026.625,419.8571,266,4.5,Violin 2,0.5,0.15,81,0.7087
1027.125,1027.125,420.0071,267,1.0,Timpani,1.0,0.3,45,1.0
1027.125,1027.125,420.0071,267,1.0,Oboe 2,2.0,0.6,79,1.0
1027.125,1027.125,420.0071,267,1.0,D Horn 1,4.0,1.2,69,1.0
1027.125,1027.125,420.0071,267,1.0,Oboe 1,2.0,0.6,79,1.0
1027.125,1027.125,420.0071,267,1.0,D Trumpet 1,4.0,1.2,81,1.0
1027.125,1027.125,420.0071,267,1.0,Contrabass,2.0,0.6,40,1.0
1027.125,1027.125,420.0071,267,1.0,Bassoon 1,2.0,0.6,52,1.0
1027.125,1027.125,420.0071,267,1.0,A Clarinet 2,4.0,1.2,69,1.0
1027.125,1027.125,420.0071,267,1.0,D Trumpet 2,4.0,1.2,69,1.0
1027.125,1027.125,420.0071,267,1.0,Violin 1,2.0,0.6,79,1.0
1027.125,1027.125,420.0071,267,1.0,Flute 2,2.0,0.6,79,1.0
1027.125,1027.125,420.0071,267,1.0,Flute 1,2.0,0.6,79,1.0
1027.125,1027.125,420.0071,267,1.0,Violin 2,0.5,0.15,69,0.7087
1027.125,1027.125,420.0071,267,1.0,D Horn 2,4.0,1.2,57,1.0
1027.125,1027.125,420.0071,267,1.0,A Clarinet 1,4.0,1.2,81,1.0
1027.125,1027.125,420.0071,267,1.0,Bassoon 2,2.0,0.6,52,1.0
1027.125,1027.125,420.0071,267,1.0,Violin 2,0.5,0.15,81,0.7087
1027.125,1027.125,420.0071,267,1.0,Violoncello,2.0,0.6,52,1.0
1027.125,1027.125,420.0071,267,1.0,Viola,2.0,0.6,64,1.0
1027.625,1027.625,420.1571,267,1.5,Violin 2,1.0,0.3,81,0.7087
1027.625,1027.625,420.1571,267,1.5,Violin 2,1.0,0.3,69,0.7087
1028.625,1028.625,420.4571,267,2.5,Violin 2,0.5,0.15,81,0.7087
1028.625,1028.625,420.4571,267,2.5,Violin 2,0.5,0.15,69,0.7087
1029.125,1029.125,420.6071,267,3.0,Viola,0.5,0.15,64,1.0
1029.125,1029.125,420.6071,267,3.0,Flute 1,0.5,0.15,79,1.0
1029.125,1029.125,420.6071,267,3.0,Contrabass,0.5,0.15,40,1.0
1029.125,1029.125,420.6071,267,3.0,Bassoon 1,0.5,0.15,52,1.0
1029.125,1029.125,420.6071,267,3.0,Violin 2,0.5,0.15,81,0.7087
1029.125,1029.125,420.6071,267,3.0,Oboe 2,0.5,0.15,79,1.0
1029.125,1029.125,420.6071,267,3.0,Violin 2,0.5,0.15,69,0.7087
1029.125,1029.125,420.6071,267,3.0,Violoncello,0.5,0.15,52,1.0
1029.125,1029.125,420.6071,267,3.0,Violin 1,0.5,0.15,79,1.0
1029.125,1029.125,420.6071,267,3.0,Flute 2,0.5,0.15,79,1.0
1029.125,1029.125,420.6071,267,3.0,Oboe 1,0.5,0.15,79,1.0
1029.125,1029.125,420.6071,267,3.0,Bassoon 2,0.5,0.15,52,1.0
1029.625,1029.625,420.7571,267,3.5,Violoncello,0.5,0.15,52,1.0
1029.625,1029.625,420.7571,267,3.5,Viola,0.5,0.15,64,1.0
1029.625,1029.625,420.7571,267,3.5,Bassoon 2,0.5,0.15,52,1.0
1029.625,1029.625,420.7571,267,3.5,Contrabass,0.5,0.15,40,1.0
1029.625,1029.625,420.7571,267,3.5,Bassoon 1,0.5,0.15,52,1.0
1029.625,1029.625,420.7571,267,3.5,Flute 1,0.5,0.15,79,1.0
1029.625,1029.625,420.7571,267,3.5,Violin 2,1.0,0.3,69,0.7087
1029.625,1029.625,420.7571,267,3.5,Flute 2,0.5,0.15,79,1.0
1029.625,1029.625,420.7571,267,3.5,Violin 2,1.0,0.3,81,0.7087
1029.625,1029.625,420.7571,267,3.5,Violin 1,0.5,0.15,79,1.0
1029.625,1029.625,420.7571,267,3.5,Oboe 2,0.5,0.15,79,1.0
1029.625,1029.625,420.7571,267,3.5,Oboe 1,0.5,0.15,79,1.0
1030.125,1030.125,420.9071,267,4.0,Violin 1,0.5,0.15,78,1.0
1030.125,1030.125,420.9071,267,4.0,Viola,0.5,0.15,62,1.0
1030.125,1030.125,420.9071,267,4.0,Bassoon 2,0.5,0.15,50,1.0
1030.125,1030.125,420.9071,267,4.0,Flute 2,0.5,0.15,78,1.0
1030.125,1030.125,420.9071,267,4.0,Oboe 2,0.5,0.15,78,1.0
1030.125,1030.125,420.9071,267,4.0,Oboe 1,0.5,0.15,78,1.0
1030.125,1030.125,420.9071,267,4.0,Bassoon 1,0.5,0.15,50,1.0
1030.125,1030.125,420.9071,267,4.0,Violoncello,0.5,0.15,50,1.0
1030.125,1030.125,420.9071,267,4.0,Flute 1,0.5,0.15,78,1.0
1030.125,1030.125,420.9071,267,4.0,Contrabass,0.5,0.15,38,1.0
1030.625,1030.625,421.0571,267,4.5,Bassoon 2,0.5,0.15,49,1.0
1030.625,1030.625,421.0571,267,4.5,Bassoon 1,0.5,0.15,49,1.0
1030.625,1030.625,421.0571,267,4.5,Flute 2,0.5,0.15,77,1.0
1030.625,1030.625,421.0571,267,4.5,Flute 1,0.5,0.15,77,1.0
1030.625,1030.625,421.0571,267,4.5,Violin 1,0.5,0.15,77,1.0
1030.625,1030.625,421.0571,267,4.5,Viola,0.5,0.15,61,1.0
1030.625,1030.625,421.0571,267,4.5,Violin 2,0.5,0.15,69,0.7087
1030.625,1030.625,421.0571,267,4.5,Violoncello,0.5,0.15,49,1.0
1030.625,1030.625,421.0571,267,4.5,Contrabass,0.5,0.15,37,1.0
1030.625,1030.625,421.0571,267,4.5,Oboe 2,0.5,0.15,77,1.0
1030.625,1030.625,421.0571,267,4.5,Oboe 1,0.5,0.15,77,1.0
1030.625,1030.625,421.0571,267,4.5,Violin 2,0.5,0.15,81,0.7087
1031.125,1031.125,421.2071,268,1.0,A Clarinet 2,4.0,1.2,69,1.0
1031.125,1031.125,421.2071,268,1.0,D Trumpet 2,4.0,1.2,69,1.0
1031.125,1031.125,421.2071,268,1.0,Violin 1,0.5,0.15,78,1.0
1031.125,1031.125,421.2071,268,1.0,Oboe 2,0.5,0.15,78,1.0
1031.125,1031.125,421.2071,268,1.0,Timpani,1.0,0.3,45,1.0
1031.125,1031.125,421.2071,268,1.0,Oboe 1,0.5,0.15,78,1.0
1031.125,1031.125,421.2071,268,1.0,D Horn 1,4.0,1.2,69,1.0
1031.125,1031.125,421.2071,268,1.0,Flute 1,0.5,0.15,78,1.0
1031.125,1031.125,421.2071,268,1.0,Violin 2,0.5,0.15,69,0.7087
1031.125,1031.125,421.2071,268,1.0,Flute 2,0.5,0.15,78,1.0
1031.125,1031.125,421.2071,268,1.0,D Horn 2,4.0,1.2,57,1.0
1031.125,1031.125,421.2071,268,1.0,Bassoon 1,0.5,0.15,50,1.0
1031.125,1031.125,421.2071,268,1.0,D Trumpet 1,4.0,1.2,81,1.0
1031.125,1031.125,421.2071,268,1.0,Violin 2,0.5,0.15,81,0.7087
1031.125,1031.125,421.2071,268,1.0,Contrabass,0.5,0.15,38,1.0
1031.125,1031.125,421.2071,268,1.0,A Clarinet 1,4.0,1.2,81,1.0
1031.125,1031.125,421.2071,268,1.0,Violoncello,0.5,0.15,50,1.0
1031.125,1031.125,421.2071,268,1.0,Viola,0.5,0.15,62,1.0
1031.125,1031.125,421.2071,268,1.0,Bassoon 2,0.5,0.15,50,1.0
1031.625,1031.625,421.3571,268,1.5,Flute 1,0.5,0.15,78,1.0
1031.625,1031.625,421.3571,268,1.5,Oboe 1,0.5,0.15,78,1.0
1031.625,1031.625,421.3571,268,1.5,Violin 2,1.0,0.3,69,0.7087
1031.625,1031.625,421.3571,268,1.5,Violoncello,0.5,0.15,57,1.0
1031.625,1031.625,421.3571,268,1.5,Violin 2,1.0,0.3,81,0.7087
1031.625,1031.625,421.3571,268,1.5,Bassoon 1,0.5,0.15,57,1.0
1031.625,1031.625,421.3571,268,1.5,Contrabass,0.5,0.15,45,1.0
1031.625,1031.625,421.3571,268,1.5,Viola,0.5,0.15,69,1.0
1031.625,1031.625,421.3571,268,1.5,Oboe 2,0.5,0.15,78,1.0
1031.625,1031.625,421.3571,268,1.5,Bassoon 2,0.5,0.15,57,1.0
1031.625,1031.625,421.3571,268,1.5,Flute 2,0.5,0.15,78,1.0
1031.625,1031.625,421.3571,268,1.5,Violin 1,0.5,0.15,78,1.0
1032.125,1032.125,421.5071,268,2.0,Bassoon 1,0.5,0.15,55,1.0
1032.125,1032.125,421.5071,268,2.0,Flute 1,0.5,0.15,76,1.0
1032.125,1032.125,421.5071,268,2.0,Contrabass,0.5,0.15,43,1.0
1032.125,1032.125,421.5071,268,2.0,Viola,0.5,0.15,67,1.0
1032.125,1032.125,421.5071,268,2.0,Oboe 2,0.5,0.15,76,1.0
1032.125,1032.125,421.5071,268,2.0,Violoncello,0.5,0.15,55,1.0
1032.125,1032.125,421.5071,268,2.0,Bassoon 2,0.5,0.15,55,1.0
1032.125,1032.125,421.5071,268,2.0,Flute 2,0.5,0.15,76,1.0
1032.125,1032.125,421.5071,268,2.0,Oboe 1,0.5,0.15,76,1.0
1032.125,1032.125,421.5071,268,2.0,Violin 1,0.5,0.15,76,1.0
1032.625,1032.625,421.6571,268,2.5,Violin 1,0.5,0.15,75,1.0
1032.625,1032.625,421.6571,268,2.5,Violin 2,1.0,0.3,81,0.7087
1032.625,1032.625,421.6571,268,2.5,Flute 1,0.5,0.15,75,1.0
1032.625,1032.625,421.6571,268,2.5,Contrabass,0.5,0.15,42,1.0
1032.625,1032.625,421.6571,268,2.5,Oboe 2,0.5,0.15,75,1.0
1032.625,1032.625,421.6571,268,2.5,Bassoon 1,0.5,0.15,54,1.0
1032.625,1032.625,421.6571,268,2.5,Oboe 1,0.5,0.15,75,1.0
1032.625,1032.625,421.6571,268,2.5,Violoncello,0.5,0.15,54,1.0
1032.625,1032.625,421.6571,268,2.5,Bassoon 2,0.5,0.15,54,1.0
1032.625,1032.625,421.6571,268,2.5,Violin 2,1.0,0.3,69,0.7087
1032.625,1032.625,421.6571,268,2.5,Viola,0.5,0.15,66,1.0
1032.625,1032.625,421.6571,268,2.5,Flute 2,0.5,0.15,75,1.0
1033.125,1033.125,421.8071,268,3.0,Violoncello,0.5,0.15,55,1.0
1033.125,1033.125,421.8071,268,3.0,Viola,0.5,0.15,67,1.0
1033.125,1033.125,421.8071,268,3.0,Timpani,1.0,0.3,45,1.0
1033.125,1033.125,421.8071,268,3.0,Oboe 2,0.5,0.15,76,1.0
1033.125,1033.125,421.8071,268,3.0,Contrabass,0.5,0.15,43,1.0
1033.125,1033.125,421.8071,268,3.0,Oboe 1,0.5,0.15,76,1.0
1033.125,1033.125,421.8071,268,3.0,Bassoon 1,0.5,0.15,55,1.0
1033.125,1033.125,421.8071,268,3.0,Flute 1,0.5,0.15,76,1.0
1033.125,1033.125,421.8071,268,3.0,Flute 2,0.5,0.15,76,1.0
1033.125,1033.125,421.8071,268,3.0,Bassoon 2,0.5,0.15,55,1.0
1033.125,1033.125,421.8071,268,3.0,Violin 1,0.5,0.15,76,1.0
1033.625,1033.625,421.9571,268,3.5,Bassoon 1,0.5,0.15,55,1.0
1033.625,1033.625,421.9571,268,3.5,Contrabass,0.5,0.15,43,1.0
1033.625,1033.625,421.9571,268,3.5,Violin 2,1.0,0.3,81,0.7087
1033.625,1033.625,421.9571,268,3.5,Violin 2,1.0,0.3,69,0.7087
1033.625,1033.625,421.9571,268,3.5,Viola,0.5,0.15,67,1.0
1033.625,1033.625,421.9571,268,3.5,Flute 1,0.5,0.15,76,1.0
1033.625,1033.625,421.9571,268,3.5,Oboe 1,0.5,0.15,76,1.0
1033.625,1033.625,421.9571,268,3.5,Oboe 2,0.5,0.15,76,1.0
1033.625,1033.625,421.9571,268,3.5,Flute 2,0.5,0.15,76,1.0
1033.625,1033.625,421.9571,268,3.5,Violin 1,0.5,0.15,76,1.0
1033.625,1033.625,421.9571,268,3.5,Bassoon 2,0.5,0.15,55,1.0
1033.625,1033.625,421.9571,268,3.5,Violoncello,0.5,0.15,55,1.0
1034.125,1034.125,422.1071,268,4.0,Violin 1,0.5,0.15,74,1.0
1034.125,1034.125,422.1071,268,4.0,Oboe 2,0.5,0.15,74,1.0
1034.125,1034.125,422.1071,268,4.0,Flute 1,0.5,0.15,74,1.0
1034.125,1034.125,422.1071,268,4.0,Bassoon 1,0.5,0.15,54,1.0
1034.125,1034.125,422.1071,268,4.0,Bassoon 2,0.5,0.15,54,1.0
1034.125,1034.125,422.1071,268,4.0,Flute 2,0.5,0.15,74,1.0
1034.125,1034.125,422.1071,268,4.0,Viola,0.5,0.15,66,1.0
1034.125,1034.125,422.1071,268,4.0,Contrabass,0.5,0.15,42,1.0
1034.125,1034.125,422.1071,268,4.0,Violoncello,0.5,0.15,54,1.0
1034.125,1034.125,422.1071,268,4.0,Oboe 1,0.5,0.15,74,1.0
1034.625,1034.625,422.2571,268,4.5,Viola,0.5,0.15,65,1.0
1034.625,1034.625,422.2571,268,4.5,Oboe 1,0.5,0.15,73,1.0
1034.625,1034.625,422.2571,268,4.5,Flute 2,0.5,0.15,73,1.0
1034.625,1034.625,422.2571,268,4.5,Bassoon 2,0.5,0.15,53,1.0
1034.625,1034.625,422.2571,268,4.5,Violin 1,0.5,0.15,73,1.0
1034.625,1034.625,422.2571,268,4.5,Violin 2,0.5,0.15,81,0.7087
1034.625,1034.625,422.2571,268,4.5,Contrabass,0.5,0.15,41,1.0
1034.625,1034.625,422.2571,268,4.5,Flute 1,0.5,0.15,73,1.0
1034.625,1034.625,422.2571,268,4.5,Bassoon 1,0.5,0.15,53,1.0
1034.625,1034.625,422.2571,268,4.5,Oboe 2,0.5,0.15,73,1.0
1034.625,1034.625,422.2571,268,4.5,Violoncello,0.5,0.15,53,1.0
1034.625,1034.625,422.2571,268,4.5,Violin 2,0.5,0.15,69,0.7087
1035.125,1035.125,422.4071,269,1.0,Viola,0.5,0.15,66,1.0
1035.125,1035.125,422.4071,269,1.0,Violoncello,0.5,0.15,54,1.0
1035.125,1035.125,422.4071,269,1.0,Oboe 2,0.5,0.15,74,1.0
1035.125,1035.125,422.4071,269,1.0,A Clarinet 2,4.0,1.2,69,1.0
1035.125,1035.125,422.4071,269,1.0,D Horn 1,4.0,1.2,69,1.0
1035.125,1035.125,422.4071,269,1.0,Oboe 1,0.5,0.15,74,1.0
1035.125,1035.125,422.4071,269,1.0,Bassoon 1,0.5,0.15,54,1.0
1035.125,1035.125,422.4071,269,1.0,D Horn 2,4.0,1.2,57,1.0
1035.125,1035.125,422.4071,269,1.0,Violin 2,0.5,0.15,69,0.7087
1035.125,1035.125,422.4071,269,1.0,Violin 2,0.5,0.15,81,0.7087
1035.125,1035.125,422.4071,269,1.0,Flute 1,0.5,0.15,74,1.0
1035.125,1035.125,422.4071,269,1.0,Flute 2,0.5,0.15,74,1.0
1035.125,1035.125,422.4071,269,1.0,D Trumpet 1,4.0,1.2,81,1.0
1035.125,1035.125,422.4071,269,1.0,Timpani,1.0,0.3,45,1.0
1035.125,1035.125,422.4071,269,1.0,A Clarinet 1,4.0,1.2,81,1.0
1035.125,1035.125,422.4071,269,1.0,D Trumpet 2,4.0,1.2,69,1.0
1035.125,1035.125,422.4071,269,1.0,Violin 1,0.5,0.15,74,1.0
1035.125,1035.125,422.4071,269,1.0,Bassoon 2,0.5,0.15,54,1.0
1035.125,1035.125,422.4071,269,1.0,Contrabass,0.5,0.15,42,1.0
1035.625,1035.625,422.5571,269,1.5,Violin 2,1.0,0.3,81,0.7087
1035.625,1035.625,422.5571,269,1.5,Violin 2,1.0,0.3,69,0.7087
1035.625,1035.625,422.5571,269,1.5,Viola,0.5,0.15,66,1.0
1035.625,1035.625,422.5571,269,1.5,Bassoon 2,0.5,0.15,54,1.0
1035.625,1035.625,422.5571,269,1.5,Flute 1,0.5,0.15,81,1.0
1035.625,1035.625,422.5571,269,1.5,Violoncello,0.5,0.15,54,1.0
1035.625,1035.625,422.5571,269,1.5,Oboe 2,0.5,0.15,81,1.0
1035.625,1035.625,422.5571,269,1.5,Flute 2,0.5,0.15,81,1.0
1035.625,1035.625,422.5571,269,1.5,Bassoon 1,0.5,0.15,54,1.0
1035.625,1035.625,422.5571,269,1.5,Oboe 1,0.5,0.15,81,1.0
1035.625,1035.625,422.5571,269,1.5,Contrabass,0.5,0.15,42,1.0
1035.625,1035.625,422.5571,269,1.5,Violin 1,0.5,0.15,81,1.0
1036.125,1036.125,422.7071,269,2.0,Violin 1,0.5,0.15,79,1.0
1036.125,1036.125,422.7071,269,2.0,Flute 2,0.5,0.15,79,1.0
1036.125,1036.125,422.7071,269,2.0,Violoncello,0.5,0.15,52,1.0
1036.125,1036.125,422.7071,269,2.0,Contrabass,0.5,0.15,40,1.0
1036.125,1036.125,422.7071,269,2.0,Viola,0.5,0.15,64,1.0
1036.125,1036.125,422.7071,269,2.0,Bassoon 2,0.5,0.15,52,1.0
1036.125,1036.125,422.7071,269,2.0,Oboe 1,0.5,0.15,79,1.0
1036.125,1036.125,422.7071,269,2.0,Bassoon 1,0.5,0.15,52,1.0
1036.125,1036.125,422.7071,269,2.0,Flute 1,0.5,0.15,79,1.0
1036.125,1036.125,422.7071,269,2.0,Oboe 2,0.5,0.15,79,1.0
1036.625,1036.625,422.8571,269,2.5,Violoncello,0.5,0.15,51,1.0
1036.625,1036.625,422.8571,269,2.5,Flute 1,0.5,0.15,78,1.0
1036.625,1036.625,422.8571,269,2.5,Bassoon 1,0.5,0.15,51,1.0
1036.625,1036.625,422.8571,269,2.5,Oboe 2,0.5,0.15,78,1.0
1036.625,1036.625,422.8571,269,2.5,Viola,0.5,0.15,63,1.0
1036.625,1036.625,422.8571,269,2.5,Oboe 1,0.5,0.15,78,1.0
1036.625,1036.625,422.8571,269,2.5,Flute 2,0.5,0.15,78,1.0
1036.625,1036.625,422.8571,269,2.5,Bassoon 2,0.5,0.15,51,1.0
1036.625,1036.625,422.8571,269,2.5,Violin 2,1.0,0.3,69,0.7087
1036.625,1036.625,422.8571,269,2.5,Violin 1,0.5,0.15,78,1.0
1036.625,1036.625,422.8571,269,2.5,Violin 2,1.0,0.3,81,0.7087
1036.625,1036.625,422.8571,269,2.5,Contrabass,0.5,0.15,39,1.0
1037.125,1037.125,423.0071,269,3.0,Violin 1,0.5,0.15,79,1.0
1037.125,1037.125,423.0071,269,3.0,Timpani,1.0,0.3,45,1.0
1037.125,1037.125,423.0071,269,3.0,Bassoon 1,0.5,0.15,52,1.0
1037.125,1037.125,423.0071,269,3.0,Oboe 1,0.5,0.15,79,1.0
1037.125,1037.125,423.0071,269,3.0,Flute 1,0.5,0.15,79,1.0
1037.125,1037.125,423.0071,269,3.0,Contrabass,0.5,0.15,40,1.0
1037.125,1037.125,423.0071,269,3.0,Viola,0.5,0.15,64,1.0
1037.125,1037.125,423.0071,269,3.0,Bassoon 2,0.5,0.15,52,1.0
1037.125,1037.125,423.0071,269,3.0,Oboe 2,0.5,0.15,79,1.0
1037.125,1037.125,423.0071,269,3.0,Violoncello,0.5,0.15,52,1.0
1037.125,1037.125,423.0071,269,3.0,Flute 2,0.5,0.15,79,1.0
1037.625,1037.625,423.1571,269,3.5,Violoncello,0.5,0.15,52,1.0
1037.625,1037.625,423.1571,269,3.5,Violin 2,1.0,0.3,69,0.7087
1037.625,1037.625,423.1571,269,3.5,Violin 2,1.0,0.3,81,0.7087
1037.625,1037.625,423.1571,269,3.5,Oboe 2,0.5,0.15,79,1.0
1037.625,1037.625,423.1571,269,3.5,Violin 1,0.5,0.15,79,1.0
1037.625,1037.625,423.1571,269,3.5,Viola,0.5,0.15,64,1.0
1037.625,1037.625,423.1571,269,3.5,Bassoon 1,0.5,0.15,52,1.0
1037.625,1037.625,423.1571,269,3.5,Bassoon 2,0.5,0.15,52,1.0
1037.625,1037.625,423.1571,269,3.5,Flute 2,0.5,0.15,79,1.0
1037.625,1037.625,423.1571,269,3.5,Contrabass,0.5,0.15,40,1.0
1037.625,1037.625,423.1571,269,3.5,Flute 1,0.5,0.15,79,1.0
1037.625,1037.625,423.1571,269,3.5,Oboe 1,0.5,0.15,79,1.0
1038.125,1038.125,423.3071,269,4.0,Bassoon 1,0.5,0.15,50,1.0
1038.125,1038.125,423.3071,269,4.0,Violoncello,0.5,0.15,50,1.0
1038.125,1038.125,423.3071,269,4.0,Flute 2,0.5,0.15,78,1.0
1038.125,1038.125,423.3071,269,4.0,Violin 1,0.5,0.15,78,1.0
1038.125,1038.125,423.3071,269,4.0,Viola,0.5,0.15,62,1.0
1038.125,1038.125,423.3071,269,4.0,Bassoon 2,0.5,0.15,50,1.0
1038.125,1038.125,423.3071,269,4.0,Oboe 2,0.5,0.15,78,1.0
1038.125,1038.125,423.3071,269,4.0,Oboe 1,0.5,0.15,78,1.0
1038.125,1038.125,423.3071,269,4.0,Flute 1,0.5,0.15,78,1.0
1038.125,1038.125,423.3071,269,4.0,Contrabass,0.5,0.15,38,1.0
1038.625,1038.625,423.4571,269,4.5,Oboe 1,0.5,0.15,77,1.0
1038.625,1038.625,423.4571,269,4.5,Violin 1,0.5,0.15,77,1.0
1038.625,1038.625,423.4571,269,4.5,Contrabass,0.5,0.15,37,1.0
1038.625,1038.625,423.4571,269,4.5,Bassoon 2,0.5,0.15,49,1.0
1038.625,1038.625,423.4571,269,4.5,Violin 2,0.5,0.15,81,0.7087
1038.625,1038.625,423.4571,269,4.5,Oboe 2,0.5,0.15,77,1.0
1038.625,1038.625,423.4571,269,4.5,Flute 2,0.5,0.15,77,1.0
1038.625,1038.625,423.4571,269,4.5,Violoncello,0.5,0.15,49,1.0
1038.625,1038.625,423.4571,269,4.5,Violin 2,0.5,0.15,69,0.7087
1038.625,1038.625,423.4571,269,4.5,Bassoon 1,0.5,0.15,49,1.0
1038.625,1038.625,423.4571,269,4.5,Flute 1,0.5,0.15,77,1.0
1038.625,1038.625,423.4571,269,4.5,Viola,0.5,0.15,61,1.0
1039.125,1039.125,423.6071,270,1.0,D Horn 1,4.0,1.2,66,1.0
1039.125,1039.125,423.6071,270,1.0,Flute 1,0.5,0.15,78,1.0
1039.125,1039.125,423.6071,270,1.0,Violin 2,0.5,0.15,81,0.7087
1039.125,1039.125,423.6071,270,1.0,D Horn 2,4.0,1.2,54,1.0
1039.125,1039.125,423.6071,270,1.0,Violoncello,0.5,0.15,50,1.0
1039.125,1039.125,423.6071,270,1.0,Oboe 1,0.5,0.15,78,1.0
1039.125,1039.125,423.6071,270,1.0,Flute 2,0.5,0.15,78,1.0
1039.125,1039.125,423.6071,270,1.0,Violin 1,0.5,0.15,78,1.0
1039.125,1039.125,423.6071,270,1.0,Violin 2,0.5,0.15,69,0.7087
1039.125,1039.125,423.6071,270,1.0,Timpani,1.0,0.3,50,1.0
1039.125,1039.125,423.6071,270,1.0,D Trumpet 2,4.0,1.2,66,1.0
1039.125,1039.125,423.6071,270,1.0,Contrabass,0.5,0.15,38,1.0
1039.125,1039.125,423.6071,270,1.0,A Clarinet 1,4.0,1.2,78,1.0
1039.125,1039.125,423.6071,270,1.0,Oboe 2,0.5,0.15,78,1.0
1039.125,1039.125,423.6071,270,1.0,Bassoon 1,0.5,0.15,50,1.0
1039.125,1039.125,423.6071,270,1.0,Bassoon 2,0.5,0.15,50,1.0
1039.125,1039.125,423.6071,270,1.0,Viola,0.5,0.15,62,1.0
1039.125,1039.125,423.6071,270,1.0,D Trumpet 1,4.0,1.2,78,1.0
1039.125,1039.125,423.6071,270,1.0,A Clarinet 2,4.0,1.2,66,1.0
1039.625,1039.625,423.7571,270,1.5,Oboe 2,0.5,0.15,78,1.0
1039.625,1039.625,423.7571,270,1.5,Flute 2,0.5,0.15,90,1.0
1039.625,1039.625,423.7571,270,1.5,Violoncello,0.5,0.15,62,1.0
1039.625,1039.625,423.7571,270,1.5,Bassoon 1,0.5,0.15,62,1.0
1039.625,1039.625,423.7571,270,1.5,Flute 1,0.5,0.15,90,1.0
1039.625,1039.625,423.7571,270,1.5,Violin 2,1.0,0.3,78,1.0
1039.625,1039.625,423.7571,270,1.5,Viola,0.5,0.15,74,1.0
1039.625,1039.625,423.7571,270,1.5,Oboe 1,0.5,0.15,78,1.0
1039.625,1039.625,423.7571,270,1.5,Bassoon 2,0.5,0.15,62,1.0
1039.625,1039.625,423.7571,270,1.5,Contrabass,0.5,0.15,50,1.0
1039.625,1039.625,423.7571,270,1.5,Violin 1,0.5,0.15,90,1.0
1040.125,1040.125,423.9071,270,2.0,Contrabass,0.5,0.15,49,1.0
1040.125,1040.125,423.9071,270,2.0,Bassoon 2,0.5,0.15,61,1.0
1040.125,1040.125,423.9071,270,2.0,Oboe 2,0.5,0.15,76,1.0
1040.125,1040.125,423.9071,270,2.0,Flute 2,0.5,0.15,88,1.0
1040.125,1040.125,423.9071,270,2.0,Violoncello,0.5,0.15,61,1.0
1040.125,1040.125,423.9071,270,2.0,Bassoon 1,0.5,0.15,61,1.0
1040.125,1040.125,423.9071,270,2.0,Flute 1,0.5,0.15,88,1.0
1040.125,1040.125,423.9071,270,2.0,Viola,0.5,0.15,73,1.0
1040.125,1040.125,423.9071,270,2.0,Violin 1,0.5,0.15,88,1.0
1040.125,1040.125,423.9071,270,2.0,Oboe 1,0.5,0.15,76,1.0
1040.625,1040.625,424.0571,270,2.5,Bassoon 1,0.5,0.15,59,1.0
1040.625,1040.625,424.0571,270,2.5,Oboe 1,0.5,0.15,74,1.0
1040.625,1040.625,424.0571,270,2.5,Bassoon 2,0.5,0.15,59,1.0
1040.625,1040.625,424.0571,270,2.5,Flute 1,0.5,0.15,86,1.0
1040.625,1040.625,424.0571,270,2.5,Violin 1,0.5,0.15,86,1.0
1040.625,1040.625,424.0571,270,2.5,Contrabass,0.5,0.15,47,1.0
1040.625,1040.625,424.0571,270,2.5,Oboe 2,0.5,0.15,74,1.0
1040.625,1040.625,424.0571,270,2.5,Viola,0.5,0.15,71,1.0
1040.625,1040.625,424.0571,270,2.5,Violoncello,0.5,0.15,59,1.0
1040.625,1040.625,424.0571,270,2.5,Violin 2,1.0,0.3,78,1.0
1040.625,1040.625,424.0571,270,2.5,Flute 2,0.5,0.15,86,1.0
1041.125,1041.125,424.2071,270,3.0,Bassoon 2,0.5,0.15,61,1.0
1041.125,1041.125,424.2071,270,3.0,Flute 2,0.5,0.15,88,1.0
1041.125,1041.125,424.2071,270,3.0,Violin 1,0.5,0.15,88,1.0
1041.125,1041.125,424.2071,270,3.0,Violoncello,0.5,0.15,61,1.0
1041.125,1041.125,424.2071,270,3.0,Oboe 1,0.5,0.15,76,1.0
1041.125,1041.125,424.2071,270,3.0,Viola,0.5,0.15,73,1.0
1041.125,1041.125,424.2071,270,3.0,Flute 1,0.5,0.15,88,1.0
1041.125,1041.125,424.2071,270,3.0,Oboe 2,0.5,0.15,76,1.0
1041.125,1041.125,424.2071,270,3.0,Contrabass,0.5,0.15,49,1.0
1041.125,1041.125,424.2071,270,3.0,Bassoon 1,0.5,0.15,61,1.0
1041.625,1041.625,424.3571,270,3.5,Flute 2,0.5,0.15,88,1.0
1041.625,1041.625,424.3571,270,3.5,Oboe 1,0.5,0.15,76,1.0
1041.625,1041.625,424.3571,270,3.5,Bassoon 1,0.5,0.15,61,1.0
1041.625,1041.625,424.3571,270,3.5,Oboe 2,0.5,0.15,76,1.0
1041.625,1041.625,424.3571,270,3.5,Contrabass,0.5,0.15,49,1.0
1041.625,1041.625,424.3571,270,3.5,Violoncello,0.5,0.15,61,1.0
1041.625,1041.625,424.3571,270,3.5,Flute 1,0.5,0.15,88,1.0
1041.625,1041.625,424.3571,270,3.5,Violin 2,1.0,0.3,78,1.0
1041.625,1041.625,424.3571,270,3.5,Violin 1,0.5,0.15,88,1.0
1041.625,1041.625,424.3571,270,3.5,Bassoon 2,0.5,0.15,61,1.0
1041.625,1041.625,424.3571,270,3.5,Viola,0.5,0.15,73,1.0
1042.125,1042.125,424.5071,270,4.0,Flute 1,0.5,0.15,86,1.0
1042.125,1042.125,424.5071,270,4.0,Violoncello,0.5,0.15,59,1.0
1042.125,1042.125,424.5071,270,4.0,Bassoon 2,0.5,0.15,59,1.0
1042.125,1042.125,424.5071,270,4.0,Oboe 1,0.5,0.15,74,1.0
1042.125,1042.125,424.5071,270,4.0,Flute 2,0.5,0.15,86,1.0
1042.125,1042.125,424.5071,270,4.0,Violin 1,0.5,0.15,86,1.0
1042.125,1042.125,424.5071,270,4.0,Bassoon 1,0.5,0.15,59,1.0
1042.125,1042.125,424.5071,270,4.0,Contrabass,0.5,0.15,47,1.0
1042.125,1042.125,424.5071,270,4.0,Oboe 2,0.5,0.15,74,1.0
1042.125,1042.125,424.5071,270,4.0,Viola,0.5,0.15,71,1.0
1042.625,1042.625,424.6571,270,4.5,Oboe 2,0.5,0.15,73,1.0
1042.625,1042.625,424.6571,270,4.5,Oboe 1,0.5,0.15,73,1.0
1042.625,1042.625,424.6571,270,4.5,Viola,0.5,0.15,70,1.0
1042.625,1042.625,424.6571,270,4.5,Violin 1,0.5,0.15,85,1.0
1042.625,1042.625,424.6571,270,4.5,Contrabass,0.5,0.15,46,1.0
1042.625,1042.625,424.6571,270,4.5,Violoncello,0.5,0.15,58,1.0
1042.625,1042.625,424.6571,270,4.5,Violin 2,0.5,0.15,78,1.0
1042.625,1042.625,424.6571,270,4.5,Flute 2,0.5,0.15,85,1.0
1042.625,1042.625,424.6571,270,4.5,Flute 1,0.5,0.15,85,1.0
1042.625,1042.625,424.6571,270,4.5,Bassoon 1,0.5,0.15,58,1.0
1042.625,1042.625,424.6571,270,4.5,Bassoon 2,0.5,0.15,58,1.0
1043.125,1043.125,424.8071,271,1.0,Violin 1,0.5,0.15,86,1.0
1043.125,1043.125,424.8071,271,1.0,A Clarinet 1,4.0,1.2,74,1.0
1043.125,1043.125,424.8071,271,1.0,D Horn 2,4.0,1.2,50,1.0
1043.125,1043.125,424.8071,271,1.0,Bassoon 1,0.5,0.15,59,1.0
1043.125,1043.125,424.8071,271,1.0,D Trumpet 2,4.0,1.2,62,1.0
1043.125,1043.125,424.8071,271,1.0,Flute 1,0.5,0.15,86,1.0
1043.125,1043.125,424.8071,271,1.0,Viola,0.5,0.15,71,1.0
1043.125,1043.125,424.8071,271,1.0,D Trumpet 1,4.0,1.2,74,1.0
1043.125,1043.125,424.8071,271,1.0,A Clarinet 2,4.0,1.2,62,1.0
1043.125,1043.125,424.8071,271,1.0,Violin 2,0.5,0.15,78,1.0
1043.125,1043.125,424.8071,271,1.0,Flute 2,0.5,0.15,86,1.0
1043.125,1043.125,424.8071,271,1.0,Oboe 2,0.5,0.15,74,1.0
1043.125,1043.125,424.8071,271,1.0,Timpani,1.0,0.3,50,1.0
1043.125,1043.125,424.8071,271,1.0,Oboe 1,0.5,0.15,74,1.0
1043.125,1043.125,424.8071,271,1.0,D Horn 1,4.0,1.2,62,1.0
1043.125,1043.125,424.8071,271,1.0,Contrabass,0.5,0.15,47,1.0
1043.125,1043.125,424.8071,271,1.0,Violoncello,0.5,0.15,59,1.0
1043.125,1043.125,424.8071,271,1.0,Bassoon 2,0.5,0.15,59,1.0
1043.625,1043.625,424.9571,271,1.5,Violin 2,1.0,0.3,62,0.7087
1043.625,1043.625,424.9571,271,1.5,Oboe 1,0.5,0.15,74,1.0
1043.625,1043.625,424.9571,271,1.5,Contrabass,0.5,0.15,47,1.0
1043.625,1043.625,424.9571,271,1.5,Violoncello,0.5,0.15,59,1.0
1043.625,1043.625,424.9571,271,1.5,Oboe 2,0.5,0.15,74,1.0
1043.625,1043.625,424.9571,271,1.5,Flute 1,0.5,0.15,86,1.0
1043.625,1043.625,424.9571,271,1.5,Bassoon 1,0.5,0.15,59,1.0
1043.625,1043.625,424.9571,271,1.5,Viola,0.5,0.15,71,1.0
1043.625,1043.625,424.9571,271,1.5,Bassoon 2,0.5,0.15,59,1.0
1043.625,1043.625,424.9571,271,1.5,Flute 2,0.5,0.15,86,1.0
1043.625,1043.625,424.9571,271,1.5,Violin 2,1.0,0.3,74,0.7087
1043.625,1043.625,424.9571,271,1.5,Violin 1,0.5,0.15,86,1.0
1044.125,1044.125,425.1071,271,2.0,Viola,0.5,0.15,69,1.0
1044.125,1044.125,425.1071,271,2.0,Contrabass,0.5,0.15,45,1.0
1044.125,1044.125,425.1071,271,2.0,Flute 2,0.5,0.15,84,1.0
1044.125,1044.125,425.1071,271,2.0,Violin 1,0.5,0.15,84,1.0
1044.125,1044.125,425.1071,271,2.0,Flute 1,0.5,0.15,84,1.0
1044.125,1044.125,425.1071,271,2.0,Violoncello,0.5,0.15,57,1.0
1044.125,1044.125,425.1071,271,2.0,Oboe 1,0.5,0.15,72,1.0
1044.125,1044.125,425.1071,271,2.0,Bassoon 1,0.5,0.15,57,1.0
1044.125,1044.125,425.1071,271,2.0,Bassoon 2,0.5,0.15,57,1.0
1044.125,1044.125,425.1071,271,2.0,Oboe 2,0.5,0.15,72,1.0
1044.625,1044.625,425.2571,271,2.5,Flute 1,0.5,0.15,83,1.0
1044.625,1044.625,425.2571,271,2.5,Viola,0.5,0.15,67,1.0
1044.625,1044.625,425.2571,271,2.5,Violin 1,0.5,0.15,83,1.0
1044.625,1044.625,425.2571,271,2.5,Flute 2,0.5,0.15,83,1.0
1044.625,1044.625,425.2571,271,2.5,Oboe 1,0.5,0.15,71,1.0
1044.625,1044.625,425.2571,271,2.5,Violoncello,0.5,0.15,55,1.0
1044.625,1044.625,425.2571,271,2.5,Bassoon 1,0.5,0.15,55,1.0
1044.625,1044.625,425.2571,271,2.5,Violin 2,1.0,0.3,62,0.7087
1044.625,1044.625,425.2571,271,2.5,Oboe 2,0.5,0.15,71,1.0
1044.625,1044.625,425.2571,271,2.5,Violin 2,1.0,0.3,74,0.7087
1044.625,1044.625,425.2571,271,2.5,Bassoon 2,0.5,0.15,55,1.0
1044.625,1044.625,425.2571,271,2.5,Contrabass,0.5,0.15,43,1.0
1045.125,1045.125,425.4071,271,3.0,Flute 1,0.5,0.15,84,1.0
1045.125,1045.125,425.4071,271,3.0,Bassoon 1,0.5,0.15,57,1.0
1045.125,1045.125,425.4071,271,3.0,Contrabass,0.5,0.15,45,1.0
1045.125,1045.125,425.4071,271,3.0,Violoncello,0.5,0.15,57,1.0
1045.125,1045.125,425.4071,271,3.0,Flute 2,0.5,0.15,84,1.0
1045.125,1045.125,425.4071,271,3.0,Violin 1,0.5,0.15,84,1.0
1045.125,1045.125,425.4071,271,3.0,Bassoon 2,0.5,0.15,57,1.0
1045.125,1045.125,425.4071,271,3.0,Viola,0.5,0.15,69,1.0
1045.125,1045.125,425.4071,271,3.0,Timpani,1.0,0.3,50,1.0
1045.125,1045.125,425.4071,271,3.0,Oboe 1,0.5,0.15,72,1.0
1045.125,1045.125,425.4071,271,3.0,Oboe 2,0.5,0.15,72,1.0
1045.625,1045.625,425.5571,271,3.5,Violoncello,0.5,0.15,57,1.0
1045.625,1045.625,425.5571,271,3.5,Violin 1,0.5,0.15,84,1.0
1045.625,1045.625,425.5571,271,3.5,Violin 2,1.0,0.3,74,0.7087
1045.625,1045.625,425.5571,271,3.5,Bassoon 2,0.5,0.15,57,1.0
1045.625,1045.625,425.5571,271,3.5,Viola,0.5,0.15,69,1.0
1045.625,1045.625,425.5571,271,3.5,Oboe 1,0.5,0.15,72,1.0
1045.625,1045.625,425.5571,271,3.5,Bassoon 1,0.5,0.15,57,1.0
1045.625,1045.625,425.5571,271,3.5,Oboe 2,0.5,0.15,72,1.0
1045.625,1045.625,425.5571,271,3.5,Flute 2,0.5,0.15,84,1.0
1045.625,1045.625,425.5571,271,3.5,Contrabass,0.5,0.15,45,1.0
1045.625,1045.625,425.5571,271,3.5,Violin 2,1.0,0.3,62,0.7087
1045.625,1045.625,425.5571,271,3.5,Flute 1,0.5,0.15,84,1.0
1046.125,1046.125,425.7071,271,4.0,Viola,0.5,0.15,67,1.0
1046.125,1046.125,425.7071,271,4.0,Bassoon 1,0.5,0.15,55,1.0
1046.125,1046.125,425.7071,271,4.0,Oboe 2,0.5,0.15,71,1.0
1046.125,1046.125,425.7071,271,4.0,Flute 1,0.5,0.15,83,1.0
1046.125,1046.125,425.7071,271,4.0,Bassoon 2,0.5,0.15,55,1.0
1046.125,1046.125,425.7071,271,4.0,Flute 2,0.5,0.15,83,1.0
1046.125,1046.125,425.7071,271,4.0,Oboe 1,0.5,0.15,71,1.0
1046.125,1046.125,425.7071,271,4.0,Violin 1,0.5,0.15,83,1.0
1046.125,1046.125,425.7071,271,4.0,Contrabass,0.5,0.15,43,1.0
1046.125,1046.125,425.7071,271,4.0,Violoncello,0.5,0.15,55,1.0
1046.625,1046.625,425.8571,271,4.5,Violin 2,0.5,0.15,74,0.7087
1046.625,1046.625,425.8571,271,4.5,Violin 2,0.5,0.15,62,0.7087
1046.625,1046.625,425.8571,271,4.5,Flute 2,0.5,0.15,82,1.0
1046.625,1046.625,425.8571,271,4.5,Flute 1,0.5,0.15,82,1.0
1046.625,1046.625,425.8571,271,4.5,Contrabass,0.5,0.15,42,1.0
1046.625,1046.625,425.8571,271,4.5,Bassoon 1,0.5,0.15,54,1.0
1046.625,1046.625,425.8571,271,4.5,Oboe 2,0.5,0.15,70,1.0
1046.625,1046.625,425.8571,271,4.5,Violoncello,0.5,0.15,54,1.0
1046.625,1046.625,425.8571,271,4.5,Viola,0.5,0.15,66,1.0
1046.625,1046.625,425.8571,271,4.5,Oboe 1,0.5,0.15,70,1.0
1046.625,1046.625,425.8571,271,4.5,Violin 1,0.5,0.15,82,1.0
1046.625,1046.625,425.8571,271,4.5,Bassoon 2,0.5,0.15,54,1.0
1047.125,1047.125,426.0071,272,1.0,Viola,1.0,0.3,67,1.0
1047.125,1047.125,426.0071,272,1.0,Violin 1,1.0,0.3,83,0.7087
1047.125,1047.125,426.0071,272,1.0,Violin 1,1.0,0.3,71,0.7087
1047.125,1047.125,426.0071,272,1.0,Flute 1,1.0,0.3,83,1.0
1047.125,1047.125,426.0071,272,1.0,Oboe 2,1.0,0.3,71,1.0
1047.125,1047.125,426.0071,272,1.0,Bassoon 1,1.0,0.3,55,1.0
1047.125,1047.125,426.0071,272,1.0,A Clarinet 2,1.0,0.3,62,1.0
1047.125,1047.125,426.0071,272,1.0,D Trumpet 2,1.0,0.3,62,1.0
1047.125,1047.125,426.0071,272,1.0,Bassoon 2,1.0,0.3,55,1.0
1047.125,1047.125,426.0071,272,1.0,Violoncello,1.0,0.3,55,1.0
1047.125,1047.125,426.0071,272,1.0,D Trumpet 1,1.0,0.3,74,1.0
1047.125,1047.125,426.0071,272,1.0,Flute 2,1.0,0.3,83,1.0
1047.125,1047.125,426.0071,272,1.0,D Horn 1,1.0,0.3,62,1.0
1047.125,1047.125,426.0071,272,1.0,Oboe 1,1.0,0.3,71,1.0
1047.125,1047.125,426.0071,272,1.0,Timpani,1.0,0.3,50,1.0
1047.125,1047.125,426.0071,272,1.0,Violin 2,0.5,0.15,74,0.7087
1047.125,1047.125,426.0071,272,1.0,D Horn 2,1.0,0.3,50,1.0
1047.125,1047.125,426.0071,272,1.0,Violin 2,0.5,0.15,62,0.7087
1047.125,1047.125,426.0071,272,1.0,A Clarinet 1,1.0,0.3,74,1.0
1047.125,1047.125,426.0071,272,1.0,Contrabass,1.0,0.3,43,1.0
1048.875,1048.875,426.5321,272,2.75,Flute 1,0.25,0.075,91,1.0
1048.875,1048.875,426.5321,272,2.75,A Clarinet 1,0.25,0.075,79,1.0
1048.875,1048.875,426.5321,272,2.75,Bassoon 1,0.25,0.075,67,1.0
1048.875,1048.875,426.5321,272,2.75,D Trumpet 2,0.25,0.075,62,1.0
1048.875,1048.875,426.5321,272,2.75,Flute 2,0.25,0.075,83,1.0
1048.875,1048.875,426.5321,272,2.75,D Trumpet 1,0.25,0.075,74,1.0
1048.875,1048.875,426.5321,272,2.75,Bassoon 2,0.25,0.075,55,1.0
1048.875,1048.875,426.5321,272,2.75,Oboe 2,0.25,0.075,74,1.0
1048.875,1048.875,426.5321,272,2.75,A Clarinet 2,0.25,0.075,71,1.0
1048.875,1048.875,426.5321,272,2.75,Oboe 1,0.25,0.075,83,1.0
1049.125,1049.125,426.6071,272,3.0,Oboe 1,2.0,0.6,83,1.0
1049.125,1049.125,426.6071,272,3.0,A Clarinet 2,2.0,0.6,71,1.0
1049.125,1049.125,426.6071,272,3.0,D Trumpet 1,2.0,0.6,74,1.0
1049.125,1049.125,426.6071,272,3.0,Flute 2,2.0,0.6,83,1.0
1049.125,1049.125,426.6071,272,3.0,Flute 1,2.0,0.6,91,1.0
1049.125,1049.125,426.6071,272,3.0,Oboe 2,2.0,0.6,74,1.0
1049.125,1049.125,426.6071,272,3.0,Bassoon 1,2.0,0.6,67,1.0
1049.125,1049.125,426.6071,272,3.0,D Trumpet 2,2.0,0.6,62,1.0
1049.125,1049.125,426.6071,272,3.0,A Clarinet 1,2.0,0.6,79,1.0
1049.125,1049.125,426.6071,272,3.0,Bassoon 2,2.0,0.6,55,1.0
1051.125,1051.125,427.2071,273,1.0,Contrabass,1.0,0.3,40,1.0
1051.125,1051.125,427.2071,273,1.0,Violin 1,1.0,0.3,71,0.7087
1051.125,1051.125,427.2071,273,1.0,Violin 1,1.0,0.3,83,0.7087
1051.125,1051.125,427.2071,273,1.0,Violin 2,1.0,0.3,64,0.7087
1051.125,1051.125,427.2071,273,1.0,Violin 2,1.0,0.3,71,0.7087
1051.125,1051.125,427.2071,273,1.0,Violoncello,1.0,0.3,52,1.0
1051.125,1051.125,427.2071,273,1.0,Viola,1.0,0.3,64,1.0
1051.125,1051.125,427.2071,273,1.0,Violin 2,1.0,0.3,79,0.7087
1052.875,1052.875,427.7321,273,2.75,Flute 2,0.25,0.075,83,1.0
1052.875,1052.875,427.7321,273,2.75,Flute 1,0.25,0.075,91,1.0
1052.875,1052.875,427.7321,273,2.75,Bassoon 2,0.25,0.075,52,1.0
1052.875,1052.875,427.7321,273,2.75,D Horn 1,0.25,0.075,67,1.0
1052.875,1052.875,427.7321,273,2.75,A Clarinet 1,0.25,0.075,79,1.0
1052.875,1052.875,427.7321,273,2.75,Oboe 2,0.25,0.075,76,1.0
1052.875,1052.875,427.7321,273,2.75,A Clarinet 2,0.25,0.075,71,1.0
1052.875,1052.875,427.7321,273,2.75,Oboe 1,0.25,0.075,83,1.0
1052.875,1052.875,427.7321,273,2.75,Bassoon 1,0.25,0.075,64,1.0
1052.875,1052.875,427.7321,273,2.75,D Horn 2,0.25,0.075,67,1.0
1053.125,1053.125,427.8071,273,3.0,D Horn 1,2.0,0.6,67,1.0
1053.125,1053.125,427.8071,273,3.0,Flute 2,2.0,0.6,83,1.0
1053.125,1053.125,427.8071,273,3.0,A Clarinet 2,2.0,0.6,71,1.0
1053.125,1053.125,427.8071,273,3.0,Bassoon 1,2.0,0.6,64,1.0
1053.125,1053.125,427.8071,273,3.0,D Horn 2,2.0,0.6,67,1.0
1053.125,1053.125,427.8071,273,3.0,A Clarinet 1,2.0,0.6,79,1.0
1053.125,1053.125,427.8071,273,3.0,Bassoon 2,2.0,0.6,52,1.0
1053.125,1053.125,427.8071,273,3.0,Oboe 2,2.0,0.6,76,1.0
1053.125,1053.125,427.8071,273,3.0,Oboe 1,2.0,0.6,83,1.0
1053.125,1053.125,427.8071,273,3.0,Flute 1,2.0,0.6,91,1.0
1055.125,1055.125,428.4071,274,1.0,Violoncello,1.0,0.3,49,1.0
1055.125,1055.125,428.4071,274,1.0,Violin 2,1.0,0.3,64,0.7087
1055.125,1055.125,428.4071,274,1.0,Violin 2,1.0,0.3,71,0.7087
1055.125,1055.125,428.4071,274,1.0,Violin 2,1.0,0.3,79,0.7087
1055.125,1055.125,428.4071,274,1.0,Contrabass,1.0,0.3,37,1.0
1055.125,1055.125,428.4071,274,1.0,Violin 1,1.0,0.3,81,0.7087
1055.125,1055.125,428.4071,274,1.0,Viola,1.0,0.3,61,1.0
1055.125,1055.125,428.4071,274,1.0,Violin 1,1.0,0.3,69,0.7087
1056.125,1056.125,428.7071,274,2.0,Oboe 2,1.0,0.3,79,1.0
1056.125,1056.125,428.7071,274,2.0,Flute 2,1.0,0.3,88,1.0
1056.125,1056.125,428.7071,274,2.0,D Horn 2,1.0,0.3,57,1.0
1056.125,1056.125,428.7071,274,2.0,D Horn 1,1.0,0.3,64,1.0
1056.125,1056.125,428.7071,274,2.0,Bassoon 2,1.0,0.3,49,1.0
1056.125,1056.125,428.7071,274,2.0,A Clarinet 1,1.0,0.3,76,1.0
1056.125,1056.125,428.7071,274,2.0,Flute 1,1.0,0.3,91,1.0
1056.125,1056.125,428.7071,274,2.0,Oboe 1,1.0,0.3,81,1.0
1056.125,1056.125,428.7071,274,2.0,Bassoon 1,1.0,0.3,61,1.0
1056.125,1056.125,428.7071,274,2.0,A Clarinet 2,1.0,0.3,69,1.0
1057.125,1057.125,429.0071,274,3.0,Violin 1,1.0,0.3,81,0.7087
1057.125,1057.125,429.0071,274,3.0,Viola,1.0,0.3,62,1.0
1057.125,1057.125,429.0071,274,3.0,Violin 2,1.0,0.3,62,0.7087
1057.125,1057.125,429.0071,274,3.0,Violin 2,1.0,0.3,69,0.7087
1057.125,1057.125,429.0071,274,3.0,Violin 2,1.0,0.3,78,0.7087
1057.125,1057.125,429.0071,274,3.0,Contrabass,1.0,0.3,38,1.0
1057.125,1057.125,429.0071,274,3.0,Violoncello,1.0,0.3,50,1.0
1057.125,1057.125,429.0071,274,3.0,Violin 1,1.0,0.3,69,0.7087
1058.125,1058.125,429.3071,274,4.0,D Horn 1,1.0,0.3,66,1.0
1058.125,1058.125,429.3071,274,4.0,Bassoon 1,1.0,0.3,62,1.0
1058.125,1058.125,429.3071,274,4.0,D Horn 2,1.0,0.3,62,1.0
1058.125,1058.125,429.3071,274,4.0,A Clarinet 2,1.0,0.3,69,1.0
1058.125,1058.125,429.3071,274,4.0,A Clarinet 1,1.0,0.3,74,1.0
1058.125,1058.125,429.3071,274,4.0,Oboe 1,1.0,0.3,81,1.0
1058.125,1058.125,429.3071,274,4.0,Flute 1,1.0,0.3,90,1.0
1058.125,1058.125,429.3071,274,4.0,Flute 2,1.0,0.3,86,1.0
1058.125,1058.125,429.3071,274,4.0,Bassoon 2,1.0,0.3,50,1.0
1058.125,1058.125,429.3071,274,4.0,Oboe 2,1.0,0.3,78,1.0
1059.125,1059.125,429.6071,275,1.0,Violin 1,1.0,0.3,55,0.7087
1059.125,1059.125,429.6071,275,1.0,Viola,1.0,0.3,55,1.0
1059.125,1059.125,429.6071,275,1.0,Violin 2,1.0,0.3,55,0.7087
1059.125,1059.125,429.6071,275,1.0,Violin 2,1.0,0.3,67,0.7087
1059.125,1059.125,429.6071,275,1.0,Contrabass,1.0,0.3,31,1.0
1059.125,1059.125,429.6071,275,1.0,Violin 1,1.0,0.3,71,0.7087
1059.125,1059.125,429.6071,275,1.0,Violin 1,1.0,0.3,79,0.7087
1059.125,1059.125,429.6071,275,1.0,Violoncello,1.0,0.3,43,1.0
1059.125,1059.125,429.6071,275,1.0,Violin 2,1.0,0.3,76,0.7087
1059.125,1059.125,429.6071,275,1.0,Violin 1,1.0,0.3,64,0.7087
1060.125,1060.125,429.9071,275,2.0,D Horn 1,1.0,0.3,67,1.0
1060.125,1060.125,429.9071,275,2.0,Oboe 1,1.0,0.3,83,1.0
1060.125,1060.125,429.9071,275,2.0,D Horn 2,1.0,0.3,64,1.0
1060.125,1060.125,429.9071,275,2.0,Oboe 2,1.0,0.3,79,1.0
1060.125,1060.125,429.9071,275,2.0,A Clarinet 2,1.0,0.3,71,1.0
1060.125,1060.125,429.9071,275,2.0,Flute 1,1.0,0.3,91,1.0
1060.125,1060.125,429.9071,275,2.0,Flute 2,1.0,0.3,88,1.0
1060.125,1060.125,429.9071,275,2.0,Bassoon 1,1.0,0.3,55,1.0
1060.125,1060.125,429.9071,275,2.0,Bassoon 2,1.0,0.3,43,1.0
1060.125,1060.125,429.9071,275,2.0,A Clarinet 1,1.0,0.3,76,1.0
1061.125,1061.125,430.2071,275,3.0,Violin 1,1.0,0.3,57,0.7087
1061.125,1061.125,430.2071,275,3.0,Violin 1,1.0,0.3,64,0.7087
1061.125,1061.125,430.2071,275,3.0,Viola,1.0,0.3,57,1.0
1061.125,1061.125,430.2071,275,3.0,Violin 1,1.0,0.3,69,0.7087
1061.125,1061.125,430.2071,275,3.0,Violin 1,1.0,0.3,76,0.7087
1061.125,1061.125,430.2071,275,3.0,Contrabass,1.0,0.3,33,1.0
1061.125,1061.125,430.2071,275,3.0,Violin 2,1.0,0.3,73,0.7087
1061.125,1061.125,430.2071,275,3.0,Violin 2,1.0,0.3,64,0.7087
1061.125,1061.125,430.2071,275,3.0,Violin 2,1.0,0.3,57,0.7087
1061.125,1061.125,430.2071,275,3.0,Violoncello,1.0,0.3,45,1.0
1062.125,1062.125,430.5071,275,4.0,Flute 2,1.0,0.3,85,1.0
1062.125,1062.125,430.5071,275,4.0,Oboe 2,1.0,0.3,76,1.0
1062.125,1062.125,430.5071,275,4.0,Oboe 1,1.0,0.3,79,1.0
1062.125,1062.125,430.5071,275,4.0,Bassoon 1,1.0,0.3,57,1.0
1062.125,1062.125,430.5071,275,4.0,D Horn 1,1.0,0.3,64,1.0
1062.125,1062.125,430.5071,275,4.0,Bassoon 2,1.0,0.3,45,1.0
1062.125,1062.125,430.5071,275,4.0,A Clarinet 1,1.0,0.3,73,1.0
1062.125,1062.125,430.5071,275,4.0,A Clarinet 2,1.0,0.3,67,1.0
1062.125,1062.125,430.5071,275,4.0,D Horn 2,1.0,0.3,57,1.0
1062.125,1062.125,430.5071,275,4.0,Flute 1,1.0,0.3,88,1.0
1063.125,1063.125,430.8071,276,1.0,Violoncello,1.0,0.3,58,1.0
1063.125,1063.125,430.8071,276,1.0,Timpani,1.0,0.3,50,1.0
1063.125,1063.125,430.8071,276,1.0,Viola,1.0,0.3,58,1.0
1063.125,1063.125,430.8071,276,1.0,Contrabass,1.0,0.3,46,1.0
1063.125,1063.125,430.8071,276,1.0,Violin 1,1.0,0.3,79,0.7087
1063.125,1063.125,430.8071,276,1.0,Violin 2,1.0,0.3,67,0.7087
1063.125,1063.125,430.8071,276,1.0,Violin 1,1.0,0.3,62,0.7087
1063.125,1063.125,430.8071,276,1.0,Violin 2,1.0,0.3,58,0.7087
1063.125,1063.125,430.8071,276,1.0,Violin 2,1.0,0.3,74,0.7087
1063.125,1063.125,430.8071,276,1.0,Violin 1,1.0,0.3,74,0.7087
1064.875,1064.875,431.3321,276,2.75,Oboe 2,0.25,0.075,74,1.0
1064.875,1064.875,431.3321,276,2.75,A Clarinet 1,0.25,0.075,70,1.0
1064.875,1064.875,431.3321,276,2.75,Bassoon 2,0.25,0.075,58,1.0
1064.875,1064.875,431.3321,276,2.75,D Trumpet 1,0.25,0.075,74,1.0
1064.875,1064.875,431.3321,276,2.75,D Horn 1,0.25,0.075,67,1.0
1064.875,1064.875,431.3321,276,2.75,Flute 1,0.25,0.075,91,1.0
1064.875,1064.875,431.3321,276,2.75,D Horn 2,0.25,0.075,67,1.0
1064.875,1064.875,431.3321,276,2.75,D Trumpet 2,0.25,0.075,62,1.0
1064.875,1064.875,431.3321,276,2.75,Bassoon 1,0.25,0.075,62,1.0
1064.875,1064.875,431.3321,276,2.75,Oboe 1,0.25,0.075,79,1.0
1064.875,1064.875,431.3321,276,2.75,A Clarinet 2,0.25,0.075,67,1.0
1064.875,1064.875,431.3321,276,2.75,Flute 2,0.25,0.075,86,1.0
1065.125,1065.125,431.4071,276,3.0,D Trumpet 1,2.0,0.6,74,1.0
1065.125,1065.125,431.4071,276,3.0,Bassoon 2,2.0,0.6,58,1.0
1065.125,1065.125,431.4071,276,3.0,Oboe 1,2.0,0.6,79,1.0
1065.125,1065.125,431.4071,276,3.0,Flute 2,2.0,0.6,86,1.0
1065.125,1065.125,431.4071,276,3.0,D Horn 2,2.0,0.6,67,1.0
1065.125,1065.125,431.4071,276,3.0,A Clarinet 2,2.0,0.6,67,1.0
1065.125,1065.125,431.4071,276,3.0,Flute 1,2.0,0.6,91,1.0
1065.125,1065.125,431.4071,276,3.0,D Trumpet 2,2.0,0.6,62,1.0
1065.125,1065.125,431.4071,276,3.0,D Horn 1,2.0,0.6,67,1.0
1065.125,1065.125,431.4071,276,3.0,Bassoon 1,2.0,0.6,62,1.0
1065.125,1065.125,431.4071,276,3.0,A Clarinet 1,2.0,0.6,70,1.0
1065.125,1065.125,431.4071,276,3.0,Oboe 2,2.0,0.6,74,1.0
1067.125,1067.125,432.0071,277,1.0,Violoncello,1.0,0.3,61,1.0
1067.125,1067.125,432.0071,277,1.0,Viola,1.0,0.3,61,1.0
1067.125,1067.125,432.0071,277,1.0,Violin 1,1.0,0.3,76,0.7087
1067.125,1067.125,432.0071,277,1.0,Contrabass,1.0,0.3,49,1.0
1067.125,1067.125,432.0071,277,1.0,Violin 1,1.0,0.3,64,0.7087
1067.125,1067.125,432.0071,277,1.0,Violin 2,1.0,0.3,67,0.7087
1067.125,1067.125,432.0071,277,1.0,Violin 2,1.0,0.3,70,0.7087
1067.125,1067.125,432.0071,277,1.0,Violin 2,1.0,0.3,76,0.7087
1067.125,1067.125,432.0071,277,1.0,Violin 1,1.0,0.3,79,0.7087
1068.875,1068.875,432.5321,277,2.75,D Horn 1,0.25,0.075,67,1.0
1068.875,1068.875,432.5321,277,2.75,A Clarinet 2,0.25,0.075,67,1.0
1068.875,1068.875,432.5321,277,2.75,D Horn 2,0.25,0.075,67,1.0
1068.875,1068.875,432.5321,277,2.75,Bassoon 2,0.25,0.075,61,1.0
1068.875,1068.875,432.5321,277,2.75,Oboe 2,0.25,0.075,76,1.0
1068.875,1068.875,432.5321,277,2.75,Oboe 1,0.25,0.075,79,1.0
1068.875,1068.875,432.5321,277,2.75,A Clarinet 1,0.25,0.075,70,1.0
1068.875,1068.875,432.5321,277,2.75,Flute 1,0.25,0.075,91,1.0
1068.875,1068.875,432.5321,277,2.75,Bassoon 1,0.25,0.075,64,1.0
1068.875,1068.875,432.5321,277,2.75,Flute 2,0.25,0.075,88,1.0
1069.125,1069.125,432.6071,277,3.0,Flute 2,2.0,0.6,88,1.0
1069.125,1069.125,432.6071,277,3.0,D Horn 2,2.0,0.6,67,1.0
1069.125,1069.125,432.6071,277,3.0,Bassoon 2,2.0,0.6,61,1.0
1069.125,1069.125,432.6071,277,3.0,Oboe 1,2.0,0.6,79,1.0
1069.125,1069.125,432.6071,277,3.0,Flute 1,2.0,0.6,91,1.0
1069.125,1069.125,432.6071,277,3.0,A Clarinet 1,2.0,0.6,70,1.0
1069.125,1069.125,432.6071,277,3.0,D Horn 1,2.0,0.6,67,1.0
1069.125,1069.125,432.6071,277,3.0,Oboe 2,2.0,0.6,76,1.0
1069.125,1069.125,432.6071,277,3.0,Bassoon 1,2.0,0.6,64,1.0
1069.125,1069.125,432.6071,277,3.0,A Clarinet 2,2.0,0.6,67,1.0
1074.125,1074.125,434.1071,278,4.0,Viola,0.25,0.075,52,0.3543
1074.125,1074.125,434.1071,278,4.0,Violin 2,0.25,0.075,64,0.3543
1074.125,1074.125,434.1071,278,4.0,Contrabass,0.25,0.075,40,0.3543
1074.125,1074.125,434.1071,278,4.0,Violin 1,0.25,0.075,64,0.3543
1074.125,1074.125,434.1071,278,4.0,Violoncello,0.25,0.075,52,0.3543
1074.375,1074.375,434.1821,278,4.25,Viola,0.25,0.075,51,0.3543
1074.375,1074.375,434.1821,278,4.25,Violin 2,0.25,0.075,63,0.3543
1074.375,1074.375,434.1821,278,4.25,Contrabass,0.25,0.075,39,0.3543
1074.375,1074.375,434.1821,278,4.25,Violin 1,0.25,0.075,63,0.3543
1074.375,1074.375,434.1821,278,4.25,Violoncello,0.25,0.075,51,0.3543
1074.625,1074.625,434.2571,278,4.5,Violin 2,0.25,0.075,64,0.3543
1074.625,1074.625,434.2571,278,4.5,Contrabass,0.25,0.075,40,0.3543
1074.625,1074.625,434.2571,278,4.5,Violin 1,0.25,0.075,64,0.3543
1074.625,1074.625,434.2571,278,4.5,Violoncello,0.25,0.075,52,0.3543
1074.625,1074.625,434.2571,278,4.5,Viola,0.25,0.075,52,0.3543
1074.875,1074.875,434.3321,278,4.75,Contrabass,0.25,0.075,41,0.3543
1074.875,1074.875,434.3321,278,4.75,Viola,0.25,0.075,53,0.3543
1074.875,1074.875,434.3321,278,4.75,Violin 2,0.25,0.075,65,0.3543
1074.875,1074.875,434.3321,278,4.75,Violoncello,0.25,0.075,53,0.3543
1074.875,1074.875,434.3321,278,4.75,Violin 1,0.25,0.075,65,0.3543
1075.125,1075.125,434.4071,279,1.0,Violin 1,1.0,0.3,67,0.4043
1075.125,1075.125,434.4071,279,1.0,Contrabass,1.0,0.3,43,0.4043
1075.125,1075.125,434.4071,279,1.0,Viola,1.0,0.3,55,0.4043
1075.125,1075.125,434.4071,279,1.0,Violin 2,1.0,0.3,67,0.4043
1075.125,1075.125,434.4071,279,1.0,Violoncello,1.0,0.3,55,0.4043
1078.125,1078.125,435.3071,279,4.0,Violin 1,0.25,0.075,65,0.3543
1078.125,1078.125,435.3071,279,4.0,Violin 2,0.25,0.075,65,0.3543
1078.125,1078.125,435.3071,279,4.0,Violoncello,0.25,0.075,53,0.3543
1078.125,1078.125,435.3071,279,4.0,Viola,0.25,0.075,53,0.3543
1078.125,1078.125,435.3071,279,4.0,Contrabass,0.25,0.075,41,0.3543
1078.375,1078.375,435.3821,279,4.25,Violin 2,0.25,0.075,64,0.3543
1078.375,1078.375,435.3821,279,4.25,Contrabass,0.25,0.075,40,0.3543
1078.375,1078.375,435.3821,279,4.25,Viola,0.25,0.075,52,0.3543
1078.375,1078.375,435.3821,279,4.25,Violin 1,0.25,0.075,64,0.3543
1078.375,1078.375,435.3821,279,4.25,Violoncello,0.25,0.075,52,0.3543
1078.625,1078.625,435.4571,279,4.5,Violin 2,0.25,0.075,65,0.3543
1078.625,1078.625,435.4571,279,4.5,Viola,0.25,0.075,53,0.3543
1078.625,1078.625,435.4571,279,4.5,Violin 1,0.25,0.075,65,0.3543
1078.625,1078.625,435.4571,279,4.5,Violoncello,0.25,0.075,53,0.3543
1078.625,1078.625,435.4571,279,4.5,Contrabass,0.25,0.075,41,0.3543
1078.875,1078.875,435.5321,279,4.75,Violin 1,0.25,0.075,67,0.3543
1078.875,1078.875,435.5321,279,4.75,Viola,0.25,0.075,55,0.3543
1078.875,1078.875,435.5321,279,4.75,Contrabass,0.25,0.075,43,0.3543
1078.875,1078.875,435.5321,279,4.75,Violin 2,0.25,0.075,67,0.3543
1078.875,1078.875,435.5321,279,4.75,Violoncello,0.25,0.075,55,0.3543
1079.125,1079.125,435.6071,280,1.0,Violin 1,1.0,0.3,69,0.4043
1079.125,1079.125,435.6071,280,1.0,Contrabass,1.0,0.3,45,0.4043
1079.125,1079.125,435.6071,280,1.0,Violin 2,1.0,0.3,69,0.4043
1079.125,1079.125,435.6071,280,1.0,Violoncello,1.0,0.3,57,0.4043
1079.125,1079.125,435.6071,280,1.0,Viola,1.0,0.3,57,0.4043
1082.125,1082.125,436.5071,280,4.0,Contrabass,0.25,0.075,43,0.3543
1082.125,1082.125,436.5071,280,4.0,Violin 2,0.25,0.075,67,0.3543
1082.125,1082.125,436.5071,280,4.0,Viola,0.25,0.075,55,0.3543
1082.125,1082.125,436.5071,280,4.0,Violoncello,0.25,0.075,55,0.3543
1082.125,1082.125,436.5071,280,4.0,Violin 1,0.25,0.075,67,0.3543
1082.375,1082.375,436.5821,280,4.25,Violoncello,0.25,0.075,54,0.3543
1082.375,1082.375,436.5821,280,4.25,Violin 2,0.25,0.075,66,0.3543
1082.375,1082.375,436.5821,280,4.25,Violin 1,0.25,0.075,66,0.3543
1082.375,1082.375,436.5821,280,4.25,Viola,0.25,0.075,54,0.3543
1082.375,1082.375,436.5821,280,4.25,Contrabass,0.25,0.075,42,0.3543
1082.625,1082.625,436.6571,280,4.5,Violin 1,0.25,0.075,67,0.3543
1082.625,1082.625,436.6571,280,4.5,Violoncello,0.25,0.075,55,0.3543
1082.625,1082.625,436.6571,280,4.5,Violin 2,0.25,0.075,67,0.3543
1082.625,1082.625,436.6571,280,4.5,Viola,0.25,0.075,55,0.3543
1082.625,1082.625,436.6571,280,4.5,Contrabass,0.25,0.075,43,0.3543
1082.875,1082.875,436.7321,280,4.75,Violin 1,0.25,0.075,69,0.3543
1082.875,1082.875,436.7321,280,4.75,Violoncello,0.25,0.075,57,0.3543
1082.875,1082.875,436.7321,280,4.75,Viola,0.25,0.075,57,0.3543
1082.875,1082.875,436.7321,280,4.75,Violin 2,0.25,0.075,69,0.3543
1082.875,1082.875,436.7321,280,4.75,Contrabass,0.25,0.075,45,0.3543
1083.125,1083.125,436.8071,281,1.0,Viola,1.0,0.3,58,0.4043
1083.125,1083.125,436.8071,281,1.0,Violoncello,1.0,0.3,58,0.4043
1083.125,1083.125,436.8071,281,1.0,Violin 1,1.0,0.3,70,0.4043
1083.125,1083.125,436.8071,281,1.0,Violin 2,1.0,0.3,70,0.4043
1083.125,1083.125,436.8071,281,1.0,Contrabass,1.0,0.3,46,0.4043
1084.125,1084.125,437.1071,281,2.0,Violoncello,0.25,0.075,57,0.3543
1084.125,1084.125,437.1071,281,2.0,Violin 2,0.25,0.075,69,0.3543
1084.125,1084.125,437.1071,281,2.0,Viola,0.25,0.075,57,0.3543
1084.125,1084.125,437.1071,281,2.0,Violin 1,0.25,0.075,69,0.3543
1084.125,1084.125,437.1071,281,2.0,Contrabass,0.25,0.075,45,0.3543
1084.375,1084.375,437.1821,281,2.25,Contrabass,0.25,0.075,44,0.3543
1084.375,1084.375,437.1821,281,2.25,Violin 2,0.25,0.075,68,0.3543
1084.375,1084.375,437.1821,281,2.25,Viola,0.25,0.075,56,0.3543
1084.375,1084.375,437.1821,281,2.25,Violoncello,0.25,0.075,56,0.3543
1084.375,1084.375,437.1821,281,2.25,Violin 1,0.25,0.075,68,0.3543
1084.625,1084.625,437.2571,281,2.5,Violin 2,0.25,0.075,69,0.3543
1084.625,1084.625,437.2571,281,2.5,Viola,0.25,0.075,57,0.3543
1084.625,1084.625,437.2571,281,2.5,Violin 1,0.25,0.075,69,0.3543
1084.625,1084.625,437.2571,281,2.5,Contrabass,0.25,0.075,45,0.3543
1084.625,1084.625,437.2571,281,2.5,Violoncello,0.25,0.075,57,0.3543
1084.875,1084.875,437.3321,281,2.75,Viola,0.25,0.075,59,0.3543
1084.875,1084.875,437.3321,281,2.75,Contrabass,0.25,0.075,47,0.3543
1084.875,1084.875,437.3321,281,2.75,Violin 2,0.25,0.075,71,0.3543
1084.875,1084.875,437.3321,281,2.75,Violin 1,0.25,0.075,71,0.3543
1084.875,1084.875,437.3321,281,2.75,Violoncello,0.25,0.075,59,0.3543
1085.125,1085.125,437.4071,281,3.0,Violoncello,1.0,0.3,60,0.4043
1085.125,1085.125,437.4071,281,3.0,Viola,1.0,0.3,60,0.4043
1085.125,1085.125,437.4071,281,3.0,Contrabass,1.0,0.3,48,0.4043
1085.125,1085.125,437.4071,281,3.0,Violin 1,1.0,0.3,72,0.4043
1085.125,1085.125,437.4071,281,3.0,Violin 2,1.0,0.3,72,0.4043
1086.125,1086.125,437.7071,281,4.0,Violin 1,0.25,0.075,71,0.3543
1086.125,1086.125,437.7071,281,4.0,Violoncello,0.25,0.075,59,0.3543
1086.125,1086.125,437.7071,281,4.0,Violin 2,0.25,0.075,71,0.3543
1086.125,1086.125,437.7071,281,4.0,Contrabass,0.25,0.075,47,0.3543
1086.125,1086.125,437.7071,281,4.0,Viola,0.25,0.075,59,0.3543
1086.375,1086.375,437.7821,281,4.25,Violin 2,0.25,0.075,70,0.3543
1086.375,1086.375,437.7821,281,4.25,Violoncello,0.25,0.075,58,0.3543
1086.375,1086.375,437.7821,281,4.25,Violin 1,0.25,0.075,70,0.3543
1086.375,1086.375,437.7821,281,4.25,Viola,0.25,0.075,58,0.3543
1086.375,1086.375,437.7821,281,4.25,Contrabass,0.25,0.075,46,0.3543
1086.625,1086.625,437.8571,281,4.5,Viola,0.25,0.075,59,0.3543
1086.625,1086.625,437.8571,281,4.5,Violin 1,0.25,0.075,71,0.3543
1086.625,1086.625,437.8571,281,4.5,Contrabass,0.25,0.075,47,0.3543
1086.625,1086.625,437.8571,281,4.5,Violoncello,0.25,0.075,59,0.3543
1086.625,1086.625,437.8571,281,4.5,Violin 2,0.25,0.075,71,0.3543
1086.875,1086.875,437.9321,281,4.75,Violoncello,0.25,0.075,61,0.3543
1086.875,1086.875,437.9321,281,4.75,Contrabass,0.25,0.075,49,0.3543
1086.875,1086.875,437.9321,281,4.75,Violin 2,0.25,0.075,73,0.3543
1086.875,1086.875,437.9321,281,4.75,Viola,0.25,0.075,61,0.3543
1086.875,1086.875,437.9321,281,4.75,Violin 1,0.25,0.075,73,0.3543
1087.125,1087.125,438.0071,282,1.0,Viola,1.0,0.3,62,0.4043
1087.125,1087.125,438.0071,282,1.0,Violin 1,1.0,0.3,74,0.4043
1087.125,1087.125,438.0071,282,1.0,Contrabass,1.0,0.3,50,0.4043
1087.125,1087.125,438.0071,282,1.0,Violoncello,1.0,0.3,62,0.4043
1087.125,1087.125,438.0071,282,1.0,Violin 2,1.0,0.3,74,0.4043
1088.125,1088.125,438.3071,282,2.0,Violin 2,0.25,0.075,61,0.3543
1088.125,1088.125,438.3071,282,2.0,Violin 1,0.25,0.075,73,0.3543
1088.125,1088.125,438.3071,282,2.0,Violoncello,0.25,0.075,49,0.3543
1088.125,1088.125,438.3071,282,2.0,Contrabass,0.25,0.075,37,0.3543
1088.125,1088.125,438.3071,282,2.0,Viola,0.25,0.075,61,0.3543
1088.375,1088.375,438.3821,282,2.25,Violin 2,0.25,0.075,60,0.3543
1088.375,1088.375,438.3821,282,2.25,Violoncello,0.25,0.075,48,0.3543
1088.375,1088.375,438.3821,282,2.25,Contrabass,0.25,0.075,36,0.3543
1088.375,1088.375,438.3821,282,2.25,Viola,0.25,0.075,60,0.3543
1088.375,1088.375,438.3821,282,2.25,Violin 1,0.25,0.075,72,0.3543
1088.625,1088.625,438.4571,282,2.5,Violin 1,0.25,0.075,73,0.3543
1088.625,1088.625,438.4571,282,2.5,Viola,0.25,0.075,61,0.3543
1088.625,1088.625,438.4571,282,2.5,Violoncello,0.25,0.075,49,0.3543
1088.625,1088.625,438.4571,282,2.5,Contrabass,0.25,0.075,37,0.3543
1088.625,1088.625,438.4571,282,2.5,Violin 2,0.25,0.075,61,0.3543
1088.875,1088.875,438.5321,282,2.75,Violoncello,0.25,0.075,50,0.3543
1088.875,1088.875,438.5321,282,2.75,Contrabass,0.25,0.075,38,0.3543
1088.875,1088.875,438.5321,282,2.75,Viola,0.25,0.075,62,0.3543
1088.875,1088.875,438.5321,282,2.75,Violin 1,0.25,0.075,74,0.3543
1088.875,1088.875,438.5321,282,2.75,Violin 2,0.25,0.075,62,0.3543
1089.125,1089.125,438.6071,282,3.0,Violoncello,1.0,0.3,52,0.4043
1089.125,1089.125,438.6071,282,3.0,Viola,1.0,0.3,64,0.4043
1089.125,1089.125,438.6071,282,3.0,Violin 1,1.0,0.3,76,0.4043
1089.125,1089.125,438.6071,282,3.0,Contrabass,1.0,0.3,40,0.4043
1089.125,1089.125,438.6071,282,3.0,Violin 2,1.0,0.3,64,0.4043
1090.125,1090.125,438.9071,282,4.0,Violoncello,0.25,0.075,51,0.3543
1090.125,1090.125,438.9071,282,4.0,Violin 1,0.25,0.075,75,0.3543
1090.125,1090.125,438.9071,282,4.0,Violin 2,0.25,0.075,63,0.3543
1090.125,1090.125,438.9071,282,4.0,Viola,0.25,0.075,63,0.3543
1090.125,1090.125,438.9071,282,4.0,Contrabass,0.25,0.075,39,0.3543
1090.375,1090.375,438.9821,282,4.25,Contrabass,0.25,0.075,37,0.3543
1090.375,1090.375,438.9821,282,4.25,Violin 1,0.25,0.075,73,0.3543
1090.375,1090.375,438.9821,282,4.25,Violoncello,0.25,0.075,49,0.3543
1090.375,1090.375,438.9821,282,4.25,Viola,0.25,0.075,61,0.3543
1090.375,1090.375,438.9821,282,4.25,Violin 2,0.25,0.075,61,0.3543
1090.625,1090.625,439.0571,282,4.5,Violoncello,0.25,0.075,51,0.3543
1090.625,1090.625,439.0571,282,4.5,Violin 2,0.25,0.075,63,0.3543
1090.625,1090.625,439.0571,282,4.5,Contrabass,0.25,0.075,39,0.3543
1090.625,1090.625,439.0571,282,4.5,Violin 1,0.25,0.075,75,0.3543
1090.625,1090.625,439.0571,282,4.5,Viola,0.25,0.075,63,0.3543
1090.875,1090.875,439.1321,282,4.75,Violin 2,0.25,0.075,64,0.3543
1090.875,1090.875,439.1321,282,4.75,Violoncello,0.25,0.075,52,0.3543
1090.875,1090.875,439.1321,282,4.75,Violin 1,0.25,0.075,76,0.3543
1090.875,1090.875,439.1321,282,4.75,Viola,0.25,0.075,64,0.3543
1090.875,1090.875,439.1321,282,4.75,Contrabass,0.25,0.075,40,0.3543
1091.125,1091.125,439.2071,283,1.0,Contrabass,1.0,0.3,41,0.4043
1091.125,1091.125,439.2071,283,1.0,Viola,1.0,0.3,65,0.4043
1091.125,1091.125,439.2071,283,1.0,Violin 1,1.0,0.3,77,0.4043
1091.125,1091.125,439.2071,283,1.0,Violoncello,1.0,0.3,53,0.4043
1091.125,1091.125,439.2071,283,1.0,Violin 2,1.0,0.3,65,0.4043
1092.125,1092.125,439.5071,283,2.0,Violin 1,0.25,0.075,74,0.3543
1092.125,1092.125,439.5071,283,2.0,Contrabass,0.25,0.075,38,0.3543
1092.125,1092.125,439.5071,283,2.0,Violoncello,0.25,0.075,50,0.3543
1092.125,1092.125,439.5071,283,2.0,Violin 2,0.25,0.075,62,0.3543
1092.125,1092.125,439.5071,283,2.0,Viola,0.25,0.075,62,0.3543
1092.375,1092.375,439.5821,283,2.25,Contrabass,0.25,0.075,37,0.3543
1092.375,1092.375,439.5821,283,2.25,Viola,0.25,0.075,61,0.3543
1092.375,1092.375,439.5821,283,2.25,Violin 1,0.25,0.075,73,0.3543
1092.375,1092.375,439.5821,283,2.25,Violoncello,0.25,0.075,49,0.3543
1092.375,1092.375,439.5821,283,2.25,Violin 2,0.25,0.075,61,0.3543
1092.625,1092.625,439.6571,283,2.5,Violin 1,0.25,0.075,74,0.3543
1092.625,1092.625,439.6571,283,2.5,Contrabass,0.25,0.075,38,0.3543
1092.625,1092.625,439.6571,283,2.5,Violin 2,0.25,0.075,62,0.3543
1092.625,1092.625,439.6571,283,2.5,Violoncello,0.25,0.075,50,0.3543
1092.625,1092.625,439.6571,283,2.5,Viola,0.25,0.075,62,0.3543
1092.875,1092.875,439.7321,283,2.75,Viola,0.25,0.075,64,0.3543
1092.875,1092.875,439.7321,283,2.75,Violoncello,0.25,0.075,52,0.3543
1092.875,1092.875,439.7321,283,2.75,Contrabass,0.25,0.075,40,0.3543
1092.875,1092.875,439.7321,283,2.75,Violin 1,0.25,0.075,76,0.3543
1092.875,1092.875,439.7321,283,2.75,Violin 2,0.25,0.075,64,0.3543
1093.125,1093.125,439.8071,283,3.0,Violin 2,1.0,0.3,65,0.4043
1093.125,1093.125,439.8071,283,3.0,Violoncello,1.0,0.3,53,0.4043
1093.125,1093.125,439.8071,283,3.0,Contrabass,1.0,0.3,41,0.4043
1093.125,1093.125,439.8071,283,3.0,Violin 1,1.0,0.3,77,0.4043
1093.125,1093.125,439.8071,283,3.0,Viola,1.0,0.3,65,0.4043
1094.125,1094.125,440.1071,283,4.0,Flute 1,0.25,0.075,74,1.0
1094.125,1094.125,440.1071,283,4.0,Violoncello,0.25,0.075,50,0.3543
1094.125,1094.125,440.1071,283,4.0,Contrabass,0.25,0.075,38,0.3543
1094.125,1094.125,440.1071,283,4.0,Viola,0.25,0.075,62,0.3543
1094.125,1094.125,440.1071,283,4.0,Violin 2,0.25,0.075,62,0.3543
1094.125,1094.125,440.1071,283,4.0,Violin 1,0.25,0.075,74,0.3543
1094.375,1094.375,440.1821,283,4.25,Violin 1,0.25,0.075,73,0.3543
1094.375,1094.375,440.1821,283,4.25,Viola,0.25,0.075,61,0.3543
1094.375,1094.375,440.1821,283,4.25,Flute 1,0.25,0.075,73,1.0
1094.375,1094.375,440.1821,283,4.25,Contrabass,0.25,0.075,37,0.3543
1094.375,1094.375,440.1821,283,4.25,Violin 2,0.25,0.075,61,0.3543
1094.375,1094.375,440.1821,283,4.25,Violoncello,0.25,0.075,49,0.3543
1094.625,1094.625,440.2571,283,4.5,Flute 1,0.25,0.075,74,1.0
1094.625,1094.625,440.2571,283,4.5,Viola,0.25,0.075,62,0.3543
1094.625,1094.625,440.2571,283,4.5,Violin 2,0.25,0.075,62,0.3543
1094.625,1094.625,440.2571,283,4.5,Violoncello,0.25,0.075,50,0.3543
1094.625,1094.625,440.2571,283,4.5,Violin 1,0.25,0.075,74,0.3543
1094.625,1094.625,440.2571,283,4.5,Contrabass,0.25,0.075,38,0.3543
1094.875,1094.875,440.3321,283,4.75,Violin 2,0.25,0.075,64,0.3543
1094.875,1094.875,440.3321,283,4.75,Viola,0.25,0.075,64,0.3543
1094.875,1094.875,440.3321,283,4.75,Contrabass,0.25,0.075,40,0.3543
1094.875,1094.875,440.3321,283,4.75,Flute 1,0.25,0.075,76,1.0
1094.875,1094.875,440.3321,283,4.75,Violoncello,0.25,0.075,52,0.3543
1094.875,1094.875,440.3321,283,4.75,Violin 1,0.25,0.075,76,0.3543
1095.125,1095.125,440.4071,284,1.0,Violin 1,4.0,1.2,77,1.0
1095.125,1095.125,440.4071,284,1.0,Viola,4.0,1.2,65,1.0
1095.125,1095.125,440.4071,284,1.0,Violin 2,4.0,1.2,65,1.0
1095.125,1095.125,440.4071,284,1.0,Contrabass,4.0,1.2,41,1.0
1095.125,1095.125,440.4071,284,1.0,Violoncello,4.0,1.2,53,1.0
1095.125,1095.125,440.4071,284,1.0,Flute 1,4.0,1.2,77,1.0
1099.125,1099.125,441.6071,285,1.0,Viola,4.0,1.2,56,1.0
1099.125,1099.125,441.6071,285,1.0,Violin 2,4.0,1.2,56,1.0
1099.125,1099.125,441.6071,285,1.0,Violin 1,4.0,1.2,56,1.0
1099.125,1099.125,441.6071,285,1.0,Violoncello,4.0,1.2,44,1.0
1099.125,1099.125,441.6071,285,1.0,Contrabass,4.0,1.2,32,1.0
1099.125,1099.125,441.6071,285,1.0,Flute 1,4.0,1.2,68,1.0
1103.125,1103.125,442.8071,286,1.0,Flute 1,4.0,1.2,86,1.0
1103.125,1103.125,442.8071,286,1.0,Timpani,1.0,0.3,45,1.0
1103.125,1103.125,442.8071,286,1.0,Oboe 1,4.0,1.2,78,1.0
1103.125,1103.125,442.8071,286,1.0,D Trumpet 2,4.0,1.2,66,1.0
1103.125,1103.125,442.8071,286,1.0,Contrabass,0.5,0.15,33,1.0
1103.125,1103.125,442.8071,286,1.0,Flute 2,0.5,0.15,69,1.0
1103.125,1103.125,442.8071,286,1.0,A Clarinet 2,4.0,1.2,66,1.0
1103.125,1103.125,442.8071,286,1.0,A Clarinet 1,4.0,1.2,74,1.0
1103.125,1103.125,442.8071,286,1.0,D Trumpet 1,4.0,1.2,74,1.0
1103.125,1103.125,442.8071,286,1.0,Bassoon 1,0.5,0.15,45,1.0
1103.125,1103.125,442.8071,286,1.0,Violin 1,0.25,0.075,57,1.0
1103.125,1103.125,442.8071,286,1.0,Viola,0.25,0.075,57,1.0
1103.125,1103.125,442.8071,286,1.0,Violoncello,0.5,0.15,45,1.0
1103.125,1103.125,442.8071,286,1.0,Violin 2,0.25,0.075,57,1.0
1103.125,1103.125,442.8071,286,1.0,Bassoon 2,0.5,0.15,45,1.0
1103.125,1103.125,442.8071,286,1.0,Oboe 2,4.0,1.2,74,1.0
1103.375,1103.375,442.8821,286,1.25,Violin 1,0.25,0.075,57,1.0
1103.375,1103.375,442.8821,286,1.25,Viola,0.25,0.075,62,1.0
1103.375,1103.375,442.8821,286,1.25,Violin 2,0.25,0.075,66,1.0
1103.625,1103.625,442.9571,286,1.5,Bassoon 2,0.5,0.15,50,1.0
1103.625,1103.625,442.9571,286,1.5,Violin 2,0.25,0.075,66,1.0
1103.625,1103.625,442.9571,286,1.5,Violin 1,0.25,0.075,62,1.0
1103.625,1103.625,442.9571,286,1.5,Flute 2,0.5,0.15,74,1.0
1103.625,1103.625,442.9571,286,1.5,Violoncello,0.5,0.15,57,1.0
1103.625,1103.625,442.9571,286,1.5,Bassoon 1,0.5,0.15,50,1.0
1103.625,1103.625,442.9571,286,1.5,Viola,0.25,0.075,62,1.0
1103.625,1103.625,442.9571,286,1.5,Contrabass,0.5,0.15,45,1.0
1103.875,1103.875,443.0321,286,1.75,Viola,0.25,0.075,62,1.0
1103.875,1103.875,443.0321,286,1.75,Violin 2,0.25,0.075,66,1.0
1103.875,1103.875,443.0321,286,1.75,Violin 1,0.25,0.075,62,1.0
1104.125,1104.125,443.1071,286,2.0,Bassoon 1,0.5,0.15,54,1.0
1104.125,1104.125,443.1071,286,2.0,Contrabass,0.5,0.15,45,1.0
1104.125,1104.125,443.1071,286,2.0,Flute 2,0.5,0.15,78,1.0
1104.125,1104.125,443.1071,286,2.0,Bassoon 2,0.5,0.15,54,1.0
1104.125,1104.125,443.1071,286,2.0,Violin 2,3.0,0.9,66,1.0
1104.125,1104.125,443.1071,286,2.0,Viola,1.0,0.3,62,1.0
1104.125,1104.125,443.1071,286,2.0,Violin 1,0.25,0.075,66,1.0
1104.125,1104.125,443.1071,286,2.0,Violoncello,0.5,0.15,57,1.0
1104.375,1104.375,443.1821,286,2.25,Violin 1,0.25,0.075,66,1.0
1104.625,1104.625,443.2571,286,2.5,Contrabass,0.5,0.15,45,1.0
1104.625,1104.625,443.2571,286,2.5,Bassoon 2,0.5,0.15,57,1.0
1104.625,1104.625,443.2571,286,2.5,Flute 2,0.5,0.15,81,1.0
1104.625,1104.625,443.2571,286,2.5,Violin 1,0.25,0.075,69,1.0
1104.625,1104.625,443.2571,286,2.5,Violoncello,0.5,0.15,57,1.0
1104.625,1104.625,443.2571,286,2.5,Bassoon 1,0.5,0.15,57,1.0
1104.875,1104.875,443.3321,286,2.75,Violin 1,0.25,0.075,69,1.0
1105.125,1105.125,443.4071,286,3.0,Flute 2,0.5,0.15,86,1.0
1105.125,1105.125,443.4071,286,3.0,Viola,2.0,0.6,62,1.0
1105.125,1105.125,443.4071,286,3.0,Violin 1,0.25,0.075,74,1.0
1105.125,1105.125,443.4071,286,3.0,Bassoon 1,1.0,0.3,62,1.0
1105.125,1105.125,443.4071,286,3.0,Bassoon 2,1.0,0.3,62,1.0
1105.125,1105.125,443.4071,286,3.0,Violoncello,0.5,0.15,57,1.0
1105.125,1105.125,443.4071,286,3.0,D Horn 1,0.5,0.15,62,1.0
1105.125,1105.125,443.4071,286,3.0,Contrabass,0.5,0.15,45,1.0
1105.125,1105.125,443.4071,286,3.0,D Horn 2,0.5,0.15,50,1.0
1105.375,1105.375,443.4821,286,3.25,Violin 1,0.25,0.075,74,1.0
1105.625,1105.625,443.5571,286,3.5,D Horn 2,0.5,0.15,54,1.0
1105.625,1105.625,443.5571,286,3.5,Contrabass,0.5,0.15,45,1.0
1105.625,1105.625,443.5571,286,3.5,Flute 2,0.5,0.15,90,1.0
1105.625,1105.625,443.5571,286,3.5,Violoncello,0.5,0.15,57,1.0
1105.625,1105.625,443.5571,286,3.5,Violin 1,0.25,0.075,78,1.0
1105.625,1105.625,443.5571,286,3.5,D Horn 1,0.5,0.15,66,1.0
1105.875,1105.875,443.6321,286,3.75,Violin 1,0.25,0.075,78,1.0
1106.125,1106.125,443.7071,286,4.0,D Horn 1,0.5,0.15,69,1.0
1106.125,1106.125,443.7071,286,4.0,Contrabass,0.5,0.15,45,1.0
1106.125,1106.125,443.7071,286,4.0,Violin 1,0.5,0.15,81,1.0
1106.125,1106.125,443.7071,286,4.0,Violoncello,0.5,0.15,57,1.0
1106.125,1106.125,443.7071,286,4.0,D Horn 2,0.5,0.15,57,1.0
1106.125,1106.125,443.7071,286,4.0,Flute 2,0.5,0.15,93,1.0
1106.625,1106.625,443.8571,286,4.5,D Horn 1,0.5,0.15,69,1.0
1106.625,1106.625,443.8571,286,4.5,Violin 1,0.5,0.15,81,1.0
1106.625,1106.625,443.8571,286,4.5,D Horn 2,0.5,0.15,57,1.0
1106.625,1106.625,443.8571,286,4.5,Flute 2,0.5,0.15,93,1.0
1106.625,1106.625,443.8571,286,4.5,Violoncello,0.5,0.15,57,1.0
1106.625,1106.625,443.8571,286,4.5,Contrabass,0.5,0.15,45,1.0
1107.125,1107.125,444.0071,287,1.0,Oboe 1,3.0,0.9,79,1.0
1107.125,1107.125,444.0071,287,1.0,Flute 1,3.0,0.9,91,1.0
1107.125,1107.125,444.0071,287,1.0,D Trumpet 2,1.0,0.3,69,1.0
1107.125,1107.125,444.0071,287,1.0,D Trumpet 1,1.0,0.3,76,1.0
1107.125,1107.125,444.0071,287,1.0,A Clarinet 1,3.0,0.9,76,1.0
1107.125,1107.125,444.0071,287,1.0,Viola,2.0,0.6,64,1.0
1107.125,1107.125,444.0071,287,1.0,D Horn 1,3.0,0.9,69,1.0
1107.125,1107.125,444.0071,287,1.0,A Clarinet 2,3.0,0.9,67,1.0
1107.125,1107.125,444.0071,287,1.0,D Horn 2,3.0,0.9,57,1.0
1107.125,1107.125,444.0071,287,1.0,Flute 2,3.0,0.9,85,1.0
1107.125,1107.125,444.0071,287,1.0,Contrabass,0.5,0.15,33,1.0
1107.125,1107.125,444.0071,287,1.0,Violin 1,2.0,0.6,81,1.0
1107.125,1107.125,444.0071,287,1.0,Timpani,2.0,0.6,45,1.0
1107.125,1107.125,444.0071,287,1.0,Violin 2,2.0,0.6,67,1.0
1107.125,1107.125,444.0071,287,1.0,Oboe 2,3.0,0.9,73,1.0
1107.125,1107.125,444.0071,287,1.0,Violoncello,0.5,0.15,45,1.0
1107.625,1107.625,444.1571,287,1.5,Contrabass,0.5,0.15,45,1.0
1107.625,1107.625,444.1571,287,1.5,Violoncello,0.5,0.15,57,1.0
1108.125,1108.125,444.3071,287,2.0,Contrabass,0.5,0.15,45,1.0
1108.125,1108.125,444.3071,287,2.0,D Trumpet 2,0.75,0.225,69,1.0
1108.125,1108.125,444.3071,287,2.0,D Trumpet 1,0.75,0.225,76,1.0
1108.125,1108.125,444.3071,287,2.0,Violoncello,0.5,0.15,57,1.0
1108.625,1108.625,444.4571,287,2.5,Violoncello,0.5,0.15,57,1.0
1108.625,1108.625,444.4571,287,2.5,Contrabass,0.5,0.15,45,1.0
1108.875,1108.875,444.5321,287,2.75,D Trumpet 1,0.25,0.075,76,1.0
1108.875,1108.875,444.5321,287,2.75,D Trumpet 2,0.25,0.075,69,1.0
1109.125,1109.125,444.6071,287,3.0,Violoncello,0.5,0.15,45,1.0
1109.125,1109.125,444.6071,287,3.0,Contrabass,0.5,0.15,33,1.0
1109.125,1109.125,444.6071,287,3.0,Timpani,2.0,0.6,45,1.0
1109.125,1109.125,444.6071,287,3.0,D Trumpet 1,1.0,0.3,76,1.0
1109.125,1109.125,444.6071,287,3.0,Violin 1,2.0,0.6,73,1.0
1109.125,1109.125,444.6071,287,3.0,Violin 2,2.0,0.6,67,1.0
1109.125,1109.125,444.6071,287,3.0,Viola,2.0,0.6,64,1.0
1109.125,1109.125,444.6071,287,3.0,D Trumpet 2,1.0,0.3,69,1.0
1109.625,1109.625,444.7571,287,3.5,Violoncello,0.5,0.15,57,1.0
1109.625,1109.625,444.7571,287,3.5,Contrabass,0.5,0.15,45,1.0
1110.125,1110.125,444.9071,287,4.0,D Trumpet 1,1.0,0.3,76,1.0
1110.125,1110.125,444.9071,287,4.0,Oboe 1,1.0,0.3,79,1.0
1110.125,1110.125,444.9071,287,4.0,Violoncello,0.5,0.15,57,1.0
1110.125,1110.125,444.9071,287,4.0,A Clarinet 1,1.0,0.3,67,1.0
1110.125,1110.125,444.9071,287,4.0,D Horn 1,1.0,0.3,64,1.0
1110.125,1110.125,444.9071,287,4.0,Oboe 2,1.0,0.3,73,1.0
1110.125,1110.125,444.9071,287,4.0,A Clarinet 2,1.0,0.3,64,1.0
1110.125,1110.125,444.9071,287,4.0,D Trumpet 2,1.0,0.3,69,1.0
1110.125,1110.125,444.9071,287,4.0,D Horn 2,1.0,0.3,57,1.0
1110.125,1110.125,444.9071,287,4.0,Flute 2,1.0,0.3,85,1.0
1110.125,1110.125,444.9071,287,4.0,Contrabass,0.5,0.15,45,1.0
1110.125,1110.125,444.9071,287,4.0,Flute 1,1.0,0.3,91,1.0
1110.625,1110.625,445.0571,287,4.5,Contrabass,0.5,0.15,45,1.0
1110.625,1110.625,445.0571,287,4.5,Violoncello,0.5,0.15,57,1.0
1111.125,1111.125,445.2071,288,1.0,Oboe 2,1.0,0.3,74,1.0
1111.125,1111.125,445.2071,288,1.0,Violin 1,1.0,0.3,74,0.7087
1111.125,1111.125,445.2071,288,1.0,Violin 1,1.0,0.3,62,0.7087
1111.125,1111.125,445.2071,288,1.0,Contrabass,1.0,0.3,38,1.0
1111.125,1111.125,445.2071,288,1.0,D Trumpet 2,1.0,0.3,66,1.0
1111.125,1111.125,445.2071,288,1.0,Oboe 1,1.0,0.3,78,1.0
1111.125,1111.125,445.2071,288,1.0,A Clarinet 1,1.0,0.3,66,1.0
1111.125,1111.125,445.2071,288,1.0,D Horn 2,4.0,1.2,50,0.4961
1111.125,1111.125,445.2071,288,1.0,D Horn 1,4.0,1.2,62,0.4961
1111.125,1111.125,445.2071,288,1.0,A Clarinet 2,1.0,0.3,62,1.0
1111.125,1111.125,445.2071,288,1.0,Viola,0.25,0.075,62,1.0
1111.125,1111.125,445.2071,288,1.0,Flute 1,1.0,0.3,90,1.0
1111.125,1111.125,445.2071,288,1.0,Flute 2,1.0,0.3,86,1.0
1111.125,1111.125,445.2071,288,1.0,Violoncello,1.0,0.3,50,1.0
1111.125,1111.125,445.2071,288,1.0,Timpani,1.0,0.3,50,1.0
1111.125,1111.125,445.2071,288,1.0,Violin 2,1.0,0.3,74,0.7087
1111.125,1111.125,445.2071,288,1.0,Violin 2,1.0,0.3,66,0.7087
1111.125,1111.125,445.2071,288,1.0,D Trumpet 1,1.0,0.3,74,1.0
1111.375,1111.375,445.2821,288,1.25,Viola,0.25,0.075,62,0.7087
1111.375,1111.375,445.2821,288,1.25,Viola,0.25,0.075,74,0.7087
1111.625,1111.625,445.3571,288,1.5,Viola,0.25,0.075,62,0.7087
1111.625,1111.625,445.3571,288,1.5,Viola,0.25,0.075,74,0.7087
1111.875,1111.875,445.4321,288,1.75,Viola,0.25,0.075,62,0.7087
1111.875,1111.875,445.4321,288,1.75,Viola,0.25,0.075,74,0.7087
1112.125,1112.125,445.5071,288,2.0,Viola,1.0,0.3,74,0.7087
1112.125,1112.125,445.5071,288,2.0,Viola,1.0,0.3,62,0.7087
1112.125,1112.125,445.5071,288,2.0,Violin 2,2.0,0.6,74,0.6378
1113.125,1113.125,445.8071,288,3.0,Viola,2.0,0.6,74,0.7087
1113.125,1113.125,445.8071,288,3.0,Viola,2.0,0.6,62,0.7087
1114.125,1114.125,446.1071,288,4.0,Violin 2,0.25,0.075,74,0.6378
1114.375,1114.375,446.1821,288,4.25,Violin 2,0.25,0.075,73,0.6378
1114.625,1114.625,446.2571,288,4.5,Violin 2,0.25,0.075,74,0.6378
1114.875,1114.875,446.3321,288,4.75,Violin 2,0.25,0.075,76,0.6378
1115.125,1115.125,446.4071,289,1.0,Viola,2.0,0.6,74,0.7087
1115.125,1115.125,446.4071,289,1.0,Viola,2.0,0.6,62,0.7087
1115.125,1115.125,446.4071,289,1.0,Violin 2,1.0,0.3,78,0.6878
1116.125,1116.125,446.7071,289,2.0,Violin 2,0.25,0.075,78,0.6378
1116.375,1116.375,446.7821,289,2.25,Violin 2,0.25,0.075,76,0.6378
1116.625,1116.625,446.8571,289,2.5,Violin 2,0.25,0.075,78,0.6378
1116.875,1116.875,446.9321,289,2.75,Violin 2,0.25,0.075,79,0.6378
1117.125,1117.125,447.0071,289,3.0,Viola,2.0,0.6,62,0.7087
1117.125,1117.125,447.0071,289,3.0,Violin 2,1.0,0.3,81,0.6878
1117.125,1117.125,447.0071,289,3.0,Viola,2.0,0.6,74,0.7087
1118.125,1118.125,447.3071,289,4.0,Violin 2,0.25,0.075,81,0.6378
1118.375,1118.375,447.3821,289,4.25,Violin 2,0.25,0.075,82,0.6378
1118.625,1118.625,447.4571,289,4.5,Violin 2,0.25,0.075,84,0.6378
1118.875,1118.875,447.5321,289,4.75,Violin 2,0.25,0.075,81,0.6378
1119.125,1119.125,447.6071,290,1.0,D Trumpet 2,3.0,0.9,62,1.0
1119.125,1119.125,447.6071,290,1.0,Violin 1,1.0,0.3,55,0.7087
1119.125,1119.125,447.6071,290,1.0,Violin 1,1.0,0.3,62,0.7087
1119.125,1119.125,447.6071,290,1.0,Violin 1,1.0,0.3,70,0.7087
1119.125,1119.125,447.6071,290,1.0,Violin 1,1.0,0.3,79,0.7087
1119.125,1119.125,447.6071,290,1.0,Timpani,1.0,0.3,50,1.0
1119.125,1119.125,447.6071,290,1.0,Violoncello,3.0,0.9,55,1.0
1119.125,1119.125,447.6071,290,1.0,D Horn 1,3.0,0.9,62,1.0
1119.125,1119.125,447.6071,290,1.0,Flute 1,3.0,0.9,91,1.0
1119.125,1119.125,447.6071,290,1.0,Flute 2,3.0,0.9,79,1.0
1119.125,1119.125,447.6071,290,1.0,Bassoon 1,3.0,0.9,67,1.0
1119.125,1119.125,447.6071,290,1.0,D Trumpet 1,3.0,0.9,74,1.0
1119.125,1119.125,447.6071,290,1.0,D Horn 2,3.0,0.9,50,1.0
1119.125,1119.125,447.6071,290,1.0,Violin 2,0.25,0.075,82,1.0
1119.125,1119.125,447.6071,290,1.0,Oboe 1,3.0,0.9,79,1.0
1119.125,1119.125,447.6071,290,1.0,Viola,3.0,0.9,67,1.0
1119.125,1119.125,447.6071,290,1.0,Bassoon 2,3.0,0.9,55,1.0
1119.125,1119.125,447.6071,290,1.0,Contrabass,3.0,0.9,43,1.0
1119.125,1119.125,447.6071,290,1.0,Oboe 2,3.0,0.9,67,1.0
1119.375,1119.375,447.6821,290,1.25,Violin 2,0.25,0.075,67,0.7087
1119.375,1119.375,447.6821,290,1.25,Violin 2,0.25,0.075,70,0.7087
1119.625,1119.625,447.7571,290,1.5,Violin 2,0.25,0.075,67,0.7087
1119.625,1119.625,447.7571,290,1.5,Violin 2,0.25,0.075,70,0.7087
1119.875,1119.875,447.8321,290,1.75,Violin 2,0.25,0.075,67,0.7087
1119.875,1119.875,447.8321,290,1.75,Violin 2,0.25,0.075,70,0.7087
1120.125,1120.125,447.9071,290,2.0,Violin 1,2.0,0.6,79,1.0
1120.125,1120.125,447.9071,290,2.0,Violin 2,1.0,0.3,67,0.7087
1120.125,1120.125,447.9071,290,2.0,Violin 2,1.0,0.3,70,0.7087
1121.125,1121.125,448.2071,290,3.0,Violin 2,2.0,0.6,67,0.7087
1121.125,1121.125,448.2071,290,3.0,Violin 2,2.0,0.6,70,0.7087
1122.125,1122.125,448.5071,290,4.0,Contrabass,1.0,0.3,43,1.0
1122.125,1122.125,448.5071,290,4.0,Flute 2,1.0,0.3,79,1.0
1122.125,1122.125,448.5071,290,4.0,Violoncello,1.0,0.3,55,1.0
1122.125,1122.125,448.5071,290,4.0,D Horn 1,1.0,0.3,62,1.0
1122.125,1122.125,448.5071,290,4.0,Flute 1,1.0,0.3,91,1.0
1122.125,1122.125,448.5071,290,4.0,Bassoon 2,1.0,0.3,55,1.0
1122.125,1122.125,448.5071,290,4.0,Bassoon 1,1.0,0.3,67,1.0
1122.125,1122.125,448.5071,290,4.0,Timpani,1.0,0.3,50,1.0
1122.125,1122.125,448.5071,290,4.0,Violin 1,1.0,0.3,79,1.0
1122.125,1122.125,448.5071,290,4.0,Oboe 1,1.0,0.3,79,1.0
1122.125,1122.125,448.5071,290,4.0,D Trumpet 2,1.0,0.3,62,1.0
1122.125,1122.125,448.5071,290,4.0,Oboe 2,1.0,0.3,67,1.0
1122.125,1122.125,448.5071,290,4.0,D Trumpet 1,1.0,0.3,74,1.0
1122.125,1122.125,448.5071,290,4.0,D Horn 2,1.0,0.3,50,1.0
1122.125,1122.125,448.5071,290,4.0,Viola,1.0,0.3,67,1.0
1123.125,1123.125,448.8071,291,1.0,D Trumpet 2,1.0,0.3,62,1.0
1123.125,1123.125,448.8071,291,1.0,Contrabass,1.0,0.3,38,1.0
1123.125,1123.125,448.8071,291,1.0,Violin 2,2.0,0.6,67,0.7087
1123.125,1123.125,448.8071,291,1.0,Bassoon 1,1.0,0.3,62,1.0
1123.125,1123.125,448.8071,291,1.0,Violin 2,2.0,0.6,70,0.7087
1123.125,1123.125,448.8071,291,1.0,Viola,1.0,0.3,62,1.0
1123.125,1123.125,448.8071,291,1.0,D Horn 2,1.0,0.3,50,1.0
1123.125,1123.125,448.8071,291,1.0,Violoncello,1.0,0.3,50,1.0
1123.125,1123.125,448.8071,291,1.0,Violin 1,1.0,0.3,74,1.0
1123.125,1123.125,448.8071,291,1.0,Flute 2,1.0,0.3,86,1.0
1123.125,1123.125,448.8071,291,1.0,D Horn 1,1.0,0.3,62,1.0
1123.125,1123.125,448.8071,291,1.0,Bassoon 2,1.0,0.3,50,1.0
1123.125,1123.125,448.8071,291,1.0,Oboe 1,1.0,0.3,74,1.0
1123.125,1123.125,448.8071,291,1.0,Oboe 2,1.0,0.3,74,1.0
1123.125,1123.125,448.8071,291,1.0,Timpani,1.0,0.3,50,1.0
1123.125,1123.125,448.8071,291,1.0,Flute 1,1.0,0.3,86,1.0
1123.125,1123.125,448.8071,291,1.0,D Trumpet 1,1.0,0.3,74,1.0
1124.125,1124.125,449.1071,291,2.0,Violoncello,1.0,0.3,46,1.0
1124.125,1124.125,449.1071,291,2.0,Flute 1,1.0,0.3,82,1.0
1124.125,1124.125,449.1071,291,2.0,D Trumpet 2,1.0,0.3,62,1.0
1124.125,1124.125,449.1071,291,2.0,D Trumpet 1,1.0,0.3,74,1.0
1124.125,1124.125,449.1071,291,2.0,Timpani,1.0,0.3,50,1.0
1124.125,1124.125,449.1071,291,2.0,Oboe 2,1.0,0.3,70,1.0
1124.125,1124.125,449.1071,291,2.0,Contrabass,1.0,0.3,34,1.0
1124.125,1124.125,449.1071,291,2.0,Oboe 1,1.0,0.3,82,1.0
1124.125,1124.125,449.1071,291,2.0,Bassoon 2,1.0,0.3,46,1.0
1124.125,1124.125,449.1071,291,2.0,D Horn 1,1.0,0.3,62,1.0
1124.125,1124.125,449.1071,291,2.0,Bassoon 1,1.0,0.3,58,1.0
1124.125,1124.125,449.1071,291,2.0,D Horn 2,1.0,0.3,50,1.0
1124.125,1124.125,449.1071,291,2.0,Flute 2,1.0,0.3,82,1.0
1124.125,1124.125,449.1071,291,2.0,Viola,1.0,0.3,58,1.0
1124.125,1124.125,449.1071,291,2.0,Violin 1,1.0,0.3,70,1.0
1125.125,1125.125,449.4071,291,3.0,Violin 2,2.0,0.6,70,0.7087
1125.125,1125.125,449.4071,291,3.0,D Horn 1,1.0,0.3,62,1.0
1125.125,1125.125,449.4071,291,3.0,Flute 2,1.0,0.3,81,1.0
1125.125,1125.125,449.4071,291,3.0,D Horn 2,1.0,0.3,50,1.0
1125.125,1125.125,449.4071,291,3.0,D Trumpet 2,1.0,0.3,62,1.0
1125.125,1125.125,449.4071,291,3.0,Violin 2,2.0,0.6,67,0.7087
1125.125,1125.125,449.4071,291,3.0,Flute 1,1.0,0.3,81,1.0
1125.125,1125.125,449.4071,291,3.0,Oboe 2,1.0,0.3,69,1.0
1125.125,1125.125,449.4071,291,3.0,Oboe 1,1.0,0.3,81,1.0
1125.125,1125.125,449.4071,291,3.0,Timpani,1.0,0.3,50,1.0
1125.125,1125.125,449.4071,291,3.0,Bassoon 2,1.0,0.3,45,1.0
1125.125,1125.125,449.4071,291,3.0,Viola,1.0,0.3,57,1.0
1125.125,1125.125,449.4071,291,3.0,Violoncello,1.0,0.3,45,1.0
1125.125,1125.125,449.4071,291,3.0,Contrabass,1.0,0.3,33,1.0
1125.125,1125.125,449.4071,291,3.0,Violin 1,1.0,0.3,69,1.0
1125.125,1125.125,449.4071,291,3.0,Bassoon 1,1.0,0.3,57,1.0
1125.125,1125.125,449.4071,291,3.0,D Trumpet 1,1.0,0.3,74,1.0
1126.125,1126.125,449.7071,291,4.0,D Trumpet 1,1.0,0.3,74,1.0
1126.125,1126.125,449.7071,291,4.0,Oboe 1,1.0,0.3,79,1.0
1126.125,1126.125,449.7071,291,4.0,D Horn 1,1.0,0.3,62,1.0
1126.125,1126.125,449.7071,291,4.0,Bassoon 2,1.0,0.3,43,1.0
1126.125,1126.125,449.7071,291,4.0,Viola,1.0,0.3,55,1.0
1126.125,1126.125,449.7071,291,4.0,Flute 2,1.0,0.3,79,1.0
1126.125,1126.125,449.7071,291,4.0,Violin 1,1.0,0.3,67,1.0
1126.125,1126.125,449.7071,291,4.0,Oboe 2,1.0,0.3,67,1.0
1126.125,1126.125,449.7071,291,4.0,Contrabass,1.0,0.3,31,1.0
1126.125,1126.125,449.7071,291,4.0,Bassoon 1,1.0,0.3,55,1.0
1126.125,1126.125,449.7071,291,4.0,Violoncello,1.0,0.3,43,1.0
1126.125,1126.125,449.7071,291,4.0,Flute 1,1.0,0.3,79,1.0
1126.125,1126.125,449.7071,291,4.0,Timpani,1.0,0.3,50,1.0
1126.125,1126.125,449.7071,291,4.0,D Trumpet 2,1.0,0.3,62,1.0
1126.125,1126.125,449.7071,291,4.0,D Horn 2,1.0,0.3,50,1.0
1127.125,1127.125,450.0071,292,1.0,D Horn 1,4.0,1.2,62,1.0
1127.125,1127.125,450.0071,292,1.0,Violin 2,3.0,0.9,74,0.7087
1127.125,1127.125,450.0071,292,1.0,Violin 2,3.0,0.9,62,0.7087
1127.125,1127.125,450.0071,292,1.0,Oboe 2,1.0,0.3,62,1.0
1127.125,1127.125,450.0071,292,1.0,Bassoon 1,1.0,0.3,50,1.0
1127.125,1127.125,450.0071,292,1.0,Bassoon 2,1.0,0.3,50,1.0
1127.125,1127.125,450.0071,292,1.0,Timpani,1.0,0.3,50,1.0
1127.125,1127.125,450.0071,292,1.0,Violoncello,1.0,0.3,50,1.0
1127.125,1127.125,450.0071,292,1.0,Flute 2,1.0,0.3,86,1.0
1127.125,1127.125,450.0071,292,1.0,Oboe 1,1.0,0.3,74,1.0
1127.125,1127.125,450.0071,292,1.0,Flute 1,1.0,0.3,86,1.0
1127.125,1127.125,450.0071,292,1.0,D Horn 2,4.0,1.2,50,1.0
1127.125,1127.125,450.0071,292,1.0,D Trumpet 1,1.0,0.3,74,1.0
1127.125,1127.125,450.0071,292,1.0,Violin 1,1.0,0.3,62,1.0
1127.125,1127.125,450.0071,292,1.0,D Trumpet 2,1.0,0.3,62,1.0
1127.125,1127.125,450.0071,292,1.0,Contrabass,1.0,0.3,38,1.0
1127.125,1127.125,450.0071,292,1.0,Viola,0.25,0.075,62,1.0
1127.375,1127.375,450.0821,292,1.25,Viola,0.25,0.075,62,0.7087
1127.375,1127.375,450.0821,292,1.25,Viola,0.25,0.075,74,0.7087
1127.625,1127.625,450.1571,292,1.5,Viola,0.25,0.075,62,0.7087
1127.625,1127.625,450.1571,292,1.5,Viola,0.25,0.075,74,0.7087
1127.875,1127.875,450.2321,292,1.75,Viola,0.25,0.075,62,0.7087
1127.875,1127.875,450.2321,292,1.75,Viola,0.25,0.075,74,0.7087
1128.125,1128.125,450.3071,292,2.0,Viola,3.0,0.9,74,0.7087
1128.125,1128.125,450.3071,292,2.0,Viola,3.0,0.9,62,0.7087
1130.125,1130.125,450.9071,292,4.0,Violin 2,0.25,0.075,74,0.6378
1130.375,1130.375,450.9821,292,4.25,Violin 2,0.25,0.075,73,0.6378
1130.625,1130.625,451.0571,292,4.5,Violin 2,0.25,0.075,74,0.6378
1130.875,1130.875,451.1321,292,4.75,Violin 2,0.25,0.075,76,0.6378
1131.125,1131.125,451.2071,293,1.0,D Horn 2,4.0,1.2,50,1.0
1131.125,1131.125,451.2071,293,1.0,Violin 2,1.0,0.3,78,0.6878
1131.125,1131.125,451.2071,293,1.0,Viola,2.0,0.6,74,0.7087
1131.125,1131.125,451.2071,293,1.0,D Horn 1,4.0,1.2,62,1.0
1131.125,1131.125,451.2071,293,1.0,Viola,2.0,0.6,62,0.7087
1132.125,1132.125,451.5071,293,2.0,Violin 2,0.25,0.075,78,0.6378
1132.375,1132.375,451.5821,293,2.25,Violin 2,0.25,0.075,76,0.6378
1132.625,1132.625,451.6571,293,2.5,Violin 2,0.25,0.075,78,0.6378
1132.875,1132.875,451.7321,293,2.75,Violin 2,0.25,0.075,79,0.6378
1133.125,1133.125,451.8071,293,3.0,Violin 2,1.0,0.3,81,0.6878
1133.125,1133.125,451.8071,293,3.0,Viola,2.0,0.6,62,0.7087
1133.125,1133.125,451.8071,293,3.0,Viola,2.0,0.6,74,0.7087
1134.125,1134.125,452.1071,293,4.0,Violin 2,0.25,0.075,81,0.6378
1134.375,1134.375,452.1821,293,4.25,Violin 2,0.25,0.075,82,0.6378
1134.625,1134.625,452.2571,293,4.5,Violin 2,0.25,0.075,84,0.6378
1134.875,1134.875,452.3321,293,4.75,Violin 2,0.25,0.075,81,0.6378
1135.125,1135.125,452.4071,294,1.0,Contrabass,3.0,0.9,43,1.0
1135.125,1135.125,452.4071,294,1.0,Violin 1,1.0,0.3,62,0.7087
1135.125,1135.125,452.4071,294,1.0,Violin 1,1.0,0.3,70,0.7087
1135.125,1135.125,452.4071,294,1.0,Violin 1,1.0,0.3,79,0.7087
1135.125,1135.125,452.4071,294,1.0,Bassoon 1,3.0,0.9,67,1.0
1135.125,1135.125,452.4071,294,1.0,D Horn 2,3.0,0.9,50,1.0
1135.125,1135.125,452.4071,294,1.0,Violoncello,3.0,0.9,55,1.0
1135.125,1135.125,452.4071,294,1.0,Bassoon 2,3.0,0.9,55,1.0
1135.125,1135.125,452.4071,294,1.0,Oboe 2,3.0,0.9,67,1.0
1135.125,1135.125,452.4071,294,1.0,Violin 1,1.0,0.3,55,0.7087
1135.125,1135.125,452.4071,294,1.0,Violin 2,0.25,0.075,82,1.0
1135.125,1135.125,452.4071,294,1.0,Flute 2,3.0,0.9,79,1.0
1135.125,1135.125,452.4071,294,1.0,D Trumpet 1,3.0,0.9,74,1.0
1135.125,1135.125,452.4071,294,1.0,Oboe 1,3.0,0.9,79,1.0
1135.125,1135.125,452.4071,294,1.0,D Horn 1,3.0,0.9,62,1.0
1135.125,1135.125,452.4071,294,1.0,Flute 1,3.0,0.9,91,1.0
1135.125,1135.125,452.4071,294,1.0,Viola,3.0,0.9,67,1.0
1135.125,1135.125,452.4071,294,1.0,Timpani,1.0,0.3,50,1.0
1135.125,1135.125,452.4071,294,1.0,D Trumpet 2,3.0,0.9,62,1.0
1135.375,1135.375,452.4821,294,1.25,Violin 2,0.25,0.075,67,0.7087
1135.375,1135.375,452.4821,294,1.25,Violin 2,0.25,0.075,70,0.7087
1135.625,1135.625,452.5571,294,1.5,Violin 2,0.25,0.075,67,0.7087
1135.625,1135.625,452.5571,294,1.5,Violin 2,0.25,0.075,70,0.7087
1135.875,1135.875,452.6321,294,1.75,Violin 2,0.25,0.075,67,0.7087
1135.875,1135.875,452.6321,294,1.75,Violin 2,0.25,0.075,70,0.7087
1136.125,1136.125,452.7071,294,2.0,Violin 2,1.0,0.3,70,0.7087
1136.125,1136.125,452.7071,294,2.0,Violin 2,1.0,0.3,67,0.7087
1136.125,1136.125,452.7071,294,2.0,Violin 1,2.0,0.6,79,1.0
1137.125,1137.125,453.0071,294,3.0,Violin 2,2.0,0.6,70,0.7087
1137.125,1137.125,453.0071,294,3.0,Violin 2,2.0,0.6,67,0.7087
1138.125,1138.125,453.3071,294,4.0,Bassoon 1,1.0,0.3,67,1.0
1138.125,1138.125,453.3071,294,4.0,Flute 1,1.0,0.3,91,1.0
1138.125,1138.125,453.3071,294,4.0,Flute 2,1.0,0.3,79,1.0
1138.125,1138.125,453.3071,294,4.0,D Horn 1,1.0,0.3,62,1.0
1138.125,1138.125,453.3071,294,4.0,Violin 1,1.0,0.3,79,1.0
1138.125,1138.125,453.3071,294,4.0,Violoncello,1.0,0.3,55,1.0
1138.125,1138.125,453.3071,294,4.0,D Trumpet 1,1.0,0.3,74,1.0
1138.125,1138.125,453.3071,294,4.0,Timpani,1.0,0.3,50,1.0
1138.125,1138.125,453.3071,294,4.0,D Trumpet 2,1.0,0.3,62,1.0
1138.125,1138.125,453.3071,294,4.0,D Horn 2,1.0,0.3,50,1.0
1138.125,1138.125,453.3071,294,4.0,Bassoon 2,1.0,0.3,55,1.0
1138.125,1138.125,453.3071,294,4.0,Oboe 2,1.0,0.3,67,1.0
1138.125,1138.125,453.3071,294,4.0,Contrabass,1.0,0.3,43,1.0
1138.125,1138.125,453.3071,294,4.0,Viola,1.0,0.3,67,1.0
1138.125,1138.125,453.3071,294,4.0,Oboe 1,1.0,0.3,79,1.0
1139.125,1139.125,453.6071,295,1.0,Flute 2,1.0,0.3,86,1.0
1139.125,1139.125,453.6071,295,1.0,Violin 2,2.0,0.6,67,0.7087
1139.125,1139.125,453.6071,295,1.0,D Horn 2,1.0,0.3,50,1.0
1139.125,1139.125,453.6071,295,1.0,D Horn 1,1.0,0.3,62,1.0
1139.125,1139.125,453.6071,295,1.0,Oboe 1,1.0,0.3,74,1.0
1139.125,1139.125,453.6071,295,1.0,D Trumpet 1,1.0,0.3,74,1.0
1139.125,1139.125,453.6071,295,1.0,Bassoon 1,1.0,0.3,62,1.0
1139.125,1139.125,453.6071,295,1.0,Violin 2,2.0,0.6,70,0.7087
1139.125,1139.125,453.6071,295,1.0,Contrabass,1.0,0.3,38,1.0
1139.125,1139.125,453.6071,295,1.0,Bassoon 2,1.0,0.3,50,1.0
1139.125,1139.125,453.6071,295,1.0,Oboe 2,1.0,0.3,74,1.0
1139.125,1139.125,453.6071,295,1.0,Violoncello,1.0,0.3,50,1.0
1139.125,1139.125,453.6071,295,1.0,Flute 1,1.0,0.3,86,1.0
1139.125,1139.125,453.6071,295,1.0,Timpani,1.0,0.3,50,1.0
1139.125,1139.125,453.6071,295,1.0,Violin 1,1.0,0.3,74,1.0
1139.125,1139.125,453.6071,295,1.0,Viola,1.0,0.3,62,1.0
1139.125,1139.125,453.6071,295,1.0,D Trumpet 2,1.0,0.3,62,1.0
1140.125,1140.125,453.9071,295,2.0,Viola,1.0,0.3,58,1.0
1140.125,1140.125,453.9071,295,2.0,D Horn 1,1.0,0.3,62,1.0
1140.125,1140.125,453.9071,295,2.0,D Trumpet 2,1.0,0.3,62,1.0
1140.125,1140.125,453.9071,295,2.0,Flute 1,1.0,0.3,82,1.0
1140.125,1140.125,453.9071,295,2.0,Flute 2,1.0,0.3,82,1.0
1140.125,1140.125,453.9071,295,2.0,Contrabass,1.0,0.3,34,1.0
1140.125,1140.125,453.9071,295,2.0,D Horn 2,1.0,0.3,50,1.0
1140.125,1140.125,453.9071,295,2.0,Violin 1,1.0,0.3,70,1.0
1140.125,1140.125,453.9071,295,2.0,Bassoon 1,1.0,0.3,58,1.0
1140.125,1140.125,453.9071,295,2.0,D Trumpet 1,1.0,0.3,74,1.0
1140.125,1140.125,453.9071,295,2.0,Timpani,1.0,0.3,50,1.0
1140.125,1140.125,453.9071,295,2.0,Bassoon 2,1.0,0.3,46,1.0
1140.125,1140.125,453.9071,295,2.0,Oboe 1,1.0,0.3,82,1.0
1140.125,1140.125,453.9071,295,2.0,Oboe 2,1.0,0.3,70,1.0
1140.125,1140.125,453.9071,295,2.0,Violoncello,1.0,0.3,46,1.0
1141.125,1141.125,454.2071,295,3.0,Flute 2,1.0,0.3,81,1.0
1141.125,1141.125,454.2071,295,3.0,Violoncello,1.0,0.3,45,1.0
1141.125,1141.125,454.2071,295,3.0,D Trumpet 2,1.0,0.3,62,1.0
1141.125,1141.125,454.2071,295,3.0,Violin 2,2.0,0.6,70,0.7087
1141.125,1141.125,454.2071,295,3.0,Bassoon 2,1.0,0.3,45,1.0
1141.125,1141.125,454.2071,295,3.0,D Trumpet 1,1.0,0.3,74,1.0
1141.125,1141.125,454.2071,295,3.0,Contrabass,1.0,0.3,33,1.0
1141.125,1141.125,454.2071,295,3.0,Flute 1,1.0,0.3,81,1.0
1141.125,1141.125,454.2071,295,3.0,Oboe 2,1.0,0.3,69,1.0
1141.125,1141.125,454.2071,295,3.0,Violin 1,1.0,0.3,69,1.0
1141.125,1141.125,454.2071,295,3.0,Viola,1.0,0.3,57,1.0
1141.125,1141.125,454.2071,295,3.0,Bassoon 1,1.0,0.3,57,1.0
1141.125,1141.125,454.2071,295,3.0,Timpani,1.0,0.3,50,1.0
1141.125,1141.125,454.2071,295,3.0,Violin 2,2.0,0.6,67,0.7087
1141.125,1141.125,454.2071,295,3.0,D Horn 1,1.0,0.3,62,1.0
1141.125,1141.125,454.2071,295,3.0,Oboe 1,1.0,0.3,81,1.0
1141.125,1141.125,454.2071,295,3.0,D Horn 2,1.0,0.3,50,1.0
1142.125,1142.125,454.5071,295,4.0,Flute 2,1.0,0.3,79,1.0
1142.125,1142.125,454.5071,295,4.0,Contrabass,1.0,0.3,31,1.0
1142.125,1142.125,454.5071,295,4.0,Oboe 2,1.0,0.3,67,1.0
1142.125,1142.125,454.5071,295,4.0,D Trumpet 1,1.0,0.3,74,1.0
1142.125,1142.125,454.5071,295,4.0,Bassoon 1,1.0,0.3,55,1.0
1142.125,1142.125,454.5071,295,4.0,D Horn 2,1.0,0.3,50,1.0
1142.125,1142.125,454.5071,295,4.0,Bassoon 2,1.0,0.3,43,1.0
1142.125,1142.125,454.5071,295,4.0,D Horn 1,1.0,0.3,62,1.0
1142.125,1142.125,454.5071,295,4.0,Oboe 1,1.0,0.3,79,1.0
1142.125,1142.125,454.5071,295,4.0,Flute 1,1.0,0.3,79,1.0
1142.125,1142.125,454.5071,295,4.0,D Trumpet 2,1.0,0.3,62,1.0
1142.125,1142.125,454.5071,295,4.0,Timpani,1.0,0.3,50,1.0
1142.125,1142.125,454.5071,295,4.0,Violoncello,1.0,0.3,43,1.0
1142.125,1142.125,454.5071,295,4.0,Violin 1,1.0,0.3,67,1.0
1142.125,1142.125,454.5071,295,4.0,Viola,1.0,0.3,55,1.0
1143.125,1143.125,454.8071,296,1.0,Violin 2,1.0,0.3,66,0.7087
1143.125,1143.125,454.8071,296,1.0,Violin 2,1.0,0.3,69,0.7087
1143.125,1143.125,454.8071,296,1.0,Timpani,1.0,0.3,50,0.4961
1143.125,1143.125,454.8071,296,1.0,Flute 1,3.0,0.9,86,0.4961
1143.125,1143.125,454.8071,296,1.0,Violoncello,1.0,0.3,50,0.5461
1143.125,1143.125,454.8071,296,1.0,Violin 1,3.0,0.9,86,0.7087
1143.125,1143.125,454.8071,296,1.0,Violin 1,3.0,0.9,74,0.7087
1143.125,1143.125,454.8071,296,1.0,Oboe 2,1.0,0.3,62,0.4961
1143.125,1143.125,454.8071,296,1.0,D Horn 1,1.0,0.3,62,0.4961
1143.125,1143.125,454.8071,296,1.0,Contrabass,1.0,0.3,38,0.5461
1143.125,1143.125,454.8071,296,1.0,Bassoon 1,1.0,0.3,50,0.4961
1143.125,1143.125,454.8071,296,1.0,Flute 2,3.0,0.9,86,0.4961
1143.125,1143.125,454.8071,296,1.0,Viola,1.0,0.3,62,0.5461
1143.125,1143.125,454.8071,296,1.0,D Trumpet 2,1.0,0.3,62,0.4961
1143.125,1143.125,454.8071,296,1.0,Oboe 1,1.0,0.3,74,0.4961
1143.125,1143.125,454.8071,296,1.0,D Horn 2,1.0,0.3,50,0.4961
1143.125,1143.125,454.8071,296,1.0,D Trumpet 1,1.0,0.3,74,0.4961
1143.125,1143.125,454.8071,296,1.0,Bassoon 2,1.0,0.3,50,0.4961
1144.125,1144.125,455.1071,296,2.0,Violin 2,1.0,0.3,67,0.4961
1144.125,1144.125,455.1071,296,2.0,A Clarinet 1,1.0,0.3,67,0.4961
1144.125,1144.125,455.1071,296,2.0,Bassoon 2,1.0,0.3,50,0.4961
1144.125,1144.125,455.1071,296,2.0,Bassoon 1,1.0,0.3,55,0.4961
1144.125,1144.125,455.1071,296,2.0,Viola,1.0,0.3,62,0.4961
1144.125,1144.125,455.1071,296,2.0,Contrabass,1.0,0.3,46,0.4961
1144.125,1144.125,455.1071,296,2.0,A Clarinet 2,1.0,0.3,62,0.4961
1144.125,1144.125,455.1071,296,2.0,Violoncello,1.0,0.3,58,0.4961
1145.125,1145.125,455.4071,296,3.0,Contrabass,1.0,0.3,45,0.4961
1145.125,1145.125,455.4071,296,3.0,A Clarinet 2,1.0,0.3,66,0.4961
1145.125,1145.125,455.4071,296,3.0,Bassoon 1,1.0,0.3,57,0.4961
1145.125,1145.125,455.4071,296,3.0,A Clarinet 1,1.0,0.3,69,0.4961
1145.125,1145.125,455.4071,296,3.0,Viola,1.0,0.3,66,0.4961
1145.125,1145.125,455.4071,296,3.0,Bassoon 2,1.0,0.3,54,0.4961
1145.125,1145.125,455.4071,296,3.0,Violin 2,1.0,0.3,69,0.4961
1145.125,1145.125,455.4071,296,3.0,Violoncello,1.0,0.3,57,0.4961
1146.125,1146.125,455.7071,296,4.0,Contrabass,1.0,0.3,43,1.0
1146.125,1146.125,455.7071,296,4.0,Timpani,1.0,0.3,50,1.0
1146.125,1146.125,455.7071,296,4.0,A Clarinet 2,1.0,0.3,67,1.0
1146.125,1146.125,455.7071,296,4.0,Violin 1,1.0,0.3,85,0.7087
1146.125,1146.125,455.7071,296,4.0,D Horn 2,1.0,0.3,50,1.0
1146.125,1146.125,455.7071,296,4.0,Flute 1,1.0,0.3,85,1.0
1146.125,1146.125,455.7071,296,4.0,Bassoon 1,1.0,0.3,58,1.0
1146.125,1146.125,455.7071,296,4.0,Viola,1.0,0.3,67,1.0
1146.125,1146.125,455.7071,296,4.0,A Clarinet 1,1.0,0.3,70,1.0
1146.125,1146.125,455.7071,296,4.0,Flute 2,1.0,0.3,85,1.0
1146.125,1146.125,455.7071,296,4.0,Violin 1,1.0,0.3,74,0.7087
1146.125,1146.125,455.7071,296,4.0,D Horn 1,1.0,0.3,62,1.0
1146.125,1146.125,455.7071,296,4.0,D Trumpet 2,1.0,0.3,62,1.0
1146.125,1146.125,455.7071,296,4.0,Bassoon 2,1.0,0.3,55,1.0
1146.125,1146.125,455.7071,296,4.0,D Trumpet 1,1.0,0.3,74,1.0
1146.125,1146.125,455.7071,296,4.0,Violin 2,1.0,0.3,70,1.0
1146.125,1146.125,455.7071,296,4.0,Violoncello,1.0,0.3,55,1.0
1147.125,1147.125,456.0071,297,1.0,Bassoon 2,1.0,0.3,54,0.4961
1147.125,1147.125,456.0071,297,1.0,A Clarinet 1,1.0,0.3,69,0.4961
1147.125,1147.125,456.0071,297,1.0,D Trumpet 1,1.0,0.3,74,0.4961
1147.125,1147.125,456.0071,297,1.0,Violin 2,1.0,0.3,69,0.4961
1147.125,1147.125,456.0071,297,1.0,Flute 1,3.0,0.9,86,0.4961
1147.125,1147.125,456.0071,297,1.0,D Horn 2,1.0,0.3,50,0.4961
1147.125,1147.125,456.0071,297,1.0,A Clarinet 2,1.0,0.3,66,0.4961
1147.125,1147.125,456.0071,297,1.0,D Horn 1,1.0,0.3,62,0.4961
1147.125,1147.125,456.0071,297,1.0,Violoncello,1.0,0.3,50,0.5461
1147.125,1147.125,456.0071,297,1.0,Violin 1,3.0,0.9,86,0.7087
1147.125,1147.125,456.0071,297,1.0,Flute 2,3.0,0.9,86,0.4961
1147.125,1147.125,456.0071,297,1.0,Bassoon 1,1.0,0.3,57,0.4961
1147.125,1147.125,456.0071,297,1.0,Violin 1,3.0,0.9,74,0.7087
1147.125,1147.125,456.0071,297,1.0,Contrabass,1.0,0.3,38,0.5461
1147.125,1147.125,456.0071,297,1.0,Viola,1.0,0.3,66,0.4961
1147.125,1147.125,456.0071,297,1.0,D Trumpet 2,1.0,0.3,62,0.4961
1147.125,1147.125,456.0071,297,1.0,Timpani,1.0,0.3,50,0.4961
1148.125,1148.125,456.3071,297,2.0,Oboe 2,1.0,0.3,74,0.4961
1148.125,1148.125,456.3071,297,2.0,Oboe 1,1.0,0.3,79,0.4961
1148.125,1148.125,456.3071,297,2.0,Viola,1.0,0.3,62,0.4961
1148.125,1148.125,456.3071,297,2.0,Violin 2,1.0,0.3,67,0.4961
1148.125,1148.125,456.3071,297,2.0,Violoncello,1.0,0.3,58,0.4961
1148.125,1148.125,456.3071,297,2.0,Contrabass,1.0,0.3,46,0.4961
1149.125,1149.125,456.6071,297,3.0,Violoncello,1.0,0.3,57,0.4961
1149.125,1149.125,456.6071,297,3.0,Oboe 1,1.0,0.3,81,0.4961
1149.125,1149.125,456.6071,297,3.0,Oboe 2,1.0,0.3,78,0.4961
1149.125,1149.125,456.6071,297,3.0,Contrabass,1.0,0.3,45,0.4961
1149.125,1149.125,456.6071,297,3.0,Violin 2,1.0,0.3,69,0.4961
1149.125,1149.125,456.6071,297,3.0,Viola,1.0,0.3,66,0.4961
1150.125,1150.125,456.9071,297,4.0,Contrabass,1.0,0.3,43,1.0
1150.125,1150.125,456.9071,297,4.0,D Trumpet 1,1.0,0.3,74,1.0
1150.125,1150.125,456.9071,297,4.0,Oboe 2,1.0,0.3,79,1.0
1150.125,1150.125,456.9071,297,4.0,Oboe 1,1.0,0.3,82,1.0
1150.125,1150.125,456.9071,297,4.0,Viola,1.0,0.3,67,1.0
1150.125,1150.125,456.9071,297,4.0,Timpani,1.0,0.3,50,1.0
1150.125,1150.125,456.9071,297,4.0,Violin 2,1.0,0.3,70,1.0
1150.125,1150.125,456.9071,297,4.0,Violoncello,1.0,0.3,55,1.0
1150.125,1150.125,456.9071,297,4.0,D Trumpet 2,1.0,0.3,62,1.0
1150.125,1150.125,456.9071,297,4.0,D Horn 1,1.0,0.3,62,1.0
1150.125,1150.125,456.9071,297,4.0,Violin 1,1.0,0.3,88,0.7087
1150.125,1150.125,456.9071,297,4.0,Violin 1,1.0,0.3,74,0.7087
1150.125,1150.125,456.9071,297,4.0,Flute 2,1.0,0.3,88,1.0
1150.125,1150.125,456.9071,297,4.0,D Horn 2,1.0,0.3,50,1.0
1150.125,1150.125,456.9071,297,4.0,Flute 1,1.0,0.3,88,1.0
1151.125,1151.125,457.2071,298,1.0,D Horn 1,1.0,0.3,62,0.4961
1151.125,1151.125,457.2071,298,1.0,Violin 1,3.0,0.9,74,0.7087
1151.125,1151.125,457.2071,298,1.0,Timpani,1.0,0.3,50,0.4961
1151.125,1151.125,457.2071,298,1.0,Viola,1.0,0.3,66,0.4961
1151.125,1151.125,457.2071,298,1.0,Flute 1,3.0,0.9,86,0.4961
1151.125,1151.125,457.2071,298,1.0,D Trumpet 1,1.0,0.3,74,0.4961
1151.125,1151.125,457.2071,298,1.0,Violin 1,3.0,0.9,86,0.7087
1151.125,1151.125,457.2071,298,1.0,Oboe 1,1.0,0.3,81,0.4961
1151.125,1151.125,457.2071,298,1.0,Violin 2,1.0,0.3,69,0.4961
1151.125,1151.125,457.2071,298,1.0,Flute 2,3.0,0.9,86,0.4961
1151.125,1151.125,457.2071,298,1.0,D Trumpet 2,1.0,0.3,62,0.4961
1151.125,1151.125,457.2071,298,1.0,Contrabass,1.0,0.3,38,0.5461
1151.125,1151.125,457.2071,298,1.0,D Horn 2,1.0,0.3,50,0.4961
1151.125,1151.125,457.2071,298,1.0,Violoncello,1.0,0.3,50,0.5461
1151.125,1151.125,457.2071,298,1.0,Oboe 2,1.0,0.3,78,0.4961
1152.125,1152.125,457.5071,298,2.0,Violin 2,1.0,0.3,67,0.4961
1152.125,1152.125,457.5071,298,2.0,A Clarinet 2,1.0,0.3,62,0.4961
1152.125,1152.125,457.5071,298,2.0,Bassoon 1,1.0,0.3,55,0.4961
1152.125,1152.125,457.5071,298,2.0,Viola,1.0,0.3,62,0.4961
1152.125,1152.125,457.5071,298,2.0,Contrabass,1.0,0.3,46,0.4961
1152.125,1152.125,457.5071,298,2.0,Bassoon 2,1.0,0.3,50,0.4961
1152.125,1152.125,457.5071,298,2.0,A Clarinet 1,1.0,0.3,67,0.4961
1152.125,1152.125,457.5071,298,2.0,Violoncello,1.0,0.3,58,0.4961
1153.125,1153.125,457.8071,298,3.0,Bassoon 2,1.0,0.3,54,0.4961
1153.125,1153.125,457.8071,298,3.0,A Clarinet 1,1.0,0.3,69,0.4961
1153.125,1153.125,457.8071,298,3.0,Bassoon 1,1.0,0.3,57,0.4961
1153.125,1153.125,457.8071,298,3.0,Violoncello,1.0,0.3,57,0.4961
1153.125,1153.125,457.8071,298,3.0,Viola,1.0,0.3,66,0.4961
1153.125,1153.125,457.8071,298,3.0,Violin 2,1.0,0.3,69,0.4961
1153.125,1153.125,457.8071,298,3.0,Contrabass,1.0,0.3,45,0.4961
1153.125,1153.125,457.8071,298,3.0,A Clarinet 2,1.0,0.3,66,0.4961
1154.125,1154.125,458.1071,298,4.0,Violin 2,1.0,0.3,70,1.0
1154.125,1154.125,458.1071,298,4.0,Bassoon 2,1.0,0.3,55,1.0
1154.125,1154.125,458.1071,298,4.0,D Trumpet 2,1.0,0.3,62,1.0
1154.125,1154.125,458.1071,298,4.0,D Trumpet 1,1.0,0.3,74,1.0
1154.125,1154.125,458.1071,298,4.0,Timpani,1.0,0.3,50,1.0
1154.125,1154.125,458.1071,298,4.0,Violin 1,1.0,0.3,85,0.7087
1154.125,1154.125,458.1071,298,4.0,A Clarinet 2,1.0,0.3,67,1.0
1154.125,1154.125,458.1071,298,4.0,Violoncello,1.0,0.3,55,0.4961
1154.125,1154.125,458.1071,298,4.0,A Clarinet 1,1.0,0.3,70,1.0
1154.125,1154.125,458.1071,298,4.0,D Horn 2,1.0,0.3,50,1.0
1154.125,1154.125,458.1071,298,4.0,Flute 1,1.0,0.3,85,1.0
1154.125,1154.125,458.1071,298,4.0,Violin 1,1.0,0.3,74,0.7087
1154.125,1154.125,458.1071,298,4.0,Bassoon 1,1.0,0.3,58,1.0
1154.125,1154.125,458.1071,298,4.0,D Horn 1,1.0,0.3,62,1.0
1154.125,1154.125,458.1071,298,4.0,Viola,1.0,0.3,67,1.0
1154.125,1154.125,458.1071,298,4.0,Flute 2,1.0,0.3,85,1.0
1154.125,1154.125,458.1071,298,4.0,Contrabass,1.0,0.3,43,1.0
1155.125,1155.125,458.4071,299,1.0,Viola,1.0,0.3,66,0.4961
1155.125,1155.125,458.4071,299,1.0,Violin 1,3.0,0.9,86,0.7087
1155.125,1155.125,458.4071,299,1.0,Bassoon 2,1.0,0.3,54,0.4961
1155.125,1155.125,458.4071,299,1.0,D Trumpet 2,1.0,0.3,62,0.4961
1155.125,1155.125,458.4071,299,1.0,Violoncello,1.0,0.3,50,0.5461
1155.125,1155.125,458.4071,299,1.0,Flute 2,3.0,0.9,86,0.4961
1155.125,1155.125,458.4071,299,1.0,Violin 2,1.0,0.3,69,0.4961
1155.125,1155.125,458.4071,299,1.0,A Clarinet 2,1.0,0.3,66,0.4961
1155.125,1155.125,458.4071,299,1.0,Flute 1,3.0,0.9,86,0.4961
1155.125,1155.125,458.4071,299,1.0,Violin 1,3.0,0.9,74,0.7087
1155.125,1155.125,458.4071,299,1.0,D Trumpet 1,1.0,0.3,74,0.4961
1155.125,1155.125,458.4071,299,1.0,A Clarinet 1,1.0,0.3,69,0.4961
1155.125,1155.125,458.4071,299,1.0,Timpani,1.0,0.3,50,0.4961
1155.125,1155.125,458.4071,299,1.0,D Horn 1,1.0,0.3,62,0.4961
1155.125,1155.125,458.4071,299,1.0,D Horn 2,1.0,0.3,50,0.4961
1155.125,1155.125,458.4071,299,1.0,Contrabass,1.0,0.3,38,0.5461
1155.125,1155.125,458.4071,299,1.0,Bassoon 1,1.0,0.3,57,0.4961
1156.125,1156.125,458.7071,299,2.0,Violoncello,1.0,0.3,58,0.4961
1156.125,1156.125,458.7071,299,2.0,Oboe 2,1.0,0.3,74,0.4961
1156.125,1156.125,458.7071,299,2.0,Violin 2,1.0,0.3,67,0.4961
1156.125,1156.125,458.7071,299,2.0,Oboe 1,1.0,0.3,79,0.4961
1156.125,1156.125,458.7071,299,2.0,Contrabass,1.0,0.3,46,0.4961
1156.125,1156.125,458.7071,299,2.0,Viola,1.0,0.3,62,0.4961
1157.125,1157.125,459.0071,299,3.0,Violoncello,1.0,0.3,57,0.4961
1157.125,1157.125,459.0071,299,3.0,Oboe 1,1.0,0.3,81,0.4961
1157.125,1157.125,459.0071,299,3.0,Violin 2,1.0,0.3,69,0.4961
1157.125,1157.125,459.0071,299,3.0,Oboe 2,1.0,0.3,78,0.4961
1157.125,1157.125,459.0071,299,3.0,Contrabass,1.0,0.3,45,0.4961
1157.125,1157.125,459.0071,299,3.0,Viola,1.0,0.3,66,0.4961
1158.125,1158.125,459.3071,299,4.0,Oboe 1,1.0,0.3,82,1.0
1158.125,1158.125,459.3071,299,4.0,Violin 2,1.0,0.3,70,1.0
1158.125,1158.125,459.3071,299,4.0,D Horn 1,1.0,0.3,62,1.0
1158.125,1158.125,459.3071,299,4.0,D Horn 2,1.0,0.3,50,1.0
1158.125,1158.125,459.3071,299,4.0,Violin 1,1.0,0.3,74,0.7087
1158.125,1158.125,459.3071,299,4.0,Violin 1,1.0,0.3,88,0.7087
1158.125,1158.125,459.3071,299,4.0,Flute 2,1.0,0.3,85,1.0
1158.125,1158.125,459.3071,299,4.0,D Trumpet 1,1.0,0.3,74,1.0
1158.125,1158.125,459.3071,299,4.0,Oboe 2,1.0,0.3,79,1.0
1158.125,1158.125,459.3071,299,4.0,D Trumpet 2,1.0,0.3,62,1.0
1158.125,1158.125,459.3071,299,4.0,Timpani,1.0,0.3,50,1.0
1158.125,1158.125,459.3071,299,4.0,Flute 1,1.0,0.3,88,1.0
1158.125,1158.125,459.3071,299,4.0,Violoncello,1.0,0.3,55,1.0
1158.125,1158.125,459.3071,299,4.0,Viola,1.0,0.3,67,1.0
1158.125,1158.125,459.3071,299,4.0,Contrabass,1.0,0.3,43,1.0
1159.125,1159.125,459.6071,300,1.0,D Trumpet 2,1.0,0.3,62,1.0
1159.125,1159.125,459.6071,300,1.0,D Horn 1,1.0,0.3,62,1.0
1159.125,1159.125,459.6071,300,1.0,Oboe 2,1.0,0.3,78,1.0
1159.125,1159.125,459.6071,300,1.0,Contrabass,1.0,0.3,38,1.0
1159.125,1159.125,459.6071,300,1.0,D Trumpet 1,1.0,0.3,74,1.0
1159.125,1159.125,459.6071,300,1.0,Violin 2,1.0,0.3,69,1.0
1159.125,1159.125,459.6071,300,1.0,Viola,1.0,0.3,66,1.0
1159.125,1159.125,459.6071,300,1.0,Flute 1,1.0,0.3,86,1.0
1159.125,1159.125,459.6071,300,1.0,Timpani,1.0,0.3,50,1.0
1159.125,1159.125,459.6071,300,1.0,Violin 1,1.0,0.3,74,0.7087
1159.125,1159.125,459.6071,300,1.0,Violin 1,1.0,0.3,86,0.7087
1159.125,1159.125,459.6071,300,1.0,Oboe 1,1.0,0.3,81,1.0
1159.125,1159.125,459.6071,300,1.0,Violoncello,1.0,0.3,50,1.0
1159.125,1159.125,459.6071,300,1.0,Flute 2,1.0,0.3,86,1.0
1159.125,1159.125,459.6071,300,1.0,D Horn 2,1.0,0.3,50,1.0
1160.125,1160.125,459.9071,300,2.0,Violoncello,1.0,0.3,55,1.0
1160.125,1160.125,459.9071,300,2.0,D Trumpet 2,1.0,0.3,62,1.0
1160.125,1160.125,459.9071,300,2.0,A Clarinet 1,1.0,0.3,70,1.0
1160.125,1160.125,459.9071,300,2.0,D Horn 2,1.0,0.3,50,1.0
1160.125,1160.125,459.9071,300,2.0,Violin 1,1.0,0.3,88,0.7087
1160.125,1160.125,459.9071,300,2.0,Violin 1,1.0,0.3,74,0.7087
1160.125,1160.125,459.9071,300,2.0,Contrabass,1.0,0.3,43,1.0
1160.125,1160.125,459.9071,300,2.0,Oboe 1,1.0,0.3,82,1.0
1160.125,1160.125,459.9071,300,2.0,Bassoon 2,1.0,0.3,55,1.0
1160.125,1160.125,459.9071,300,2.0,D Trumpet 1,1.0,0.3,74,1.0
1160.125,1160.125,459.9071,300,2.0,D Horn 1,1.0,0.3,62,1.0
1160.125,1160.125,459.9071,300,2.0,Timpani,1.0,0.3,50,1.0
1160.125,1160.125,459.9071,300,2.0,Viola,1.0,0.3,67,1.0
1160.125,1160.125,459.9071,300,2.0,Oboe 2,1.0,0.3,79,1.0
1160.125,1160.125,459.9071,300,2.0,A Clarinet 2,1.0,0.3,67,1.0
1160.125,1160.125,459.9071,300,2.0,Flute 1,1.0,0.3,88,1.0
1160.125,1160.125,459.9071,300,2.0,Flute 2,1.0,0.3,85,1.0
1160.125,1160.125,459.9071,300,2.0,Bassoon 1,1.0,0.3,58,1.0
1160.125,1160.125,459.9071,300,2.0,Violin 2,1.0,0.3,70,1.0
1161.125,1161.125,460.2071,300,3.0,Bassoon 1,1.0,0.3,57,1.0
1161.125,1161.125,460.2071,300,3.0,Oboe 2,1.0,0.3,78,1.0
1161.125,1161.125,460.2071,300,3.0,Oboe 1,1.0,0.3,81,1.0
1161.125,1161.125,460.2071,300,3.0,D Horn 2,1.0,0.3,50,1.0
1161.125,1161.125,460.2071,300,3.0,Violoncello,1.0,0.3,50,1.0
1161.125,1161.125,460.2071,300,3.0,Timpani,1.0,0.3,50,1.0
1161.125,1161.125,460.2071,300,3.0,Violin 1,1.0,0.3,86,0.7087
1161.125,1161.125,460.2071,300,3.0,Violin 1,1.0,0.3,74,0.7087
1161.125,1161.125,460.2071,300,3.0,Viola,1.0,0.3,66,1.0
1161.125,1161.125,460.2071,300,3.0,Flute 2,1.0,0.3,86,1.0
1161.125,1161.125,460.2071,300,3.0,A Clarinet 1,1.0,0.3,69,1.0
1161.125,1161.125,460.2071,300,3.0,D Trumpet 1,1.0,0.3,74,1.0
1161.125,1161.125,460.2071,300,3.0,Flute 1,1.0,0.3,86,1.0
1161.125,1161.125,460.2071,300,3.0,D Trumpet 2,1.0,0.3,62,1.0
1161.125,1161.125,460.2071,300,3.0,Bassoon 2,1.0,0.3,54,1.0
1161.125,1161.125,460.2071,300,3.0,A Clarinet 2,1.0,0.3,66,1.0
1161.125,1161.125,460.2071,300,3.0,Contrabass,1.0,0.3,38,1.0
1161.125,1161.125,460.2071,300,3.0,D Horn 1,1.0,0.3,62,1.0
1161.125,1161.125,460.2071,300,3.0,Violin 2,1.0,0.3,69,1.0
1162.125,1162.125,460.5071,300,4.0,A Clarinet 1,1.0,0.3,70,1.0
1162.125,1162.125,460.5071,300,4.0,Viola,1.0,0.3,67,1.0
1162.125,1162.125,460.5071,300,4.0,Violin 1,1.0,0.3,74,0.7087
1162.125,1162.125,460.5071,300,4.0,Violin 1,1.0,0.3,88,0.7087
1162.125,1162.125,460.5071,300,4.0,Timpani,1.0,0.3,50,1.0
1162.125,1162.125,460.5071,300,4.0,A Clarinet 2,1.0,0.3,67,1.0
1162.125,1162.125,460.5071,300,4.0,Violoncello,1.0,0.3,55,1.0
1162.125,1162.125,460.5071,300,4.0,Flute 2,1.0,0.3,85,1.0
1162.125,1162.125,460.5071,300,4.0,Flute 1,1.0,0.3,88,1.0
1162.125,1162.125,460.5071,300,4.0,Contrabass,1.0,0.3,43,1.0
1162.125,1162.125,460.5071,300,4.0,Violin 2,1.0,0.3,70,1.0
1162.125,1162.125,460.5071,300,4.0,Oboe 1,1.0,0.3,82,1.0
1162.125,1162.125,460.5071,300,4.0,D Horn 1,1.0,0.3,62,1.0
1162.125,1162.125,460.5071,300,4.0,D Trumpet 2,1.0,0.3,62,1.0
1162.125,1162.125,460.5071,300,4.0,D Trumpet 1,1.0,0.3,74,1.0
1162.125,1162.125,460.5071,300,4.0,Bassoon 1,1.0,0.3,58,1.0
1162.125,1162.125,460.5071,300,4.0,D Horn 2,1.0,0.3,50,1.0
1162.125,1162.125,460.5071,300,4.0,Oboe 2,1.0,0.3,79,1.0
1162.125,1162.125,460.5071,300,4.0,Bassoon 2,1.0,0.3,55,1.0
1163.125,1163.125,460.8071,301,1.0,Violin 2,1.0,0.3,69,1.0
1163.125,1163.125,460.8071,301,1.0,A Clarinet 1,1.0,0.3,69,1.0
1163.125,1163.125,460.8071,301,1.0,Viola,1.0,0.3,66,1.0
1163.125,1163.125,460.8071,301,1.0,Violin 1,1.0,0.3,86,0.7087
1163.125,1163.125,460.8071,301,1.0,Timpani,1.0,0.3,50,1.0
1163.125,1163.125,460.8071,301,1.0,D Horn 1,1.0,0.3,62,1.0
1163.125,1163.125,460.8071,301,1.0,Oboe 2,1.0,0.3,78,1.0
1163.125,1163.125,460.8071,301,1.0,Violoncello,1.0,0.3,50,1.0
1163.125,1163.125,460.8071,301,1.0,Oboe 1,1.0,0.3,81,1.0
1163.125,1163.125,460.8071,301,1.0,D Trumpet 2,1.0,0.3,62,1.0
1163.125,1163.125,460.8071,301,1.0,Violin 1,1.0,0.3,74,0.7087
1163.125,1163.125,460.8071,301,1.0,Bassoon 2,1.0,0.3,54,1.0
1163.125,1163.125,460.8071,301,1.0,D Trumpet 1,1.0,0.3,74,1.0
1163.125,1163.125,460.8071,301,1.0,Flute 1,1.0,0.3,86,1.0
1163.125,1163.125,460.8071,301,1.0,A Clarinet 2,1.0,0.3,66,1.0
1163.125,1163.125,460.8071,301,1.0,Bassoon 1,1.0,0.3,57,1.0
1163.125,1163.125,460.8071,301,1.0,D Horn 2,1.0,0.3,50,1.0
1163.125,1163.125,460.8071,301,1.0,Contrabass,1.0,0.3,38,1.0
1163.125,1163.125,460.8071,301,1.0,Flute 2,1.0,0.3,86,1.0
1164.125,1164.125,461.1071,301,2.0,D Horn 1,1.0,0.3,62,1.0
1164.125,1164.125,461.1071,301,2.0,Oboe 1,1.0,0.3,82,1.0
1164.125,1164.125,461.1071,301,2.0,Violoncello,1.0,0.3,55,1.0
1164.125,1164.125,461.1071,301,2.0,D Horn 2,1.0,0.3,50,1.0
1164.125,1164.125,461.1071,301,2.0,A Clarinet 1,1.0,0.3,70,1.0
1164.125,1164.125,461.1071,301,2.0,Contrabass,1.0,0.3,43,1.0
1164.125,1164.125,461.1071,301,2.0,A Clarinet 2,1.0,0.3,67,1.0
1164.125,1164.125,461.1071,301,2.0,D Trumpet 2,1.0,0.3,62,1.0
1164.125,1164.125,461.1071,301,2.0,Violin 2,1.0,0.3,70,1.0
1164.125,1164.125,461.1071,301,2.0,Flute 1,1.0,0.3,88,1.0
1164.125,1164.125,461.1071,301,2.0,Oboe 2,1.0,0.3,79,1.0
1164.125,1164.125,461.1071,301,2.0,Violin 1,1.0,0.3,88,0.7087
1164.125,1164.125,461.1071,301,2.0,D Trumpet 1,1.0,0.3,74,1.0
1164.125,1164.125,461.1071,301,2.0,Violin 1,1.0,0.3,74,0.7087
1164.125,1164.125,461.1071,301,2.0,Flute 2,1.0,0.3,85,1.0
1164.125,1164.125,461.1071,301,2.0,Viola,1.0,0.3,67,1.0
1164.125,1164.125,461.1071,301,2.0,Timpani,1.0,0.3,50,1.0
1164.125,1164.125,461.1071,301,2.0,Bassoon 1,1.0,0.3,58,1.0
1164.125,1164.125,461.1071,301,2.0,Bassoon 2,1.0,0.3,55,1.0
1165.125,1165.125,461.4071,301,3.0,A Clarinet 1,1.0,0.3,69,1.0
1165.125,1165.125,461.4071,301,3.0,Timpani,1.0,0.3,50,1.0
1165.125,1165.125,461.4071,301,3.0,Viola,1.0,0.3,66,1.0
1165.125,1165.125,461.4071,301,3.0,D Horn 2,1.0,0.3,50,1.0
1165.125,1165.125,461.4071,301,3.0,Oboe 2,1.0,0.3,78,1.0
1165.125,1165.125,461.4071,301,3.0,Bassoon 1,1.0,0.3,57,1.0
1165.125,1165.125,461.4071,301,3.0,Flute 2,1.0,0.3,86,1.0
1165.125,1165.125,461.4071,301,3.0,Oboe 1,1.0,0.3,81,1.0
1165.125,1165.125,461.4071,301,3.0,Flute 1,1.0,0.3,86,1.0
1165.125,1165.125,461.4071,301,3.0,D Trumpet 1,1.0,0.3,74,1.0
1165.125,1165.125,461.4071,301,3.0,D Trumpet 2,1.0,0.3,62,1.0
1165.125,1165.125,461.4071,301,3.0,Violin 1,1.0,0.3,74,0.7087
1165.125,1165.125,461.4071,301,3.0,Violoncello,1.0,0.3,50,1.0
1165.125,1165.125,461.4071,301,3.0,Contrabass,1.0,0.3,38,1.0
1165.125,1165.125,461.4071,301,3.0,D Horn 1,1.0,0.3,62,1.0
1165.125,1165.125,461.4071,301,3.0,Violin 1,1.0,0.3,86,0.7087
1165.125,1165.125,461.4071,301,3.0,Bassoon 2,1.0,0.3,54,1.0
1165.125,1165.125,461.4071,301,3.0,A Clarinet 2,1.0,0.3,66,1.0
1165.125,1165.125,461.4071,301,3.0,Violin 2,1.0,0.3,69,1.0
1166.125,1166.125,461.7071,301,4.0,D Trumpet 1,1.0,0.3,74,1.0
1166.125,1166.125,461.7071,301,4.0,D Horn 1,1.0,0.3,62,1.0
1166.125,1166.125,461.7071,301,4.0,Bassoon 1,1.0,0.3,58,1.0
1166.125,1166.125,461.7071,301,4.0,Timpani,1.0,0.3,50,1.0
1166.125,1166.125,461.7071,301,4.0,Flute 2,1.0,0.3,85,1.0
1166.125,1166.125,461.7071,301,4.0,D Trumpet 2,1.0,0.3,62,1.0
1166.125,1166.125,461.7071,301,4.0,Oboe 2,1.0,0.3,79,1.0
1166.125,1166.125,461.7071,301,4.0,Violin 2,1.0,0.3,70,1.0
1166.125,1166.125,461.7071,301,4.0,Bassoon 2,1.0,0.3,55,1.0
1166.125,1166.125,461.7071,301,4.0,Contrabass,1.0,0.3,43,1.0
1166.125,1166.125,461.7071,301,4.0,A Clarinet 1,1.0,0.3,70,1.0
1166.125,1166.125,461.7071,301,4.0,Flute 1,1.0,0.3,88,1.0
1166.125,1166.125,461.7071,301,4.0,Violin 1,1.0,0.3,74,0.7087
1166.125,1166.125,461.7071,301,4.0,Violin 1,1.0,0.3,88,0.7087
1166.125,1166.125,461.7071,301,4.0,A Clarinet 2,1.0,0.3,67,1.0
1166.125,1166.125,461.7071,301,4.0,D Horn 2,1.0,0.3,50,1.0
1166.125,1166.125,461.7071,301,4.0,Violoncello,1.0,0.3,55,1.0
1166.125,1166.125,461.7071,301,4.0,Oboe 1,1.0,0.3,82,1.0
1166.125,1166.125,461.7071,301,4.0,Viola,1.0,0.3,67,1.0
1167.125,1167.125,462.0071,302,1.0,Timpani,1.0,0.3,50,1.0
1167.125,1167.125,462.0071,302,1.0,A Clarinet 1,1.0,0.3,69,1.0
1167.125,1167.125,462.0071,302,1.0,Violin 2,1.0,0.3,66,0.7087
1167.125,1167.125,462.0071,302,1.0,A Clarinet 2,1.0,0.3,66,1.0
1167.125,1167.125,462.0071,302,1.0,Violin 2,1.0,0.3,69,0.7087
1167.125,1167.125,462.0071,302,1.0,D Trumpet 1,4.0,1.2,74,1.0
1167.125,1167.125,462.0071,302,1.0,Flute 2,4.0,1.2,86,1.0
1167.125,1167.125,462.0071,302,1.0,D Horn 1,4.0,1.2,62,1.0
1167.125,1167.125,462.0071,302,1.0,Viola,4.0,1.2,62,1.0
1167.125,1167.125,462.0071,302,1.0,D Trumpet 2,4.0,1.2,74,1.0
1167.125,1167.125,462.0071,302,1.0,Violoncello,4.0,1.2,50,1.0
1167.125,1167.125,462.0071,302,1.0,Oboe 2,1.0,0.3,78,1.0
1167.125,1167.125,462.0071,302,1.0,Bassoon 2,1.0,0.3,54,1.0
1167.125,1167.125,462.0071,302,1.0,Bassoon 1,1.0,0.3,57,1.0
1167.125,1167.125,462.0071,302,1.0,Contrabass,4.0,1.2,38,1.0
1167.125,1167.125,462.0071,302,1.0,Violin 1,0.25,0.075,74,0.7087
1167.125,1167.125,462.0071,302,1.0,Oboe 1,1.0,0.3,81,1.0
1167.125,1167.125,462.0071,302,1.0,D Horn 2,4.0,1.2,62,1.0
1167.125,1167.125,462.0071,302,1.0,Flute 1,4.0,1.2,86,1.0
1167.125,1167.125,462.0071,302,1.0,Violin 1,0.25,0.075,86,0.7087
1167.375,1167.375,462.0821,302,1.25,Violin 1,0.25,0.075,86,1.0
1167.625,1167.625,462.1571,302,1.5,Violin 1,0.25,0.075,86,1.0
1167.875,1167.875,462.2321,302,1.75,Violin 1,0.25,0.075,86,1.0
1168.125,1168.125,462.3071,302,2.0,Violin 1,0.25,0.075,81,1.0
1168.375,1168.375,462.3821,302,2.25,Violin 1,0.25,0.075,81,1.0
1168.625,1168.625,462.4571,302,2.5,Violin 1,0.25,0.075,78,1.0
1168.875,1168.875,462.5321,302,2.75,Violin 1,0.25,0.075,78,1.0
1169.125,1169.125,462.6071,302,3.0,A Clarinet 2,2.0,0.6,62,1.0
1169.125,1169.125,462.6071,302,3.0,Oboe 1,2.0,0.6,74,1.0
1169.125,1169.125,462.6071,302,3.0,Bassoon 2,2.0,0.6,62,1.0
1169.125,1169.125,462.6071,302,3.0,Bassoon 1,2.0,0.6,62,1.0
1169.125,1169.125,462.6071,302,3.0,Oboe 2,2.0,0.6,74,1.0
1169.125,1169.125,462.6071,302,3.0,Violin 1,0.25,0.075,74,1.0
1169.125,1169.125,462.6071,302,3.0,A Clarinet 1,2.0,0.6,74,1.0
1169.375,1169.375,462.6821,302,3.25,Violin 1,0.25,0.075,74,1.0
1169.625,1169.625,462.7571,302,3.5,Violin 1,0.25,0.075,81,1.0
1169.875,1169.875,462.8321,302,3.75,Violin 1,0.25,0.075,81,1.0
1170.125,1170.125,462.9071,302,4.0,Violin 1,0.25,0.075,78,1.0
1170.375,1170.375,462.9821,302,4.25,Violin 1,0.25,0.075,78,1.0
1170.625,1170.625,463.0571,302,4.5,Violin 1,0.25,0.075,74,1.0
1170.875,1170.875,463.1321,302,4.75,Violin 1,0.25,0.075,74,1.0
1171.125,1171.125,463.2071,303,1.0,Viola,4.0,1.2,62,1.0
1171.125,1171.125,463.2071,303,1.0,Flute 1,2.0,0.6,81,1.0
1171.125,1171.125,463.2071,303,1.0,Flute 2,2.0,0.6,81,1.0
1171.125,1171.125,463.2071,303,1.0,Contrabass,4.0,1.2,38,1.0
1171.125,1171.125,463.2071,303,1.0,Violoncello,4.0,1.2,50,1.0
1171.125,1171.125,463.2071,303,1.0,Bassoon 1,2.0,0.6,57,1.0
1171.125,1171.125,463.2071,303,1.0,D Trumpet 2,2.0,0.6,69,1.0
1171.125,1171.125,463.2071,303,1.0,Oboe 2,2.0,0.6,69,1.0
1171.125,1171.125,463.2071,303,1.0,D Trumpet 1,2.0,0.6,69,1.0
1171.125,1171.125,463.2071,303,1.0,Bassoon 2,2.0,0.6,57,1.0
1171.125,1171.125,463.2071,303,1.0,A Clarinet 2,2.0,0.6,57,1.0
1171.125,1171.125,463.2071,303,1.0,D Horn 1,2.0,0.6,69,1.0
1171.125,1171.125,463.2071,303,1.0,A Clarinet 1,2.0,0.6,69,1.0
1171.125,1171.125,463.2071,303,1.0,Violin 1,0.5,0.15,69,1.0
1171.125,1171.125,463.2071,303,1.0,D Horn 2,2.0,0.6,57,1.0
1171.125,1171.125,463.2071,303,1.0,Oboe 1,2.0,0.6,81,1.0
1171.625,1171.625,463.3571,303,1.5,Violin 2,0.25,0.075,57,1.0
1171.625,1171.625,463.3571,303,1.5,Violin 1,0.5,0.15,78,1.0
1171.875,1171.875,463.4321,303,1.75,Violin 2,0.25,0.075,57,1.0
1172.125,1172.125,463.5071,303,2.0,Violin 2,0.25,0.075,62,1.0
1172.125,1172.125,463.5071,303,2.0,Violin 1,0.5,0.15,74,1.0
1172.375,1172.375,463.5821,303,2.25,Violin 2,0.25,0.075,62,1.0
1172.625,1172.625,463.6571,303,2.5,Violin 2,0.25,0.075,66,1.0
1172.625,1172.625,463.6571,303,2.5,Violin 1,0.5,0.15,69,1.0
1172.875,1172.875,463.7321,303,2.75,Violin 2,0.25,0.075,66,1.0
1173.125,1173.125,463.8071,303,3.0,D Trumpet 1,2.0,0.6,66,1.0
1173.125,1173.125,463.8071,303,3.0,Bassoon 1,2.0,0.6,54,1.0
1173.125,1173.125,463.8071,303,3.0,D Horn 2,2.0,0.6,54,1.0
1173.125,1173.125,463.8071,303,3.0,Flute 1,2.0,0.6,78,1.0
1173.125,1173.125,463.8071,303,3.0,Violin 1,0.5,0.15,66,1.0
1173.125,1173.125,463.8071,303,3.0,Oboe 2,2.0,0.6,66,1.0
1173.125,1173.125,463.8071,303,3.0,Flute 2,2.0,0.6,78,1.0
1173.125,1173.125,463.8071,303,3.0,A Clarinet 1,2.0,0.6,66,1.0
1173.125,1173.125,463.8071,303,3.0,Bassoon 2,2.0,0.6,54,1.0
1173.125,1173.125,463.8071,303,3.0,Oboe 1,2.0,0.6,78,1.0
1173.125,1173.125,463.8071,303,3.0,Violin 2,0.5,0.15,69,1.0
1173.125,1173.125,463.8071,303,3.0,D Horn 1,2.0,0.6,66,1.0
1173.125,1173.125,463.8071,303,3.0,A Clarinet 2,2.0,0.6,54,1.0
1173.125,1173.125,463.8071,303,3.0,D Trumpet 2,2.0,0.6,66,1.0
1173.625,1173.625,463.9571,303,3.5,Violin 1,0.5,0.15,74,1.0
1173.625,1173.625,463.9571,303,3.5,Violin 2,0.5,0.15,62,1.0
1174.125,1174.125,464.1071,303,4.0,Violin 1,0.5,0.15,69,1.0
1174.125,1174.125,464.1071,303,4.0,Violin 2,0.5,0.15,66,1.0
1174.625,1174.625,464.2571,303,4.5,Violin 1,0.5,0.15,66,1.0
1174.625,1174.625,464.2571,303,4.5,Violin 2,0.5,0.15,69,1.0
1175.125,1175.125,464.4071,304,1.0,Oboe 1,4.0,1.2,74,1.0
1175.125,1175.125,464.4071,304,1.0,Viola,2.0,0.6,62,1.0
1175.125,1175.125,464.4071,304,1.0,D Horn 2,4.0,1.2,50,1.0
1175.125,1175.125,464.4071,304,1.0,Flute 1,4.0,1.2,74,1.0
1175.125,1175.125,464.4071,304,1.0,Violoncello,4.0,1.2,50,1.0
1175.125,1175.125,464.4071,304,1.0,Bassoon 1,4.0,1.2,50,1.0
1175.125,1175.125,464.4071,304,1.0,Violin 2,0.5,0.15,74,1.0
1175.125,1175.125,464.4071,304,1.0,A Clarinet 2,4.0,1.2,62,1.0
1175.125,1175.125,464.4071,304,1.0,Flute 2,4.0,1.2,74,1.0
1175.125,1175.125,464.4071,304,1.0,Violin 1,0.5,0.15,62,1.0
1175.125,1175.125,464.4071,304,1.0,Contrabass,4.0,1.2,38,1.0
1175.125,1175.125,464.4071,304,1.0,A Clarinet 1,4.0,1.2,62,1.0
1175.125,1175.125,464.4071,304,1.0,Oboe 2,4.0,1.2,62,1.0
1175.125,1175.125,464.4071,304,1.0,D Horn 1,4.0,1.2,62,1.0
1175.125,1175.125,464.4071,304,1.0,D Trumpet 1,4.0,1.2,62,1.0
1175.125,1175.125,464.4071,304,1.0,Timpani,2.0,0.6,50,1.0
1175.125,1175.125,464.4071,304,1.0,Bassoon 2,4.0,1.2,50,1.0
1175.125,1175.125,464.4071,304,1.0,D Trumpet 2,4.0,1.2,62,1.0
1175.625,1175.625,464.5571,304,1.5,Violin 1,0.5,0.15,81,1.0
1175.625,1175.625,464.5571,304,1.5,Violin 2,0.5,0.15,69,1.0
1176.125,1176.125,464.7071,304,2.0,Violin 2,0.5,0.15,66,1.0
1176.125,1176.125,464.7071,304,2.0,Violin 1,0.5,0.15,78,1.0
1176.625,1176.625,464.8571,304,2.5,Violin 2,0.5,0.15,62,1.0
1176.625,1176.625,464.8571,304,2.5,Violin 1,0.5,0.15,74,1.0
1177.125,1177.125,465.0071,304,3.0,Timpani,2.0,0.6,50,1.0
1177.125,1177.125,465.0071,304,3.0,Viola,0.5,0.15,62,1.0
1177.125,1177.125,465.0071,304,3.0,Violin 2,0.5,0.15,57,1.0
1177.125,1177.125,465.0071,304,3.0,Violin 1,0.5,0.15,69,1.0
1177.625,1177.625,465.1571,304,3.5,Viola,0.25,0.075,66,1.0
1177.625,1177.625,465.1571,304,3.5,Violin 2,0.5,0.15,78,1.0
1177.625,1177.625,465.1571,304,3.5,Violin 1,0.5,0.15,78,1.0
1177.875,1177.875,465.2321,304,3.75,Viola,0.25,0.075,66,1.0
1178.125,1178.125,465.3071,304,4.0,Viola,0.25,0.075,62,1.0
1178.125,1178.125,465.3071,304,4.0,Violin 2,0.5,0.15,74,1.0
1178.125,1178.125,465.3071,304,4.0,Violin 1,0.5,0.15,74,1.0
1178.375,1178.375,465.3821,304,4.25,Viola,0.25,0.075,62,1.0
1178.625,1178.625,465.4571,304,4.5,Violin 1,0.5,0.15,69,1.0
1178.625,1178.625,465.4571,304,4.5,Viola,0.25,0.075,57,1.0
1178.625,1178.625,465.4571,304,4.5,Violin 2,0.5,0.15,69,1.0
1178.875,1178.875,465.5321,304,4.75,Viola,0.25,0.075,57,1.0
1179.125,1179.125,465.6071,305,1.0,Flute 1,2.0,0.6,78,1.0
1179.125,1179.125,465.6071,305,1.0,D Trumpet 1,2.0,0.6,66,1.0
1179.125,1179.125,465.6071,305,1.0,Viola,0.5,0.15,54,1.0
1179.125,1179.125,465.6071,305,1.0,D Trumpet 2,2.0,0.6,66,1.0
1179.125,1179.125,465.6071,305,1.0,Oboe 1,2.0,0.6,78,1.0
1179.125,1179.125,465.6071,305,1.0,Violin 1,0.5,0.15,66,1.0
1179.125,1179.125,465.6071,305,1.0,Oboe 2,2.0,0.6,66,1.0
1179.125,1179.125,465.6071,305,1.0,Violoncello,0.5,0.15,50,1.0
1179.125,1179.125,465.6071,305,1.0,D Horn 1,2.0,0.6,66,1.0
1179.125,1179.125,465.6071,305,1.0,D Horn 2,2.0,0.6,54,1.0
1179.125,1179.125,465.6071,305,1.0,A Clarinet 1,2.0,0.6,66,1.0
1179.125,1179.125,465.6071,305,1.0,Bassoon 1,2.0,0.6,54,1.0
1179.125,1179.125,465.6071,305,1.0,Violin 2,0.5,0.15,66,1.0
1179.125,1179.125,465.6071,305,1.0,Contrabass,0.5,0.15,38,1.0
1179.125,1179.125,465.6071,305,1.0,Bassoon 2,2.0,0.6,54,1.0
1179.125,1179.125,465.6071,305,1.0,A Clarinet 2,2.0,0.6,66,1.0
1179.125,1179.125,465.6071,305,1.0,Timpani,2.0,0.6,50,1.0
1179.125,1179.125,465.6071,305,1.0,Flute 2,2.0,0.6,78,1.0
1179.625,1179.625,465.7571,305,1.5,Violoncello,0.5,0.15,62,1.0
1179.625,1179.625,465.7571,305,1.5,Contrabass,0.5,0.15,50,1.0
1179.625,1179.625,465.7571,305,1.5,Violin 2,0.5,0.15,74,1.0
1179.625,1179.625,465.7571,305,1.5,Violin 1,0.5,0.15,74,1.0
1179.625,1179.625,465.7571,305,1.5,Viola,0.5,0.15,62,1.0
1180.125,1180.125,465.9071,305,2.0,Viola,0.5,0.15,57,1.0
1180.125,1180.125,465.9071,305,2.0,Violin 2,0.5,0.15,69,1.0
1180.125,1180.125,465.9071,305,2.0,Contrabass,0.5,0.15,45,1.0
1180.125,1180.125,465.9071,305,2.0,Violoncello,0.5,0.15,57,1.0
1180.125,1180.125,465.9071,305,2.0,Violin 1,0.5,0.15,69,1.0
1180.625,1180.625,466.0571,305,2.5,Contrabass,0.5,0.15,42,1.0
1180.625,1180.625,466.0571,305,2.5,Violin 2,0.5,0.15,66,1.0
1180.625,1180.625,466.0571,305,2.5,Violin 1,0.5,0.15,66,1.0
1180.625,1180.625,466.0571,305,2.5,Viola,0.5,0.15,54,1.0
1180.625,1180.625,466.0571,305,2.5,Violoncello,0.5,0.15,54,1.0
1181.125,1181.125,466.2071,305,3.0,Viola,0.5,0.15,50,1.0
1181.125,1181.125,466.2071,305,3.0,D Trumpet 1,2.0,0.6,69,1.0
1181.125,1181.125,466.2071,305,3.0,Oboe 2,2.0,0.6,69,1.0
1181.125,1181.125,466.2071,305,3.0,Flute 1,2.0,0.6,81,1.0
1181.125,1181.125,466.2071,305,3.0,D Horn 2,2.0,0.6,57,1.0
1181.125,1181.125,466.2071,305,3.0,Violoncello,0.5,0.15,50,1.0
1181.125,1181.125,466.2071,305,3.0,D Trumpet 2,2.0,0.6,69,1.0
1181.125,1181.125,466.2071,305,3.0,Bassoon 2,2.0,0.6,57,1.0
1181.125,1181.125,466.2071,305,3.0,A Clarinet 1,2.0,0.6,69,1.0
1181.125,1181.125,466.2071,305,3.0,A Clarinet 2,2.0,0.6,69,1.0
1181.125,1181.125,466.2071,305,3.0,Flute 2,2.0,0.6,81,1.0
1181.125,1181.125,466.2071,305,3.0,Violin 2,0.5,0.15,62,1.0
1181.125,1181.125,466.2071,305,3.0,D Horn 1,2.0,0.6,69,1.0
1181.125,1181.125,466.2071,305,3.0,Violin 1,0.5,0.15,62,1.0
1181.125,1181.125,466.2071,305,3.0,Timpani,2.0,0.6,50,1.0
1181.125,1181.125,466.2071,305,3.0,Oboe 1,2.0,0.6,81,1.0
1181.125,1181.125,466.2071,305,3.0,Bassoon 1,2.0,0.6,57,1.0
1181.125,1181.125,466.2071,305,3.0,Contrabass,0.5,0.15,38,1.0
1181.625,1181.625,466.3571,305,3.5,Viola,0.5,0.15,62,1.0
1181.625,1181.625,466.3571,305,3.5,Violin 2,0.5,0.15,74,1.0
1181.625,1181.625,466.3571,305,3.5,Contrabass,0.5,0.15,50,1.0
1181.625,1181.625,466.3571,305,3.5,Violoncello,0.5,0.15,62,1.0
1181.625,1181.625,466.3571,305,3.5,Violin 1,0.5,0.15,74,1.0
1182.125,1182.125,466.5071,305,4.0,Violin 1,0.5,0.15,69,1.0
1182.125,1182.125,466.5071,305,4.0,Viola,0.5,0.15,57,1.0
1182.125,1182.125,466.5071,305,4.0,Contrabass,0.5,0.15,45,1.0
1182.125,1182.125,466.5071,305,4.0,Violoncello,0.5,0.15,57,1.0
1182.125,1182.125,466.5071,305,4.0,Violin 2,0.5,0.15,69,1.0
1182.625,1182.625,466.6571,305,4.5,Viola,0.5,0.15,54,1.0
1182.625,1182.625,466.6571,305,4.5,Violin 1,0.5,0.15,66,1.0
1182.625,1182.625,466.6571,305,4.5,Violoncello,0.5,0.15,54,1.0
1182.625,1182.625,466.6571,305,4.5,Violin 2,0.5,0.15,66,1.0
1182.625,1182.625,466.6571,305,4.5,Contrabass,0.5,0.15,42,1.0
1183.125,1183.125,466.8071,306,1.0,Violin 1,1.0,0.3,62,1.0
1183.125,1183.125,466.8071,306,1.0,A Clarinet 2,1.0,0.3,74,1.0
1183.125,1183.125,466.8071,306,1.0,D Horn 1,1.0,0.3,62,1.0
1183.125,1183.125,466.8071,306,1.0,Bassoon 1,1.0,0.3,62,1.0
1183.125,1183.125,466.8071,306,1.0,Viola,1.0,0.3,50,1.0
1183.125,1183.125,466.8071,306,1.0,D Trumpet 1,1.0,0.3,74,1.0
1183.125,1183.125,466.8071,306,1.0,Violoncello,1.0,0.3,50,1.0
1183.125,1183.125,466.8071,306,1.0,Violin 2,1.0,0.3,62,1.0
1183.125,1183.125,466.8071,306,1.0,D Horn 2,1.0,0.3,50,1.0
1183.125,1183.125,466.8071,306,1.0,Oboe 1,1.0,0.3,86,1.0
1183.125,1183.125,466.8071,306,1.0,Contrabass,1.0,0.3,38,1.0
1183.125,1183.125,466.8071,306,1.0,Oboe 2,1.0,0.3,74,1.0
1183.125,1183.125,466.8071,306,1.0,Timpani,1.0,0.3,50,1.0
1183.125,1183.125,466.8071,306,1.0,D Trumpet 2,1.0,0.3,62,1.0
1183.125,1183.125,466.8071,306,1.0,Flute 1,1.0,0.3,86,1.0
1183.125,1183.125,466.8071,306,1.0,A Clarinet 1,1.0,0.3,74,1.0
1183.125,1183.125,466.8071,306,1.0,Bassoon 2,1.0,0.3,62,1.0
1183.125,1183.125,466.8071,306,1.0,Flute 2,1.0,0.3,86,1.0
1185.125,1185.125,467.4071,306,3.0,D Horn 1,1.0,0.3,62,0.9921
1185.125,1185.125,467.4071,306,3.0,Timpani,1.0,0.3,50,0.9921
1185.125,1185.125,467.4071,306,3.0,Bassoon 1,1.0,0.3,57,0.9921
1185.125,1185.125,467.4071,306,3.0,Flute 2,1.0,0.3,78,0.9921
1185.125,1185.125,467.4071,306,3.0,A Clarinet 2,1.0,0.3,66,0.9921
1185.125,1185.125,467.4071,306,3.0,Oboe 1,1.0,0.3,81,0.9921
1185.125,1185.125,467.4071,306,3.0,Bassoon 2,1.0,0.3,54,0.9921
1185.125,1185.125,467.4071,306,3.0,D Horn 2,1.0,0.3,50,0.9921
1185.125,1185.125,467.4071,306,3.0,D Trumpet 2,1.0,0.3,62,0.9921
1185.125,1185.125,467.4071,306,3.0,Flute 1,1.0,0.3,81,0.9921
1185.125,1185.125,467.4071,306,3.0,D Trumpet 1,1.0,0.3,74,0.9921
1185.125,1185.125,467.4071,306,3.0,A Clarinet 1,1.0,0.3,69,0.9921
1185.125,1185.125,467.4071,306,3.0,Oboe 2,1.0,0.3,78,0.9921
1187.125,1187.125,468.0071,307,1.0,Contrabass,1.0,0.3,38,0.9921
1187.125,1187.125,468.0071,307,1.0,Viola,1.0,0.3,50,0.7087
1187.125,1187.125,468.0071,307,1.0,Viola,1.0,0.3,62,0.7087
1187.125,1187.125,468.0071,307,1.0,Violoncello,1.0,0.3,50,0.9921
1187.125,1187.125,468.0071,307,1.0,Violin 2,1.0,0.3,78,0.7087
1187.125,1187.125,468.0071,307,1.0,Violin 2,1.0,0.3,62,0.7087
1187.125,1187.125,468.0071,307,1.0,Violin 2,1.0,0.3,69,0.7087
1187.125,1187.125,468.0071,307,1.0,Violin 1,1.0,0.3,78,0.7087
1187.125,1187.125,468.0071,307,1.0,Violin 1,1.0,0.3,69,0.7087
1187.125,1187.125,468.0071,307,1.0,Violin 1,1.0,0.3,62,0.7087
1189.125,1189.125,468.6071,307,3.0,D Trumpet 1,1.0,0.3,74,0.9921
1189.125,1189.125,468.6071,307,3.0,Oboe 1,1.0,0.3,84,0.9921
1189.125,1189.125,468.6071,307,3.0,Bassoon 2,1.0,0.3,57,0.9921
1189.125,1189.125,468.6071,307,3.0,Oboe 2,1.0,0.3,81,0.9921
1189.125,1189.125,468.6071,307,3.0,D Horn 1,1.0,0.3,62,0.9921
1189.125,1189.125,468.6071,307,3.0,Timpani,1.0,0.3,50,0.9921
1189.125,1189.125,468.6071,307,3.0,A Clarinet 2,1.0,0.3,69,0.9921
1189.125,1189.125,468.6071,307,3.0,D Horn 2,1.0,0.3,50,0.9921
1189.125,1189.125,468.6071,307,3.0,Bassoon 1,1.0,0.3,60,0.9921
1189.125,1189.125,468.6071,307,3.0,Flute 1,1.0,0.3,84,0.9921
1189.125,1189.125,468.6071,307,3.0,A Clarinet 1,1.0,0.3,72,0.9921
1189.125,1189.125,468.6071,307,3.0,Flute 2,1.0,0.3,81,0.9921
1189.125,1189.125,468.6071,307,3.0,D Trumpet 2,1.0,0.3,62,0.9921
1191.125,1191.125,469.2071,308,1.0,A Clarinet 1,3.0,0.9,76,0.4961
1191.125,1191.125,469.2071,308,1.0,A Clarinet 2,3.0,0.9,72,0.4961
1191.125,1191.125,469.2071,308,1.0,Oboe 1,3.0,0.9,81,0.4961
1194.125,1194.125,470.1071,308,4.0,A Clarinet 2,1.0,0.3,71,0.4961
1194.125,1194.125,470.1071,308,4.0,A Clarinet 1,1.0,0.3,74,0.4961
1194.125,1194.125,470.1071,308,4.0,Oboe 1,1.0,0.3,79,0.4961
1195.125,1195.125,470.4071,309,1.0,A Clarinet 1,1.0,0.3,72,0.4961
1195.125,1195.125,470.4071,309,1.0,A Clarinet 2,1.0,0.3,69,0.4961
1195.125,1195.125,470.4071,309,1.0,Oboe 1,1.0,0.3,78,0.4961
1196.125,1196.125,470.7071,309,2.0,Oboe 1,1.0,0.3,76,0.4961
1196.125,1196.125,470.7071,309,2.0,A Clarinet 1,1.0,0.3,71,0.4961
1196.125,1196.125,470.7071,309,2.0,A Clarinet 2,1.0,0.3,67,0.4961
1197.125,1197.125,471.0071,309,3.0,A Clarinet 2,1.0,0.3,66,0.4961
1197.125,1197.125,471.0071,309,3.0,A Clarinet 1,1.0,0.3,69,0.4961
1197.125,1197.125,471.0071,309,3.0,Oboe 1,1.0,0.3,74,0.4961
1198.125,1198.125,471.3071,309,4.0,Oboe 1,1.0,0.3,72,0.4961
1198.125,1198.125,471.3071,309,4.0,Bassoon 2,1.0,0.3,57,0.4961
1198.125,1198.125,471.3071,309,4.0,A Clarinet 1,1.0,0.3,69,0.4961
1198.125,1198.125,471.3071,309,4.0,Violin 1,0.3333,0.1,62,0.4961
1198.125,1198.125,471.3071,309,4.0,A Clarinet 2,1.0,0.3,62,0.4961
1198.125,1198.125,471.3071,309,4.0,Contrabass,0.3333,0.1,38,0.4961
1198.125,1198.125,471.3071,309,4.0,Violin 2,0.3333,0.1,62,0.4961
1198.125,1198.125,471.3071,309,4.0,Viola,0.3333,0.1,50,0.4961
1198.125,1198.125,471.3071,309,4.0,Bassoon 1,1.0,0.3,60,0.4961
1198.125,1198.125,471.3071,309,4.0,Violoncello,0.3333,0.1,50,0.4961
1198.4583,1198.4583,471.4071,309,4.3333,Violin 1,0.3333,0.1,64,0.4961
1198.4583,1198.4583,471.4071,309,4.3333,Contrabass,0.3333,0.1,40,0.4961
1198.4583,1198.4583,471.4071,309,4.3333,Violin 2,0.3333,0.1,64,0.4961
1198.4583,1198.4583,471.4071,309,4.3333,Violoncello,0.3333,0.1,52,0.4961
1198.4583,1198.4583,471.4071,309,4.3333,Viola,0.3333,0.1,52,0.4961
1198.7917,1198.7917,471.5072,309,4.6667,Violin 2,0.3333,0.1,66,0.4961
1198.7917,1198.7917,471.5072,309,4.6667,Violoncello,0.3333,0.1,54,0.4961
1198.7917,1198.7917,471.5072,309,4.6667,Violin 1,0.3333,0.1,66,0.4961
1198.7917,1198.7917,471.5072,309,4.6667,Contrabass,0.3333,0.1,42,0.4961
1198.7917,1198.7917,471.5072,309,4.6667,Viola,0.3333,0.1,54,0.4961
1199.125,1199.125,471.6071,310,1.0,Contrabass,1.0,0.3,43,0.4961
1199.125,1199.125,471.6071,310,1.0,A Clarinet 2,1.0,0.3,62,0.4961
1199.125,1199.125,471.6071,310,1.0,Viola,1.0,0.3,55,0.4961
1199.125,1199.125,471.6071,310,1.0,Bassoon 2,1.0,0.3,55,0.4961
1199.125,1199.125,471.6071,310,1.0,Flute 2,3.0,0.9,84,0.4961
1199.125,1199.125,471.6071,310,1.0,Flute 1,3.0,0.9,90,0.4961
1199.125,1199.125,471.6071,310,1.0,Violin 2,1.0,0.3,67,0.4961
1199.125,1199.125,471.6071,310,1.0,A Clarinet 1,1.0,0.3,67,0.4961
1199.125,1199.125,471.6071,310,1.0,Oboe 1,1.0,0.3,71,0.4961
1199.125,1199.125,471.6071,310,1.0,Violin 1,1.0,0.3,67,0.4961
1199.125,1199.125,471.6071,310,1.0,Violoncello,1.0,0.3,55,0.4961
1199.125,1199.125,471.6071,310,1.0,Bassoon 1,1.0,0.3,59,0.4961
1200.125,1200.125,471.9071,310,2.0,Oboe 1,2.0,0.6,81,0.4961
1202.125,1202.125,472.5071,310,4.0,Flute 1,1.0,0.3,88,0.4961
1202.125,1202.125,472.5071,310,4.0,Flute 2,1.0,0.3,83,0.4961
1202.125,1202.125,472.5071,310,4.0,Oboe 1,1.0,0.3,79,0.4961
1203.125,1203.125,472.8071,311,1.0,Oboe 1,1.0,0.3,78,0.4961
1203.125,1203.125,472.8071,311,1.0,Flute 1,1.0,0.3,87,0.4961
1203.125,1203.125,472.8071,311,1.0,Flute 2,1.0,0.3,81,0.4961
1204.125,1204.125,473.1071,311,2.0,Flute 2,1.0,0.3,79,0.4961
1204.125,1204.125,473.1071,311,2.0,Flute 1,1.0,0.3,84,0.4961
1204.125,1204.125,473.1071,311,2.0,Oboe 1,1.0,0.3,76,0.4961
1205.125,1205.125,473.4071,311,3.0,Oboe 1,1.0,0.3,75,0.4961
1205.125,1205.125,473.4071,311,3.0,Flute 2,1.0,0.3,78,0.4961
1205.125,1205.125,473.4071,311,3.0,Flute 1,1.0,0.3,83,0.4961
1206.125,1206.125,473.7071,311,4.0,Oboe 1,1.0,0.3,71,0.4961
1206.125,1206.125,473.7071,311,4.0,Violin 1,0.3333,0.1,59,0.4961
1206.125,1206.125,473.7071,311,4.0,Flute 2,1.0,0.3,78,0.4961
1206.125,1206.125,473.7071,311,4.0,Violoncello,0.3333,0.1,47,0.4961
1206.125,1206.125,473.7071,311,4.0,Flute 1,1.0,0.3,81,0.4961
1206.125,1206.125,473.7071,311,4.0,Violin 2,0.3333,0.1,59,0.4961
1206.125,1206.125,473.7071,311,4.0,Contrabass,0.3333,0.1,35,0.4961
1206.125,1206.125,473.7071,311,4.0,Bassoon 1,1.0,0.3,66,0.4961
1206.125,1206.125,473.7071,311,4.0,Viola,0.3333,0.1,59,0.4961
1206.125,1206.125,473.7071,311,4.0,Bassoon 2,1.0,0.3,59,0.4961
1206.4583,1206.4583,473.8071,311,4.3333,Violin 2,0.3333,0.1,61,0.4961
1206.4583,1206.4583,473.8071,311,4.3333,Violoncello,0.3333,0.1,49,0.4961
1206.4583,1206.4583,473.8071,311,4.3333,Viola,0.3333,0.1,61,0.4961
1206.4583,1206.4583,473.8071,311,4.3333,Violin 1,0.3333,0.1,61,0.4961
1206.4583,1206.4583,473.8071,311,4.3333,Contrabass,0.3333,0.1,37,0.4961
1206.7917,1206.7917,473.9072,311,4.6667,Viola,0.3333,0.1,63,0.4961
1206.7917,1206.7917,473.9072,311,4.6667,Violoncello,0.3333,0.1,51,0.4961
1206.7917,1206.7917,473.9072,311,4.6667,Violin 2,0.3333,0.1,63,0.4961
1206.7917,1206.7917,473.9072,311,4.6667,Contrabass,0.3333,0.1,39,0.4961
1206.7917,1206.7917,473.9072,311,4.6667,Violin 1,0.3333,0.1,63,0.4961
1207.125,1207.125,474.0071,312,1.0,Violin 1,1.0,0.3,64,0.4961
1207.125,1207.125,474.0071,312,1.0,Viola,1.0,0.3,64,0.4961
1207.125,1207.125,474.0071,312,1.0,Flute 2,1.0,0.3,76,0.5461
1207.125,1207.125,474.0071,312,1.0,Bassoon 1,1.0,0.3,64,0.4961
1207.125,1207.125,474.0071,312,1.0,Violoncello,1.0,0.3,52,0.4961
1207.125,1207.125,474.0071,312,1.0,Violin 2,1.0,0.3,64,0.4961
1207.125,1207.125,474.0071,312,1.0,Flute 1,1.0,0.3,79,0.5461
1207.125,1207.125,474.0071,312,1.0,Oboe 1,1.0,0.3,71,0.5461
1207.125,1207.125,474.0071,312,1.0,Contrabass,1.0,0.3,40,0.4961
1207.125,1207.125,474.0071,312,1.0,Bassoon 2,1.0,0.3,64,0.4961
1208.125,1208.125,474.3071,312,2.0,Flute 1,2.0,0.6,88,0.4961
1208.125,1208.125,474.3071,312,2.0,Oboe 2,2.0,0.6,71,0.9921
1208.125,1208.125,474.3071,312,2.0,Oboe 1,2.0,0.6,76,0.4961
1208.125,1208.125,474.3071,312,2.0,Bassoon 1,2.0,0.6,67,0.4961
1210.125,1210.125,474.9071,312,4.0,Flute 1,1.0,0.3,86,0.4961
1210.125,1210.125,474.9071,312,4.0,Oboe 1,1.0,0.3,74,0.4961
1210.125,1210.125,474.9071,312,4.0,Bassoon 1,1.0,0.3,66,0.4961
1210.125,1210.125,474.9071,312,4.0,Oboe 2,1.0,0.3,69,0.9921
1211.125,1211.125,475.2071,313,1.0,Bassoon 1,1.0,0.3,64,0.4961
1211.125,1211.125,475.2071,313,1.0,Oboe 1,1.0,0.3,73,0.4961
1211.125,1211.125,475.2071,313,1.0,Flute 1,1.0,0.3,85,0.4961
1211.125,1211.125,475.2071,313,1.0,Oboe 2,1.0,0.3,67,0.9921
1212.125,1212.125,475.5071,313,2.0,Bassoon 1,1.0,0.3,62,0.4961
1212.125,1212.125,475.5071,313,2.0,Oboe 2,1.0,0.3,66,0.9921
1212.125,1212.125,475.5071,313,2.0,Oboe 1,1.0,0.3,71,0.4961
1212.125,1212.125,475.5071,313,2.0,Flute 1,1.0,0.3,83,0.4961
1213.125,1213.125,475.8071,313,3.0,Bassoon 1,1.0,0.3,61,0.4961
1213.125,1213.125,475.8071,313,3.0,Oboe 2,1.0,0.3,64,0.9921
1213.125,1213.125,475.8071,313,3.0,Oboe 1,1.0,0.3,69,0.4961
1213.125,1213.125,475.8071,313,3.0,Flute 1,1.0,0.3,81,0.4961
1214.125,1214.125,476.1071,313,4.0,D Horn 1,1.0,0.3,64,0.9921
1214.125,1214.125,476.1071,313,4.0,Viola,0.3333,0.1,57,0.4961
1214.125,1214.125,476.1071,313,4.0,Oboe 2,1.0,0.3,76,0.9921
1214.125,1214.125,476.1071,313,4.0,Flute 1,1.0,0.3,79,0.4961
1214.125,1214.125,476.1071,313,4.0,D Horn 2,1.0,0.3,57,0.9921
1214.125,1214.125,476.1071,313,4.0,Contrabass,0.3333,0.1,33,0.4961
1214.125,1214.125,476.1071,313,4.0,Violoncello,0.3333,0.1,45,0.4961
1214.125,1214.125,476.1071,313,4.0,Bassoon 1,1.0,0.3,57,0.4961
1214.125,1214.125,476.1071,313,4.0,Oboe 1,1.0,0.3,79,0.4961
1214.125,1214.125,476.1071,313,4.0,Violin 1,0.3333,0.1,69,0.4961
1214.125,1214.125,476.1071,313,4.0,Violin 2,0.3333,0.1,57,0.4961
1214.4583,1214.4583,476.2071,313,4.3333,Violin 1,0.3333,0.1,71,0.4961
1214.4583,1214.4583,476.2071,313,4.3333,Contrabass,0.3333,0.1,35,0.4961
1214.4583,1214.4583,476.2071,313,4.3333,Violin 2,0.3333,0.1,59,0.4961
1214.4583,1214.4583,476.2071,313,4.3333,Viola,0.3333,0.1,59,0.4961
1214.4583,1214.4583,476.2071,313,4.3333,Violoncello,0.3333,0.1,47,0.4961
1214.7917,1214.7917,476.3072,313,4.6667,Contrabass,0.3333,0.1,37,0.4961
1214.7917,1214.7917,476.3072,313,4.6667,Violin 1,0.3333,0.1,73,0.4961
1214.7917,1214.7917,476.3072,313,4.6667,Viola,0.3333,0.1,61,0.4961
1214.7917,1214.7917,476.3072,313,4.6667,Violoncello,0.3333,0.1,49,0.4961
1214.7917,1214.7917,476.3072,313,4.6667,Violin 2,0.3333,0.1,61,0.4961
1215.125,1215.125,476.4071,314,1.0,Flute 1,1.0,0.3,78,0.9921
1215.125,1215.125,476.4071,314,1.0,D Horn 1,1.0,0.3,62,0.9921
1215.125,1215.125,476.4071,314,1.0,Violin 2,1.0,0.3,62,0.9921
1215.125,1215.125,476.4071,314,1.0,Viola,1.0,0.3,62,1.0
1215.125,1215.125,476.4071,314,1.0,Contrabass,1.0,0.3,38,1.0
1215.125,1215.125,476.4071,314,1.0,D Horn 2,1.0,0.3,50,0.9921
1215.125,1215.125,476.4071,314,1.0,Oboe 1,1.0,0.3,78,0.9921
1215.125,1215.125,476.4071,314,1.0,Bassoon 1,1.0,0.3,62,0.9921
1215.125,1215.125,476.4071,314,1.0,Violoncello,1.0,0.3,50,1.0
1215.125,1215.125,476.4071,314,1.0,Violin 1,1.0,0.3,74,0.9921
1215.125,1215.125,476.4071,314,1.0,Bassoon 2,1.0,0.3,62,0.9921
1215.125,1215.125,476.4071,314,1.0,Oboe 2,1.0,0.3,74,0.9921
1216.125,1216.125,476.7071,314,2.0,Violoncello,2.0,0.6,62,1.0
1216.125,1216.125,476.7071,314,2.0,Contrabass,2.0,0.6,50,1.0
1216.125,1216.125,476.7071,314,2.0,Viola,2.0,0.6,66,1.0
1216.125,1216.125,476.7071,314,2.0,Violin 2,0.25,0.075,62,0.9921
1216.375,1216.375,476.7821,314,2.25,Violin 2,0.25,0.075,61,0.9921
1216.625,1216.625,476.8571,314,2.5,Violin 2,0.25,0.075,62,0.9921
1216.875,1216.875,476.9321,314,2.75,Violin 2,0.25,0.075,64,0.9921
1217.125,1217.125,477.0071,314,3.0,D Horn 1,2.0,0.6,62,0.9921
1217.125,1217.125,477.0071,314,3.0,D Trumpet 2,2.0,0.6,62,0.9921
1217.125,1217.125,477.0071,314,3.0,Violin 2,1.0,0.3,66,0.9921
1217.125,1217.125,477.0071,314,3.0,D Horn 2,2.0,0.6,50,0.9921
1217.125,1217.125,477.0071,314,3.0,D Trumpet 1,2.0,0.6,74,0.9921
1218.125,1218.125,477.3071,314,4.0,Violoncello,1.0,0.3,61,1.0
1218.125,1218.125,477.3071,314,4.0,Viola,1.0,0.3,64,1.0
1218.125,1218.125,477.3071,314,4.0,Violin 1,0.25,0.075,71,0.9921
1218.125,1218.125,477.3071,314,4.0,Contrabass,1.0,0.3,49,1.0
1218.125,1218.125,477.3071,314,4.0,Violin 2,0.5,0.15,78,0.9921
1218.375,1218.375,477.3821,314,4.25,Violin 1,0.25,0.075,70,0.9921
1218.625,1218.625,477.4571,314,4.5,Violin 1,0.25,0.075,71,0.9921
1218.625,1218.625,477.4571,314,4.5,Violin 2,0.5,0.15,76,0.9921
1218.875,1218.875,477.5321,314,4.75,Violin 1,0.25,0.075,73,0.9921
1219.125,1219.125,477.6071,315,1.0,Viola,1.0,0.3,62,1.0
1219.125,1219.125,477.6071,315,1.0,Bassoon 2,3.0,0.9,62,1.0
1219.125,1219.125,477.6071,315,1.0,D Horn 1,3.0,0.9,62,0.9921
1219.125,1219.125,477.6071,315,1.0,Contrabass,1.0,0.3,47,1.0
1219.125,1219.125,477.6071,315,1.0,Violoncello,1.0,0.3,59,1.0
1219.125,1219.125,477.6071,315,1.0,Timpani,1.0,0.3,50,0.9921
1219.125,1219.125,477.6071,315,1.0,D Trumpet 2,3.0,0.9,62,0.9921
1219.125,1219.125,477.6071,315,1.0,D Horn 2,3.0,0.9,50,0.9921
1219.125,1219.125,477.6071,315,1.0,Flute 1,3.0,0.9,86,1.0
1219.125,1219.125,477.6071,315,1.0,Violin 1,3.0,0.9,74,1.0
1219.125,1219.125,477.6071,315,1.0,Violin 2,1.0,0.3,74,1.0
1219.125,1219.125,477.6071,315,1.0,Bassoon 1,3.0,0.9,62,1.0
1219.125,1219.125,477.6071,315,1.0,Oboe 1,3.0,0.9,74,1.0
1219.125,1219.125,477.6071,315,1.0,D Trumpet 1,3.0,0.9,74,0.9921
1220.125,1220.125,477.9071,315,2.0,Violin 2,1.0,0.3,72,1.0
1220.125,1220.125,477.9071,315,2.0,Contrabass,1.0,0.3,45,1.0
1220.125,1220.125,477.9071,315,2.0,Viola,1.0,0.3,60,1.0
1220.125,1220.125,477.9071,315,2.0,Violoncello,1.0,0.3,57,1.0
1221.125,1221.125,478.2071,315,3.0,Timpani,1.0,0.3,50,0.9921
1221.125,1221.125,478.2071,315,3.0,Violoncello,1.0,0.3,55,1.0
1221.125,1221.125,478.2071,315,3.0,Violin 2,1.0,0.3,71,1.0
1221.125,1221.125,478.2071,315,3.0,Contrabass,1.0,0.3,43,1.0
1221.125,1221.125,478.2071,315,3.0,Viola,1.0,0.3,59,1.0
1222.125,1222.125,478.5071,315,4.0,Contrabass,1.0,0.3,42,1.0
1222.125,1222.125,478.5071,315,4.0,Oboe 1,1.0,0.3,75,0.9921
1222.125,1222.125,478.5071,315,4.0,Viola,1.0,0.3,57,1.0
1222.125,1222.125,478.5071,315,4.0,Bassoon 1,1.0,0.3,63,0.9921
1222.125,1222.125,478.5071,315,4.0,D Trumpet 2,1.0,0.3,69,0.9921
1222.125,1222.125,478.5071,315,4.0,Violin 1,1.0,0.3,75,1.0
1222.125,1222.125,478.5071,315,4.0,Bassoon 2,1.0,0.3,63,0.9921
1222.125,1222.125,478.5071,315,4.0,D Horn 1,1.0,0.3,66,0.9921
1222.125,1222.125,478.5071,315,4.0,D Horn 2,1.0,0.3,66,0.9921
1222.125,1222.125,478.5071,315,4.0,Violin 2,1.0,0.3,69,1.0
1222.125,1222.125,478.5071,315,4.0,Flute 1,1.0,0.3,87,0.9921
1222.125,1222.125,478.5071,315,4.0,Violoncello,1.0,0.3,54,1.0
1222.125,1222.125,478.5071,315,4.0,D Trumpet 1,1.0,0.3,69,0.9921
1223.125,1223.125,478.8071,316,1.0,D Trumpet 2,1.0,0.3,76,0.9921
1223.125,1223.125,478.8071,316,1.0,D Horn 2,1.0,0.3,64,0.9921
1223.125,1223.125,478.8071,316,1.0,Bassoon 1,1.0,0.3,64,0.9921
1223.125,1223.125,478.8071,316,1.0,Flute 1,1.0,0.3,88,0.9921
1223.125,1223.125,478.8071,316,1.0,Viola,1.0,0.3,55,1.0
1223.125,1223.125,478.8071,316,1.0,D Horn 1,1.0,0.3,67,0.9921
1223.125,1223.125,478.8071,316,1.0,Oboe 1,1.0,0.3,76,0.9921
1223.125,1223.125,478.8071,316,1.0,D Trumpet 1,1.0,0.3,76,0.9921
1223.125,1223.125,478.8071,316,1.0,Violin 2,1.0,0.3,67,1.0
1223.125,1223.125,478.8071,316,1.0,Contrabass,1.0,0.3,40,1.0
1223.125,1223.125,478.8071,316,1.0,Violin 1,1.0,0.3,76,1.0
1223.125,1223.125,478.8071,316,1.0,Violoncello,1.0,0.3,52,1.0
1223.125,1223.125,478.8071,316,1.0,Bassoon 2,1.0,0.3,64,0.9921
1224.125,1224.125,479.1071,316,2.0,Violoncello,2.0,0.6,64,1.0
1224.125,1224.125,479.1071,316,2.0,Violin 2,0.25,0.075,64,1.0
1224.125,1224.125,479.1071,316,2.0,Contrabass,2.0,0.6,52,1.0
1224.125,1224.125,479.1071,316,2.0,Viola,2.0,0.6,67,1.0
1224.375,1224.375,479.1821,316,2.25,Violin 2,0.25,0.075,63,1.0
1224.625,1224.625,479.2571,316,2.5,Violin 2,0.25,0.075,64,1.0
1224.875,1224.875,479.3321,316,2.75,Violin 2,0.25,0.075,66,1.0
1225.125,1225.125,479.4071,316,3.0,D Horn 2,2.0,0.6,64,0.9921
1225.125,1225.125,479.4071,316,3.0,Violin 2,1.0,0.3,67,1.0
1225.125,1225.125,479.4071,316,3.0,D Trumpet 2,2.0,0.6,76,0.9921
1225.125,1225.125,479.4071,316,3.0,D Horn 1,2.0,0.6,64,0.9921
1225.125,1225.125,479.4071,316,3.0,D Trumpet 1,2.0,0.6,76,0.9921
1226.125,1226.125,479.7071,316,4.0,Violoncello,1.0,0.3,62,1.0
1226.125,1226.125,479.7071,316,4.0,Violin 2,0.5,0.15,79,1.0
1226.125,1226.125,479.7071,316,4.0,Violin 1,0.25,0.075,73,1.0
1226.125,1226.125,479.7071,316,4.0,Viola,1.0,0.3,66,1.0
1226.125,1226.125,479.7071,316,4.0,Contrabass,1.0,0.3,50,1.0
1226.375,1226.375,479.7821,316,4.25,Violin 1,0.25,0.075,71,1.0
1226.625,1226.625,479.8571,316,4.5,Violin 1,0.25,0.075,73,1.0
1226.625,1226.625,479.8571,316,4.5,Violin 2,0.5,0.15,78,1.0
1226.875,1226.875,479.9321,316,4.75,Violin 1,0.25,0.075,74,1.0
1227.125,1227.125,480.0071,317,1.0,Violoncello,1.0,0.3,61,1.0
1227.125,1227.125,480.0071,317,1.0,Violin 1,3.0,0.9,76,1.0
1227.125,1227.125,480.0071,317,1.0,Bassoon 2,3.0,0.9,64,1.0
1227.125,1227.125,480.0071,317,1.0,D Trumpet 1,3.0,0.9,76,0.9921
1227.125,1227.125,480.0071,317,1.0,Violin 2,1.0,0.3,76,1.0
1227.125,1227.125,480.0071,317,1.0,Oboe 1,3.0,0.9,76,1.0
1227.125,1227.125,480.0071,317,1.0,D Horn 1,3.0,0.9,64,0.9921
1227.125,1227.125,480.0071,317,1.0,Viola,1.0,0.3,64,1.0
1227.125,1227.125,480.0071,317,1.0,D Horn 2,3.0,0.9,64,0.9921
1227.125,1227.125,480.0071,317,1.0,Contrabass,1.0,0.3,49,1.0
1227.125,1227.125,480.0071,317,1.0,Timpani,1.0,0.3,45,0.9921
1227.125,1227.125,480.0071,317,1.0,D Trumpet 2,3.0,0.9,76,0.9921
1227.125,1227.125,480.0071,317,1.0,Flute 1,3.0,0.9,88,1.0
1227.125,1227.125,480.0071,317,1.0,Bassoon 1,3.0,0.9,64,1.0
1228.125,1228.125,480.3071,317,2.0,Viola,1.0,0.3,62,1.0
1228.125,1228.125,480.3071,317,2.0,Contrabass,1.0,0.3,47,1.0
1228.125,1228.125,480.3071,317,2.0,Violin 2,1.0,0.3,74,1.0
1228.125,1228.125,480.3071,317,2.0,Violoncello,1.0,0.3,59,1.0
1229.125,1229.125,480.6071,317,3.0,Violin 2,1.0,0.3,73,1.0
1229.125,1229.125,480.6071,317,3.0,Timpani,1.0,0.3,45,0.9921
1229.125,1229.125,480.6071,317,3.0,Contrabass,1.0,0.3,45,1.0
1229.125,1229.125,480.6071,317,3.0,Viola,1.0,0.3,61,1.0
1229.125,1229.125,480.6071,317,3.0,Violoncello,1.0,0.3,57,1.0
1230.125,1230.125,480.9071,317,4.0,D Horn 1,1.0,0.3,67,0.9921
1230.125,1230.125,480.9071,317,4.0,Bassoon 2,1.0,0.3,65,1.0
1230.125,1230.125,480.9071,317,4.0,Viola,1.0,0.3,59,1.0
1230.125,1230.125,480.9071,317,4.0,Violin 1,1.0,0.3,77,1.0
1230.125,1230.125,480.9071,317,4.0,Bassoon 1,1.0,0.3,65,1.0
1230.125,1230.125,480.9071,317,4.0,Violoncello,1.0,0.3,55,1.0
1230.125,1230.125,480.9071,317,4.0,D Trumpet 2,1.0,0.3,57,0.9921
1230.125,1230.125,480.9071,317,4.0,D Trumpet 1,1.0,0.3,69,0.9921
1230.125,1230.125,480.9071,317,4.0,Oboe 1,1.0,0.3,77,1.0
1230.125,1230.125,480.9071,317,4.0,Contrabass,1.0,0.3,43,1.0
1230.125,1230.125,480.9071,317,4.0,Flute 1,1.0,0.3,89,1.0
1230.125,1230.125,480.9071,317,4.0,Violin 2,1.0,0.3,71,1.0
1230.125,1230.125,480.9071,317,4.0,D Horn 2,1.0,0.3,67,0.9921
1231.125,1231.125,481.2071,318,1.0,D Trumpet 1,1.0,0.3,74,0.9921
1231.125,1231.125,481.2071,318,1.0,Violoncello,0.5,0.15,54,1.0
1231.125,1231.125,481.2071,318,1.0,Violin 1,1.0,0.3,78,1.0
1231.125,1231.125,481.2071,318,1.0,Bassoon 2,1.0,0.3,66,1.0
1231.125,1231.125,481.2071,318,1.0,Bassoon 1,1.0,0.3,66,1.0
1231.125,1231.125,481.2071,318,1.0,D Trumpet 2,1.0,0.3,62,0.9921
1231.125,1231.125,481.2071,318,1.0,Oboe 1,1.0,0.3,78,1.0
1231.125,1231.125,481.2071,318,1.0,Contrabass,0.5,0.15,42,1.0
1231.125,1231.125,481.2071,318,1.0,Timpani,1.0,0.3,50,0.9921
1231.125,1231.125,481.2071,318,1.0,D Horn 2,1.0,0.3,62,0.9921
1231.125,1231.125,481.2071,318,1.0,D Horn 1,1.0,0.3,66,0.9921
1231.125,1231.125,481.2071,318,1.0,Viola,0.5,0.15,57,1.0
1231.125,1231.125,481.2071,318,1.0,Flute 1,1.0,0.3,90,1.0
1231.125,1231.125,481.2071,318,1.0,Violin 2,1.0,0.3,69,1.0
1231.625,1231.625,481.3571,318,1.5,Viola,1.0,0.3,69,1.0
1231.625,1231.625,481.3571,318,1.5,Contrabass,1.0,0.3,54,1.0
1231.625,1231.625,481.3571,318,1.5,Violoncello,1.0,0.3,66,1.0
1232.125,1232.125,481.5071,318,2.0,Oboe 1,0.5,0.15,81,1.0
1232.125,1232.125,481.5071,318,2.0,D Trumpet 1,2.0,0.6,74,1.0
1232.125,1232.125,481.5071,318,2.0,A Clarinet 2,0.5,0.15,69,0.5961
1232.125,1232.125,481.5071,318,2.0,D Horn 1,2.0,0.6,62,1.0
1232.125,1232.125,481.5071,318,2.0,A Clarinet 1,0.5,0.15,69,0.5961
1232.125,1232.125,481.5071,318,2.0,D Trumpet 2,2.0,0.6,62,1.0
1232.125,1232.125,481.5071,318,2.0,D Horn 2,2.0,0.6,50,1.0
1232.125,1232.125,481.5071,318,2.0,Violin 2,0.25,0.075,62,1.0
1232.125,1232.125,481.5071,318,2.0,Violin 1,0.25,0.075,74,1.0
1232.375,1232.375,481.5821,318,2.25,Violin 2,0.25,0.075,61,1.0
1232.375,1232.375,481.5821,318,2.25,Violin 1,0.25,0.075,73,1.0
1232.625,1232.625,481.6571,318,2.5,Violin 1,0.25,0.075,74,1.0
1232.625,1232.625,481.6571,318,2.5,Violin 2,0.25,0.075,62,1.0
1232.625,1232.625,481.6571,318,2.5,Violoncello,0.5,0.15,64,1.0
1232.625,1232.625,481.6571,318,2.5,A Clarinet 1,0.5,0.15,67,0.4961
1232.625,1232.625,481.6571,318,2.5,Contrabass,0.5,0.15,52,1.0
1232.625,1232.625,481.6571,318,2.5,A Clarinet 2,0.5,0.15,67,0.4961
1232.625,1232.625,481.6571,318,2.5,Viola,0.5,0.15,67,1.0
1232.625,1232.625,481.6571,318,2.5,Oboe 1,0.5,0.15,79,1.0
1232.875,1232.875,481.7321,318,2.75,Violin 1,0.25,0.075,76,1.0
1232.875,1232.875,481.7321,318,2.75,Violin 2,0.25,0.075,64,1.0
1233.125,1233.125,481.8071,318,3.0,Violin 1,1.0,0.3,78,1.0
1233.125,1233.125,481.8071,318,3.0,Violoncello,0.5,0.15,62,1.0
1233.125,1233.125,481.8071,318,3.0,Violin 2,1.0,0.3,66,1.0
1233.125,1233.125,481.8071,318,3.0,A Clarinet 1,0.5,0.15,66,0.4961
1233.125,1233.125,481.8071,318,3.0,A Clarinet 2,0.5,0.15,66,0.4961
1233.125,1233.125,481.8071,318,3.0,Oboe 1,0.5,0.15,78,1.0
1233.125,1233.125,481.8071,318,3.0,Viola,0.5,0.15,66,1.0
1233.125,1233.125,481.8071,318,3.0,Contrabass,0.5,0.15,50,1.0
1233.625,1233.625,481.9571,318,3.5,Oboe 1,0.5,0.15,76,1.0
1233.625,1233.625,481.9571,318,3.5,Viola,0.5,0.15,64,1.0
1233.625,1233.625,481.9571,318,3.5,A Clarinet 1,0.5,0.15,64,0.4961
1233.625,1233.625,481.9571,318,3.5,Violoncello,0.5,0.15,60,1.0
1233.625,1233.625,481.9571,318,3.5,A Clarinet 2,0.5,0.15,64,0.4961
1233.625,1233.625,481.9571,318,3.5,Contrabass,0.5,0.15,48,1.0
1234.125,1234.125,482.1071,318,4.0,Oboe 1,0.5,0.15,74,1.0
1234.125,1234.125,482.1071,318,4.0,A Clarinet 1,0.5,0.15,62,0.4961
1234.125,1234.125,482.1071,318,4.0,D Horn 2,1.0,0.3,50,1.0
1234.125,1234.125,482.1071,318,4.0,D Trumpet 2,1.0,0.3,62,1.0
1234.125,1234.125,482.1071,318,4.0,Violin 1,0.25,0.075,79,1.0
1234.125,1234.125,482.1071,318,4.0,Violoncello,0.5,0.15,59,1.0
1234.125,1234.125,482.1071,318,4.0,D Horn 1,1.0,0.3,62,1.0
1234.125,1234.125,482.1071,318,4.0,A Clarinet 2,0.5,0.15,62,0.4961
1234.125,1234.125,482.1071,318,4.0,D Trumpet 1,1.0,0.3,74,1.0
1234.125,1234.125,482.1071,318,4.0,Contrabass,0.5,0.15,47,1.0
1234.125,1234.125,482.1071,318,4.0,Violin 2,0.25,0.075,67,1.0
1234.125,1234.125,482.1071,318,4.0,Viola,0.5,0.15,62,1.0
1234.375,1234.375,482.1821,318,4.25,Violin 2,0.25,0.075,66,1.0
1234.375,1234.375,482.1821,318,4.25,Violin 1,0.25,0.075,78,1.0
1234.625,1234.625,482.2571,318,4.5,Violin 1,0.25,0.075,79,1.0
1234.625,1234.625,482.2571,318,4.5,A Clarinet 2,0.5,0.15,60,0.4961
1234.625,1234.625,482.2571,318,4.5,Violin 2,0.25,0.075,67,1.0
1234.625,1234.625,482.2571,318,4.5,A Clarinet 1,0.5,0.15,60,0.4961
1234.625,1234.625,482.2571,318,4.5,Oboe 1,0.5,0.15,72,1.0
1234.625,1234.625,482.2571,318,4.5,Violoncello,0.5,0.15,57,1.0
1234.625,1234.625,482.2571,318,4.5,Contrabass,0.5,0.15,45,1.0
1234.625,1234.625,482.2571,318,4.5,Viola,0.5,0.15,60,1.0
1234.875,1234.875,482.3321,318,4.75,Violin 2,0.25,0.075,69,1.0
1234.875,1234.875,482.3321,318,4.75,Violin 1,0.25,0.075,81,1.0
1235.125,1235.125,482.4071,319,1.0,Violin 1,1.0,0.3,83,1.0
1235.125,1235.125,482.4071,319,1.0,Oboe 1,1.0,0.3,71,1.0
1235.125,1235.125,482.4071,319,1.0,A Clarinet 1,1.0,0.3,59,0.4961
1235.125,1235.125,482.4071,319,1.0,Viola,0.5,0.15,59,1.0
1235.125,1235.125,482.4071,319,1.0,A Clarinet 2,1.0,0.3,59,0.4961
1235.125,1235.125,482.4071,319,1.0,D Horn 2,1.0,0.3,50,1.0
1235.125,1235.125,482.4071,319,1.0,Violin 2,1.0,0.3,71,1.0
1235.125,1235.125,482.4071,319,1.0,D Horn 1,1.0,0.3,62,1.0
1235.125,1235.125,482.4071,319,1.0,D Trumpet 2,1.0,0.3,62,1.0
1235.125,1235.125,482.4071,319,1.0,Contrabass,0.5,0.15,43,1.0
1235.125,1235.125,482.4071,319,1.0,D Trumpet 1,1.0,0.3,74,1.0
1235.125,1235.125,482.4071,319,1.0,Violoncello,0.5,0.15,55,1.0
1235.625,1235.625,482.5571,319,1.5,Contrabass,1.0,0.3,55,1.0
1235.625,1235.625,482.5571,319,1.5,Viola,1.0,0.3,71,1.0
1235.625,1235.625,482.5571,319,1.5,Violoncello,1.0,0.3,67,1.0
1236.125,1236.125,482.7071,319,2.0,A Clarinet 1,0.5,0.15,71,0.5961
1236.125,1236.125,482.7071,319,2.0,Violin 1,0.25,0.075,79,1.0
1236.125,1236.125,482.7071,319,2.0,Violin 2,0.25,0.075,67,1.0
1236.125,1236.125,482.7071,319,2.0,D Horn 2,2.0,0.6,67,1.0
1236.125,1236.125,482.7071,319,2.0,Oboe 1,0.5,0.15,83,1.0
1236.125,1236.125,482.7071,319,2.0,A Clarinet 2,0.5,0.15,71,0.5961
1236.125,1236.125,482.7071,319,2.0,D Horn 1,2.0,0.6,67,1.0
1236.375,1236.375,482.7821,319,2.25,Violin 1,0.25,0.075,78,1.0
1236.375,1236.375,482.7821,319,2.25,Violin 2,0.25,0.075,66,1.0
1236.625,1236.625,482.8571,319,2.5,Violoncello,0.5,0.15,66,1.0
1236.625,1236.625,482.8571,319,2.5,Violin 1,0.25,0.075,79,1.0
1236.625,1236.625,482.8571,319,2.5,Violin 2,0.25,0.075,67,1.0
1236.625,1236.625,482.8571,319,2.5,A Clarinet 1,0.5,0.15,69,0.4961
1236.625,1236.625,482.8571,319,2.5,Oboe 1,0.5,0.15,81,1.0
1236.625,1236.625,482.8571,319,2.5,Contrabass,0.5,0.15,54,1.0
1236.625,1236.625,482.8571,319,2.5,Viola,0.5,0.15,69,1.0
1236.625,1236.625,482.8571,319,2.5,A Clarinet 2,0.5,0.15,69,0.4961
1236.875,1236.875,482.9321,319,2.75,Violin 1,0.25,0.075,81,1.0
1236.875,1236.875,482.9321,319,2.75,Violin 2,0.25,0.075,69,1.0
1237.125,1237.125,483.0071,319,3.0,Viola,0.5,0.15,67,1.0
1237.125,1237.125,483.0071,319,3.0,Violin 2,1.0,0.3,71,1.0
1237.125,1237.125,483.0071,319,3.0,A Clarinet 1,0.5,0.15,67,0.4961
1237.125,1237.125,483.0071,319,3.0,A Clarinet 2,0.5,0.15,67,0.4961
1237.125,1237.125,483.0071,319,3.0,Contrabass,0.5,0.15,52,1.0
1237.125,1237.125,483.0071,319,3.0,Oboe 1,0.5,0.15,79,1.0
1237.125,1237.125,483.0071,319,3.0,Violin 1,1.0,0.3,83,1.0
1237.125,1237.125,483.0071,319,3.0,Violoncello,0.5,0.15,64,1.0
1237.625,1237.625,483.1571,319,3.5,A Clarinet 1,0.5,0.15,66,0.4961
1237.625,1237.625,483.1571,319,3.5,Contrabass,0.5,0.15,50,1.0
1237.625,1237.625,483.1571,319,3.5,Violoncello,0.5,0.15,62,1.0
1237.625,1237.625,483.1571,319,3.5,A Clarinet 2,0.5,0.15,66,0.4961
1237.625,1237.625,483.1571,319,3.5,Viola,0.5,0.15,66,1.0
1237.625,1237.625,483.1571,319,3.5,Oboe 1,0.5,0.15,78,1.0
1238.125,1238.125,483.3071,319,4.0,Contrabass,0.5,0.15,49,1.0
1238.125,1238.125,483.3071,319,4.0,A Clarinet 2,0.5,0.15,64,0.4961
1238.125,1238.125,483.3071,319,4.0,Viola,0.5,0.15,64,1.0
1238.125,1238.125,483.3071,319,4.0,Violoncello,0.5,0.15,61,1.0
1238.125,1238.125,483.3071,319,4.0,D Horn 1,1.0,0.3,67,1.0
1238.125,1238.125,483.3071,319,4.0,D Horn 2,1.0,0.3,67,1.0
1238.125,1238.125,483.3071,319,4.0,Violin 1,0.25,0.075,85,1.0
1238.125,1238.125,483.3071,319,4.0,Oboe 1,0.5,0.15,76,1.0
1238.125,1238.125,483.3071,319,4.0,A Clarinet 1,0.5,0.15,64,0.4961
1238.125,1238.125,483.3071,319,4.0,Violin 2,0.25,0.075,76,1.0
1238.375,1238.375,483.3821,319,4.25,Violin 2,0.25,0.075,74,1.0
1238.375,1238.375,483.3821,319,4.25,Violin 1,0.25,0.075,83,1.0
1238.625,1238.625,483.4571,319,4.5,Violoncello,0.5,0.15,59,1.0
1238.625,1238.625,483.4571,319,4.5,A Clarinet 2,0.5,0.15,62,0.4961
1238.625,1238.625,483.4571,319,4.5,Oboe 1,0.5,0.15,74,1.0
1238.625,1238.625,483.4571,319,4.5,A Clarinet 1,0.5,0.15,62,0.4961
1238.625,1238.625,483.4571,319,4.5,Viola,0.5,0.15,62,1.0
1238.625,1238.625,483.4571,319,4.5,Contrabass,0.5,0.15,47,1.0
1238.625,1238.625,483.4571,319,4.5,Violin 1,0.25,0.075,85,1.0
1238.625,1238.625,483.4571,319,4.5,Violin 2,0.25,0.075,76,1.0
1238.875,1238.875,483.5321,319,4.75,Violin 1,0.25,0.075,86,1.0
1238.875,1238.875,483.5321,319,4.75,Violin 2,0.25,0.075,78,1.0
1239.125,1239.125,483.6071,320,1.0,D Trumpet 2,1.0,0.3,57,1.0
1239.125,1239.125,483.6071,320,1.0,Contrabass,4.0,1.2,45,1.0
1239.125,1239.125,483.6071,320,1.0,Oboe 1,1.0,0.3,73,1.0
1239.125,1239.125,483.6071,320,1.0,Viola,3.0,0.9,61,1.0
1239.125,1239.125,483.6071,320,1.0,D Horn 2,1.0,0.3,67,1.0
1239.125,1239.125,483.6071,320,1.0,Violin 1,3.0,0.9,88,1.0
1239.125,1239.125,483.6071,320,1.0,D Horn 1,1.0,0.3,67,1.0
1239.125,1239.125,483.6071,320,1.0,A Clarinet 2,1.0,0.3,61,0.4961
1239.125,1239.125,483.6071,320,1.0,A Clarinet 1,1.0,0.3,61,0.4961
1239.125,1239.125,483.6071,320,1.0,D Trumpet 1,1.0,0.3,69,1.0
1239.125,1239.125,483.6071,320,1.0,Violin 2,3.0,0.9,79,1.0
1239.125,1239.125,483.6071,320,1.0,Violoncello,4.0,1.2,57,0.4961
1239.125,1239.125,483.6071,320,1.0,Timpani,1.0,0.3,45,0.9921
1242.125,1242.125,484.5071,320,4.0,Violin 2,0.25,0.075,67,1.0
1242.125,1242.125,484.5071,320,4.0,Viola,0.25,0.075,55,1.0
1242.375,1242.375,484.5821,320,4.25,Viola,0.25,0.075,54,1.0
1242.375,1242.375,484.5821,320,4.25,Violin 2,0.25,0.075,66,1.0
1242.625,1242.625,484.6571,320,4.5,Violin 2,0.25,0.075,67,1.0
1242.625,1242.625,484.6571,320,4.5,Viola,0.25,0.075,55,1.0
1242.875,1242.875,484.7321,320,4.75,Violin 2,0.25,0.075,69,1.0
1242.875,1242.875,484.7321,320,4.75,Viola,0.25,0.075,57,1.0
1243.125,1243.125,484.8071,321,1.0,Violin 2,1.0,0.3,70,1.0
1243.125,1243.125,484.8071,321,1.0,Contrabass,4.0,1.2,45,1.0
1243.125,1243.125,484.8071,321,1.0,Violoncello,4.0,1.2,57,0.4961
1243.125,1243.125,484.8071,321,1.0,Viola,1.0,0.3,58,1.0
1244.125,1244.125,485.1071,321,2.0,Violin 2,1.0,0.3,70,1.0
1244.125,1244.125,485.1071,321,2.0,Viola,1.0,0.3,58,1.0
1245.125,1245.125,485.4071,321,3.0,Viola,1.0,0.3,55,1.0
1245.125,1245.125,485.4071,321,3.0,Violin 2,1.0,0.3,67,1.0
1246.125,1246.125,485.7071,321,4.0,Viola,1.0,0.3,55,1.0
1246.125,1246.125,485.7071,321,4.0,Violin 2,1.0,0.3,67,1.0
1247.125,1247.125,486.0071,322,1.0,Oboe 2,4.0,1.2,73,1.0
1247.125,1247.125,486.0071,322,1.0,Bassoon 1,4.0,1.2,67,1.0
1247.125,1247.125,486.0071,322,1.0,D Trumpet 2,4.0,1.2,69,1.0
1247.125,1247.125,486.0071,322,1.0,Violoncello,0.5,0.15,45,1.0
1247.125,1247.125,486.0071,322,1.0,Flute 1,4.0,1.2,85,1.0
1247.125,1247.125,486.0071,322,1.0,Violin 2,3.0,0.9,69,1.0
1247.125,1247.125,486.0071,322,1.0,Bassoon 2,4.0,1.2,61,1.0
1247.125,1247.125,486.0071,322,1.0,A Clarinet 2,4.0,1.2,64,1.0
1247.125,1247.125,486.0071,322,1.0,Timpani,2.0,0.6,45,1.0
1247.125,1247.125,486.0071,322,1.0,Oboe 1,4.0,1.2,76,1.0
1247.125,1247.125,486.0071,322,1.0,Contrabass,0.5,0.15,33,1.0
1247.125,1247.125,486.0071,322,1.0,A Clarinet 1,4.0,1.2,67,1.0
1247.125,1247.125,486.0071,322,1.0,Violin 1,2.0,0.6,85,0.7087
1247.125,1247.125,486.0071,322,1.0,Violin 1,2.0,0.6,76,0.7087
1247.125,1247.125,486.0071,322,1.0,D Trumpet 1,4.0,1.2,76,1.0
1247.125,1247.125,486.0071,322,1.0,D Horn 1,4.0,1.2,64,1.0
1247.125,1247.125,486.0071,322,1.0,Viola,3.0,0.9,57,1.0
1247.125,1247.125,486.0071,322,1.0,D Horn 2,4.0,1.2,57,1.0
1247.125,1247.125,486.0071,322,1.0,Flute 2,4.0,1.2,85,1.0
1247.625,1247.625,486.1571,322,1.5,Contrabass,0.5,0.15,45,1.0
1247.625,1247.625,486.1571,322,1.5,Violoncello,0.5,0.15,57,1.0
1248.125,1248.125,486.3071,322,2.0,Contrabass,0.5,0.15,45,1.0
1248.125,1248.125,486.3071,322,2.0,Violoncello,0.5,0.15,57,1.0
1248.625,1248.625,486.4571,322,2.5,Contrabass,0.5,0.15,45,1.0
1248.625,1248.625,486.4571,322,2.5,Violoncello,0.5,0.15,57,1.0
1249.125,1249.125,486.6071,322,3.0,Contrabass,0.5,0.15,45,1.0
1249.125,1249.125,486.6071,322,3.0,Violin 1,2.0,0.6,85,0.7087
1249.125,1249.125,486.6071,322,3.0,Violin 1,2.0,0.6,76,0.7087
1249.125,1249.125,486.6071,322,3.0,Violoncello,0.5,0.15,57,1.0
1249.125,1249.125,486.6071,322,3.0,Timpani,2.0,0.6,45,1.0
1249.625,1249.625,486.7571,322,3.5,Violoncello,0.5,0.15,57,1.0
1249.625,1249.625,486.7571,322,3.5,Contrabass,0.5,0.15,45,1.0
1250.125,1250.125,486.9071,322,4.0,Violoncello,0.5,0.15,57,1.0
1250.125,1250.125,486.9071,322,4.0,Viola,0.25,0.075,55,1.0
1250.125,1250.125,486.9071,322,4.0,Violin 2,0.25,0.075,67,1.0
1250.125,1250.125,486.9071,322,4.0,Contrabass,0.5,0.15,45,1.0
1250.375,1250.375,486.9821,322,4.25,Violin 2,0.25,0.075,66,1.0
1250.375,1250.375,486.9821,322,4.25,Viola,0.25,0.075,54,1.0
1250.625,1250.625,487.0571,322,4.5,Violin 2,0.25,0.075,67,1.0
1250.625,1250.625,487.0571,322,4.5,Viola,0.25,0.075,55,1.0
1250.625,1250.625,487.0571,322,4.5,Violoncello,0.5,0.15,57,1.0
1250.625,1250.625,487.0571,322,4.5,Contrabass,0.5,0.15,45,1.0
1250.875,1250.875,487.1321,322,4.75,Viola,0.25,0.075,57,1.0
1250.875,1250.875,487.1321,322,4.75,Violin 2,0.25,0.075,69,1.0
1251.125,1251.125,487.2071,323,1.0,Viola,1.0,0.3,58,0.5461
1251.125,1251.125,487.2071,323,1.0,Violin 2,1.0,0.3,70,0.5461
1252.125,1252.125,487.5071,323,2.0,Viola,1.0,0.3,58,0.5461
1252.125,1252.125,487.5071,323,2.0,Violin 2,1.0,0.3,70,0.5461
1253.125,1253.125,487.8071,323,3.0,Viola,1.0,0.3,55,0.5461
1253.125,1253.125,487.8071,323,3.0,Violin 2,1.0,0.3,67,0.5461
1254.125,1254.125,488.1071,323,4.0,Violin 2,1.0,0.3,67,0.5461
1254.125,1254.125,488.1071,323,4.0,Viola,1.0,0.3,55,0.5461
1255.125,1255.125,488.4071,324,1.0,Violin 2,4.0,1.2,71,1.0
1255.125,1255.125,488.4071,324,1.0,Viola,4.0,1.2,59,1.0
1255.125,1255.125,488.4071,324,1.0,Flute 1,4.0,1.2,86,1.0
1255.125,1255.125,488.4071,324,1.0,A Clarinet 2,4.0,1.2,65,1.0
1255.125,1255.125,488.4071,324,1.0,Contrabass,0.5,0.15,32,1.0
1255.125,1255.125,488.4071,324,1.0,Bassoon 1,4.0,1.2,65,1.0
1255.125,1255.125,488.4071,324,1.0,A Clarinet 1,4.0,1.2,74,1.0
1255.125,1255.125,488.4071,324,1.0,Timpani,2.0,0.6,50,1.0
1255.125,1255.125,488.4071,324,1.0,D Trumpet 1,4.0,1.2,74,1.0
1255.125,1255.125,488.4071,324,1.0,Violin 1,2.0,0.6,86,0.7087
1255.125,1255.125,488.4071,324,1.0,Violin 1,2.0,0.6,77,0.7087
1255.125,1255.125,488.4071,324,1.0,D Trumpet 2,4.0,1.2,62,1.0
1255.125,1255.125,488.4071,324,1.0,Flute 2,4.0,1.2,86,1.0
1255.125,1255.125,488.4071,324,1.0,Oboe 2,4.0,1.2,74,1.0
1255.125,1255.125,488.4071,324,1.0,Bassoon 2,4.0,1.2,62,1.0
1255.125,1255.125,488.4071,324,1.0,Violoncello,0.5,0.15,44,1.0
1255.125,1255.125,488.4071,324,1.0,Oboe 1,4.0,1.2,77,1.0
1255.625,1255.625,488.5571,324,1.5,Violoncello,0.5,0.15,56,1.0
1255.625,1255.625,488.5571,324,1.5,Contrabass,0.5,0.15,44,1.0
1256.125,1256.125,488.7071,324,2.0,Violoncello,0.5,0.15,56,1.0
1256.125,1256.125,488.7071,324,2.0,Contrabass,0.5,0.15,44,1.0
1256.625,1256.625,488.8571,324,2.5,Violoncello,0.5,0.15,56,1.0
1256.625,1256.625,488.8571,324,2.5,Contrabass,0.5,0.15,44,1.0
1257.125,1257.125,489.0071,324,3.0,Contrabass,0.5,0.15,44,1.0
1257.125,1257.125,489.0071,324,3.0,Violin 1,2.0,0.6,86,0.7087
1257.125,1257.125,489.0071,324,3.0,Violin 1,2.0,0.6,77,0.7087
1257.125,1257.125,489.0071,324,3.0,Violoncello,0.5,0.15,56,1.0
1257.125,1257.125,489.0071,324,3.0,Timpani,2.0,0.6,50,1.0
1257.625,1257.625,489.1571,324,3.5,Violoncello,0.5,0.15,56,1.0
1257.625,1257.625,489.1571,324,3.5,Contrabass,0.5,0.15,44,1.0
1258.125,1258.125,489.3071,324,4.0,Violoncello,0.5,0.15,56,1.0
1258.125,1258.125,489.3071,324,4.0,Contrabass,0.5,0.15,44,1.0
1258.625,1258.625,489.4571,324,4.5,Contrabass,0.5,0.15,44,1.0
1258.625,1258.625,489.4571,324,4.5,Violoncello,0.5,0.15,56,1.0
1259.125,1259.125,489.6071,325,1.0,D Trumpet 1,2.0,0.6,69,1.0
1259.125,1259.125,489.6071,325,1.0,Contrabass,0.5,0.15,33,1.0
1259.125,1259.125,489.6071,325,1.0,Violin 1,2.0,0.6,76,0.7087
1259.125,1259.125,489.6071,325,1.0,Violin 1,2.0,0.6,86,0.7087
1259.125,1259.125,489.6071,325,1.0,Timpani,2.0,0.6,50,1.0
1259.125,1259.125,489.6071,325,1.0,Violin 2,1.0,0.3,64,1.0
1259.125,1259.125,489.6071,325,1.0,A Clarinet 1,2.0,0.6,74,1.0
1259.125,1259.125,489.6071,325,1.0,Oboe 1,4.0,1.2,76,1.0
1259.125,1259.125,489.6071,325,1.0,A Clarinet 2,4.0,1.2,62,1.0
1259.125,1259.125,489.6071,325,1.0,Flute 2,2.0,0.6,86,1.0
1259.125,1259.125,489.6071,325,1.0,Oboe 2,2.0,0.6,74,1.0
1259.125,1259.125,489.6071,325,1.0,Bassoon 1,4.0,1.2,64,1.0
1259.125,1259.125,489.6071,325,1.0,Bassoon 2,2.0,0.6,62,1.0
1259.125,1259.125,489.6071,325,1.0,D Trumpet 2,2.0,0.6,57,1.0
1259.125,1259.125,489.6071,325,1.0,Flute 1,4.0,1.2,88,1.0
1259.125,1259.125,489.6071,325,1.0,Viola,1.0,0.3,52,1.0
1259.125,1259.125,489.6071,325,1.0,Violoncello,0.5,0.15,45,1.0
1259.625,1259.625,489.7571,325,1.5,Contrabass,0.5,0.15,45,1.0
1259.625,1259.625,489.7571,325,1.5,Violoncello,0.5,0.15,57,1.0
1260.125,1260.125,489.9071,325,2.0,Contrabass,0.5,0.15,45,1.0
1260.125,1260.125,489.9071,325,2.0,Viola,2.0,0.6,57,1.0
1260.125,1260.125,489.9071,325,2.0,Violin 2,2.0,0.6,69,1.0
1260.125,1260.125,489.9071,325,2.0,Violoncello,0.5,0.15,57,1.0
1260.625,1260.625,490.0571,325,2.5,Violoncello,0.5,0.15,57,1.0
1260.625,1260.625,490.0571,325,2.5,Contrabass,0.5,0.15,45,1.0
1261.125,1261.125,490.2071,325,3.0,A Clarinet 1,2.0,0.6,73,1.0
1261.125,1261.125,490.2071,325,3.0,Oboe 2,2.0,0.6,73,1.0
1261.125,1261.125,490.2071,325,3.0,Flute 2,2.0,0.6,85,1.0
1261.125,1261.125,490.2071,325,3.0,Bassoon 2,2.0,0.6,61,1.0
1261.125,1261.125,490.2071,325,3.0,Timpani,2.0,0.6,45,1.0
1261.125,1261.125,490.2071,325,3.0,Violin 1,2.0,0.6,76,0.7087
1261.125,1261.125,490.2071,325,3.0,Contrabass,0.5,0.15,33,1.0
1261.125,1261.125,490.2071,325,3.0,D Trumpet 1,2.0,0.6,69,1.0
1261.125,1261.125,490.2071,325,3.0,Violoncello,0.5,0.15,45,1.0
1261.125,1261.125,490.2071,325,3.0,Violin 1,2.0,0.6,85,0.7087
1261.125,1261.125,490.2071,325,3.0,D Trumpet 2,2.0,0.6,57,1.0
1261.625,1261.625,490.3571,325,3.5,Contrabass,0.5,0.15,45,1.0
1261.625,1261.625,490.3571,325,3.5,Violoncello,0.5,0.15,57,1.0
1262.125,1262.125,490.5071,325,4.0,Violoncello,0.5,0.15,57,1.0
1262.125,1262.125,490.5071,325,4.0,Violin 2,1.0,0.3,67,1.0
1262.125,1262.125,490.5071,325,4.0,Contrabass,0.5,0.15,45,1.0
1262.125,1262.125,490.5071,325,4.0,Viola,1.0,0.3,55,1.0
1262.625,1262.625,490.6571,325,4.5,Contrabass,0.5,0.15,45,1.0
1262.625,1262.625,490.6571,325,4.5,Violoncello,0.5,0.15,57,1.0
1263.125,1263.125,490.8071,326,1.0,Violin 2,1.0,0.3,66,1.0
1263.125,1263.125,490.8071,326,1.0,Flute 2,1.0,0.3,86,1.0
1263.125,1263.125,490.8071,326,1.0,D Horn 2,4.0,1.2,26,1.0
1263.125,1263.125,490.8071,326,1.0,Flute 1,1.0,0.3,86,1.0
1263.125,1263.125,490.8071,326,1.0,Bassoon 2,1.0,0.3,62,1.0
1263.125,1263.125,490.8071,326,1.0,D Trumpet 2,1.0,0.3,62,1.0
1263.125,1263.125,490.8071,326,1.0,A Clarinet 1,1.0,0.3,74,1.0
1263.125,1263.125,490.8071,326,1.0,Bassoon 1,1.0,0.3,62,1.0
1263.125,1263.125,490.8071,326,1.0,Oboe 2,1.0,0.3,74,1.0
1263.125,1263.125,490.8071,326,1.0,Violoncello,1.0,0.3,50,1.0
1263.125,1263.125,490.8071,326,1.0,Timpani,1.0,0.3,50,1.0
1263.125,1263.125,490.8071,326,1.0,Oboe 1,1.0,0.3,74,1.0
1263.125,1263.125,490.8071,326,1.0,D Trumpet 1,1.0,0.3,74,1.0
1263.125,1263.125,490.8071,326,1.0,A Clarinet 2,1.0,0.3,62,1.0
1263.125,1263.125,490.8071,326,1.0,Viola,1.0,0.3,54,1.0
1263.125,1263.125,490.8071,326,1.0,Violin 1,1.0,0.3,86,0.7087
1263.125,1263.125,490.8071,326,1.0,Contrabass,1.0,0.3,38,1.0
1263.125,1263.125,490.8071,326,1.0,Violin 1,1.0,0.3,74,0.7087
1263.125,1263.125,490.8071,326,1.0,D Horn 1,4.0,1.2,38,1.0
1266.125,1266.125,491.7071,326,4.0,Bassoon 1,0.25,0.075,60,0.4961
1266.125,1266.125,491.7071,326,4.0,Oboe 1,0.25,0.075,72,0.4961
1266.375,1266.375,491.7821,326,4.25,Bassoon 1,0.25,0.075,59,0.4961
1266.375,1266.375,491.7821,326,4.25,Oboe 1,0.25,0.075,71,0.4961
1266.625,1266.625,491.8571,326,4.5,Oboe 1,0.25,0.075,72,0.4961
1266.625,1266.625,491.8571,326,4.5,Bassoon 1,0.25,0.075,60,0.4961
1266.875,1266.875,491.9321,326,4.75,Oboe 1,0.25,0.075,74,0.4961
1266.875,1266.875,491.9321,326,4.75,Bassoon 1,0.25,0.075,62,0.4961
1267.125,1267.125,492.0071,327,1.0,Oboe 1,1.0,0.3,75,0.5461
1267.125,1267.125,492.0071,327,1.0,Bassoon 1,1.0,0.3,63,0.5461
1267.125,1267.125,492.0071,327,1.0,D Horn 2,4.0,1.2,26,1.0
1267.125,1267.125,492.0071,327,1.0,D Horn 1,4.0,1.2,38,1.0
1268.125,1268.125,492.3071,327,2.0,Oboe 1,1.0,0.3,75,0.5461
1268.125,1268.125,492.3071,327,2.0,Bassoon 1,1.0,0.3,63,0.5461
1269.125,1269.125,492.6071,327,3.0,Oboe 1,1.0,0.3,72,0.5461
1269.125,1269.125,492.6071,327,3.0,Bassoon 1,1.0,0.3,60,0.5461
1270.125,1270.125,492.9071,327,4.0,Bassoon 1,1.0,0.3,60,0.5461
1270.125,1270.125,492.9071,327,4.0,Oboe 1,1.0,0.3,72,0.5461
1271.125,1271.125,493.2071,328,1.0,Timpani,2.0,0.6,50,1.0
1271.125,1271.125,493.2071,328,1.0,Violoncello,0.5,0.15,50,1.0
1271.125,1271.125,493.2071,328,1.0,D Horn 1,4.0,1.2,38,1.0
1271.125,1271.125,493.2071,328,1.0,D Horn 2,4.0,1.2,26,1.0
1271.125,1271.125,493.2071,328,1.0,Violin 2,2.0,0.6,78,0.7087
1271.125,1271.125,493.2071,328,1.0,D Trumpet 2,4.0,1.2,62,1.0
1271.125,1271.125,493.2071,328,1.0,Flute 2,4.0,1.2,86,1.0
1271.125,1271.125,493.2071,328,1.0,Contrabass,0.5,0.15,38,1.0
1271.125,1271.125,493.2071,328,1.0,Violin 1,2.0,0.6,84,0.7087
1271.125,1271.125,493.2071,328,1.0,Violin 1,2.0,0.6,72,0.7087
1271.125,1271.125,493.2071,328,1.0,Violin 2,2.0,0.6,69,0.7087
1271.125,1271.125,493.2071,328,1.0,Bassoon 1,3.0,0.9,62,1.0
1271.125,1271.125,493.2071,328,1.0,D Trumpet 1,4.0,1.2,74,1.0
1271.125,1271.125,493.2071,328,1.0,Viola,0.5,0.15,62,1.0
1271.125,1271.125,493.2071,328,1.0,Oboe 1,3.0,0.9,74,0.4961
1271.125,1271.125,493.2071,328,1.0,Flute 1,4.0,1.2,86,1.0
1271.125,1271.125,493.2071,328,1.0,A Clarinet 1,4.0,1.2,72,1.0
1271.125,1271.125,493.2071,328,1.0,A Clarinet 2,4.0,1.2,69,1.0
1271.625,1271.625,493.3571,328,1.5,Viola,0.5,0.15,74,1.0
1271.625,1271.625,493.3571,328,1.5,Violoncello,0.5,0.15,62,1.0
1271.625,1271.625,493.3571,328,1.5,Contrabass,0.5,0.15,50,1.0
1272.125,1272.125,493.5071,328,2.0,Violoncello,0.5,0.15,62,1.0
1272.125,1272.125,493.5071,328,2.0,Viola,0.5,0.15,74,1.0
1272.125,1272.125,493.5071,328,2.0,Contrabass,0.5,0.15,50,1.0
1272.625,1272.625,493.6571,328,2.5,Viola,0.5,0.15,74,1.0
1272.625,1272.625,493.6571,328,2.5,Contrabass,0.5,0.15,50,1.0
1272.625,1272.625,493.6571,328,2.5,Violoncello,0.5,0.15,62,1.0
1273.125,1273.125,493.8071,328,3.0,Contrabass,0.5,0.15,38,1.0
1273.125,1273.125,493.8071,328,3.0,Violoncello,0.5,0.15,50,1.0
1273.125,1273.125,493.8071,328,3.0,Viola,0.5,0.15,62,1.0
1273.125,1273.125,493.8071,328,3.0,Violin 2,2.0,0.6,69,0.7087
1273.125,1273.125,493.8071,328,3.0,Violin 1,2.0,0.6,84,0.7087
1273.125,1273.125,493.8071,328,3.0,Violin 1,2.0,0.6,72,0.7087
1273.125,1273.125,493.8071,328,3.0,Timpani,2.0,0.6,50,1.0
1273.125,1273.125,493.8071,328,3.0,Violin 2,2.0,0.6,78,0.7087
1273.625,1273.625,493.9571,328,3.5,Viola,0.5,0.15,74,1.0
1273.625,1273.625,493.9571,328,3.5,Violoncello,0.5,0.15,62,1.0
1273.625,1273.625,493.9571,328,3.5,Contrabass,0.5,0.15,50,1.0
1274.125,1274.125,494.1071,328,4.0,Bassoon 1,0.25,0.075,60,1.0
1274.125,1274.125,494.1071,328,4.0,Violoncello,0.5,0.15,62,1.0
1274.125,1274.125,494.1071,328,4.0,Contrabass,0.5,0.15,50,1.0
1274.125,1274.125,494.1071,328,4.0,Viola,0.5,0.15,74,1.0
1274.125,1274.125,494.1071,328,4.0,Oboe 1,0.25,0.075,72,0.4961
1274.375,1274.375,494.1821,328,4.25,Oboe 1,0.25,0.075,71,0.4961
1274.375,1274.375,494.1821,328,4.25,Bassoon 1,0.25,0.075,59,1.0
1274.625,1274.625,494.2571,328,4.5,Viola,0.5,0.15,74,1.0
1274.625,1274.625,494.2571,328,4.5,Contrabass,0.5,0.15,50,1.0
1274.625,1274.625,494.2571,328,4.5,Oboe 1,0.25,0.075,72,0.4961
1274.625,1274.625,494.2571,328,4.5,Violoncello,0.5,0.15,62,1.0
1274.625,1274.625,494.2571,328,4.5,Bassoon 1,0.25,0.075,60,1.0
1274.875,1274.875,494.3321,328,4.75,Oboe 1,0.25,0.075,74,0.4961
1274.875,1274.875,494.3321,328,4.75,Bassoon 1,0.25,0.075,62,1.0
1275.125,1275.125,494.4071,329,1.0,D Horn 2,4.0,1.2,26,0.4961
1275.125,1275.125,494.4071,329,1.0,Bassoon 1,1.0,0.3,63,0.5461
1275.125,1275.125,494.4071,329,1.0,Oboe 1,1.0,0.3,75,0.5461
1275.125,1275.125,494.4071,329,1.0,D Horn 1,4.0,1.2,38,0.4961
1276.125,1276.125,494.7071,329,2.0,Oboe 1,1.0,0.3,75,0.5461
1276.125,1276.125,494.7071,329,2.0,Bassoon 1,1.0,0.3,63,0.5461
1277.125,1277.125,495.0071,329,3.0,Oboe 1,1.0,0.3,72,0.5461
1277.125,1277.125,495.0071,329,3.0,Bassoon 1,1.0,0.3,60,0.5461
1278.125,1278.125,495.3071,329,4.0,Bassoon 1,1.0,0.3,60,0.5461
1278.125,1278.125,495.3071,329,4.0,Oboe 1,1.0,0.3,72,0.5461
1279.125,1279.125,495.6071,330,1.0,Contrabass,4.0,1.2,38,1.0
1279.125,1279.125,495.6071,330,1.0,D Horn 1,1.0,0.3,38,0.4961
1279.125,1279.125,495.6071,330,1.0,Bassoon 1,1.0,0.3,62,0.4961
1279.125,1279.125,495.6071,330,1.0,Viola,0.25,0.075,57,1.0
1279.125,1279.125,495.6071,330,1.0,Oboe 1,1.0,0.3,74,0.4961
1279.125,1279.125,495.6071,330,1.0,Violoncello,4.0,1.2,50,1.0
1279.125,1279.125,495.6071,330,1.0,Violin 1,2.0,0.6,84,1.0
1279.125,1279.125,495.6071,330,1.0,Timpani,1.0,0.3,50,1.0
1279.125,1279.125,495.6071,330,1.0,Violin 2,2.0,0.6,78,1.0
1279.125,1279.125,495.6071,330,1.0,D Horn 2,1.0,0.3,26,0.4961
1279.375,1279.375,495.6821,330,1.25,Viola,0.25,0.075,69,1.0
1279.625,1279.625,495.7571,330,1.5,Viola,0.25,0.075,69,1.0
1279.875,1279.875,495.8321,330,1.75,Viola,0.25,0.075,69,1.0
1280.125,1280.125,495.9071,330,2.0,Viola,3.0,0.9,69,1.0
1281.125,1281.125,496.2071,330,3.0,Oboe 2,2.0,0.6,72,1.0
1281.125,1281.125,496.2071,330,3.0,A Clarinet 2,2.0,0.6,69,1.0
1281.125,1281.125,496.2071,330,3.0,Flute 2,2.0,0.6,84,1.0
1281.125,1281.125,496.2071,330,3.0,D Horn 2,2.0,0.6,57,1.0
1281.125,1281.125,496.2071,330,3.0,Bassoon 2,2.0,0.6,50,1.0
1281.125,1281.125,496.2071,330,3.0,Violin 1,2.0,0.6,84,1.0
1281.125,1281.125,496.2071,330,3.0,Bassoon 1,2.0,0.6,62,1.0
1281.125,1281.125,496.2071,330,3.0,Violin 2,2.0,0.6,78,1.0
1281.125,1281.125,496.2071,330,3.0,D Trumpet 2,2.0,0.6,62,1.0
1281.125,1281.125,496.2071,330,3.0,A Clarinet 1,2.0,0.6,72,1.0
1281.125,1281.125,496.2071,330,3.0,D Horn 1,2.0,0.6,69,1.0
1281.125,1281.125,496.2071,330,3.0,Oboe 1,2.0,0.6,81,1.0
1281.125,1281.125,496.2071,330,3.0,Flute 1,2.0,0.6,84,1.0
1281.125,1281.125,496.2071,330,3.0,D Trumpet 1,2.0,0.6,74,1.0
1283.125,1283.125,496.8071,331,1.0,Contrabass,4.0,1.2,39,1.0
1283.125,1283.125,496.8071,331,1.0,Violin 1,2.0,0.6,84,1.0
1283.125,1283.125,496.8071,331,1.0,Timpani,1.0,0.3,45,1.0
1283.125,1283.125,496.8071,331,1.0,Viola,2.0,0.6,69,1.0
1283.125,1283.125,496.8071,331,1.0,Violoncello,4.0,1.2,51,1.0
1283.125,1283.125,496.8071,331,1.0,Violin 2,2.0,0.6,78,1.0
1285.125,1285.125,497.4071,331,3.0,Bassoon 2,2.0,0.6,51,1.0
1285.125,1285.125,497.4071,331,3.0,Flute 1,2.0,0.6,84,1.0
1285.125,1285.125,497.4071,331,3.0,D Trumpet 2,2.0,0.6,57,1.0
1285.125,1285.125,497.4071,331,3.0,D Horn 2,2.0,0.6,57,1.0
1285.125,1285.125,497.4071,331,3.0,A Clarinet 1,2.0,0.6,72,1.0
1285.125,1285.125,497.4071,331,3.0,Oboe 2,2.0,0.6,73,1.0
1285.125,1285.125,497.4071,331,3.0,Viola,2.0,0.6,69,1.0
1285.125,1285.125,497.4071,331,3.0,A Clarinet 2,2.0,0.6,69,1.0
1285.125,1285.125,497.4071,331,3.0,D Horn 1,2.0,0.6,69,1.0
1285.125,1285.125,497.4071,331,3.0,Bassoon 1,2.0,0.6,63,1.0
1285.125,1285.125,497.4071,331,3.0,Violin 1,2.0,0.6,84,1.0
1285.125,1285.125,497.4071,331,3.0,Flute 2,2.0,0.6,84,1.0
1285.125,1285.125,497.4071,331,3.0,Oboe 1,2.0,0.6,81,1.0
1285.125,1285.125,497.4071,331,3.0,Violin 2,2.0,0.6,78,1.0
1285.125,1285.125,497.4071,331,3.0,D Trumpet 1,2.0,0.6,69,1.0
1287.125,1287.125,498.0071,332,1.0,Flute 1,2.0,0.6,84,1.0
1287.125,1287.125,498.0071,332,1.0,Timpani,1.0,0.3,45,1.0
1287.125,1287.125,498.0071,332,1.0,D Trumpet 2,2.0,0.6,57,1.0
1287.125,1287.125,498.0071,332,1.0,Flute 2,2.0,0.6,84,1.0
1287.125,1287.125,498.0071,332,1.0,Oboe 1,2.0,0.6,81,1.0
1287.125,1287.125,498.0071,332,1.0,D Horn 2,2.0,0.6,57,1.0
1287.125,1287.125,498.0071,332,1.0,A Clarinet 1,2.0,0.6,72,1.0
1287.125,1287.125,498.0071,332,1.0,Violin 2,2.0,0.6,78,1.0
1287.125,1287.125,498.0071,332,1.0,Oboe 2,2.0,0.6,73,1.0
1287.125,1287.125,498.0071,332,1.0,Contrabass,2.0,0.6,40,1.0
1287.125,1287.125,498.0071,332,1.0,Violoncello,2.0,0.6,52,1.0
1287.125,1287.125,498.0071,332,1.0,Viola,2.0,0.6,69,1.0
1287.125,1287.125,498.0071,332,1.0,Violin 1,2.0,0.6,84,1.0
1287.125,1287.125,498.0071,332,1.0,Bassoon 2,2.0,0.6,52,1.0
1287.125,1287.125,498.0071,332,1.0,D Trumpet 1,2.0,0.6,69,1.0
1287.125,1287.125,498.0071,332,1.0,D Horn 1,2.0,0.6,69,1.0
1287.125,1287.125,498.0071,332,1.0,A Clarinet 2,2.0,0.6,69,1.0
1287.125,1287.125,498.0071,332,1.0,Bassoon 1,2.0,0.6,64,1.0
1289.125,1289.125,498.6071,332,3.0,Timpani,1.0,0.3,45,1.0
1289.125,1289.125,498.6071,332,3.0,Violin 2,2.0,0.6,78,1.0
1289.125,1289.125,498.6071,332,3.0,Violin 1,2.0,0.6,84,1.0
1289.125,1289.125,498.6071,332,3.0,A Clarinet 2,2.0,0.6,69,1.0
1289.125,1289.125,498.6071,332,3.0,D Trumpet 2,2.0,0.6,57,1.0
1289.125,1289.125,498.6071,332,3.0,Oboe 2,2.0,0.6,75,1.0
1289.125,1289.125,498.6071,332,3.0,Bassoon 1,2.0,0.6,65,1.0
1289.125,1289.125,498.6071,332,3.0,D Horn 2,2.0,0.6,57,1.0
1289.125,1289.125,498.6071,332,3.0,Flute 2,2.0,0.6,84,1.0
1289.125,1289.125,498.6071,332,3.0,A Clarinet 1,2.0,0.6,72,1.0
1289.125,1289.125,498.6071,332,3.0,Contrabass,2.0,0.6,41,1.0
1289.125,1289.125,498.6071,332,3.0,Oboe 1,2.0,0.6,81,1.0
1289.125,1289.125,498.6071,332,3.0,D Horn 1,2.0,0.6,69,1.0
1289.125,1289.125,498.6071,332,3.0,Violoncello,2.0,0.6,53,1.0
1289.125,1289.125,498.6071,332,3.0,Flute 1,2.0,0.6,84,1.0
1289.125,1289.125,498.6071,332,3.0,Viola,2.0,0.6,69,1.0
1289.125,1289.125,498.6071,332,3.0,D Trumpet 1,2.0,0.6,69,1.0
1289.125,1289.125,498.6071,332,3.0,Bassoon 2,2.0,0.6,53,1.0
1291.125,1291.125,499.2071,333,1.0,Flute 2,4.0,1.2,84,1.0
1291.125,1291.125,499.2071,333,1.0,Violin 1,2.0,0.6,84,1.0
1291.125,1291.125,499.2071,333,1.0,Flute 1,4.0,1.2,84,1.0
1291.125,1291.125,499.2071,333,1.0,Oboe 2,4.0,1.2,75,1.0
1291.125,1291.125,499.2071,333,1.0,Timpani,1.0,0.3,45,1.0
1291.125,1291.125,499.2071,333,1.0,Viola,2.0,0.6,69,1.0
1291.125,1291.125,499.2071,333,1.0,Oboe 1,4.0,1.2,81,1.0
1291.125,1291.125,499.2071,333,1.0,Contrabass,4.0,1.2,42,1.0
1291.125,1291.125,499.2071,333,1.0,D Trumpet 2,4.0,1.2,57,1.0
1291.125,1291.125,499.2071,333,1.0,D Horn 2,4.0,1.2,57,1.0
1291.125,1291.125,499.2071,333,1.0,A Clarinet 1,4.0,1.2,72,1.0
1291.125,1291.125,499.2071,333,1.0,Violoncello,4.0,1.2,54,1.0
1291.125,1291.125,499.2071,333,1.0,D Horn 1,4.0,1.2,69,1.0
1291.125,1291.125,499.2071,333,1.0,D Trumpet 1,4.0,1.2,69,1.0
1291.125,1291.125,499.2071,333,1.0,Bassoon 2,4.0,1.2,54,1.0
1291.125,1291.125,499.2071,333,1.0,Bassoon 1,4.0,1.2,66,1.0
1291.125,1291.125,499.2071,333,1.0,A Clarinet 2,4.0,1.2,69,1.0
1291.125,1291.125,499.2071,333,1.0,Violin 2,2.0,0.6,76,1.0
1293.125,1293.125,499.8071,333,3.0,Viola,2.0,0.6,69,1.0
1293.125,1293.125,499.8071,333,3.0,Violin 1,2.0,0.6,84,1.0
1293.125,1293.125,499.8071,333,3.0,Violin 2,2.0,0.6,75,1.0
1295.125,1295.125,500.4071,334,1.0,Viola,2.0,0.6,67,1.0
1295.125,1295.125,500.4071,334,1.0,Flute 1,2.0,0.6,87,1.0
1295.125,1295.125,500.4071,334,1.0,A Clarinet 1,2.0,0.6,72,1.0
1295.125,1295.125,500.4071,334,1.0,A Clarinet 2,2.0,0.6,60,1.0
1295.125,1295.125,500.4071,334,1.0,Violin 1,2.0,0.6,87,1.0
1295.125,1295.125,500.4071,334,1.0,Contrabass,2.0,0.6,43,1.0
1295.125,1295.125,500.4071,334,1.0,Bassoon 2,2.0,0.6,43,1.0
1295.125,1295.125,500.4071,334,1.0,Oboe 1,2.0,0.6,79,1.0
1295.125,1295.125,500.4071,334,1.0,Oboe 2,2.0,0.6,75,1.0
1295.125,1295.125,500.4071,334,1.0,D Horn 1,2.0,0.6,67,1.0
1295.125,1295.125,500.4071,334,1.0,Flute 2,2.0,0.6,84,1.0
1295.125,1295.125,500.4071,334,1.0,Bassoon 1,2.0,0.6,55,1.0
1295.125,1295.125,500.4071,334,1.0,Violin 2,2.0,0.6,72,1.0
1295.125,1295.125,500.4071,334,1.0,Violoncello,2.0,0.6,55,1.0
1295.125,1295.125,500.4071,334,1.0,D Horn 2,2.0,0.6,67,1.0
1297.125,1297.125,501.0071,334,3.0,A Clarinet 1,2.0,0.6,72,1.0
1297.125,1297.125,501.0071,334,3.0,A Clarinet 2,2.0,0.6,60,1.0
1297.125,1297.125,501.0071,334,3.0,Bassoon 2,2.0,0.6,44,1.0
1297.125,1297.125,501.0071,334,3.0,Flute 2,2.0,0.6,84,1.0
1297.125,1297.125,501.0071,334,3.0,Flute 1,2.0,0.6,87,1.0
1297.125,1297.125,501.0071,334,3.0,Violoncello,2.0,0.6,56,1.0
1297.125,1297.125,501.0071,334,3.0,Oboe 1,2.0,0.6,78,1.0
1297.125,1297.125,501.0071,334,3.0,Viola,2.0,0.6,66,1.0
1297.125,1297.125,501.0071,334,3.0,Contrabass,2.0,0.6,44,1.0
1297.125,1297.125,501.0071,334,3.0,Violin 2,2.0,0.6,72,1.0
1297.125,1297.125,501.0071,334,3.0,Violin 1,2.0,0.6,87,1.0
1297.125,1297.125,501.0071,334,3.0,Bassoon 1,2.0,0.6,56,1.0
1297.125,1297.125,501.0071,334,3.0,Oboe 2,2.0,0.6,75,1.0
1297.125,1297.125,501.0071,334,3.0,D Horn 1,2.0,0.6,66,1.0
1297.125,1297.125,501.0071,334,3.0,D Horn 2,2.0,0.6,66,1.0
1299.125,1299.125,501.6071,335,1.0,Bassoon 1,4.0,1.2,57,1.0
1299.125,1299.125,501.6071,335,1.0,Violin 2,2.0,0.6,72,1.0
1299.125,1299.125,501.6071,335,1.0,D Horn 1,4.0,1.2,66,1.0
1299.125,1299.125,501.6071,335,1.0,D Horn 2,4.0,1.2,66,1.0
1299.125,1299.125,501.6071,335,1.0,Violoncello,4.0,1.2,57,1.0
1299.125,1299.125,501.6071,335,1.0,Timpani,1.0,0.3,45,1.0
1299.125,1299.125,501.6071,335,1.0,A Clarinet 1,4.0,1.2,72,1.0
1299.125,1299.125,501.6071,335,1.0,Flute 2,4.0,1.2,84,1.0
1299.125,1299.125,501.6071,335,1.0,Flute 1,4.0,1.2,87,1.0
1299.125,1299.125,501.6071,335,1.0,Oboe 1,4.0,1.2,78,1.0
1299.125,1299.125,501.6071,335,1.0,Contrabass,4.0,1.2,45,1.0
1299.125,1299.125,501.6071,335,1.0,Violin 1,2.0,0.6,87,1.0
1299.125,1299.125,501.6071,335,1.0,Bassoon 2,4.0,1.2,45,1.0
1299.125,1299.125,501.6071,335,1.0,Oboe 2,4.0,1.2,75,1.0
1299.125,1299.125,501.6071,335,1.0,Viola,2.0,0.6,66,1.0
1299.125,1299.125,501.6071,335,1.0,A Clarinet 2,4.0,1.2,60,1.0
1301.125,1301.125,502.2071,335,3.0,Violin 2,2.0,0.6,72,1.0
1301.125,1301.125,502.2071,335,3.0,Violin 1,2.0,0.6,87,1.0
1301.125,1301.125,502.2071,335,3.0,Viola,2.0,0.6,66,1.0
1303.125,1303.125,502.8071,336,1.0,Violin 2,2.0,0.6,75,1.0
1303.125,1303.125,502.8071,336,1.0,Contrabass,2.0,0.6,46,1.0
1303.125,1303.125,502.8071,336,1.0,Oboe 1,2.0,0.6,82,1.0
1303.125,1303.125,502.8071,336,1.0,Violin 1,2.0,0.6,90,1.0
1303.125,1303.125,502.8071,336,1.0,Flute 1,2.0,0.6,90,1.0
1303.125,1303.125,502.8071,336,1.0,Viola,2.0,0.6,70,1.0
1303.125,1303.125,502.8071,336,1.0,Oboe 2,2.0,0.6,70,1.0
1303.125,1303.125,502.8071,336,1.0,Bassoon 2,2.0,0.6,46,1.0
1303.125,1303.125,502.8071,336,1.0,A Clarinet 2,2.0,0.6,66,1.0
1303.125,1303.125,502.8071,336,1.0,Violoncello,2.0,0.6,58,1.0
1303.125,1303.125,502.8071,336,1.0,Bassoon 1,2.0,0.6,58,1.0
1303.125,1303.125,502.8071,336,1.0,D Horn 1,2.0,0.6,66,1.0
1303.125,1303.125,502.8071,336,1.0,A Clarinet 1,2.0,0.6,78,1.0
1303.125,1303.125,502.8071,336,1.0,D Horn 2,2.0,0.6,66,1.0
1303.125,1303.125,502.8071,336,1.0,Flute 2,2.0,0.6,87,1.0
1305.125,1305.125,503.4071,336,3.0,A Clarinet 1,2.0,0.6,78,1.0
1305.125,1305.125,503.4071,336,3.0,Flute 2,2.0,0.6,87,1.0
1305.125,1305.125,503.4071,336,3.0,Flute 1,2.0,0.6,90,1.0
1305.125,1305.125,503.4071,336,3.0,Contrabass,2.0,0.6,47,1.0
1305.125,1305.125,503.4071,336,3.0,Viola,2.0,0.6,69,1.0
1305.125,1305.125,503.4071,336,3.0,Oboe 2,2.0,0.6,69,1.0
1305.125,1305.125,503.4071,336,3.0,Bassoon 2,2.0,0.6,47,1.0
1305.125,1305.125,503.4071,336,3.0,Violin 2,2.0,0.6,75,1.0
1305.125,1305.125,503.4071,336,3.0,Violoncello,2.0,0.6,59,1.0
1305.125,1305.125,503.4071,336,3.0,Violin 1,2.0,0.6,90,1.0
1305.125,1305.125,503.4071,336,3.0,D Horn 1,2.0,0.6,66,1.0
1305.125,1305.125,503.4071,336,3.0,Bassoon 1,2.0,0.6,59,1.0
1305.125,1305.125,503.4071,336,3.0,D Horn 2,2.0,0.6,66,1.0
1305.125,1305.125,503.4071,336,3.0,A Clarinet 2,2.0,0.6,66,1.0
1305.125,1305.125,503.4071,336,3.0,Oboe 1,2.0,0.6,81,1.0
1307.125,1307.125,504.0071,337,1.0,Bassoon 2,4.0,1.2,48,1.0
1307.125,1307.125,504.0071,337,1.0,Contrabass,4.0,1.2,48,1.0
1307.125,1307.125,504.0071,337,1.0,Oboe 2,4.0,1.2,69,1.0
1307.125,1307.125,504.0071,337,1.0,D Horn 1,4.0,1.2,66,1.0
1307.125,1307.125,504.0071,337,1.0,Flute 1,4.0,1.2,90,1.0
1307.125,1307.125,504.0071,337,1.0,Viola,2.0,0.6,69,1.0
1307.125,1307.125,504.0071,337,1.0,Oboe 1,4.0,1.2,81,1.0
1307.125,1307.125,504.0071,337,1.0,D Horn 2,4.0,1.2,66,1.0
1307.125,1307.125,504.0071,337,1.0,Violin 2,2.0,0.6,75,1.0
1307.125,1307.125,504.0071,337,1.0,A Clarinet 1,4.0,1.2,78,1.0
1307.125,1307.125,504.0071,337,1.0,Violin 1,2.0,0.6,90,1.0
1307.125,1307.125,504.0071,337,1.0,Bassoon 1,4.0,1.2,60,1.0
1307.125,1307.125,504.0071,337,1.0,Violoncello,4.0,1.2,60,1.0
1307.125,1307.125,504.0071,337,1.0,Timpani,1.0,0.3,45,1.0
1307.125,1307.125,504.0071,337,1.0,Flute 2,4.0,1.2,87,1.0
1307.125,1307.125,504.0071,337,1.0,A Clarinet 2,4.0,1.2,66,1.0
1309.125,1309.125,504.6071,337,3.0,Violin 1,2.0,0.6,90,1.0
1309.125,1309.125,504.6071,337,3.0,Viola,2.0,0.6,69,1.0
1309.125,1309.125,504.6071,337,3.0,Violin 2,2.0,0.6,75,1.0
1311.125,1311.125,505.2071,338,1.0,Viola,2.0,0.6,69,1.0
1311.125,1311.125,505.2071,338,1.0,A Clarinet 2,2.0,0.6,66,1.0
1311.125,1311.125,505.2071,338,1.0,Oboe 2,2.0,0.6,73,1.0
1311.125,1311.125,505.2071,338,1.0,Timpani,1.0,0.3,45,1.0
1311.125,1311.125,505.2071,338,1.0,Violoncello,2.0,0.6,61,1.0
1311.125,1311.125,505.2071,338,1.0,D Horn 1,2.0,0.6,69,1.0
1311.125,1311.125,505.2071,338,1.0,Bassoon 1,2.0,0.6,61,1.0
1311.125,1311.125,505.2071,338,1.0,Violin 2,2.0,0.6,73,1.0
1311.125,1311.125,505.2071,338,1.0,Flute 1,2.0,0.6,93,1.0
1311.125,1311.125,505.2071,338,1.0,A Clarinet 1,2.0,0.6,78,1.0
1311.125,1311.125,505.2071,338,1.0,D Horn 2,2.0,0.6,66,1.0
1311.125,1311.125,505.2071,338,1.0,Contrabass,2.0,0.6,49,1.0
1311.125,1311.125,505.2071,338,1.0,Bassoon 2,2.0,0.6,49,1.0
1311.125,1311.125,505.2071,338,1.0,Flute 2,2.0,0.6,90,1.0
1311.125,1311.125,505.2071,338,1.0,Oboe 1,2.0,0.6,81,1.0
1311.125,1311.125,505.2071,338,1.0,Violin 1,2.0,0.6,90,1.0
1313.125,1313.125,505.8071,338,3.0,D Horn 1,2.0,0.6,69,1.0
1313.125,1313.125,505.8071,338,3.0,Bassoon 1,2.0,0.6,62,1.0
1313.125,1313.125,505.8071,338,3.0,A Clarinet 2,2.0,0.6,66,1.0
1313.125,1313.125,505.8071,338,3.0,Flute 1,2.0,0.6,93,1.0
1313.125,1313.125,505.8071,338,3.0,Flute 2,2.0,0.6,90,1.0
1313.125,1313.125,505.8071,338,3.0,Bassoon 2,2.0,0.6,50,1.0
1313.125,1313.125,505.8071,338,3.0,A Clarinet 1,2.0,0.6,78,1.0
1313.125,1313.125,505.8071,338,3.0,Timpani,1.0,0.3,45,1.0
1313.125,1313.125,505.8071,338,3.0,Viola,2.0,0.6,69,1.0
1313.125,1313.125,505.8071,338,3.0,Violin 2,2.0,0.6,72,1.0
1313.125,1313.125,505.8071,338,3.0,Contrabass,2.0,0.6,50,1.0
1313.125,1313.125,505.8071,338,3.0,Oboe 2,2.0,0.6,72,1.0
1313.125,1313.125,505.8071,338,3.0,Violin 1,2.0,0.6,90,1.0
1313.125,1313.125,505.8071,338,3.0,D Horn 2,2.0,0.6,66,1.0
1313.125,1313.125,505.8071,338,3.0,Violoncello,2.0,0.6,62,1.0
1313.125,1313.125,505.8071,338,3.0,Oboe 1,2.0,0.6,81,1.0
1315.125,1315.125,506.4071,339,1.0,Oboe 2,4.0,1.2,71,1.0
1315.125,1315.125,506.4071,339,1.0,Viola,0.25,0.075,69,1.0
1315.125,1315.125,506.4071,339,1.0,Bassoon 2,4.0,1.2,51,1.0
1315.125,1315.125,506.4071,339,1.0,Violin 1,2.0,0.6,90,1.0
1315.125,1315.125,506.4071,339,1.0,Flute 1,4.0,1.2,93,1.0
1315.125,1315.125,506.4071,339,1.0,Violoncello,0.5,0.15,51,1.0
1315.125,1315.125,506.4071,339,1.0,D Horn 1,4.0,1.2,69,1.0
1315.125,1315.125,506.4071,339,1.0,D Trumpet 2,2.0,0.6,66,1.0
1315.125,1315.125,506.4071,339,1.0,Flute 2,4.0,1.2,90,1.0
1315.125,1315.125,506.4071,339,1.0,Bassoon 1,4.0,1.2,63,1.0
1315.125,1315.125,506.4071,339,1.0,D Horn 2,4.0,1.2,66,1.0
1315.125,1315.125,506.4071,339,1.0,Contrabass,0.5,0.15,39,1.0
1315.125,1315.125,506.4071,339,1.0,Oboe 1,4.0,1.2,81,1.0
1315.125,1315.125,506.4071,339,1.0,A Clarinet 1,4.0,1.2,78,1.0
1315.125,1315.125,506.4071,339,1.0,Violin 2,0.25,0.075,71,1.0
1315.125,1315.125,506.4071,339,1.0,A Clarinet 2,4.0,1.2,66,1.0
1315.125,1315.125,506.4071,339,1.0,D Trumpet 1,4.0,1.2,78,1.0
1315.375,1315.375,506.4821,339,1.25,Viola,0.25,0.075,71,1.0
1315.375,1315.375,506.4821,339,1.25,Violin 2,0.25,0.075,81,1.0
1315.625,1315.625,506.5571,339,1.5,Viola,0.25,0.075,71,1.0
1315.625,1315.625,506.5571,339,1.5,Violin 2,0.25,0.075,81,1.0
1315.625,1315.625,506.5571,339,1.5,Violoncello,0.5,0.15,63,1.0
1315.625,1315.625,506.5571,339,1.5,Contrabass,0.5,0.15,51,1.0
1315.875,1315.875,506.6321,339,1.75,Viola,0.25,0.075,71,1.0
1315.875,1315.875,506.6321,339,1.75,Violin 2,0.25,0.075,81,1.0
1316.125,1316.125,506.7071,339,2.0,Violoncello,0.5,0.15,63,1.0
1316.125,1316.125,506.7071,339,2.0,Contrabass,0.5,0.15,51,1.0
1316.125,1316.125,506.7071,339,2.0,Viola,3.0,0.9,71,1.0
1316.125,1316.125,506.7071,339,2.0,Violin 2,3.0,0.9,81,1.0
1316.625,1316.625,506.8571,339,2.5,Contrabass,0.5,0.15,51,1.0
1316.625,1316.625,506.8571,339,2.5,Violoncello,0.5,0.15,63,1.0
1317.125,1317.125,507.0071,339,3.0,Contrabass,0.5,0.15,35,1.0
1317.125,1317.125,507.0071,339,3.0,D Trumpet 2,2.0,0.6,78,1.0
1317.125,1317.125,507.0071,339,3.0,Violoncello,0.5,0.15,47,1.0
1317.125,1317.125,507.0071,339,3.0,Violin 1,2.0,0.6,90,1.0
1317.625,1317.625,507.1571,339,3.5,Contrabass,0.5,0.15,47,1.0
1317.625,1317.625,507.1571,339,3.5,Violoncello,0.5,0.15,59,1.0
1318.125,1318.125,507.3071,339,4.0,Contrabass,0.5,0.15,47,1.0
1318.125,1318.125,507.3071,339,4.0,Violoncello,0.5,0.15,59,1.0
1318.625,1318.625,507.4571,339,4.5,Contrabass,0.5,0.15,47,1.0
1318.625,1318.625,507.4571,339,4.5,Violoncello,0.5,0.15,59,1.0
1319.125,1319.125,507.6071,340,1.0,Contrabass,0.5,0.15,40,1.0
1319.125,1319.125,507.6071,340,1.0,Flute 1,2.0,0.6,91,1.0
1319.125,1319.125,507.6071,340,1.0,Violin 1,2.0,0.6,90,1.0
1319.125,1319.125,507.6071,340,1.0,Viola,2.0,0.6,71,1.0
1319.125,1319.125,507.6071,340,1.0,D Horn 2,2.0,0.6,66,1.0
1319.125,1319.125,507.6071,340,1.0,Oboe 1,2.0,0.6,79,1.0
1319.125,1319.125,507.6071,340,1.0,A Clarinet 1,2.0,0.6,78,1.0
1319.125,1319.125,507.6071,340,1.0,Flute 2,2.0,0.6,90,1.0
1319.125,1319.125,507.6071,340,1.0,Violin 2,2.0,0.6,79,1.0
1319.125,1319.125,507.6071,340,1.0,Oboe 2,2.0,0.6,71,1.0
1319.125,1319.125,507.6071,340,1.0,D Trumpet 1,4.0,1.2,79,1.0
1319.125,1319.125,507.6071,340,1.0,D Trumpet 2,2.0,0.6,78,1.0
1319.125,1319.125,507.6071,340,1.0,D Horn 1,4.0,1.2,67,1.0
1319.125,1319.125,507.6071,340,1.0,A Clarinet 2,2.0,0.6,71,1.0
1319.125,1319.125,507.6071,340,1.0,Bassoon 1,2.0,0.6,64,1.0
1319.125,1319.125,507.6071,340,1.0,Bassoon 2,2.0,0.6,52,1.0
1319.125,1319.125,507.6071,340,1.0,Violoncello,0.5,0.15,52,1.0
1319.625,1319.625,507.7571,340,1.5,Contrabass,0.5,0.15,52,1.0
1319.625,1319.625,507.7571,340,1.5,Violoncello,0.5,0.15,64,1.0
1320.125,1320.125,507.9071,340,2.0,Contrabass,0.5,0.15,52,1.0
1320.125,1320.125,507.9071,340,2.0,Violoncello,0.5,0.15,64,1.0
1320.625,1320.625,508.0571,340,2.5,Contrabass,0.5,0.15,52,1.0
1320.625,1320.625,508.0571,340,2.5,Violoncello,0.5,0.15,64,1.0
1321.125,1321.125,508.2071,340,3.0,Violin 2,2.0,0.6,79,1.0
1321.125,1321.125,508.2071,340,3.0,D Trumpet 2,2.0,0.6,76,1.0
1321.125,1321.125,508.2071,340,3.0,A Clarinet 1,2.0,0.6,76,1.0
1321.125,1321.125,508.2071,340,3.0,Flute 2,2.0,0.6,88,1.0
1321.125,1321.125,508.2071,340,3.0,D Horn 2,2.0,0.6,64,1.0
1321.125,1321.125,508.2071,340,3.0,Bassoon 1,2.0,0.6,61,1.0
1321.125,1321.125,508.2071,340,3.0,Oboe 1,2.0,0.6,81,1.0
1321.125,1321.125,508.2071,340,3.0,Viola,2.0,0.6,64,1.0
1321.125,1321.125,508.2071,340,3.0,A Clarinet 2,2.0,0.6,76,1.0
1321.125,1321.125,508.2071,340,3.0,Timpani,1.0,0.3,45,1.0
1321.125,1321.125,508.2071,340,3.0,Bassoon 2,2.0,0.6,49,1.0
1321.125,1321.125,508.2071,340,3.0,Flute 1,2.0,0.6,91,1.0
1321.125,1321.125,508.2071,340,3.0,Violoncello,0.5,0.15,49,1.0
1321.125,1321.125,508.2071,340,3.0,Violin 1,2.0,0.6,88,1.0
1321.125,1321.125,508.2071,340,3.0,Contrabass,0.5,0.15,37,1.0
1321.125,1321.125,508.2071,340,3.0,Oboe 2,2.0,0.6,79,1.0
1321.625,1321.625,508.3571,340,3.5,Contrabass,0.5,0.15,49,1.0
1321.625,1321.625,508.3571,340,3.5,Violoncello,0.5,0.15,61,1.0
1322.125,1322.125,508.5071,340,4.0,Contrabass,0.5,0.15,49,1.0
1322.125,1322.125,508.5071,340,4.0,Violoncello,0.5,0.15,61,1.0
1322.625,1322.625,508.6571,340,4.5,Violoncello,0.5,0.15,61,1.0
1322.625,1322.625,508.6571,340,4.5,Contrabass,0.5,0.15,49,1.0
1323.125,1323.125,508.8071,341,1.0,D Trumpet 2,2.0,0.6,76,1.0
1323.125,1323.125,508.8071,341,1.0,Bassoon 2,2.0,0.6,50,1.0
1323.125,1323.125,508.8071,341,1.0,A Clarinet 2,2.0,0.6,76,1.0
1323.125,1323.125,508.8071,341,1.0,Violoncello,0.5,0.15,50,1.0
1323.125,1323.125,508.8071,341,1.0,Bassoon 1,2.0,0.6,62,1.0
1323.125,1323.125,508.8071,341,1.0,Oboe 1,2.0,0.6,81,1.0
1323.125,1323.125,508.8071,341,1.0,D Horn 1,4.0,1.2,66,1.0
1323.125,1323.125,508.8071,341,1.0,D Trumpet 1,4.0,1.2,78,1.0
1323.125,1323.125,508.8071,341,1.0,Oboe 2,2.0,0.6,78,1.0
1323.125,1323.125,508.8071,341,1.0,Contrabass,0.5,0.15,38,1.0
1323.125,1323.125,508.8071,341,1.0,A Clarinet 1,4.0,1.2,78,1.0
1323.125,1323.125,508.8071,341,1.0,D Horn 2,2.0,0.6,64,1.0
1323.125,1323.125,508.8071,341,1.0,Viola,2.0,0.6,69,1.0
1323.125,1323.125,508.8071,341,1.0,Flute 1,2.0,0.6,90,1.0
1323.125,1323.125,508.8071,341,1.0,Flute 2,2.0,0.6,88,1.0
1323.125,1323.125,508.8071,341,1.0,Timpani,1.0,0.3,50,1.0
1323.125,1323.125,508.8071,341,1.0,Violin 2,2.0,0.6,78,1.0
1323.125,1323.125,508.8071,341,1.0,Violin 1,2.0,0.6,88,1.0
1323.625,1323.625,508.9571,341,1.5,Contrabass,0.5,0.15,50,1.0
1323.625,1323.625,508.9571,341,1.5,Violoncello,0.5,0.15,62,1.0
1324.125,1324.125,509.1071,341,2.0,Contrabass,0.5,0.15,50,1.0
1324.125,1324.125,509.1071,341,2.0,Violoncello,0.5,0.15,62,1.0
1324.625,1324.625,509.2571,341,2.5,Violoncello,0.5,0.15,62,1.0
1324.625,1324.625,509.2571,341,2.5,Contrabass,0.5,0.15,50,1.0
1325.125,1325.125,509.4071,341,3.0,Viola,2.0,0.6,71,1.0
1325.125,1325.125,509.4071,341,3.0,Flute 2,2.0,0.6,86,1.0
1325.125,1325.125,509.4071,341,3.0,Bassoon 2,2.0,0.6,47,1.0
1325.125,1325.125,509.4071,341,3.0,Violin 1,2.0,0.6,86,1.0
1325.125,1325.125,509.4071,341,3.0,Violoncello,0.5,0.15,47,1.0
1325.125,1325.125,509.4071,341,3.0,Flute 1,2.0,0.6,90,1.0
1325.125,1325.125,509.4071,341,3.0,D Horn 2,2.0,0.6,62,1.0
1325.125,1325.125,509.4071,341,3.0,Oboe 2,2.0,0.6,78,1.0
1325.125,1325.125,509.4071,341,3.0,D Trumpet 2,2.0,0.6,74,1.0
1325.125,1325.125,509.4071,341,3.0,Violin 2,2.0,0.6,78,1.0
1325.125,1325.125,509.4071,341,3.0,Contrabass,0.5,0.15,35,1.0
1325.125,1325.125,509.4071,341,3.0,A Clarinet 2,2.0,0.6,74,1.0
1325.125,1325.125,509.4071,341,3.0,Timpani,1.0,0.3,50,1.0
1325.125,1325.125,509.4071,341,3.0,Bassoon 1,2.0,0.6,59,1.0
1325.125,1325.125,509.4071,341,3.0,Oboe 1,2.0,0.6,83,1.0
1325.625,1325.625,509.5571,341,3.5,Violoncello,0.5,0.15,59,1.0
1325.625,1325.625,509.5571,341,3.5,Contrabass,0.5,0.15,47,1.0
1326.125,1326.125,509.7071,341,4.0,Contrabass,0.5,0.15,47,1.0
1326.125,1326.125,509.7071,341,4.0,Violoncello,0.5,0.15,59,1.0
1326.625,1326.625,509.8571,341,4.5,Violoncello,0.5,0.15,59,1.0
1326.625,1326.625,509.8571,341,4.5,Contrabass,0.5,0.15,47,1.0
1327.125,1327.125,510.0071,342,1.0,Violoncello,0.5,0.15,43,1.0
1327.125,1327.125,510.0071,342,1.0,Contrabass,0.5,0.15,31,1.0
1327.125,1327.125,510.0071,342,1.0,D Horn 1,4.0,1.2,64,1.0
1327.125,1327.125,510.0071,342,1.0,Flute 1,4.0,1.2,88,1.0
1327.125,1327.125,510.0071,342,1.0,A Clarinet 1,4.0,1.2,76,1.0
1327.125,1327.125,510.0071,342,1.0,Oboe 2,4.0,1.2,76,1.0
1327.125,1327.125,510.0071,342,1.0,Bassoon 2,4.0,1.2,43,1.0
1327.125,1327.125,510.0071,342,1.0,Viola,0.25,0.075,59,1.0
1327.125,1327.125,510.0071,342,1.0,Oboe 1,4.0,1.2,83,1.0
1327.125,1327.125,510.0071,342,1.0,D Trumpet 1,4.0,1.2,76,1.0
1327.125,1327.125,510.0071,342,1.0,Bassoon 1,4.0,1.2,55,1.0
1327.125,1327.125,510.0071,342,1.0,Violin 2,2.0,0.6,76,1.0
1327.125,1327.125,510.0071,342,1.0,D Trumpet 2,4.0,1.2,74,1.0
1327.125,1327.125,510.0071,342,1.0,Timpani,2.0,0.6,50,1.0
1327.125,1327.125,510.0071,342,1.0,Violin 1,2.0,0.6,86,1.0
1327.125,1327.125,510.0071,342,1.0,A Clarinet 2,4.0,1.2,74,1.0
1327.125,1327.125,510.0071,342,1.0,Flute 2,4.0,1.2,86,1.0
1327.125,1327.125,510.0071,342,1.0,D Horn 2,4.0,1.2,62,1.0
1327.375,1327.375,510.0821,342,1.25,Viola,0.25,0.075,71,1.0
1327.625,1327.625,510.1571,342,1.5,Viola,0.25,0.075,71,1.0
1327.625,1327.625,510.1571,342,1.5,Contrabass,0.5,0.15,43,1.0
1327.625,1327.625,510.1571,342,1.5,Violoncello,0.5,0.15,55,1.0
1327.875,1327.875,510.2321,342,1.75,Viola,0.25,0.075,71,1.0
1328.125,1328.125,510.3071,342,2.0,Violoncello,0.5,0.15,55,1.0
1328.125,1328.125,510.3071,342,2.0,Viola,3.0,0.9,71,1.0
1328.125,1328.125,510.3071,342,2.0,Contrabass,0.5,0.15,43,1.0
1328.625,1328.625,510.4571,342,2.5,Violoncello,0.5,0.15,55,1.0
1328.625,1328.625,510.4571,342,2.5,Contrabass,0.5,0.15,43,1.0
1329.125,1329.125,510.6071,342,3.0,Timpani,2.0,0.6,50,1.0
1329.125,1329.125,510.6071,342,3.0,Violin 1,2.0,0.6,86,1.0
1329.125,1329.125,510.6071,342,3.0,Contrabass,0.5,0.15,43,1.0
1329.125,1329.125,510.6071,342,3.0,Violin 2,2.0,0.6,76,1.0
1329.125,1329.125,510.6071,342,3.0,Violoncello,0.5,0.15,55,1.0
1329.625,1329.625,510.7571,342,3.5,Contrabass,0.5,0.15,43,1.0
1329.625,1329.625,510.7571,342,3.5,Violoncello,0.5,0.15,55,1.0
1330.125,1330.125,510.9071,342,4.0,Contrabass,0.5,0.15,43,1.0
1330.125,1330.125,510.9071,342,4.0,Violoncello,0.5,0.15,55,1.0
1330.625,1330.625,511.0571,342,4.5,Contrabass,0.5,0.15,43,1.0
1330.625,1330.625,511.0571,342,4.5,Violoncello,0.5,0.15,55,1.0
1331.125,1331.125,511.2071,343,1.0,Flute 1,4.0,1.2,88,1.0
1331.125,1331.125,511.2071,343,1.0,Flute 2,4.0,1.2,85,1.0
1331.125,1331.125,511.2071,343,1.0,Contrabass,0.5,0.15,33,1.0
1331.125,1331.125,511.2071,343,1.0,Viola,0.25,0.075,55,1.0
1331.125,1331.125,511.2071,343,1.0,Oboe 2,4.0,1.2,76,1.0
1331.125,1331.125,511.2071,343,1.0,A Clarinet 1,2.0,0.6,76,1.0
1331.125,1331.125,511.2071,343,1.0,Violoncello,0.5,0.15,45,1.0
1331.125,1331.125,511.2071,343,1.0,Violin 1,2.0,0.6,85,1.0
1331.125,1331.125,511.2071,343,1.0,Violin 2,2.0,0.6,76,1.0
1331.125,1331.125,511.2071,343,1.0,A Clarinet 2,2.0,0.6,73,1.0
1331.125,1331.125,511.2071,343,1.0,Bassoon 1,4.0,1.2,57,1.0
1331.125,1331.125,511.2071,343,1.0,Oboe 1,4.0,1.2,79,1.0
1331.125,1331.125,511.2071,343,1.0,Timpani,2.0,0.6,45,1.0
1331.125,1331.125,511.2071,343,1.0,D Trumpet 2,4.0,1.2,69,1.0
1331.125,1331.125,511.2071,343,1.0,D Trumpet 1,4.0,1.2,76,1.0
1331.125,1331.125,511.2071,343,1.0,Bassoon 2,4.0,1.2,45,1.0
1331.125,1331.125,511.2071,343,1.0,D Horn 1,4.0,1.2,64,1.0
1331.125,1331.125,511.2071,343,1.0,D Horn 2,4.0,1.2,57,1.0
1331.375,1331.375,511.2821,343,1.25,Viola,0.25,0.075,67,1.0
1331.625,1331.625,511.3571,343,1.5,Viola,0.25,0.075,67,1.0
1331.625,1331.625,511.3571,343,1.5,Violoncello,0.5,0.15,57,1.0
1331.625,1331.625,511.3571,343,1.5,Contrabass,0.5,0.15,45,1.0
1331.875,1331.875,511.4321,343,1.75,Viola,0.25,0.075,67,1.0
1332.125,1332.125,511.5071,343,2.0,Violoncello,0.5,0.15,57,1.0
1332.125,1332.125,511.5071,343,2.0,Contrabass,0.5,0.15,45,1.0
1332.125,1332.125,511.5071,343,2.0,Viola,1.0,0.3,67,1.0
1332.625,1332.625,511.6571,343,2.5,Violoncello,0.5,0.15,57,1.0
1332.625,1332.625,511.6571,343,2.5,Contrabass,0.5,0.15,45,1.0
1333.125,1333.125,511.8071,343,3.0,A Clarinet 2,2.0,0.6,67,1.0
1333.125,1333.125,511.8071,343,3.0,Violoncello,0.5,0.15,45,1.0
1333.125,1333.125,511.8071,343,3.0,Timpani,2.0,0.6,45,1.0
1333.125,1333.125,511.8071,343,3.0,A Clarinet 1,2.0,0.6,73,1.0
1333.125,1333.125,511.8071,343,3.0,Viola,0.25,0.075,55,1.0
1333.125,1333.125,511.8071,343,3.0,Violin 1,2.0,0.6,85,1.0
1333.125,1333.125,511.8071,343,3.0,Violin 2,2.0,0.6,76,1.0
1333.125,1333.125,511.8071,343,3.0,Contrabass,0.5,0.15,33,1.0
1333.375,1333.375,511.8821,343,3.25,Viola,0.25,0.075,67,1.0
1333.625,1333.625,511.9571,343,3.5,Violoncello,0.5,0.15,57,1.0
1333.625,1333.625,511.9571,343,3.5,Viola,0.25,0.075,67,1.0
1333.625,1333.625,511.9571,343,3.5,Contrabass,0.5,0.15,45,1.0
1333.875,1333.875,512.0321,343,3.75,Viola,0.25,0.075,67,1.0
1334.125,1334.125,512.1071,343,4.0,Contrabass,0.5,0.15,45,1.0
1334.125,1334.125,512.1071,343,4.0,Violoncello,0.5,0.15,57,1.0
1334.125,1334.125,512.1071,343,4.0,Viola,1.0,0.3,67,1.0
1334.625,1334.625,512.2571,343,4.5,Contrabass,0.5,0.15,45,1.0
1334.625,1334.625,512.2571,343,4.5,Violoncello,0.5,0.15,57,1.0
1335.125,1335.125,512.4071,344,1.0,Bassoon 2,1.0,0.3,50,1.0
1335.125,1335.125,512.4071,344,1.0,Oboe 2,1.0,0.3,74,1.0
1335.125,1335.125,512.4071,344,1.0,Violin 2,3.0,0.9,62,1.0
1335.125,1335.125,512.4071,344,1.0,Violin 1,3.0,0.9,62,1.0
1335.125,1335.125,512.4071,344,1.0,D Horn 1,1.0,0.3,62,1.0
1335.125,1335.125,512.4071,344,1.0,D Horn 2,1.0,0.3,50,1.0
1335.125,1335.125,512.4071,344,1.0,D Trumpet 1,1.0,0.3,74,1.0
1335.125,1335.125,512.4071,344,1.0,D Trumpet 2,1.0,0.3,62,1.0
1335.125,1335.125,512.4071,344,1.0,Viola,0.5,0.15,62,1.0
1335.125,1335.125,512.4071,344,1.0,Oboe 1,1.0,0.3,78,1.0
1335.125,1335.125,512.4071,344,1.0,Timpani,1.0,0.3,50,1.0
1335.125,1335.125,512.4071,344,1.0,Flute 1,1.0,0.3,86,1.0
1335.125,1335.125,512.4071,344,1.0,Flute 2,1.0,0.3,86,1.0
1335.125,1335.125,512.4071,344,1.0,Bassoon 1,1.0,0.3,50,1.0
1335.125,1335.125,512.4071,344,1.0,A Clarinet 2,1.0,0.3,66,1.0
1335.125,1335.125,512.4071,344,1.0,A Clarinet 1,1.0,0.3,74,1.0
1335.125,1335.125,512.4071,344,1.0,Violoncello,0.5,0.15,50,1.0
1335.125,1335.125,512.4071,344,1.0,Contrabass,0.5,0.15,38,1.0
1335.625,1335.625,512.5571,344,1.5,Viola,0.5,0.15,74,1.0
1335.625,1335.625,512.5571,344,1.5,Contrabass,0.5,0.15,50,1.0
1335.625,1335.625,512.5571,344,1.5,Violoncello,0.5,0.15,62,1.0
1336.125,1336.125,512.7071,344,2.0,Contrabass,0.5,0.15,49,1.0
1336.125,1336.125,512.7071,344,2.0,Violoncello,0.5,0.15,61,1.0
1336.125,1336.125,512.7071,344,2.0,Viola,0.5,0.15,73,1.0
1336.625,1336.625,512.8571,344,2.5,Violoncello,0.5,0.15,59,1.0
1336.625,1336.625,512.8571,344,2.5,Contrabass,0.5,0.15,47,1.0
1336.625,1336.625,512.8571,344,2.5,Viola,0.5,0.15,71,1.0
1337.125,1337.125,513.0071,344,3.0,Violoncello,0.5,0.15,57,1.0
1337.125,1337.125,513.0071,344,3.0,Contrabass,0.5,0.15,45,1.0
1337.125,1337.125,513.0071,344,3.0,Viola,0.5,0.15,69,1.0
1337.625,1337.625,513.1571,344,3.5,Violoncello,0.5,0.15,59,1.0
1337.625,1337.625,513.1571,344,3.5,Viola,0.5,0.15,71,1.0
1337.625,1337.625,513.1571,344,3.5,Contrabass,0.5,0.15,47,1.0
1338.125,1338.125,513.3071,344,4.0,Violoncello,0.5,0.15,57,1.0
1338.125,1338.125,513.3071,344,4.0,Violin 2,1.0,0.3,74,1.0
1338.125,1338.125,513.3071,344,4.0,Viola,0.5,0.15,69,1.0
1338.125,1338.125,513.3071,344,4.0,Contrabass,0.5,0.15,45,1.0
1338.125,1338.125,513.3071,344,4.0,Violin 1,1.0,0.3,74,1.0
1338.625,1338.625,513.4571,344,4.5,Contrabass,0.5,0.15,43,1.0
1338.625,1338.625,513.4571,344,4.5,Violoncello,0.5,0.15,55,1.0
1338.625,1338.625,513.4571,344,4.5,Viola,0.5,0.15,67,1.0
1339.125,1339.125,513.6071,345,1.0,Contrabass,0.5,0.15,42,1.0
1339.125,1339.125,513.6071,345,1.0,Violoncello,0.5,0.15,54,1.0
1339.125,1339.125,513.6071,345,1.0,Violin 1,1.0,0.3,62,1.0
1339.125,1339.125,513.6071,345,1.0,Violin 2,1.0,0.3,62,1.0
1339.125,1339.125,513.6071,345,1.0,Viola,0.5,0.15,66,1.0
1339.625,1339.625,513.7571,345,1.5,Contrabass,0.5,0.15,47,1.0
1339.625,1339.625,513.7571,345,1.5,Viola,0.5,0.15,71,1.0
1339.625,1339.625,513.7571,345,1.5,Violoncello,0.5,0.15,59,1.0
1340.125,1340.125,513.9071,345,2.0,Violin 1,1.0,0.3,78,1.0
1340.125,1340.125,513.9071,345,2.0,Viola,0.5,0.15,69,1.0
1340.125,1340.125,513.9071,345,2.0,Contrabass,0.5,0.15,45,1.0
1340.125,1340.125,513.9071,345,2.0,Violin 2,1.0,0.3,78,1.0
1340.125,1340.125,513.9071,345,2.0,Violoncello,0.5,0.15,57,1.0
1340.625,1340.625,514.0571,345,2.5,Viola,0.5,0.15,67,1.0
1340.625,1340.625,514.0571,345,2.5,Violoncello,0.5,0.15,55,1.0
1340.625,1340.625,514.0571,345,2.5,Contrabass,0.5,0.15,43,1.0
1341.125,1341.125,514.2071,345,3.0,Violin 1,1.0,0.3,62,1.0
1341.125,1341.125,514.2071,345,3.0,Contrabass,0.5,0.15,42,1.0
1341.125,1341.125,514.2071,345,3.0,Violoncello,0.5,0.15,54,1.0
1341.125,1341.125,514.2071,345,3.0,Violin 2,1.0,0.3,62,1.0
1341.125,1341.125,514.2071,345,3.0,Viola,0.5,0.15,66,1.0
1341.625,1341.625,514.3571,345,3.5,Viola,0.5,0.15,67,1.0
1341.625,1341.625,514.3571,345,3.5,Violoncello,0.5,0.15,55,1.0
1341.625,1341.625,514.3571,345,3.5,Contrabass,0.5,0.15,43,1.0
1342.125,1342.125,514.5071,345,4.0,Violin 1,1.0,0.3,81,1.0
1342.125,1342.125,514.5071,345,4.0,Viola,0.5,0.15,66,1.0
1342.125,1342.125,514.5071,345,4.0,Violin 2,1.0,0.3,81,1.0
1342.125,1342.125,514.5071,345,4.0,Contrabass,0.5,0.15,42,1.0
1342.125,1342.125,514.5071,345,4.0,Violoncello,0.5,0.15,54,1.0
1342.625,1342.625,514.6571,345,4.5,Violoncello,0.5,0.15,52,1.0
1342.625,1342.625,514.6571,345,4.5,Contrabass,0.5,0.15,40,1.0
1342.625,1342.625,514.6571,345,4.5,Viola,0.5,0.15,64,1.0
1343.125,1343.125,514.8071,346,1.0,Violoncello,0.5,0.15,50,1.0
1343.125,1343.125,514.8071,346,1.0,Oboe 1,4.0,1.2,78,1.0
1343.125,1343.125,514.8071,346,1.0,Violin 2,1.0,0.3,62,1.0
1343.125,1343.125,514.8071,346,1.0,Viola,0.5,0.15,62,1.0
1343.125,1343.125,514.8071,346,1.0,Oboe 2,4.0,1.2,74,1.0
1343.125,1343.125,514.8071,346,1.0,Violin 1,1.0,0.3,62,1.0
1343.125,1343.125,514.8071,346,1.0,Contrabass,0.5,0.15,38,1.0
1343.625,1343.625,514.9571,346,1.5,Contrabass,0.5,0.15,35,1.0
1343.625,1343.625,514.9571,346,1.5,Violoncello,0.5,0.15,47,1.0
1343.625,1343.625,514.9571,346,1.5,Viola,0.5,0.15,59,1.0
1344.125,1344.125,515.1071,346,2.0,Violin 2,1.0,0.3,74,1.0
1344.125,1344.125,515.1071,346,2.0,Violin 1,1.0,0.3,86,1.0
1344.125,1344.125,515.1071,346,2.0,Contrabass,0.5,0.15,33,1.0
1344.125,1344.125,515.1071,346,2.0,Violoncello,0.5,0.15,45,1.0
1344.125,1344.125,515.1071,346,2.0,Viola,0.5,0.15,57,1.0
1344.625,1344.625,515.2571,346,2.5,Contrabass,0.5,0.15,31,1.0
1344.625,1344.625,515.2571,346,2.5,Viola,0.5,0.15,55,1.0
1344.625,1344.625,515.2571,346,2.5,Violoncello,0.5,0.15,43,1.0
1345.125,1345.125,515.4071,346,3.0,Viola,0.5,0.15,54,1.0
1345.125,1345.125,515.4071,346,3.0,Violoncello,0.5,0.15,42,1.0
1345.125,1345.125,515.4071,346,3.0,Violin 2,2.0,0.6,74,0.7087
1345.125,1345.125,515.4071,346,3.0,Violin 1,0.5,0.15,90,1.0
1345.125,1345.125,515.4071,346,3.0,D Horn 2,2.0,0.6,62,1.0
1345.125,1345.125,515.4071,346,3.0,D Trumpet 2,1.0,0.3,62,1.0
1345.125,1345.125,515.4071,346,3.0,Timpani,1.0,0.3,50,1.0
1345.125,1345.125,515.4071,346,3.0,D Horn 1,2.0,0.6,66,1.0
1345.125,1345.125,515.4071,346,3.0,D Trumpet 1,1.0,0.3,74,1.0
1345.125,1345.125,515.4071,346,3.0,Contrabass,0.5,0.15,30,1.0
1345.125,1345.125,515.4071,346,3.0,Violin 2,2.0,0.6,78,0.7087
1345.625,1345.625,515.5571,346,3.5,Violoncello,0.5,0.15,45,1.0
1345.625,1345.625,515.5571,346,3.5,Viola,0.5,0.15,57,1.0
1345.625,1345.625,515.5571,346,3.5,Violin 1,0.5,0.15,86,1.0
1345.625,1345.625,515.5571,346,3.5,Contrabass,0.5,0.15,33,1.0
1346.125,1346.125,515.7071,346,4.0,Violoncello,0.5,0.15,50,1.0
1346.125,1346.125,515.7071,346,4.0,Contrabass,0.5,0.15,38,1.0
1346.125,1346.125,515.7071,346,4.0,Violin 1,0.5,0.15,81,1.0
1346.125,1346.125,515.7071,346,4.0,Viola,0.5,0.15,62,1.0
1346.625,1346.625,515.8571,346,4.5,Viola,0.5,0.15,66,1.0
1346.625,1346.625,515.8571,346,4.5,Violin 1,0.5,0.15,78,1.0
1346.625,1346.625,515.8571,346,4.5,Contrabass,0.5,0.15,42,1.0
1346.625,1346.625,515.8571,346,4.5,Violoncello,0.5,0.15,54,1.0
1347.125,1347.125,516.0071,347,1.0,Contrabass,0.5,0.15,31,1.0
1347.125,1347.125,516.0071,347,1.0,D Horn 1,4.0,1.2,64,1.0
1347.125,1347.125,516.0071,347,1.0,Violoncello,0.5,0.15,43,1.0
1347.125,1347.125,516.0071,347,1.0,Violin 1,0.5,0.15,83,1.0
1347.125,1347.125,516.0071,347,1.0,Violin 2,2.0,0.6,74,0.7087
1347.125,1347.125,516.0071,347,1.0,D Trumpet 1,1.0,0.3,74,1.0
1347.125,1347.125,516.0071,347,1.0,Oboe 2,2.0,0.6,74,1.0
1347.125,1347.125,516.0071,347,1.0,Viola,0.5,0.15,55,1.0
1347.125,1347.125,516.0071,347,1.0,D Trumpet 2,1.0,0.3,62,1.0
1347.125,1347.125,516.0071,347,1.0,Timpani,1.0,0.3,50,1.0
1347.125,1347.125,516.0071,347,1.0,Oboe 1,4.0,1.2,76,1.0
1347.125,1347.125,516.0071,347,1.0,Violin 2,2.0,0.6,76,0.7087
1347.125,1347.125,516.0071,347,1.0,D Horn 2,2.0,0.6,62,1.0
1347.625,1347.625,516.1571,347,1.5,Viola,0.5,0.15,59,1.0
1347.625,1347.625,516.1571,347,1.5,Violoncello,0.5,0.15,47,1.0
1347.625,1347.625,516.1571,347,1.5,Contrabass,0.5,0.15,35,1.0
1347.625,1347.625,516.1571,347,1.5,Violin 1,0.5,0.15,79,1.0
1348.125,1348.125,516.3071,347,2.0,Viola,0.5,0.15,64,1.0
1348.125,1348.125,516.3071,347,2.0,Violin 1,0.5,0.15,76,1.0
1348.125,1348.125,516.3071,347,2.0,Contrabass,0.5,0.15,40,1.0
1348.125,1348.125,516.3071,347,2.0,Violoncello,0.5,0.15,52,1.0
1348.625,1348.625,516.4571,347,2.5,Viola,0.5,0.15,67,1.0
1348.625,1348.625,516.4571,347,2.5,Violin 1,0.5,0.15,71,1.0
1348.625,1348.625,516.4571,347,2.5,Contrabass,0.5,0.15,43,1.0
1348.625,1348.625,516.4571,347,2.5,Violoncello,0.5,0.15,55,1.0
1349.125,1349.125,516.6071,347,3.0,Violoncello,0.5,0.15,45,1.0
1349.125,1349.125,516.6071,347,3.0,Oboe 2,2.0,0.6,73,1.0
1349.125,1349.125,516.6071,347,3.0,Flute 1,0.5,0.15,91,1.0
1349.125,1349.125,516.6071,347,3.0,Viola,0.5,0.15,57,1.0
1349.125,1349.125,516.6071,347,3.0,Violin 2,2.0,0.6,73,0.7087
1349.125,1349.125,516.6071,347,3.0,Violin 2,2.0,0.6,76,0.7087
1349.125,1349.125,516.6071,347,3.0,Timpani,1.0,0.3,45,1.0
1349.125,1349.125,516.6071,347,3.0,D Trumpet 2,1.0,0.3,57,1.0
1349.125,1349.125,516.6071,347,3.0,D Trumpet 1,1.0,0.3,69,1.0
1349.125,1349.125,516.6071,347,3.0,Bassoon 1,0.5,0.15,67,1.0
1349.125,1349.125,516.6071,347,3.0,Contrabass,0.5,0.15,33,1.0
1349.125,1349.125,516.6071,347,3.0,Flute 2,0.5,0.15,91,1.0
1349.125,1349.125,516.6071,347,3.0,D Horn 2,2.0,0.6,57,1.0
1349.125,1349.125,516.6071,347,3.0,Violin 1,0.5,0.15,79,1.0
1349.125,1349.125,516.6071,347,3.0,A Clarinet 2,0.5,0.15,79,1.0
1349.125,1349.125,516.6071,347,3.0,A Clarinet 1,0.5,0.15,79,1.0
1349.625,1349.625,516.7571,347,3.5,Bassoon 1,0.5,0.15,64,1.0
1349.625,1349.625,516.7571,347,3.5,Flute 2,0.5,0.15,88,1.0
1349.625,1349.625,516.7571,347,3.5,A Clarinet 2,0.5,0.15,76,1.0
1349.625,1349.625,516.7571,347,3.5,Contrabass,0.5,0.15,37,1.0
1349.625,1349.625,516.7571,347,3.5,Violoncello,0.5,0.15,49,1.0
1349.625,1349.625,516.7571,347,3.5,Flute 1,0.5,0.15,88,1.0
1349.625,1349.625,516.7571,347,3.5,A Clarinet 1,0.5,0.15,76,1.0
1349.625,1349.625,516.7571,347,3.5,Violin 1,0.5,0.15,76,1.0
1349.625,1349.625,516.7571,347,3.5,Viola,0.5,0.15,61,1.0
1350.125,1350.125,516.9071,347,4.0,Flute 2,0.5,0.15,85,1.0
1350.125,1350.125,516.9071,347,4.0,Flute 1,0.5,0.15,85,1.0
1350.125,1350.125,516.9071,347,4.0,Violoncello,0.5,0.15,52,1.0
1350.125,1350.125,516.9071,347,4.0,A Clarinet 2,0.5,0.15,73,1.0
1350.125,1350.125,516.9071,347,4.0,Violin 1,0.5,0.15,73,1.0
1350.125,1350.125,516.9071,347,4.0,Contrabass,0.5,0.15,40,1.0
1350.125,1350.125,516.9071,347,4.0,A Clarinet 1,0.5,0.15,73,1.0
1350.125,1350.125,516.9071,347,4.0,Bassoon 1,0.5,0.15,61,1.0
1350.125,1350.125,516.9071,347,4.0,Viola,0.5,0.15,64,1.0
1350.625,1350.625,517.0571,347,4.5,A Clarinet 2,0.5,0.15,69,1.0
1350.625,1350.625,517.0571,347,4.5,A Clarinet 1,0.5,0.15,69,1.0
1350.625,1350.625,517.0571,347,4.5,Flute 1,0.5,0.15,81,1.0
1350.625,1350.625,517.0571,347,4.5,Bassoon 1,0.5,0.15,57,1.0
1350.625,1350.625,517.0571,347,4.5,Violin 1,0.5,0.15,69,1.0
1350.625,1350.625,517.0571,347,4.5,Contrabass,0.5,0.15,45,1.0
1350.625,1350.625,517.0571,347,4.5,Viola,0.5,0.15,69,1.0
1350.625,1350.625,517.0571,347,4.5,Violoncello,0.5,0.15,57,1.0
1350.625,1350.625,517.0571,347,4.5,Flute 2,0.5,0.15,81,1.0
1351.125,1351.125,517.2071,348,1.0,D Horn 1,3.0,0.9,62,1.0
1351.125,1351.125,517.2071,348,1.0,A Clarinet 1,3.0,0.9,74,1.0
1351.125,1351.125,517.2071,348,1.0,Violin 1,3.0,0.9,62,1.0
1351.125,1351.125,517.2071,348,1.0,Flute 1,3.0,0.9,86,1.0
1351.125,1351.125,517.2071,348,1.0,Oboe 1,3.0,0.9,74,1.0
1351.125,1351.125,517.2071,348,1.0,A Clarinet 2,3.0,0.9,62,1.0
1351.125,1351.125,517.2071,348,1.0,Oboe 2,3.0,0.9,74,1.0
1351.125,1351.125,517.2071,348,1.0,Violin 2,3.0,0.9,62,1.0
1351.125,1351.125,517.2071,348,1.0,Contrabass,0.5,0.15,38,1.0
1351.125,1351.125,517.2071,348,1.0,Bassoon 1,3.0,0.9,62,1.0
1351.125,1351.125,517.2071,348,1.0,D Trumpet 2,3.0,0.9,62,1.0
1351.125,1351.125,517.2071,348,1.0,Timpani,1.0,0.3,50,1.0
1351.125,1351.125,517.2071,348,1.0,Flute 2,3.0,0.9,86,1.0
1351.125,1351.125,517.2071,348,1.0,D Horn 2,3.0,0.9,50,1.0
1351.125,1351.125,517.2071,348,1.0,D Trumpet 1,3.0,0.9,74,1.0
1351.125,1351.125,517.2071,348,1.0,Viola,0.5,0.15,62,1.0
1351.125,1351.125,517.2071,348,1.0,Violoncello,0.5,0.15,50,1.0
1351.625,1351.625,517.3571,348,1.5,Viola,0.5,0.15,74,1.0
1351.625,1351.625,517.3571,348,1.5,Violoncello,0.5,0.15,62,1.0
1351.625,1351.625,517.3571,348,1.5,Contrabass,0.5,0.15,50,1.0
1352.125,1352.125,517.5071,348,2.0,Viola,0.5,0.15,73,1.0
1352.125,1352.125,517.5071,348,2.0,Contrabass,0.5,0.15,49,1.0
1352.125,1352.125,517.5071,348,2.0,Violoncello,0.5,0.15,61,1.0
1352.625,1352.625,517.6571,348,2.5,Contrabass,0.5,0.15,47,1.0
1352.625,1352.625,517.6571,348,2.5,Violoncello,0.5,0.15,59,1.0
1352.625,1352.625,517.6571,348,2.5,Viola,0.5,0.15,71,1.0
1353.125,1353.125,517.8071,348,3.0,Viola,0.5,0.15,69,1.0
1353.125,1353.125,517.8071,348,3.0,Contrabass,0.5,0.15,45,1.0
1353.125,1353.125,517.8071,348,3.0,Violoncello,0.5,0.15,57,1.0
1353.625,1353.625,517.9571,348,3.5,Violoncello,0.5,0.15,59,1.0
1353.625,1353.625,517.9571,348,3.5,Contrabass,0.5,0.15,47,1.0
1353.625,1353.625,517.9571,348,3.5,Viola,0.5,0.15,71,1.0
1354.125,1354.125,518.1071,348,4.0,Violin 1,0.75,0.225,74,1.0
1354.125,1354.125,518.1071,348,4.0,Flute 1,1.0,0.3,86,1.0
1354.125,1354.125,518.1071,348,4.0,Oboe 1,1.0,0.3,74,1.0
1354.125,1354.125,518.1071,348,4.0,Violoncello,0.5,0.15,57,1.0
1354.125,1354.125,518.1071,348,4.0,A Clarinet 2,1.0,0.3,62,1.0
1354.125,1354.125,518.1071,348,4.0,D Horn 1,1.0,0.3,62,1.0
1354.125,1354.125,518.1071,348,4.0,Viola,0.5,0.15,69,1.0
1354.125,1354.125,518.1071,348,4.0,Flute 2,1.0,0.3,86,1.0
1354.125,1354.125,518.1071,348,4.0,D Horn 2,1.0,0.3,50,1.0
1354.125,1354.125,518.1071,348,4.0,A Clarinet 1,1.0,0.3,62,1.0
1354.125,1354.125,518.1071,348,4.0,Contrabass,0.5,0.15,45,1.0
1354.125,1354.125,518.1071,348,4.0,Violin 2,0.75,0.225,74,1.0
1354.125,1354.125,518.1071,348,4.0,Oboe 2,1.0,0.3,74,1.0
1354.625,1354.625,518.2571,348,4.5,Viola,0.5,0.15,67,1.0
1354.625,1354.625,518.2571,348,4.5,Violoncello,0.5,0.15,55,1.0
1354.625,1354.625,518.2571,348,4.5,Contrabass,0.5,0.15,43,1.0
1354.875,1354.875,518.3321,348,4.75,Violin 2,0.25,0.075,74,1.0
1354.875,1354.875,518.3321,348,4.75,Violin 1,0.25,0.075,74,1.0
1355.125,1355.125,518.4071,349,1.0,Violin 1,1.0,0.3,62,1.0
1355.125,1355.125,518.4071,349,1.0,Viola,0.5,0.15,66,1.0
1355.125,1355.125,518.4071,349,1.0,Violoncello,0.5,0.15,54,1.0
1355.125,1355.125,518.4071,349,1.0,Violin 2,1.0,0.3,62,1.0
1355.125,1355.125,518.4071,349,1.0,Contrabass,0.5,0.15,42,1.0
1355.625,1355.625,518.5571,349,1.5,Viola,0.5,0.15,71,1.0
1355.625,1355.625,518.5571,349,1.5,Violoncello,0.5,0.15,59,1.0
1355.625,1355.625,518.5571,349,1.5,Contrabass,0.5,0.15,47,1.0
1356.125,1356.125,518.7071,349,2.0,Viola,0.5,0.15,69,1.0
1356.125,1356.125,518.7071,349,2.0,Oboe 1,1.0,0.3,78,1.0
1356.125,1356.125,518.7071,349,2.0,Violin 2,0.75,0.225,78,1.0
1356.125,1356.125,518.7071,349,2.0,D Horn 2,1.0,0.3,54,1.0
1356.125,1356.125,518.7071,349,2.0,Violoncello,0.5,0.15,57,1.0
1356.125,1356.125,518.7071,349,2.0,A Clarinet 1,1.0,0.3,66,1.0
1356.125,1356.125,518.7071,349,2.0,Violin 1,0.75,0.225,78,1.0
1356.125,1356.125,518.7071,349,2.0,Flute 1,1.0,0.3,78,1.0
1356.125,1356.125,518.7071,349,2.0,A Clarinet 2,1.0,0.3,66,1.0
1356.125,1356.125,518.7071,349,2.0,Oboe 2,1.0,0.3,78,1.0
1356.125,1356.125,518.7071,349,2.0,Flute 2,1.0,0.3,78,1.0
1356.125,1356.125,518.7071,349,2.0,Contrabass,0.5,0.15,45,1.0
1356.125,1356.125,518.7071,349,2.0,D Horn 1,1.0,0.3,66,1.0
1356.625,1356.625,518.8571,349,2.5,Violoncello,0.5,0.15,55,1.0
1356.625,1356.625,518.8571,349,2.5,Contrabass,0.5,0.15,43,1.0
1356.625,1356.625,518.8571,349,2.5,Viola,0.5,0.15,67,1.0
1356.875,1356.875,518.9321,349,2.75,Violin 1,0.25,0.075,78,1.0
1356.875,1356.875,518.9321,349,2.75,Violin 2,0.25,0.075,78,1.0
1357.125,1357.125,519.0071,349,3.0,Violin 2,1.0,0.3,62,1.0
1357.125,1357.125,519.0071,349,3.0,Contrabass,0.5,0.15,42,1.0
1357.125,1357.125,519.0071,349,3.0,Violoncello,0.5,0.15,54,1.0
1357.125,1357.125,519.0071,349,3.0,Violin 1,1.0,0.3,62,1.0
1357.125,1357.125,519.0071,349,3.0,Viola,0.5,0.15,66,1.0
1357.625,1357.625,519.1571,349,3.5,Contrabass,0.5,0.15,43,1.0
1357.625,1357.625,519.1571,349,3.5,Violoncello,0.5,0.15,55,1.0
1357.625,1357.625,519.1571,349,3.5,Viola,0.5,0.15,67,1.0
1358.125,1358.125,519.3071,349,4.0,A Clarinet 2,1.0,0.3,69,1.0
1358.125,1358.125,519.3071,349,4.0,Oboe 2,1.0,0.3,81,1.0
1358.125,1358.125,519.3071,349,4.0,D Horn 1,1.0,0.3,69,1.0
1358.125,1358.125,519.3071,349,4.0,Contrabass,0.5,0.15,42,1.0
1358.125,1358.125,519.3071,349,4.0,Flute 2,1.0,0.3,81,1.0
1358.125,1358.125,519.3071,349,4.0,D Horn 2,1.0,0.3,57,1.0
1358.125,1358.125,519.3071,349,4.0,Violin 2,0.75,0.225,81,1.0
1358.125,1358.125,519.3071,349,4.0,A Clarinet 1,1.0,0.3,69,1.0
1358.125,1358.125,519.3071,349,4.0,Violoncello,0.5,0.15,54,1.0
1358.125,1358.125,519.3071,349,4.0,Violin 1,0.75,0.225,81,1.0
1358.125,1358.125,519.3071,349,4.0,Oboe 1,1.0,0.3,81,1.0
1358.125,1358.125,519.3071,349,4.0,Flute 1,1.0,0.3,81,1.0
1358.125,1358.125,519.3071,349,4.0,Viola,0.5,0.15,66,1.0
1358.625,1358.625,519.4571,349,4.5,Violoncello,0.5,0.15,52,1.0
1358.625,1358.625,519.4571,349,4.5,Contrabass,0.5,0.15,40,1.0
1358.625,1358.625,519.4571,349,4.5,Viola,0.5,0.15,64,1.0
1358.875,1358.875,519.5321,349,4.75,Violin 1,0.25,0.075,81,1.0
1358.875,1358.875,519.5321,349,4.75,Violin 2,0.25,0.075,81,1.0
1359.125,1359.125,519.6071,350,1.0,Contrabass,0.5,0.15,38,1.0
1359.125,1359.125,519.6071,350,1.0,Viola,0.5,0.15,62,1.0
1359.125,1359.125,519.6071,350,1.0,Violin 2,1.0,0.3,62,1.0
1359.125,1359.125,519.6071,350,1.0,Violoncello,0.5,0.15,50,1.0
1359.125,1359.125,519.6071,350,1.0,Violin 1,1.0,0.3,62,1.0
1359.625,1359.625,519.7571,350,1.5,Violoncello,0.5,0.15,47,1.0
1359.625,1359.625,519.7571,350,1.5,Viola,0.5,0.15,59,1.0
1359.625,1359.625,519.7571,350,1.5,Contrabass,0.5,0.15,35,1.0
1360.125,1360.125,519.9071,350,2.0,Flute 2,1.0,0.3,86,1.0
1360.125,1360.125,519.9071,350,2.0,Flute 1,1.0,0.3,86,1.0
1360.125,1360.125,519.9071,350,2.0,D Horn 2,1.0,0.3,62,1.0
1360.125,1360.125,519.9071,350,2.0,Contrabass,0.5,0.15,33,1.0
1360.125,1360.125,519.9071,350,2.0,Violin 1,0.75,0.225,86,1.0
1360.125,1360.125,519.9071,350,2.0,Violoncello,0.5,0.15,45,1.0
1360.125,1360.125,519.9071,350,2.0,Viola,0.5,0.15,57,1.0
1360.125,1360.125,519.9071,350,2.0,A Clarinet 2,1.0,0.3,74,1.0
1360.125,1360.125,519.9071,350,2.0,D Horn 1,1.0,0.3,62,1.0
1360.125,1360.125,519.9071,350,2.0,Violin 2,0.75,0.225,74,0.9921
1360.125,1360.125,519.9071,350,2.0,A Clarinet 1,1.0,0.3,74,1.0
1360.125,1360.125,519.9071,350,2.0,Oboe 1,1.0,0.3,86,1.0
1360.125,1360.125,519.9071,350,2.0,Oboe 2,1.0,0.3,86,1.0
1360.625,1360.625,520.0571,350,2.5,Viola,0.5,0.15,55,1.0
1360.625,1360.625,520.0571,350,2.5,Contrabass,0.5,0.15,31,1.0
1360.625,1360.625,520.0571,350,2.5,Violoncello,0.5,0.15,43,1.0
1360.875,1360.875,520.1321,350,2.75,Violin 2,0.25,0.075,74,0.9921
1360.875,1360.875,520.1321,350,2.75,Violin 1,0.25,0.075,86,1.0
1361.125,1361.125,520.2071,350,3.0,Viola,0.5,0.15,54,1.0
1361.125,1361.125,520.2071,350,3.0,Contrabass,0.5,0.15,30,1.0
1361.125,1361.125,520.2071,350,3.0,Violoncello,0.5,0.15,42,1.0
1361.125,1361.125,520.2071,350,3.0,D Trumpet 1,1.0,0.3,74,1.0
1361.125,1361.125,520.2071,350,3.0,Violin 2,2.0,0.6,78,0.7087
1361.125,1361.125,520.2071,350,3.0,Violin 2,2.0,0.6,74,0.7087
1361.125,1361.125,520.2071,350,3.0,D Trumpet 2,1.0,0.3,62,1.0
1361.125,1361.125,520.2071,350,3.0,Violin 1,0.5,0.15,90,1.0
1361.125,1361.125,520.2071,350,3.0,Timpani,1.0,0.3,50,1.0
1361.625,1361.625,520.3571,350,3.5,Viola,0.5,0.15,57,1.0
1361.625,1361.625,520.3571,350,3.5,Contrabass,0.5,0.15,33,1.0
1361.625,1361.625,520.3571,350,3.5,Violoncello,0.5,0.15,45,1.0
1361.625,1361.625,520.3571,350,3.5,Violin 1,0.5,0.15,86,1.0
1362.125,1362.125,520.5071,350,4.0,Contrabass,0.5,0.15,38,1.0
1362.125,1362.125,520.5071,350,4.0,Violoncello,0.5,0.15,50,1.0
1362.125,1362.125,520.5071,350,4.0,Violin 1,0.5,0.15,81,1.0
1362.125,1362.125,520.5071,350,4.0,D Horn 2,1.0,0.3,62,1.0
1362.125,1362.125,520.5071,350,4.0,Oboe 1,1.0,0.3,78,1.0
1362.125,1362.125,520.5071,350,4.0,Oboe 2,1.0,0.3,74,1.0
1362.125,1362.125,520.5071,350,4.0,Viola,0.5,0.15,62,1.0
1362.125,1362.125,520.5071,350,4.0,D Horn 1,1.0,0.3,66,1.0
1362.625,1362.625,520.6571,350,4.5,Violin 1,0.5,0.15,78,1.0
1362.625,1362.625,520.6571,350,4.5,Violoncello,0.5,0.15,54,1.0
1362.625,1362.625,520.6571,350,4.5,Contrabass,0.5,0.15,42,1.0
1362.625,1362.625,520.6571,350,4.5,Viola,0.5,0.15,66,1.0
1363.125,1363.125,520.8071,351,1.0,Contrabass,0.5,0.15,31,1.0
1363.125,1363.125,520.8071,351,1.0,D Trumpet 1,1.0,0.3,74,1.0
1363.125,1363.125,520.8071,351,1.0,Timpani,1.0,0.3,50,1.0
1363.125,1363.125,520.8071,351,1.0,Viola,0.5,0.15,55,1.0
1363.125,1363.125,520.8071,351,1.0,Violoncello,0.5,0.15,43,1.0
1363.125,1363.125,520.8071,351,1.0,Violin 1,0.5,0.15,83,1.0
1363.125,1363.125,520.8071,351,1.0,D Trumpet 2,1.0,0.3,62,1.0
1363.125,1363.125,520.8071,351,1.0,Violin 2,2.0,0.6,74,0.7087
1363.125,1363.125,520.8071,351,1.0,Violin 2,2.0,0.6,76,0.7087
1363.625,1363.625,520.9571,351,1.5,Viola,0.5,0.15,59,1.0
1363.625,1363.625,520.9571,351,1.5,Violin 1,0.5,0.15,79,1.0
1363.625,1363.625,520.9571,351,1.5,Violoncello,0.5,0.15,47,1.0
1363.625,1363.625,520.9571,351,1.5,Contrabass,0.5,0.15,35,1.0
1364.125,1364.125,521.1071,351,2.0,D Horn 1,1.0,0.3,64,1.0
1364.125,1364.125,521.1071,351,2.0,Viola,0.5,0.15,64,1.0
1364.125,1364.125,521.1071,351,2.0,Oboe 2,1.0,0.3,74,1.0
1364.125,1364.125,521.1071,351,2.0,Violoncello,0.5,0.15,52,1.0
1364.125,1364.125,521.1071,351,2.0,Oboe 1,1.0,0.3,76,1.0
1364.125,1364.125,521.1071,351,2.0,Violin 1,0.5,0.15,76,1.0
1364.125,1364.125,521.1071,351,2.0,D Horn 2,1.0,0.3,62,1.0
1364.125,1364.125,521.1071,351,2.0,Contrabass,0.5,0.15,40,1.0
1364.625,1364.625,521.2571,351,2.5,Violin 1,0.5,0.15,71,1.0
1364.625,1364.625,521.2571,351,2.5,Violoncello,0.5,0.15,55,1.0
1364.625,1364.625,521.2571,351,2.5,Viola,0.5,0.15,67,1.0
1364.625,1364.625,521.2571,351,2.5,Contrabass,0.5,0.15,43,1.0
1365.125,1365.125,521.4071,351,3.0,Violin 2,2.0,0.6,73,0.7087
1365.125,1365.125,521.4071,351,3.0,D Trumpet 2,1.0,0.3,57,1.0
1365.125,1365.125,521.4071,351,3.0,Violin 1,0.5,0.15,79,1.0
1365.125,1365.125,521.4071,351,3.0,Timpani,1.0,0.3,45,1.0
1365.125,1365.125,521.4071,351,3.0,D Trumpet 1,1.0,0.3,69,1.0
1365.125,1365.125,521.4071,351,3.0,Viola,0.5,0.15,57,1.0
1365.125,1365.125,521.4071,351,3.0,Flute 1,0.5,0.15,91,1.0
1365.125,1365.125,521.4071,351,3.0,Flute 2,0.5,0.15,91,1.0
1365.125,1365.125,521.4071,351,3.0,Contrabass,0.5,0.15,33,1.0
1365.125,1365.125,521.4071,351,3.0,Bassoon 1,0.5,0.15,67,1.0
1365.125,1365.125,521.4071,351,3.0,Violoncello,0.5,0.15,45,1.0
1365.125,1365.125,521.4071,351,3.0,Violin 2,2.0,0.6,76,0.7087
1365.125,1365.125,521.4071,351,3.0,A Clarinet 1,0.5,0.15,79,1.0
1365.125,1365.125,521.4071,351,3.0,A Clarinet 2,0.5,0.15,79,1.0
1365.625,1365.625,521.5571,351,3.5,Violin 1,0.5,0.15,76,1.0
1365.625,1365.625,521.5571,351,3.5,A Clarinet 2,0.5,0.15,76,1.0
1365.625,1365.625,521.5571,351,3.5,Contrabass,0.5,0.15,37,1.0
1365.625,1365.625,521.5571,351,3.5,Flute 1,0.5,0.15,88,1.0
1365.625,1365.625,521.5571,351,3.5,Flute 2,0.5,0.15,88,1.0
1365.625,1365.625,521.5571,351,3.5,Bassoon 1,0.5,0.15,64,1.0
1365.625,1365.625,521.5571,351,3.5,Violoncello,0.5,0.15,49,1.0
1365.625,1365.625,521.5571,351,3.5,Viola,0.5,0.15,61,1.0
1365.625,1365.625,521.5571,351,3.5,A Clarinet 1,0.5,0.15,76,1.0
1366.125,1366.125,521.7071,351,4.0,Oboe 1,1.0,0.3,76,1.0
1366.125,1366.125,521.7071,351,4.0,Flute 1,0.5,0.15,85,1.0
1366.125,1366.125,521.7071,351,4.0,Bassoon 1,0.5,0.15,61,1.0
1366.125,1366.125,521.7071,351,4.0,Viola,0.5,0.15,64,1.0
1366.125,1366.125,521.7071,351,4.0,D Horn 1,1.0,0.3,64,1.0
1366.125,1366.125,521.7071,351,4.0,Oboe 2,1.0,0.3,73,1.0
1366.125,1366.125,521.7071,351,4.0,Flute 2,0.5,0.15,85,1.0
1366.125,1366.125,521.7071,351,4.0,A Clarinet 1,0.5,0.15,73,1.0
1366.125,1366.125,521.7071,351,4.0,Violoncello,0.5,0.15,52,1.0
1366.125,1366.125,521.7071,351,4.0,D Horn 2,1.0,0.3,57,1.0
1366.125,1366.125,521.7071,351,4.0,Violin 1,0.5,0.15,73,1.0
1366.125,1366.125,521.7071,351,4.0,Contrabass,0.5,0.15,40,1.0
1366.125,1366.125,521.7071,351,4.0,A Clarinet 2,0.5,0.15,73,1.0
1366.625,1366.625,521.8571,351,4.5,Violin 1,0.5,0.15,69,1.0
1366.625,1366.625,521.8571,351,4.5,Contrabass,0.5,0.15,45,1.0
1366.625,1366.625,521.8571,351,4.5,Bassoon 1,0.5,0.15,57,1.0
1366.625,1366.625,521.8571,351,4.5,A Clarinet 1,0.5,0.15,69,1.0
1366.625,1366.625,521.8571,351,4.5,Flute 2,0.5,0.15,81,1.0
1366.625,1366.625,521.8571,351,4.5,Violoncello,0.5,0.15,57,1.0
1366.625,1366.625,521.8571,351,4.5,A Clarinet 2,0.5,0.15,69,1.0
1366.625,1366.625,521.8571,351,4.5,Flute 1,0.5,0.15,81,1.0
1366.625,1366.625,521.8571,351,4.5,Viola,0.5,0.15,69,1.0
1367.125,1367.125,522.0071,352,1.0,Bassoon 1,1.0,0.3,62,1.0
1367.125,1367.125,522.0071,352,1.0,A Clarinet 1,1.0,0.3,74,1.0
1367.125,1367.125,522.0071,352,1.0,Violin 2,0.25,0.075,62,0.9921
1367.125,1367.125,522.0071,352,1.0,Oboe 1,1.0,0.3,78,1.0
1367.125,1367.125,522.0071,352,1.0,Flute 1,1.0,0.3,86,1.0
1367.125,1367.125,522.0071,352,1.0,Violin 1,0.25,0.075,74,0.7087
1367.125,1367.125,522.0071,352,1.0,Oboe 2,1.0,0.3,74,1.0
1367.125,1367.125,522.0071,352,1.0,Contrabass,0.5,0.15,42,1.0
1367.125,1367.125,522.0071,352,1.0,Viola,0.5,0.15,66,1.0
1367.125,1367.125,522.0071,352,1.0,Timpani,1.0,0.3,50,1.0
1367.125,1367.125,522.0071,352,1.0,D Trumpet 1,1.0,0.3,74,1.0
1367.125,1367.125,522.0071,352,1.0,Flute 2,1.0,0.3,86,1.0
1367.125,1367.125,522.0071,352,1.0,Violin 1,0.25,0.075,62,0.7087
1367.125,1367.125,522.0071,352,1.0,A Clarinet 2,1.0,0.3,74,1.0
1367.125,1367.125,522.0071,352,1.0,Violoncello,0.5,0.15,54,1.0
1367.125,1367.125,522.0071,352,1.0,D Trumpet 2,1.0,0.3,62,1.0
1367.375,1367.375,522.0821,352,1.25,Violin 1,0.25,0.075,86,1.0
1367.375,1367.375,522.0821,352,1.25,Violin 2,0.25,0.075,74,0.9921
1367.625,1367.625,522.1571,352,1.5,Violin 2,0.25,0.075,74,0.9921
1367.625,1367.625,522.1571,352,1.5,Viola,0.5,0.15,62,1.0
1367.625,1367.625,522.1571,352,1.5,Contrabass,0.5,0.15,38,1.0
1367.625,1367.625,522.1571,352,1.5,Violoncello,0.5,0.15,50,1.0
1367.625,1367.625,522.1571,352,1.5,Violin 1,0.25,0.075,86,1.0
1367.875,1367.875,522.2321,352,1.75,Violin 2,0.25,0.075,74,0.9921
1367.875,1367.875,522.2321,352,1.75,Violin 1,0.25,0.075,86,1.0
1368.125,1368.125,522.3071,352,2.0,D Horn 1,1.0,0.3,66,1.0
1368.125,1368.125,522.3071,352,2.0,Oboe 2,1.0,0.3,74,1.0
1368.125,1368.125,522.3071,352,2.0,Oboe 1,1.0,0.3,78,1.0
1368.125,1368.125,522.3071,352,2.0,Violoncello,0.5,0.15,45,1.0
1368.125,1368.125,522.3071,352,2.0,Flute 1,1.0,0.3,90,1.0
1368.125,1368.125,522.3071,352,2.0,A Clarinet 1,1.0,0.3,74,1.0
1368.125,1368.125,522.3071,352,2.0,D Horn 2,1.0,0.3,62,1.0
1368.125,1368.125,522.3071,352,2.0,Violin 1,1.0,0.3,86,1.0
1368.125,1368.125,522.3071,352,2.0,Violin 2,1.0,0.3,74,0.9921
1368.125,1368.125,522.3071,352,2.0,Viola,0.5,0.15,57,1.0
1368.125,1368.125,522.3071,352,2.0,A Clarinet 2,1.0,0.3,66,1.0
1368.125,1368.125,522.3071,352,2.0,Contrabass,0.5,0.15,33,1.0
1368.125,1368.125,522.3071,352,2.0,Flute 2,1.0,0.3,86,1.0
1368.625,1368.625,522.4571,352,2.5,Viola,0.5,0.15,55,1.0
1368.625,1368.625,522.4571,352,2.5,Contrabass,0.5,0.15,31,1.0
1368.625,1368.625,522.4571,352,2.5,Violoncello,0.5,0.15,43,1.0
1369.125,1369.125,522.6071,352,3.0,D Trumpet 1,1.0,0.3,74,1.0
1369.125,1369.125,522.6071,352,3.0,Contrabass,0.5,0.15,30,1.0
1369.125,1369.125,522.6071,352,3.0,Timpani,1.0,0.3,50,1.0
1369.125,1369.125,522.6071,352,3.0,D Trumpet 2,1.0,0.3,62,1.0
1369.125,1369.125,522.6071,352,3.0,Viola,0.5,0.15,54,1.0
1369.125,1369.125,522.6071,352,3.0,Violoncello,0.5,0.15,42,1.0
1369.125,1369.125,522.6071,352,3.0,Violin 1,0.5,0.15,90,1.0
1369.125,1369.125,522.6071,352,3.0,Bassoon 2,2.0,0.6,62,1.0
1369.125,1369.125,522.6071,352,3.0,Bassoon 1,2.0,0.6,66,1.0
1369.125,1369.125,522.6071,352,3.0,Violin 2,0.5,0.15,78,0.9921
1369.625,1369.625,522.7571,352,3.5,Violin 2,0.5,0.15,74,0.9921
1369.625,1369.625,522.7571,352,3.5,Contrabass,0.5,0.15,33,1.0
1369.625,1369.625,522.7571,352,3.5,Violin 1,0.5,0.15,86,1.0
1369.625,1369.625,522.7571,352,3.5,Violoncello,0.5,0.15,45,1.0
1369.625,1369.625,522.7571,352,3.5,Viola,0.5,0.15,57,1.0
1370.125,1370.125,522.9071,352,4.0,Contrabass,0.5,0.15,38,1.0
1370.125,1370.125,522.9071,352,4.0,Violoncello,0.5,0.15,50,1.0
1370.125,1370.125,522.9071,352,4.0,Viola,0.5,0.15,62,1.0
1370.125,1370.125,522.9071,352,4.0,D Horn 2,1.0,0.3,62,1.0
1370.125,1370.125,522.9071,352,4.0,A Clarinet 1,1.0,0.3,74,1.0
1370.125,1370.125,522.9071,352,4.0,Violin 1,0.5,0.15,81,1.0
1370.125,1370.125,522.9071,352,4.0,Flute 1,1.0,0.3,90,1.0
1370.125,1370.125,522.9071,352,4.0,A Clarinet 2,1.0,0.3,66,1.0
1370.125,1370.125,522.9071,352,4.0,Oboe 2,1.0,0.3,74,1.0
1370.125,1370.125,522.9071,352,4.0,Violin 2,0.5,0.15,69,0.9921
1370.125,1370.125,522.9071,352,4.0,Flute 2,1.0,0.3,86,1.0
1370.125,1370.125,522.9071,352,4.0,D Horn 1,1.0,0.3,66,1.0
1370.125,1370.125,522.9071,352,4.0,Oboe 1,1.0,0.3,78,1.0
1370.625,1370.625,523.0571,352,4.5,Violin 2,0.5,0.15,66,0.9921
1370.625,1370.625,523.0571,352,4.5,Violoncello,0.5,0.15,54,1.0
1370.625,1370.625,523.0571,352,4.5,Contrabass,0.5,0.15,42,1.0
1370.625,1370.625,523.0571,352,4.5,Viola,0.5,0.15,66,1.0
1370.625,1370.625,523.0571,352,4.5,Violin 1,0.5,0.15,78,1.0
1371.125,1371.125,523.2071,353,1.0,Timpani,1.0,0.3,50,1.0
1371.125,1371.125,523.2071,353,1.0,Violin 2,0.5,0.15,71,0.9921
1371.125,1371.125,523.2071,353,1.0,Viola,0.5,0.15,55,1.0
1371.125,1371.125,523.2071,353,1.0,D Trumpet 1,1.0,0.3,74,1.0
1371.125,1371.125,523.2071,353,1.0,Bassoon 1,2.0,0.6,64,1.0
1371.125,1371.125,523.2071,353,1.0,D Trumpet 2,1.0,0.3,62,1.0
1371.125,1371.125,523.2071,353,1.0,Violoncello,0.5,0.15,43,1.0
1371.125,1371.125,523.2071,353,1.0,Contrabass,0.5,0.15,31,1.0
1371.125,1371.125,523.2071,353,1.0,Bassoon 2,2.0,0.6,62,1.0
1371.125,1371.125,523.2071,353,1.0,Violin 1,0.5,0.15,83,1.0
1371.625,1371.625,523.3571,353,1.5,Violin 1,0.5,0.15,79,1.0
1371.625,1371.625,523.3571,353,1.5,Viola,0.5,0.15,59,1.0
1371.625,1371.625,523.3571,353,1.5,Violin 2,0.5,0.15,67,0.9921
1371.625,1371.625,523.3571,353,1.5,Violoncello,0.5,0.15,47,1.0
1371.625,1371.625,523.3571,353,1.5,Contrabass,0.5,0.15,35,1.0
1372.125,1372.125,523.5071,353,2.0,Flute 1,1.0,0.3,88,1.0
1372.125,1372.125,523.5071,353,2.0,A Clarinet 1,1.0,0.3,74,1.0
1372.125,1372.125,523.5071,353,2.0,Violin 2,0.5,0.15,64,0.9921
1372.125,1372.125,523.5071,353,2.0,D Horn 2,1.0,0.3,62,1.0
1372.125,1372.125,523.5071,353,2.0,A Clarinet 2,1.0,0.3,64,1.0
1372.125,1372.125,523.5071,353,2.0,Oboe 2,1.0,0.3,74,1.0
1372.125,1372.125,523.5071,353,2.0,Contrabass,0.5,0.15,40,1.0
1372.125,1372.125,523.5071,353,2.0,Flute 2,1.0,0.3,86,1.0
1372.125,1372.125,523.5071,353,2.0,Viola,0.5,0.15,64,1.0
1372.125,1372.125,523.5071,353,2.0,Violin 1,0.5,0.15,76,1.0
1372.125,1372.125,523.5071,353,2.0,Oboe 1,1.0,0.3,76,1.0
1372.125,1372.125,523.5071,353,2.0,D Horn 1,1.0,0.3,64,1.0
1372.125,1372.125,523.5071,353,2.0,Violoncello,0.5,0.15,52,1.0
1372.625,1372.625,523.6571,353,2.5,Violin 2,0.5,0.15,59,0.9921
1372.625,1372.625,523.6571,353,2.5,Contrabass,0.5,0.15,43,1.0
1372.625,1372.625,523.6571,353,2.5,Violoncello,0.5,0.15,55,1.0
1372.625,1372.625,523.6571,353,2.5,Violin 1,0.5,0.15,71,1.0
1372.625,1372.625,523.6571,353,2.5,Viola,0.5,0.15,67,1.0
1373.125,1373.125,523.8071,353,3.0,Contrabass,0.5,0.15,33,1.0
1373.125,1373.125,523.8071,353,3.0,Bassoon 2,0.5,0.15,67,1.0
1373.125,1373.125,523.8071,353,3.0,Flute 2,0.5,0.15,91,1.0
1373.125,1373.125,523.8071,353,3.0,Viola,0.5,0.15,57,1.0
1373.125,1373.125,523.8071,353,3.0,Bassoon 1,0.5,0.15,67,1.0
1373.125,1373.125,523.8071,353,3.0,A Clarinet 1,0.5,0.15,79,1.0
1373.125,1373.125,523.8071,353,3.0,Oboe 2,0.5,0.15,79,1.0
1373.125,1373.125,523.8071,353,3.0,Flute 1,0.5,0.15,91,1.0
1373.125,1373.125,523.8071,353,3.0,Oboe 1,0.5,0.15,79,1.0
1373.125,1373.125,523.8071,353,3.0,A Clarinet 2,0.5,0.15,79,1.0
1373.125,1373.125,523.8071,353,3.0,Violoncello,0.5,0.15,45,1.0
1373.125,1373.125,523.8071,353,3.0,Timpani,1.0,0.3,45,1.0
1373.125,1373.125,523.8071,353,3.0,D Trumpet 1,1.0,0.3,69,1.0
1373.125,1373.125,523.8071,353,3.0,Violin 2,0.5,0.15,67,0.9921
1373.125,1373.125,523.8071,353,3.0,Violin 1,0.5,0.15,79,1.0
1373.125,1373.125,523.8071,353,3.0,D Trumpet 2,1.0,0.3,57,1.0
1373.625,1373.625,523.9571,353,3.5,Bassoon 1,0.5,0.15,64,1.0
1373.625,1373.625,523.9571,353,3.5,Flute 1,0.5,0.15,88,1.0
1373.625,1373.625,523.9571,353,3.5,Violoncello,0.5,0.15,49,1.0
1373.625,1373.625,523.9571,353,3.5,Violin 1,0.5,0.15,76,1.0
1373.625,1373.625,523.9571,353,3.5,Flute 2,0.5,0.15,88,1.0
1373.625,1373.625,523.9571,353,3.5,A Clarinet 1,0.5,0.15,76,1.0
1373.625,1373.625,523.9571,353,3.5,Oboe 1,0.5,0.15,76,1.0
1373.625,1373.625,523.9571,353,3.5,Bassoon 2,0.5,0.15,64,1.0
1373.625,1373.625,523.9571,353,3.5,A Clarinet 2,0.5,0.15,76,1.0
1373.625,1373.625,523.9571,353,3.5,Oboe 2,0.5,0.15,76,1.0
1373.625,1373.625,523.9571,353,3.5,Viola,0.5,0.15,61,1.0
1373.625,1373.625,523.9571,353,3.5,Violin 2,0.5,0.15,64,0.9921
1373.625,1373.625,523.9571,353,3.5,Contrabass,0.5,0.15,37,1.0
1374.125,1374.125,524.1071,353,4.0,Violoncello,0.5,0.15,52,1.0
1374.125,1374.125,524.1071,353,4.0,Viola,0.5,0.15,64,1.0
1374.125,1374.125,524.1071,353,4.0,Flute 1,0.5,0.15,85,1.0
1374.125,1374.125,524.1071,353,4.0,A Clarinet 2,0.5,0.15,73,1.0
1374.125,1374.125,524.1071,353,4.0,Violin 1,0.5,0.15,73,1.0
1374.125,1374.125,524.1071,353,4.0,Flute 2,0.5,0.15,85,1.0
1374.125,1374.125,524.1071,353,4.0,Bassoon 2,0.5,0.15,61,1.0
1374.125,1374.125,524.1071,353,4.0,D Horn 1,1.0,0.3,64,1.0
1374.125,1374.125,524.1071,353,4.0,Oboe 2,0.5,0.15,73,1.0
1374.125,1374.125,524.1071,353,4.0,A Clarinet 1,0.5,0.15,73,1.0
1374.125,1374.125,524.1071,353,4.0,Contrabass,0.5,0.15,40,1.0
1374.125,1374.125,524.1071,353,4.0,Oboe 1,0.5,0.15,73,1.0
1374.125,1374.125,524.1071,353,4.0,Bassoon 1,0.5,0.15,61,1.0
1374.125,1374.125,524.1071,353,4.0,D Horn 2,1.0,0.3,57,1.0
1374.125,1374.125,524.1071,353,4.0,Violin 2,0.5,0.15,61,0.9921
1374.625,1374.625,524.2571,353,4.5,Bassoon 1,0.5,0.15,57,1.0
1374.625,1374.625,524.2571,353,4.5,Flute 2,0.5,0.15,81,1.0
1374.625,1374.625,524.2571,353,4.5,Flute 1,0.5,0.15,81,1.0
1374.625,1374.625,524.2571,353,4.5,Viola,0.5,0.15,69,1.0
1374.625,1374.625,524.2571,353,4.5,Bassoon 2,0.5,0.15,57,1.0
1374.625,1374.625,524.2571,353,4.5,Oboe 1,0.5,0.15,69,1.0
1374.625,1374.625,524.2571,353,4.5,Violin 2,0.5,0.15,57,0.9921
1374.625,1374.625,524.2571,353,4.5,Violin 1,0.5,0.15,69,1.0
1374.625,1374.625,524.2571,353,4.5,Oboe 2,0.5,0.15,69,1.0
1374.625,1374.625,524.2571,353,4.5,A Clarinet 2,0.5,0.15,69,1.0
1374.625,1374.625,524.2571,353,4.5,Contrabass,0.5,0.15,45,1.0
1374.625,1374.625,524.2571,353,4.5,Violoncello,0.5,0.15,57,1.0
1374.625,1374.625,524.2571,353,4.5,A Clarinet 1,0.5,0.15,69,1.0
1375.125,1375.125,524.4071,354,1.0,Flute 1,3.0,0.9,86,0.9921
1375.125,1375.125,524.4071,354,1.0,Contrabass,3.0,0.9,38,0.9921
1375.125,1375.125,524.4071,354,1.0,Flute 2,3.0,0.9,86,0.9921
1375.125,1375.125,524.4071,354,1.0,Violin 1,3.0,0.9,74,0.7087
1375.125,1375.125,524.4071,354,1.0,D Trumpet 1,2.0,0.6,74,0.9921
1375.125,1375.125,524.4071,354,1.0,D Horn 2,2.0,0.6,50,0.9921
1375.125,1375.125,524.4071,354,1.0,Bassoon 2,3.0,0.9,50,0.9921
1375.125,1375.125,524.4071,354,1.0,D Horn 1,2.0,0.6,62,0.9921
1375.125,1375.125,524.4071,354,1.0,Oboe 2,3.0,0.9,74,0.9921
1375.125,1375.125,524.4071,354,1.0,Viola,3.0,0.9,62,0.9921
1375.125,1375.125,524.4071,354,1.0,Violin 1,3.0,0.9,62,0.7087
1375.125,1375.125,524.4071,354,1.0,Timpani,1.0,0.3,50,0.9921
1375.125,1375.125,524.4071,354,1.0,D Trumpet 2,2.0,0.6,62,0.9921
1375.125,1375.125,524.4071,354,1.0,A Clarinet 2,3.0,0.9,62,0.9921
1375.125,1375.125,524.4071,354,1.0,Oboe 1,3.0,0.9,74,0.9921
1375.125,1375.125,524.4071,354,1.0,Violin 2,3.0,0.9,62,0.9921
1375.125,1375.125,524.4071,354,1.0,Bassoon 1,3.0,0.9,50,0.9921
1375.125,1375.125,524.4071,354,1.0,Violoncello,3.0,0.9,50,0.9921
1375.125,1375.125,524.4071,354,1.0,A Clarinet 1,3.0,0.9,74,0.9921
1377.125,1377.125,525.0071,354,3.0,D Horn 1,1.75,0.525,62,0.9921
1377.125,1377.125,525.0071,354,3.0,D Horn 2,1.75,0.525,50,0.9921
1377.125,1377.125,525.0071,354,3.0,D Trumpet 1,1.75,0.525,74,0.9921
1377.125,1377.125,525.0071,354,3.0,D Trumpet 2,1.75,0.525,62,0.9921
1378.125,1378.125,525.3071,354,4.0,Flute 2,0.25,0.075,74,0.9921
1378.125,1378.125,525.3071,354,4.0,Bassoon 1,0.25,0.075,50,0.9921
1378.125,1378.125,525.3071,354,4.0,Oboe 2,0.25,0.075,74,0.9921
1378.125,1378.125,525.3071,354,4.0,Violoncello,0.25,0.075,50,0.9921
1378.125,1378.125,525.3071,354,4.0,Violin 1,0.25,0.075,74,0.9921
1378.125,1378.125,525.3071,354,4.0,Viola,0.25,0.075,62,0.9921
1378.125,1378.125,525.3071,354,4.0,Bassoon 2,0.25,0.075,50,0.9921
1378.125,1378.125,525.3071,354,4.0,Flute 1,0.25,0.075,74,0.9921
1378.125,1378.125,525.3071,354,4.0,Oboe 1,0.25,0.075,74,0.9921
1378.125,1378.125,525.3071,354,4.0,Violin 2,0.25,0.075,62,0.9921
1378.125,1378.125,525.3071,354,4.0,Contrabass,0.25,0.075,38,0.9921
1378.375,1378.375,525.3821,354,4.25,Bassoon 2,0.25,0.075,49,0.9921
1378.375,1378.375,525.3821,354,4.25,Bassoon 1,0.25,0.075,49,0.9921
1378.375,1378.375,525.3821,354,4.25,Contrabass,0.25,0.075,37,0.9921
1378.375,1378.375,525.3821,354,4.25,Oboe 2,0.25,0.075,73,0.9921
1378.375,1378.375,525.3821,354,4.25,Flute 2,0.25,0.075,73,0.9921
1378.375,1378.375,525.3821,354,4.25,Violoncello,0.25,0.075,49,0.9921
1378.375,1378.375,525.3821,354,4.25,Viola,0.25,0.075,61,0.9921
1378.375,1378.375,525.3821,354,4.25,Violin 1,0.25,0.075,73,0.9921
1378.375,1378.375,525.3821,354,4.25,Violin 2,0.25,0.075,61,0.9921
1378.375,1378.375,525.3821,354,4.25,Oboe 1,0.25,0.075,73,0.9921
1378.375,1378.375,525.3821,354,4.25,Flute 1,0.25,0.075,73,0.9921
1378.625,1378.625,525.4571,354,4.5,Viola,0.25,0.075,62,0.9921
1378.625,1378.625,525.4571,354,4.5,Oboe 1,0.25,0.075,74,0.9921
1378.625,1378.625,525.4571,354,4.5,Bassoon 1,0.25,0.075,50,0.9921
1378.625,1378.625,525.4571,354,4.5,Bassoon 2,0.25,0.075,50,0.9921
1378.625,1378.625,525.4571,354,4.5,Violin 2,0.25,0.075,62,0.9921
1378.625,1378.625,525.4571,354,4.5,Contrabass,0.25,0.075,38,0.9921
1378.625,1378.625,525.4571,354,4.5,Violoncello,0.25,0.075,50,0.9921
1378.625,1378.625,525.4571,354,4.5,Violin 1,0.25,0.075,74,0.9921
1378.625,1378.625,525.4571,354,4.5,Oboe 2,0.25,0.075,74,0.9921
1378.625,1378.625,525.4571,354,4.5,Flute 1,0.25,0.075,74,0.9921
1378.625,1378.625,525.4571,354,4.5,Flute 2,0.25,0.075,74,0.9921
1378.875,1378.875,525.5321,354,4.75,Violin 2,0.25,0.075,64,0.9921
1378.875,1378.875,525.5321,354,4.75,Violin 1,0.25,0.075,76,0.9921
1378.875,1378.875,525.5321,354,4.75,Timpani,0.25,0.075,50,0.9921
1378.875,1378.875,525.5321,354,4.75,Violoncello,0.25,0.075,52,0.9921
1378.875,1378.875,525.5321,354,4.75,D Trumpet 1,0.25,0.075,62,0.9921
1378.875,1378.875,525.5321,354,4.75,D Trumpet 2,0.25,0.075,62,0.9921
1378.875,1378.875,525.5321,354,4.75,D Horn 2,0.25,0.075,50,0.9921
1378.875,1378.875,525.5321,354,4.75,D Horn 1,0.25,0.075,62,0.9921
1378.875,1378.875,525.5321,354,4.75,Contrabass,0.25,0.075,40,0.9921
1378.875,1378.875,525.5321,354,4.75,Viola,0.25,0.075,64,0.9921
1378.875,1378.875,525.5321,354,4.75,Bassoon 2,0.25,0.075,52,0.9921
1378.875,1378.875,525.5321,354,4.75,Bassoon 1,0.25,0.075,52,0.9921
1378.875,1378.875,525.5321,354,4.75,Flute 1,0.25,0.075,76,0.9921
1378.875,1378.875,525.5321,354,4.75,Flute 2,0.25,0.075,76,0.9921
1378.875,1378.875,525.5321,354,4.75,Oboe 2,0.25,0.075,76,0.9921
1378.875,1378.875,525.5321,354,4.75,Oboe 1,0.25,0.075,76,0.9921
1379.125,1379.125,525.6071,355,1.0,D Horn 1,1.75,0.525,66,0.9921
1379.125,1379.125,525.6071,355,1.0,Violin 1,1.0,0.3,78,1.0
1379.125,1379.125,525.6071,355,1.0,Contrabass,1.0,0.3,42,1.0
1379.125,1379.125,525.6071,355,1.0,Flute 1,1.0,0.3,78,1.0
1379.125,1379.125,525.6071,355,1.0,Viola,1.0,0.3,66,1.0
1379.125,1379.125,525.6071,355,1.0,Violoncello,1.0,0.3,54,1.0
1379.125,1379.125,525.6071,355,1.0,D Horn 2,1.75,0.525,54,0.9921
1379.125,1379.125,525.6071,355,1.0,Bassoon 1,1.0,0.3,54,1.0
1379.125,1379.125,525.6071,355,1.0,Violin 2,1.0,0.3,66,1.0
1379.125,1379.125,525.6071,355,1.0,Timpani,1.75,0.525,50,0.9921
1379.125,1379.125,525.6071,355,1.0,D Trumpet 2,1.75,0.525,66,0.9921
1379.125,1379.125,525.6071,355,1.0,Bassoon 2,1.0,0.3,54,1.0
1379.125,1379.125,525.6071,355,1.0,Flute 2,1.0,0.3,78,1.0
1379.125,1379.125,525.6071,355,1.0,D Trumpet 1,1.75,0.525,66,0.9921
1379.125,1379.125,525.6071,355,1.0,Oboe 2,1.0,0.3,78,1.0
1379.125,1379.125,525.6071,355,1.0,Oboe 1,1.0,0.3,78,1.0
1380.125,1380.125,525.9071,355,2.0,Contrabass,0.25,0.075,42,0.9921
1380.125,1380.125,525.9071,355,2.0,Violoncello,0.25,0.075,54,0.9921
1380.125,1380.125,525.9071,355,2.0,Bassoon 2,0.25,0.075,54,0.9921
1380.125,1380.125,525.9071,355,2.0,Viola,0.25,0.075,66,0.9921
1380.125,1380.125,525.9071,355,2.0,Oboe 1,0.25,0.075,78,0.9921
1380.125,1380.125,525.9071,355,2.0,Violin 2,0.25,0.075,66,0.9921
1380.125,1380.125,525.9071,355,2.0,Bassoon 1,0.25,0.075,54,0.9921
1380.125,1380.125,525.9071,355,2.0,Violin 1,0.25,0.075,78,0.9921
1380.125,1380.125,525.9071,355,2.0,Flute 1,0.25,0.075,78,0.9921
1380.125,1380.125,525.9071,355,2.0,Oboe 2,0.25,0.075,78,0.9921
1380.125,1380.125,525.9071,355,2.0,Flute 2,0.25,0.075,78,0.9921
1380.375,1380.375,525.9821,355,2.25,Oboe 2,0.25,0.075,76,0.9921
1380.375,1380.375,525.9821,355,2.25,Violoncello,0.25,0.075,52,0.9921
1380.375,1380.375,525.9821,355,2.25,Oboe 1,0.25,0.075,76,0.9921
1380.375,1380.375,525.9821,355,2.25,Violin 2,0.25,0.075,64,0.9921
1380.375,1380.375,525.9821,355,2.25,Viola,0.25,0.075,64,0.9921
1380.375,1380.375,525.9821,355,2.25,Flute 2,0.25,0.075,76,0.9921
1380.375,1380.375,525.9821,355,2.25,Contrabass,0.25,0.075,40,0.9921
1380.375,1380.375,525.9821,355,2.25,Violin 1,0.25,0.075,76,0.9921
1380.375,1380.375,525.9821,355,2.25,Bassoon 1,0.25,0.075,52,0.9921
1380.375,1380.375,525.9821,355,2.25,Flute 1,0.25,0.075,76,0.9921
1380.375,1380.375,525.9821,355,2.25,Bassoon 2,0.25,0.075,52,0.9921
1380.625,1380.625,526.0571,355,2.5,Viola,0.25,0.075,66,0.9921
1380.625,1380.625,526.0571,355,2.5,Violoncello,0.25,0.075,54,0.9921
1380.625,1380.625,526.0571,355,2.5,Oboe 2,0.25,0.075,78,0.9921
1380.625,1380.625,526.0571,355,2.5,Flute 1,0.25,0.075,78,0.9921
1380.625,1380.625,526.0571,355,2.5,Contrabass,0.25,0.075,42,0.9921
1380.625,1380.625,526.0571,355,2.5,Oboe 1,0.25,0.075,78,0.9921
1380.625,1380.625,526.0571,355,2.5,Bassoon 2,0.25,0.075,54,0.9921
1380.625,1380.625,526.0571,355,2.5,Bassoon 1,0.25,0.075,54,0.9921
1380.625,1380.625,526.0571,355,2.5,Violin 2,0.25,0.075,66,0.9921
1380.625,1380.625,526.0571,355,2.5,Flute 2,0.25,0.075,78,0.9921
1380.625,1380.625,526.0571,355,2.5,Violin 1,0.25,0.075,78,0.9921
1380.875,1380.875,526.1321,355,2.75,Viola,0.25,0.075,67,0.9921
1380.875,1380.875,526.1321,355,2.75,D Horn 2,0.25,0.075,54,0.9921
1380.875,1380.875,526.1321,355,2.75,Bassoon 1,0.25,0.075,55,0.9921
1380.875,1380.875,526.1321,355,2.75,Violin 2,0.25,0.075,67,0.9921
1380.875,1380.875,526.1321,355,2.75,Timpani,0.25,0.075,50,0.9921
1380.875,1380.875,526.1321,355,2.75,D Trumpet 2,0.25,0.075,66,0.9921
1380.875,1380.875,526.1321,355,2.75,Flute 2,0.25,0.075,79,0.9921
1380.875,1380.875,526.1321,355,2.75,Violoncello,0.25,0.075,55,0.9921
1380.875,1380.875,526.1321,355,2.75,Violin 1,0.25,0.075,79,0.9921
1380.875,1380.875,526.1321,355,2.75,Bassoon 2,0.25,0.075,55,0.9921
1380.875,1380.875,526.1321,355,2.75,Contrabass,0.25,0.075,43,0.9921
1380.875,1380.875,526.1321,355,2.75,Oboe 1,0.25,0.075,79,0.9921
1380.875,1380.875,526.1321,355,2.75,D Trumpet 1,0.25,0.075,66,0.9921
1380.875,1380.875,526.1321,355,2.75,Flute 1,0.25,0.075,79,0.9921
1380.875,1380.875,526.1321,355,2.75,Oboe 2,0.25,0.075,79,0.9921
1380.875,1380.875,526.1321,355,2.75,D Horn 1,0.25,0.075,66,0.9921
1381.125,1381.125,526.2071,355,3.0,Violin 1,1.0,0.3,81,1.0
1381.125,1381.125,526.2071,355,3.0,D Horn 2,1.75,0.525,57,0.9921
1381.125,1381.125,526.2071,355,3.0,Bassoon 1,1.0,0.3,57,1.0
1381.125,1381.125,526.2071,355,3.0,Oboe 2,1.0,0.3,81,1.0
1381.125,1381.125,526.2071,355,3.0,D Horn 1,1.75,0.525,69,0.9921
1381.125,1381.125,526.2071,355,3.0,Viola,1.0,0.3,69,1.0
1381.125,1381.125,526.2071,355,3.0,Oboe 1,1.0,0.3,81,1.0
1381.125,1381.125,526.2071,355,3.0,Contrabass,1.0,0.3,45,1.0
1381.125,1381.125,526.2071,355,3.0,Violin 2,1.0,0.3,69,1.0
1381.125,1381.125,526.2071,355,3.0,Flute 1,1.0,0.3,81,1.0
1381.125,1381.125,526.2071,355,3.0,Timpani,1.75,0.525,50,0.9921
1381.125,1381.125,526.2071,355,3.0,D Trumpet 2,1.75,0.525,69,0.9921
1381.125,1381.125,526.2071,355,3.0,Flute 2,1.0,0.3,81,1.0
1381.125,1381.125,526.2071,355,3.0,D Trumpet 1,1.75,0.525,69,0.9921
1381.125,1381.125,526.2071,355,3.0,Violoncello,1.0,0.3,57,1.0
1381.125,1381.125,526.2071,355,3.0,Bassoon 2,1.0,0.3,57,1.0
1382.125,1382.125,526.5071,355,4.0,Violin 1,0.5,0.15,81,0.9921
1382.125,1382.125,526.5071,355,4.0,Bassoon 1,0.5,0.15,57,0.9921
1382.125,1382.125,526.5071,355,4.0,Violin 2,0.5,0.15,69,0.9921
1382.125,1382.125,526.5071,355,4.0,Oboe 1,0.5,0.15,81,0.9921
1382.125,1382.125,526.5071,355,4.0,Bassoon 2,0.5,0.15,57,0.9921
1382.125,1382.125,526.5071,355,4.0,Violoncello,0.5,0.15,57,0.9921
1382.125,1382.125,526.5071,355,4.0,Flute 1,0.5,0.15,81,0.9921
1382.125,1382.125,526.5071,355,4.0,Flute 2,0.5,0.15,81,0.9921
1382.125,1382.125,526.5071,355,4.0,Viola,0.5,0.15,69,0.9921
1382.125,1382.125,526.5071,355,4.0,Contrabass,0.5,0.15,45,0.9921
1382.125,1382.125,526.5071,355,4.0,Oboe 2,0.5,0.15,81,0.9921
1382.625,1382.625,526.6571,355,4.5,Bassoon 1,0.25,0.075,59,0.9921
1382.625,1382.625,526.6571,355,4.5,Contrabass,0.25,0.075,47,0.9921
1382.625,1382.625,526.6571,355,4.5,Flute 2,0.25,0.075,83,0.9921
1382.625,1382.625,526.6571,355,4.5,Oboe 1,0.25,0.075,83,0.9921
1382.625,1382.625,526.6571,355,4.5,Oboe 2,0.25,0.075,83,0.9921
1382.625,1382.625,526.6571,355,4.5,Viola,0.25,0.075,71,0.9921
1382.625,1382.625,526.6571,355,4.5,Violin 2,0.25,0.075,71,0.9921
1382.625,1382.625,526.6571,355,4.5,Bassoon 2,0.25,0.075,59,0.9921
1382.625,1382.625,526.6571,355,4.5,Flute 1,0.25,0.075,83,0.9921
1382.625,1382.625,526.6571,355,4.5,Violin 1,0.25,0.075,83,0.9921
1382.625,1382.625,526.6571,355,4.5,Violoncello,0.25,0.075,59,0.9921
1382.875,1382.875,526.7321,355,4.75,Flute 1,0.25,0.075,85,0.9921
1382.875,1382.875,526.7321,355,4.75,Contrabass,0.25,0.075,49,0.9921
1382.875,1382.875,526.7321,355,4.75,Violin 1,0.25,0.075,85,0.9921
1382.875,1382.875,526.7321,355,4.75,D Trumpet 2,0.25,0.075,69,0.9921
1382.875,1382.875,526.7321,355,4.75,Oboe 2,0.25,0.075,85,0.9921
1382.875,1382.875,526.7321,355,4.75,Oboe 1,0.25,0.075,85,0.9921
1382.875,1382.875,526.7321,355,4.75,Bassoon 1,0.25,0.075,61,0.9921
1382.875,1382.875,526.7321,355,4.75,D Trumpet 1,0.25,0.075,69,0.9921
1382.875,1382.875,526.7321,355,4.75,Violoncello,0.25,0.075,61,0.9921
1382.875,1382.875,526.7321,355,4.75,Timpani,0.25,0.075,50,0.9921
1382.875,1382.875,526.7321,355,4.75,Violin 2,0.25,0.075,73,0.9921
1382.875,1382.875,526.7321,355,4.75,D Horn 1,0.25,0.075,69,0.9921
1382.875,1382.875,526.7321,355,4.75,Flute 2,0.25,0.075,85,0.9921
1382.875,1382.875,526.7321,355,4.75,Viola,0.25,0.075,73,0.9921
1382.875,1382.875,526.7321,355,4.75,Bassoon 2,0.25,0.075,61,0.9921
1382.875,1382.875,526.7321,355,4.75,D Horn 2,0.25,0.075,57,0.9921
1383.125,1383.125,526.8071,356,1.0,Viola,3.0,0.9,74,1.0
1383.125,1383.125,526.8071,356,1.0,Violin 1,3.0,0.9,86,1.0
1383.125,1383.125,526.8071,356,1.0,D Horn 1,2.0,0.6,74,1.0
1383.125,1383.125,526.8071,356,1.0,Flute 2,3.0,0.9,86,1.0
1383.125,1383.125,526.8071,356,1.0,Flute 1,3.0,0.9,86,1.0
1383.125,1383.125,526.8071,356,1.0,Contrabass,3.0,0.9,50,1.0
1383.125,1383.125,526.8071,356,1.0,D Trumpet 2,2.0,0.6,74,1.0
1383.125,1383.125,526.8071,356,1.0,Violoncello,3.0,0.9,62,1.0
1383.125,1383.125,526.8071,356,1.0,Bassoon 2,3.0,0.9,62,1.0
1383.125,1383.125,526.8071,356,1.0,Bassoon 1,3.0,0.9,62,1.0
1383.125,1383.125,526.8071,356,1.0,D Horn 2,2.0,0.6,62,1.0
1383.125,1383.125,526.8071,356,1.0,D Trumpet 1,2.0,0.6,74,1.0
1383.125,1383.125,526.8071,356,1.0,Oboe 2,3.0,0.9,74,1.0
1383.125,1383.125,526.8071,356,1.0,Oboe 1,3.0,0.9,86,1.0
1383.125,1383.125,526.8071,356,1.0,Timpani,1.0,0.3,50,0.9921
1383.125,1383.125,526.8071,356,1.0,Violin 2,3.0,0.9,74,1.0
1385.125,1385.125,527.4071,356,3.0,D Trumpet 1,1.75,0.525,74,1.0
1385.125,1385.125,527.4071,356,3.0,D Horn 2,1.75,0.525,62,1.0
1385.125,1385.125,527.4071,356,3.0,D Trumpet 2,1.75,0.525,74,1.0
1385.125,1385.125,527.4071,356,3.0,D Horn 1,1.75,0.525,74,1.0
1386.125,1386.125,527.7071,356,4.0,Violin 2,0.5,0.15,74,1.0
1386.125,1386.125,527.7071,356,4.0,Viola,0.5,0.15,74,1.0
1386.125,1386.125,527.7071,356,4.0,Contrabass,0.5,0.15,50,1.0
1386.125,1386.125,527.7071,356,4.0,Violoncello,0.5,0.15,62,1.0
1386.125,1386.125,527.7071,356,4.0,Bassoon 1,0.5,0.15,62,1.0
1386.125,1386.125,527.7071,356,4.0,Flute 1,0.5,0.15,86,1.0
1386.125,1386.125,527.7071,356,4.0,Flute 2,0.5,0.15,86,1.0
1386.125,1386.125,527.7071,356,4.0,Violin 1,0.5,0.15,86,1.0
1386.125,1386.125,527.7071,356,4.0,Oboe 1,0.5,0.15,86,1.0
1386.125,1386.125,527.7071,356,4.0,Oboe 2,0.5,0.15,74,1.0
1386.125,1386.125,527.7071,356,4.0,Bassoon 2,0.5,0.15,62,1.0
1386.625,1386.625,527.8571,356,4.5,Bassoon 2,0.25,0.075,61,1.0
1386.625,1386.625,527.8571,356,4.5,Violin 2,0.25,0.075,73,1.0
1386.625,1386.625,527.8571,356,4.5,Oboe 1,0.25,0.075,85,1.0
1386.625,1386.625,527.8571,356,4.5,Bassoon 1,0.25,0.075,61,1.0
1386.625,1386.625,527.8571,356,4.5,Contrabass,0.25,0.075,49,1.0
1386.625,1386.625,527.8571,356,4.5,Flute 2,0.25,0.075,85,1.0
1386.625,1386.625,527.8571,356,4.5,Violoncello,0.25,0.075,61,1.0
1386.625,1386.625,527.8571,356,4.5,Oboe 2,0.25,0.075,73,1.0
1386.625,1386.625,527.8571,356,4.5,Viola,0.25,0.075,73,1.0
1386.625,1386.625,527.8571,356,4.5,Violin 1,0.25,0.075,85,1.0
1386.625,1386.625,527.8571,356,4.5,Flute 1,0.25,0.075,85,1.0
1386.875,1386.875,527.9321,356,4.75,Timpani,0.25,0.075,50,0.9921
1386.875,1386.875,527.9321,356,4.75,Violin 2,0.25,0.075,71,1.0
1386.875,1386.875,527.9321,356,4.75,Violin 1,0.25,0.075,83,1.0
1386.875,1386.875,527.9321,356,4.75,D Horn 1,0.25,0.075,74,1.0
1386.875,1386.875,527.9321,356,4.75,Oboe 1,0.25,0.075,83,1.0
1386.875,1386.875,527.9321,356,4.75,Bassoon 1,0.25,0.075,59,1.0
1386.875,1386.875,527.9321,356,4.75,D Horn 2,0.25,0.075,62,1.0
1386.875,1386.875,527.9321,356,4.75,Contrabass,0.25,0.075,47,1.0
1386.875,1386.875,527.9321,356,4.75,Flute 1,0.25,0.075,83,1.0
1386.875,1386.875,527.9321,356,4.75,Oboe 2,0.25,0.075,71,1.0
1386.875,1386.875,527.9321,356,4.75,D Trumpet 1,0.25,0.075,74,1.0
1386.875,1386.875,527.9321,356,4.75,D Trumpet 2,0.25,0.075,74,1.0
1386.875,1386.875,527.9321,356,4.75,Violoncello,0.25,0.075,59,1.0
1386.875,1386.875,527.9321,356,4.75,Viola,0.25,0.075,71,1.0
1386.875,1386.875,527.9321,356,4.75,Bassoon 2,0.25,0.075,59,1.0
1386.875,1386.875,527.9321,356,4.75,Flute 2,0.25,0.075,83,1.0
1387.125,1387.125,528.0071,357,1.0,Timpani,1.75,0.525,50,0.9921
1387.125,1387.125,528.0071,357,1.0,Violin 2,1.0,0.3,69,1.0
1387.125,1387.125,528.0071,357,1.0,Flute 2,1.0,0.3,81,1.0
1387.125,1387.125,528.0071,357,1.0,Violoncello,1.0,0.3,57,1.0
1387.125,1387.125,528.0071,357,1.0,Bassoon 2,1.0,0.3,57,1.0
1387.125,1387.125,528.0071,357,1.0,Bassoon 1,1.0,0.3,57,1.0
1387.125,1387.125,528.0071,357,1.0,Oboe 2,1.0,0.3,69,1.0
1387.125,1387.125,528.0071,357,1.0,Violin 1,1.0,0.3,81,1.0
1387.125,1387.125,528.0071,357,1.0,Oboe 1,1.0,0.3,81,1.0
1387.125,1387.125,528.0071,357,1.0,D Horn 2,1.75,0.525,57,1.0
1387.125,1387.125,528.0071,357,1.0,D Trumpet 2,1.75,0.525,69,1.0
1387.125,1387.125,528.0071,357,1.0,Viola,1.0,0.3,69,1.0
1387.125,1387.125,528.0071,357,1.0,Contrabass,1.0,0.3,45,1.0
1387.125,1387.125,528.0071,357,1.0,D Trumpet 1,1.75,0.525,69,1.0
1387.125,1387.125,528.0071,357,1.0,Flute 1,1.0,0.3,81,1.0
1387.125,1387.125,528.0071,357,1.0,D Horn 1,1.75,0.525,69,1.0
1388.125,1388.125,528.3071,357,2.0,Oboe 1,0.25,0.075,81,1.0
1388.125,1388.125,528.3071,357,2.0,Bassoon 1,0.25,0.075,57,1.0
1388.125,1388.125,528.3071,357,2.0,Violoncello,0.25,0.075,57,1.0
1388.125,1388.125,528.3071,357,2.0,Violin 1,0.25,0.075,81,1.0
1388.125,1388.125,528.3071,357,2.0,Violin 2,0.25,0.075,69,1.0
1388.125,1388.125,528.3071,357,2.0,Flute 1,0.25,0.075,81,1.0
1388.125,1388.125,528.3071,357,2.0,Oboe 2,0.25,0.075,69,1.0
1388.125,1388.125,528.3071,357,2.0,Bassoon 2,0.25,0.075,57,1.0
1388.125,1388.125,528.3071,357,2.0,Flute 2,0.25,0.075,81,1.0
1388.125,1388.125,528.3071,357,2.0,Viola,0.25,0.075,69,1.0
1388.125,1388.125,528.3071,357,2.0,Contrabass,0.25,0.075,45,1.0
1388.375,1388.375,528.3821,357,2.25,Bassoon 2,0.25,0.075,59,1.0
1388.375,1388.375,528.3821,357,2.25,Violoncello,0.25,0.075,59,1.0
1388.375,1388.375,528.3821,357,2.25,Bassoon 1,0.25,0.075,59,1.0
1388.375,1388.375,528.3821,357,2.25,Violin 1,0.25,0.075,83,1.0
1388.375,1388.375,528.3821,357,2.25,Oboe 1,0.25,0.075,83,1.0
1388.375,1388.375,528.3821,357,2.25,Flute 2,0.25,0.075,83,1.0
1388.375,1388.375,528.3821,357,2.25,Flute 1,0.25,0.075,83,1.0
1388.375,1388.375,528.3821,357,2.25,Contrabass,0.25,0.075,47,1.0
1388.375,1388.375,528.3821,357,2.25,Viola,0.25,0.075,71,1.0
1388.375,1388.375,528.3821,357,2.25,Oboe 2,0.25,0.075,71,1.0
1388.375,1388.375,528.3821,357,2.25,Violin 2,0.25,0.075,71,1.0
1388.625,1388.625,528.4571,357,2.5,Violoncello,0.25,0.075,57,1.0
1388.625,1388.625,528.4571,357,2.5,Flute 2,0.25,0.075,81,1.0
1388.625,1388.625,528.4571,357,2.5,Violin 2,0.25,0.075,69,1.0
1388.625,1388.625,528.4571,357,2.5,Oboe 2,0.25,0.075,69,1.0
1388.625,1388.625,528.4571,357,2.5,Violin 1,0.25,0.075,81,1.0
1388.625,1388.625,528.4571,357,2.5,Oboe 1,0.25,0.075,81,1.0
1388.625,1388.625,528.4571,357,2.5,Bassoon 2,0.25,0.075,57,1.0
1388.625,1388.625,528.4571,357,2.5,Viola,0.25,0.075,69,1.0
1388.625,1388.625,528.4571,357,2.5,Flute 1,0.25,0.075,81,1.0
1388.625,1388.625,528.4571,357,2.5,Contrabass,0.25,0.075,45,1.0
1388.625,1388.625,528.4571,357,2.5,Bassoon 1,0.25,0.075,57,1.0
1388.875,1388.875,528.5321,357,2.75,D Horn 2,0.25,0.075,57,1.0
1388.875,1388.875,528.5321,357,2.75,Bassoon 1,0.25,0.075,55,1.0
1388.875,1388.875,528.5321,357,2.75,Violoncello,0.25,0.075,55,1.0
1388.875,1388.875,528.5321,357,2.75,D Trumpet 1,0.25,0.075,69,1.0
1388.875,1388.875,528.5321,357,2.75,Bassoon 2,0.25,0.075,55,1.0
1388.875,1388.875,528.5321,357,2.75,D Trumpet 2,0.25,0.075,69,1.0
1388.875,1388.875,528.5321,357,2.75,Violin 1,0.25,0.075,79,1.0
1388.875,1388.875,528.5321,357,2.75,Timpani,0.25,0.075,50,0.9921
1388.875,1388.875,528.5321,357,2.75,Contrabass,0.25,0.075,43,1.0
1388.875,1388.875,528.5321,357,2.75,Violin 2,0.25,0.075,67,1.0
1388.875,1388.875,528.5321,357,2.75,Flute 2,0.25,0.075,79,1.0
1388.875,1388.875,528.5321,357,2.75,Flute 1,0.25,0.075,79,1.0
1388.875,1388.875,528.5321,357,2.75,D Horn 1,0.25,0.075,69,1.0
1388.875,1388.875,528.5321,357,2.75,Viola,0.25,0.075,67,1.0
1388.875,1388.875,528.5321,357,2.75,Oboe 1,0.25,0.075,79,1.0
1388.875,1388.875,528.5321,357,2.75,Oboe 2,0.25,0.075,67,1.0
1389.125,1389.125,528.6071,357,3.0,Violin 2,1.0,0.3,66,1.0
1389.125,1389.125,528.6071,357,3.0,Violoncello,1.0,0.3,54,1.0
1389.125,1389.125,528.6071,357,3.0,Oboe 2,1.0,0.3,66,1.0
1389.125,1389.125,528.6071,357,3.0,Viola,1.0,0.3,66,1.0
1389.125,1389.125,528.6071,357,3.0,D Trumpet 1,1.75,0.525,66,1.0
1389.125,1389.125,528.6071,357,3.0,Contrabass,1.0,0.3,42,1.0
1389.125,1389.125,528.6071,357,3.0,D Trumpet 2,1.75,0.525,66,1.0
1389.125,1389.125,528.6071,357,3.0,Timpani,1.75,0.525,50,0.9921
1389.125,1389.125,528.6071,357,3.0,Violin 1,1.0,0.3,78,1.0
1389.125,1389.125,528.6071,357,3.0,Bassoon 1,1.0,0.3,54,1.0
1389.125,1389.125,528.6071,357,3.0,Bassoon 2,1.0,0.3,54,1.0
1389.125,1389.125,528.6071,357,3.0,Flute 2,1.0,0.3,78,1.0
1389.125,1389.125,528.6071,357,3.0,D Horn 2,1.75,0.525,54,1.0
1389.125,1389.125,528.6071,357,3.0,Oboe 1,1.0,0.3,78,1.0
1389.125,1389.125,528.6071,357,3.0,Flute 1,1.0,0.3,78,1.0
1389.125,1389.125,528.6071,357,3.0,D Horn 1,1.75,0.525,66,1.0
1390.125,1390.125,528.9071,357,4.0,Flute 1,0.25,0.075,78,1.0
1390.125,1390.125,528.9071,357,4.0,Violoncello,0.25,0.075,54,1.0
1390.125,1390.125,528.9071,357,4.0,Violin 1,0.25,0.075,78,1.0
1390.125,1390.125,528.9071,357,4.0,Flute 2,0.25,0.075,78,1.0
1390.125,1390.125,528.9071,357,4.0,Bassoon 1,0.25,0.075,54,1.0
1390.125,1390.125,528.9071,357,4.0,Contrabass,0.25,0.075,42,1.0
1390.125,1390.125,528.9071,357,4.0,Bassoon 2,0.25,0.075,54,1.0
1390.125,1390.125,528.9071,357,4.0,Viola,0.25,0.075,66,1.0
1390.125,1390.125,528.9071,357,4.0,Violin 2,0.25,0.075,66,1.0
1390.125,1390.125,528.9071,357,4.0,Oboe 1,0.25,0.075,78,1.0
1390.125,1390.125,528.9071,357,4.0,Oboe 2,0.25,0.075,66,1.0
1390.375,1390.375,528.9821,357,4.25,Violoncello,0.25,0.075,55,1.0
1390.375,1390.375,528.9821,357,4.25,Oboe 2,0.25,0.075,67,1.0
1390.375,1390.375,528.9821,357,4.25,Bassoon 1,0.25,0.075,55,1.0
1390.375,1390.375,528.9821,357,4.25,Bassoon 2,0.25,0.075,55,1.0
1390.375,1390.375,528.9821,357,4.25,Flute 2,0.25,0.075,79,1.0
1390.375,1390.375,528.9821,357,4.25,Violin 1,0.25,0.075,79,1.0
1390.375,1390.375,528.9821,357,4.25,Flute 1,0.25,0.075,79,1.0
1390.375,1390.375,528.9821,357,4.25,Oboe 1,0.25,0.075,79,1.0
1390.375,1390.375,528.9821,357,4.25,Contrabass,0.25,0.075,43,1.0
1390.375,1390.375,528.9821,357,4.25,Viola,0.25,0.075,67,1.0
1390.375,1390.375,528.9821,357,4.25,Violin 2,0.25,0.075,67,1.0
1390.625,1390.625,529.0571,357,4.5,Flute 1,0.25,0.075,78,1.0
1390.625,1390.625,529.0571,357,4.5,Bassoon 2,0.25,0.075,54,1.0
1390.625,1390.625,529.0571,357,4.5,Viola,0.25,0.075,66,1.0
1390.625,1390.625,529.0571,357,4.5,Violin 1,0.25,0.075,78,1.0
1390.625,1390.625,529.0571,357,4.5,Violin 2,0.25,0.075,66,1.0
1390.625,1390.625,529.0571,357,4.5,Contrabass,0.25,0.075,42,1.0
1390.625,1390.625,529.0571,357,4.5,Oboe 1,0.25,0.075,78,1.0
1390.625,1390.625,529.0571,357,4.5,Oboe 2,0.25,0.075,66,1.0
1390.625,1390.625,529.0571,357,4.5,Flute 2,0.25,0.075,78,1.0
1390.625,1390.625,529.0571,357,4.5,Bassoon 1,0.25,0.075,54,1.0
1390.625,1390.625,529.0571,357,4.5,Violoncello,0.25,0.075,54,1.0
1390.875,1390.875,529.1321,357,4.75,Flute 1,0.25,0.075,76,1.0
1390.875,1390.875,529.1321,357,4.75,Violoncello,0.25,0.075,52,1.0
1390.875,1390.875,529.1321,357,4.75,Bassoon 1,0.25,0.075,52,1.0
1390.875,1390.875,529.1321,357,4.75,Bassoon 2,0.25,0.075,52,1.0
1390.875,1390.875,529.1321,357,4.75,Viola,0.25,0.075,64,1.0
1390.875,1390.875,529.1321,357,4.75,Flute 2,0.25,0.075,76,1.0
1390.875,1390.875,529.1321,357,4.75,Timpani,0.25,0.075,50,0.9921
1390.875,1390.875,529.1321,357,4.75,Violin 1,0.25,0.075,76,1.0
1390.875,1390.875,529.1321,357,4.75,D Trumpet 1,0.25,0.075,66,1.0
1390.875,1390.875,529.1321,357,4.75,Contrabass,0.25,0.075,40,1.0
1390.875,1390.875,529.1321,357,4.75,D Horn 2,0.25,0.075,54,1.0
1390.875,1390.875,529.1321,357,4.75,Oboe 2,0.25,0.075,64,1.0
1390.875,1390.875,529.1321,357,4.75,Violin 2,0.25,0.075,64,1.0
1390.875,1390.875,529.1321,357,4.75,D Trumpet 2,0.25,0.075,66,1.0
1390.875,1390.875,529.1321,357,4.75,D Horn 1,0.25,0.075,66,1.0
1390.875,1390.875,529.1321,357,4.75,Oboe 1,0.25,0.075,76,1.0
1391.125,1391.125,529.2071,358,1.0,Timpani,1.75,0.525,50,0.9921
1391.125,1391.125,529.2071,358,1.0,Oboe 2,1.0,0.3,62,1.0
1391.125,1391.125,529.2071,358,1.0,Violoncello,1.0,0.3,50,1.0
1391.125,1391.125,529.2071,358,1.0,Contrabass,1.0,0.3,38,1.0
1391.125,1391.125,529.2071,358,1.0,Flute 1,1.0,0.3,74,1.0
1391.125,1391.125,529.2071,358,1.0,D Trumpet 2,1.0,0.3,62,1.0
1391.125,1391.125,529.2071,358,1.0,Oboe 1,1.0,0.3,74,1.0
1391.125,1391.125,529.2071,358,1.0,Violin 2,1.0,0.3,62,1.0
1391.125,1391.125,529.2071,358,1.0,Bassoon 1,1.0,0.3,50,1.0
1391.125,1391.125,529.2071,358,1.0,Bassoon 2,1.0,0.3,50,1.0
1391.125,1391.125,529.2071,358,1.0,D Trumpet 1,1.0,0.3,62,1.0
1391.125,1391.125,529.2071,358,1.0,Violin 1,1.0,0.3,74,1.0
1391.125,1391.125,529.2071,358,1.0,Viola,1.0,0.3,62,1.0
1391.125,1391.125,529.2071,358,1.0,Flute 2,1.0,0.3,74,1.0
1392.875,1392.875,529.7321,358,2.75,Flute 2,0.25,0.075,86,1.0
1392.875,1392.875,529.7321,358,2.75,D Horn 2,0.25,0.075,62,1.0
1392.875,1392.875,529.7321,358,2.75,D Trumpet 1,0.25,0.075,74,1.0
1392.875,1392.875,529.7321,358,2.75,Oboe 2,0.25,0.075,78,1.0
1392.875,1392.875,529.7321,358,2.75,A Clarinet 1,0.25,0.075,74,1.0
1392.875,1392.875,529.7321,358,2.75,D Horn 1,0.25,0.075,66,1.0
1392.875,1392.875,529.7321,358,2.75,Timpani,0.25,0.075,50,1.0
1392.875,1392.875,529.7321,358,2.75,Bassoon 2,0.25,0.075,50,1.0
1392.875,1392.875,529.7321,358,2.75,D Trumpet 2,0.25,0.075,62,1.0
1392.875,1392.875,529.7321,358,2.75,Oboe 1,0.25,0.075,81,1.0
1392.875,1392.875,529.7321,358,2.75,Flute 1,0.25,0.075,90,1.0
1392.875,1392.875,529.7321,358,2.75,A Clarinet 2,0.25,0.075,66,1.0
1392.875,1392.875,529.7321,358,2.75,Bassoon 1,0.25,0.075,62,1.0
1393.125,1393.125,529.8071,358,3.0,Bassoon 2,1.0,0.3,50,1.0
1393.125,1393.125,529.8071,358,3.0,Oboe 2,1.0,0.3,78,1.0
1393.125,1393.125,529.8071,358,3.0,D Trumpet 1,1.0,0.3,74,1.0
1393.125,1393.125,529.8071,358,3.0,Oboe 1,1.0,0.3,81,1.0
1393.125,1393.125,529.8071,358,3.0,Flute 1,1.0,0.3,90,1.0
1393.125,1393.125,529.8071,358,3.0,D Horn 1,1.0,0.3,66,1.0
1393.125,1393.125,529.8071,358,3.0,D Horn 2,1.0,0.3,62,1.0
1393.125,1393.125,529.8071,358,3.0,Flute 2,1.0,0.3,86,1.0
1393.125,1393.125,529.8071,358,3.0,A Clarinet 2,1.0,0.3,66,1.0
1393.125,1393.125,529.8071,358,3.0,Timpani,1.0,0.3,50,1.0
1393.125,1393.125,529.8071,358,3.0,D Trumpet 2,1.0,0.3,62,1.0
1393.125,1393.125,529.8071,358,3.0,A Clarinet 1,1.0,0.3,74,1.0
1393.125,1393.125,529.8071,358,3.0,Bassoon 1,1.0,0.3,62,1.0
1394.875,1394.875,530.3321,358,4.75,Violoncello,0.25,0.075,50,1.0
1394.875,1394.875,530.3321,358,4.75,Violin 1,0.25,0.075,78,0.7087
1394.875,1394.875,530.3321,358,4.75,Violin 2,0.25,0.075,69,0.7087
1394.875,1394.875,530.3321,358,4.75,Viola,0.25,0.075,62,1.0
1394.875,1394.875,530.3321,358,4.75,Violin 2,0.25,0.075,78,0.7087
1394.875,1394.875,530.3321,358,4.75,Contrabass,0.25,0.075,38,1.0
1394.875,1394.875,530.3321,358,4.75,Violin 1,0.25,0.075,86,0.7087
1395.125,1395.125,530.4071,359,1.0,Violoncello,1.0,0.3,45,1.0
1395.125,1395.125,530.4071,359,1.0,Violin 1,1.0,0.3,85,0.7087
1395.125,1395.125,530.4071,359,1.0,Violin 1,1.0,0.3,76,0.7087
1395.125,1395.125,530.4071,359,1.0,Contrabass,1.0,0.3,33,1.0
1395.125,1395.125,530.4071,359,1.0,Viola,1.0,0.3,57,1.0
1395.125,1395.125,530.4071,359,1.0,Violin 2,1.0,0.3,69,0.7087
1395.125,1395.125,530.4071,359,1.0,Violin 2,1.0,0.3,79,0.7087
1396.875,1396.875,530.9321,359,2.75,A Clarinet 1,0.25,0.075,73,1.0
1396.875,1396.875,530.9321,359,2.75,D Trumpet 2,0.25,0.075,57,1.0
1396.875,1396.875,530.9321,359,2.75,Timpani,0.25,0.075,45,0.9921
1396.875,1396.875,530.9321,359,2.75,Flute 2,0.25,0.075,85,1.0
1396.875,1396.875,530.9321,359,2.75,Oboe 1,0.25,0.075,81,1.0
1396.875,1396.875,530.9321,359,2.75,Bassoon 1,0.25,0.075,57,1.0
1396.875,1396.875,530.9321,359,2.75,D Horn 2,0.25,0.075,57,1.0
1396.875,1396.875,530.9321,359,2.75,Oboe 2,0.25,0.075,76,1.0
1396.875,1396.875,530.9321,359,2.75,Bassoon 2,0.25,0.075,45,1.0
1396.875,1396.875,530.9321,359,2.75,D Trumpet 1,0.25,0.075,69,1.0
1396.875,1396.875,530.9321,359,2.75,D Horn 1,0.25,0.075,64,1.0
1396.875,1396.875,530.9321,359,2.75,Flute 1,0.25,0.075,88,1.0
1396.875,1396.875,530.9321,359,2.75,A Clarinet 2,0.25,0.075,64,1.0
1397.125,1397.125,531.0071,359,3.0,Flute 2,1.0,0.3,85,1.0
1397.125,1397.125,531.0071,359,3.0,Flute 1,1.0,0.3,88,1.0
1397.125,1397.125,531.0071,359,3.0,Oboe 1,1.0,0.3,81,1.0
1397.125,1397.125,531.0071,359,3.0,Timpani,1.0,0.3,45,0.9921
1397.125,1397.125,531.0071,359,3.0,Bassoon 1,1.0,0.3,57,1.0
1397.125,1397.125,531.0071,359,3.0,Oboe 2,1.0,0.3,76,1.0
1397.125,1397.125,531.0071,359,3.0,A Clarinet 2,1.0,0.3,64,1.0
1397.125,1397.125,531.0071,359,3.0,D Horn 2,1.0,0.3,57,1.0
1397.125,1397.125,531.0071,359,3.0,A Clarinet 1,1.0,0.3,73,1.0
1397.125,1397.125,531.0071,359,3.0,Bassoon 2,1.0,0.3,45,1.0
1397.125,1397.125,531.0071,359,3.0,D Trumpet 1,1.0,0.3,69,1.0
1397.125,1397.125,531.0071,359,3.0,D Horn 1,1.0,0.3,64,1.0
1397.125,1397.125,531.0071,359,3.0,D Trumpet 2,1.0,0.3,57,1.0
1398.875,1398.875,531.5321,359,4.75,Viola,0.25,0.075,57,1.0
1398.875,1398.875,531.5321,359,4.75,Violin 1,0.25,0.075,85,0.7087
1398.875,1398.875,531.5321,359,4.75,Violin 1,0.25,0.075,76,0.7087
1398.875,1398.875,531.5321,359,4.75,Contrabass,0.25,0.075,33,1.0
1398.875,1398.875,531.5321,359,4.75,Violin 2,0.25,0.075,79,0.7087
1398.875,1398.875,531.5321,359,4.75,Violin 2,0.25,0.075,69,0.7087
1398.875,1398.875,531.5321,359,4.75,Violoncello,0.25,0.075,45,1.0
1399.125,1399.125,531.6071,360,1.0,Violin 2,1.0,0.3,78,0.7087
1399.125,1399.125,531.6071,360,1.0,Violin 2,1.0,0.3,69,0.7087
1399.125,1399.125,531.6071,360,1.0,Violin 1,1.0,0.3,78,0.7087
1399.125,1399.125,531.6071,360,1.0,Violin 1,1.0,0.3,86,0.7087
1399.125,1399.125,531.6071,360,1.0,Viola,1.0,0.3,62,1.0
1399.125,1399.125,531.6071,360,1.0,Contrabass,1.0,0.3,38,1.0
1399.125,1399.125,531.6071,360,1.0,Violoncello,1.0,0.3,50,1.0
1400.875,1400.875,532.1321,360,2.75,D Trumpet 2,0.25,0.075,62,1.0
1400.875,1400.875,532.1321,360,2.75,Timpani,0.25,0.075,50,0.9921
1400.875,1400.875,532.1321,360,2.75,Bassoon 1,0.25,0.075,62,1.0
1400.875,1400.875,532.1321,360,2.75,A Clarinet 1,0.25,0.075,74,1.0
1400.875,1400.875,532.1321,360,2.75,D Trumpet 1,0.25,0.075,74,1.0
1400.875,1400.875,532.1321,360,2.75,D Horn 2,0.25,0.075,62,1.0
1400.875,1400.875,532.1321,360,2.75,A Clarinet 2,0.25,0.075,66,1.0
1400.875,1400.875,532.1321,360,2.75,D Horn 1,0.25,0.075,66,1.0
1400.875,1400.875,532.1321,360,2.75,Bassoon 2,0.25,0.075,50,1.0
1400.875,1400.875,532.1321,360,2.75,Oboe 1,0.25,0.075,81,1.0
1400.875,1400.875,532.1321,360,2.75,Flute 2,0.25,0.075,86,1.0
1400.875,1400.875,532.1321,360,2.75,Flute 1,0.25,0.075,90,1.0
1400.875,1400.875,532.1321,360,2.75,Oboe 2,0.25,0.075,78,1.0
1401.125,1401.125,532.2071,360,3.0,D Horn 2,1.0,0.3,62,1.0
1401.125,1401.125,532.2071,360,3.0,Bassoon 1,1.0,0.3,62,1.0
1401.125,1401.125,532.2071,360,3.0,D Trumpet 1,1.0,0.3,74,1.0
1401.125,1401.125,532.2071,360,3.0,Bassoon 2,1.0,0.3,50,1.0
1401.125,1401.125,532.2071,360,3.0,A Clarinet 1,1.0,0.3,74,1.0
1401.125,1401.125,532.2071,360,3.0,Flute 2,1.0,0.3,86,1.0
1401.125,1401.125,532.2071,360,3.0,Flute 1,1.0,0.3,90,1.0
1401.125,1401.125,532.2071,360,3.0,D Horn 1,1.0,0.3,66,1.0
1401.125,1401.125,532.2071,360,3.0,Oboe 2,1.0,0.3,78,1.0
1401.125,1401.125,532.2071,360,3.0,D Trumpet 2,1.0,0.3,62,1.0
1401.125,1401.125,532.2071,360,3.0,A Clarinet 2,1.0,0.3,66,1.0
1401.125,1401.125,532.2071,360,3.0,Oboe 1,1.0,0.3,81,1.0
1401.125,1401.125,532.2071,360,3.0,Timpani,1.0,0.3,50,0.9921
1402.875,1402.875,532.7321,360,4.75,Violoncello,0.25,0.075,50,1.0
1402.875,1402.875,532.7321,360,4.75,Contrabass,0.25,0.075,38,1.0
1402.875,1402.875,532.7321,360,4.75,Viola,0.25,0.075,62,1.0
1402.875,1402.875,532.7321,360,4.75,Violin 2,0.25,0.075,78,0.7087
1402.875,1402.875,532.7321,360,4.75,Violin 1,0.25,0.075,86,0.7087
1402.875,1402.875,532.7321,360,4.75,Violin 1,0.25,0.075,78,0.7087
1402.875,1402.875,532.7321,360,4.75,Violin 2,0.25,0.075,69,0.7087
1403.125,1403.125,532.8071,361,1.0,Violin 1,1.0,0.3,85,0.7087
1403.125,1403.125,532.8071,361,1.0,Viola,1.0,0.3,57,1.0
1403.125,1403.125,532.8071,361,1.0,Violoncello,1.0,0.3,45,1.0
1403.125,1403.125,532.8071,361,1.0,Violin 2,1.0,0.3,79,0.7087
1403.125,1403.125,532.8071,361,1.0,Violin 2,1.0,0.3,69,0.7087
1403.125,1403.125,532.8071,361,1.0,Contrabass,1.0,0.3,33,1.0
1403.125,1403.125,532.8071,361,1.0,Violin 1,1.0,0.3,76,0.7087
1404.875,1404.875,533.3321,361,2.75,Oboe 1,0.25,0.075,81,1.0
1404.875,1404.875,533.3321,361,2.75,Bassoon 2,0.25,0.075,45,1.0
1404.875,1404.875,533.3321,361,2.75,D Horn 2,0.25,0.075,57,1.0
1404.875,1404.875,533.3321,361,2.75,Timpani,0.25,0.075,45,0.9921
1404.875,1404.875,533.3321,361,2.75,Bassoon 1,0.25,0.075,57,1.0
1404.875,1404.875,533.3321,361,2.75,D Trumpet 1,0.25,0.075,69,1.0
1404.875,1404.875,533.3321,361,2.75,D Horn 1,0.25,0.075,64,1.0
1404.875,1404.875,533.3321,361,2.75,A Clarinet 1,0.25,0.075,73,0.9921
1404.875,1404.875,533.3321,361,2.75,Flute 2,0.25,0.075,85,1.0
1404.875,1404.875,533.3321,361,2.75,Flute 1,0.25,0.075,88,1.0
1404.875,1404.875,533.3321,361,2.75,D Trumpet 2,0.25,0.075,57,1.0
1404.875,1404.875,533.3321,361,2.75,Oboe 2,0.25,0.075,76,1.0
1404.875,1404.875,533.3321,361,2.75,A Clarinet 2,0.25,0.075,64,0.9921
1405.125,1405.125,533.4071,361,3.0,Flute 2,1.0,0.3,85,1.0
1405.125,1405.125,533.4071,361,3.0,Flute 1,1.0,0.3,88,1.0
1405.125,1405.125,533.4071,361,3.0,Oboe 1,1.0,0.3,81,1.0
1405.125,1405.125,533.4071,361,3.0,D Horn 1,1.0,0.3,64,1.0
1405.125,1405.125,533.4071,361,3.0,D Horn 2,1.0,0.3,57,1.0
1405.125,1405.125,533.4071,361,3.0,Oboe 2,1.0,0.3,76,1.0
1405.125,1405.125,533.4071,361,3.0,D Trumpet 1,1.0,0.3,69,1.0
1405.125,1405.125,533.4071,361,3.0,A Clarinet 2,1.0,0.3,64,0.9921
1405.125,1405.125,533.4071,361,3.0,Bassoon 2,1.0,0.3,45,1.0
1405.125,1405.125,533.4071,361,3.0,Bassoon 1,1.0,0.3,57,1.0
1405.125,1405.125,533.4071,361,3.0,Timpani,1.0,0.3,45,0.9921
1405.125,1405.125,533.4071,361,3.0,D Trumpet 2,1.0,0.3,57,1.0
1405.125,1405.125,533.4071,361,3.0,A Clarinet 1,1.0,0.3,73,0.9921
1406.875,1406.875,533.9321,361,4.75,Viola,0.25,0.075,57,1.0
1406.875,1406.875,533.9321,361,4.75,Contrabass,0.25,0.075,33,1.0
1406.875,1406.875,533.9321,361,4.75,Violoncello,0.25,0.075,45,1.0
1406.875,1406.875,533.9321,361,4.75,Violin 1,0.25,0.075,85,0.7087
1406.875,1406.875,533.9321,361,4.75,Violin 1,0.25,0.075,76,0.7087
1406.875,1406.875,533.9321,361,4.75,Violin 2,0.25,0.075,79,0.7087
1406.875,1406.875,533.9321,361,4.75,Violin 2,0.25,0.075,69,0.7087
1407.125,1407.125,534.0071,362,1.0,A Clarinet 1,1.0,0.3,74,0.9921
1407.125,1407.125,534.0071,362,1.0,Bassoon 1,1.0,0.3,62,1.0
1407.125,1407.125,534.0071,362,1.0,Contrabass,1.0,0.3,38,1.0
1407.125,1407.125,534.0071,362,1.0,Violin 2,1.0,0.3,78,0.7087
1407.125,1407.125,534.0071,362,1.0,Oboe 1,1.0,0.3,81,1.0
1407.125,1407.125,534.0071,362,1.0,D Horn 1,1.0,0.3,62,1.0
1407.125,1407.125,534.0071,362,1.0,Timpani,1.0,0.3,50,0.9921
1407.125,1407.125,534.0071,362,1.0,Viola,1.0,0.3,62,1.0
1407.125,1407.125,534.0071,362,1.0,Oboe 2,1.0,0.3,78,1.0
1407.125,1407.125,534.0071,362,1.0,Violin 2,1.0,0.3,69,0.7087
1407.125,1407.125,534.0071,362,1.0,Violin 1,1.0,0.3,78,0.7087
1407.125,1407.125,534.0071,362,1.0,D Horn 2,1.0,0.3,54,1.0
1407.125,1407.125,534.0071,362,1.0,D Trumpet 2,1.0,0.3,62,1.0
1407.125,1407.125,534.0071,362,1.0,D Trumpet 1,1.0,0.3,74,1.0
1407.125,1407.125,534.0071,362,1.0,A Clarinet 2,1.0,0.3,66,0.9921
1407.125,1407.125,534.0071,362,1.0,Bassoon 2,1.0,0.3,50,1.0
1407.125,1407.125,534.0071,362,1.0,Violin 1,1.0,0.3,86,0.7087
1407.125,1407.125,534.0071,362,1.0,Flute 2,1.0,0.3,86,1.0
1407.125,1407.125,534.0071,362,1.0,Flute 1,1.0,0.3,90,1.0
1407.125,1407.125,534.0071,362,1.0,Violoncello,1.0,0.3,50,1.0
1410.875,1410.875,535.1321,362,4.75,Contrabass,0.25,0.075,38,1.0
1410.875,1410.875,535.1321,362,4.75,Violoncello,0.25,0.075,50,1.0
1410.875,1410.875,535.1321,362,4.75,Bassoon 2,0.25,0.075,50,1.0
1410.875,1410.875,535.1321,362,4.75,D Trumpet 1,0.25,0.075,62,1.0
1410.875,1410.875,535.1321,362,4.75,Viola,0.25,0.075,50,1.0
1410.875,1410.875,535.1321,362,4.75,Violin 1,0.25,0.075,62,1.0
1410.875,1410.875,535.1321,362,4.75,D Horn 1,0.25,0.075,62,1.0
1410.875,1410.875,535.1321,362,4.75,Bassoon 1,0.25,0.075,50,1.0
1410.875,1410.875,535.1321,362,4.75,Timpani,0.25,0.075,50,1.0
1410.875,1410.875,535.1321,362,4.75,A Clarinet 2,0.25,0.075,62,1.0
1410.875,1410.875,535.1321,362,4.75,Oboe 2,0.25,0.075,74,1.0
1410.875,1410.875,535.1321,362,4.75,Oboe 1,0.25,0.075,74,1.0
1410.875,1410.875,535.1321,362,4.75,D Trumpet 2,0.25,0.075,62,1.0
1410.875,1410.875,535.1321,362,4.75,Violin 2,0.25,0.075,62,1.0
1410.875,1410.875,535.1321,362,4.75,Flute 1,0.25,0.075,74,1.0
1410.875,1410.875,535.1321,362,4.75,D Horn 2,0.25,0.075,50,1.0
1410.875,1410.875,535.1321,362,4.75,Flute 2,0.25,0.075,74,1.0
1410.875,1410.875,535.1321,362,4.75,A Clarinet 1,0.25,0.075,74,1.0
1411.125,1411.125,535.2071,363,1.0,D Horn 2,1.0,0.3,50,1.0
1411.125,1411.125,535.2071,363,1.0,Flute 2,1.0,0.3,74,1.0
1411.125,1411.125,535.2071,363,1.0,D Horn 1,1.0,0.3,62,1.0
1411.125,1411.125,535.2071,363,1.0,Violin 1,1.0,0.3,62,1.0
1411.125,1411.125,535.2071,363,1.0,Bassoon 1,1.0,0.3,50,1.0
1411.125,1411.125,535.2071,363,1.0,Bassoon 2,1.0,0.3,50,1.0
1411.125,1411.125,535.2071,363,1.0,A Clarinet 1,1.0,0.3,74,1.0
1411.125,1411.125,535.2071,363,1.0,Viola,1.0,0.3,50,1.0
1411.125,1411.125,535.2071,363,1.0,A Clarinet 2,1.0,0.3,62,1.0
1411.125,1411.125,535.2071,363,1.0,D Trumpet 1,1.0,0.3,62,1.0
1411.125,1411.125,535.2071,363,1.0,Timpani,1.0,0.3,50,1.0
1411.125,1411.125,535.2071,363,1.0,Oboe 2,1.0,0.3,74,1.0
1411.125,1411.125,535.2071,363,1.0,Violoncello,1.0,0.3,50,1.0
1411.125,1411.125,535.2071,363,1.0,Violin 2,1.0,0.3,62,1.0
1411.125,1411.125,535.2071,363,1.0,Contrabass,1.0,0.3,38,1.0
1411.125,1411.125,535.2071,363,1.0,Oboe 1,1.0,0.3,74,1.0
1411.125,1411.125,535.2071,363,1.0,Flute 1,1.0,0.3,74,1.0
1411.125,1411.125,535.2071,363,1.0,D Trumpet 2,1.0,0.3,62,1.0
1413.125,1413.125,535.8071,363,3.0,Violin 1,1.0,0.3,62,1.0
1413.125,1413.125,535.8071,363,3.0,A Clarinet 2,1.0,0.3,62,1.0
1413.125,1413.125,535.8071,363,3.0,D Horn 1,1.0,0.3,62,1.0
1413.125,1413.125,535.8071,363,3.0,D Trumpet 1,1.0,0.3,62,1.0
1413.125,1413.125,535.8071,363,3.0,Bassoon 2,1.0,0.3,50,1.0
1413.125,1413.125,535.8071,363,3.0,Flute 1,1.0,0.3,86,1.0
1413.125,1413.125,535.8071,363,3.0,Viola,1.0,0.3,50,1.0
1413.125,1413.125,535.8071,363,3.0,D Trumpet 2,1.0,0.3,62,1.0
1413.125,1413.125,535.8071,363,3.0,Bassoon 1,1.0,0.3,50,1.0
1413.125,1413.125,535.8071,363,3.0,Timpani,1.0,0.3,50,1.0
1413.125,1413.125,535.8071,363,3.0,D Horn 2,1.0,0.3,50,1.0
1413.125,1413.125,535.8071,363,3.0,Oboe 2,1.0,0.3,74,1.0
1413.125,1413.125,535.8071,363,3.0,Contrabass,1.0,0.3,38,1.0
1413.125,1413.125,535.8071,363,3.0,Oboe 1,1.0,0.3,74,1.0
1413.125,1413.125,535.8071,363,3.0,Violoncello,1.0,0.3,50,1.0
1413.125,1413.125,535.8071,363,3.0,Violin 2,1.0,0.3,62,1.0
1413.125,1413.125,535.8071,363,3.0,Flute 2,1.0,0.3,86,1.0
1413.125,1413.125,535.8071,363,3.0,A Clarinet 1,1.0,0.3,74,1.0
1415.125,1415.125,536.4071,364,1.0,Timpani,4.0,1.2,50,1.0
1415.125,1415.125,536.4071,364,1.0,D Horn 2,4.0,1.2,50,1.0
1415.125,1415.125,536.4071,364,1.0,D Trumpet 2,4.0,1.2,62,1.0
1415.125,1415.125,536.4071,364,1.0,D Trumpet 1,4.0,1.2,62,1.0
1415.125,1415.125,536.4071,364,1.0,Violin 2,4.0,1.2,62,1.0
1415.125,1415.125,536.4071,364,1.0,Flute 1,4.0,1.2,86,1.0
1415.125,1415.125,536.4071,364,1.0,Violin 1,4.0,1.2,62,1.0
1415.125,1415.125,536.4071,364,1.0,Bassoon 2,4.0,1.2,50,1.0
1415.125,1415.125,536.4071,364,1.0,Viola,4.0,1.2,50,1.0
1415.125,1415.125,536.4071,364,1.0,Bassoon 1,4.0,1.2,50,1.0
1415.125,1415.125,536.4071,364,1.0,A Clarinet 2,4.0,1.2,62,1.0
1415.125,1415.125,536.4071,364,1.0,A Clarinet 1,4.0,1.2,74,1.0
1415.125,1415.125,536.4071,364,1.0,Oboe 2,4.0,1.2,74,1.0
1415.125,1415.125,536.4071,364,1.0,Oboe 1,4.0,1.2,74,1.0
1415.125,1415.125,536.4071,364,1.0,Violoncello,4.0,1.2,50,1.0
1415.125,1415.125,536.4071,364,1.0,Flute 2,4.0,1.2,86,1.0
1415.125,1415.125,536.4071,364,1.0,D Horn 1,4.0,1.2,62,1.0
1415.125,1415.125,536.4071,364,1.0,Contrabass,4.0,1.2,38,1.0
